<?xml version="1.0" standalone="no"?>
<!DOCTYPE svg PUBLIC "-//W3C//DTD SVG 1.1//EN" "http://www.w3.org/Graphics/SVG/1.1/DTD/svg11.dtd" >
<svg xmlns="http://www.w3.org/2000/svg" xmlns:xlink="http://www.w3.org/1999/xlink" version="1.1">
<metadata>
Created by FontForge 20170731 at Sat Apr 30 16:38:18 2022
 By Aleksey,,,
Copyright (c) 2001 by Henrik Kubel, A2/SW/HK + A2-TYPE. All rights reserved.
</metadata>
<defs>
<font id="Boing-LightItalic" horiz-adv-x="1169" >
  <font-face 
    font-family="Boing-Light Italic"
    font-weight="300"
    font-style="italic"
    font-stretch="normal"
    units-per-em="2048"
    panose-1="2 11 3 3 3 0 0 9 0 4"
    ascent="1536"
    descent="-512"
    x-height="950"
    cap-height="1434"
    bbox="-491.19 -514 2506.23 1980"
    underline-thickness="102"
    underline-position="-460"
    slope="-10"
    unicode-range="U+000D-FB04"
  />
<missing-glyph horiz-adv-x="0" 
 />
    <glyph glyph-name="f_f" unicode="ff" horiz-adv-x="1075" 
d="M897 950h207q17 0 25.5 -10.5t3.5 -24.5l-11 -55q-9 -31 -43 -31h-205l-139 -794q-12 -35 -39 -35h-73q-14 0 -22.5 11t-4.5 24l139 794h-325l-142 -794q-1 -13 -13 -24t-26 -11h-71q-14 0 -23.5 11t-5.5 24l141 794h-147q-12 0 -20.5 11t-4.5 24l11 56q6 30 36 30h144
l41 217q27 142 103.5 204.5t180.5 62.5h58q18 0 26 -10t4 -27l-10 -60q-6 -30 -35 -30h-24q-139 -3 -166 -146l-37 -211h326l41 219q25 148 111.5 221.5t211.5 73.5q126 0 197 -65q11 -7 11 -21t-11 -26l-37 -49q-16 -23 -55 2q-50 32 -109 32q-67 0 -116 -46.5t-66 -127.5z
" />
    <glyph glyph-name="fi" unicode="fi" horiz-adv-x="946" 
d="M289 950l41 219q28 154 108 224.5t207 70.5q54 0 112.5 -17.5t92.5 -47.5q22 -22 2 -47l-33 -43q-21 -30 -53 -11q-66 39 -125 39q-134 0 -172 -180l-39 -207h434q13 0 21 -10.5t6 -24.5l-156 -880q-1 -13 -14 -24t-27 -11h-69q-14 0 -23.5 11t-5.5 24l139 794h-325
l-142 -794q-1 -13 -13 -24t-26 -11h-71q-14 0 -23.5 11t-5.5 24l141 794h-147q-12 0 -20.5 11t-4.5 24l11 56q6 30 36 30h144z" />
    <glyph glyph-name="fl" unicode="fl" horiz-adv-x="1015" 
d="M270 829h-147q-12 0 -20.5 11t-4.5 24l11 56q6 30 36 30h144l41 217q27 142 103.5 204.5t180.5 62.5h58q18 0 26 -10t4 -27l-10 -60q-6 -30 -35 -30h-24q-139 -3 -166 -146l-37 -211h328l80 449q6 35 36 35h76q15 0 23 -9.5t4 -25.5l-209 -1178q-10 -51 14 -75.5
t72 -24.5h66q29 0 26 -33l-10 -55q-6 -33 -43 -33h-84q-95 0 -146 57t-32 172l106 600h-327l-142 -794q-1 -13 -13 -24t-26 -11h-71q-14 0 -23.5 11t-5.5 24z" />
    <glyph glyph-name="f_f_i" unicode="ffi" horiz-adv-x="1413" 
d="M561 -162l176 991h-327l-142 -794q-1 -13 -13 -24t-26 -11h-71q-14 0 -23.5 11t-5.5 24l141 794h-147q-12 0 -20.5 11t-4.5 24l11 56q6 30 36 30h144l41 217q27 142 103.5 204.5t180.5 62.5h58q18 0 26 -10t4 -27l-10 -60q-6 -30 -35 -30h-24q-139 -3 -166 -146l-37 -211
h326l41 219q28 154 108 224.5t207 70.5q54 0 112.5 -17.5t92.5 -47.5q22 -22 2 -47l-33 -43q-21 -30 -53 -11q-66 39 -125 39q-134 0 -172 -180l-39 -207h432q14 0 22.5 -11t4.5 -24l-154 -880q-5 -14 -16.5 -24.5t-24.5 -10.5h-71q-13 0 -22 10.5t-7 24.5l141 794h-325
l-179 -999q-28 -154 -107 -224.5t-206 -70.5q-53 0 -112 18t-93 48q-22 22 -2 47l33 43q21 29 53 10q66 -39 125 -39q72 0 115 46t57 130z" />
    <glyph glyph-name="f_f_l" unicode="ffl" horiz-adv-x="1478" 
d="M877 829l-181 -999q-28 -154 -107 -224.5t-206 -70.5q-56 0 -113.5 18t-91.5 48q-26 20 -2 47l33 43q16 29 53 10q59 -39 125 -39q135 0 172 176l176 991h-325l-142 -794q-1 -13 -13 -24t-26 -11h-71q-14 0 -23.5 11t-5.5 24l141 794h-147q-12 0 -20.5 11t-4.5 24l11 56
q6 30 36 30h144l41 217q27 142 103.5 204.5t180.5 62.5h58q18 0 26 -10t4 -27l-10 -60q-6 -30 -35 -30h-24q-139 -3 -166 -146l-37 -211h326l39 217q14 73 43.5 126.5t68.5 83.5t82 43.5t92 13.5h58q18 0 26 -10t4 -27l-12 -60q0 -30 -35 -30h-22q-141 -3 -168 -146
l-35 -211h324l79 449q6 35 37 35h76q15 0 23 -9.5t4 -25.5l-209 -1178q-10 -51 14 -75.5t72 -24.5h65q30 0 27 -33l-10 -55q-6 -33 -43 -33h-84q-95 0 -146 57t-32 172l106 600h-323z" />
    <glyph glyph-name="f_b" unicode="fb" horiz-adv-x="1703" 
d="M1128 -27q-125 0 -224 66t-140 176l-31 -180q-9 -35 -39 -35h-73q-13 0 -22 9.5t-5 25.5l139 794h-323l-142 -794q-1 -13 -13 -24t-26 -11h-71q-14 0 -23.5 11t-5.5 24l141 794h-147q-12 0 -20.5 11t-4.5 24l11 56q6 30 36 30h144l41 217q27 142 103.5 204.5t180.5 62.5
h58q18 0 26 -10t4 -27l-10 -60q-6 -30 -35 -30h-24q-139 -3 -166 -146l-37 -211h326l78 449q2 15 12 25t26 10h72q14 0 23.5 -11t5.5 -24l-109 -606q52 81 145 131.5t201 50.5q184 0 303 -127t119 -318q0 -120 -41 -225t-110 -177t-161 -113.5t-192 -41.5zM1184 850
q-156 0 -267.5 -125t-111.5 -301q0 -138 87.5 -232t225.5 -94q157 0 265 124.5t108 297.5q0 137 -82.5 233.5t-224.5 96.5z" />
    <glyph glyph-name="f_f_b" unicode="ffb" horiz-adv-x="2168" 
d="M1649 850q-102 0 -189 -57t-137.5 -155t-50.5 -214q0 -138 87.5 -232t225.5 -94q103 0 189 57.5t134 154.5t48 210q0 137 -82.5 233.5t-224.5 96.5zM737 829h-327l-142 -794q-1 -13 -13 -24t-26 -11h-71q-14 0 -23.5 11t-5.5 24l141 794h-147q-12 0 -20.5 11t-4.5 24
l11 56q6 30 36 30h144l41 217q27 142 103.5 204.5t180.5 62.5h58q18 0 26 -10t4 -27l-10 -60q-6 -30 -35 -30h-24q-139 -3 -166 -146l-37 -211h326l39 217q14 73 43.5 126.5t68.5 83.5t82 43.5t92 13.5h58q18 0 26 -10t4 -27l-12 -60q0 -30 -35 -30h-22q-141 -3 -168 -146
l-35 -211h324l79 449q2 14 12.5 24.5t26.5 10.5h72q13 0 22 -10.5t7 -24.5l-109 -606q52 82 144 132t200 50q184 0 303 -127t119 -318q0 -120 -41 -225t-109.5 -177t-160 -113.5t-191.5 -41.5q-127 0 -225 65.5t-139 176.5l-33 -180q-9 -35 -37 -35h-74q-15 0 -23.5 9.5
t-4.5 25.5l141 794h-323l-179 -999q-28 -154 -107 -224.5t-206 -70.5q-53 0 -112 18t-93 48q-22 22 -2 47l33 43q21 29 53 10q66 -39 125 -39q72 0 115 46t57 130z" />
    <glyph glyph-name="f_f_f" unicode="fff" horiz-adv-x="1540" 
d="M1221 950l41 219q28 154 108 224.5t207 70.5q54 0 112.5 -17.5t92.5 -47.5q22 -22 2 -47l-33 -43q-21 -30 -53 -11q-66 39 -125 39q-134 0 -172 -180l-39 -207h209q14 0 22 -11t4 -24l-10 -55q-6 -31 -43 -31h-203l-141 -794q-1 -13 -13 -24t-26 -11h-71q-14 0 -23.5 11
t-5.5 24l141 794h-325l-179 -999q-28 -154 -107 -224.5t-206 -70.5q-53 0 -112 18t-93 48q-22 22 -2 47l33 43q21 29 53 10q66 -39 125 -39q72 0 115 46t57 130l176 991h-327l-142 -794q-1 -13 -13 -24t-26 -11h-71q-14 0 -23.5 11t-5.5 24l141 794h-147q-12 0 -20.5 11
t-4.5 24l11 56q6 30 36 30h144l41 217q27 142 103.5 204.5t180.5 62.5h58q18 0 26 -10t4 -27l-10 -60q-6 -30 -35 -30h-24q-139 -3 -166 -146l-37 -211h326l39 217q14 73 43.5 126.5t68.5 83.5t82 43.5t92 13.5h58q18 0 26 -10t4 -27l-12 -60q0 -30 -35 -30h-22
q-141 -3 -168 -146l-35 -211h324z" />
    <glyph glyph-name="f_f_h" unicode="ffh" horiz-adv-x="2144" 
d="M737 829h-327l-142 -794q-1 -13 -13 -24t-26 -11h-71q-14 0 -23.5 11t-5.5 24l141 794h-147q-12 0 -20.5 11t-4.5 24l11 56q6 30 36 30h144l41 217q27 142 103.5 204.5t180.5 62.5h58q18 0 26 -10t4 -27l-10 -60q-6 -30 -35 -30h-24q-139 -3 -166 -146l-37 -211h326
l39 217q14 73 43.5 126.5t68.5 83.5t82 43.5t92 13.5h58q18 0 26 -10t4 -27l-12 -60q0 -30 -35 -30h-22q-141 -3 -168 -146l-35 -211h324l79 449q6 35 37 35h76q33 0 27 -33l-109 -615q55 87 149 138t210 51q187 0 284.5 -116t61.5 -310l-90 -516q-9 -33 -41 -33h-74
q-30 0 -27 33l88 495q29 153 -35 236.5t-206 83.5q-143 0 -243 -97t-128 -253l-82 -465q-9 -33 -39 -33h-74q-14 0 -22 11t-4 24l141 794h-323l-179 -999q-28 -154 -107 -224.5t-206 -70.5q-53 0 -112 18t-93 48q-22 22 -2 47l33 43q21 29 53 10q66 -39 125 -39q72 0 115 46
t57 130z" />
    <glyph glyph-name="f_f_j" unicode="ffj" horiz-adv-x="1413" 
d="M756 950l41 219q25 148 111.5 221.5t211.5 73.5q126 0 197 -65q11 -7 11 -21t-11 -26l-37 -49q-16 -23 -55 2q-50 32 -109 32q-67 0 -116 -46.5t-66 -127.5l-37 -213h430q14 0 23.5 -11t5.5 -24l-191 -1079q-28 -154 -111 -227.5t-204 -73.5q-70 0 -126 20t-83 48
q-20 20 2 45l29 41q22 31 55 10q55 -39 117 -39q68 0 116.5 45t65.5 129l176 995h-328l-139 -794q-12 -35 -39 -35h-73q-14 0 -22.5 11t-4.5 24l139 794h-325l-142 -794q-1 -13 -13 -24t-26 -11h-71q-14 0 -23.5 11t-5.5 24l141 794h-147q-12 0 -20.5 11t-4.5 24l11 56
q6 30 36 30h144l41 217q27 142 103.5 204.5t180.5 62.5h58q18 0 26 -10t4 -27l-10 -60q-6 -30 -35 -30h-24q-139 -3 -166 -146l-37 -211h326z" />
    <glyph glyph-name="f_f_k" unicode="ffk" horiz-adv-x="1968" 
d="M737 829h-327l-142 -794q-1 -13 -13 -24t-26 -11h-71q-14 0 -23.5 11t-5.5 24l141 794h-147q-12 0 -20.5 11t-4.5 24l11 56q6 30 36 30h144l41 217q27 142 103.5 204.5t180.5 62.5h58q18 0 26 -10t4 -27l-10 -60q-6 -30 -35 -30h-24q-139 -3 -166 -146l-37 -211h326
l39 217q14 73 43.5 126.5t68.5 83.5t82 43.5t92 13.5h58q18 0 26 -10t4 -27l-12 -60q0 -30 -35 -30h-22q-141 -3 -168 -146l-35 -211h324l79 449q6 35 39 35h72q17 0 25.5 -10.5t3.5 -24.5l-146 -815h142l372 346q17 20 41 20h115q14 0 17 -11t-7 -21l-432 -394l354 -489
q11 -12 5 -23.5t-23 -11.5h-86q-38 0 -53 27l-320 448h-143l-78 -440q-2 -14 -12.5 -24.5t-26.5 -10.5h-72q-34 0 -28 35l141 794h-323l-179 -999q-28 -154 -107 -224.5t-206 -70.5q-53 0 -112 18t-93 48q-22 22 -2 47l33 43q21 29 53 10q66 -39 125 -39q72 0 115 46t57 130
z" />
    <glyph glyph-name="f_f_t" unicode="fft" horiz-adv-x="1642" 
d="M385 -465q-53 0 -112 18t-93 48q-22 22 -2 47l33 43q21 29 53 10q66 -39 125 -39q72 0 115 46t57 130l176 991h-327l-142 -794q-1 -13 -13 -24t-26 -11h-71q-14 0 -23.5 11t-5.5 24l141 794h-147q-12 0 -20.5 11t-4.5 24l11 56q6 30 36 30h144l41 217q27 142 103.5 204.5
t180.5 62.5h58q18 0 26 -10t4 -27l-10 -60q-6 -30 -35 -30h-24q-139 -3 -166 -146l-37 -211h326l39 217q14 73 43.5 126.5t68.5 83.5t82 43.5t92 13.5h58q18 0 26 -10t4 -27l-12 -60q0 -30 -35 -30h-22q-141 -3 -168 -146l-35 -211h324l55 310q6 34 43 34h67q37 0 31 -34
l-55 -310h293q15 0 25 -9.5t6 -25.5l-11 -57q-6 -29 -39 -29h-297l-98 -569q-13 -75 16.5 -112t88.5 -37q65 0 135 39q38 21 53 -13l25 -45q14 -26 -17 -45q-92 -61 -215 -61q-115 0 -184 78.5t-41 203.5l98 561h-323l-179 -999q-28 -154 -107 -224.5t-206 -70.5z" />
    <glyph glyph-name="f_h" unicode="fh" horiz-adv-x="1679" 
d="M229 0h-71q-14 0 -23.5 11t-5.5 24l141 794h-147q-12 0 -20.5 11t-4.5 24l11 56q6 30 36 30h144l41 217q27 142 103.5 204.5t180.5 62.5h58q18 0 26 -10t4 -27l-10 -60q-6 -30 -35 -30h-24q-139 -3 -166 -146l-37 -211h326l80 449q6 35 36 35h76q15 0 24 -8.5t5 -24.5
l-111 -615q57 87 150.5 138t208.5 51q188 0 284 -115.5t64 -310.5l-92 -516q-9 -33 -41 -33h-74q-30 0 -27 33l91 495q26 153 -37.5 236.5t-204.5 83.5q-145 0 -244 -96.5t-127 -253.5l-84 -465q-6 -33 -39 -33h-73q-14 0 -22.5 11t-4.5 24l141 794h-325l-142 -794
q-1 -13 -13 -24t-26 -11z" />
    <glyph glyph-name="f_j" unicode="fj" horiz-adv-x="946" 
d="M289 950l41 219q28 154 108 224.5t207 70.5q54 0 112.5 -17.5t92.5 -47.5q22 -22 2 -47l-33 -43q-21 -30 -53 -11q-66 39 -125 39q-134 0 -172 -180l-39 -207h432q13 0 22 -10.5t7 -24.5l-195 -1085q-28 -154 -107 -224.5t-206 -70.5q-53 0 -112 18t-93 48q-22 22 -2 47
l33 43q21 29 53 10q66 -39 125 -39q72 0 115 46t57 130l176 991h-325l-142 -794q-1 -13 -13 -24t-26 -11h-71q-14 0 -23.5 11t-5.5 24l141 794h-147q-12 0 -20.5 11t-4.5 24l11 56q6 30 36 30h144z" />
    <glyph glyph-name="f_k" unicode="fk" horiz-adv-x="1503" 
d="M410 829l-142 -794q-1 -13 -13 -24t-26 -11h-71q-14 0 -23.5 11t-5.5 24l141 794h-147q-12 0 -20.5 11t-4.5 24l11 56q6 30 36 30h144l41 217q27 142 103.5 204.5t180.5 62.5h58q18 0 26 -10t4 -27l-10 -60q-6 -30 -35 -30h-24q-139 -3 -166 -146l-37 -211h326l80 449
q6 35 38 35h72q17 0 25.5 -10.5t3.5 -24.5l-144 -815h140l372 346q17 20 41 20h115q14 0 17 -11t-7 -21l-432 -394l355 -489q11 -12 4.5 -23.5t-23.5 -11.5h-86q-38 0 -53 27l-318 448h-143l-80 -440q-2 -14 -12.5 -24.5t-26.5 -10.5h-71q-35 0 -29 35l141 794h-325z" />
    <glyph glyph-name="f_t" unicode="ft" horiz-adv-x="1175" 
d="M860 -14q-115 0 -184 78.5t-41 203.5l98 561h-323l-142 -794q-1 -13 -13 -24t-26 -11h-71q-14 0 -23.5 11t-5.5 24l141 794h-147q-12 0 -20.5 11t-4.5 24l11 56q6 30 36 30h144l41 217q27 142 103.5 204.5t180.5 62.5h58q18 0 26 -10t4 -27l-10 -60q-6 -30 -35 -30h-24
q-139 -3 -166 -146l-37 -211h324l55 310q6 34 43 34h68q36 0 30 -34l-55 -310h293q15 0 25 -9.5t6 -25.5l-11 -57q-6 -29 -39 -29h-297l-98 -569q-13 -75 16.5 -112t88.5 -37q65 0 135 39q38 21 53 -13l25 -45q14 -26 -17 -45q-92 -61 -215 -61z" />
    <glyph glyph-name=".notdef" horiz-adv-x="0" 
 />
    <glyph glyph-name=".null" horiz-adv-x="0" 
 />
    <glyph glyph-name="nonmarkingreturn" horiz-adv-x="682" 
 />
    <glyph glyph-name="CR" unicode="&#xd;" horiz-adv-x="0" 
 />
    <glyph glyph-name="space" unicode=" " horiz-adv-x="495" 
 />
    <glyph glyph-name="exclam" unicode="!" horiz-adv-x="518" 
d="M492 1399l-168 -899q-5 -14 -16.5 -24.5t-24.5 -10.5h-68q-13 0 -22 10.5t-7 24.5l148 899q5 14 16 24.5t23 10.5h90q14 0 23.5 -11t5.5 -24zM190 -27q-55 0 -91 40t-31 96q6 56 48.5 95.5t96.5 39.5q55 0 91.5 -39.5t31.5 -95.5t-48 -96t-98 -40z" />
    <glyph glyph-name="quotedbl" unicode="&#x22;" horiz-adv-x="735" 
d="M315 891h-75q-14 0 -23 10t-8 23l84 475q12 35 41 35h76q13 0 22.5 -10.5t7.5 -24.5l-86 -475q-3 -33 -39 -33zM643 891h-78q-31 0 -28 33l84 475q12 35 38 35h78q14 0 23.5 -11t5.5 -24l-84 -475q-9 -33 -39 -33z" />
    <glyph glyph-name="numbersign" unicode="#" horiz-adv-x="1275" 
d="M834 565l51 301h-350l-54 -301h353zM461 457l-74 -422q-6 -35 -39 -35h-45q-15 0 -24 9.5t-5 25.5l74 422h-235q-33 0 -27 35l6 38q6 35 39 35h238l53 301h-236q-15 0 -23.5 9.5t-4.5 25.5l8 41q6 33 39 33h235l76 424q8 35 39 35h45q15 0 24 -9.5t5 -25.5l-76 -424h352
l74 424q6 35 39 35h47q15 0 23 -9.5t4 -25.5l-76 -424h237q14 0 22.5 -10t4.5 -23l-6 -41q-1 -13 -14 -24t-25 -11h-238l-53 -301h236q15 0 23.5 -9.5t4.5 -25.5l-8 -38q-9 -35 -39 -35h-237l-74 -422q-6 -35 -37 -35h-47q-14 0 -22.5 11t-4.5 24l74 422h-352z" />
    <glyph glyph-name="dollar" unicode="$" horiz-adv-x="1249" 
d="M571 846l62 -23l90 508q-153 0 -252.5 -72t-99.5 -194q0 -144 200 -219zM793 616l-68 25l-94 -539q92 0 164.5 24t116.5 64.5t66.5 89.5t22.5 103q0 157 -208 233zM606 -27l-24 -143q-3 -29 -37 -29h-66q-25 0 -22 29l26 156q-155 27 -269 107t-165 169q-10 18 -4.5 33.5
t23.5 26.5l38 24q42 25 66 -12q134 -179 336 -219l100 571l-110 41q-142 53 -208.5 138t-66.5 190q0 179 140 292t364 113h18l19 107q3 28 33 28h67q28 0 25 -28l-21 -119q239 -43 385 -221q31 -37 -14 -64l-41 -24q-35 -21 -63 10q-121 133 -289 170l-96 -539l112 -43
q287 -108 287 -346q0 -60 -18.5 -118t-60 -112.5t-101.5 -96t-150 -66.5t-198 -25h-15z" />
    <glyph glyph-name="percent" unicode="%" horiz-adv-x="1445" 
d="M176 985q0 123 37 227.5t109 169t165 64.5q101 0 163.5 -73t62.5 -208q0 -123 -37 -227t-109.5 -168.5t-165.5 -64.5q-101 0 -163 72.5t-62 207.5zM1407 1386l-1159 -1347q-20 -25 -30 -32t-28 -7h-36q-19 0 -24.5 13.5t11.5 33.5l1159 1348q20 25 30 32t28 7h37
q19 0 24 -14t-12 -34zM279 983q0 -97 37 -142.5t92 -45.5q79 0 141.5 104.5t62.5 267.5q0 97 -37.5 143t-91.5 46q-82 0 -143 -104.5t-61 -268.5zM821 264q0 123 37 227.5t109.5 169t165.5 64.5q100 0 161.5 -73t61.5 -208q0 -123 -36.5 -227t-109 -168.5t-166.5 -64.5
q-98 0 -160.5 73t-62.5 207zM922 262q0 -97 37 -142.5t92 -45.5q82 0 143 104t61 268q0 97 -37 143t-92 46q-79 0 -141.5 -105t-62.5 -268z" />
    <glyph glyph-name="ampersand" unicode="&#x26;" horiz-adv-x="1372" 
d="M471 1112q0 -116 113 -254l34 19q150 81 208.5 150.5t58.5 143.5t-56 125.5t-137 51.5q-92 0 -156.5 -61.5t-64.5 -174.5zM504 100q212 0 383 181l-352 426l-64 -37q-141 -83 -198.5 -161.5t-57.5 -162.5q0 -98 77 -172t212 -74zM1104 16l-137 168q-211 -211 -482 -211
q-125 0 -222 51.5t-146 132.5t-49 175q0 126 74 229t239 193l80 43q-61 74 -95 155t-34 152q0 152 101 254t263 102q145 0 234.5 -84.5t89.5 -197.5t-71 -202t-244 -181l-48 -25l320 -387q119 158 211 420q9 33 43 33h72q15 0 22.5 -8.5t3.5 -24.5q-36 -126 -108 -267
t-162 -251l209 -252q10 -11 3.5 -22t-20.5 -11h-108q-23 0 -39 16z" />
    <glyph glyph-name="quotesingle" unicode="'" horiz-adv-x="464" 
d="M223 1032l131 174q-43 12 -70.5 48t-23.5 79q4 57 42.5 92t94.5 35q57 0 96.5 -41.5t38.5 -103.5q-6 -127 -217 -318q-43 -34 -71 -18l-13 8q-34 15 -8 45z" />
    <glyph glyph-name="parenleft" unicode="(" horiz-adv-x="561" 
d="M291 -217q-91 142 -144 315t-53 357q0 191 70 391.5t177.5 363t244.5 297.5q29 29 59 29h43q25 0 30 -16t-13 -39q-467 -529 -467 -1037q0 -159 46.5 -324t125.5 -308q16 -29 6.5 -43.5t-37.5 -14.5h-35q-34 0 -53 29z" />
    <glyph glyph-name="parenright" unicode=")" horiz-adv-x="561" 
d="M334 1507q91 -142 143.5 -314t52.5 -357q0 -283 -139.5 -563.5t-351.5 -489.5q-29 -29 -59 -29h-43q-25 0 -30.5 16.5t13.5 39.5q467 529 467 1036q0 160 -46.5 325t-125.5 308q-15 29 -6 43t37 14h35q34 0 53 -29z" />
    <glyph glyph-name="asterisk" unicode="*" horiz-adv-x="999" 
d="M610 705q-5 -31 -30 -48.5t-60 -13.5t-53 30.5t-12 59.5q3 15 22.5 68t48 126t31.5 81q-15 -7 -80.5 -41t-117.5 -60t-68 -30q-32 -11 -60 3t-38 48q-10 30 4.5 58.5t44.5 39.5q18 7 77 14t135.5 13.5t86.5 7.5q-18 11 -132 66.5t-135 74.5q-30 24 -34.5 54.5t18.5 60.5
q23 29 53.5 32t59.5 -20q17 -15 100.5 -107t101.5 -110q0 15 -1 93t-0.5 129.5t3.5 68.5q4 32 31 50t62 13q32 -6 49.5 -33t11.5 -59q-4 -26 -42.5 -128.5t-57.5 -143.5q13 7 78.5 42.5t118 62t69.5 30.5q32 10 59.5 -4.5t38.5 -46.5q11 -31 -4.5 -61.5t-46.5 -37.5
q-19 -6 -142 -21.5t-157 -23.5q217 -98 268 -135q27 -19 32.5 -52t-17.5 -58q-23 -26 -55 -29.5t-58 16.5q-17 14 -99.5 104t-103.5 109q0 -16 1.5 -88.5t1.5 -129.5t-3 -74z" />
    <glyph glyph-name="plus" unicode="+" horiz-adv-x="1034" 
d="M604 1176h74q14 0 23.5 -10t5.5 -23l-62 -346h338q13 0 23 -10.5t8 -24.5l-15 -72q-2 -14 -13.5 -24.5t-24.5 -10.5h-340l-62 -346q-5 -14 -16.5 -24.5t-24.5 -10.5h-74q-12 0 -20.5 11t-7.5 24l63 346h-338q-13 0 -21.5 10.5t-6.5 24.5l14 72q1 13 13 24t26 11h336
l63 346q1 13 13 23t26 10z" />
    <glyph glyph-name="comma" unicode="," horiz-adv-x="491" 
d="M25 -180l133 174q-42 11 -68 46t-22 77q4 57 43 92t96 35q55 0 94 -43t35 -103q-2 -41 -27 -89t-64.5 -92t-70 -74t-61.5 -56q-43 -33 -68 -18l-12 6q-33 20 -8 45z" />
    <glyph glyph-name="hyphen" unicode="-" horiz-adv-x="706" 
d="M549 475h-389q-15 0 -24 9.5t-5 27.5l12 74q9 35 41 35h389q15 0 24 -10.5t5 -26.5l-12 -74q-8 -35 -41 -35z" />
    <glyph glyph-name="period" unicode="." horiz-adv-x="481" 
d="M184 -27q-56 0 -92 40t-31 96q4 55 47 95t97 40q57 0 92.5 -39.5t30.5 -95.5q-4 -55 -47 -95.5t-97 -40.5z" />
    <glyph glyph-name="slash" unicode="/" horiz-adv-x="929" 
d="M80 0h-62q-16 0 -21 12.5t3 24.5l895 1366q19 31 45 31h59q17 0 22.5 -12t-5.5 -25l-891 -1366q-17 -31 -45 -31z" />
    <glyph glyph-name="zero" unicode="0" horiz-adv-x="1220" 
d="M741 1460q201 0 319 -146t118 -411q0 -177 -42 -342.5t-118 -297t-194 -211t-259 -79.5q-201 0 -317.5 146t-116.5 411q0 177 41.5 342.5t117.5 297t193.5 211t257.5 79.5zM729 1343q-121 0 -226.5 -111t-168 -300t-62.5 -406q0 -224 85.5 -330t222.5 -106
q120 0 225.5 111t168 300t62.5 406q0 115 -24 201t-67.5 136.5t-97 74.5t-118.5 24z" />
    <glyph glyph-name="one" unicode="1" horiz-adv-x="600" 
d="M154 1171l10 58q3 31 33 31h49q97 0 145.5 31.5t81.5 109.5q10 20 20.5 26.5t28.5 6.5h39q32 0 29 -29l-242 -1370q-12 -35 -43 -35h-69q-13 0 -22 10.5t-7 24.5l196 1108h-223q-32 0 -26 28z" />
    <glyph glyph-name="two" unicode="2" horiz-adv-x="1126" 
d="M946 0h-891q-13 0 -21.5 10.5t-6.5 24.5l8 47q7 29 37 55l499 410q118 97 183.5 156t121.5 123.5t77.5 118.5t21.5 116q0 120 -86.5 196t-212.5 76q-141 0 -234 -83t-133 -212q-12 -39 -53 -28l-59 14q-30 11 -21 45q51 179 184 285t328 106q184 0 308 -109t124 -270
q0 -67 -16 -123.5t-61 -126.5t-130 -153.5t-217 -190.5l-448 -358h723q15 0 23.5 -9.5t4.5 -25.5l-12 -59q-6 -35 -41 -35z" />
    <glyph glyph-name="three" unicode="3" 
d="M545 -27q-119 0 -215.5 33.5t-157.5 90.5t-91 131.5t-24 156.5l4 57q1 11 10.5 18t20.5 7h82q28 0 25 -25l-4 -47q-4 -57 15.5 -109t61 -95.5t115 -69t168.5 -25.5q74 0 137.5 20t107.5 54t75.5 78t46 91t14.5 95q0 132 -86 209.5t-248 77.5h-100q-13 0 -21 7t-4 20l6 51
q3 19 23 39l493 462h-710q-15 0 -25 9.5t-6 25.5l12 64q8 35 43 35h848q32 0 29 -33l-8 -58q-10 -44 -23 -57l-487 -455q198 -12 302.5 -118t104.5 -267q0 -90 -36 -174t-102 -151t-169 -107.5t-227 -40.5z" />
    <glyph glyph-name="four" unicode="4" horiz-adv-x="1161" 
d="M739 424h-682q-14 0 -23 11t-5 24l12 63q6 35 31 60l776 823q26 29 59 29h115q18 0 26.5 -9t4.5 -26l-152 -852h209q15 0 24 -9.5t5 -25.5l-11 -53q-6 -35 -43 -35h-204l-70 -389q-6 -35 -41 -35h-72q-17 0 -24 10.5t-2 24.5zM193 547h569l129 737z" />
    <glyph glyph-name="five" unicode="5" horiz-adv-x="1155" 
d="M528 -25q-173 0 -302.5 76.5t-190.5 194.5q-15 27 16 49l49 29q37 21 56 -9q126 -215 372 -215q181 0 294.5 112.5t113.5 266.5q0 147 -95.5 233.5t-248.5 86.5q-147 0 -277 -86q-33 -20 -53 -11l-57 21q-29 10 -23 35l187 641q5 14 16.5 24.5t24.5 10.5h723q31 0 28 -35
l-10 -64q-12 -35 -43 -35h-643l-137 -464q136 79 297 79q199 0 327.5 -116.5t128.5 -309.5q0 -104 -40 -198t-111 -164t-175.5 -111t-226.5 -41z" />
    <glyph glyph-name="six" unicode="6" horiz-adv-x="1159" 
d="M565 -27q-208 0 -343.5 129.5t-135.5 329.5q0 96 32 194t98.5 193.5t127 170.5t160 165.5t152.5 135.5t147 121l3 3t3 2.5t3.5 2.5t3 2.5t3.5 2.5q19 16 41 13l109 -6q11 0 16 -6t2.5 -14t-10.5 -15q-93 -73 -192 -157t-241 -219.5t-218 -236.5q142 125 346 125
q81 0 157.5 -27.5t139.5 -78.5t101 -132t38 -179q0 -220 -155.5 -369.5t-387.5 -149.5zM625 799q-117 0 -209.5 -56t-139.5 -143t-47 -186q0 -141 96.5 -229.5t245.5 -88.5q173 0 283.5 116t110.5 269q0 143 -96 230.5t-244 87.5z" />
    <glyph glyph-name="seven" unicode="7" horiz-adv-x="1034" 
d="M1157 1401l-8 -45q-6 -38 -25 -66l-807 -1272q-12 -18 -34 -18h-105q-16 0 -21 12.5t3 24.5l821 1263h-778q-15 0 -25 9.5t-6 25.5l12 64q8 35 41 35h905q33 0 27 -33z" />
    <glyph glyph-name="eight" unicode="8" horiz-adv-x="1245" 
d="M602 -27q-235 0 -378.5 115.5t-143.5 290.5q0 148 102 257.5t269 143.5q-90 42 -139.5 118t-49.5 169q0 113 63 203.5t172.5 140t243.5 49.5q205 0 332 -99t127 -259q0 -125 -84.5 -224.5t-214.5 -132.5q115 -49 177.5 -139t62.5 -198q0 -188 -152 -311.5t-387 -123.5z
M723 815q153 0 247.5 83t94.5 194q0 107 -86.5 179t-239.5 72t-244.5 -81.5t-91.5 -194.5q0 -107 84.5 -179.5t235.5 -72.5zM610 702q-176 0 -278.5 -94.5t-102.5 -220.5q0 -123 101 -208t278 -85q89 0 163.5 26t122 70t73.5 100.5t26 117.5q0 124 -103.5 209t-279.5 85z
" />
    <glyph glyph-name="nine" unicode="9" horiz-adv-x="1159" 
d="M389 -4l-108 6q-11 0 -16 6t-3 14t10 15q13 11 79.5 66.5t110.5 93t118.5 103.5t129 118t114.5 115t100 116q-142 -125 -346 -125q-81 0 -158 27.5t-139.5 78.5t-101 132.5t-38.5 179.5q0 145 70.5 263.5t195 186.5t277.5 68q208 0 343.5 -129.5t135.5 -329.5
q0 -96 -32 -194t-98.5 -193.5t-127 -170.5t-160 -165.5t-152.5 -135.5t-147 -121q-11 -9 -16 -13q-18 -15 -41 -12zM625 635q117 0 209 56t139 143t47 186q0 143 -96 230t-246 87q-116 0 -207.5 -56t-138.5 -143t-47 -186q0 -141 96 -229t244 -88z" />
    <glyph glyph-name="colon" unicode=":" horiz-adv-x="512" 
d="M305 670q-54 0 -89.5 38t-31.5 93q4 56 47 94.5t99 38.5q54 0 88.5 -38t30.5 -95q-4 -55 -46.5 -93t-97.5 -38zM182 -27q-55 0 -90.5 39.5t-30.5 93.5q4 57 46 95.5t98 38.5q54 0 89.5 -38.5t31.5 -95.5q-5 -54 -47.5 -93.5t-96.5 -39.5z" />
    <glyph glyph-name="semicolon" unicode=";" horiz-adv-x="530" 
d="M317 670q-54 0 -89 38t-31 93q4 56 46 94.5t97 38.5q56 0 91.5 -38t31.5 -95q-4 -55 -47 -93t-99 -38zM27 -180l133 174q-42 11 -68 46t-22 79q4 55 43.5 90t95.5 35t94.5 -42.5t34.5 -103.5q-2 -41 -27 -89t-64.5 -92t-70 -74t-61.5 -56q-43 -33 -68 -18l-12 6
q-33 20 -8 45z" />
    <glyph glyph-name="less" unicode="&#x3c;" horiz-adv-x="1112" 
d="M940 397l-14 -78q-4 -21 -20.5 -27.5t-28.5 1.5l-734 346q-39 18 -28 74q12 53 55 71l852 340q18 8 30.5 2t8.5 -28l-14 -92q-2 -27 -43 -41l-707 -260l612 -267q38 -13 31 -41z" />
    <glyph glyph-name="equal" unicode="=" horiz-adv-x="1153" 
d="M1049 860h-811q-14 0 -22.5 11t-4.5 24l10 68q9 34 41 34h811q15 0 24 -9t5 -25l-12 -68q-9 -35 -41 -35zM975 434h-811q-14 0 -22.5 11t-4.5 24l10 68q9 34 41 34h811q15 0 24 -9t5 -25l-12 -68q-9 -35 -41 -35z" />
    <glyph glyph-name="greater" unicode="&#x3e;" horiz-adv-x="1112" 
d="M135 319l15 93q7 28 45 41l706 262l-614 264q-36 16 -29 43l14 76q4 21 19.5 27.5t27.5 -1.5l736 -344q37 -19 26 -75q-13 -56 -53 -72l-854 -340q-14 -7 -27 0t-12 26z" />
    <glyph glyph-name="question" unicode="?" horiz-adv-x="991" 
d="M633 1460q166 0 270.5 -92t104.5 -229q0 -67 -22 -127.5t-58.5 -107t-80.5 -90.5t-89.5 -84.5t-85 -80t-68.5 -87.5t-37 -97l-6 -25q-3 -28 -35 -28h-80q-13 0 -21.5 8.5t-4.5 19.5l8 43q12 59 42 114t68 97.5t82 84t85.5 81t75.5 79.5t54.5 88.5t20.5 100.5
q0 91 -64.5 147t-164.5 56q-197 0 -305 -190q-21 -30 -56 -15l-55 25q-13 7 -18 22t4 33q64 117 173.5 185.5t262.5 68.5zM436 -25q-55 0 -91.5 40t-31.5 96q4 55 47 94t99 39t91.5 -39t31.5 -94t-48 -95.5t-98 -40.5z" />
    <glyph glyph-name="at" unicode="@" horiz-adv-x="1857" 
d="M1313 -205l76 -31q11 -5 11 -13.5t-11 -12.5q-204 -133 -486 -133q-233 0 -419.5 102.5t-290 281t-103.5 398.5q0 200 71 374t192.5 295.5t289.5 191t356 69.5q215 0 391 -90t277.5 -253.5t101.5 -369.5q0 -136 -34 -250t-89.5 -186.5t-123.5 -112t-140 -39.5
q-82 0 -135 47.5t-59 118.5q-52 -72 -137 -119t-179 -47q-163 0 -268.5 109t-105.5 276q0 104 36.5 195.5t96.5 154t140 98.5t165 36q110 0 197 -56.5t122 -150.5l27 151q6 31 37 31h63q14 0 22.5 -8.5t4.5 -24.5l-94 -516q-36 -182 84 -182q41 0 84.5 32t81 89.5t62 150
t24.5 201.5q0 138 -52.5 253.5t-142 192t-208 118.5t-251.5 42q-154 0 -297 -60t-250.5 -164.5t-172 -258.5t-64.5 -330q0 -195 91.5 -352t248.5 -244.5t348 -87.5q110 0 190 18.5t173 59.5q29 13 49 6zM889 135q131 0 225 105t94 254q0 115 -72.5 193.5t-189.5 78.5
q-130 0 -221.5 -104.5t-91.5 -253.5q0 -112 68.5 -192.5t187.5 -80.5z" />
    <glyph glyph-name="A" unicode="A" horiz-adv-x="1310" 
d="M956 539l-155 759l-418 -759h573zM315 414l-209 -381q-14 -33 -45 -33h-86q-17 0 -22.5 11t2.5 28l758 1364q19 31 45 31h123q33 0 39 -33l288 -1362q5 -17 -3 -28t-25 -11h-86q-29 0 -35 33l-78 381h-666z" />
    <glyph glyph-name="B" unicode="B" horiz-adv-x="1368" 
d="M768 0h-637q-14 0 -23.5 11t-5.5 24l242 1364q12 35 39 35h543q98 0 175 -28.5t122.5 -76t68.5 -105t23 -120.5q0 -114 -75.5 -213.5t-209.5 -134.5q119 -40 181.5 -125.5t62.5 -196.5q0 -58 -17 -116t-56 -116t-96 -102.5t-144 -72t-193 -27.5zM473 1313l-90 -500h444
q152 0 242 74t90 207q0 103 -68 161t-186 58h-432zM262 121h516q149 0 247.5 88t98.5 227q0 122 -92 190t-231 68h-436z" />
    <glyph glyph-name="C" unicode="C" horiz-adv-x="1501" 
d="M272 645q0 -236 145.5 -389.5t373.5 -153.5q178 0 311 90t219 248q14 22 23 25q7 3 16 2l80 -23q30 -8 16 -36q-94 -203 -273.5 -319t-404.5 -116q-190 0 -339 86.5t-231.5 238.5t-82.5 343q0 171 63 324t168 260.5t246.5 170t294.5 62.5q232 0 400 -125t225 -336
q5 -11 -1 -21t-22 -11l-80 -9q-24 -3 -33 19q-55 168 -181 261t-312 93q-168 0 -311 -91t-226.5 -249t-83.5 -344z" />
    <glyph glyph-name="D" unicode="D" horiz-adv-x="1486" 
d="M383 1434h383q325 0 504.5 -166.5t179.5 -448.5q0 -179 -59 -330.5t-167 -259.5t-265.5 -168.5t-348.5 -60.5h-479q-14 0 -23.5 11t-5.5 24l242 1364q12 35 39 35zM264 135h359q197 0 350 81.5t240 236.5t87 360q0 231 -143.5 358t-388.5 127h-297z" />
    <glyph glyph-name="E" unicode="E" horiz-adv-x="1241" 
d="M383 1434h934q13 0 21.5 -9.5t4.5 -25.5l-12 -66q-6 -35 -41 -35h-819l-90 -505h422q15 0 23.5 -9.5t4.5 -25.5l-12 -64q-6 -35 -39 -35h-422l-94 -524h830q32 0 26 -35l-12 -65q-6 -35 -43 -35h-934q-14 0 -23.5 11t-5.5 24l242 1364q1 13 13 24t26 11z" />
    <glyph glyph-name="F" unicode="F" horiz-adv-x="1159" 
d="M967 725l-11 -63q-6 -35 -41 -35h-563l-106 -592q-1 -13 -13 -24t-26 -11h-76q-14 0 -23.5 11t-5.5 24l242 1364q1 13 13 24t26 11h879q13 0 21.5 -9.5t4.5 -25.5l-12 -66q-6 -35 -41 -35h-764l-96 -538h565q33 0 27 -35z" />
    <glyph glyph-name="G" unicode="G" horiz-adv-x="1566" 
d="M1257 37l46 250q-25 -43 -58 -83.5t-84.5 -83.5t-111 -74.5t-139.5 -52t-167 -20.5q-178 0 -319 83t-220 231t-79 334q0 234 103.5 426.5t285.5 302.5t404 110q229 0 404 -119.5t228 -324.5q11 -26 -26 -35l-74 -14q-28 -6 -37 24q-55 162 -183.5 250t-318.5 88
q-135 0 -254 -56.5t-202.5 -151t-132 -222.5t-48.5 -268q0 -232 138.5 -380.5t363.5 -148.5q106 0 201 35t165.5 94.5t121.5 134.5t79 160h-479q-14 0 -21 11t-3 24l8 55q6 31 37 31h577q37 0 31 -35l-100 -577q-5 -19 -13 -27t-30 -8h-60q-39 0 -33 37z" />
    <glyph glyph-name="H" unicode="H" horiz-adv-x="1531" 
d="M1518 1399l-242 -1364q-6 -35 -37 -35h-80q-14 0 -22 9.5t-4 25.5l110 624h-887l-108 -624q-6 -35 -39 -35h-78q-15 0 -23 9.5t-4 25.5l240 1364q6 35 41 35h76q32 0 26 -35l-106 -606h887l106 606q6 35 39 35h76q15 0 24 -9.5t5 -25.5z" />
    <glyph glyph-name="I" unicode="I" horiz-adv-x="501" 
d="M209 0h-80q-15 0 -23 9.5t-4 25.5l242 1364q6 35 39 35h76q15 0 23.5 -9.5t4.5 -25.5l-241 -1364q-6 -35 -37 -35z" />
    <glyph glyph-name="J" unicode="J" horiz-adv-x="1185" 
d="M1188 1399l-166 -938q-39 -229 -170 -358.5t-358 -129.5q-151 0 -262 66t-160 179.5t-25 250.5l10 55q1 13 13 24t26 11h72q13 0 22 -10.5t7 -24.5l-13 -65q-25 -156 63.5 -256.5t254.5 -100.5q158 0 252 99.5t125 269.5l163 928q5 14 16.5 24.5t24.5 10.5h74
q13 0 23 -10.5t8 -24.5z" />
    <glyph glyph-name="K" unicode="K" horiz-adv-x="1275" 
d="M360 682l-112 -647q-6 -35 -37 -35h-80q-17 0 -24.5 10.5t-2.5 24.5l240 1364q6 35 37 35h80q14 0 22 -9.5t4 -25.5l-104 -590h205l649 598q27 27 57 27h119q14 0 17 -10t-7 -21l-716 -655l479 -717q7 -11 1 -21t-22 -10h-98q-29 0 -47 27l-432 655h-228z" />
    <glyph glyph-name="L" unicode="L" horiz-adv-x="1089" 
d="M1016 100l-12 -65q-6 -35 -43 -35h-830q-14 0 -23.5 11t-5.5 24l242 1364q1 13 13 24t26 11h76q14 0 23 -11t5 -24l-223 -1264h725q33 0 27 -35z" />
    <glyph glyph-name="M" unicode="M" horiz-adv-x="1792" 
d="M569 1403l310 -1000l661 1000q22 31 55 31h154q13 0 22 -10.5t7 -24.5l-242 -1364q-5 -14 -16.5 -24.5t-24.5 -10.5h-76q-12 0 -20 10.5t-6 24.5l217 1233l-676 -1010q-16 -31 -53 -31h-58q-37 0 -43 31l-317 1010l-217 -1233q-1 -13 -13 -24t-26 -11h-76q-14 0 -23.5 11
t-5.5 24l242 1364q1 13 13 24t26 11h143q34 0 43 -31z" />
    <glyph glyph-name="N" unicode="N" horiz-adv-x="1470" 
d="M1051 31l-596 1183l-209 -1179q-6 -35 -37 -35h-76q-14 0 -23.5 11t-5.5 24l242 1364q2 15 11.5 25t25.5 10h88q27 0 43 -29l592 -1180l207 1174q8 35 39 35h75q15 0 24 -9.5t5 -25.5l-242 -1364q-2 -14 -12.5 -24.5t-23.5 -10.5h-76q-39 0 -51 31z" />
    <glyph glyph-name="O" unicode="O" horiz-adv-x="1591" 
d="M889 1460q192 0 344.5 -88t236.5 -241.5t84 -344.5q0 -167 -59 -317.5t-160 -259t-243 -172.5t-301 -64q-192 0 -344.5 88t-236 241.5t-83.5 344.5q0 167 59.5 317.5t160.5 259t242.5 172.5t299.5 64zM889 1329q-171 0 -312.5 -91.5t-222 -248t-80.5 -342.5
q0 -235 145.5 -389t375.5 -154q170 0 311 91.5t221 248t80 342.5q0 155 -64.5 278.5t-183 194t-270.5 70.5z" />
    <glyph glyph-name="P" unicode="P" horiz-adv-x="1251" 
d="M735 541h-397l-90 -506q-6 -35 -39 -35h-78q-13 0 -22 10.5t-7 24.5l242 1364q1 13 13 24t26 11h451q115 0 205 -32.5t144.5 -89t82.5 -128.5t28 -156q0 -100 -36 -187.5t-104 -155t-176 -106t-243 -38.5zM360 670h381q180 0 293 92t113 256q0 139 -88 213t-240 74h-346z
" />
    <glyph glyph-name="Q" unicode="Q" horiz-adv-x="1591" 
d="M795 104q203 0 354 123l-346 342q-20 20 2 45l43 45q24 23 47 0l346 -342q166 196 166 469q0 155 -64.5 278.5t-183 194t-270.5 70.5q-171 0 -312.5 -91.5t-222 -248t-80.5 -342.5q0 -235 145.5 -389t375.5 -154zM1389 -8l-142 139q-204 -158 -456 -158q-192 0 -344.5 88
t-236 241.5t-83.5 344.5q0 167 59.5 317.5t160.5 259t242.5 172.5t299.5 64q192 0 344.5 -88t236.5 -241.5t84 -344.5q0 -163 -56 -309t-157 -258l140 -137q21 -20 -2 -43l-45 -47q-22 -22 -45 0z" />
    <glyph glyph-name="R" unicode="R" horiz-adv-x="1374" 
d="M369 733h450q104 0 183.5 28.5t124 76t66 101.5t21.5 112q0 117 -79 185.5t-220 68.5h-444zM348 610l-102 -575q-2 -14 -12.5 -24.5t-26.5 -10.5h-76q-15 0 -24 9.5t-5 25.5l242 1364q2 14 12.5 24.5t26.5 10.5h543q205 0 320.5 -102t115.5 -269q0 -43 -8 -87
t-35.5 -101.5t-71 -104t-123 -86.5t-184.5 -57l297 -592q8 -12 1 -23.5t-24 -11.5h-94q-29 0 -43 33l-284 577h-445z" />
    <glyph glyph-name="S" unicode="S" horiz-adv-x="1232" 
d="M719 1460q175 0 308 -64t218 -169q31 -37 -14 -64l-41 -24q-36 -22 -64 10q-164 182 -411 182q-153 0 -253 -72t-100 -194q0 -144 201 -219l291 -109q287 -108 287 -346q0 -60 -18.5 -118t-60 -112.5t-101.5 -96t-150 -66.5t-199 -25q-108 0 -205.5 27.5t-168 72
t-119.5 92.5t-78 97q-10 18 -5 33.5t23 26.5l39 24q42 25 66 -12q74 -101 188.5 -166.5t263.5 -65.5q182 0 279.5 82t97.5 199q0 156 -209 233l-295 111q-274 103 -274 328q0 179 140 292t364 113z" />
    <glyph glyph-name="T" unicode="T" horiz-adv-x="1243" 
d="M176 1333l12 66q6 35 37 35h1129q13 0 21.5 -9.5t4.5 -25.5l-12 -66q-6 -35 -41 -35h-487l-226 -1263q-6 -35 -39 -35h-77q-14 0 -23.5 11t-5.5 24l223 1263h-487q-15 0 -24 9.5t-5 25.5z" />
    <glyph glyph-name="U" unicode="U" horiz-adv-x="1431" 
d="M1434 1399l-162 -910q-43 -250 -196 -383t-408 -133q-161 0 -282.5 59.5t-183 178t-34.5 276.5l162 912q1 13 13 24t26 11h77q14 0 22.5 -11t4.5 -24l-160 -912q-31 -179 74 -281t299 -102q175 0 292.5 100t149.5 283l160 912q1 13 14 24t27 11h76q13 0 22 -10.5t7 -24.5
z" />
    <glyph glyph-name="V" unicode="V" horiz-adv-x="1323" 
d="M641 0h-121q-32 0 -41 33l-286 1362q-4 17 4.5 28t25.5 11h90q27 0 33 -31l256 -1253h6l690 1253q16 31 43 31h99q18 0 23 -11t-5 -28l-766 -1362q-20 -33 -51 -33z" />
    <glyph glyph-name="W" unicode="W" horiz-adv-x="2043" 
d="M1153 1239l-578 -1206q-14 -33 -49 -33h-123q-32 0 -38 33l-172 1362q-4 17 6 28t28 11h84q28 0 31 -33l152 -1239l591 1239q14 33 45 33h105q34 0 37 -33l172 -1231l573 1231q14 33 43 33h90q18 0 24.5 -10t-3.5 -29l-645 -1362q-20 -33 -51 -33h-113q-32 0 -41 33z" />
    <glyph glyph-name="X" unicode="X" horiz-adv-x="1226" 
d="M641 621l-522 -592l-5 -5l-5.5 -5.5t-5 -4.5t-5.5 -4.5t-6 -4t-7 -3t-7 -1.5t-8 -1h-113q-17 0 -20 12t8 23l626 698l-366 666q-6 12 0.5 23.5t19.5 11.5h97q28 0 43 -27l311 -573l502 573q21 27 49 27h108q19 0 23.5 -12t-6.5 -23l-604 -672l378 -692q7 -11 0.5 -23
t-24.5 -12h-94q-17 0 -25.5 7t-15.5 22z" />
    <glyph glyph-name="Y" unicode="Y" horiz-adv-x="1259" 
d="M586 0h-76q-14 0 -23.5 11t-5.5 24l103 577l-379 785q-7 12 -0.5 24.5t22.5 12.5h95q26 0 38 -27l312 -651h6l532 651q21 27 47 27h115q14 0 18.5 -12t-6.5 -25l-655 -785l-104 -577q-1 -13 -13 -24t-26 -11z" />
    <glyph glyph-name="Z" unicode="Z" horiz-adv-x="1200" 
d="M1047 0h-1061q-35 0 -29 35l8 51q5 18 39 57l1075 1157h-807q-13 0 -21.5 10.5t-6.5 24.5l10 64q8 35 41 35h962q15 0 24 -9.5t5 -25.5l-10 -56q-6 -26 -41 -65l-1059 -1145h895q15 0 24 -9.5t5 -25.5l-13 -63q-9 -35 -40 -35z" />
    <glyph glyph-name="bracketleft" unicode="[" horiz-adv-x="628" 
d="M782 1501l-8 -51q-9 -33 -39 -33h-258l-266 -1509h258q14 0 22.5 -11t4.5 -24l-9 -51q-9 -33 -38 -33h-363q-14 0 -23.5 10t-5.5 23l295 1679q5 14 16.5 24.5t24.5 10.5h363q14 0 22 -11t4 -24z" />
    <glyph glyph-name="backslash" unicode="\" horiz-adv-x="1138" 
d="M342 1403l664 -1366q7 -12 1 -24.5t-22 -12.5h-61q-29 0 -43 31l-660 1366q-7 12 -1 24.5t22 12.5h59q25 0 41 -31z" />
    <glyph glyph-name="bracketright" unicode="]" horiz-adv-x="630" 
d="M-82 -176l8 51q9 33 39 33h258l266 1509h-258q-14 0 -22 11t-4 24l8 51q9 33 39 33h362q14 0 23.5 -10t5.5 -23l-295 -1679q-5 -14 -16.5 -24.5t-24.5 -10.5h-362q-14 0 -22.5 11t-4.5 24z" />
    <glyph glyph-name="asciicircum" unicode="^" horiz-adv-x="962" 
d="M193 453h-89q-18 0 -23 11t5 28l467 909q14 33 49 33h113q34 0 37 -33l133 -909q5 -17 -5 -28t-30 -11h-78q-36 0 -39 32l-96 799l-393 -799q-9 -16 -19.5 -24t-31.5 -8z" />
    <glyph glyph-name="underscore" unicode="_" horiz-adv-x="552" 
d="M371 -301h-465q-14 0 -21.5 11t-3.5 24l13 63q12 35 40 35h465q14 0 22.5 -11t4.5 -24l-14 -63q-12 -35 -41 -35z" />
    <glyph glyph-name="grave" unicode="`" horiz-adv-x="417" 
d="M168 1417h100q28 0 43 -31l152 -272q6 -17 -1.5 -27t-25.5 -10h-51q-6 0 -10.5 1t-7 1.5t-6.5 4t-5 4.5t-5.5 6.5t-6.5 7.5l-199 276q-11 14 -3.5 26.5t26.5 12.5z" />
    <glyph glyph-name="a" unicode="a" 
d="M524 98q155 0 266 124.5t111 299.5q0 139 -87 233.5t-226 94.5q-155 0 -263 -124.5t-108 -299.5q0 -136 82.5 -232t224.5 -96zM76 420q0 120 41.5 224.5t110.5 176.5t160.5 113t189.5 41q127 0 226 -65t140 -175l33 180q6 35 39 35h69q35 0 29 -35l-158 -880
q-6 -35 -38 -35h-72q-14 0 -22.5 11t-4.5 24l23 127q-57 -84 -147.5 -136.5t-198.5 -52.5q-184 0 -302 127.5t-118 319.5z" />
    <glyph glyph-name="b" unicode="b" 
d="M340 1434h72q15 0 23.5 -9.5t4.5 -25.5l-108 -606q52 82 144 132t200 50q184 0 303 -127t119 -318q0 -120 -41 -225t-109.5 -177t-160 -113.5t-191.5 -41.5q-127 0 -225.5 65.5t-139.5 176.5l-32 -180q-9 -35 -37 -35h-74q-15 0 -24 9.5t-5 25.5l242 1364q6 35 39 35z
M649 850q-156 0 -266.5 -123t-110.5 -301q0 -139 87.5 -233.5t226.5 -94.5q157 0 263.5 124t106.5 300q0 136 -82.5 232t-224.5 96z" />
    <glyph glyph-name="c" unicode="c" horiz-adv-x="1026" 
d="M922 176q-61 -98 -164 -150.5t-232 -52.5q-198 0 -324 129t-126 322q0 234 144.5 392.5t361.5 158.5q289 0 413 -240q10 -24 -14 -33l-68 -32q-25 -11 -39 12q-50 83 -119 125.5t-173 42.5q-152 0 -259.5 -123t-107.5 -295q0 -151 91 -242.5t229 -91.5q88 0 152.5 37
t127.5 115q26 30 51 10l52 -33q24 -19 4 -51z" />
    <glyph glyph-name="d" unicode="d" 
d="M524 98q155 0 266 124.5t111 299.5q0 139 -87 233.5t-226 94.5q-155 0 -263 -124.5t-108 -299.5q0 -136 82.5 -232t224.5 -96zM819 35l23 127q-57 -84 -147.5 -136.5t-198.5 -52.5q-184 0 -302 127.5t-118 319.5q0 120 41.5 224.5t110.5 176.5t160.5 113t189.5 41
q127 0 225 -64.5t139 -175.5l117 664q6 35 37 35h75q14 0 23.5 -9t5.5 -26l-244 -1364q-6 -35 -38 -35h-72q-14 0 -22.5 11t-4.5 24z" />
    <glyph glyph-name="e" unicode="e" horiz-adv-x="1087" 
d="M528 -27q-201 0 -327.5 129t-126.5 326q0 112 40 213t109.5 174.5t167.5 116.5t209 43q185 0 313 -123.5t121 -310.5l-2 -58q0 -47 -47 -47h-770v-12q0 -141 88 -233.5t229 -92.5q171 0 302 131q15 15 23 18t28 -5l59 -37q12 -7 14 -20t-6 -23q-160 -189 -424 -189z
M592 858q-135 0 -234 -88t-129 -229h670q4 146 -80 231.5t-227 85.5z" />
    <glyph glyph-name="f" unicode="f" horiz-adv-x="608" 
d="M145 950h144l41 219q28 154 108 224.5t207 70.5q54 0 112.5 -17.5t92.5 -47.5q22 -22 2 -47l-33 -43q-21 -30 -53 -11q-66 39 -125 39q-134 0 -172 -180l-39 -207h209q14 0 22.5 -11t4.5 -24l-11 -55q-6 -31 -43 -31h-202l-142 -794q-6 -35 -39 -35h-71q-15 0 -24 9.5
t-5 25.5l141 794h-147q-12 0 -20.5 11t-4.5 24l11 56q6 30 36 30z" />
    <glyph glyph-name="g" unicode="g" horiz-adv-x="1157" 
d="M520 121q155 0 261 115.5t106 289.5q0 138 -85.5 232t-223.5 94q-155 0 -257 -119t-102 -287q0 -137 80 -231t221 -94zM410 -467q-150 0 -270 67.5t-165 149.5q-18 29 21 53l43 25q34 18 55 -12q130 -162 328 -162q155 0 249.5 86.5t121.5 232.5l34 191
q-51 -78 -140.5 -121t-199.5 -43q-184 0 -296.5 124.5t-112.5 317.5q0 228 140.5 380.5t344.5 152.5q127 0 225.5 -65t139.5 -175l33 180q6 35 38 35h72q15 0 24 -9.5t5 -25.5l-170 -942q-34 -205 -164.5 -322.5t-355.5 -117.5z" />
    <glyph glyph-name="h" unicode="h" horiz-adv-x="1144" 
d="M281 498l-82 -465q-9 -33 -39 -33h-74q-14 0 -22.5 11t-4.5 24l242 1364q6 35 37 35h76q32 0 26 -33l-108 -615q56 87 149 138t209 51q187 0 284.5 -116t61.5 -310l-90 -516q-9 -33 -41 -33h-74q-32 0 -26 33l88 495q29 153 -34.5 237.5t-205.5 84.5t-242 -97.5
t-130 -254.5z" />
    <glyph glyph-name="i" unicode="i" horiz-adv-x="411" 
d="M340 1163q-47 0 -78 35t-26 82q4 47 41 82t81 35q47 0 79 -35t28 -82q-6 -48 -42 -82.5t-83 -34.5zM160 0h-72q-15 0 -24 9.5t-5 25.5l156 880q9 35 41 35h72q14 0 23 -9.5t5 -25.5l-157 -880q-6 -35 -39 -35z" />
    <glyph glyph-name="j" unicode="j" horiz-adv-x="411" 
d="M340 1163q-47 0 -78 35t-26 82q4 47 41 82t81 35q47 0 79 -35t28 -82q-6 -48 -42 -82.5t-83 -34.5zM25 -162l190 1077q9 35 41 35h72q14 0 23 -9.5t5 -25.5l-194 -1085q-28 -154 -107.5 -224.5t-206.5 -70.5q-53 0 -111.5 18t-92.5 48q-22 22 -2 47l32 43q21 30 54 10
q66 -39 125 -39q72 0 115 46t57 130z" />
    <glyph glyph-name="k" unicode="k" horiz-adv-x="966" 
d="M276 471l-77 -436q-6 -35 -39 -35h-72q-35 0 -29 35l242 1364q6 35 39 35h72q17 0 25 -10.5t3 -24.5l-143 -807h145l365 338q17 20 41 20h115q14 0 17 -11t-7 -21l-432 -394l354 -489q11 -12 5 -23.5t-23 -11.5h-89q-21 0 -31 6t-22 21l-313 444h-146z" />
    <glyph glyph-name="l" unicode="l" horiz-adv-x="477" 
d="M354 0h-84q-95 0 -146 57t-32 172l207 1170q6 35 37 35h76q14 0 22 -9.5t4 -25.5l-209 -1178q-10 -51 14 -75.5t72 -24.5h66q30 0 27 -33l-11 -55q-6 -33 -43 -33z" />
    <glyph glyph-name="m" unicode="m" horiz-adv-x="1814" 
d="M283 512l-84 -479q-9 -33 -39 -33h-74q-15 0 -23 9.5t-4 25.5l156 880q6 35 39 35h74q13 0 21.5 -10.5t6.5 -24.5l-24 -131q123 191 344 191q115 0 196.5 -59t110.5 -162q70 115 173.5 168t217.5 53q181 0 274 -116.5t60 -293.5l-94 -532q-9 -33 -39 -33h-76
q-27 0 -24 33l88 502q26 147 -33.5 231t-188.5 84q-138 0 -228.5 -88t-117.5 -238l-88 -491q-9 -33 -41 -33h-73q-30 0 -27 33l90 502q26 147 -33 231t-188 84q-140 0 -233 -94t-119 -244z" />
    <glyph glyph-name="n" unicode="n" horiz-adv-x="1144" 
d="M805 33l88 495q29 153 -34.5 237.5t-205.5 84.5q-144 0 -243 -97t-129 -255l-82 -465q-9 -33 -39 -33h-74q-15 0 -23 9.5t-4 25.5l156 880q6 35 39 35h72q13 0 21.5 -10.5t6.5 -24.5l-24 -131q57 87 149.5 139t210.5 52q187 0 284.5 -116t61.5 -310l-90 -516
q-9 -33 -41 -33h-74q-29 0 -26 33z" />
    <glyph glyph-name="o" unicode="o" horiz-adv-x="1112" 
d="M598 975q119 0 219 -53t161.5 -157t61.5 -239q0 -152 -68 -278.5t-188 -200.5t-266 -74q-120 0 -220.5 53t-162 157t-61.5 239q0 152 68.5 279t189 200.5t266.5 73.5zM588 852q-157 0 -265 -123t-108 -295q0 -156 87 -246t224 -90q158 0 266.5 123t108.5 295
q0 153 -88 244.5t-225 91.5z" />
    <glyph glyph-name="p" unicode="p" 
d="M649 850q-102 0 -189 -57t-137.5 -155t-50.5 -214q0 -138 88 -232t226 -94q156 0 263 124t107 298q0 137 -82.5 233.5t-224.5 96.5zM231 215l-106 -602q-5 -14 -16.5 -24.5t-24.5 -10.5h-72q-13 0 -21.5 11t-4.5 24l229 1302q6 35 39 35h72q14 0 23 -11t5 -24l-22 -127
q56 84 147.5 135.5t198.5 51.5q183 0 301.5 -126.5t118.5 -318.5q0 -120 -41 -225t-109.5 -177t-160 -113.5t-191.5 -41.5q-127 0 -225.5 65.5t-139.5 176.5z" />
    <glyph glyph-name="q" unicode="q" 
d="M844 -422h-72q-13 0 -22 10.5t-7 24.5l99 545q-57 -82 -147.5 -133.5t-196.5 -51.5q-185 0 -303.5 127.5t-118.5 319.5q0 120 41.5 224.5t110.5 176.5t160.5 113t189.5 41q127 0 226 -65t140 -175l31 180q6 35 39 35h71q15 0 24 -9.5t5 -25.5l-231 -1302q-1 -13 -13 -24
t-26 -11zM524 98q155 0 266 124.5t111 299.5q0 139 -87 233.5t-226 94.5q-155 0 -263 -124.5t-108 -299.5q0 -136 82.5 -232t224.5 -96z" />
    <glyph glyph-name="r" unicode="r" horiz-adv-x="641" 
d="M637 952h33q31 0 28 -30l-16 -86q-9 -33 -37 -33h-29q-78 0 -144.5 -30.5t-121.5 -108t-76 -195.5l-75 -436q-3 -33 -39 -33h-72q-17 0 -25.5 10.5t-3.5 24.5l156 880q2 15 12.5 25t28.5 10h61q13 0 23 -10.5t8 -24.5l-33 -165q42 80 128.5 141t193.5 61z" />
    <glyph glyph-name="s" unicode="s" horiz-adv-x="909" 
d="M121 696q0 126 101 202.5t257 76.5q127 0 224.5 -42t156.5 -108q27 -27 -6 -53l-37 -33q-23 -20 -57 9q-119 110 -279 110q-99 0 -159 -39.5t-60 -105.5q0 -56 37 -86t119 -56l139 -43q252 -75 252 -258q0 -54 -22.5 -105t-66 -95t-119.5 -70.5t-173 -26.5
q-132 0 -232.5 47.5t-160.5 120.5q-17 21 -16.5 33.5t18.5 30.5l37 35q26 26 59 -11q129 -139 305 -139q106 0 168 48.5t62 119.5q0 54 -40.5 92t-127.5 64l-133 39q-120 34 -183 91.5t-63 151.5z" />
    <glyph glyph-name="t" unicode="t" horiz-adv-x="700" 
d="M592 137l24 -45q14 -26 -16 -45q-92 -61 -215 -61q-115 0 -184 78.5t-41 203.5l98 561h-145q-33 0 -27 35l10 51q9 35 39 35h144l55 310q6 34 43 34h67q37 0 31 -34l-55 -310h293q15 0 24.5 -9.5t5.5 -25.5l-10 -57q-6 -29 -39 -29h-297l-98 -569q-13 -75 16 -112t88 -37
q66 0 136 39q38 21 53 -13z" />
    <glyph glyph-name="u" unicode="u" horiz-adv-x="1126" 
d="M344 915l-90 -505q-26 -150 37.5 -232t195.5 -82q144 0 238 90.5t121 245.5l86 483q6 35 39 35h73q14 0 21.5 -9.5t3.5 -25.5l-154 -880q-6 -35 -38 -35h-74q-15 0 -24 8.5t-5 24.5l27 133q-58 -90 -148.5 -141.5t-208.5 -51.5q-175 0 -270 116.5t-63 299.5l92 526
q8 35 39 35h73q16 0 23.5 -10t5.5 -25z" />
    <glyph glyph-name="v" unicode="v" horiz-adv-x="964" 
d="M455 0h-111q-32 0 -41 33l-180 878q-4 13 5.5 26t23.5 13h90q24 0 30 -28l152 -779l424 779q12 28 43 28h90q16 0 21 -13t-3 -26l-491 -878q-26 -33 -53 -33z" />
    <glyph glyph-name="w" unicode="w" horiz-adv-x="1503" 
d="M801 760l-344 -727q-14 -33 -51 -33h-105q-36 0 -39 33l-145 878q-4 16 5.5 27.5t24.5 11.5h80q32 0 35 -28l117 -768l362 764q14 32 45 32h95q29 0 32 -32l103 -764l381 766q17 30 45 30h78q17 0 22.5 -11t-2.5 -28l-450 -878q-14 -33 -52 -33h-96q-34 0 -37 33z" />
    <glyph glyph-name="x" unicode="x" horiz-adv-x="933" 
d="M455 385l-330 -358q-27 -27 -49 -27h-107q-14 0 -17 11t7 22l434 454l-262 431q-8 12 -2 22t23 10h88q27 0 43 -28l209 -342l307 342q25 28 49 28h98q12 0 16 -11t-6 -21l-401 -439l272 -446q7 -11 0.5 -22t-22.5 -11h-92q-24 0 -41 27z" />
    <glyph glyph-name="y" unicode="y" horiz-adv-x="952" 
d="M51 -467q-84 0 -152.5 33t-101.5 76q-19 26 6 51l35 37q27 27 60 -6q22 -20 39.5 -32.5t49.5 -24t66 -11.5q121 0 197 141l112 203h-38q-29 0 -35 27l-164 884q-6 39 33 39h80q30 0 36 -32l140 -805l417 805q16 32 46 32h90q18 0 24 -11t-4 -28l-618 -1163
q-112 -215 -318 -215z" />
    <glyph glyph-name="z" unicode="z" horiz-adv-x="894" 
d="M864 823l-688 -700h578q13 0 20.5 -9t3.5 -22l-12 -63q-6 -29 -39 -29h-725q-14 0 -23.5 11t-5.5 24l11 49q3 27 24 45l688 698h-520q-14 0 -21 11t-3 24l12 58q6 30 33 30h673q14 0 23.5 -11t5.5 -24l-10 -49q-6 -24 -25 -43z" />
    <glyph glyph-name="braceleft" unicode="{" horiz-adv-x="651" 
d="M367 549l-95 -539q-10 -56 7 -79t65 -23h145q14 0 22.5 -11t4.5 -24l-8 -51q-9 -33 -39 -33h-166q-217 0 -182 205l104 586q9 61 -49 61h-63q-13 0 -23 10.5t-6 26.5l8 41q4 18 16 27.5t25 9.5h64q60 0 69 63l90 510q20 109 77 158t157 49h186q14 0 22.5 -11t4.5 -24
l-8 -51q-9 -33 -39 -33h-146q-48 0 -73 -23.5t-35 -80.5l-82 -465q-11 -66 -51 -104.5t-82 -45.5q38 -7 64.5 -45.5t15.5 -103.5z" />
    <glyph glyph-name="bar" unicode="|" horiz-adv-x="581" 
d="M365 -256h-60q-13 0 -24 11t-11 24v1876q0 13 11 24t24 11h60q13 0 23.5 -10.5t10.5 -24.5v-1876q0 -14 -10.5 -24.5t-23.5 -10.5z" />
    <glyph glyph-name="braceright" unicode="}" horiz-adv-x="649" 
d="M219 10l94 539q11 65 51 103.5t82 45.5q-37 7 -63.5 46t-15.5 104l82 465q10 56 -7 80t-65 24h-146q-14 0 -22 10t-4 23l8 51q12 35 39 35h166q103 0 151.5 -50.5t28.5 -156.5l-90 -510q-9 -63 49 -63h64q14 0 23 -10t5 -27l-8 -41q-4 -17 -16 -27t-25 -10h-63
q-61 0 -70 -61l-105 -586q-18 -108 -74.5 -156.5t-156.5 -48.5h-186q-14 0 -22.5 10t-4.5 23l8 51q12 35 39 35h146q48 0 73 23t35 79z" />
    <glyph glyph-name="asciitilde" unicode="~" horiz-adv-x="1159" 
d="M877 739q34 0 54.5 14t47.5 48q23 30 51 2l33 -29q19 -19 4 -47q-26 -45 -73 -79t-117 -34q-40 0 -257.5 40t-250.5 40q-34 0 -55.5 -14t-47.5 -47q-23 -30 -51 -2l-33 28q-20 20 -4 48q26 45 73.5 78.5t117.5 33.5q45 0 258.5 -40t249.5 -40z" />
    <glyph glyph-name="uni00A0" unicode="&#xa0;" horiz-adv-x="495" 
 />
    <glyph glyph-name="exclamdown" unicode="&#xa1;" horiz-adv-x="473" 
d="M305 969q55 0 91.5 -39.5t31.5 -95.5q-6 -56 -48.5 -96t-96.5 -40q-55 0 -91.5 40t-31.5 96t47.5 95.5t97.5 39.5zM4 -457l168 899q5 14 16.5 24.5t24.5 10.5h68q13 0 21.5 -10.5t6.5 -24.5l-147 -899q-5 -14 -16 -24.5t-23 -10.5h-90q-14 0 -23.5 11t-5.5 24z" />
    <glyph glyph-name="cent" unicode="&#xa2;" horiz-adv-x="1073" 
d="M233 432q0 -116 54 -196.5t147 -116.5l129 729q-139 -17 -234.5 -136.5t-95.5 -279.5zM532 -27l-24 -143q-3 -29 -37 -29h-65q-26 0 -23 29l29 162q-147 41 -232.5 157t-85.5 275q0 150 63 275t176 199t253 77l24 135q3 29 33 29h68q27 0 24 -29l-26 -145
q212 -43 305 -230q10 -24 -15 -33l-67 -32q-25 -11 -39 12q-74 125 -205 158l-133 -742q87 0 151.5 37t127.5 115q26 30 51 10l51 -33q24 -19 4 -51q-61 -98 -163.5 -150.5t-231.5 -52.5h-13z" />
    <glyph glyph-name="sterling" unicode="&#xa3;" horiz-adv-x="1177" 
d="M1034 102l-12 -69q-9 -33 -41 -33h-942q-13 0 -22 11t-5 24l13 71q5 14 16.5 22.5t24.5 8.5h143l80 449h-146q-14 0 -23 11t-5 24l10 57q12 35 41 35h145l54 301q37 213 157.5 329.5t313.5 116.5q133 0 238 -66.5t147 -172.5q6 -13 -1 -26t-20 -21l-53 -29
q-34 -19 -49 16q-38 77 -109 123.5t-160 46.5q-133 0 -212.5 -89.5t-106.5 -235.5l-51 -293h348q14 0 23.5 -11t5.5 -24l-11 -57q-12 -35 -39 -35h-350l-78 -449h648q14 0 23 -11t5 -24z" />
    <glyph glyph-name="currency" unicode="&#xa4;" horiz-adv-x="1542" 
d="M815 1190q-161 0 -285 -96l285 -301l285 301q-130 96 -285 96zM735 715l-282 297q-103 -125 -103 -297t103 -297zM1278 715q0 176 -100 297l-285 -297l285 -297q100 121 100 297zM815 240q155 0 285 96l-285 301l-285 -301q124 -96 285 -96zM444 250l-135 -144
q-25 -24 -49 0l-33 29q-10 11 -9.5 25.5t11.5 25.5l133 142q-139 164 -139 387t139 387l-133 141q-11 11 -11.5 25.5t9.5 25.5l33 29q24 25 49 0l135 -143q153 125 371 125q219 0 369 -125l137 143q22 22 47 0l35 -29q11 -11 10 -25.5t-12 -25.5l-133 -141
q139 -164 139 -387t-139 -387l133 -142q11 -11 12 -25.5t-10 -25.5l-35 -29q-25 -22 -47 0l-137 144q-150 -125 -369 -125q-218 0 -371 125z" />
    <glyph glyph-name="yen" unicode="&#xa5;" horiz-adv-x="1323" 
d="M731 463l-78 -428q-1 -13 -13 -24t-26 -11h-75q-14 0 -23.5 11t-5.5 24l76 428h-363q-17 0 -24 10.5t-2 24.5l6 49q9 35 41 35h362l6 30l-86 176h-245q-17 0 -24.5 10.5t-2.5 24.5l8 47q6 35 39 35h170l-238 492q-7 12 0 24.5t23 12.5h94q27 0 39 -27l311 -651h7l532 651
q21 27 47 27h115q14 0 18.5 -12t-6.5 -25l-412 -492h164q35 0 29 -35l-8 -47q-6 -35 -43 -35h-238l-147 -176l-6 -30h356q15 0 24 -9.5t5 -25.5l-9 -49q-6 -35 -43 -35h-354z" />
    <glyph glyph-name="brokenbar" unicode="&#xa6;" horiz-adv-x="587" 
d="M406 1655v-770q0 -13 -11 -24t-24 -11h-64q-13 0 -24 11t-11 24v770q0 13 11 24t24 11h64q13 0 24 -11t11 -24zM406 551v-772q0 -13 -11 -24t-24 -11h-64q-13 0 -24 11t-11 24v772q0 13 10.5 23t24.5 10h64q14 0 24.5 -10t10.5 -23z" />
    <glyph glyph-name="section" unicode="&#xa7;" horiz-adv-x="1417" 
d="M465 479l315 -180q139 -81 205 -176q198 70 201 229q4 83 -44.5 141.5t-160.5 122.5l-315 181q-141 82 -205 174q-198 -68 -201 -228q-4 -83 44.5 -141.5t160.5 -122.5zM1032 -68q-8 -171 -143 -284t-344 -109q-153 4 -276 67t-191 169q-20 35 12 55l51 35
q13 11 29.5 6.5t26.5 -21.5q59 -94 153 -139t205 -47q147 0 237.5 78t90.5 188q4 75 -44 138t-161 129l-338 192q-236 136 -223 344q5 119 85 213.5t218 130.5q-9 40 -6 84q8 172 141 285.5t342 109.5q153 -4 276 -66.5t191 -168.5q17 -31 -12 -57l-47 -33q-14 -10 -29.5 -6
t-26.5 18q-61 94 -154.5 140.5t-203.5 46.5q-147 0 -238.5 -77t-91.5 -188q-2 -75 46.5 -137.5t160.5 -128.5l336 -194q238 -136 225 -343q-5 -120 -85 -214t-218 -130q9 -40 6 -86z" />
    <glyph glyph-name="dieresis" unicode="&#xa8;" horiz-adv-x="645" 
d="M141 1184q5 44 40.5 78t78.5 34q47 0 76 -33.5t24 -78.5t-39.5 -78t-78.5 -33t-74.5 33.5t-26.5 77.5zM514 1184q5 45 40 78.5t79 33.5q47 0 77 -33.5t25 -78.5q-5 -44 -41 -77.5t-80 -33.5t-74 33.5t-26 77.5z" />
    <glyph glyph-name="copyright" unicode="&#xa9;" horiz-adv-x="1746" 
d="M147 717q0 162 61 304.5t164.5 243t246 158.5t301.5 58q158 0 300 -58t245.5 -158.5t164 -243t60.5 -304.5q0 -129 -39 -247t-110 -211t-166 -161.5t-212 -105.5t-243 -37q-158 0 -301 58t-246.5 158t-164.5 242.5t-61 303.5zM1581 717q0 188 -88.5 340.5t-239.5 237.5
t-333 85q-109 0 -210.5 -32t-183 -91.5t-142.5 -140.5t-94.5 -183.5t-33.5 -215.5q0 -140 52 -263.5t141 -210.5t211.5 -137.5t259.5 -50.5q136 0 258 50.5t210.5 137.5t140.5 210.5t52 263.5zM485 717q0 192 127 319t316 127q133 0 237 -64.5t146 -168.5q9 -28 -21 -43
l-47 -23q-39 -17 -57 17q-91 153 -258 153q-132 0 -215.5 -89.5t-83.5 -227.5t83.5 -228t215.5 -90q166 0 258 154q18 34 57 16l47 -22q30 -15 21 -43q-42 -104 -146 -169t-237 -65q-189 0 -316 127.5t-127 319.5z" />
    <glyph glyph-name="ordfeminine" unicode="&#xaa;" horiz-adv-x="983" 
d="M555 1358q-103 0 -168 -71.5t-65 -178.5t65.5 -179.5t167.5 -72.5t167.5 72.5t65.5 179.5q0 106 -66 178t-167 72zM788 799v71q-38 -56 -100.5 -88t-142.5 -32q-144 0 -243 100.5t-99 257.5q0 156 100 257t244 101q77 0 140 -32.5t101 -87.5v69q0 12 10 22.5t23 10.5h51
q12 0 21.5 -10t9.5 -23v-616q0 -13 -10 -23t-21 -10h-51q-33 0 -33 33zM870 541h-583q-12 0 -21.5 9t-9.5 21v47q0 13 9.5 23t21.5 10h583q33 0 33 -33v-47q0 -12 -10 -21t-23 -9z" />
    <glyph glyph-name="guillemotleft" unicode="&#xab;" horiz-adv-x="903" 
d="M356 61h-53q-32 0 -45 29l-152 389q-10 29 11 56l264 362q23 29 49 29h74q13 0 17.5 -11t-5.5 -24l-264 -397l129 -398q5 -13 -2 -24t-23 -11zM702 61h-53q-32 0 -45 29l-151 389q-10 29 8 56l266 362q23 29 49 29h72q13 0 18.5 -11t-4.5 -24l-264 -397l129 -398
q5 -12 -3.5 -23.5t-21.5 -11.5z" />
    <glyph glyph-name="logicalnot" unicode="&#xac;" horiz-adv-x="1105" 
d="M1047 932l-76 -432q-5 -14 -16.5 -24.5t-24.5 -10.5h-74q-16 0 -23.5 10t-5.5 25l60 327h-711q-15 0 -24 9.5t-5 25.5l13 70q9 35 41 35h817q15 0 24 -9.5t5 -25.5z" />
    <glyph glyph-name="registered" unicode="&#xae;" horiz-adv-x="1738" 
d="M147 717q0 162 60.5 304.5t163.5 243t244.5 158.5t299.5 58q157 0 298 -58t244 -158.5t163.5 -243t60.5 -304.5q0 -161 -60.5 -303.5t-163.5 -242.5t-244 -158t-298 -58q-158 0 -299.5 58t-244.5 158t-163.5 242.5t-60.5 303.5zM1573 717q0 142 -51.5 267t-139.5 213
t-209.5 138.5t-257.5 50.5t-258 -50.5t-210.5 -138.5t-140.5 -213t-52 -267q0 -189 88.5 -342.5t239.5 -239.5t333 -86q136 0 257.5 50.5t209.5 138.5t139.5 212.5t51.5 266.5zM1182 883q0 86 -58 136t-151 50h-223v-377h223q92 0 150.5 52t58.5 139zM721 250h-66
q-10 0 -19 9t-9 20v868q0 11 9 20t19 9h314q160 0 250 -86t90 -209q0 -96 -56 -171.5t-159 -105.5l190 -325q5 -8 -0.5 -18.5t-15.5 -10.5h-78q-28 0 -43 26l-178 310h-219v-307q0 -11 -9 -20t-20 -9z" />
    <glyph glyph-name="overscore" unicode="&#xaf;" horiz-adv-x="1105" 
d="M893 1122h-465q-13 0 -22 11t-5 24l7 49q5 14 17.5 24.5t25.5 10.5h464q14 0 23.5 -11t5.5 -24l-8 -49q-5 -14 -17.5 -24.5t-25.5 -10.5z" />
    <glyph glyph-name="degree" unicode="&#xb0;" horiz-adv-x="768" 
d="M203 1163q0 123 87.5 210t211.5 87t211.5 -87t87.5 -210t-87.5 -210t-211.5 -87t-211.5 87t-87.5 210zM313 1163q0 -84 55 -141t134 -57t134.5 57t55.5 141t-55.5 140.5t-134.5 56.5t-134 -56.5t-55 -140.5z" />
    <glyph glyph-name="plusminus" unicode="&#xb1;" horiz-adv-x="1118" 
d="M651 1208h74q13 0 22 -10t7 -24l-62 -345h338q17 0 25.5 -10t3.5 -24l-12 -72q-5 -14 -16.5 -24.5t-24.5 -10.5h-338l-60 -346q-6 -35 -43 -35h-73q-15 0 -23 9.5t-4 25.5l59 346h-336q-14 0 -23 11t-5 24l12 72q5 14 16.5 24t24.5 10h336l61 345q5 14 16.5 24t24.5 10z
M938 102l-12 -67q-1 -13 -14 -24t-27 -11h-817q-13 0 -22 10.5t-7 24.5l12 67q5 14 16.5 24.5t24.5 10.5h817q13 0 22 -10.5t7 -24.5z" />
    <glyph glyph-name="twosuperior" unicode="&#xb2;" horiz-adv-x="610" 
d="M641 1020h-459q-17 0 -14 20l10 50q7 20 21 30l245 193q108 84 147.5 131t39.5 102q0 54 -37.5 85.5t-93.5 31.5q-62 0 -103 -37.5t-61 -93.5q-9 -28 -33 -21l-49 13q-21 6 -12 28q27 90 95.5 143.5t170.5 53.5q94 0 158.5 -54t64.5 -139q0 -77 -46.5 -141t-168.5 -153
l-209 -156h350q10 0 14.5 -4t2.5 -12l-8 -50q-3 -20 -25 -20z" />
    <glyph glyph-name="threesuperior" unicode="&#xb3;" horiz-adv-x="624" 
d="M434 1016q-122 0 -190 67.5t-56 163.5l2 15q3 18 25 18h45q26 0 23 -23l-2 -18q-5 -52 35 -95.5t124 -43.5q79 0 122.5 46.5t43.5 106.5q0 57 -42 93t-118 36h-47q-13 0 -10 15l6 43q3 17 13 24l223 191h-334q-19 0 -16 18l10 53q3 17 22 17h426q19 0 19 -17l-6 -45
q-3 -28 -17 -36l-229 -195q88 -5 144.5 -58.5t56.5 -134.5q0 -98 -73.5 -169.5t-199.5 -71.5z" />
    <glyph glyph-name="acute" unicode="&#xb4;" horiz-adv-x="417" 
d="M369 1417h102q17 0 24 -13.5t-1 -25.5l-211 -276q-18 -21 -29 -24q-6 -1 -14 -1h-52q-18 0 -25.5 10t-0.5 27l164 272q7 12 10.5 16t12 9.5t20.5 5.5z" />
    <glyph glyph-name="mu" unicode="&#xb5;" horiz-adv-x="1198" 
d="M231 98l-67 -379q-6 -34 -41 -34h-62q-15 0 -22.5 9t-3.5 25l211 1196q6 35 39 35h71q16 0 24.5 -10.5t6.5 -24.5l-90 -505q-29 -149 36 -231.5t197 -82.5q144 0 238 90.5t121 245.5l84 483q8 35 41 35h73q31 0 25 -35l-156 -880q-6 -35 -36 -35h-74q-15 0 -24 8.5
t-5 24.5l25 133q-56 -90 -146 -141.5t-207 -51.5q-86 0 -153 32.5t-105 92.5z" />
    <glyph glyph-name="paragraph" unicode="&#xb6;" horiz-adv-x="1112" 
d="M616 1434h435q12 0 20.5 -10t7.5 -23l-241 -1366q-2 -15 -11.5 -25t-25.5 -10h-56q-31 0 -28 33l227 1288h-225l-227 -1288q-6 -33 -37 -33h-58q-32 0 -26 33l112 643h-6q-136 0 -222.5 90t-86.5 225q0 128 62.5 230.5t164.5 157.5t221 55z" />
    <glyph glyph-name="middot" unicode="&#xb7;" horiz-adv-x="503" 
d="M285 592q-57 0 -94 40t-33 97q5 57 45.5 97t97.5 40t94 -40t33 -97q-5 -57 -45.5 -97t-97.5 -40z" />
    <glyph glyph-name="cedilla" unicode="&#xb8;" horiz-adv-x="376" 
d="M141 12l142 -10l-177 -281q-15 -24 -45 -24h-59q-15 0 -21 10t3 27z" />
    <glyph glyph-name="onesuperior" unicode="&#xb9;" horiz-adv-x="348" 
d="M225 1587l8 45q3 19 19 19h27q45 0 64.5 14t39.5 53q9 19 35 19h37q17 0 14 -17l-121 -680q-3 -20 -22 -20h-58q-19 0 -16 20l94 531h-106q-18 0 -15 16z" />
    <glyph glyph-name="ordmasculine" unicode="&#xba;" horiz-adv-x="950" 
d="M557 750q-148 0 -250 102t-102 256q0 153 102.5 256.5t249.5 103.5t248.5 -103.5t101.5 -256.5q0 -154 -101 -256t-249 -102zM555 1360q-102 0 -167.5 -72.5t-65.5 -179.5q0 -106 66 -178t167 -72q103 0 169.5 72t66.5 178q0 107 -66.5 179.5t-169.5 72.5zM840 541h-568
q-13 0 -22.5 9t-9.5 21v47q0 33 32 33h568q12 0 21 -10t9 -23v-47q0 -12 -9 -21t-21 -9z" />
    <glyph glyph-name="guillemotright" unicode="&#xbb;" horiz-adv-x="890" 
d="M219 926h55q31 0 41 -29l136 -387q9 -33 -9 -57l-264 -363q-23 -29 -49 -29h-74q-13 0 -18.5 10.5t4.5 24.5l264 398l-112 397q-4 16 4.5 25.5t21.5 9.5zM561 926h55q31 0 41 -29l136 -387q9 -33 -9 -57l-264 -363q-23 -29 -51 -29h-72q-13 0 -18.5 10.5t4.5 24.5
l264 398l-112 397q-4 16 4.5 25.5t21.5 9.5z" />
    <glyph glyph-name="onequarter" unicode="&#xbc;" horiz-adv-x="1409" 
d="M1321 1389l-1163 -1350q-31 -39 -62 -39h-28q-20 0 -25.5 14t10.5 31l1166 1350q16 21 28.5 30t30.5 9h29q20 0 25 -14t-11 -31zM229 1284l9 45q3 19 18 19h27q45 0 64.5 14t39.5 53q9 19 35 19h37q17 0 14 -17l-121 -680q-3 -20 -22 -20h-58q-19 0 -16 20l94 531h-106
q-18 0 -15 16zM1067 205h-344q-19 0 -16 18l8 49q3 22 20 39l375 389q17 17 33 17h90q19 0 16 -19l-71 -413h112q20 0 17 -19l-9 -43q-3 -18 -22 -18h-113l-33 -185q-3 -20 -26 -20h-53q-20 0 -17 20zM819 285h262l58 331z" />
    <glyph glyph-name="onehalf" unicode="&#xbd;" horiz-adv-x="1480" 
d="M1317 1389l-1165 -1350q-16 -20 -28.5 -29.5t-31.5 -9.5h-29q-20 0 -25 14t11 31l1163 1350q31 39 62 39h29q20 0 25 -14t-11 -31zM225 1284l8 45q3 19 19 19h27q45 0 64.5 14t39.5 53q9 19 35 19h37q17 0 14 -17l-121 -680q-3 -20 -22 -20h-58q-19 0 -16 20l94 531h-106
q-18 0 -15 16zM1307 0h-459q-17 0 -14 20l10 50q8 21 20 30l246 193q107 83 146.5 130.5t39.5 102.5q0 54 -37.5 85.5t-93.5 31.5q-62 0 -103 -37.5t-61 -93.5q-9 -27 -32 -20l-49 12q-22 6 -13 28q27 90 96 143.5t171 53.5q94 0 158.5 -53.5t64.5 -138.5q0 -77 -46.5 -142
t-168.5 -153l-209 -156h350q19 0 16 -16l-8 -50q-3 -20 -24 -20z" />
    <glyph glyph-name="threequarters" unicode="&#xbe;" horiz-adv-x="1576" 
d="M1491 1389l-1165 -1350q-16 -20 -28.5 -29.5t-31.5 -9.5h-28q-20 0 -25.5 14t10.5 31l1166 1350q16 21 28.5 30t30.5 9h29q20 0 25 -14t-11 -31zM412 709q-122 0 -190 67.5t-56 163.5l2 14q3 19 25 19h45q25 0 22 -23l-2 -18q-5 -52 35.5 -95.5t124.5 -43.5
q79 0 122.5 46.5t43.5 106.5q0 57 -42 93t-118 36h-47q-13 0 -10 15l6 43q3 18 12 24l223 191h-334q-19 0 -16 18l10 53q3 17 23 17h426q18 0 18 -17l-6 -45q-3 -29 -16 -37l-230 -194q88 -5 144.5 -58.5t56.5 -134.5q0 -98 -73 -169.5t-199 -71.5zM1237 203h-344
q-19 0 -16 18l8 49q3 22 20 39l375 389q17 17 33 17h90q19 0 16 -19l-71 -413h112q20 0 17 -19l-9 -43q-3 -18 -22 -18h-113l-33 -185q-3 -20 -26 -20h-53q-20 0 -17 20zM989 283h262l58 331z" />
    <glyph glyph-name="questiondown" unicode="&#xbf;" horiz-adv-x="966" 
d="M541 971q55 0 91.5 -39.5t31.5 -95.5q-4 -55 -47 -94.5t-99 -39.5q-55 0 -91.5 39t-31.5 95q4 55 48 95t98 40zM344 -514q-166 0 -270.5 92t-104.5 229q0 67 22 127.5t58.5 107t80.5 90.5t89.5 84.5t85 80t68.5 87.5t37 97l6 25q3 29 35 29h79q13 0 22 -9t5 -20l-8 -43
q-12 -59 -42 -114t-68 -97.5t-82 -84t-85.5 -81t-75.5 -79.5t-54.5 -88.5t-20.5 -100.5q0 -91 64.5 -147t164.5 -56q197 0 305 190q21 30 56 15l55 -25q13 -7 18 -22t-4 -33q-64 -117 -173.5 -185.5t-262.5 -68.5z" />
    <glyph glyph-name="Agrave" unicode="&#xc0;" horiz-adv-x="1310" 
d="M598 1901h100q28 0 43 -31l152 -273q6 -17 -1.5 -26.5t-25.5 -9.5h-51q-5 0 -8.5 0.5t-7 2t-5.5 2t-5.5 3.5t-4 4t-5 6t-5.5 6l-199 277q-11 14 -3.5 26.5t26.5 12.5zM956 539l-155 759l-418 -759h573zM315 414l-209 -381q-14 -33 -45 -33h-86q-17 0 -22.5 11t2.5 28
l758 1364q19 31 45 31h123q33 0 39 -33l288 -1362q5 -17 -3 -28t-25 -11h-86q-29 0 -35 33l-78 381h-666z" />
    <glyph glyph-name="Aacute" unicode="&#xc1;" horiz-adv-x="1310" 
d="M1001 1901h103q17 0 23.5 -13.5t-1.5 -25.5l-211 -277q-9 -10 -12.5 -13.5t-11.5 -7t-19 -3.5h-51q-18 0 -25.5 9.5t-0.5 26.5l163 273q7 12 10.5 16t12 9.5t20.5 5.5zM956 539l-155 759l-418 -759h573zM315 414l-209 -381q-14 -33 -45 -33h-86q-17 0 -22.5 11t2.5 28
l758 1364q19 31 45 31h123q33 0 39 -33l288 -1362q5 -17 -3 -28t-25 -11h-86q-29 0 -35 33l-78 381h-666z" />
    <glyph glyph-name="Acircumflex" unicode="&#xc2;" horiz-adv-x="1310" 
d="M864 1901h78q30 0 45 -31l133 -273q7 -13 -0.5 -24.5t-21.5 -11.5h-62q-27 0 -39 24l-108 195l-178 -195q-14 -14 -22.5 -19t-24.5 -5h-78q-14 0 -19 11.5t6 24.5l232 273q28 31 59 31zM956 539l-155 759l-418 -759h573zM315 414l-209 -381q-14 -33 -45 -33h-86
q-17 0 -22.5 11t2.5 28l758 1364q19 31 45 31h123q33 0 39 -33l288 -1362q5 -17 -3 -28t-25 -11h-86q-29 0 -35 33l-78 381h-666z" />
    <glyph glyph-name="Atilde" unicode="&#xc3;" horiz-adv-x="1310" 
d="M721 1792q43 0 151.5 -36t128.5 -36q30 0 47.5 11t43.5 43q10 13 24 13t25 -11l24 -21q22 -16 6 -47q-50 -115 -172 -115q-43 0 -151.5 36t-128.5 36q-30 0 -47 -10.5t-43 -42.5q-10 -13 -24 -13t-25 11l-25 20q-22 16 -6 47q50 115 172 115zM956 539l-155 759l-418 -759
h573zM315 414l-209 -381q-14 -33 -45 -33h-86q-17 0 -22.5 11t2.5 28l758 1364q19 31 45 31h123q33 0 39 -33l288 -1362q5 -17 -3 -28t-25 -11h-86q-29 0 -35 33l-78 381h-666z" />
    <glyph glyph-name="Adieresis" unicode="&#xc4;" horiz-adv-x="1310" 
d="M559 1667q5 44 40.5 78.5t78.5 34.5q46 0 75.5 -34t24.5 -79t-40 -78t-79 -33t-74 33.5t-26 77.5zM932 1667q5 45 40 79t79 34q47 0 77 -34t25 -79q-5 -44 -41 -77.5t-80 -33.5t-74 33.5t-26 77.5zM956 539l-155 759l-418 -759h573zM315 414l-209 -381q-14 -33 -45 -33
h-86q-17 0 -22.5 11t2.5 28l758 1364q19 31 45 31h123q33 0 39 -33l288 -1362q5 -17 -3 -28t-25 -11h-86q-29 0 -35 33l-78 381h-666z" />
    <glyph glyph-name="Aring" unicode="&#xc5;" horiz-adv-x="1310" 
d="M874 1980q93 0 155.5 -57t62.5 -151q0 -97 -68.5 -169.5t-179.5 -72.5q-93 0 -155 57t-62 152q0 97 68.5 169t178.5 72zM848 1626q62 0 99.5 43.5t37.5 97.5q0 51 -31 84t-84 33q-62 0 -99.5 -43.5t-37.5 -97.5q0 -51 31 -84t84 -33zM956 539l-155 759l-418 -759h573z
M315 414l-209 -381q-14 -33 -45 -33h-86q-17 0 -22.5 11t2.5 28l758 1364q19 31 45 31h123q33 0 39 -33l288 -1362q5 -17 -3 -28t-25 -11h-86q-29 0 -35 33l-78 381h-666z" />
    <glyph glyph-name="AE" unicode="&#xc6;" horiz-adv-x="1847" 
d="M963 541l-154 770l-424 -770h578zM322 414l-211 -381q-18 -33 -45 -33h-95q-14 0 -20 11t4 28l760 1362q20 33 51 33h1155q35 0 31 -35l-13 -68q-4 -35 -41 -35h-935l102 -503h475q15 0 23 -9.5t4 -25.5l-11 -64q-4 -11 -7 -17.5t-11.5 -12t-21.5 -5.5h-429l113 -522h496
q13 0 21.5 -10.5t6.5 -24.5l-12 -67q-2 -15 -12.5 -25t-28.5 -10h-569q-22 0 -30 7t-13 26l-76 381h-661z" />
    <glyph glyph-name="Ccedilla" unicode="&#xc7;" horiz-adv-x="1501" 
d="M817 -27l-155 -247q-16 -25 -46 -25h-59q-15 0 -21 10t3 27l137 242q-249 37 -400 218.5t-151 442.5q0 171 63 324t168 260.5t246.5 170t294.5 62.5q232 0 400 -125t225 -336q5 -11 -1 -21t-22 -11l-80 -9q-24 -3 -33 19q-55 168 -181 261t-312 93q-168 0 -311 -91
t-226.5 -249t-83.5 -344q0 -236 145.5 -389.5t373.5 -153.5q178 0 311 90t219 248q14 22 23 25q7 3 16 2l80 -23q30 -8 16 -36q-92 -194 -259.5 -309.5t-379.5 -125.5z" />
    <glyph glyph-name="Egrave" unicode="&#xc8;" horiz-adv-x="1241" 
d="M608 1901h101q27 0 43 -31l151 -273q6 -17 -1 -26.5t-25 -9.5h-52q-5 0 -8.5 0.5t-7 2t-5.5 2t-5.5 3.5t-4 4t-5 6t-5.5 6l-198 277q-11 14 -4 26.5t26 12.5zM383 1434h934q13 0 21.5 -9.5t4.5 -25.5l-12 -66q-6 -35 -41 -35h-819l-90 -505h422q15 0 23.5 -9.5t4.5 -25.5
l-12 -64q-6 -35 -39 -35h-422l-94 -524h830q32 0 26 -35l-12 -65q-6 -35 -43 -35h-934q-14 0 -23.5 11t-5.5 24l242 1364q1 13 13 24t26 11z" />
    <glyph glyph-name="Eacute" unicode="&#xc9;" horiz-adv-x="1241" 
d="M1012 1901h102q17 0 24 -13.5t-1 -25.5l-211 -277q-9 -10 -12.5 -13.5t-11.5 -7t-19 -3.5h-52q-18 0 -25.5 9.5t-0.5 26.5l164 273q7 12 10.5 16t12 9.5t20.5 5.5zM383 1434h934q13 0 21.5 -9.5t4.5 -25.5l-12 -66q-6 -35 -41 -35h-819l-90 -505h422q15 0 23.5 -9.5
t4.5 -25.5l-12 -64q-6 -35 -39 -35h-422l-94 -524h830q32 0 26 -35l-12 -65q-6 -35 -43 -35h-934q-14 0 -23.5 11t-5.5 24l242 1364q1 13 13 24t26 11z" />
    <glyph glyph-name="Ecircumflex" unicode="&#xca;" horiz-adv-x="1241" 
d="M874 1901h78q30 0 45 -31l133 -273q7 -13 -0.5 -24.5t-21.5 -11.5h-61q-27 0 -39 24l-109 195l-178 -195q-14 -14 -22.5 -19t-24.5 -5h-78q-14 0 -18.5 11.5t6.5 24.5l231 273q28 31 59 31zM383 1434h934q13 0 21.5 -9.5t4.5 -25.5l-12 -66q-6 -35 -41 -35h-819l-90 -505
h422q15 0 23.5 -9.5t4.5 -25.5l-12 -64q-6 -35 -39 -35h-422l-94 -524h830q32 0 26 -35l-12 -65q-6 -35 -43 -35h-934q-14 0 -23.5 11t-5.5 24l242 1364q1 13 13 24t26 11z" />
    <glyph glyph-name="Edieresis" unicode="&#xcb;" horiz-adv-x="1241" 
d="M569 1667q5 44 40.5 78.5t78.5 34.5q46 0 75.5 -34t24.5 -79t-39.5 -78t-78.5 -33t-74.5 33.5t-26.5 77.5zM942 1667q5 45 40 79t79 34q47 0 77 -34t25 -79q-5 -44 -41 -77.5t-80 -33.5t-74 33.5t-26 77.5zM383 1434h934q13 0 21.5 -9.5t4.5 -25.5l-12 -66
q-6 -35 -41 -35h-819l-90 -505h422q15 0 23.5 -9.5t4.5 -25.5l-12 -64q-6 -35 -39 -35h-422l-94 -524h830q32 0 26 -35l-12 -65q-6 -35 -43 -35h-934q-14 0 -23.5 11t-5.5 24l242 1364q1 13 13 24t26 11z" />
    <glyph glyph-name="Igrave" unicode="&#xcc;" horiz-adv-x="501" 
d="M193 1901h100q27 0 43 -31l151 -273q6 -17 -1 -26.5t-25 -9.5h-51q-5 0 -8.5 0.5t-7 2t-5.5 2t-5.5 3.5t-4 4t-5 6t-5.5 6l-199 277q-11 14 -3.5 26.5t26.5 12.5zM209 0h-80q-15 0 -23 9.5t-4 25.5l242 1364q6 35 39 35h76q15 0 23.5 -9.5t4.5 -25.5l-241 -1364
q-6 -35 -37 -35z" />
    <glyph glyph-name="Iacute" unicode="&#xcd;" horiz-adv-x="501" 
d="M596 1901h102q17 0 24 -13.5t-1 -25.5l-211 -277q-9 -10 -12.5 -13.5t-11.5 -7t-19 -3.5h-51q-18 0 -26 9.5t-1 26.5l164 273q7 12 10.5 16t12 9.5t20.5 5.5zM209 0h-80q-15 0 -23 9.5t-4 25.5l242 1364q6 35 39 35h76q15 0 23.5 -9.5t4.5 -25.5l-241 -1364
q-6 -35 -37 -35z" />
    <glyph glyph-name="Icircumflex" unicode="&#xce;" horiz-adv-x="501" 
d="M459 1901h78q29 0 45 -31l133 -273q7 -13 -1 -24.5t-22 -11.5h-61q-27 0 -39 24l-109 195l-178 -195q-14 -14 -22.5 -19t-24.5 -5h-78q-14 0 -18.5 11.5t6.5 24.5l231 273q28 31 60 31zM209 0h-80q-15 0 -23 9.5t-4 25.5l242 1364q6 35 39 35h76q15 0 23.5 -9.5
t4.5 -25.5l-241 -1364q-6 -35 -37 -35z" />
    <glyph glyph-name="Idieresis" unicode="&#xcf;" horiz-adv-x="501" 
d="M154 1667q5 45 40 79t78 34q47 0 76.5 -34t24.5 -79t-40 -78t-79 -33t-74 33.5t-26 77.5zM526 1667q5 45 40 79t79 34q47 0 77.5 -34t25.5 -79q-5 -44 -41 -77.5t-80 -33.5t-74.5 33.5t-26.5 77.5zM209 0h-80q-15 0 -23 9.5t-4 25.5l242 1364q6 35 39 35h76
q15 0 23.5 -9.5t4.5 -25.5l-241 -1364q-6 -35 -37 -35z" />
    <glyph glyph-name="Eth" unicode="&#xd0;" horiz-adv-x="1501" 
d="M625 0h-480q-14 0 -23 11t-5 24l112 631h-151q-15 0 -24 8.5t-5 25.5l10 54q6 34 41 34h150l108 611q12 35 39 35h383q325 0 504.5 -166.5t179.5 -448.5q0 -179 -59 -330.5t-166.5 -259.5t-265 -168.5t-348.5 -60.5zM279 135h358q300 0 489 184.5t189 493.5
q0 231 -143.5 358t-389.5 127h-297l-90 -510h434q13 0 22 -10.5t5 -23.5l-8 -54q-11 -34 -43 -34h-432z" />
    <glyph glyph-name="Ntilde" unicode="&#xd1;" horiz-adv-x="1470" 
d="M803 1792q43 0 151.5 -36t128.5 -36q30 0 47.5 11t43.5 43q10 13 24 13t25 -11l24 -21q22 -16 6 -47q-50 -115 -172 -115q-43 0 -151.5 36t-128.5 36q-30 0 -47 -10.5t-43 -42.5q-10 -13 -24 -13t-25 11l-25 20q-22 16 -6 47q50 115 172 115zM1051 31l-596 1183
l-209 -1179q-6 -35 -37 -35h-76q-14 0 -23.5 11t-5.5 24l242 1364q2 15 11.5 25t25.5 10h88q27 0 43 -29l592 -1180l207 1174q8 35 39 35h75q15 0 24 -9.5t5 -25.5l-242 -1364q-2 -14 -12.5 -24.5t-23.5 -10.5h-76q-39 0 -51 31z" />
    <glyph glyph-name="Ograve" unicode="&#xd2;" horiz-adv-x="1591" 
d="M709 1901h100q27 0 43 -31l152 -273q6 -17 -1.5 -26.5t-25.5 -9.5h-51q-5 0 -8.5 0.5t-7 2t-5.5 2t-5.5 3.5t-4 4t-5 6t-5.5 6l-199 277q-11 14 -3.5 26.5t26.5 12.5zM889 1460q192 0 344.5 -88t236.5 -241.5t84 -344.5q0 -167 -59 -317.5t-160 -259t-243 -172.5
t-301 -64q-192 0 -344.5 88t-236 241.5t-83.5 344.5q0 167 59.5 317.5t160.5 259t242.5 172.5t299.5 64zM889 1329q-171 0 -312.5 -91.5t-222 -248t-80.5 -342.5q0 -235 145.5 -389t375.5 -154q170 0 311 91.5t221 248t80 342.5q0 155 -64.5 278.5t-183 194t-270.5 70.5z
" />
    <glyph glyph-name="Oacute" unicode="&#xd3;" horiz-adv-x="1591" 
d="M1112 1901h102q17 0 24 -13.5t-1 -25.5l-211 -277q-9 -10 -12.5 -13.5t-11.5 -7t-19 -3.5h-51q-18 0 -26 9.5t-1 26.5l164 273q7 12 10.5 16t12 9.5t20.5 5.5zM889 1460q192 0 344.5 -88t236.5 -241.5t84 -344.5q0 -167 -59 -317.5t-160 -259t-243 -172.5t-301 -64
q-192 0 -344.5 88t-236 241.5t-83.5 344.5q0 167 59.5 317.5t160.5 259t242.5 172.5t299.5 64zM889 1329q-171 0 -312.5 -91.5t-222 -248t-80.5 -342.5q0 -235 145.5 -389t375.5 -154q170 0 311 91.5t221 248t80 342.5q0 155 -64.5 278.5t-183 194t-270.5 70.5z" />
    <glyph glyph-name="Ocircumflex" unicode="&#xd4;" horiz-adv-x="1591" 
d="M975 1901h78q29 0 45 -31l133 -273q7 -13 -1 -24.5t-22 -11.5h-61q-27 0 -39 24l-109 195l-178 -195q-14 -14 -22.5 -19t-24.5 -5h-78q-14 0 -18.5 11.5t6.5 24.5l231 273q28 31 60 31zM889 1460q192 0 344.5 -88t236.5 -241.5t84 -344.5q0 -167 -59 -317.5t-160 -259
t-243 -172.5t-301 -64q-192 0 -344.5 88t-236 241.5t-83.5 344.5q0 167 59.5 317.5t160.5 259t242.5 172.5t299.5 64zM889 1329q-171 0 -312.5 -91.5t-222 -248t-80.5 -342.5q0 -235 145.5 -389t375.5 -154q170 0 311 91.5t221 248t80 342.5q0 155 -64.5 278.5t-183 194
t-270.5 70.5z" />
    <glyph glyph-name="Otilde" unicode="&#xd5;" horiz-adv-x="1591" 
d="M831 1792q43 0 152 -36t129 -36q30 0 47 11t43 43q10 13 24 13t25 -11l25 -21q22 -16 6 -47q-50 -115 -172 -115q-43 0 -152 36t-129 36q-30 0 -47 -10.5t-43 -42.5q-10 -13 -24 -13t-25 11l-24 20q-22 16 -7 47q50 115 172 115zM889 1460q192 0 344.5 -88t236.5 -241.5
t84 -344.5q0 -167 -59 -317.5t-160 -259t-243 -172.5t-301 -64q-192 0 -344.5 88t-236 241.5t-83.5 344.5q0 167 59.5 317.5t160.5 259t242.5 172.5t299.5 64zM889 1329q-171 0 -312.5 -91.5t-222 -248t-80.5 -342.5q0 -235 145.5 -389t375.5 -154q170 0 311 91.5t221 248
t80 342.5q0 155 -64.5 278.5t-183 194t-270.5 70.5z" />
    <glyph glyph-name="Odieresis" unicode="&#xd6;" horiz-adv-x="1591" 
d="M670 1667q5 45 40 79t78 34q47 0 76.5 -34t24.5 -79t-40 -78t-79 -33t-74 33.5t-26 77.5zM1042 1667q5 45 40 79t79 34q47 0 77.5 -34t25.5 -79q-5 -44 -41 -77.5t-80 -33.5t-74.5 33.5t-26.5 77.5zM889 1460q192 0 344.5 -88t236.5 -241.5t84 -344.5q0 -167 -59 -317.5
t-160 -259t-243 -172.5t-301 -64q-192 0 -344.5 88t-236 241.5t-83.5 344.5q0 167 59.5 317.5t160.5 259t242.5 172.5t299.5 64zM889 1329q-171 0 -312.5 -91.5t-222 -248t-80.5 -342.5q0 -235 145.5 -389t375.5 -154q170 0 311 91.5t221 248t80 342.5q0 155 -64.5 278.5
t-183 194t-270.5 70.5z" />
    <glyph glyph-name="multiply" unicode="&#xd7;" horiz-adv-x="1103" 
d="M936 330l-55 -41q-12 -10 -26.5 -8t-25.5 14l-249 332l-359 -279q-12 -10 -26 -9t-25 13l-39 54q-16 26 10 49l359 278l-252 336q-18 30 8 49l55 43q28 21 49 -6l252 -336l365 285q12 11 26.5 10t24.5 -14l39 -53q21 -30 -10 -50l-365 -284l252 -336q9 -14 6.5 -26.5
t-14.5 -20.5z" />
    <glyph glyph-name="Oslash" unicode="&#xd8;" horiz-adv-x="1591" 
d="M889 1460q192 0 344.5 -88t236.5 -241.5t84 -344.5q0 -167 -59 -317.5t-160 -259t-243 -172.5t-301 -64q-192 0 -344.5 88t-236 241.5t-83.5 344.5q0 167 59.5 317.5t160.5 259t242.5 172.5t299.5 64zM274 647q0 -207 111 -348l836 915q-141 115 -332 115
q-171 0 -312.5 -91.5t-222 -248t-80.5 -342.5zM795 104q170 0 311 91.5t221 248t80 342.5q0 196 -102 338l-832 -915q140 -105 322 -105z" />
    <glyph glyph-name="Ugrave" unicode="&#xd9;" horiz-adv-x="1431" 
d="M659 1901h101q28 0 43 -31l151 -273q6 -17 -1 -26.5t-25 -9.5h-51q-5 0 -8.5 0.5t-7 2t-5.5 2t-5.5 3.5t-4 4t-5 6t-5.5 6l-199 277q-11 14 -4 26.5t26 12.5zM1434 1399l-162 -910q-43 -250 -196 -383t-408 -133q-161 0 -282.5 59.5t-183 178t-34.5 276.5l162 912
q1 13 13 24t26 11h77q14 0 22.5 -11t4.5 -24l-160 -912q-31 -179 74 -281t299 -102q175 0 292.5 100t149.5 283l160 912q1 13 14 24t27 11h76q13 0 22 -10.5t7 -24.5z" />
    <glyph glyph-name="Uacute" unicode="&#xda;" horiz-adv-x="1431" 
d="M1063 1901h102q17 0 24 -13.5t-1 -25.5l-211 -277q-9 -10 -12.5 -13.5t-11.5 -7t-19 -3.5h-51q-18 0 -26 9.5t-1 26.5l164 273q7 12 10.5 16t12 9.5t20.5 5.5zM1434 1399l-162 -910q-43 -250 -196 -383t-408 -133q-161 0 -282.5 59.5t-183 178t-34.5 276.5l162 912
q1 13 13 24t26 11h77q14 0 22.5 -11t4.5 -24l-160 -912q-31 -179 74 -281t299 -102q175 0 292.5 100t149.5 283l160 912q1 13 14 24t27 11h76q13 0 22 -10.5t7 -24.5z" />
    <glyph glyph-name="Ucircumflex" unicode="&#xdb;" horiz-adv-x="1431" 
d="M926 1901h78q30 0 45 -31l133 -273q7 -13 -1 -24.5t-22 -11.5h-61q-27 0 -39 24l-109 195l-178 -195q-14 -14 -22.5 -19t-24.5 -5h-78q-14 0 -18.5 11.5t6.5 24.5l231 273q28 31 60 31zM1434 1399l-162 -910q-43 -250 -196 -383t-408 -133q-161 0 -282.5 59.5t-183 178
t-34.5 276.5l162 912q1 13 13 24t26 11h77q14 0 22.5 -11t4.5 -24l-160 -912q-31 -179 74 -281t299 -102q175 0 292.5 100t149.5 283l160 912q1 13 14 24t27 11h76q13 0 22 -10.5t7 -24.5z" />
    <glyph glyph-name="Udieresis" unicode="&#xdc;" horiz-adv-x="1431" 
d="M621 1667q5 45 40 79t78 34q47 0 76.5 -34t24.5 -79t-40 -78t-79 -33t-74 33.5t-26 77.5zM993 1667q5 45 40 79t79 34q47 0 77 -34t25 -79q-5 -44 -40.5 -77.5t-79.5 -33.5t-74.5 33.5t-26.5 77.5zM1434 1399l-162 -910q-43 -250 -196 -383t-408 -133q-161 0 -282.5 59.5
t-183 178t-34.5 276.5l162 912q1 13 13 24t26 11h77q14 0 22.5 -11t4.5 -24l-160 -912q-31 -179 74 -281t299 -102q175 0 292.5 100t149.5 283l160 912q1 13 14 24t27 11h76q13 0 22 -10.5t7 -24.5z" />
    <glyph glyph-name="Yacute" unicode="&#xdd;" horiz-adv-x="1259" 
d="M954 1901h103q17 0 23.5 -13.5t-1.5 -25.5l-211 -277q-9 -10 -12.5 -13.5t-11.5 -7t-19 -3.5h-51q-18 0 -25.5 9.5t-0.5 26.5l163 273q7 12 10.5 16t12 9.5t20.5 5.5zM586 0h-76q-14 0 -23.5 11t-5.5 24l103 577l-379 785q-7 12 -0.5 24.5t22.5 12.5h95q26 0 38 -27
l312 -651h6l532 651q21 27 47 27h115q14 0 18.5 -12t-6.5 -25l-655 -785l-104 -577q-1 -13 -13 -24t-26 -11z" />
    <glyph glyph-name="Thorn" unicode="&#xde;" horiz-adv-x="1267" 
d="M295 303l-49 -268q-1 -13 -13 -24t-26 -11h-76q-14 0 -23.5 11t-5.5 24l242 1364q1 13 13 24t26 11h76q14 0 23 -11t5 -24l-34 -203h340q116 0 205.5 -32t143.5 -88.5t81.5 -128.5t27.5 -156q0 -100 -36 -187.5t-104 -155t-176 -106.5t-243 -39h-397zM778 1067h-348
l-111 -635h381q179 0 291.5 92t112.5 256q0 138 -87.5 212.5t-238.5 74.5z" />
    <glyph glyph-name="germandbls" unicode="&#xdf;" horiz-adv-x="1081" 
d="M59 35l174 981q39 225 163 351t319 126q88 0 157.5 -26.5t111.5 -69.5t63.5 -94.5t21.5 -106.5q0 -66 -34 -131t-82 -114.5t-96 -92.5t-82 -80t-34 -63q0 -28 26.5 -64.5t64.5 -76t76 -83.5t64.5 -100t26.5 -112q0 -134 -94 -221t-256 -87q-83 0 -166 27q-27 12 -18 39
l22 63q10 29 37 17q73 -21 140 -21q82 0 135 46t53 128q0 40 -27 86.5t-65 88l-76 83t-65 86.5t-27 84q0 40 35 88.5t84.5 96t99 96t84.5 103t35 102.5q0 79 -57 133.5t-164 54.5q-136 0 -220.5 -99.5t-115.5 -268.5l-170 -969q-9 -35 -41 -35h-74q-15 0 -24 9.5t-5 25.5z
" />
    <glyph glyph-name="agrave" unicode="&#xe0;" 
d="M416 1417h100q28 0 43 -31l152 -272q6 -17 -1.5 -27t-25.5 -10h-51q-6 0 -10.5 1t-7 1.5t-6.5 4t-5 4.5t-5.5 6.5t-6.5 7.5l-199 276q-11 14 -3.5 26.5t26.5 12.5zM524 98q155 0 266 124.5t111 299.5q0 139 -87 233.5t-226 94.5q-155 0 -263 -124.5t-108 -299.5
q0 -136 82.5 -232t224.5 -96zM76 420q0 120 41.5 224.5t110.5 176.5t160.5 113t189.5 41q127 0 226 -65t140 -175l33 180q6 35 39 35h69q35 0 29 -35l-158 -880q-6 -35 -38 -35h-72q-14 0 -22.5 11t-4.5 24l23 127q-57 -84 -147.5 -136.5t-198.5 -52.5q-184 0 -302 127.5
t-118 319.5z" />
    <glyph glyph-name="aacute" unicode="&#xe1;" 
d="M819 1417h103q17 0 23.5 -13.5t-1.5 -25.5l-211 -276q-18 -21 -29 -24q-6 -1 -14 -1h-51q-18 0 -26 10t-1 27l164 272q7 12 10.5 16t12 9.5t20.5 5.5zM524 98q155 0 266 124.5t111 299.5q0 139 -87 233.5t-226 94.5q-155 0 -263 -124.5t-108 -299.5q0 -136 82.5 -232
t224.5 -96zM76 420q0 120 41.5 224.5t110.5 176.5t160.5 113t189.5 41q127 0 226 -65t140 -175l33 180q6 35 39 35h69q35 0 29 -35l-158 -880q-6 -35 -38 -35h-72q-14 0 -22.5 11t-4.5 24l23 127q-57 -84 -147.5 -136.5t-198.5 -52.5q-184 0 -302 127.5t-118 319.5z" />
    <glyph glyph-name="acircumflex" unicode="&#xe2;" 
d="M682 1417h78q30 0 45 -31l133 -272q7 -13 -1 -25t-22 -12h-61q-26 0 -39 25l-108 194l-179 -194q-10 -10 -14.5 -14t-13 -7.5t-19.5 -3.5h-78q-14 0 -18.5 11.5t6.5 25.5l232 272q28 31 59 31zM524 98q155 0 266 124.5t111 299.5q0 139 -87 233.5t-226 94.5
q-155 0 -263 -124.5t-108 -299.5q0 -136 82.5 -232t224.5 -96zM76 420q0 120 41.5 224.5t110.5 176.5t160.5 113t189.5 41q127 0 226 -65t140 -175l33 180q6 35 39 35h69q35 0 29 -35l-158 -880q-6 -35 -38 -35h-72q-14 0 -22.5 11t-4.5 24l23 127q-57 -84 -147.5 -136.5
t-198.5 -52.5q-184 0 -302 127.5t-118 319.5z" />
    <glyph glyph-name="atilde" unicode="&#xe3;" 
d="M539 1309q43 0 151.5 -36t128.5 -36q30 0 47 10.5t43 42.5q10 13 24 13t25 -11l25 -20q22 -16 6 -47q-50 -115 -172 -115q-43 0 -151.5 36t-128.5 36q-30 0 -47.5 -11t-43.5 -43q-10 -13 -24 -13t-25 11l-24 21q-22 16 -6 47q50 115 172 115zM524 98q155 0 266 124.5
t111 299.5q0 139 -87 233.5t-226 94.5q-155 0 -263 -124.5t-108 -299.5q0 -136 82.5 -232t224.5 -96zM76 420q0 120 41.5 224.5t110.5 176.5t160.5 113t189.5 41q127 0 226 -65t140 -175l33 180q6 35 39 35h69q35 0 29 -35l-158 -880q-6 -35 -38 -35h-72q-14 0 -22.5 11
t-4.5 24l23 127q-57 -84 -147.5 -136.5t-198.5 -52.5q-184 0 -302 127.5t-118 319.5z" />
    <glyph glyph-name="adieresis" unicode="&#xe4;" 
d="M377 1184q5 44 40.5 78t78.5 34q47 0 76 -33.5t24 -78.5t-40 -78t-79 -33t-74 33.5t-26 77.5zM750 1184q5 45 39.5 78.5t78.5 33.5q47 0 77.5 -33.5t25.5 -78.5q-5 -44 -41 -77.5t-80 -33.5t-74 33.5t-26 77.5zM524 98q155 0 266 124.5t111 299.5q0 139 -87 233.5
t-226 94.5q-155 0 -263 -124.5t-108 -299.5q0 -136 82.5 -232t224.5 -96zM76 420q0 120 41.5 224.5t110.5 176.5t160.5 113t189.5 41q127 0 226 -65t140 -175l33 180q6 35 39 35h69q35 0 29 -35l-158 -880q-6 -35 -38 -35h-72q-14 0 -22.5 11t-4.5 24l23 127
q-57 -84 -147.5 -136.5t-198.5 -52.5q-184 0 -302 127.5t-118 319.5z" />
    <glyph glyph-name="aring" unicode="&#xe5;" 
d="M692 1497q93 0 155 -57t62 -152q0 -97 -68 -169t-179 -72q-93 0 -155.5 57t-62.5 151q0 97 69 169.5t179 72.5zM666 1143q62 0 99.5 43.5t37.5 97.5q0 51 -31 84t-84 33q-62 0 -99.5 -43.5t-37.5 -97.5q0 -51 31 -84t84 -33zM524 98q155 0 266 124.5t111 299.5
q0 139 -87 233.5t-226 94.5q-155 0 -263 -124.5t-108 -299.5q0 -136 82.5 -232t224.5 -96zM76 420q0 120 41.5 224.5t110.5 176.5t160.5 113t189.5 41q127 0 226 -65t140 -175l33 180q6 35 39 35h69q35 0 29 -35l-158 -880q-6 -35 -38 -35h-72q-14 0 -22.5 11t-4.5 24
l23 127q-57 -84 -147.5 -136.5t-198.5 -52.5q-184 0 -302 127.5t-118 319.5z" />
    <glyph glyph-name="ae" unicode="&#xe6;" horiz-adv-x="1802" 
d="M1243 -27q-225 0 -356 160q-64 -75 -159 -117.5t-206 -42.5q-197 0 -322.5 129t-125.5 322q0 152 65.5 277.5t185.5 199.5t269 74q219 0 346 -158q155 158 375 158q185 0 313 -123.5t121 -310.5l-2 -58q0 -47 -47 -47h-770v-12q0 -141 88 -233.5t229 -92.5q170 0 301 131
q15 15 23 18t28 -5l60 -37q12 -7 14 -20t-6 -23q-160 -189 -424 -189zM1307 858q-135 0 -234 -88t-129 -229h670q4 146 -80 231.5t-227 85.5zM532 98q178 0 293 138q-37 84 -37 192q0 157 78 291q-105 133 -272 133q-159 0 -270 -122.5t-111 -295.5q0 -149 91 -242.5
t228 -93.5z" />
    <glyph glyph-name="ccedilla" unicode="&#xe7;" horiz-adv-x="1026" 
d="M516 -27l-156 -247q-16 -25 -45 -25h-59q-15 0 -21 10t3 27l145 256q-141 43 -224 159.5t-83 270.5q0 234 144.5 392.5t361.5 158.5q289 0 413 -240q10 -24 -14 -33l-68 -32q-25 -11 -39 12q-50 83 -119 125.5t-173 42.5q-152 0 -259.5 -123t-107.5 -295
q0 -151 91 -242.5t229 -91.5q88 0 152.5 37t127.5 115q26 30 51 10l52 -33q24 -19 4 -51q-61 -98 -164 -150.5t-232 -52.5h-10z" />
    <glyph glyph-name="egrave" unicode="&#xe8;" horiz-adv-x="1087" 
d="M373 1417h100q27 0 43 -31l152 -272q6 -17 -1.5 -27t-25.5 -10h-51q-6 0 -10.5 1t-7 1.5t-6.5 4t-5 4.5t-5.5 6.5t-6.5 7.5l-199 276q-11 14 -3.5 26.5t26.5 12.5zM528 -27q-201 0 -327.5 129t-126.5 326q0 112 40 213t109.5 174.5t167.5 116.5t209 43q185 0 313 -123.5
t121 -310.5l-2 -58q0 -47 -47 -47h-770v-12q0 -141 88 -233.5t229 -92.5q171 0 302 131q15 15 23 18t28 -5l59 -37q12 -7 14 -20t-6 -23q-160 -189 -424 -189zM592 858q-135 0 -234 -88t-129 -229h670q4 146 -80 231.5t-227 85.5z" />
    <glyph glyph-name="eacute" unicode="&#xe9;" horiz-adv-x="1087" 
d="M776 1417h103q17 0 23.5 -13.5t-1.5 -25.5l-211 -276q-18 -21 -29 -24q-6 -1 -14 -1h-51q-18 0 -26 10t-1 27l164 272q7 12 10.5 16t12 9.5t20.5 5.5zM528 -27q-201 0 -327.5 129t-126.5 326q0 112 40 213t109.5 174.5t167.5 116.5t209 43q185 0 313 -123.5t121 -310.5
l-2 -58q0 -47 -47 -47h-770v-12q0 -141 88 -233.5t229 -92.5q171 0 302 131q15 15 23 18t28 -5l59 -37q12 -7 14 -20t-6 -23q-160 -189 -424 -189zM592 858q-135 0 -234 -88t-129 -229h670q4 146 -80 231.5t-227 85.5z" />
    <glyph glyph-name="ecircumflex" unicode="&#xea;" horiz-adv-x="1087" 
d="M639 1417h78q29 0 45 -31l133 -272q7 -13 -1 -25t-22 -12h-61q-27 0 -39 25l-108 194l-179 -194q-10 -10 -14.5 -14t-13 -7.5t-19.5 -3.5h-78q-14 0 -18.5 11.5t6.5 25.5l232 272q28 31 59 31zM528 -27q-201 0 -327.5 129t-126.5 326q0 112 40 213t109.5 174.5
t167.5 116.5t209 43q185 0 313 -123.5t121 -310.5l-2 -58q0 -47 -47 -47h-770v-12q0 -141 88 -233.5t229 -92.5q171 0 302 131q15 15 23 18t28 -5l59 -37q12 -7 14 -20t-6 -23q-160 -189 -424 -189zM592 858q-135 0 -234 -88t-129 -229h670q4 146 -80 231.5t-227 85.5z" />
    <glyph glyph-name="edieresis" unicode="&#xeb;" horiz-adv-x="1087" 
d="M334 1184q5 44 40.5 78t78.5 34q47 0 76 -33.5t24 -78.5t-40 -78t-79 -33t-74 33.5t-26 77.5zM707 1184q5 45 39.5 78.5t78.5 33.5q47 0 77.5 -33.5t25.5 -78.5q-5 -44 -41 -77.5t-80 -33.5t-74 33.5t-26 77.5zM528 -27q-201 0 -327.5 129t-126.5 326q0 112 40 213
t109.5 174.5t167.5 116.5t209 43q185 0 313 -123.5t121 -310.5l-2 -58q0 -47 -47 -47h-770v-12q0 -141 88 -233.5t229 -92.5q171 0 302 131q15 15 23 18t28 -5l59 -37q12 -7 14 -20t-6 -23q-160 -189 -424 -189zM592 858q-135 0 -234 -88t-129 -229h670q4 146 -80 231.5
t-227 85.5z" />
    <glyph glyph-name="igrave" unicode="&#xec;" horiz-adv-x="411" 
d="M63 1417h101q28 0 43 -31l151 -272q6 -17 -1.5 -27t-24.5 -10h-51q-6 0 -10.5 1t-7 1.5t-6.5 4t-5 4.5t-5.5 6.5t-6.5 7.5l-199 276q-11 14 -4 26.5t26 12.5zM160 0h-72q-15 0 -24 9.5t-5 25.5l156 880q9 35 41 35h72q14 0 23 -9.5t5 -25.5l-157 -880q-6 -35 -39 -35z
" />
    <glyph glyph-name="iacute" unicode="&#xed;" horiz-adv-x="411" 
d="M467 1417h102q17 0 24 -13.5t-1 -25.5l-211 -276q-18 -21 -29 -24q-6 -1 -14 -1h-51q-18 0 -26 10t-1 27l164 272q7 12 10.5 16t12 9.5t20.5 5.5zM160 0h-72q-15 0 -24 9.5t-5 25.5l156 880q9 35 41 35h72q14 0 23 -9.5t5 -25.5l-157 -880q-6 -35 -39 -35z" />
    <glyph glyph-name="icircumflex" unicode="&#xee;" horiz-adv-x="411" 
d="M330 1417h78q30 0 45 -31l133 -272q7 -13 -1 -25t-22 -12h-61q-26 0 -39 25l-109 194l-178 -194q-10 -10 -14.5 -14t-13 -7.5t-19.5 -3.5h-78q-14 0 -18.5 11.5t6.5 25.5l231 272q28 31 60 31zM160 0h-72q-15 0 -24 9.5t-5 25.5l156 880q9 35 41 35h72q14 0 23 -9.5
t5 -25.5l-157 -880q-6 -35 -39 -35z" />
    <glyph glyph-name="idieresis" unicode="&#xef;" horiz-adv-x="411" 
d="M25 1184q5 44 40 78t78 34q47 0 76.5 -33.5t24.5 -78.5t-40 -78t-79 -33t-74 33.5t-26 77.5zM397 1184q5 45 40 78.5t79 33.5q47 0 77 -33.5t25 -78.5q-5 -44 -40.5 -77.5t-79.5 -33.5t-74.5 33.5t-26.5 77.5zM160 0h-72q-15 0 -24 9.5t-5 25.5l156 880q9 35 41 35h72
q14 0 23 -9.5t5 -25.5l-157 -880q-6 -35 -39 -35z" />
    <glyph glyph-name="eth" unicode="&#xf0;" horiz-adv-x="1118" 
d="M522 -27q-89 0 -169.5 31t-142 88t-98 144t-36.5 192q0 149 63 272.5t179 197t260 73.5q87 0 167.5 -31.5t133.5 -99.5q-68 169 -168 309l-226 -53q-34 -6 -43 24l-8 31q-9 34 29 43l182 43q-85 108 -180 203q-10 10 -5 21.5t17 11.5h96q26 0 39 -13q102 -102 168 -190
l197 45q34 6 43 -25l8 -30q9 -34 -29 -43l-155 -37q203 -314 203 -629q0 -152 -63 -283t-184.5 -213t-277.5 -82zM592 852q-158 0 -266.5 -123t-108.5 -295q0 -156 87.5 -246t225.5 -90q157 0 266 123t109 295q0 153 -88 244.5t-225 91.5z" />
    <glyph glyph-name="ntilde" unicode="&#xf1;" horiz-adv-x="1144" 
d="M555 1309q43 0 152 -36t129 -36q30 0 47 10.5t43 42.5q10 13 24 13t25 -11l24 -20q22 -16 7 -47q-50 -115 -172 -115q-43 0 -152 36t-129 36q-30 0 -47 -11t-43 -43q-10 -13 -24 -13t-25 11l-25 21q-22 16 -6 47q50 115 172 115zM805 33l88 495q29 153 -34.5 237.5
t-205.5 84.5q-144 0 -243 -97t-129 -255l-82 -465q-9 -33 -39 -33h-74q-15 0 -23 9.5t-4 25.5l156 880q6 35 39 35h72q13 0 21.5 -10.5t6.5 -24.5l-24 -131q57 87 149.5 139t210.5 52q187 0 284.5 -116t61.5 -310l-90 -516q-9 -33 -41 -33h-74q-29 0 -26 33z" />
    <glyph glyph-name="ograve" unicode="&#xf2;" horiz-adv-x="1112" 
d="M373 1417h100q27 0 43 -31l152 -272q6 -17 -1.5 -27t-25.5 -10h-51q-6 0 -10.5 1t-7 1.5t-6.5 4t-5 4.5t-5.5 6.5t-6.5 7.5l-199 276q-11 14 -3.5 26.5t26.5 12.5zM598 975q119 0 219 -53t161.5 -157t61.5 -239q0 -152 -68 -278.5t-188 -200.5t-266 -74q-120 0 -220.5 53
t-162 157t-61.5 239q0 152 68.5 279t189 200.5t266.5 73.5zM588 852q-157 0 -265 -123t-108 -295q0 -156 87 -246t224 -90q158 0 266.5 123t108.5 295q0 153 -88 244.5t-225 91.5z" />
    <glyph glyph-name="oacute" unicode="&#xf3;" horiz-adv-x="1112" 
d="M776 1417h103q17 0 23.5 -13.5t-1.5 -25.5l-211 -276q-18 -21 -29 -24q-6 -1 -14 -1h-51q-18 0 -26 10t-1 27l164 272q7 12 10.5 16t12 9.5t20.5 5.5zM598 975q119 0 219 -53t161.5 -157t61.5 -239q0 -152 -68 -278.5t-188 -200.5t-266 -74q-120 0 -220.5 53t-162 157
t-61.5 239q0 152 68.5 279t189 200.5t266.5 73.5zM588 852q-157 0 -265 -123t-108 -295q0 -156 87 -246t224 -90q158 0 266.5 123t108.5 295q0 153 -88 244.5t-225 91.5z" />
    <glyph glyph-name="ocircumflex" unicode="&#xf4;" horiz-adv-x="1112" 
d="M639 1417h78q29 0 45 -31l133 -272q7 -13 -1 -25t-22 -12h-61q-27 0 -39 25l-108 194l-179 -194q-10 -10 -14.5 -14t-13 -7.5t-19.5 -3.5h-78q-14 0 -18.5 11.5t6.5 25.5l232 272q28 31 59 31zM598 975q119 0 219 -53t161.5 -157t61.5 -239q0 -152 -68 -278.5
t-188 -200.5t-266 -74q-120 0 -220.5 53t-162 157t-61.5 239q0 152 68.5 279t189 200.5t266.5 73.5zM588 852q-157 0 -265 -123t-108 -295q0 -156 87 -246t224 -90q158 0 266.5 123t108.5 295q0 153 -88 244.5t-225 91.5z" />
    <glyph glyph-name="otilde" unicode="&#xf5;" horiz-adv-x="1112" 
d="M496 1309q43 0 151.5 -36t128.5 -36q30 0 47 10.5t43 42.5q10 13 24 13t25 -11l25 -20q22 -16 6 -47q-50 -115 -172 -115q-43 0 -151.5 36t-128.5 36q-30 0 -47.5 -11t-43.5 -43q-10 -13 -24 -13t-25 11l-24 21q-22 16 -6 47q50 115 172 115zM598 975q119 0 219 -53
t161.5 -157t61.5 -239q0 -152 -68 -278.5t-188 -200.5t-266 -74q-120 0 -220.5 53t-162 157t-61.5 239q0 152 68.5 279t189 200.5t266.5 73.5zM588 852q-157 0 -265 -123t-108 -295q0 -156 87 -246t224 -90q158 0 266.5 123t108.5 295q0 153 -88 244.5t-225 91.5z" />
    <glyph glyph-name="odieresis" unicode="&#xf6;" horiz-adv-x="1112" 
d="M334 1184q5 44 40.5 78t78.5 34q47 0 76 -33.5t24 -78.5t-40 -78t-79 -33t-74 33.5t-26 77.5zM707 1184q5 45 39.5 78.5t78.5 33.5q47 0 77.5 -33.5t25.5 -78.5q-5 -44 -41 -77.5t-80 -33.5t-74 33.5t-26 77.5zM598 975q119 0 219 -53t161.5 -157t61.5 -239
q0 -152 -68 -278.5t-188 -200.5t-266 -74q-120 0 -220.5 53t-162 157t-61.5 239q0 152 68.5 279t189 200.5t266.5 73.5zM588 852q-157 0 -265 -123t-108 -295q0 -156 87 -246t224 -90q158 0 266.5 123t108.5 295q0 153 -88 244.5t-225 91.5z" />
    <glyph glyph-name="divide" unicode="&#xf7;" horiz-adv-x="1075" 
d="M635 958q-56 0 -92.5 39.5t-32.5 94.5q5 57 45.5 96t95.5 39q56 0 92.5 -39t32.5 -96q-5 -56 -45 -95t-96 -39zM1032 762l-12 -72q-12 -35 -41 -35h-817q-14 0 -22.5 11t-4.5 24l12 72q12 35 39 35h820q14 0 22 -11t4 -24zM510 207q-56 0 -92.5 39t-32.5 96
q5 56 45.5 94.5t95.5 38.5q56 0 92.5 -39t32.5 -94q-5 -57 -45.5 -96t-95.5 -39z" />
    <glyph glyph-name="oslash" unicode="&#xf8;" horiz-adv-x="1112" 
d="M598 975q119 0 219 -53t161.5 -157t61.5 -239q0 -152 -68 -278.5t-188 -200.5t-266 -74q-120 0 -220.5 53t-162 157t-61.5 239q0 152 68.5 279t189 200.5t266.5 73.5zM215 434q0 -118 51 -198l514 555q-82 61 -192 61q-157 0 -265 -123t-108 -295zM526 98
q158 0 266.5 123t108.5 295q0 106 -49 193l-510 -555q77 -56 184 -56z" />
    <glyph glyph-name="ugrave" unicode="&#xf9;" horiz-adv-x="1126" 
d="M414 1417h100q28 0 43 -31l152 -272q6 -17 -1.5 -27t-25.5 -10h-51q-6 0 -10.5 1t-7 1.5t-6.5 4t-5 4.5t-5.5 6.5t-6.5 7.5l-199 276q-11 14 -3.5 26.5t26.5 12.5zM344 915l-90 -505q-26 -150 37.5 -232t195.5 -82q144 0 238 90.5t121 245.5l86 483q6 35 39 35h73
q14 0 21.5 -9.5t3.5 -25.5l-154 -880q-6 -35 -38 -35h-74q-15 0 -24 8.5t-5 24.5l27 133q-58 -90 -148.5 -141.5t-208.5 -51.5q-175 0 -270 116.5t-63 299.5l92 526q8 35 39 35h73q16 0 23.5 -10t5.5 -25z" />
    <glyph glyph-name="uacute" unicode="&#xfa;" horiz-adv-x="1126" 
d="M817 1417h103q17 0 23.5 -13.5t-1.5 -25.5l-211 -276q-18 -21 -29 -24q-6 -1 -14 -1h-51q-18 0 -26 10t-1 27l164 272q7 12 10.5 16t12 9.5t20.5 5.5zM344 915l-90 -505q-26 -150 37.5 -232t195.5 -82q144 0 238 90.5t121 245.5l86 483q6 35 39 35h73q14 0 21.5 -9.5
t3.5 -25.5l-154 -880q-6 -35 -38 -35h-74q-15 0 -24 8.5t-5 24.5l27 133q-58 -90 -148.5 -141.5t-208.5 -51.5q-175 0 -270 116.5t-63 299.5l92 526q8 35 39 35h73q16 0 23.5 -10t5.5 -25z" />
    <glyph glyph-name="ucircumflex" unicode="&#xfb;" horiz-adv-x="1126" 
d="M680 1417h78q30 0 45 -31l133 -272q7 -13 -1 -25t-22 -12h-61q-26 0 -39 25l-108 194l-179 -194q-10 -10 -14.5 -14t-13 -7.5t-19.5 -3.5h-78q-14 0 -18.5 11.5t6.5 25.5l232 272q28 31 59 31zM344 915l-90 -505q-26 -150 37.5 -232t195.5 -82q144 0 238 90.5t121 245.5
l86 483q6 35 39 35h73q14 0 21.5 -9.5t3.5 -25.5l-154 -880q-6 -35 -38 -35h-74q-15 0 -24 8.5t-5 24.5l27 133q-58 -90 -148.5 -141.5t-208.5 -51.5q-175 0 -270 116.5t-63 299.5l92 526q8 35 39 35h73q16 0 23.5 -10t5.5 -25z" />
    <glyph glyph-name="udieresis" unicode="&#xfc;" horiz-adv-x="1126" 
d="M375 1184q5 44 40.5 78t78.5 34q47 0 76 -33.5t24 -78.5t-40 -78t-79 -33t-74 33.5t-26 77.5zM748 1184q5 45 39.5 78.5t78.5 33.5q47 0 77.5 -33.5t25.5 -78.5q-5 -44 -41 -77.5t-80 -33.5t-74 33.5t-26 77.5zM344 915l-90 -505q-26 -150 37.5 -232t195.5 -82
q144 0 238 90.5t121 245.5l86 483q6 35 39 35h73q14 0 21.5 -9.5t3.5 -25.5l-154 -880q-6 -35 -38 -35h-74q-15 0 -24 8.5t-5 24.5l27 133q-58 -90 -148.5 -141.5t-208.5 -51.5q-175 0 -270 116.5t-63 299.5l92 526q8 35 39 35h73q16 0 23.5 -10t5.5 -25z" />
    <glyph glyph-name="yacute" unicode="&#xfd;" horiz-adv-x="952" 
d="M725 1417h102q17 0 24 -13.5t-1 -25.5l-211 -276q-18 -21 -29 -24q-6 -1 -14 -1h-51q-18 0 -26 10t-1 27l164 272q7 12 10.5 16t12 9.5t20.5 5.5zM51 -467q-84 0 -152.5 33t-101.5 76q-19 26 6 51l35 37q27 27 60 -6q22 -20 39.5 -32.5t49.5 -24t66 -11.5q121 0 197 141
l112 203h-38q-29 0 -35 27l-164 884q-6 39 33 39h80q30 0 36 -32l140 -805l417 805q16 32 46 32h90q18 0 24 -11t-4 -28l-618 -1163q-112 -215 -318 -215z" />
    <glyph glyph-name="thorn" unicode="&#xfe;" 
d="M649 850q-156 0 -266.5 -123t-110.5 -301q0 -139 87.5 -233.5t226.5 -94.5q157 0 263.5 124t106.5 300q0 136 -82.5 232t-224.5 96zM231 215l-106 -602q-5 -14 -16.5 -24.5t-24.5 -10.5h-72q-13 0 -21.5 11t-4.5 24l315 1786q6 35 39 35h74q14 0 23 -9.5t5 -25.5
l-108 -606q55 84 145.5 133t198.5 49q183 0 301.5 -126.5t118.5 -318.5q0 -120 -41 -225t-109.5 -177t-160 -113.5t-191.5 -41.5q-127 0 -225.5 65.5t-139.5 176.5z" />
    <glyph glyph-name="ydieresis" unicode="&#xff;" horiz-adv-x="952" 
d="M283 1184q5 44 40 78t78 34q47 0 76.5 -33.5t24.5 -78.5t-40 -78t-79 -33t-74 33.5t-26 77.5zM655 1184q5 45 40 78.5t79 33.5q47 0 77.5 -33.5t25.5 -78.5q-5 -44 -41 -77.5t-80 -33.5t-74.5 33.5t-26.5 77.5zM51 -467q-84 0 -152.5 33t-101.5 76q-19 26 6 51l35 37
q27 27 60 -6q22 -20 39.5 -32.5t49.5 -24t66 -11.5q121 0 197 141l112 203h-38q-29 0 -35 27l-164 884q-6 39 33 39h80q30 0 36 -32l140 -805l417 805q16 32 46 32h90q18 0 24 -11t-4 -28l-618 -1163q-112 -215 -318 -215z" />
    <glyph glyph-name="Amacron" unicode="&#x100;" horiz-adv-x="1310" 
d="M1085 1606h-464q-13 0 -22 10.5t-5 23.5l6 50q5 14 17.5 24t25.5 10h465q14 0 23.5 -10.5t5.5 -23.5l-9 -50q-5 -14 -17.5 -24t-25.5 -10zM956 539l-155 759l-418 -759h573zM315 414l-209 -381q-14 -33 -45 -33h-86q-17 0 -22.5 11t2.5 28l758 1364q19 31 45 31h123
q33 0 39 -33l288 -1362q5 -17 -3 -28t-25 -11h-86q-29 0 -35 33l-78 381h-666z" />
    <glyph glyph-name="amacron" unicode="&#x101;" 
d="M903 1122h-465q-13 0 -21.5 11t-4.5 24l6 49q5 14 17.5 24.5t25.5 10.5h465q14 0 23 -11t5 -24l-8 -49q-5 -14 -17.5 -24.5t-25.5 -10.5zM524 98q155 0 266 124.5t111 299.5q0 139 -87 233.5t-226 94.5q-155 0 -263 -124.5t-108 -299.5q0 -136 82.5 -232t224.5 -96z
M76 420q0 120 41.5 224.5t110.5 176.5t160.5 113t189.5 41q127 0 226 -65t140 -175l33 180q6 35 39 35h69q35 0 29 -35l-158 -880q-6 -35 -38 -35h-72q-14 0 -22.5 11t-4.5 24l23 127q-57 -84 -147.5 -136.5t-198.5 -52.5q-184 0 -302 127.5t-118 319.5z" />
    <glyph glyph-name="Abreve" unicode="&#x102;" horiz-adv-x="1310" 
d="M743 1802l-4 -18q-12 -58 22.5 -88.5t100.5 -30.5q68 0 106 29t50 90l4 18q3 17 20 17h80q24 0 21 -21l-4 -29q-13 -102 -89 -160.5t-194 -58.5q-117 0 -184.5 63.5t-50.5 160.5l4 24q3 21 22 21h84q6 0 10 -6t2 -11zM956 539l-155 759l-418 -759h573zM315 414l-209 -381
q-14 -33 -45 -33h-86q-17 0 -22.5 11t2.5 28l758 1364q19 31 45 31h123q33 0 39 -33l288 -1362q5 -17 -3 -28t-25 -11h-86q-29 0 -35 33l-78 381h-666z" />
    <glyph glyph-name="abreve" unicode="&#x103;" 
d="M561 1319l-4 -19q-12 -58 22.5 -88t100.5 -30q69 0 106.5 29t49.5 89l4 19q3 16 20 16h80q24 0 21 -20l-5 -29q-13 -102 -89 -160.5t-193 -58.5t-185 63t-51 160l4 25q3 20 23 20h84q6 0 10 -5.5t2 -10.5zM524 98q155 0 266 124.5t111 299.5q0 139 -87 233.5t-226 94.5
q-155 0 -263 -124.5t-108 -299.5q0 -136 82.5 -232t224.5 -96zM76 420q0 120 41.5 224.5t110.5 176.5t160.5 113t189.5 41q127 0 226 -65t140 -175l33 180q6 35 39 35h69q35 0 29 -35l-158 -880q-6 -35 -38 -35h-72q-14 0 -22.5 11t-4.5 24l23 127q-57 -84 -147.5 -136.5
t-198.5 -52.5q-184 0 -302 127.5t-118 319.5z" />
    <glyph glyph-name="Aogonek" unicode="&#x104;" horiz-adv-x="1310" 
d="M956 539l-155 759l-418 -759h573zM1167 -313l-6 -37q-4 -21 -48 -33t-85 -12q-68 0 -106.5 33.5t-38.5 89.5q0 128 196 276q-17 7 -20 29l-78 381h-666l-209 -381q-14 -33 -45 -33h-86q-17 0 -22.5 11t2.5 28l758 1364q19 31 45 31h123q33 0 39 -33l288 -1362
q5 -17 -3 -28t-25 -11h-13q-68 -64 -112.5 -129.5t-44.5 -108.5q0 -61 71 -61q23 0 46 5t24 5q19 0 16 -24z" />
    <glyph glyph-name="aogonek" unicode="&#x105;" 
d="M524 98q155 0 266 124.5t111 299.5q0 139 -87 233.5t-226 94.5q-155 0 -263 -124.5t-108 -299.5q0 -136 82.5 -232t224.5 -96zM926 -285l-6 -37q-4 -21 -48 -33t-86 -12q-68 0 -106.5 33.5t-38.5 89.5q0 119 178 262v17l23 127q-57 -84 -147.5 -136.5t-198.5 -52.5
q-184 0 -302 127.5t-118 319.5q0 120 41.5 224.5t110.5 176.5t160.5 113t189.5 41q127 0 226 -65t140 -175l33 180q6 35 39 35h69q35 0 29 -35l-158 -880q-6 -35 -38 -35h-21q-58 -59 -93.5 -115.5t-35.5 -93.5q0 -61 72 -61q23 0 45.5 5t23.5 5q20 0 17 -25z" />
    <glyph glyph-name="Cacute" unicode="&#x106;" horiz-adv-x="1501" 
d="M1104 1898h102q17 0 24 -13t-1 -25l-211 -277q-9 -10 -12.5 -13.5t-11.5 -7t-19 -3.5h-51q-18 0 -26 9.5t-1 26.5l164 273q7 11 10.5 15.5t12 9.5t20.5 5zM272 645q0 -236 145.5 -389.5t373.5 -153.5q178 0 311 90t219 248q14 22 23 25q7 3 16 2l80 -23q30 -8 16 -36
q-94 -203 -273.5 -319t-404.5 -116q-190 0 -339 86.5t-231.5 238.5t-82.5 343q0 171 63 324t168 260.5t246.5 170t294.5 62.5q232 0 400 -125t225 -336q5 -11 -1 -21t-22 -11l-80 -9q-24 -3 -33 19q-55 168 -181 261t-312 93q-168 0 -311 -91t-226.5 -249t-83.5 -344z" />
    <glyph glyph-name="cacute" unicode="&#x107;" horiz-adv-x="1026" 
d="M795 1411h102q17 0 24 -13.5t-1 -25.5l-211 -276q-18 -21 -29 -24q-6 -1 -14 -1h-52q-18 0 -25.5 10t-0.5 27l164 272q7 12 10.5 16t12 9.5t20.5 5.5zM922 176q-61 -98 -164 -150.5t-232 -52.5q-198 0 -324 129t-126 322q0 234 144.5 392.5t361.5 158.5q289 0 413 -240
q10 -24 -14 -33l-68 -32q-25 -11 -39 12q-50 83 -119 125.5t-173 42.5q-152 0 -259.5 -123t-107.5 -295q0 -151 91 -242.5t229 -91.5q88 0 152.5 37t127.5 115q26 30 51 10l52 -33q24 -19 4 -51z" />
    <glyph glyph-name="Ccircumflex" unicode="&#x108;" horiz-adv-x="1501" 
d="M967 1898h77q31 0 46 -30l133 -273q7 -13 -1 -24.5t-22 -11.5h-61q-27 0 -39 24l-109 195l-178 -195q-14 -14 -22.5 -19t-24.5 -5h-78q-14 0 -18.5 11.5t6.5 24.5l231 273q27 30 60 30zM272 645q0 -236 145.5 -389.5t373.5 -153.5q178 0 311 90t219 248q14 22 23 25
q7 3 16 2l80 -23q30 -8 16 -36q-94 -203 -273.5 -319t-404.5 -116q-190 0 -339 86.5t-231.5 238.5t-82.5 343q0 171 63 324t168 260.5t246.5 170t294.5 62.5q232 0 400 -125t225 -336q5 -11 -1 -21t-22 -11l-80 -9q-24 -3 -33 19q-55 168 -181 261t-312 93q-168 0 -311 -91
t-226.5 -249t-83.5 -344z" />
    <glyph glyph-name="ccircumflex" unicode="&#x109;" horiz-adv-x="1026" 
d="M657 1411h78q29 0 45 -31l133 -272q7 -13 -0.5 -25t-21.5 -12h-62q-16 0 -23.5 6t-14.5 19l-109 194l-178 -194q-10 -10 -14.5 -14t-13 -7.5t-19.5 -3.5h-78q-14 0 -18.5 11.5t6.5 25.5l231 272q28 31 59 31zM922 176q-61 -98 -164 -150.5t-232 -52.5q-198 0 -324 129
t-126 322q0 234 144.5 392.5t361.5 158.5q289 0 413 -240q10 -24 -14 -33l-68 -32q-25 -11 -39 12q-50 83 -119 125.5t-173 42.5q-152 0 -259.5 -123t-107.5 -295q0 -151 91 -242.5t229 -91.5q88 0 152.5 37t127.5 115q26 30 51 10l52 -33q24 -19 4 -51z" />
    <glyph glyph-name="Cdotaccent" unicode="&#x10a;" horiz-adv-x="1501" 
d="M952 1581q-49 0 -81 36t-27 87q5 50 42.5 84.5t86.5 34.5q51 0 83 -34.5t27 -84.5q-4 -51 -42.5 -87t-88.5 -36zM272 645q0 -236 145.5 -389.5t373.5 -153.5q178 0 311 90t219 248q14 22 23 25q7 3 16 2l80 -23q30 -8 16 -36q-94 -203 -273.5 -319t-404.5 -116
q-190 0 -339 86.5t-231.5 238.5t-82.5 343q0 171 63 324t168 260.5t246.5 170t294.5 62.5q232 0 400 -125t225 -336q5 -11 -1 -21t-22 -11l-80 -9q-24 -3 -33 19q-55 168 -181 261t-312 93q-168 0 -311 -91t-226.5 -249t-83.5 -344z" />
    <glyph glyph-name="cdotaccent" unicode="&#x10b;" horiz-adv-x="1026" 
d="M643 1094q-49 0 -81 36t-27 87q4 49 41.5 83.5t87.5 34.5q51 0 83 -34t27 -84q-4 -51 -42.5 -87t-88.5 -36zM922 176q-61 -98 -164 -150.5t-232 -52.5q-198 0 -324 129t-126 322q0 234 144.5 392.5t361.5 158.5q289 0 413 -240q10 -24 -14 -33l-68 -32q-25 -11 -39 12
q-50 83 -119 125.5t-173 42.5q-152 0 -259.5 -123t-107.5 -295q0 -151 91 -242.5t229 -91.5q88 0 152.5 37t127.5 115q26 30 51 10l52 -33q24 -19 4 -51z" />
    <glyph glyph-name="Ccaron" unicode="&#x10c;" horiz-adv-x="1501" 
d="M985 1559h-80q-31 0 -43 30l-135 275q-6 13 2 23.5t21 10.5h61q27 0 41 -22l106 -197l179 197q22 22 47 22h78q14 0 18.5 -10t-6.5 -24l-232 -275q-27 -30 -57 -30zM272 645q0 -236 145.5 -389.5t373.5 -153.5q178 0 311 90t219 248q14 22 23 25q7 3 16 2l80 -23
q30 -8 16 -36q-94 -203 -273.5 -319t-404.5 -116q-190 0 -339 86.5t-231.5 238.5t-82.5 343q0 171 63 324t168 260.5t246.5 170t294.5 62.5q232 0 400 -125t225 -336q5 -11 -1 -21t-22 -11l-80 -9q-24 -3 -33 19q-55 168 -181 261t-312 93q-168 0 -311 -91t-226.5 -249
t-83.5 -344z" />
    <glyph glyph-name="ccaron" unicode="&#x10d;" horiz-adv-x="1026" 
d="M676 1071h-80q-31 0 -43 31l-135 274q-6 13 1.5 24t20.5 11h62q27 0 41 -22l106 -197l178 197q22 22 47 22h78q14 0 19 -10.5t-6 -24.5l-232 -274q-28 -31 -57 -31zM922 176q-61 -98 -164 -150.5t-232 -52.5q-198 0 -324 129t-126 322q0 234 144.5 392.5t361.5 158.5
q289 0 413 -240q10 -24 -14 -33l-68 -32q-25 -11 -39 12q-50 83 -119 125.5t-173 42.5q-152 0 -259.5 -123t-107.5 -295q0 -151 91 -242.5t229 -91.5q88 0 152.5 37t127.5 115q26 30 51 10l52 -33q24 -19 4 -51z" />
    <glyph glyph-name="Dcaron" unicode="&#x10e;" horiz-adv-x="1486" 
d="M944 1561h-80q-31 0 -43 30l-135 275q-6 13 2 24t21 11h61q27 0 41 -23l107 -197l178 197q23 23 47 23h78q14 0 18.5 -10.5t-6.5 -24.5l-232 -275q-27 -30 -57 -30zM383 1434h383q325 0 504.5 -166.5t179.5 -448.5q0 -179 -59 -330.5t-167 -259.5t-265.5 -168.5
t-348.5 -60.5h-479q-14 0 -23.5 11t-5.5 24l242 1364q12 35 39 35zM264 135h359q197 0 350 81.5t240 236.5t87 360q0 231 -143.5 358t-388.5 127h-297z" />
    <glyph glyph-name="dcaron" unicode="&#x10f;" horiz-adv-x="1193" 
d="M1266 1034l120 162q-40 11 -66 46t-22 77q6 54 44 86.5t92 32.5q55 0 92 -40.5t33 -99.5q-4 -69 -73 -154t-136 -140q-11 -9 -17.5 -13t-15.5 -8t-17 -3.5t-16 5.5l-12 6q-28 21 -6 43zM524 98q155 0 266 124.5t111 299.5q0 139 -87 233.5t-226 94.5q-155 0 -263 -124.5
t-108 -299.5q0 -136 82.5 -232t224.5 -96zM819 35l23 127q-57 -84 -147.5 -136.5t-198.5 -52.5q-184 0 -302 127.5t-118 319.5q0 120 41.5 224.5t110.5 176.5t160.5 113t189.5 41q127 0 225 -64.5t139 -175.5l117 664q6 35 37 35h75q14 0 23.5 -9t5.5 -26l-244 -1364
q-6 -35 -38 -35h-72q-14 0 -22.5 11t-4.5 24z" />
    <glyph glyph-name="Dcroat" unicode="&#x110;" horiz-adv-x="1501" 
d="M625 0h-480q-14 0 -23 11t-5 24l112 631h-151q-15 0 -24 8.5t-5 25.5l10 54q6 34 41 34h150l108 611q12 35 39 35h383q325 0 504.5 -166.5t179.5 -448.5q0 -179 -59 -330.5t-166.5 -259.5t-265 -168.5t-348.5 -60.5zM279 135h358q300 0 489 184.5t189 493.5
q0 231 -143.5 358t-389.5 127h-297l-90 -510h434q13 0 22 -10.5t5 -23.5l-8 -54q-11 -34 -43 -34h-432z" />
    <glyph glyph-name="dslash" unicode="&#x111;" 
d="M524 98q155 0 266 124.5t111 299.5q0 139 -87 233.5t-226 94.5q-155 0 -263 -124.5t-108 -299.5q0 -136 82.5 -232t224.5 -96zM819 35l23 127q-57 -84 -147.5 -136.5t-198.5 -52.5q-184 0 -302 127.5t-118 319.5q0 120 41.5 224.5t110.5 176.5t160.5 113t189.5 41
q127 0 225 -64.5t139 -175.5l68 383h-279q-15 0 -24 9.5t-5 25.5l7 37q8 35 41 35h278l31 174q6 35 37 35h75q14 0 23.5 -9t5.5 -26l-31 -174h125q35 0 29 -35l-6 -39q-9 -33 -41 -33h-125l-195 -1083q-6 -35 -38 -35h-72q-14 0 -22.5 11t-4.5 24z" />
    <glyph glyph-name="Emacron" unicode="&#x112;" horiz-adv-x="1241" 
d="M1096 1606h-465q-13 0 -22 10.5t-5 23.5l6 50q5 14 17.5 24t25.5 10h465q14 0 23.5 -10.5t5.5 -23.5l-8 -50q-5 -14 -17.5 -24t-25.5 -10zM383 1434h934q13 0 21.5 -9.5t4.5 -25.5l-12 -66q-6 -35 -41 -35h-819l-90 -505h422q15 0 23.5 -9.5t4.5 -25.5l-12 -64
q-6 -35 -39 -35h-422l-94 -524h830q32 0 26 -35l-12 -65q-6 -35 -43 -35h-934q-14 0 -23.5 11t-5.5 24l242 1364q1 13 13 24t26 11z" />
    <glyph glyph-name="emacron" unicode="&#x113;" horiz-adv-x="1087" 
d="M860 1122h-465q-13 0 -21.5 11t-4.5 24l6 49q5 14 17.5 24.5t25.5 10.5h465q14 0 23 -11t5 -24l-8 -49q-5 -14 -17.5 -24.5t-25.5 -10.5zM528 -27q-201 0 -327.5 129t-126.5 326q0 112 40 213t109.5 174.5t167.5 116.5t209 43q185 0 313 -123.5t121 -310.5l-2 -58
q0 -47 -47 -47h-770v-12q0 -141 88 -233.5t229 -92.5q171 0 302 131q15 15 23 18t28 -5l59 -37q12 -7 14 -20t-6 -23q-160 -189 -424 -189zM592 858q-135 0 -234 -88t-129 -229h670q4 146 -80 231.5t-227 85.5z" />
    <glyph glyph-name="Ebreve" unicode="&#x114;" horiz-adv-x="1241" 
d="M754 1802l-4 -18q-12 -58 22 -88.5t100 -30.5q68 0 106 29t50 90l4 18q3 17 21 17h80q23 0 20 -21l-4 -29q-13 -102 -89 -160.5t-194 -58.5q-117 0 -184.5 63.5t-50.5 160.5l4 24q3 21 22 21h84q6 0 10.5 -6t2.5 -11zM383 1434h934q13 0 21.5 -9.5t4.5 -25.5l-12 -66
q-6 -35 -41 -35h-819l-90 -505h422q15 0 23.5 -9.5t4.5 -25.5l-12 -64q-6 -35 -39 -35h-422l-94 -524h830q32 0 26 -35l-12 -65q-6 -35 -43 -35h-934q-14 0 -23.5 11t-5.5 24l242 1364q1 13 13 24t26 11z" />
    <glyph glyph-name="ebreve" unicode="&#x115;" horiz-adv-x="1087" 
d="M518 1319l-4 -19q-12 -58 22.5 -88t100.5 -30q69 0 106.5 29t49.5 89l4 19q3 16 20 16h80q24 0 21 -20l-5 -29q-13 -102 -89 -160.5t-193 -58.5t-185 63t-51 160l4 25q3 20 23 20h84q6 0 10 -5.5t2 -10.5zM528 -27q-201 0 -327.5 129t-126.5 326q0 112 40 213
t109.5 174.5t167.5 116.5t209 43q185 0 313 -123.5t121 -310.5l-2 -58q0 -47 -47 -47h-770v-12q0 -141 88 -233.5t229 -92.5q171 0 302 131q15 15 23 18t28 -5l59 -37q12 -7 14 -20t-6 -23q-160 -189 -424 -189zM592 858q-135 0 -234 -88t-129 -229h670q4 146 -80 231.5
t-227 85.5z" />
    <glyph glyph-name="Edotaccent" unicode="&#x116;" horiz-adv-x="1241" 
d="M860 1583q-49 0 -81 36t-27 87q5 50 42.5 84.5t86.5 34.5q51 0 83 -34.5t27 -84.5q-4 -51 -42.5 -87t-88.5 -36zM383 1434h934q13 0 21.5 -9.5t4.5 -25.5l-12 -66q-6 -35 -41 -35h-819l-90 -505h422q15 0 23.5 -9.5t4.5 -25.5l-12 -64q-6 -35 -39 -35h-422l-94 -524h830
q32 0 26 -35l-12 -65q-6 -35 -43 -35h-934q-14 0 -23.5 11t-5.5 24l242 1364q1 13 13 24t26 11z" />
    <glyph glyph-name="edotaccent" unicode="&#x117;" horiz-adv-x="1087" 
d="M625 1100q-50 0 -81.5 36t-27.5 87q4 49 41.5 83.5t87.5 34.5q51 0 83 -34.5t28 -83.5q-4 -51 -42.5 -87t-88.5 -36zM528 -27q-201 0 -327.5 129t-126.5 326q0 112 40 213t109.5 174.5t167.5 116.5t209 43q185 0 313 -123.5t121 -310.5l-2 -58q0 -47 -47 -47h-770v-12
q0 -141 88 -233.5t229 -92.5q171 0 302 131q15 15 23 18t28 -5l59 -37q12 -7 14 -20t-6 -23q-160 -189 -424 -189zM592 858q-135 0 -234 -88t-129 -229h670q4 146 -80 231.5t-227 85.5z" />
    <glyph glyph-name="Eogonek" unicode="&#x118;" horiz-adv-x="1241" 
d="M948 -313l-6 -37q-4 -21 -48 -33t-85 -12q-68 0 -106.5 33.5t-38.5 89.5q0 68 56 141t134 131h-723q-14 0 -23.5 11t-5.5 24l242 1364q1 13 13 24t26 11h934q13 0 21.5 -9.5t4.5 -25.5l-12 -66q-6 -35 -41 -35h-819l-90 -505h422q15 0 23.5 -9.5t4.5 -25.5l-12 -64
q-6 -35 -39 -35h-422l-94 -524h830q32 0 26 -35l-12 -65q-6 -35 -43 -35h-117q-68 -64 -112.5 -129.5t-44.5 -108.5q0 -61 71 -61q23 0 46 5t24 5q19 0 16 -24z" />
    <glyph glyph-name="eogonek" unicode="&#x119;" horiz-adv-x="1087" 
d="M621 -352q-68 0 -107 33.5t-39 89.5q0 98 113 204q-18 -2 -60 -2q-201 0 -327.5 129t-126.5 326q0 112 40 213t109.5 174.5t167.5 116.5t209 43q185 0 313 -123.5t121 -310.5l-2 -58q0 -47 -47 -47h-770v-12q0 -141 88 -233.5t229 -92.5q171 0 302 131q15 15 23 18t28 -5
l59 -37q12 -7 14 -20t-6 -23q-91 -109 -231 -158q-119 -126 -119 -199q0 -61 72 -61q23 0 45.5 5t23.5 5q20 0 17 -24l-6 -37q-4 -21 -48 -33t-85 -12zM592 858q-135 0 -234 -88t-129 -229h670q4 146 -80 231.5t-227 85.5z" />
    <glyph glyph-name="Ecaron" unicode="&#x11a;" horiz-adv-x="1241" 
d="M893 1561h-80q-31 0 -43 30l-135 275q-6 13 1.5 24t20.5 11h62q27 0 41 -23l106 -197l178 197q23 23 48 23h77q14 0 19 -10.5t-6 -24.5l-232 -275q-27 -30 -57 -30zM383 1434h934q13 0 21.5 -9.5t4.5 -25.5l-12 -66q-6 -35 -41 -35h-819l-90 -505h422q15 0 23.5 -9.5
t4.5 -25.5l-12 -64q-6 -35 -39 -35h-422l-94 -524h830q32 0 26 -35l-12 -65q-6 -35 -43 -35h-934q-14 0 -23.5 11t-5.5 24l242 1364q1 13 13 24t26 11z" />
    <glyph glyph-name="ecaron" unicode="&#x11b;" horiz-adv-x="1087" 
d="M657 1077h-79q-31 0 -43 31l-136 274q-6 13 2 24t21 11h61q27 0 41 -22l107 -197l178 197q22 22 47 22h78q14 0 18.5 -10.5t-6.5 -24.5l-231 -274q-28 -31 -58 -31zM528 -27q-201 0 -327.5 129t-126.5 326q0 112 40 213t109.5 174.5t167.5 116.5t209 43q185 0 313 -123.5
t121 -310.5l-2 -58q0 -47 -47 -47h-770v-12q0 -141 88 -233.5t229 -92.5q171 0 302 131q15 15 23 18t28 -5l59 -37q12 -7 14 -20t-6 -23q-160 -189 -424 -189zM592 858q-135 0 -234 -88t-129 -229h670q4 146 -80 231.5t-227 85.5z" />
    <glyph glyph-name="Gcircumflex" unicode="&#x11c;" horiz-adv-x="1566" 
d="M995 1901h78q29 0 45 -31l133 -273q7 -13 -0.5 -24.5t-21.5 -11.5h-62q-27 0 -39 24l-108 195l-178 -195q-14 -14 -22.5 -19t-24.5 -5h-78q-14 0 -18.5 11.5t6.5 24.5l231 273q28 31 59 31zM1257 37l46 250q-25 -43 -58 -83.5t-84.5 -83.5t-111 -74.5t-139.5 -52
t-167 -20.5q-178 0 -319 83t-220 231t-79 334q0 234 103.5 426.5t285.5 302.5t404 110q229 0 404 -119.5t228 -324.5q11 -26 -26 -35l-74 -14q-28 -6 -37 24q-55 162 -183.5 250t-318.5 88q-135 0 -254 -56.5t-202.5 -151t-132 -222.5t-48.5 -268q0 -232 138.5 -380.5
t363.5 -148.5q106 0 201 35t165.5 94.5t121.5 134.5t79 160h-479q-14 0 -21 11t-3 24l8 55q6 31 37 31h577q37 0 31 -35l-100 -577q-5 -19 -13 -27t-30 -8h-60q-39 0 -33 37z" />
    <glyph glyph-name="gcircumflex" unicode="&#x11d;" horiz-adv-x="1157" 
d="M664 1417h77q29 0 45 -31l134 -272q7 -13 -1 -25t-22 -12h-61q-26 0 -39 25l-109 194l-178 -194q-10 -10 -14.5 -14t-13 -7.5t-19.5 -3.5h-78q-14 0 -18.5 11.5t6.5 25.5l231 272q28 31 60 31zM520 121q155 0 261 115.5t106 289.5q0 138 -85.5 232t-223.5 94
q-155 0 -257 -119t-102 -287q0 -137 80 -231t221 -94zM410 -467q-150 0 -270 67.5t-165 149.5q-18 29 21 53l43 25q34 18 55 -12q130 -162 328 -162q155 0 249.5 86.5t121.5 232.5l34 191q-51 -78 -140.5 -121t-199.5 -43q-184 0 -296.5 124.5t-112.5 317.5
q0 228 140.5 380.5t344.5 152.5q127 0 225.5 -65t139.5 -175l33 180q6 35 38 35h72q15 0 24 -9.5t5 -25.5l-170 -942q-34 -205 -164.5 -322.5t-355.5 -117.5z" />
    <glyph glyph-name="Gbreve" unicode="&#x11e;" horiz-adv-x="1566" 
d="M874 1802l-4 -18q-12 -58 22.5 -88.5t100.5 -30.5q68 0 106 29t50 90l4 18q3 17 21 17h79q24 0 21 -21l-4 -29q-13 -102 -89 -160.5t-194 -58.5q-117 0 -184.5 63.5t-50.5 160.5l4 24q3 21 22 21h84q6 0 10 -6t2 -11zM1257 37l46 250q-25 -43 -58 -83.5t-84.5 -83.5
t-111 -74.5t-139.5 -52t-167 -20.5q-178 0 -319 83t-220 231t-79 334q0 234 103.5 426.5t285.5 302.5t404 110q229 0 404 -119.5t228 -324.5q11 -26 -26 -35l-74 -14q-28 -6 -37 24q-55 162 -183.5 250t-318.5 88q-135 0 -254 -56.5t-202.5 -151t-132 -222.5t-48.5 -268
q0 -232 138.5 -380.5t363.5 -148.5q106 0 201 35t165.5 94.5t121.5 134.5t79 160h-479q-14 0 -21 11t-3 24l8 55q6 31 37 31h577q37 0 31 -35l-100 -577q-5 -19 -13 -27t-30 -8h-60q-39 0 -33 37z" />
    <glyph glyph-name="gbreve" unicode="&#x11f;" horiz-adv-x="1157" 
d="M543 1319l-4 -19q-12 -58 22.5 -88t100.5 -30q68 0 105.5 28.5t49.5 89.5l4 19q3 16 21 16h80q23 0 20 -20l-4 -29q-13 -102 -89 -160.5t-194 -58.5q-117 0 -184.5 63t-50.5 160l4 25q3 20 22 20h84q6 0 10.5 -5.5t2.5 -10.5zM520 121q155 0 261 115.5t106 289.5
q0 138 -85.5 232t-223.5 94q-155 0 -257 -119t-102 -287q0 -137 80 -231t221 -94zM410 -467q-150 0 -270 67.5t-165 149.5q-18 29 21 53l43 25q34 18 55 -12q130 -162 328 -162q155 0 249.5 86.5t121.5 232.5l34 191q-51 -78 -140.5 -121t-199.5 -43q-184 0 -296.5 124.5
t-112.5 317.5q0 228 140.5 380.5t344.5 152.5q127 0 225.5 -65t139.5 -175l33 180q6 35 38 35h72q15 0 24 -9.5t5 -25.5l-170 -942q-34 -205 -164.5 -322.5t-355.5 -117.5z" />
    <glyph glyph-name="Gdotaccent" unicode="&#x120;" horiz-adv-x="1566" 
d="M981 1583q-50 0 -81.5 36t-27.5 87q5 50 42.5 84.5t86.5 34.5q51 0 83.5 -34.5t27.5 -84.5q-4 -51 -42.5 -87t-88.5 -36zM1257 37l46 250q-25 -43 -58 -83.5t-84.5 -83.5t-111 -74.5t-139.5 -52t-167 -20.5q-178 0 -319 83t-220 231t-79 334q0 234 103.5 426.5
t285.5 302.5t404 110q229 0 404 -119.5t228 -324.5q11 -26 -26 -35l-74 -14q-28 -6 -37 24q-55 162 -183.5 250t-318.5 88q-135 0 -254 -56.5t-202.5 -151t-132 -222.5t-48.5 -268q0 -232 138.5 -380.5t363.5 -148.5q106 0 201 35t165.5 94.5t121.5 134.5t79 160h-479
q-14 0 -21 11t-3 24l8 55q6 31 37 31h577q37 0 31 -35l-100 -577q-5 -19 -13 -27t-30 -8h-60q-39 0 -33 37z" />
    <glyph glyph-name="gdotaccent" unicode="&#x121;" horiz-adv-x="1157" 
d="M649 1100q-49 0 -81 36t-27 87q4 49 41.5 83.5t87.5 34.5q51 0 83 -34t27 -84q-4 -51 -42.5 -87t-88.5 -36zM520 121q155 0 261 115.5t106 289.5q0 138 -85.5 232t-223.5 94q-155 0 -257 -119t-102 -287q0 -137 80 -231t221 -94zM410 -467q-150 0 -270 67.5t-165 149.5
q-18 29 21 53l43 25q34 18 55 -12q130 -162 328 -162q155 0 249.5 86.5t121.5 232.5l34 191q-51 -78 -140.5 -121t-199.5 -43q-184 0 -296.5 124.5t-112.5 317.5q0 228 140.5 380.5t344.5 152.5q127 0 225.5 -65t139.5 -175l33 180q6 35 38 35h72q15 0 24 -9.5t5 -25.5
l-170 -942q-34 -205 -164.5 -322.5t-355.5 -117.5z" />
    <glyph glyph-name="Gcommaaccent" unicode="&#x122;" horiz-adv-x="1566" 
d="M1257 37l46 250q-25 -43 -58 -83.5t-84.5 -83.5t-111 -74.5t-139.5 -52t-167 -20.5q-178 0 -319 83t-220 231t-79 334q0 234 103.5 426.5t285.5 302.5t404 110q229 0 404 -119.5t228 -324.5q11 -26 -26 -35l-74 -14q-28 -6 -37 24q-55 162 -183.5 250t-318.5 88
q-135 0 -254 -56.5t-202.5 -151t-132 -222.5t-48.5 -268q0 -232 138.5 -380.5t363.5 -148.5q106 0 201 35t165.5 94.5t121.5 134.5t79 160h-479q-14 0 -21 11t-3 24l8 55q6 31 37 31h577q37 0 31 -35l-100 -577q-5 -19 -13 -27t-30 -8h-60q-39 0 -33 37zM530 -459l115 148
q-38 11 -62 42t-20 68q4 50 39.5 81.5t85.5 31.5q51 0 85 -37.5t30 -93.5q-3 -47 -41 -105t-76 -95t-76 -68q-34 -31 -61 -19l-10 8q-26 15 -9 39z" />
    <glyph glyph-name="gcommaaccent" unicode="&#x123;" horiz-adv-x="1157" 
d="M819 1507l-129 -164q42 -11 68 -46.5t22 -77.5q-4 -55 -42.5 -90t-94.5 -35q-55 0 -94 42.5t-35 102.5q7 77 74.5 158.5t142.5 142.5q39 39 68 21l12 -9q30 -17 8 -45zM520 121q155 0 261 115.5t106 289.5q0 138 -85.5 232t-223.5 94q-155 0 -257 -119t-102 -287
q0 -137 80 -231t221 -94zM410 -467q-150 0 -270 67.5t-165 149.5q-18 29 21 53l43 25q34 18 55 -12q130 -162 328 -162q155 0 249.5 86.5t121.5 232.5l34 191q-51 -78 -140.5 -121t-199.5 -43q-184 0 -296.5 124.5t-112.5 317.5q0 228 140.5 380.5t344.5 152.5
q127 0 225.5 -65t139.5 -175l33 180q6 35 38 35h72q15 0 24 -9.5t5 -25.5l-170 -942q-34 -205 -164.5 -322.5t-355.5 -117.5z" />
    <glyph glyph-name="Hcircumflex" unicode="&#x124;" horiz-adv-x="1531" 
d="M977 1901h78q29 0 45 -31l133 -273q7 -13 -1 -24.5t-22 -11.5h-61q-27 0 -39 24l-109 195l-178 -195q-14 -14 -22.5 -19t-24.5 -5h-78q-14 0 -18.5 11.5t6.5 24.5l232 273q28 31 59 31zM1518 1399l-242 -1364q-6 -35 -37 -35h-80q-14 0 -22 9.5t-4 25.5l110 624h-887
l-108 -624q-6 -35 -39 -35h-78q-15 0 -23 9.5t-4 25.5l240 1364q6 35 41 35h76q32 0 26 -35l-106 -606h887l106 606q6 35 39 35h76q15 0 24 -9.5t5 -25.5z" />
    <glyph glyph-name="hcircumflex" unicode="&#x125;" horiz-adv-x="1144" 
d="M782 1901h78q30 0 45 -31l133 -273q7 -13 -0.5 -24.5t-21.5 -11.5h-62q-27 0 -39 24l-108 195l-178 -195q-14 -14 -22.5 -19t-24.5 -5h-78q-14 0 -18.5 11.5t6.5 24.5l231 273q28 31 59 31zM281 498l-82 -465q-9 -33 -39 -33h-74q-14 0 -22.5 11t-4.5 24l242 1364
q6 35 37 35h76q32 0 26 -33l-108 -615q56 87 149 138t209 51q187 0 284.5 -116t61.5 -310l-90 -516q-9 -33 -41 -33h-74q-32 0 -26 33l88 495q29 153 -34.5 237.5t-205.5 84.5t-242 -97.5t-130 -254.5z" />
    <glyph glyph-name="Hbar" unicode="&#x126;" horiz-adv-x="1536" 
d="M385 793h887l45 256h-887zM360 659l-108 -624q-6 -35 -39 -35h-78q-14 0 -22 9.5t-4 25.5l178 1014h-121q-12 0 -21 10.5t-8 23.5l8 50q5 14 17.5 24t25.5 10h119l41 232q6 35 41 35h76q33 0 27 -35l-41 -232h886l41 232q6 35 39 35h76q15 0 24 -9.5t5 -25.5l-41 -232h96
q14 0 23.5 -10.5t5.5 -23.5l-9 -50q-5 -14 -16.5 -24t-24.5 -10h-96l-180 -1014q-6 -35 -37 -35h-80q-14 0 -22 9.5t-4 25.5l110 624h-887z" />
    <glyph glyph-name="hbar" unicode="&#x127;" horiz-adv-x="1144" 
d="M281 498l-82 -465q-9 -33 -39 -33h-74q-14 0 -22.5 11t-4.5 24l193 1083h-119q-15 0 -24 9.5t-5 25.5l7 37q8 35 41 35h118l31 174q6 35 37 35h76q32 0 26 -33l-30 -176h286q35 0 29 -35l-6 -39q-9 -33 -41 -33h-287l-59 -332q56 87 149 138t209 51q187 0 284.5 -116
t61.5 -310l-90 -516q-9 -33 -41 -33h-74q-32 0 -26 33l88 495q29 153 -34.5 237.5t-205.5 84.5t-242 -97.5t-130 -254.5z" />
    <glyph glyph-name="Itilde" unicode="&#x128;" horiz-adv-x="501" 
d="M315 1792q43 0 152 -36t129 -36q30 0 47 11t43 43q10 13 24 13t25 -11l25 -21q22 -16 6 -47q-50 -115 -172 -115q-43 0 -152 36t-129 36q-30 0 -47 -10.5t-43 -42.5q-10 -13 -24 -13t-25 11l-24 20q-22 16 -7 47q50 115 172 115zM209 0h-80q-15 0 -23 9.5t-4 25.5
l242 1364q6 35 39 35h76q15 0 23.5 -9.5t4.5 -25.5l-241 -1364q-6 -35 -37 -35z" />
    <glyph glyph-name="itilde" unicode="&#x129;" horiz-adv-x="411" 
d="M186 1309q43 0 152 -36t129 -36q30 0 47 10.5t43 42.5q10 13 24 13t25 -11l25 -20q22 -16 6 -47q-50 -115 -172 -115q-43 0 -152 36t-129 36q-30 0 -47 -11t-43 -43q-10 -13 -24 -13t-25 11l-25 21q-22 16 -6 47q50 115 172 115zM160 0h-72q-15 0 -24 9.5t-5 25.5
l156 880q9 35 41 35h72q14 0 23 -9.5t5 -25.5l-157 -880q-6 -35 -39 -35z" />
    <glyph glyph-name="Imacron" unicode="&#x12a;" horiz-adv-x="501" 
d="M680 1606h-465q-13 0 -22 10.5t-5 23.5l7 50q5 14 17.5 24t25.5 10h464q14 0 23.5 -10.5t5.5 -23.5l-8 -50q-5 -14 -17.5 -24t-25.5 -10zM209 0h-80q-15 0 -23 9.5t-4 25.5l242 1364q6 35 39 35h76q15 0 23.5 -9.5t4.5 -25.5l-241 -1364q-6 -35 -37 -35z" />
    <glyph glyph-name="imacron" unicode="&#x12b;" horiz-adv-x="411" 
d="M551 1122h-465q-13 0 -22 11t-5 24l7 49q5 14 17.5 24.5t25.5 10.5h464q14 0 23.5 -11t5.5 -24l-8 -49q-5 -14 -17.5 -24.5t-25.5 -10.5zM160 0h-72q-15 0 -24 9.5t-5 25.5l156 880q9 35 41 35h72q14 0 23 -9.5t5 -25.5l-157 -880q-6 -35 -39 -35z" />
    <glyph glyph-name="Ibreve" unicode="&#x12c;" horiz-adv-x="501" 
d="M338 1802l-4 -18q-12 -58 22.5 -88.5t100.5 -30.5q68 0 105.5 29t49.5 90l4 18q3 17 21 17h80q23 0 20 -21l-4 -29q-13 -102 -89 -160.5t-193 -58.5t-185 63.5t-51 160.5l4 24q3 21 23 21h84q6 0 10 -6t2 -11zM209 0h-80q-15 0 -23 9.5t-4 25.5l242 1364q6 35 39 35h76
q15 0 23.5 -9.5t4.5 -25.5l-241 -1364q-6 -35 -37 -35z" />
    <glyph glyph-name="ibreve" unicode="&#x12d;" horiz-adv-x="411" 
d="M209 1319l-4 -19q-12 -58 22.5 -88t100.5 -30q68 0 105.5 28.5t49.5 89.5l4 19q3 16 21 16h80q23 0 20 -20l-4 -29q-13 -102 -89 -160.5t-193 -58.5t-185 63t-51 160l4 25q3 20 23 20h84q6 0 10 -5.5t2 -10.5zM160 0h-72q-15 0 -24 9.5t-5 25.5l156 880q9 35 41 35h72
q14 0 23 -9.5t5 -25.5l-157 -880q-6 -35 -39 -35z" />
    <glyph glyph-name="Iogonek" unicode="&#x12e;" horiz-adv-x="501" 
d="M72 -395q-68 0 -107 33.5t-39 89.5q0 70 56 141.5t137 132.5q-23 10 -17 33l242 1364q6 35 39 35h76q15 0 23.5 -9.5t4.5 -25.5l-241 -1364q-6 -35 -35 -35q-69 -64 -113.5 -129.5t-44.5 -108.5q0 -61 72 -61q23 0 46 5t24 5q19 0 16 -24l-6 -37q-4 -21 -48 -33t-85 -12z
" />
    <glyph glyph-name="iogonek" unicode="&#x12f;" horiz-adv-x="411" 
d="M340 1163q-47 0 -78 35t-26 82q4 47 41 82t81 35q47 0 79 -35t28 -82q-6 -48 -42 -82.5t-83 -34.5zM154 -313l-7 -37q-4 -21 -48 -33t-85 -12q-68 0 -106.5 33.5t-38.5 89.5q0 71 59.5 145t141.5 133q-14 9 -11 29l156 880q9 35 41 35h72q14 0 23 -9.5t5 -25.5l-157 -880
q-6 -35 -39 -35h-6q-69 -64 -113.5 -129.5t-44.5 -108.5q0 -61 72 -61q23 0 45.5 5t23.5 5q20 0 17 -24z" />
    <glyph glyph-name="Idot" unicode="&#x130;" horiz-adv-x="501" 
d="M444 1583q-49 0 -81 36t-27 87q5 50 42.5 84.5t86.5 34.5q51 0 83 -34.5t27 -84.5q-4 -51 -42.5 -87t-88.5 -36zM209 0h-80q-15 0 -23 9.5t-4 25.5l242 1364q6 35 39 35h76q15 0 23.5 -9.5t4.5 -25.5l-241 -1364q-6 -35 -37 -35z" />
    <glyph glyph-name="dotlessi" unicode="&#x131;" horiz-adv-x="411" 
d="M160 0h-72q-15 0 -24 9.5t-5 25.5l156 880q9 35 41 35h72q14 0 23 -9.5t5 -25.5l-157 -880q-6 -35 -39 -35z" />
    <glyph glyph-name="IJ" unicode="&#x132;" horiz-adv-x="1726" 
d="M209 0h-80q-15 0 -23 9.5t-4 25.5l242 1364q6 35 39 35h76q15 0 23.5 -9.5t4.5 -25.5l-241 -1364q-6 -35 -37 -35zM1726 1399l-165 -938q-38 -228 -169.5 -358t-359.5 -130q-151 0 -262 66t-159.5 179.5t-24.5 250.5l10 55q1 13 13 24t26 11h72q13 0 21.5 -10.5
t6.5 -24.5l-12 -65q-25 -156 63 -256.5t254 -100.5q158 0 252 99.5t125 269.5l164 928q5 14 16.5 24.5t24.5 10.5h74q13 0 22.5 -10.5t7.5 -24.5z" />
    <glyph glyph-name="ij" unicode="&#x133;" horiz-adv-x="823" 
d="M752 1163q-47 0 -78.5 35t-26.5 82q4 47 41.5 82t81.5 35q47 0 79 -35t28 -82q-6 -48 -42 -82.5t-83 -34.5zM340 1163q-47 0 -78 35t-26 82q4 47 41 82t81 35q47 0 79 -35t28 -82q-6 -48 -42 -82.5t-83 -34.5zM160 0h-72q-15 0 -24 9.5t-5 25.5l156 880q9 35 41 35h72
q14 0 23 -9.5t5 -25.5l-157 -880q-6 -35 -39 -35zM436 -162l191 1077q9 35 41 35h71q14 0 23.5 -9.5t5.5 -25.5l-195 -1085q-28 -154 -107 -224.5t-206 -70.5q-53 0 -112 18t-93 48q-22 22 -2 47l33 43q21 29 53 10q66 -39 125 -39q72 0 115 46t57 130z" />
    <glyph glyph-name="Jcircumflex" unicode="&#x134;" horiz-adv-x="1185" 
d="M1163 1901h78q29 0 45 -31l133 -273q7 -13 -0.5 -24.5t-21.5 -11.5h-62q-27 0 -39 24l-108 195l-178 -195q-14 -14 -22.5 -19t-24.5 -5h-78q-14 0 -19 11.5t6 24.5l232 273q28 31 59 31zM1188 1399l-166 -938q-39 -229 -170 -358.5t-358 -129.5q-151 0 -262 66
t-160 179.5t-25 250.5l10 55q1 13 13 24t26 11h72q13 0 22 -10.5t7 -24.5l-13 -65q-25 -156 63.5 -256.5t254.5 -100.5q158 0 252 99.5t125 269.5l163 928q5 14 16.5 24.5t24.5 10.5h74q13 0 23 -10.5t8 -24.5z" />
    <glyph glyph-name="jcircumflex" unicode="&#x135;" horiz-adv-x="411" 
d="M328 1417h78q30 0 45 -31l133 -272q7 -13 -1 -25t-22 -12h-61q-26 0 -39 25l-109 194l-178 -194q-10 -10 -14.5 -14t-13 -7.5t-19.5 -3.5h-78q-14 0 -18.5 11.5t6.5 25.5l231 272q28 31 60 31zM25 -162l190 1077q9 35 41 35h72q14 0 23 -9.5t5 -25.5l-194 -1085
q-28 -154 -107.5 -224.5t-206.5 -70.5q-53 0 -111.5 18t-92.5 48q-22 22 -2 47l32 43q21 30 54 10q66 -39 125 -39q72 0 115 46t57 130z" />
    <glyph glyph-name="Kcommaaccent" unicode="&#x136;" horiz-adv-x="1275" 
d="M360 682l-112 -647q-6 -35 -37 -35h-80q-17 0 -24.5 10.5t-2.5 24.5l240 1364q6 35 37 35h80q14 0 22 -9.5t4 -25.5l-104 -590h205l649 598q27 27 57 27h119q14 0 17 -10t-7 -21l-716 -655l479 -717q7 -11 1 -21t-22 -10h-98q-29 0 -47 27l-432 655h-228zM379 -459
l115 148q-38 11 -62 42t-20 68q4 50 39.5 81.5t85.5 31.5q51 0 84.5 -37.5t29.5 -93.5q-4 -67 -65.5 -141.5t-126.5 -126.5q-35 -31 -62 -19l-10 8q-26 14 -8 39z" />
    <glyph glyph-name="kcommaaccent" unicode="&#x137;" horiz-adv-x="966" 
d="M276 471l-77 -436q-6 -35 -39 -35h-72q-35 0 -29 35l242 1364q6 35 39 35h72q17 0 25 -10.5t3 -24.5l-143 -807h145l365 338q17 20 41 20h115q14 0 17 -11t-7 -21l-432 -394l354 -489q11 -12 5 -23.5t-23 -11.5h-89q-21 0 -31 6t-22 21l-313 444h-146zM190 -459l115 148
q-38 11 -62 42t-20 68q4 50 39.5 81.5t85.5 31.5q51 0 85 -37.5t30 -93.5q-3 -47 -41 -105t-76 -95t-76 -68q-34 -31 -61 -19l-10 8q-26 15 -9 39z" />
    <glyph glyph-name="kgreenlandic" unicode="&#x138;" horiz-adv-x="966" 
d="M268 428l-69 -393q-1 -13 -13 -24t-26 -11h-72q-14 0 -23.5 11t-5.5 24l156 880q1 13 14 24t27 11h72q13 0 21.5 -10.5t6.5 -24.5l-65 -366h137l377 381q20 20 41 20h117q14 0 17 -11t-7 -21l-434 -429l356 -454q11 -12 5 -23.5t-23 -11.5h-95q-21 0 -31.5 6t-23.5 21
l-307 401h-152z" />
    <glyph glyph-name="Lacute" unicode="&#x139;" horiz-adv-x="1089" 
d="M598 1901h102q17 0 24 -13.5t-1 -25.5l-211 -277q-9 -10 -12.5 -13.5t-11.5 -7t-19 -3.5h-51q-18 0 -26 9.5t-1 26.5l164 273q7 12 10.5 16t12 9.5t20.5 5.5zM1016 100l-12 -65q-6 -35 -43 -35h-830q-14 0 -23.5 11t-5.5 24l242 1364q1 13 13 24t26 11h76q14 0 23 -11
t5 -24l-223 -1264h725q33 0 27 -35z" />
    <glyph glyph-name="lacute" unicode="&#x13a;" horiz-adv-x="477" 
d="M551 1901h102q17 0 24 -13.5t-1 -25.5l-211 -277q-9 -10 -12.5 -13.5t-11.5 -7t-19 -3.5h-51q-18 0 -26 9.5t-1 26.5l164 273q7 12 10.5 16t12 9.5t20.5 5.5zM354 0h-84q-95 0 -146 57t-32 172l207 1170q6 35 37 35h76q14 0 22 -9.5t4 -25.5l-209 -1178q-10 -51 14 -75.5
t72 -24.5h66q30 0 27 -33l-11 -55q-6 -33 -43 -33z" />
    <glyph glyph-name="Lcommaaccent" unicode="&#x13b;" horiz-adv-x="1089" 
d="M1016 100l-12 -65q-6 -35 -43 -35h-830q-14 0 -23.5 11t-5.5 24l242 1364q1 13 13 24t26 11h76q14 0 23 -11t5 -24l-223 -1264h725q33 0 27 -35zM344 -459l115 148q-38 11 -62 42t-20 68q4 50 39.5 81.5t85.5 31.5q51 0 84.5 -37.5t29.5 -93.5q-4 -67 -65.5 -141.5
t-126.5 -126.5q-35 -31 -62 -19l-10 8q-26 14 -8 39z" />
    <glyph glyph-name="lcommaaccent" unicode="&#x13c;" horiz-adv-x="477" 
d="M354 0h-84q-95 0 -146 57t-32 172l207 1170q6 35 37 35h76q14 0 22 -9.5t4 -25.5l-209 -1178q-10 -51 14 -75.5t72 -24.5h66q30 0 27 -33l-11 -55q-6 -33 -43 -33zM-8 -459l114 148q-38 11 -61.5 42t-19.5 68q4 50 39.5 81.5t85.5 31.5q51 0 84.5 -37.5t29.5 -93.5
q-4 -67 -65.5 -141.5t-126.5 -126.5q-35 -31 -62 -19l-10 8q-26 14 -8 39z" />
    <glyph glyph-name="Lcaron" unicode="&#x13d;" horiz-adv-x="1099" 
d="M836 1034l120 162q-40 11 -66 46t-22 77q6 54 44 86.5t92 32.5q55 0 91.5 -40.5t32.5 -99.5q-4 -69 -72.5 -154.5t-135.5 -139.5q-11 -9 -17.5 -13t-15.5 -8t-17 -3.5t-16 5.5l-12 6q-28 21 -6 43zM1016 100l-12 -65q-6 -35 -43 -35h-830q-14 0 -23.5 11t-5.5 24
l242 1364q1 13 13 24t26 11h76q14 0 23 -11t5 -24l-223 -1264h725q33 0 27 -35z" />
    <glyph glyph-name="lcaron" unicode="&#x13e;" horiz-adv-x="509" 
d="M561 1034l121 162q-40 11 -66 46t-22 77q6 54 43.5 86.5t91.5 32.5q55 0 92 -40.5t33 -99.5q-4 -69 -73 -154t-136 -140q-11 -9 -17 -13t-15 -8.5t-17 -3.5t-16 6l-13 6q-28 21 -6 43zM354 0h-84q-95 0 -146 57t-32 172l207 1170q6 35 37 35h76q14 0 22 -9.5t4 -25.5
l-209 -1178q-10 -51 14 -75.5t72 -24.5h66q30 0 27 -33l-11 -55q-6 -33 -43 -33z" />
    <glyph glyph-name="Ldot" unicode="&#x13f;" horiz-adv-x="1095" 
d="M1016 100l-12 -65q-6 -35 -43 -35h-830q-14 0 -23.5 11t-5.5 24l242 1364q1 13 13 24t26 11h76q14 0 23 -11t5 -24l-223 -1264h725q33 0 27 -35zM778 604q-57 0 -93.5 40t-31.5 97q4 57 48 97.5t100 40.5q57 0 93.5 -40.5t31.5 -97.5q-6 -57 -49 -97t-99 -40z" />
    <glyph glyph-name="ldot" unicode="&#x140;" horiz-adv-x="681" 
d="M354 0h-84q-95 0 -146 57t-32 172l207 1170q6 35 37 35h76q14 0 22 -9.5t4 -25.5l-209 -1178q-10 -51 14 -75.5t72 -24.5h66q30 0 27 -33l-11 -55q-6 -33 -43 -33zM547 426q-47 0 -78 34t-27 81q5 47 41.5 81.5t83.5 34.5t78 -34.5t27 -81.5q-5 -47 -41.5 -81t-83.5 -34z
" />
    <glyph glyph-name="Lslash" unicode="&#x141;" horiz-adv-x="1103" 
d="M975 0h-830q-14 0 -23 11t-5 24l94 528l-145 -45q-35 -9 -29 27l8 55q7 28 39 39l147 47l127 713q1 13 13 24t26 11h76q14 0 23.5 -11t5.5 -24l-117 -666l393 125q15 5 25 -1.5t6 -22.5l-10 -62q-3 -25 -37 -37l-400 -125l-83 -475h725q32 0 26 -35l-12 -65
q-6 -35 -43 -35z" />
    <glyph glyph-name="lslash" unicode="&#x142;" horiz-adv-x="493" 
d="M362 0h-83q-95 0 -146.5 57t-32.5 172l60 340l-68 -32q-14 -8 -23.5 -3t-5.5 21l11 61q4 17 11 24t24 15l73 35l125 709q6 35 37 35h76q14 0 22 -9.5t4 -25.5l-112 -635l133 65q14 6 23 0.5t8 -18.5l-13 -61q-6 -27 -32 -39l-140 -68l-75 -422q-10 -51 14 -75.5t72 -24.5
h65q30 0 27 -33l-10 -55q-6 -33 -44 -33z" />
    <glyph glyph-name="Nacute" unicode="&#x143;" horiz-adv-x="1470" 
d="M1083 1901h103q17 0 23.5 -13.5t-1.5 -25.5l-211 -277q-9 -10 -12.5 -13.5t-11.5 -7t-19 -3.5h-51q-18 0 -25.5 9.5t-0.5 26.5l163 273q7 12 10.5 16t12 9.5t20.5 5.5zM1051 31l-596 1183l-209 -1179q-6 -35 -37 -35h-76q-14 0 -23.5 11t-5.5 24l242 1364q2 15 11.5 25
t25.5 10h88q27 0 43 -29l592 -1180l207 1174q8 35 39 35h75q15 0 24 -9.5t5 -25.5l-242 -1364q-2 -14 -12.5 -24.5t-23.5 -10.5h-76q-39 0 -51 31z" />
    <glyph glyph-name="nacute" unicode="&#x144;" horiz-adv-x="1144" 
d="M836 1417h102q17 0 24 -13.5t-1 -25.5l-211 -276q-18 -21 -29 -24q-6 -1 -14 -1h-52q-18 0 -25.5 10t-0.5 27l164 272q7 12 10.5 16t12 9.5t20.5 5.5zM805 33l88 495q29 153 -34.5 237.5t-205.5 84.5q-144 0 -243 -97t-129 -255l-82 -465q-9 -33 -39 -33h-74
q-15 0 -23 9.5t-4 25.5l156 880q6 35 39 35h72q13 0 21.5 -10.5t6.5 -24.5l-24 -131q57 87 149.5 139t210.5 52q187 0 284.5 -116t61.5 -310l-90 -516q-9 -33 -41 -33h-74q-29 0 -26 33z" />
    <glyph glyph-name="Ncommaaccent" unicode="&#x145;" horiz-adv-x="1470" 
d="M1051 31l-596 1183l-209 -1179q-6 -35 -37 -35h-76q-14 0 -23.5 11t-5.5 24l242 1364q2 15 11.5 25t25.5 10h88q27 0 43 -29l592 -1180l207 1174q8 35 39 35h75q15 0 24 -9.5t5 -25.5l-242 -1364q-2 -14 -12.5 -24.5t-23.5 -10.5h-76q-39 0 -51 31zM463 -459l115 148
q-38 11 -62 42t-20 68q4 50 39.5 81.5t85.5 31.5q51 0 84.5 -37.5t29.5 -93.5q-4 -67 -65.5 -141.5t-126.5 -126.5q-35 -31 -62 -19l-10 8q-26 14 -8 39z" />
    <glyph glyph-name="ncommaaccent" unicode="&#x146;" horiz-adv-x="1144" 
d="M805 33l88 495q29 153 -34.5 237.5t-205.5 84.5q-144 0 -243 -97t-129 -255l-82 -465q-9 -33 -39 -33h-74q-15 0 -23 9.5t-4 25.5l156 880q6 35 39 35h72q13 0 21.5 -10.5t6.5 -24.5l-24 -131q57 87 149.5 139t210.5 52q187 0 284.5 -116t61.5 -310l-90 -516
q-9 -33 -41 -33h-74q-29 0 -26 33zM301 -459l115 148q-38 11 -62 42t-20 68q4 50 39.5 81.5t85.5 31.5q51 0 84.5 -37.5t29.5 -93.5q-4 -67 -65.5 -141.5t-126.5 -126.5q-35 -31 -62 -19l-10 8q-26 14 -8 39z" />
    <glyph glyph-name="Ncaron" unicode="&#x147;" horiz-adv-x="1470" 
d="M965 1561h-80q-31 0 -43 30l-135 275q-6 13 1.5 24t20.5 11h62q26 0 40 -23l107 -197l178 197q23 23 47 23h78q14 0 18.5 -10.5t-6.5 -24.5l-231 -275q-27 -30 -57 -30zM1051 31l-596 1183l-209 -1179q-6 -35 -37 -35h-76q-14 0 -23.5 11t-5.5 24l242 1364q2 15 11.5 25
t25.5 10h88q27 0 43 -29l592 -1180l207 1174q8 35 39 35h75q15 0 24 -9.5t5 -25.5l-242 -1364q-2 -14 -12.5 -24.5t-23.5 -10.5h-76q-39 0 -51 31z" />
    <glyph glyph-name="ncaron" unicode="&#x148;" horiz-adv-x="1144" 
d="M717 1077h-80q-31 0 -43 31l-135 274q-6 13 1.5 24t20.5 11h62q27 0 41 -22l106 -197l178 197q22 22 47 22h78q14 0 19 -10.5t-6 -24.5l-232 -274q-28 -31 -57 -31zM805 33l88 495q29 153 -34.5 237.5t-205.5 84.5q-144 0 -243 -97t-129 -255l-82 -465q-9 -33 -39 -33
h-74q-15 0 -23 9.5t-4 25.5l156 880q6 35 39 35h72q13 0 21.5 -10.5t6.5 -24.5l-24 -131q57 87 149.5 139t210.5 52q187 0 284.5 -116t61.5 -310l-90 -516q-9 -33 -41 -33h-74q-29 0 -26 33z" />
    <glyph glyph-name="napostrophe" unicode="&#x149;" horiz-adv-x="1144" 
d="M184 1110l121 162q-40 11 -66 46t-22 77q6 54 43.5 86t91.5 32q55 0 92 -40t33 -99q-4 -69 -73 -155t-136 -140q-11 -8 -17 -12.5t-15 -8.5t-17 -3t-16 6l-13 6q-28 21 -6 43zM805 33l88 495q29 153 -34.5 237.5t-205.5 84.5q-144 0 -243 -97t-129 -255l-82 -465
q-9 -33 -39 -33h-74q-15 0 -23 9.5t-4 25.5l156 880q6 35 39 35h72q13 0 21.5 -10.5t6.5 -24.5l-24 -131q57 87 149.5 139t210.5 52q187 0 284.5 -116t61.5 -310l-90 -516q-9 -33 -41 -33h-74q-29 0 -26 33z" />
    <glyph glyph-name="Eng" unicode="&#x14a;" horiz-adv-x="1468" 
d="M862 -465q-53 0 -112 18t-93 48q-22 22 -2 47l33 43q21 29 53 10q66 -39 125 -39q72 0 115 46t57 130l29 162q-14 6 -20 20l-594 1186l-207 -1171q-2 -14 -13 -24.5t-24 -10.5h-76q-14 0 -23.5 11t-5.5 24l242 1364q2 15 11.5 25t25.5 10h88q29 0 45 -29l590 -1167
l207 1161q8 35 39 35h75q15 0 24 -9.5t5 -25.5l-280 -1569q-28 -154 -107.5 -224.5t-206.5 -70.5z" />
    <glyph glyph-name="eng" unicode="&#x14b;" horiz-adv-x="1144" 
d="M770 -166l123 694q29 153 -35.5 236.5t-206.5 83.5q-145 0 -243.5 -96.5t-126.5 -253.5l-82 -465q-9 -33 -39 -33h-74q-15 0 -23 9.5t-4 25.5l156 880q6 35 39 35h72q13 0 21.5 -10.5t6.5 -24.5l-24 -131q57 87 149.5 139t210.5 52q187 0 284.5 -116t61.5 -310l-125 -713
q-28 -153 -111.5 -227t-205.5 -74q-69 0 -125.5 20.5t-83.5 47.5q-19 23 2 47l29 39q22 31 55 10q61 -39 115 -39q69 0 118 45t66 129z" />
    <glyph glyph-name="Omacron" unicode="&#x14c;" horiz-adv-x="1591" 
d="M1196 1606h-465q-13 0 -21.5 10.5t-4.5 23.5l6 50q5 14 17.5 24t25.5 10h465q14 0 23 -10.5t5 -23.5l-8 -50q-5 -14 -17.5 -24t-25.5 -10zM889 1460q192 0 344.5 -88t236.5 -241.5t84 -344.5q0 -167 -59 -317.5t-160 -259t-243 -172.5t-301 -64q-192 0 -344.5 88
t-236 241.5t-83.5 344.5q0 167 59.5 317.5t160.5 259t242.5 172.5t299.5 64zM889 1329q-171 0 -312.5 -91.5t-222 -248t-80.5 -342.5q0 -235 145.5 -389t375.5 -154q170 0 311 91.5t221 248t80 342.5q0 155 -64.5 278.5t-183 194t-270.5 70.5z" />
    <glyph glyph-name="omacron" unicode="&#x14d;" horiz-adv-x="1112" 
d="M860 1122h-465q-13 0 -21.5 11t-4.5 24l6 49q5 14 17.5 24.5t25.5 10.5h465q14 0 23 -11t5 -24l-8 -49q-5 -14 -17.5 -24.5t-25.5 -10.5zM598 975q119 0 219 -53t161.5 -157t61.5 -239q0 -152 -68 -278.5t-188 -200.5t-266 -74q-120 0 -220.5 53t-162 157t-61.5 239
q0 152 68.5 279t189 200.5t266.5 73.5zM588 852q-157 0 -265 -123t-108 -295q0 -156 87 -246t224 -90q158 0 266.5 123t108.5 295q0 153 -88 244.5t-225 91.5z" />
    <glyph glyph-name="Obreve" unicode="&#x14e;" horiz-adv-x="1591" 
d="M854 1802l-4 -18q-12 -58 22.5 -88.5t100.5 -30.5q68 0 105.5 29t49.5 90l5 18q3 17 20 17h80q23 0 20 -21l-4 -29q-13 -102 -89 -160.5t-193 -58.5t-185 63.5t-51 160.5l4 24q3 21 23 21h84q6 0 10 -6t2 -11zM889 1460q192 0 344.5 -88t236.5 -241.5t84 -344.5
q0 -167 -59 -317.5t-160 -259t-243 -172.5t-301 -64q-192 0 -344.5 88t-236 241.5t-83.5 344.5q0 167 59.5 317.5t160.5 259t242.5 172.5t299.5 64zM889 1329q-171 0 -312.5 -91.5t-222 -248t-80.5 -342.5q0 -235 145.5 -389t375.5 -154q170 0 311 91.5t221 248t80 342.5
q0 155 -64.5 278.5t-183 194t-270.5 70.5z" />
    <glyph glyph-name="obreve" unicode="&#x14f;" horiz-adv-x="1112" 
d="M518 1319l-4 -19q-12 -58 22.5 -88t100.5 -30q69 0 106.5 29t49.5 89l4 19q3 16 20 16h80q24 0 21 -20l-5 -29q-13 -102 -89 -160.5t-193 -58.5t-185 63t-51 160l4 25q3 20 23 20h84q6 0 10 -5.5t2 -10.5zM598 975q119 0 219 -53t161.5 -157t61.5 -239q0 -152 -68 -278.5
t-188 -200.5t-266 -74q-120 0 -220.5 53t-162 157t-61.5 239q0 152 68.5 279t189 200.5t266.5 73.5zM588 852q-157 0 -265 -123t-108 -295q0 -156 87 -246t224 -90q158 0 266.5 123t108.5 295q0 153 -88 244.5t-225 91.5z" />
    <glyph glyph-name="Ohungarumlaut" unicode="&#x150;" horiz-adv-x="1591" 
d="M965 1901h100q18 0 25.5 -13.5t-0.5 -25.5l-209 -277q-2 -2 -4.5 -5t-3.5 -4.5t-3.5 -4t-4 -3.5t-3.5 -2.5t-4 -2t-5 -1.5t-6 -1h-7h-52q-18 0 -25.5 9.5t-0.5 26.5l160 273q7 12 10.5 16t12 9.5t20.5 5.5zM1294 1901h101q18 0 25.5 -13.5t-3.5 -25.5l-207 -277
q-2 -2 -4.5 -5t-3.5 -4.5t-3.5 -4t-4 -3.5t-3.5 -2.5t-4 -2t-5 -1.5t-6 -1h-7h-53q-18 0 -24.5 9.5t0.5 26.5l157 273q19 31 45 31zM889 1460q192 0 344.5 -88t236.5 -241.5t84 -344.5q0 -167 -59 -317.5t-160 -259t-243 -172.5t-301 -64q-192 0 -344.5 88t-236 241.5
t-83.5 344.5q0 167 59.5 317.5t160.5 259t242.5 172.5t299.5 64zM889 1329q-171 0 -312.5 -91.5t-222 -248t-80.5 -342.5q0 -235 145.5 -389t375.5 -154q170 0 311 91.5t221 248t80 342.5q0 155 -64.5 278.5t-183 194t-270.5 70.5z" />
    <glyph glyph-name="ohungarumlaut" unicode="&#x151;" horiz-adv-x="1112" 
d="M629 1417h100q18 0 25.5 -13.5t-0.5 -25.5l-209 -276q-2 -2 -5 -5.5t-4.5 -5t-3.5 -4t-4 -4t-4.5 -3t-5.5 -2t-6.5 -1t-7.5 -0.5h-51q-18 0 -26 10t-1 27l160 272q7 12 10.5 16t12 9.5t20.5 5.5zM958 1417h101q18 0 25.5 -13.5t-3.5 -25.5l-207 -276q-2 -2 -7 -8.5
t-6.5 -7.5t-6 -4.5t-9 -4t-11.5 -0.5h-54q-18 0 -24.5 10t0.5 27l157 272q19 31 45 31zM598 975q119 0 219 -53t161.5 -157t61.5 -239q0 -152 -68 -278.5t-188 -200.5t-266 -74q-120 0 -220.5 53t-162 157t-61.5 239q0 152 68.5 279t189 200.5t266.5 73.5zM588 852
q-157 0 -265 -123t-108 -295q0 -156 87 -246t224 -90q158 0 266.5 123t108.5 295q0 153 -88 244.5t-225 91.5z" />
    <glyph glyph-name="OE" unicode="&#x152;" horiz-adv-x="2400" 
d="M887 1329q-172 0 -312.5 -91.5t-219.5 -247.5t-79 -343q0 -155 63.5 -278t182 -194t271.5 -71q169 0 306.5 91.5t214.5 247.5t77 343q0 236 -139 389.5t-365 153.5zM1264 35l39 213q-96 -130 -232 -202.5t-297 -72.5q-188 0 -336.5 87t-229.5 239.5t-81 343.5
q0 225 98.5 412.5t271.5 296t382 108.5q213 0 361 -106.5t204 -294.5l61 340q1 13 13 24t26 11h932q15 0 24 -9.5t5 -25.5l-13 -66q-6 -35 -41 -35h-819l-90 -505h422q15 0 24 -9.5t5 -25.5l-13 -64q-6 -35 -38 -35h-422l-95 -524h826q34 0 28 -35l-12 -65q-6 -35 -41 -35
h-934q-14 0 -23 11t-5 24z" />
    <glyph glyph-name="oe" unicode="&#x153;" horiz-adv-x="1894" 
d="M1329 -27q-144 0 -245.5 66t-149.5 184q-67 -118 -176.5 -184t-247.5 -66q-183 0 -308.5 123t-125.5 326q0 153 66.5 279.5t184 200t261.5 73.5q131 0 233.5 -66t151.5 -186q67 117 181.5 184.5t254.5 67.5q195 0 316 -121.5t116 -312.5l-2 -58q-3 -47 -47 -47h-770v-12
q0 -141 87 -233.5t228 -92.5q93 0 164.5 36t136.5 97q30 30 52 13l55 -39q26 -20 10 -43q-174 -189 -426 -189zM1399 858q-135 0 -235 -89t-130 -230h670q4 147 -79.5 233t-225.5 86zM584 854q-154 0 -262.5 -124t-108.5 -296q0 -155 87.5 -246.5t221.5 -91.5
q154 0 262.5 124t108.5 296q0 152 -88 245t-221 93z" />
    <glyph glyph-name="Racute" unicode="&#x154;" horiz-adv-x="1374" 
d="M1028 1901h102q17 0 24 -13.5t-1 -25.5l-211 -277q-9 -10 -12.5 -13.5t-11.5 -7t-19 -3.5h-51q-18 0 -26 9.5t-1 26.5l164 273q7 12 10.5 16t12 9.5t20.5 5.5zM369 733h450q104 0 183.5 28.5t124 76t66 101.5t21.5 112q0 117 -79 185.5t-220 68.5h-444zM348 610
l-102 -575q-2 -14 -12.5 -24.5t-26.5 -10.5h-76q-15 0 -24 9.5t-5 25.5l242 1364q2 14 12.5 24.5t26.5 10.5h543q205 0 320.5 -102t115.5 -269q0 -43 -8 -87t-35.5 -101.5t-71 -104t-123 -86.5t-184.5 -57l297 -592q8 -12 1 -23.5t-24 -11.5h-94q-29 0 -43 33l-284 577h-445
z" />
    <glyph glyph-name="racute" unicode="&#x155;" horiz-adv-x="641" 
d="M610 1417h103q17 0 23.5 -13.5t-1.5 -25.5l-211 -276q-18 -21 -29 -24q-6 -1 -14 -1h-51q-18 0 -26 10t-1 27l164 272q7 12 10.5 16t12 9.5t20.5 5.5zM637 952h33q31 0 28 -30l-16 -86q-9 -33 -37 -33h-29q-78 0 -144.5 -30.5t-121.5 -108t-76 -195.5l-75 -436
q-3 -33 -39 -33h-72q-17 0 -25.5 10.5t-3.5 24.5l156 880q2 15 12.5 25t28.5 10h61q13 0 23 -10.5t8 -24.5l-33 -165q42 80 128.5 141t193.5 61z" />
    <glyph glyph-name="Rcommaaccent" unicode="&#x156;" horiz-adv-x="1374" 
d="M369 733h450q104 0 183.5 28.5t124 76t66 101.5t21.5 112q0 117 -79 185.5t-220 68.5h-444zM348 610l-102 -575q-2 -14 -12.5 -24.5t-26.5 -10.5h-76q-15 0 -24 9.5t-5 25.5l242 1364q2 14 12.5 24.5t26.5 10.5h543q205 0 320.5 -102t115.5 -269q0 -43 -8 -87
t-35.5 -101.5t-71 -104t-123 -86.5t-184.5 -57l297 -592q8 -12 1 -23.5t-24 -11.5h-94q-29 0 -43 33l-284 577h-445zM418 -459l114 148q-38 11 -61.5 42t-19.5 68q4 51 39 82t85 31q51 0 85 -37.5t30 -93.5q-4 -67 -65.5 -141.5t-126.5 -126.5q-35 -31 -62 -19l-10 8
q-26 14 -8 39z" />
    <glyph glyph-name="rcommaaccent" unicode="&#x157;" horiz-adv-x="641" 
d="M637 952h33q31 0 28 -30l-16 -86q-9 -33 -37 -33h-29q-78 0 -144.5 -30.5t-121.5 -108t-76 -195.5l-75 -436q-3 -33 -39 -33h-72q-17 0 -25.5 10.5t-3.5 24.5l156 880q2 15 12.5 25t28.5 10h61q13 0 23 -10.5t8 -24.5l-33 -165q42 80 128.5 141t193.5 61zM-68 -459
l115 148q-38 11 -62 42t-20 68q4 50 39.5 81.5t85.5 31.5q51 0 85 -37.5t30 -93.5q-3 -47 -41 -105t-76 -95t-76 -68q-34 -31 -61 -19l-10 8q-26 15 -9 39z" />
    <glyph glyph-name="Rcaron" unicode="&#x158;" horiz-adv-x="1374" 
d="M909 1561h-80q-31 0 -43 30l-135 275q-6 13 2 24t21 11h61q27 0 41 -23l107 -197l178 197q23 23 47 23h78q14 0 18.5 -10.5t-6.5 -24.5l-231 -275q-27 -30 -58 -30zM369 733h450q104 0 183.5 28.5t124 76t66 101.5t21.5 112q0 117 -79 185.5t-220 68.5h-444zM348 610
l-102 -575q-2 -14 -12.5 -24.5t-26.5 -10.5h-76q-15 0 -24 9.5t-5 25.5l242 1364q2 14 12.5 24.5t26.5 10.5h543q205 0 320.5 -102t115.5 -269q0 -43 -8 -87t-35.5 -101.5t-71 -104t-123 -86.5t-184.5 -57l297 -592q8 -12 1 -23.5t-24 -11.5h-94q-29 0 -43 33l-284 577h-445
z" />
    <glyph glyph-name="rcaron" unicode="&#x159;" horiz-adv-x="641" 
d="M492 1077h-80q-31 0 -43 31l-136 274q-6 13 2 24t21 11h61q27 0 41 -22l107 -197l178 197q22 22 47 22h78q14 0 18.5 -10.5t-6.5 -24.5l-231 -274q-28 -31 -57 -31zM637 952h33q31 0 28 -30l-16 -86q-9 -33 -37 -33h-29q-78 0 -144.5 -30.5t-121.5 -108t-76 -195.5
l-75 -436q-3 -33 -39 -33h-72q-17 0 -25.5 10.5t-3.5 24.5l156 880q2 15 12.5 25t28.5 10h61q13 0 23 -10.5t8 -24.5l-33 -165q42 80 128.5 141t193.5 61z" />
    <glyph glyph-name="Sacute" unicode="&#x15a;" horiz-adv-x="1232" 
d="M952 1898h103q17 0 23.5 -13t-1.5 -25l-211 -277q-9 -10 -12.5 -13.5t-11.5 -7t-19 -3.5h-51q-18 0 -26 9.5t-1 26.5l164 273q7 11 10.5 15.5t12 9.5t20.5 5zM719 1460q175 0 308 -64t218 -169q31 -37 -14 -64l-41 -24q-36 -22 -64 10q-164 182 -411 182q-153 0 -253 -72
t-100 -194q0 -144 201 -219l291 -109q287 -108 287 -346q0 -60 -18.5 -118t-60 -112.5t-101.5 -96t-150 -66.5t-199 -25q-108 0 -205.5 27.5t-168 72t-119.5 92.5t-78 97q-10 18 -5 33.5t23 26.5l39 24q42 25 66 -12q74 -101 188.5 -166.5t263.5 -65.5q182 0 279.5 82
t97.5 199q0 156 -209 233l-295 111q-274 103 -274 328q0 179 140 292t364 113z" />
    <glyph glyph-name="sacute" unicode="&#x15b;" horiz-adv-x="909" 
d="M721 1417h102q17 0 24 -13.5t-1 -25.5l-211 -276q-18 -21 -29 -24q-6 -1 -14 -1h-51q-18 0 -26 10t-1 27l164 272q7 12 10.5 16t12 9.5t20.5 5.5zM121 696q0 126 101 202.5t257 76.5q127 0 224.5 -42t156.5 -108q27 -27 -6 -53l-37 -33q-23 -20 -57 9q-119 110 -279 110
q-99 0 -159 -39.5t-60 -105.5q0 -56 37 -86t119 -56l139 -43q252 -75 252 -258q0 -54 -22.5 -105t-66 -95t-119.5 -70.5t-173 -26.5q-132 0 -232.5 47.5t-160.5 120.5q-17 21 -16.5 33.5t18.5 30.5l37 35q26 26 59 -11q129 -139 305 -139q106 0 168 48.5t62 119.5
q0 54 -40.5 92t-127.5 64l-133 39q-120 34 -183 91.5t-63 151.5z" />
    <glyph glyph-name="Scircumflex" unicode="&#x15c;" horiz-adv-x="1232" 
d="M815 1898h78q30 0 45 -30l133 -273q7 -13 -0.5 -24.5t-21.5 -11.5h-62q-27 0 -39 24l-108 195l-178 -195q-24 -24 -48 -24h-77q-14 0 -19 11.5t6 24.5l232 273q27 30 59 30zM719 1460q175 0 308 -64t218 -169q31 -37 -14 -64l-41 -24q-36 -22 -64 10q-164 182 -411 182
q-153 0 -253 -72t-100 -194q0 -144 201 -219l291 -109q287 -108 287 -346q0 -60 -18.5 -118t-60 -112.5t-101.5 -96t-150 -66.5t-199 -25q-108 0 -205.5 27.5t-168 72t-119.5 92.5t-78 97q-10 18 -5 33.5t23 26.5l39 24q42 25 66 -12q74 -101 188.5 -166.5t263.5 -65.5
q182 0 279.5 82t97.5 199q0 156 -209 233l-295 111q-274 103 -274 328q0 179 140 292t364 113z" />
    <glyph glyph-name="scircumflex" unicode="&#x15d;" horiz-adv-x="909" 
d="M584 1417h78q30 0 45 -31l133 -272q7 -13 -1 -25t-22 -12h-61q-26 0 -39 25l-109 194l-178 -194q-10 -10 -14.5 -14t-13 -7.5t-19.5 -3.5h-78q-14 0 -18.5 11.5t6.5 25.5l231 272q28 31 60 31zM121 696q0 126 101 202.5t257 76.5q127 0 224.5 -42t156.5 -108
q27 -27 -6 -53l-37 -33q-23 -20 -57 9q-119 110 -279 110q-99 0 -159 -39.5t-60 -105.5q0 -56 37 -86t119 -56l139 -43q252 -75 252 -258q0 -54 -22.5 -105t-66 -95t-119.5 -70.5t-173 -26.5q-132 0 -232.5 47.5t-160.5 120.5q-17 21 -16.5 33.5t18.5 30.5l37 35
q26 26 59 -11q129 -139 305 -139q106 0 168 48.5t62 119.5q0 54 -40.5 92t-127.5 64l-133 39q-120 34 -183 91.5t-63 151.5z" />
    <glyph glyph-name="Scedilla" unicode="&#x15e;" horiz-adv-x="1232" 
d="M598 -27l-158 -249q-16 -25 -45 -25h-59q-15 0 -21.5 10t2.5 27l144 252q-150 29 -258 107.5t-162 166.5q-10 18 -5 33.5t23 26.5l39 24q42 25 66 -12q74 -101 188.5 -166.5t263.5 -65.5q182 0 279.5 82t97.5 199q0 156 -209 233l-295 111q-274 103 -274 328
q0 179 140 292t364 113q175 0 308 -64t218 -169q31 -37 -14 -64l-41 -24q-36 -22 -64 10q-164 182 -411 182q-153 0 -253 -72t-100 -194q0 -144 201 -219l291 -109q287 -108 287 -346q0 -60 -18.5 -118t-60 -112.5t-101.5 -96t-150 -66.5t-199 -25h-14z" />
    <glyph glyph-name="scedilla" unicode="&#x15f;" horiz-adv-x="909" 
d="M246 -303h-60q-15 0 -21 10t3 27l141 252q-90 18 -160 59.5t-114 95.5q-17 21 -16.5 33.5t18.5 30.5l37 35q26 26 59 -11q129 -139 305 -139q106 0 168 48.5t62 119.5q0 54 -40.5 92t-127.5 64l-133 39q-120 34 -183 91.5t-63 151.5q0 126 101 202.5t257 76.5
q127 0 224.5 -42t156.5 -108q27 -27 -6 -53l-37 -33q-23 -20 -57 9q-119 110 -279 110q-99 0 -159 -39.5t-60 -105.5q0 -56 37 -86t119 -56l139 -43q252 -75 252 -258q0 -52 -21 -102t-63 -93.5t-113.5 -71.5t-162.5 -30l-158 -252q-15 -24 -45 -24z" />
    <glyph glyph-name="Scaron" unicode="&#x160;" horiz-adv-x="1232" 
d="M834 1559h-80q-31 0 -43 30l-136 275q-6 13 2 23.5t21 10.5h61q27 0 41 -22l107 -197l178 197q22 22 47 22h78q14 0 18.5 -10t-6.5 -24l-231 -275q-27 -30 -57 -30zM719 1460q175 0 308 -64t218 -169q31 -37 -14 -64l-41 -24q-36 -22 -64 10q-164 182 -411 182
q-153 0 -253 -72t-100 -194q0 -144 201 -219l291 -109q287 -108 287 -346q0 -60 -18.5 -118t-60 -112.5t-101.5 -96t-150 -66.5t-199 -25q-108 0 -205.5 27.5t-168 72t-119.5 92.5t-78 97q-10 18 -5 33.5t23 26.5l39 24q42 25 66 -12q74 -101 188.5 -166.5t263.5 -65.5
q182 0 279.5 82t97.5 199q0 156 -209 233l-295 111q-274 103 -274 328q0 179 140 292t364 113z" />
    <glyph glyph-name="scaron" unicode="&#x161;" horiz-adv-x="909" 
d="M602 1077h-80q-31 0 -43 31l-135 274q-6 13 2 24t21 11h61q27 0 41 -22l106 -197l179 197q22 22 47 22h78q14 0 18.5 -10.5t-6.5 -24.5l-232 -274q-28 -31 -57 -31zM121 696q0 126 101 202.5t257 76.5q127 0 224.5 -42t156.5 -108q27 -27 -6 -53l-37 -33q-23 -20 -57 9
q-119 110 -279 110q-99 0 -159 -39.5t-60 -105.5q0 -56 37 -86t119 -56l139 -43q252 -75 252 -258q0 -54 -22.5 -105t-66 -95t-119.5 -70.5t-173 -26.5q-132 0 -232.5 47.5t-160.5 120.5q-17 21 -16.5 33.5t18.5 30.5l37 35q26 26 59 -11q129 -139 305 -139q106 0 168 48.5
t62 119.5q0 54 -40.5 92t-127.5 64l-133 39q-120 34 -183 91.5t-63 151.5z" />
    <glyph glyph-name="Tcommaaccent" unicode="&#x162;" horiz-adv-x="1243" 
d="M176 1333l12 66q6 35 37 35h1129q13 0 21.5 -9.5t4.5 -25.5l-12 -66q-6 -35 -41 -35h-487l-226 -1263q-6 -35 -39 -35h-77q-14 0 -23.5 11t-5.5 24l223 1263h-487q-15 0 -24 9.5t-5 25.5zM346 -459l115 148q-38 11 -62 42t-20 68q4 50 39.5 81.5t85.5 31.5
q51 0 84.5 -37.5t29.5 -93.5q-4 -67 -65.5 -141.5t-126.5 -126.5q-34 -31 -61 -19l-11 8q-26 14 -8 39z" />
    <glyph glyph-name="tcommaaccent" unicode="&#x163;" horiz-adv-x="700" 
d="M592 137l24 -45q14 -26 -16 -45q-92 -61 -215 -61q-115 0 -184 78.5t-41 203.5l98 561h-145q-33 0 -27 35l10 51q9 35 39 35h144l55 310q6 34 43 34h67q37 0 31 -34l-55 -310h293q15 0 24.5 -9.5t5.5 -25.5l-10 -57q-6 -29 -39 -29h-297l-98 -569q-13 -75 16 -112t88 -37
q66 0 136 39q38 21 53 -13zM133 -459l115 148q-38 11 -62 42t-20 68q4 50 39.5 81.5t85.5 31.5q51 0 85 -37.5t30 -93.5q-3 -47 -41 -105t-76 -95t-76 -68q-34 -31 -61 -19l-11 8q-26 14 -8 39z" />
    <glyph glyph-name="Tcaron" unicode="&#x164;" horiz-adv-x="1243" 
d="M848 1561h-80q-31 0 -43 30l-135 275q-6 13 1.5 24t20.5 11h62q27 0 41 -23l106 -197l178 197q23 23 48 23h77q14 0 19 -10.5t-6 -24.5l-232 -275q-27 -30 -57 -30zM176 1333l12 66q6 35 37 35h1129q13 0 21.5 -9.5t4.5 -25.5l-12 -66q-6 -35 -41 -35h-487l-226 -1263
q-6 -35 -39 -35h-77q-14 0 -23.5 11t-5.5 24l223 1263h-487q-15 0 -24 9.5t-5 25.5z" />
    <glyph glyph-name="tcaron" unicode="&#x165;" horiz-adv-x="700" 
d="M616 1210l121 162q-40 11 -66 46t-22 77q6 54 43.5 86.5t91.5 32.5q55 0 92 -40t33 -99q-4 -69 -73 -155t-136 -140q-11 -9 -17 -13t-15 -8.5t-17 -3.5t-16 6l-12 6q-28 22 -7 43zM592 137l24 -45q14 -26 -16 -45q-92 -61 -215 -61q-115 0 -184 78.5t-41 203.5l98 561
h-145q-33 0 -27 35l10 51q9 35 39 35h144l55 310q6 34 43 34h67q37 0 31 -34l-55 -310h293q15 0 24.5 -9.5t5.5 -25.5l-10 -57q-6 -29 -39 -29h-297l-98 -569q-13 -75 16 -112t88 -37q66 0 136 39q38 21 53 -13z" />
    <glyph glyph-name="Tbar" unicode="&#x166;" horiz-adv-x="1259" 
d="M737 690l-116 -655q-6 -35 -39 -35h-78q-14 0 -23.5 11t-5.5 24l117 655h-236q-15 0 -24.5 9t-5.5 26l10 53q8 35 41 35h235l86 485h-487q-15 0 -24 9.5t-5 25.5l13 66q6 35 36 35h1129q13 0 21.5 -9.5t4.5 -25.5l-12 -66q-6 -35 -41 -35h-487l-86 -485h248q29 0 26 -31
l-10 -63q-3 -29 -39 -29h-248z" />
    <glyph glyph-name="tbar" unicode="&#x167;" horiz-adv-x="712" 
d="M608 47q-92 -61 -215 -61q-115 0 -184 78.5t-41 203.5l45 258h-141q-14 0 -23.5 11t-5.5 24l6 33q8 35 41 35h141l35 200h-145q-33 0 -27 35l10 51q9 35 39 35h144l55 310q6 34 43 34h68q36 0 30 -34l-55 -310h293q15 0 25 -9.5t6 -25.5l-11 -57q-6 -29 -39 -29h-296
l-35 -200h299q29 0 26 -31l-6 -37q-4 -21 -13.5 -28t-25.5 -7h-299l-45 -266q-13 -75 16.5 -112t88.5 -37q65 0 135 39q38 21 53 -13l25 -45q14 -26 -17 -45z" />
    <glyph glyph-name="Utilde" unicode="&#x168;" horiz-adv-x="1431" 
d="M782 1792q43 0 152 -36t129 -36q30 0 47 11t43 43q10 13 24 13t25 -11l25 -21q22 -16 6 -47q-50 -115 -172 -115q-43 0 -152 36t-129 36q-30 0 -47 -10.5t-43 -42.5q-10 -13 -24 -13t-25 11l-25 20q-22 16 -6 47q50 115 172 115zM1434 1399l-162 -910q-43 -250 -196 -383
t-408 -133q-161 0 -282.5 59.5t-183 178t-34.5 276.5l162 912q1 13 13 24t26 11h77q14 0 22.5 -11t4.5 -24l-160 -912q-31 -179 74 -281t299 -102q175 0 292.5 100t149.5 283l160 912q1 13 14 24t27 11h76q13 0 22 -10.5t7 -24.5z" />
    <glyph glyph-name="utilde" unicode="&#x169;" horiz-adv-x="1126" 
d="M537 1309q43 0 151.5 -36t128.5 -36q30 0 47 10.5t43 42.5q10 13 24 13t25 -11l25 -20q22 -16 6 -47q-50 -115 -172 -115q-43 0 -151.5 36t-128.5 36q-30 0 -47.5 -11t-43.5 -43q-10 -13 -24 -13t-25 11l-24 21q-22 16 -6 47q50 115 172 115zM344 915l-90 -505
q-26 -150 37.5 -232t195.5 -82q144 0 238 90.5t121 245.5l86 483q6 35 39 35h73q14 0 21.5 -9.5t3.5 -25.5l-154 -880q-6 -35 -38 -35h-74q-15 0 -24 8.5t-5 24.5l27 133q-58 -90 -148.5 -141.5t-208.5 -51.5q-175 0 -270 116.5t-63 299.5l92 526q8 35 39 35h73
q16 0 23.5 -10t5.5 -25z" />
    <glyph glyph-name="Umacron" unicode="&#x16a;" horiz-adv-x="1431" 
d="M1147 1606h-465q-13 0 -22 10.5t-5 23.5l7 50q5 14 17.5 24t25.5 10h464q14 0 23.5 -10.5t5.5 -23.5l-8 -50q-5 -14 -17.5 -24t-25.5 -10zM1434 1399l-162 -910q-43 -250 -196 -383t-408 -133q-161 0 -282.5 59.5t-183 178t-34.5 276.5l162 912q1 13 13 24t26 11h77
q14 0 22.5 -11t4.5 -24l-160 -912q-31 -179 74 -281t299 -102q175 0 292.5 100t149.5 283l160 912q1 13 14 24t27 11h76q13 0 22 -10.5t7 -24.5z" />
    <glyph glyph-name="umacron" unicode="&#x16b;" horiz-adv-x="1126" 
d="M901 1122h-465q-13 0 -21.5 11t-4.5 24l6 49q5 14 17.5 24.5t25.5 10.5h465q14 0 23 -11t5 -24l-8 -49q-5 -14 -17.5 -24.5t-25.5 -10.5zM344 915l-90 -505q-26 -150 37.5 -232t195.5 -82q144 0 238 90.5t121 245.5l86 483q6 35 39 35h73q14 0 21.5 -9.5t3.5 -25.5
l-154 -880q-6 -35 -38 -35h-74q-15 0 -24 8.5t-5 24.5l27 133q-58 -90 -148.5 -141.5t-208.5 -51.5q-175 0 -270 116.5t-63 299.5l92 526q8 35 39 35h73q16 0 23.5 -10t5.5 -25z" />
    <glyph glyph-name="Ubreve" unicode="&#x16c;" horiz-adv-x="1431" 
d="M805 1802l-4 -18q-12 -58 22.5 -88.5t100.5 -30.5q68 0 105.5 29t49.5 90l4 18q3 17 21 17h80q23 0 20 -21l-4 -29q-13 -102 -89 -160.5t-193 -58.5t-185 63.5t-51 160.5l4 24q3 21 23 21h84q6 0 10 -6t2 -11zM1434 1399l-162 -910q-43 -250 -196 -383t-408 -133
q-161 0 -282.5 59.5t-183 178t-34.5 276.5l162 912q1 13 13 24t26 11h77q14 0 22.5 -11t4.5 -24l-160 -912q-31 -179 74 -281t299 -102q175 0 292.5 100t149.5 283l160 912q1 13 14 24t27 11h76q13 0 22 -10.5t7 -24.5z" />
    <glyph glyph-name="ubreve" unicode="&#x16d;" horiz-adv-x="1126" 
d="M559 1319l-4 -19q-12 -58 22.5 -88t100.5 -30q69 0 106.5 29t49.5 89l4 19q3 16 20 16h80q23 0 20 -20l-4 -29q-13 -102 -89 -160.5t-193 -58.5t-185 63t-51 160l4 25q3 20 23 20h84q6 0 10 -5.5t2 -10.5zM344 915l-90 -505q-26 -150 37.5 -232t195.5 -82q144 0 238 90.5
t121 245.5l86 483q6 35 39 35h73q14 0 21.5 -9.5t3.5 -25.5l-154 -880q-6 -35 -38 -35h-74q-15 0 -24 8.5t-5 24.5l27 133q-58 -90 -148.5 -141.5t-208.5 -51.5q-175 0 -270 116.5t-63 299.5l92 526q8 35 39 35h73q16 0 23.5 -10t5.5 -25z" />
    <glyph glyph-name="Uring" unicode="&#x16e;" horiz-adv-x="1431" 
d="M936 1980q93 0 155 -57t62 -151q0 -97 -68.5 -169.5t-179.5 -72.5q-93 0 -155 57t-62 152q0 97 69 169t179 72zM909 1626q62 0 100 43.5t38 97.5q0 51 -31 84t-84 33q-62 0 -99.5 -43.5t-37.5 -97.5q0 -51 30.5 -84t83.5 -33zM1434 1399l-162 -910q-43 -250 -196 -383
t-408 -133q-161 0 -282.5 59.5t-183 178t-34.5 276.5l162 912q1 13 13 24t26 11h77q14 0 22.5 -11t4.5 -24l-160 -912q-31 -179 74 -281t299 -102q175 0 292.5 100t149.5 283l160 912q1 13 14 24t27 11h76q13 0 22 -10.5t7 -24.5z" />
    <glyph glyph-name="uring" unicode="&#x16f;" horiz-adv-x="1126" 
d="M690 1497q93 0 155 -57t62 -152q0 -97 -68.5 -169t-179.5 -72q-93 0 -155 57t-62 151q0 97 69 169.5t179 72.5zM664 1143q62 0 99.5 43.5t37.5 97.5q0 51 -31 84t-84 33q-62 0 -99.5 -43.5t-37.5 -97.5q0 -51 31 -84t84 -33zM344 915l-90 -505q-26 -150 37.5 -232
t195.5 -82q144 0 238 90.5t121 245.5l86 483q6 35 39 35h73q14 0 21.5 -9.5t3.5 -25.5l-154 -880q-6 -35 -38 -35h-74q-15 0 -24 8.5t-5 24.5l27 133q-58 -90 -148.5 -141.5t-208.5 -51.5q-175 0 -270 116.5t-63 299.5l92 526q8 35 39 35h73q16 0 23.5 -10t5.5 -25z" />
    <glyph glyph-name="Uhungarumlaut" unicode="&#x170;" horiz-adv-x="1431" 
d="M915 1901h101q18 0 25 -13.5t-1 -25.5l-209 -277q-2 -2 -6 -7t-5.5 -6.5t-5 -4.5t-6 -3.5t-7 -1.5t-10.5 -1h-52q-18 0 -25.5 9.5t-0.5 26.5l159 273q7 12 10.5 16t12 9.5t20.5 5.5zM1245 1901h101q18 0 25.5 -13.5t-3.5 -25.5l-207 -277q-2 -2 -4.5 -5t-3.5 -4.5
t-3.5 -4t-4 -3.5t-3.5 -2.5t-4 -2t-5 -1.5t-6 -1h-7h-53q-18 0 -25 9.5t0 26.5l158 273q19 31 45 31zM1434 1399l-162 -910q-43 -250 -196 -383t-408 -133q-161 0 -282.5 59.5t-183 178t-34.5 276.5l162 912q1 13 13 24t26 11h77q14 0 22.5 -11t4.5 -24l-160 -912
q-31 -179 74 -281t299 -102q175 0 292.5 100t149.5 283l160 912q1 13 14 24t27 11h76q13 0 22 -10.5t7 -24.5z" />
    <glyph glyph-name="uhungarumlaut" unicode="&#x171;" horiz-adv-x="1126" 
d="M670 1417h100q18 0 25.5 -13.5t-0.5 -25.5l-209 -276q-2 -2 -5 -5.5t-4.5 -5t-3.5 -4t-4 -4t-4.5 -3t-5.5 -2t-6.5 -1t-7.5 -0.5h-51q-18 0 -26 10t-1 27l160 272q7 12 10.5 16t12 9.5t20.5 5.5zM999 1417h101q18 0 25.5 -13.5t-3.5 -25.5l-207 -276q-2 -2 -5 -5.5
t-4.5 -5t-3.5 -4t-4 -4t-4.5 -3t-5.5 -2t-6.5 -1t-7.5 -0.5h-53q-18 0 -24.5 10t0.5 27l157 272q19 31 45 31zM344 915l-90 -505q-26 -150 37.5 -232t195.5 -82q144 0 238 90.5t121 245.5l86 483q6 35 39 35h73q14 0 21.5 -9.5t3.5 -25.5l-154 -880q-6 -35 -38 -35h-74
q-15 0 -24 8.5t-5 24.5l27 133q-58 -90 -148.5 -141.5t-208.5 -51.5q-175 0 -270 116.5t-63 299.5l92 526q8 35 39 35h73q16 0 23.5 -10t5.5 -25z" />
    <glyph glyph-name="Uogonek" unicode="&#x172;" horiz-adv-x="1431" 
d="M754 -350q-68 0 -107 33.5t-39 89.5q0 93 109 202q-16 -2 -49 -2q-161 0 -282.5 59.5t-183 178t-34.5 276.5l162 912q1 13 13 24t26 11h77q14 0 22.5 -11t4.5 -24l-160 -912q-31 -179 74 -281t299 -102q175 0 292.5 100t149.5 283l160 912q1 13 14 24t27 11h76
q13 0 22 -10.5t7 -24.5l-162 -910q-72 -414 -432 -497q-105 -121 -105 -185q0 -61 72 -61q23 0 46 5t24 5q19 0 16 -24l-6 -37q-4 -21 -48 -33t-85 -12z" />
    <glyph glyph-name="uogonek" unicode="&#x173;" horiz-adv-x="1126" 
d="M872 -313l-6 -37q-4 -21 -48 -33t-85 -12q-68 0 -106.5 33.5t-38.5 89.5q0 128 196 276q-13 8 -10 29l27 133q-58 -90 -148.5 -141.5t-208.5 -51.5q-175 0 -270 116.5t-63 299.5l92 526q8 35 39 35h73q16 0 23.5 -10t5.5 -25l-90 -505q-26 -150 37.5 -232t195.5 -82
q144 0 238 90.5t121 245.5l86 483q6 35 39 35h73q14 0 21.5 -9.5t3.5 -25.5l-154 -880q-6 -35 -38 -35h-5q-68 -64 -112.5 -129.5t-44.5 -108.5q0 -61 71 -61q23 0 46 5t24 5q19 0 16 -24z" />
    <glyph glyph-name="Wcircumflex" unicode="&#x174;" horiz-adv-x="2043" 
d="M1229 1901h78q29 0 45 -31l133 -273q7 -13 -1 -24.5t-22 -11.5h-61q-27 0 -39 24l-109 195l-178 -195q-14 -14 -22.5 -19t-24.5 -5h-78q-14 0 -18.5 11.5t6.5 24.5l231 273q28 31 60 31zM1153 1239l-578 -1206q-14 -33 -49 -33h-123q-32 0 -38 33l-172 1362q-4 17 6 28
t28 11h84q28 0 31 -33l152 -1239l591 1239q14 33 45 33h105q34 0 37 -33l172 -1231l573 1231q14 33 43 33h90q18 0 24.5 -10t-3.5 -29l-645 -1362q-20 -33 -51 -33h-113q-32 0 -41 33z" />
    <glyph glyph-name="wcircumflex" unicode="&#x175;" horiz-adv-x="1503" 
d="M877 1417h77q30 0 45 -31l134 -272q7 -13 -1 -25t-22 -12h-61q-27 0 -39 25l-109 194l-178 -194q-10 -10 -14.5 -14t-13 -7.5t-19.5 -3.5h-78q-14 0 -18.5 11.5t6.5 25.5l231 272q28 31 60 31zM801 760l-344 -727q-14 -33 -51 -33h-105q-36 0 -39 33l-145 878
q-4 16 5.5 27.5t24.5 11.5h80q32 0 35 -28l117 -768l362 764q14 32 45 32h95q29 0 32 -32l103 -764l381 766q17 30 45 30h78q17 0 22.5 -11t-2.5 -28l-450 -878q-14 -33 -52 -33h-96q-34 0 -37 33z" />
    <glyph glyph-name="Ycircumflex" unicode="&#x176;" horiz-adv-x="1259" 
d="M817 1901h78q29 0 45 -31l133 -273q7 -13 -0.5 -24.5t-21.5 -11.5h-62q-27 0 -39 24l-108 195l-178 -195q-24 -24 -48 -24h-77q-14 0 -19 11.5t6 24.5l232 273q28 31 59 31zM586 0h-76q-14 0 -23.5 11t-5.5 24l103 577l-379 785q-7 12 -0.5 24.5t22.5 12.5h95
q26 0 38 -27l312 -651h6l532 651q21 27 47 27h115q14 0 18.5 -12t-6.5 -25l-655 -785l-104 -577q-1 -13 -13 -24t-26 -11z" />
    <glyph glyph-name="ycircumflex" unicode="&#x177;" horiz-adv-x="952" 
d="M588 1417h78q30 0 45 -31l133 -272q7 -13 -1 -25t-22 -12h-61q-26 0 -39 25l-109 194l-178 -194q-10 -10 -14.5 -14t-13 -7.5t-19.5 -3.5h-78q-14 0 -18.5 11.5t6.5 25.5l231 272q28 31 60 31zM51 -467q-84 0 -152.5 33t-101.5 76q-19 26 6 51l35 37q27 27 60 -6
q22 -20 39.5 -32.5t49.5 -24t66 -11.5q121 0 197 141l112 203h-38q-29 0 -35 27l-164 884q-6 39 33 39h80q30 0 36 -32l140 -805l417 805q16 32 46 32h90q18 0 24 -11t-4 -28l-618 -1163q-112 -215 -318 -215z" />
    <glyph glyph-name="Ydieresis" unicode="&#x178;" horiz-adv-x="1259" 
d="M512 1667q5 44 40.5 78.5t78.5 34.5q46 0 75.5 -34t24.5 -79t-40 -78t-79 -33t-74 33.5t-26 77.5zM885 1667q5 45 40 79t79 34q47 0 77 -34t25 -79q-5 -44 -41 -77.5t-80 -33.5t-74 33.5t-26 77.5zM586 0h-76q-14 0 -23.5 11t-5.5 24l103 577l-379 785q-7 12 -0.5 24.5
t22.5 12.5h95q26 0 38 -27l312 -651h6l532 651q21 27 47 27h115q14 0 18.5 -12t-6.5 -25l-655 -785l-104 -577q-1 -13 -13 -24t-26 -11z" />
    <glyph glyph-name="Zacute" unicode="&#x179;" horiz-adv-x="1200" 
d="M950 1901h103q17 0 23.5 -13.5t-1.5 -25.5l-211 -277q-9 -10 -12.5 -13.5t-11.5 -7t-19 -3.5h-51q-18 0 -26 9.5t-1 26.5l164 273q7 12 10.5 16t12 9.5t20.5 5.5zM1047 0h-1061q-35 0 -29 35l8 51q5 18 39 57l1075 1157h-807q-13 0 -21.5 10.5t-6.5 24.5l10 64
q8 35 41 35h962q15 0 24 -9.5t5 -25.5l-10 -56q-6 -26 -41 -65l-1059 -1145h895q15 0 24 -9.5t5 -25.5l-13 -63q-9 -35 -40 -35z" />
    <glyph glyph-name="zacute" unicode="&#x17a;" horiz-adv-x="894" 
d="M692 1417h103q17 0 23.5 -13.5t-1.5 -25.5l-211 -276q-18 -21 -29 -24q-6 -1 -14 -1h-51q-18 0 -26 10t-1 27l164 272q7 12 10.5 16t12 9.5t20.5 5.5zM864 823l-688 -700h578q13 0 20.5 -9t3.5 -22l-12 -63q-6 -29 -39 -29h-725q-14 0 -23.5 11t-5.5 24l11 49q3 27 24 45
l688 698h-520q-14 0 -21 11t-3 24l12 58q6 30 33 30h673q14 0 23.5 -11t5.5 -24l-10 -49q-6 -24 -25 -43z" />
    <glyph glyph-name="Zdotaccent" unicode="&#x17b;" horiz-adv-x="1200" 
d="M799 1583q-50 0 -81.5 36t-27.5 87q5 50 42.5 84.5t86.5 34.5q51 0 83.5 -34.5t27.5 -84.5q-4 -51 -42.5 -87t-88.5 -36zM1047 0h-1061q-35 0 -29 35l8 51q5 18 39 57l1075 1157h-807q-13 0 -21.5 10.5t-6.5 24.5l10 64q8 35 41 35h962q15 0 24 -9.5t5 -25.5l-10 -56
q-6 -26 -41 -65l-1059 -1145h895q15 0 24 -9.5t5 -25.5l-13 -63q-9 -35 -40 -35z" />
    <glyph glyph-name="zdotaccent" unicode="&#x17c;" horiz-adv-x="894" 
d="M541 1100q-50 0 -81.5 36t-27.5 87q4 49 41.5 83.5t87.5 34.5q51 0 83 -34.5t28 -83.5q-4 -51 -42.5 -87t-88.5 -36zM864 823l-688 -700h578q13 0 20.5 -9t3.5 -22l-12 -63q-6 -29 -39 -29h-725q-14 0 -23.5 11t-5.5 24l11 49q3 27 24 45l688 698h-520q-14 0 -21 11
t-3 24l12 58q6 30 33 30h673q14 0 23.5 -11t5.5 -24l-10 -49q-6 -24 -25 -43z" />
    <glyph glyph-name="Zcaron" unicode="&#x17d;" horiz-adv-x="1200" 
d="M831 1561h-79q-31 0 -43 30l-136 275q-6 13 2 24t21 11h61q27 0 41 -23l107 -197l178 197q23 23 47 23h78q14 0 18.5 -10.5t-6.5 -24.5l-231 -275q-27 -30 -58 -30zM1047 0h-1061q-35 0 -29 35l8 51q5 18 39 57l1075 1157h-807q-13 0 -21.5 10.5t-6.5 24.5l10 64
q8 35 41 35h962q15 0 24 -9.5t5 -25.5l-10 -56q-6 -26 -41 -65l-1059 -1145h895q15 0 24 -9.5t5 -25.5l-13 -63q-9 -35 -40 -35z" />
    <glyph glyph-name="zcaron" unicode="&#x17e;" horiz-adv-x="894" 
d="M573 1077h-79q-31 0 -43 31l-136 274q-6 13 2 24t21 11h61q27 0 41 -22l107 -197l178 197q22 22 47 22h78q14 0 18.5 -10.5t-6.5 -24.5l-231 -274q-28 -31 -58 -31zM864 823l-688 -700h578q13 0 20.5 -9t3.5 -22l-12 -63q-6 -29 -39 -29h-725q-14 0 -23.5 11t-5.5 24
l11 49q3 27 24 45l688 698h-520q-14 0 -21 11t-3 24l12 58q6 30 33 30h673q14 0 23.5 -11t5.5 -24l-10 -49q-6 -24 -25 -43z" />
    <glyph glyph-name="longs" unicode="&#x17f;" horiz-adv-x="501" 
d="M289 950l41 219q28 154 108 224.5t207 70.5q54 0 112.5 -17.5t92.5 -47.5q22 -22 2 -47l-33 -43q-21 -30 -53 -11q-66 39 -125 39q-71 0 -114.5 -47.5t-57.5 -132.5l-201 -1122q-1 -13 -13 -24t-26 -11h-71q-14 0 -23.5 11t-5.5 24l141 794h-147q-12 0 -20.5 11t-4.5 24
l11 56q6 30 36 30h144z" />
    <glyph glyph-name="florin" unicode="&#x192;" horiz-adv-x="845" 
d="M16 -465q-53 0 -111.5 18t-92.5 48q-22 22 -2 47l32 43q21 30 54 10q66 -39 124 -39q72 0 115.5 46t57.5 130l137 772h-178q-12 0 -20.5 11t-4.5 24l8 55q9 31 39 31h176l78 438q28 154 108 224.5t207 70.5q54 0 112.5 -17.5t92.5 -47.5q22 -22 2 -47l-32 -43
q-22 -30 -54 -11q-66 39 -125 39q-134 0 -172 -180l-75 -426h206q17 0 25.5 -10.5t3.5 -24.5l-10 -55q-6 -31 -43 -31h-205l-139 -780q-28 -154 -107.5 -224.5t-206.5 -70.5z" />
    <glyph glyph-name="Scommaaccent" unicode="&#x218;" horiz-adv-x="1232" 
d="M719 1460q175 0 308 -64t218 -169q31 -37 -14 -64l-41 -24q-36 -22 -64 10q-164 182 -411 182q-153 0 -253 -72t-100 -194q0 -144 201 -219l291 -109q287 -108 287 -346q0 -60 -18.5 -118t-60 -112.5t-101.5 -96t-150 -66.5t-199 -25q-108 0 -205.5 27.5t-168 72
t-119.5 92.5t-78 97q-10 18 -5 33.5t23 26.5l39 24q42 25 66 -12q74 -101 188.5 -166.5t263.5 -65.5q182 0 279.5 82t97.5 199q0 156 -209 233l-295 111q-274 103 -274 328q0 179 140 292t364 113zM348 -457l115 148q-38 11 -62 42t-20 68q4 50 39.5 81.5t85.5 31.5
q51 0 85 -37.5t30 -93.5q-3 -47 -41 -105t-76 -95t-76 -68q-34 -31 -61 -19l-11 8q-26 14 -8 39z" />
    <glyph glyph-name="scommaaccent" unicode="&#x219;" horiz-adv-x="909" 
d="M121 696q0 126 101 202.5t257 76.5q127 0 224.5 -42t156.5 -108q27 -27 -6 -53l-37 -33q-23 -20 -57 9q-119 110 -279 110q-99 0 -159 -39.5t-60 -105.5q0 -56 37 -86t119 -56l139 -43q252 -75 252 -258q0 -54 -22.5 -105t-66 -95t-119.5 -70.5t-173 -26.5
q-132 0 -232.5 47.5t-160.5 120.5q-17 21 -16.5 33.5t18.5 30.5l37 35q26 26 59 -11q129 -139 305 -139q106 0 168 48.5t62 119.5q0 54 -40.5 92t-127.5 64l-133 39q-120 34 -183 91.5t-63 151.5zM199 -459l114 148q-38 11 -62 42t-20 68q4 50 39.5 81.5t85.5 31.5
q51 0 85 -37.5t30 -93.5q-4 -67 -65.5 -141.5t-126.5 -126.5q-35 -31 -62 -19l-10 8q-26 14 -8 39z" />
    <glyph glyph-name="uni021A" unicode="&#x21a;" horiz-adv-x="1243" 
d="M176 1333l12 66q6 35 37 35h1129q13 0 21.5 -9.5t4.5 -25.5l-12 -66q-6 -35 -41 -35h-487l-226 -1263q-6 -35 -39 -35h-77q-14 0 -23.5 11t-5.5 24l223 1263h-487q-15 0 -24 9.5t-5 25.5zM348 -459l115 148q-38 11 -62 42t-20 68q4 50 39.5 81.5t85.5 31.5q51 0 85 -37.5
t30 -93.5q-3 -47 -41 -105t-76 -95t-76 -68q-34 -31 -61 -19l-11 8q-26 14 -8 39z" />
    <glyph glyph-name="uni021B" unicode="&#x21b;" horiz-adv-x="700" 
d="M592 137l24 -45q14 -26 -16 -45q-92 -61 -215 -61q-115 0 -184 78.5t-41 203.5l98 561h-145q-33 0 -27 35l10 51q9 35 39 35h144l55 310q6 34 43 34h67q37 0 31 -34l-55 -310h293q15 0 24.5 -9.5t5.5 -25.5l-10 -57q-6 -29 -39 -29h-297l-98 -569q-13 -75 16 -112t88 -37
q66 0 136 39q38 21 53 -13zM133 -459l115 148q-38 11 -62 42t-20 68q4 50 39.5 81.5t85.5 31.5q51 0 85 -37.5t30 -93.5q-3 -47 -41 -105t-76 -95t-76 -68q-34 -31 -61 -19l-11 8q-26 14 -8 39z" />
    <glyph glyph-name="dotlessj" unicode="&#x237;" horiz-adv-x="411" 
d="M25 -162l190 1077q9 35 41 35h72q14 0 23 -9.5t5 -25.5l-194 -1085q-28 -154 -107.5 -224.5t-206.5 -70.5q-53 0 -111.5 18t-92.5 48q-22 22 -2 47l32 43q21 30 54 10q66 -39 125 -39q72 0 115 46t57 130z" />
    <glyph glyph-name="circumflex" unicode="&#x2c6;" horiz-adv-x="665" 
d="M455 1417h77q30 0 46 -31l133 -272q7 -13 -1 -25t-22 -12h-61q-27 0 -39 25l-109 194l-178 -194q-10 -10 -14.5 -14t-13 -7.5t-19.5 -3.5h-78q-14 0 -18.5 11.5t6.5 25.5l231 272q28 31 60 31z" />
    <glyph glyph-name="caron" unicode="&#x2c7;" horiz-adv-x="665" 
d="M473 1077h-80q-31 0 -43 31l-135 274q-6 13 2 24t21 11h61q27 0 41 -22l106 -197l179 197q22 22 47 22h78q14 0 18.5 -10.5t-6.5 -24.5l-232 -274q-28 -31 -57 -31z" />
    <glyph glyph-name="breve" unicode="&#x2d8;" horiz-adv-x="608" 
d="M305 1319l-4 -19q-12 -58 22.5 -88t100.5 -30q69 0 106.5 29t49.5 89l4 19q3 16 20 16h80q24 0 21 -20l-5 -29q-13 -102 -89 -160.5t-193 -58.5t-185 63t-51 160l4 25q3 20 23 20h84q6 0 10 -5.5t2 -10.5z" />
    <glyph glyph-name="dotaccent" unicode="&#x2d9;" horiz-adv-x="337" 
d="M279 1098q-50 0 -81.5 36t-27.5 87q4 49 41.5 83.5t87.5 34.5q51 0 83 -34.5t28 -83.5q-4 -51 -42.5 -87t-88.5 -36z" />
    <glyph glyph-name="ring" unicode="&#x2da;" horiz-adv-x="581" 
d="M424 1499q93 0 155 -57t62 -152q0 -97 -68.5 -169t-179.5 -72q-93 0 -155 57t-62 151q0 97 69 169.5t179 72.5zM397 1145q62 0 100 43.5t38 97.5q0 51 -31 84t-84 33q-62 0 -99.5 -43.5t-37.5 -97.5q0 -51 30.5 -84t83.5 -33z" />
    <glyph glyph-name="ogonek" unicode="&#x2db;" horiz-adv-x="512" 
d="M14 -272q0 81 79.5 169t166.5 140l43 -6l6 -21q-72 -68 -120 -135.5t-48 -112.5q0 -61 72 -61q23 0 46 5t24 5q19 0 16 -24l-6 -37q-4 -21 -48 -33t-85 -12q-68 0 -107 33.5t-39 89.5z" />
    <glyph glyph-name="tilde" unicode="&#x2dc;" horiz-adv-x="675" 
d="M317 1309q43 0 152 -36t129 -36q30 0 47 10.5t43 42.5q10 13 24 13t25 -11l25 -20q22 -16 6 -47q-50 -115 -172 -115q-43 0 -152 36t-129 36q-30 0 -47 -11t-43 -43q-10 -13 -24 -13t-25 11l-24 21q-22 16 -7 47q50 115 172 115z" />
    <glyph glyph-name="hungarumlaut" unicode="&#x2dd;" horiz-adv-x="712" 
d="M399 1417h101q18 0 25 -13.5t-1 -25.5l-209 -276q-2 -2 -5 -5.5t-4.5 -5t-3.5 -4t-4 -4t-4.5 -3t-5.5 -2t-6.5 -1t-7.5 -0.5h-51q-18 0 -25.5 10t-0.5 27l159 272q7 12 10.5 16t12 9.5t20.5 5.5zM729 1417h100q19 0 26.5 -13.5t-3.5 -25.5l-207 -276q-2 -2 -5 -5.5
t-4.5 -5t-3.5 -4t-4 -4t-4.5 -3t-5.5 -2t-6.5 -1t-7.5 -0.5h-53q-18 0 -25 10t0 27l158 272q19 31 45 31z" />
    <glyph glyph-name="pi" unicode="&#x3c0;" horiz-adv-x="1273" 
d="M797 829h-308l-270 -794q-6 -35 -41 -35h-80q-14 0 -23 11t-3 24l278 794h-229q-33 0 -27 35l10 51q9 35 39 35h1106q15 0 24 -9.5t5 -25.5l-10 -57q-3 -29 -39 -29h-293l-98 -569q-13 -75 16 -112t88 -37q65 0 135 39q38 21 53 -13l25 -45q14 -26 -16 -45
q-92 -61 -215 -61q-115 0 -184.5 78.5t-41.5 203.5z" />
    <glyph glyph-name="Wgrave" unicode="&#x1e80;" horiz-adv-x="2043" 
d="M963 1901h100q27 0 43 -31l151 -273q6 -17 -1 -26.5t-25 -9.5h-51q-5 0 -8.5 0.5t-7 2t-5.5 2t-5.5 3.5t-4 4t-5 6t-5.5 6l-199 277q-11 14 -3.5 26.5t26.5 12.5zM1153 1239l-578 -1206q-14 -33 -49 -33h-123q-32 0 -38 33l-172 1362q-4 17 6 28t28 11h84q28 0 31 -33
l152 -1239l591 1239q14 33 45 33h105q34 0 37 -33l172 -1231l573 1231q14 33 43 33h90q18 0 24.5 -10t-3.5 -29l-645 -1362q-20 -33 -51 -33h-113q-32 0 -41 33z" />
    <glyph glyph-name="wgrave" unicode="&#x1e81;" horiz-adv-x="1503" 
d="M610 1417h101q27 0 43 -31l151 -272q6 -17 -1.5 -27t-24.5 -10h-52q-6 0 -10.5 1t-7 1.5t-6.5 4t-5 4.5t-5.5 6.5t-6.5 7.5l-198 276q-11 14 -4 26.5t26 12.5zM801 760l-344 -727q-14 -33 -51 -33h-105q-36 0 -39 33l-145 878q-4 16 5.5 27.5t24.5 11.5h80q32 0 35 -28
l117 -768l362 764q14 32 45 32h95q29 0 32 -32l103 -764l381 766q17 30 45 30h78q17 0 22.5 -11t-2.5 -28l-450 -878q-14 -33 -52 -33h-96q-34 0 -37 33z" />
    <glyph glyph-name="Wacute" unicode="&#x1e82;" horiz-adv-x="2043" 
d="M1366 1901h102q17 0 24 -13.5t-1 -25.5l-211 -277q-9 -10 -12.5 -13.5t-11.5 -7t-19 -3.5h-51q-18 0 -26 9.5t-1 26.5l164 273q7 12 10.5 16t12 9.5t20.5 5.5zM1153 1239l-578 -1206q-14 -33 -49 -33h-123q-32 0 -38 33l-172 1362q-4 17 6 28t28 11h84q28 0 31 -33
l152 -1239l591 1239q14 33 45 33h105q34 0 37 -33l172 -1231l573 1231q14 33 43 33h90q18 0 24.5 -10t-3.5 -29l-645 -1362q-20 -33 -51 -33h-113q-32 0 -41 33z" />
    <glyph glyph-name="wacute" unicode="&#x1e83;" horiz-adv-x="1503" 
d="M1014 1417h102q17 0 24 -13.5t-1 -25.5l-211 -276q-18 -21 -29 -24q-6 -1 -14 -1h-51q-18 0 -26 10t-1 27l164 272q7 12 10.5 16t12 9.5t20.5 5.5zM801 760l-344 -727q-14 -33 -51 -33h-105q-36 0 -39 33l-145 878q-4 16 5.5 27.5t24.5 11.5h80q32 0 35 -28l117 -768
l362 764q14 32 45 32h95q29 0 32 -32l103 -764l381 766q17 30 45 30h78q17 0 22.5 -11t-2.5 -28l-450 -878q-14 -33 -52 -33h-96q-34 0 -37 33z" />
    <glyph glyph-name="Wdieresis" unicode="&#x1e84;" horiz-adv-x="2043" 
d="M924 1667q5 45 40 79t78 34q47 0 76.5 -34t24.5 -79t-40 -78t-79 -33t-74 33.5t-26 77.5zM1296 1667q5 45 40 79t79 34q47 0 77.5 -34t25.5 -79q-5 -44 -41 -77.5t-80 -33.5t-74.5 33.5t-26.5 77.5zM1153 1239l-578 -1206q-14 -33 -49 -33h-123q-32 0 -38 33l-172 1362
q-4 17 6 28t28 11h84q28 0 31 -33l152 -1239l591 1239q14 33 45 33h105q34 0 37 -33l172 -1231l573 1231q14 33 43 33h90q18 0 24.5 -10t-3.5 -29l-645 -1362q-20 -33 -51 -33h-113q-32 0 -41 33z" />
    <glyph glyph-name="wdieresis" unicode="&#x1e85;" horiz-adv-x="1503" 
d="M571 1184q5 44 40.5 78t78.5 34q47 0 76.5 -33.5t24.5 -78.5t-40 -78t-79 -33t-74.5 33.5t-26.5 77.5zM944 1184q5 45 40 78.5t79 33.5q47 0 77 -33.5t25 -78.5q-5 -44 -41 -77.5t-80 -33.5t-74 33.5t-26 77.5zM801 760l-344 -727q-14 -33 -51 -33h-105q-36 0 -39 33
l-145 878q-4 16 5.5 27.5t24.5 11.5h80q32 0 35 -28l117 -768l362 764q14 32 45 32h95q29 0 32 -32l103 -764l381 766q17 30 45 30h78q17 0 22.5 -11t-2.5 -28l-450 -878q-14 -33 -52 -33h-96q-34 0 -37 33z" />
    <glyph glyph-name="Ygrave" unicode="&#x1ef2;" horiz-adv-x="1259" 
d="M551 1901h100q27 0 43 -31l152 -273q6 -17 -1.5 -26.5t-25.5 -9.5h-51q-5 0 -8.5 0.5t-7 2t-5.5 2t-5.5 3.5t-4 4t-5 6t-5.5 6l-199 277q-11 14 -3.5 26.5t26.5 12.5zM586 0h-76q-14 0 -23.5 11t-5.5 24l103 577l-379 785q-7 12 -0.5 24.5t22.5 12.5h95q26 0 38 -27
l312 -651h6l532 651q21 27 47 27h115q14 0 18.5 -12t-6.5 -25l-655 -785l-104 -577q-1 -13 -13 -24t-26 -11z" />
    <glyph glyph-name="ygrave" unicode="&#x1ef3;" horiz-adv-x="952" 
d="M322 1417h100q28 0 43 -31l151 -272q6 -17 -1.5 -27t-24.5 -10h-51q-6 0 -10.5 1t-7 1.5t-6.5 4t-5 4.5t-5.5 6.5t-6.5 7.5l-199 276q-11 14 -3.5 26.5t26.5 12.5zM51 -467q-84 0 -152.5 33t-101.5 76q-19 26 6 51l35 37q27 27 60 -6q22 -20 39.5 -32.5t49.5 -24
t66 -11.5q121 0 197 141l112 203h-38q-29 0 -35 27l-164 884q-6 39 33 39h80q30 0 36 -32l140 -805l417 805q16 32 46 32h90q18 0 24 -11t-4 -28l-618 -1163q-112 -215 -318 -215z" />
    <glyph glyph-name="endash" unicode="&#x2013;" horiz-adv-x="1179" 
d="M1020 475h-860q-15 0 -24 9.5t-5 27.5l12 74q9 35 41 35h860q15 0 25 -10.5t6 -26.5l-12 -74q-8 -35 -43 -35z" />
    <glyph glyph-name="emdash" unicode="&#x2014;" horiz-adv-x="2060" 
d="M1903 475h-1743q-15 0 -24 9.5t-5 27.5l12 74q9 35 41 35h1743q15 0 24 -10.5t5 -26.5l-12 -74q-8 -35 -41 -35z" />
    <glyph glyph-name="quoteleft" unicode="&#x2018;" horiz-adv-x="471" 
d="M510 1399l-131 -176q43 -11 70.5 -46.5t23.5 -78.5q-5 -57 -43.5 -93t-95.5 -36q-56 0 -95 42.5t-38 104.5q2 40 26.5 89t61 93t69 77t60.5 57q39 39 69 20l15 -8q33 -20 8 -45z" />
    <glyph glyph-name="quoteright" unicode="&#x2019;" horiz-adv-x="464" 
d="M223 1030l131 174q-43 12 -70.5 48t-23.5 79q4 57 42.5 93t94.5 36t96 -42.5t39 -104.5q-2 -42 -26.5 -91t-61.5 -93t-68.5 -76t-60.5 -56q-38 -38 -71 -20l-13 8q-30 17 -8 45z" />
    <glyph glyph-name="quotesinglbase" unicode="&#x201a;" horiz-adv-x="491" 
d="M25 -180l133 174q-42 11 -68 46t-22 77q4 57 43 92t96 35q55 0 94 -43t35 -103q-2 -41 -27 -89t-64.5 -92t-70 -74t-61.5 -56q-43 -33 -68 -18l-12 6q-33 20 -8 45z" />
    <glyph glyph-name="quotedblleft" unicode="&#x201c;" horiz-adv-x="839" 
d="M879 1397l-134 -176q43 -11 72 -46.5t25 -78.5q-4 -57 -44 -93t-96 -36q-57 0 -97 42.5t-36 104.5q2 43 26 92t60 92t68.5 75.5t62.5 56.5q38 38 70 20l12 -8q33 -17 11 -45zM510 1397l-131 -176q43 -11 70.5 -46.5t23.5 -78.5q-5 -57 -43.5 -93t-95.5 -36
q-56 0 -95 42.5t-38 104.5q2 42 26.5 91t61.5 93t68.5 76t60.5 56q39 39 69 20l15 -8q33 -20 8 -45z" />
    <glyph glyph-name="quotedblright" unicode="&#x201d;" horiz-adv-x="833" 
d="M223 1030l131 174q-43 12 -70.5 48t-23.5 79q4 57 42.5 93t94.5 36t96 -42.5t39 -104.5q-2 -42 -26.5 -91t-61.5 -93t-68.5 -76t-60.5 -56q-38 -38 -71 -20l-13 8q-30 17 -8 45zM590 1030l131 174q-43 12 -70.5 48t-23.5 79q5 57 43.5 93t95.5 36t97 -42.5t36 -104.5
q-2 -43 -26 -92t-60 -92t-68.5 -75.5t-62.5 -56.5q-39 -39 -70 -20l-12 8q-31 18 -10 45z" />
    <glyph glyph-name="quotedblbase" unicode="&#x201e;" horiz-adv-x="862" 
d="M27 -184l131 176q-43 11 -71 46.5t-24 78.5q4 57 43.5 93t96.5 36t97 -43t36 -105q-3 -56 -45 -123.5t-85.5 -112t-86.5 -79.5q-40 -40 -70 -21l-12 9q-32 17 -10 45zM393 -184l133 176q-43 11 -70.5 46.5t-23.5 78.5q4 57 42.5 93t94.5 36q57 0 97 -43t36 -105
q-3 -56 -45 -123.5t-85.5 -112t-86.5 -79.5q-38 -38 -69 -21l-13 9q-32 17 -10 45z" />
    <glyph glyph-name="dagger" unicode="&#x2020;" horiz-adv-x="864" 
d="M586 973l-113 -637q-9 -33 -39 -33h-63q-30 0 -27 33l113 637h-248q-33 0 -27 33l11 55q6 33 38 33h248l53 307q3 33 37 33h64q12 0 21 -10t8 -23l-56 -307h250q13 0 21 -8.5t4 -24.5l-9 -55q-6 -33 -38 -33h-248z" />
    <glyph glyph-name="daggerdbl" unicode="&#x2021;" horiz-adv-x="864" 
d="M487 422l-69 -389q-3 -33 -37 -33h-64q-29 0 -26 33l69 389h-249q-33 0 -27 33l10 55q6 33 39 33h248l61 348h-247q-33 0 -27 33l10 55q6 33 39 33h246l69 389q3 33 37 33h64q32 0 29 -33l-70 -389h252q13 0 20.5 -8.5t3.5 -24.5l-8 -55q-6 -33 -39 -33h-250l-63 -348
h252q13 0 20.5 -8.5t3.5 -24.5l-8 -55q-6 -33 -39 -33h-250z" />
    <glyph glyph-name="bullet" unicode="&#x2022;" horiz-adv-x="698" 
d="M381 545q-76 0 -128 54.5t-48 131.5q6 78 63 132.5t135 54.5q76 0 127.5 -55t47.5 -132q-4 -78 -61.5 -132t-135.5 -54z" />
    <glyph glyph-name="ellipsis" unicode="&#x2026;" horiz-adv-x="1523" 
d="M184 -27q-56 0 -92 40t-31 96q4 55 47 95t97 40q57 0 92.5 -39.5t30.5 -95.5q-4 -55 -47 -95.5t-97 -40.5zM705 -27q-55 0 -91.5 40t-31.5 96t47.5 95.5t97.5 39.5q57 0 92.5 -39.5t30.5 -95.5t-47.5 -96t-97.5 -40zM1225 -27q-55 0 -90.5 40t-30.5 96t47.5 95.5
t97.5 39.5q54 0 89.5 -40t31.5 -95q-5 -56 -47 -96t-98 -40z" />
    <glyph glyph-name="perthousand" unicode="&#x2030;" horiz-adv-x="2095" 
d="M176 985q0 123 37 227.5t109 169t165 64.5q101 0 163.5 -73t62.5 -208q0 -123 -37 -227t-109.5 -168.5t-165.5 -64.5q-101 0 -163 72.5t-62 207.5zM1407 1386l-1159 -1347q-20 -25 -30 -32t-28 -7h-36q-19 0 -24.5 13.5t11.5 33.5l1159 1348q20 25 30 32t28 7h37
q19 0 24 -14t-12 -34zM279 983q0 -97 37 -142.5t92 -45.5q79 0 141.5 104.5t62.5 267.5q0 97 -37.5 143t-91.5 46q-82 0 -143 -104.5t-61 -268.5zM1477 264q0 123 37 227.5t109 169t165 64.5q100 0 161.5 -73t61.5 -208q0 -124 -36.5 -227.5t-108.5 -168t-166 -64.5
q-98 0 -160.5 73t-62.5 207zM821 264q0 123 37 227.5t109.5 169t165.5 64.5q100 0 161.5 -73t61.5 -208q0 -123 -36.5 -227t-109 -168.5t-166.5 -64.5q-98 0 -160.5 73t-62.5 207zM1577 262q0 -97 37 -142.5t92 -45.5q82 0 143.5 104t61.5 268q0 97 -37 143t-90 46
q-81 0 -144 -105t-63 -268zM922 262q0 -97 37 -142.5t92 -45.5q82 0 143 104t61 268q0 97 -37 143t-92 46q-79 0 -141.5 -105t-62.5 -268z" />
    <glyph glyph-name="guilsinglleft" unicode="&#x2039;" horiz-adv-x="557" 
d="M356 61h-53q-32 0 -45 29l-152 389q-10 29 11 56l264 362q23 29 49 29h74q13 0 17.5 -11t-5.5 -24l-264 -397l129 -398q5 -13 -2 -24t-23 -11z" />
    <glyph glyph-name="guilsinglright" unicode="&#x203a;" horiz-adv-x="548" 
d="M219 926h55q31 0 41 -29l136 -387q9 -33 -9 -57l-264 -363q-23 -29 -49 -29h-74q-13 0 -18.5 10.5t4.5 24.5l264 398l-112 397q-4 16 4.5 25.5t21.5 9.5z" />
    <glyph glyph-name="fraction" unicode="&#x2044;" horiz-adv-x="221" 
d="M788 1389l-1165 -1350q-16 -21 -28.5 -30t-30.5 -9h-29q-20 0 -25 14t11 31l1165 1350q16 21 28.5 30t30.5 9h29q20 0 25 -14t-11 -31z" />
    <glyph glyph-name="zerosuperior" unicode="&#x2070;" horiz-adv-x="653" 
d="M530 1755q105 0 166.5 -74t61.5 -204q0 -87 -20.5 -169t-58.5 -148.5t-98.5 -107t-134.5 -40.5q-106 0 -166.5 75t-60.5 205q0 119 34 222t106.5 172t170.5 69zM453 1098q56 0 104 52t75 140t27 189q0 99 -38 145.5t-99 46.5q-55 0 -102.5 -53.5t-75 -141t-27.5 -184.5
q0 -99 38.5 -146.5t97.5 -47.5z" />
    <glyph glyph-name="foursuperior" unicode="&#x2074;" horiz-adv-x="651" 
d="M528 1225h-344q-19 0 -16 18l8 49q3 21 21 39l374 389q17 17 33 17h90q20 0 17 -19l-72 -413h113q19 0 16 -19l-8 -43q-3 -18 -23 -18h-112l-33 -185q-3 -20 -27 -20h-53q-19 0 -16 20zM281 1305h262l57 331z" />
    <glyph glyph-name="fivesuperior" unicode="&#x2075;" horiz-adv-x="618" 
d="M432 1010q-89 0 -157.5 38.5t-98.5 102.5q-10 24 10 33l43 18q19 9 33 -10q55 -98 174 -98q74 0 123 47t49 114q0 66 -43 105t-110 39q-10 0 -20 -1t-17.5 -2t-17.5 -4.5t-14.5 -5t-15.5 -6.5t-13 -6l-14 -7t-13 -7q-15 -9 -33 -2l-47 18q-13 6 -10 21l88 321q6 19 26 19
h373q19 0 16 -19l-8 -51q-3 -20 -24 -20h-318l-55 -199q65 35 135 35q100 0 168 -61t68 -158q0 -107 -78 -180.5t-199 -73.5z" />
    <glyph glyph-name="sixsuperior" unicode="&#x2076;" horiz-adv-x="624" 
d="M449 1010q-109 0 -179.5 67.5t-70.5 171.5q0 74 33.5 147.5t93.5 139t110.5 110t116.5 93.5q11 8 31 6l71 -6q10 -1 11 -9t-7 -14q-16 -14 -93 -78.5t-129.5 -113.5t-84.5 -88q68 51 152 51q88 0 155.5 -59t67.5 -156q0 -111 -80 -186.5t-198 -75.5zM475 1411
q-79 0 -128.5 -51.5t-49.5 -120.5q0 -65 43.5 -104t110.5 -39q79 0 127.5 50.5t48.5 119.5q0 66 -43.5 105.5t-108.5 39.5z" />
    <glyph glyph-name="sevensuperior" unicode="&#x2077;" horiz-adv-x="538" 
d="M303 1020h-76q-20 0 -10 24l393 603h-358q-17 0 -14 18l8 51q3 21 24 21h447q17 0 14 -19l-6 -35q-3 -22 -18 -43l-381 -608q-6 -12 -23 -12z" />
    <glyph glyph-name="eightsuperior" unicode="&#x2078;" horiz-adv-x="663" 
d="M457 1014q-120 0 -192 58.5t-72 148.5q0 72 50 124t126 72q-41 20 -64.5 57.5t-23.5 81.5q0 88 70 143.5t179 55.5q105 0 171.5 -51.5t66.5 -132.5q0 -60 -39.5 -107.5t-101.5 -66.5q53 -20 82.5 -64.5t29.5 -99.5q0 -92 -76.5 -155.5t-205.5 -63.5zM520 1442
q70 0 112 36t42 87q0 49 -39.5 80.5t-106.5 31.5q-69 0 -110 -36.5t-41 -86.5q0 -49 38 -80.5t105 -31.5zM469 1368q-81 0 -127.5 -41t-46.5 -98q0 -58 44.5 -95.5t121.5 -37.5q81 0 127.5 41t46.5 98q0 58 -44.5 95.5t-121.5 37.5z" />
    <glyph glyph-name="ninesuperior" unicode="&#x2079;" horiz-adv-x="624" 
d="M395 1026q-11 -8 -30 -6l-72 6q-10 1 -11 9t7 14q16 14 93 78.5t129.5 113.5t84.5 88q-68 -51 -152 -51q-88 0 -155.5 59t-67.5 156q0 110 80.5 186t198.5 76q109 0 179.5 -67.5t70.5 -171.5q0 -233 -355 -490zM473 1354q79 0 128.5 51.5t49.5 120.5q0 65 -43 104
t-110 39q-79 0 -127.5 -50.5t-48.5 -119.5q0 -66 43 -105.5t108 -39.5z" />
    <glyph glyph-name="zeroinferior" unicode="&#x2080;" horiz-adv-x="653" 
d="M297 428q105 0 166 -74t61 -204q0 -118 -34 -221.5t-106.5 -173.5t-170.5 -70q-106 0 -166.5 75t-60.5 205q0 119 34 222t106.5 172t170.5 69zM219 -229q56 0 104 52t75.5 140t27.5 189q0 99 -38 145.5t-99 46.5q-55 0 -102.5 -53.5t-75 -141t-27.5 -184.5
q0 -99 38 -146.5t97 -47.5z" />
    <glyph glyph-name="oneinferior" unicode="&#x2081;" horiz-adv-x="348" 
d="M-8 260l8 45q3 19 18 19h27q45 0 65 14t40 53q10 19 34 19h37q18 0 15 -17l-121 -680q-3 -20 -23 -20h-57q-20 0 -17 20l95 531h-107q-17 0 -14 16z" />
    <glyph glyph-name="twoinferior" unicode="&#x2082;" horiz-adv-x="610" 
d="M408 -307h-459q-18 0 -15 20l11 49q8 22 20 31l246 193q107 83 146.5 130.5t39.5 102.5q0 54 -37.5 85.5t-93.5 31.5q-62 0 -103 -37.5t-61 -93.5q-9 -28 -32 -21l-50 13q-21 6 -12 28q27 90 95.5 143.5t170.5 53.5q94 0 159 -54t65 -139q0 -77 -46.5 -142t-168.5 -153
l-209 -155h350q19 0 16 -17l-8 -49q-3 -20 -24 -20z" />
    <glyph glyph-name="threeinferior" unicode="&#x2083;" horiz-adv-x="624" 
d="M201 -311q-122 0 -190 67.5t-56 163.5l2 14q3 19 25 19h45q25 0 22 -23l-2 -18q-5 -52 35.5 -95.5t124.5 -43.5q79 0 122.5 46.5t43.5 106.5q0 57 -42 93t-118 36h-47q-13 0 -10 15l6 43q3 18 12 24l223 191h-334q-19 0 -16 18l10 53q3 17 23 17h426q18 0 18 -17l-6 -45
q-3 -29 -16 -37l-230 -194q88 -5 144.5 -58.5t56.5 -134.5q0 -98 -73 -169.5t-199 -71.5z" />
    <glyph glyph-name="fourinferior" unicode="&#x2084;" horiz-adv-x="651" 
d="M295 -102h-344q-20 0 -17 18l9 49q3 22 20 39l375 389q17 17 33 17h90q19 0 16 -19l-71 -414h112q20 0 17 -18l-9 -43q-3 -18 -22 -18h-113l-33 -185q-3 -20 -26 -20h-53q-20 0 -17 20zM47 -23h262l58 332z" />
    <glyph glyph-name="fiveinferior" unicode="&#x2085;" horiz-adv-x="618" 
d="M199 -317q-89 0 -157.5 38.5t-98.5 102.5q-10 24 10 33l43 18q19 9 33 -10q55 -98 174 -98q74 0 123 47t49 114q0 66 -43 105t-111 39q-10 0 -20 -1t-17.5 -2t-17.5 -4.5t-14.5 -5t-15.5 -6.5t-13 -6l-14 -7t-13 -7q-15 -9 -33 -2l-47 18q-13 6 -10 21l88 321q6 19 27 19
h373q19 0 16 -19l-8 -51q-3 -21 -25 -21h-317l-56 -198q65 35 136 35q100 0 167.5 -61t67.5 -158q0 -108 -77.5 -181t-198.5 -73z" />
    <glyph glyph-name="sixinferior" unicode="&#x2086;" horiz-adv-x="624" 
d="M215 -317q-109 0 -179.5 67.5t-70.5 171.5q0 74 33.5 147.5t93.5 139t110.5 110t116.5 93.5q11 8 31 6l72 -6q10 -1 11 -9t-7 -14q-16 -14 -93 -78.5t-129.5 -113.5t-84.5 -88q68 51 151 51q88 0 156 -59t68 -156q0 -110 -80.5 -186t-198.5 -76zM242 84q-79 0 -129 -51.5
t-50 -120.5q0 -65 43.5 -104t110.5 -39q79 0 127.5 50.5t48.5 119.5q0 66 -43 105.5t-108 39.5z" />
    <glyph glyph-name="seveninferior" unicode="&#x2087;" horiz-adv-x="538" 
d="M68 -307h-76q-20 0 -10 24l393 602h-359q-17 0 -14 19l8 51q3 21 25 21h446q18 0 15 -19l-7 -35q-3 -22 -18 -43l-381 -608q-6 -12 -22 -12z" />
    <glyph glyph-name="eightinferior" unicode="&#x2088;" horiz-adv-x="663" 
d="M223 -313q-120 0 -192 58.5t-72 148.5q0 72 50 124t126 72q-41 20 -64.5 57.5t-23.5 81.5q0 87 70.5 143t179.5 56q105 0 171.5 -51.5t66.5 -132.5q0 -60 -40 -107.5t-102 -66.5q53 -20 83 -64.5t30 -99.5q0 -92 -77 -155.5t-206 -63.5zM287 115q70 0 111.5 35.5
t41.5 87.5q0 49 -39 80.5t-106 31.5q-69 0 -110.5 -36.5t-41.5 -86.5q0 -49 38.5 -80.5t105.5 -31.5zM236 41q-81 0 -128 -41t-47 -98q0 -58 44.5 -95.5t121.5 -37.5q81 0 127.5 41t46.5 98q0 58 -44 95.5t-121 37.5z" />
    <glyph glyph-name="nineinferior" unicode="&#x2089;" horiz-adv-x="624" 
d="M162 -301q-11 -8 -31 -6l-72 6q-10 1 -11 8.5t7 13.5q13 12 92 78.5t131 114.5t84 88q-68 -51 -151 -51q-88 0 -155.5 59t-67.5 156q0 111 80 186.5t198 75.5q109 0 179.5 -68t70.5 -172q0 -233 -354 -489zM240 27q79 0 128.5 51.5t49.5 120.5q0 65 -43.5 104t-110.5 39
q-79 0 -127.5 -50.5t-48.5 -119.5q0 -66 43.5 -105.5t108.5 -39.5z" />
    <glyph glyph-name="Euro" unicode="&#x20ac;" horiz-adv-x="1376" 
d="M750 -27q-227 0 -365.5 145t-146.5 384h-119q-15 0 -25 9t-6 26l8 41q8 32 41 32h101q15 127 36 211h-100q-15 0 -25 9t-6 26l9 41q9 33 41 33h114q85 246 248.5 388t390.5 142q153 0 271 -62.5t180 -172.5q17 -28 -17 -47l-43 -25q-17 -11 -31.5 -8.5t-31.5 22.5
q-125 162 -336 162q-319 0 -469 -399h502q14 0 23 -10t5 -23l-8 -41q-6 -35 -39 -35h-524q-31 -97 -41 -211h528q14 0 23.5 -9.5t5.5 -22.5l-8 -41q-6 -35 -39 -35h-512q12 -192 109 -295t264 -103q212 0 377 179q27 29 61 2l43 -35q25 -22 2 -49q-196 -228 -491 -228z" />
    <glyph glyph-name="litre" unicode="&#x2113;" horiz-adv-x="841" 
d="M438 -27q-136 0 -209.5 87t-48.5 221l41 231q-12 -6 -31.5 -16.5t-34 -18.5t-24.5 -14q-26 -12 -41 12l-16 37q-16 29 16 45q21 9 83.5 45t68.5 39l90 504q60 315 305 315q120 0 186 -83t54 -212q-19 -156 -143 -296.5t-374 -286.5l-51 -285q-17 -98 19 -151.5t112 -53.5
q58 0 106 32t77 93q15 30 51 16l45 -20q28 -13 14 -45q-41 -95 -120 -145t-175 -50zM756 1153q10 90 -25.5 142.5t-103.5 52.5q-65 0 -106.5 -51t-59.5 -144l-78 -438q181 125 272 226t101 212z" />
    <glyph glyph-name="trademark" unicode="&#x2122;" horiz-adv-x="1781" 
d="M227 1364l6 41q3 29 31 29h615q25 0 22 -29l-6 -41q-3 -27 -31 -27h-254l-100 -575q-12 -31 -35 -31h-51q-10 0 -17.5 9.5t-5.5 21.5l101 575h-254q-24 0 -21 27zM1196 1405l137 -401l266 401q16 29 46 29h112q11 0 18.5 -8.5t6.5 -20.5l-115 -645q-2 -11 -12.5 -20
t-22.5 -9h-51q-11 0 -18.5 9.5t-6.5 19.5l101 555l-275 -404q-16 -28 -45 -28h-39q-29 0 -38 28l-142 406l-98 -557q-2 -11 -11.5 -20t-21.5 -9h-49q-12 0 -18.5 9t-4.5 20l113 645q1 12 13 20.5t24 8.5h96q29 0 35 -29z" />
    <glyph glyph-name="Omega" unicode="&#x2126;" horiz-adv-x="1449" 
d="M610 401l-65 -366q-6 -35 -41 -35h-361q-13 0 -19.5 10t-4.5 23l10 63q6 35 43 35h260l45 250q-52 20 -103.5 57.5t-100 94t-79 138.5t-30.5 175q0 123 47 233.5t132 195.5t215 135t286 50q129 0 240 -41t186.5 -111t118.5 -165t43 -201q0 -101 -30 -189.5t-77 -151
t-110.5 -113t-124.5 -81t-125 -49.5l-41 -227h256q35 0 32 -33l-10 -63q-12 -35 -43 -35h-354q-33 0 -27 35l66 366q0 2 1.5 7.5t2 7.5t2 6.5t3 6.5t3.5 5.5t4.5 5.5t6 5t7.5 4.5t9 3.5q70 24 127 52.5t110 70.5t89 91.5t57.5 116.5t21.5 146q0 183 -130 293t-318 110
q-240 0 -386.5 -140t-146.5 -351q0 -247 281 -389q28 -15 22 -52z" />
    <glyph glyph-name="estimated" unicode="&#x212e;" horiz-adv-x="1802" 
d="M1749 705h-1270q-18 0 -18 -25v-352q0 -82 84.5 -150t199 -102.5t222.5 -34.5q156 0 290.5 52t231.5 153l3 3q7 8 11 11t11.5 5.5t17.5 2.5h43q10 0 13 -8t-3 -16q-111 -129 -269.5 -198t-348.5 -69q-171 0 -322 58.5t-257.5 158.5t-168 238t-61.5 291q0 151 60 286
t165.5 234t257.5 157t326 58q186 0 338.5 -56t253.5 -154.5t158 -229.5t63 -283q0 -12 -9.5 -21t-21.5 -9zM461 1069v-283q0 -18 18 -18h977q19 0 19 18v283q0 87 -42.5 152t-116 102.5t-161.5 55.5t-188 18q-75 0 -145 -11t-136.5 -36t-115.5 -62t-79 -93t-30 -126z" />
    <glyph glyph-name="onethird" unicode="&#x2153;" horiz-adv-x="1449" 
d="M1311 1389l-1164 -1350q-16 -21 -28.5 -30t-30.5 -9h-29q-21 0 -26 14t12 31l1163 1350q16 20 28.5 29.5t31.5 9.5h28q21 0 26.5 -14t-11.5 -31zM219 1284l8 45q3 19 19 19h26q45 0 65 14t40 53q9 19 35 19h37q17 0 14 -17l-121 -680q-3 -20 -23 -20h-57q-19 0 -16 20
l94 531h-107q-17 0 -14 16zM1057 -10q-122 0 -190 67.5t-56 163.5l2 15q3 18 25 18h45q25 0 22 -23l-2 -18q-5 -52 35.5 -95.5t124.5 -43.5q79 0 122.5 46.5t43.5 106.5q0 57 -42 93t-118 36h-47q-13 0 -10 15l6 43q3 18 12 24l223 191h-333q-20 0 -17 18l10 53q3 17 23 17
h426q18 0 18 -17l-6 -45q-3 -29 -16 -37l-230 -194q88 -5 144.5 -58.5t56.5 -134.5q0 -98 -73 -169.5t-199 -71.5z" />
    <glyph glyph-name="twothirds" unicode="&#x2154;" horiz-adv-x="1576" 
d="M616 717h-458q-18 0 -15 20l11 49q8 22 20 31l246 193q107 83 146.5 130.5t39.5 102.5q0 54 -37.5 85.5t-93.5 31.5q-62 0 -103 -37.5t-61 -93.5q-9 -28 -32 -21l-50 13q-21 6 -12 28q27 90 95.5 143.5t170.5 53.5q94 0 159 -54t65 -139q0 -77 -46.5 -142t-168.5 -153
l-209 -155h350q19 0 16 -17l-8 -49q-3 -20 -25 -20zM1462 1389l-1163 -1350q-16 -21 -28.5 -30t-30.5 -9h-29q-21 0 -26 14t12 31l1163 1350q16 21 28.5 30t30.5 9h29q20 0 25 -14t-11 -31zM1186 -10q-122 0 -190 67.5t-56 163.5l2 15q3 18 25 18h45q25 0 22 -23l-2 -18
q-5 -52 35.5 -95.5t124.5 -43.5q79 0 122.5 46.5t43.5 106.5q0 57 -42 93t-118 36h-47q-13 0 -10 15l6 43q3 18 12 24l223 191h-333q-20 0 -17 18l10 53q3 17 23 17h426q18 0 18 -17l-6 -45q-3 -29 -16 -37l-230 -194q88 -5 144.5 -58.5t56.5 -134.5q0 -98 -73 -169.5
t-199 -71.5z" />
    <glyph glyph-name="oneeight" unicode="&#x215b;" horiz-adv-x="1454" 
d="M1307 1389l-1164 -1350q-16 -21 -28.5 -30t-30.5 -9h-29q-20 0 -25 14t11 31l1163 1350q16 20 28.5 29.5t31.5 9.5h28q21 0 26.5 -14t-11.5 -31zM227 1284l9 45q3 19 18 19h27q45 0 64.5 14t39.5 53q9 19 35 19h37q17 0 14 -17l-121 -680q-3 -20 -22 -20h-58
q-19 0 -16 20l94 531h-106q-18 0 -15 16zM1051 -12q-121 0 -193 58.5t-72 148.5q0 72 50.5 124t126.5 72q-41 20 -65 57.5t-24 81.5q0 87 70.5 143t179.5 56q105 0 171.5 -51.5t66.5 -132.5q0 -60 -39.5 -107.5t-101.5 -66.5q53 -20 82.5 -64.5t29.5 -99.5
q0 -92 -76.5 -155.5t-205.5 -63.5zM1114 416q70 0 112 36t42 87q0 49 -39.5 80.5t-106.5 31.5q-69 0 -110 -36.5t-41 -86.5q0 -49 38 -80.5t105 -31.5zM1063 342q-81 0 -127.5 -41t-46.5 -98q0 -58 44.5 -95.5t121.5 -37.5q81 0 127.5 41t46.5 98q0 58 -44.5 95.5
t-121.5 37.5z" />
    <glyph glyph-name="threeeights" unicode="&#x215c;" horiz-adv-x="1630" 
d="M1485 1389l-1163 -1350q-16 -20 -28.5 -29.5t-31.5 -9.5h-29q-20 0 -25 14t11 31l1163 1350q16 20 28.5 29.5t31.5 9.5h28q21 0 26.5 -14t-11.5 -31zM406 709q-122 0 -190 67.5t-56 163.5l2 14q3 19 24 19h45q26 0 23 -23l-2 -18q-5 -52 35.5 -95.5t124.5 -43.5
q79 0 122.5 46.5t43.5 106.5q0 57 -42 93t-118 36h-47q-14 0 -11 15l7 43q3 18 12 24l223 191h-334q-19 0 -16 18l10 53q3 17 23 17h426q18 0 18 -17l-6 -45q-3 -29 -16 -37l-230 -194q88 -5 144.5 -58.5t56.5 -134.5q0 -98 -73 -169.5t-199 -71.5zM1229 -12
q-120 0 -192 58.5t-72 148.5q0 72 50 124t126 72q-41 20 -64.5 57.5t-23.5 81.5q0 87 70.5 143t179.5 56q104 0 170.5 -51t66.5 -133q0 -60 -39.5 -107.5t-101.5 -66.5q53 -20 82.5 -64.5t29.5 -99.5q0 -92 -76.5 -155.5t-205.5 -63.5zM1292 416q70 0 112 36t42 87
q0 49 -39.5 80.5t-106.5 31.5q-69 0 -110 -36.5t-41 -86.5q0 -49 38 -80.5t105 -31.5zM1241 342q-81 0 -127.5 -41t-46.5 -98q0 -58 44.5 -95.5t121.5 -37.5q81 0 127.5 41t46.5 98q0 58 -44.5 95.5t-121.5 37.5z" />
    <glyph glyph-name="fiveeights" unicode="&#x215d;" horiz-adv-x="1617" 
d="M1470 1389l-1163 -1350q-16 -21 -28.5 -30t-30.5 -9h-29q-20 0 -25 14t11 31l1163 1350q31 39 62 39h28q19 0 24 -14t-12 -31zM406 707q-89 0 -157.5 38.5t-98.5 102.5q-10 24 10 33l43 18q19 9 33 -10q55 -98 174 -98q74 0 123 47t49 114q0 66 -43 105t-111 39
q-10 0 -20 -1t-17.5 -2t-17.5 -4.5t-14.5 -5t-15.5 -6.5t-13 -6l-14 -7t-13 -7q-15 -9 -33 -2l-47 18q-13 6 -10 21l88 321q6 19 27 19h372q20 0 17 -19l-8 -51q-3 -21 -25 -21h-317l-56 -198q65 35 135 35q100 0 168 -61t68 -158q0 -108 -77.5 -181t-198.5 -73zM1214 -12
q-120 0 -192 58.5t-72 148.5q0 72 50 124t126 72q-41 20 -64.5 57.5t-23.5 81.5q0 87 70.5 143t179.5 56q105 0 171.5 -51.5t66.5 -132.5q0 -60 -40 -107.5t-102 -66.5q53 -20 83 -64.5t30 -99.5q0 -92 -77 -155.5t-206 -63.5zM1278 416q70 0 112 36t42 87q0 49 -39.5 80.5
t-106.5 31.5q-69 0 -110 -36.5t-41 -86.5q0 -49 38 -80.5t105 -31.5zM1227 342q-81 0 -127.5 -41t-46.5 -98q0 -58 44.5 -95.5t121.5 -37.5q81 0 127.5 41t46.5 98q0 58 -44.5 95.5t-121.5 37.5z" />
    <glyph glyph-name="seveneights" unicode="&#x215e;" horiz-adv-x="1452" 
d="M1305 1389l-1164 -1350q-16 -21 -28.5 -30t-30.5 -9h-29q-20 0 -25 14t11 31l1163 1350q16 20 28.5 29.5t31.5 9.5h30q20 0 24.5 -14t-11.5 -31zM305 717h-76q-20 0 -10 24l393 602h-358q-17 0 -14 19l8 51q3 21 24 21h447q17 0 14 -19l-6 -35q-3 -22 -18 -43l-381 -608
q-6 -12 -23 -12zM1049 -12q-121 0 -193 58.5t-72 148.5q0 72 50.5 124t126.5 72q-41 20 -65 57.5t-24 81.5q0 87 70.5 143t179.5 56q105 0 171.5 -51.5t66.5 -132.5q0 -60 -39.5 -107.5t-101.5 -66.5q53 -20 82.5 -64.5t29.5 -99.5q0 -92 -76.5 -155.5t-205.5 -63.5z
M1112 416q70 0 112 36t42 87q0 49 -39.5 80.5t-106.5 31.5q-69 0 -110 -36.5t-41 -86.5q0 -49 38 -80.5t105 -31.5zM1061 342q-81 0 -127.5 -41t-46.5 -98q0 -58 44.5 -95.5t121.5 -37.5q81 0 127.5 41t46.5 98q0 58 -44.5 95.5t-121.5 37.5z" />
    <glyph glyph-name="arrowup" unicode="&#x2191;" horiz-adv-x="1638" 
d="M389 1053l496 450q19 16 35 0l495 -450q27 -21 27 -47v-111q0 -11 -11.5 -16.5t-23.5 4.5l-436 401v-1325q0 -16 -10.5 -25.5t-24.5 -9.5h-68q-13 0 -23.5 10.5t-10.5 24.5v1325l-437 -399q-12 -11 -22 -6t-10 18v109q0 23 24 47z" />
    <glyph glyph-name="arrowdown" unicode="&#x2193;" horiz-adv-x="1638" 
d="M807 -70l-496 451q-24 24 -24 47v109q0 13 10 18t22 -6l437 -399v1325q0 13 10.5 23.5t24.5 10.5h67q15 0 25 -9t10 -25v-1325l436 401q12 10 23.5 4.5t11.5 -16.5v-111q0 -26 -27 -47l-495 -451q-16 -16 -35 0z" />
    <glyph glyph-name="arrowupleft" unicode="&#x2196;" horiz-adv-x="1802" 
d="M408 1391l667 32q37 3 53 -16l76 -76q9 -7 5.5 -19.5t-19.5 -13.5l-592 -26l985 -983q11 -11 11.5 -25.5t-9.5 -25.5l-47 -48q-10 -10 -25 -10t-26 10l-985 986l-25 -592q-1 -16 -14.5 -19t-20.5 6l-75 74q-20 23 -17 53l33 666q0 27 25 27z" />
    <glyph glyph-name="arrowupright" unicode="&#x2197;" horiz-adv-x="1802" 
d="M786 1423l668 -32q25 0 25 -27l32 -666q3 -34 -16 -53l-76 -74q-7 -9 -20.5 -6t-14.5 19l-24 592l-985 -986q-11 -10 -26 -10t-25 10l-48 48q-10 11 -9 25.5t12 25.5l985 983l-592 26q-16 1 -20 13.5t5 19.5l76 76q16 19 53 16z" />
    <glyph glyph-name="arrowdownright" unicode="&#x2198;" horiz-adv-x="1802" 
d="M1497 211l-668 -33q-36 -3 -53 17l-76 75q-9 7 -5 19.5t20 13.5l592 27l-985 983q-11 11 -12 25.5t9 25.5l48 47q27 27 51 0l985 -985l24 592q1 16 14.5 18.5t20.5 -6.5l76 -74q19 -16 16 -53l-32 -665q0 -27 -25 -27z" />
    <glyph glyph-name="arrowdownleft" unicode="&#x2199;" horiz-adv-x="1802" 
d="M1139 178l-668 33q-25 0 -25 27l-32 665q-3 34 16 53l76 74q7 9 20.5 6.5t14.5 -18.5l24 -592l985 985q28 28 52 0l47 -47q10 -11 9.5 -25.5t-11.5 -25.5l-985 -983l591 -27q16 -1 20 -13.5t-5 -19.5l-76 -75q-17 -20 -53 -17z" />
    <glyph glyph-name="partialdiff" unicode="&#x2202;" horiz-adv-x="1118" 
d="M1047 551q0 -152 -63 -283t-184.5 -213t-277.5 -82q-89 0 -169.5 31t-142 88t-98 144t-36.5 192q0 149 63 272.5t179 197t260 73.5q87 0 167.5 -31.5t133.5 -99.5q-29 79 -72 157.5t-79.5 133t-94 123t-85.5 98.5t-83 88q-10 10 -5 21.5t17 11.5h96q26 0 39 -13
q45 -42 91 -94t111.5 -144.5t114 -188.5t83.5 -225.5t35 -256.5zM592 852q-158 0 -266.5 -123t-108.5 -295q0 -156 87.5 -246t225.5 -90q157 0 266 123t109 295q0 153 -88 244.5t-225 91.5z" />
    <glyph glyph-name="increment" unicode="&#x2206;" horiz-adv-x="1327" 
d="M25 141l706 1260q20 33 55 33h93q34 0 43 -33l264 -1260q7 -30 4 -51l-10 -55q-12 -35 -43 -35h-1112q-13 0 -23 10.5t-8 24.5l12 55q3 25 19 51zM815 1292l-629 -1157h854z" />
    <glyph glyph-name="product" unicode="&#x220f;" horiz-adv-x="1738" 
d="M147 717q0 162 60.5 304.5t163.5 243t244 158.5t298 58q158 0 299.5 -58t244.5 -158.5t163.5 -243t60.5 -304.5q0 -161 -60.5 -303.5t-163.5 -242.5t-244.5 -158t-299.5 -58q-157 0 -298 58t-244 158t-163.5 242.5t-60.5 303.5zM1573 717q0 142 -51.5 267t-140 213
t-210 138.5t-258.5 50.5q-181 0 -331.5 -85.5t-239 -239.5t-88.5 -344q0 -189 88.5 -342.5t239 -239.5t331.5 -86q137 0 258.5 50.5t210 138.5t140 212.5t51.5 266.5zM653 1176h316q159 0 248.5 -86t89.5 -209t-89.5 -209t-248.5 -86h-219v-307q0 -11 -9.5 -20t-21.5 -9h-66
q-10 0 -19 9t-9 20v868q0 11 9 20t19 9zM1182 883q0 86 -58 136t-151 50h-223v-377h223q92 0 150.5 52t58.5 139z" />
    <glyph glyph-name="summation" unicode="&#x2211;" horiz-adv-x="1150" 
d="M403 1298l308 -540q13 -16 10 -39.5t-25 -42.5l-481 -541h762q15 0 23 -9.5t4 -25.5l-11 -65q-8 -35 -43 -35h-921q-12 0 -21 11t-8 24l10 57q8 25 21 41l534 594l-327 571q-13 21 -7 43l11 58q8 35 41 35h921q15 0 24 -9.5t5 -25.5l-12 -66q-12 -35 -41 -35h-777z" />
    <glyph glyph-name="minus" unicode="&#x2212;" horiz-adv-x="1163" 
d="M1073 762l-12 -72q-5 -14 -16.5 -24.5t-24.5 -10.5h-817q-14 0 -23.5 11t-5.5 24l12 72q5 14 16.5 24.5t24.5 10.5h820q14 0 22 -11t4 -24z" />
    <glyph glyph-name="radical" unicode="&#x221a;" horiz-adv-x="1325" 
d="M594 -244h-98q-30 0 -39 33l-183 758l-211 -94q-14 -6 -24.5 -1t-15.5 17l-15 57q-9 28 21 43l305 136q47 15 57 -25l176 -768l756 1583q14 33 47 33h86q35 0 21 -39l-832 -1700q-18 -33 -51 -33z" />
    <glyph glyph-name="infinity" unicode="&#x221e;" horiz-adv-x="1925" 
d="M578 1169q136 0 247 -79.5t183 -245.5q71 166 181.5 245.5t246.5 79.5q74 0 145 -27.5t132 -81t98.5 -142.5t37.5 -201t-37.5 -201.5t-98.5 -142.5t-132 -81t-145 -28q-136 0 -246.5 81t-181.5 247q-73 -166 -183.5 -247t-246.5 -81q-58 0 -116 17t-112 53.5t-95 88.5
t-66 128t-25 166q0 112 37.5 201t98.5 142.5t132.5 81t145.5 27.5zM580 1026q-35 0 -70 -9.5t-71.5 -33t-64.5 -57.5t-45.5 -88.5t-17.5 -120.5q0 -81 26 -143.5t68 -96.5t86.5 -50.5t88.5 -16.5q53 0 96 12.5t88.5 45t87.5 94.5t82 155q-40 93 -82 155.5t-87.5 95.5
t-88.5 45.5t-96 12.5zM1434 410q44 0 88.5 16.5t86 50.5t67.5 96.5t26 143.5q0 66 -17.5 120.5t-45.5 88.5t-64 57.5t-70.5 33t-68.5 9.5q-53 0 -96.5 -13t-89.5 -45.5t-88.5 -95t-82.5 -155.5q40 -93 82.5 -155t88 -94.5t88.5 -45t96 -12.5z" />
    <glyph glyph-name="integral" unicode="&#x222b;" horiz-adv-x="833" 
d="M236 -162l235 1331q28 154 108 224.5t207 70.5q54 0 112.5 -17.5t92.5 -47.5q22 -22 2 -47l-32 -43q-22 -30 -54 -11q-66 39 -125 39q-134 0 -172 -180l-237 -1327q-28 -154 -107.5 -224.5t-206.5 -70.5q-53 0 -111.5 18t-92.5 48q-22 22 -2 47l32 43q21 30 54 10
q66 -39 124 -39q72 0 115.5 46t57.5 130z" />
    <glyph glyph-name="approxequal" unicode="&#x2248;" horiz-adv-x="1161" 
d="M915 950q34 0 55.5 14.5t47.5 47.5q23 30 51 2l33 -29q19 -19 4 -47q-26 -45 -73.5 -79t-117.5 -34q-40 0 -257 40t-250 40q-34 0 -55.5 -14t-47.5 -47q-23 -30 -51 -2l-33 28q-20 20 -4 48q26 45 73.5 78.5t117.5 33.5q46 0 258.5 -40t248.5 -40zM842 526q34 0 54.5 14
t47.5 48q23 30 51 2l33 -29q19 -19 4 -47q-26 -45 -73 -79t-117 -34q-40 0 -257.5 40t-250.5 40q-34 0 -55.5 -14t-47.5 -47q-23 -30 -51 -2l-33 28q-20 20 -4 48q26 45 73.5 78.5t117.5 33.5q46 0 259 -40t249 -40z" />
    <glyph glyph-name="notequal" unicode="&#x2260;" horiz-adv-x="1153" 
d="M643 434l-29 -158q-1 -13 -13 -22.5t-26 -9.5h-79q-32 0 -29 32l29 158h-332q-14 0 -22.5 11t-4.5 24l10 68q9 34 41 34h332l49 289h-331q-13 0 -22 11t-5 24l10 68q11 34 43 34h330l29 158q5 14 16.5 23.5t24.5 9.5h77q32 0 29 -33l-29 -158h334q14 0 22.5 -10.5
t4.5 -23.5l-12 -68q-1 -13 -13 -24t-26 -11h-334l-49 -289h331q32 0 29 -34l-12 -68q-5 -14 -16.5 -24.5t-24.5 -10.5h-332z" />
    <glyph glyph-name="lessequal" unicode="&#x2264;" horiz-adv-x="1155" 
d="M999 463l-14 -78q-4 -23 -19.5 -29t-27.5 2l-733 344q-40 19 -29 76q12 54 55 72l852 340q15 7 29 -0.5t10 -26.5l-14 -92q-7 -29 -43 -41l-707 -260l613 -266q35 -12 28 -41zM934 102l-12 -67q-9 -35 -41 -35h-801q-15 0 -24 9.5t-5 25.5l12 67q6 35 41 35h801
q35 0 29 -35z" />
    <glyph glyph-name="greaterequal" unicode="&#x2265;" horiz-adv-x="1144" 
d="M143 385l15 92q7 29 43 41l706 260l-612 266q-19 6 -26 15.5t-3 25.5l15 78q4 21 19.5 28t27.5 -1l735 -344q38 -20 27 -76q-12 -55 -54 -72l-854 -340q-14 -8 -28.5 -1t-10.5 28zM913 0h-800q-15 0 -24 9.5t-5 25.5l12 67q6 35 41 35h801q35 0 29 -35l-13 -67
q-9 -35 -41 -35z" />
    <glyph glyph-name="filledbox" unicode="&#x25a0;" horiz-adv-x="1802" 
d="M1632 0h-1372q-12 0 -21.5 9.5t-9.5 21.5v1372q0 12 9.5 21.5t21.5 9.5h1372q12 0 21.5 -9.5t9.5 -21.5v-1372q0 -12 -9.5 -21.5t-21.5 -9.5z" />
    <glyph glyph-name="triagup" unicode="&#x25b2;" horiz-adv-x="1802" 
d="M1634 0h-1618q-11 0 -15.5 8t1.5 19l807 1380q6 11 16.5 11t16.5 -11l807 -1380q6 -11 1 -19t-16 -8z" />
    <glyph glyph-name="uni25B6" unicode="&#x25b6;" horiz-adv-x="1802" 
d="M322 -92v1618q0 11 8 15.5t18 -1.5l1381 -807q11 -6 11 -16.5t-11 -16.5l-1381 -806q-10 -6 -18 -1.5t-8 15.5z" />
    <glyph glyph-name="triagdn" unicode="&#x25bc;" horiz-adv-x="1802" 
d="M1051 27l-807 1380q-6 11 -1.5 19t15.5 8h1618q11 0 15.5 -8t-1.5 -19l-807 -1380q-6 -11 -16 -11t-16 11z" />
    <glyph glyph-name="uni25C0" unicode="&#x25c0;" horiz-adv-x="1802" 
d="M162 733l1380 807q10 6 18.5 1.5t8.5 -15.5v-1618q0 -11 -8.5 -15.5t-18.5 1.5l-1380 806q-10 6 -10 16.5t10 16.5z" />
    <glyph glyph-name="lozenge" unicode="&#x25ca;" horiz-adv-x="1966" 
d="M1917 694l-866 -868q-23 -22 -45 0l-869 868q-23 22 0 45l869 869q22 22 45 0l866 -869q23 -23 0 -45z" />
    <glyph glyph-name="uni2B24" unicode="&#x2b24;" horiz-adv-x="1802" 
d="M1663 717q0 -145 -57 -278t-153 -229t-229 -153t-278 -57t-278 57t-229 153t-153 229t-57 278t57 278t153 229t229 153t278 57t278 -57t229 -153t153 -229t57 -278z" />
    <glyph glyph-name="logo.01" unicode="&#xe00f;" horiz-adv-x="2476" 
d="M1253 -332q-158 71 -307.5 166.5t-289 223t-243.5 267.5t-166.5 309t-62.5 339q0 153 55 292.5t154 243.5q185 191 481 191q250 0 455 -176q193 172 445 172q139 0 261.5 -49t213.5 -144q98 -103 152.5 -242.5t54.5 -291.5q0 -146 -45.5 -289.5t-125.5 -267t-184 -237
t-226.5 -207.5t-245.5 -168.5t-249 -131.5q-37 -17 -63.5 -17t-63.5 17z" />
    <glyph glyph-name="commaaccent" unicode="&#xf6c3;" horiz-adv-x="487" 
d="M-23 -459l115 148q-38 11 -62 42t-20 68q4 50 39.5 81.5t85.5 31.5q51 0 85 -37.5t30 -93.5q-3 -47 -41 -105t-76 -95t-76 -68q-34 -31 -61 -19l-10 8q-26 15 -9 39z" />
    <glyph glyph-name="NULL" horiz-adv-x="0" 
 />
    <glyph glyph-name="apostrophe" horiz-adv-x="1105" 
d="M539 1028l133 176q-43 11 -72 46.5t-25 78.5q4 57 44 93t96 36q57 0 97 -42.5t36 -104.5q-6 -127 -217 -316q-38 -38 -70 -20l-12 8q-32 17 -10 45z" />
    <glyph glyph-name="apostrophemod" horiz-adv-x="456" 
d="M227 1034l121 162q-40 11 -66 46t-22 77q6 54 43.5 86.5t91.5 32.5q55 0 92 -40.5t33 -99.5q-4 -69 -73 -154t-136 -140q-11 -9 -17 -13t-15 -8.5t-17 -3.5t-16 6l-13 6q-28 21 -6 43z" />
    <glyph glyph-name="eight.dnom" horiz-adv-x="663" 
d="M276 -12q-120 0 -192 58.5t-72 148.5q0 72 50 124t126 72q-41 20 -64.5 57.5t-23.5 81.5q0 87 70.5 143t179.5 56q105 0 171.5 -51.5t66.5 -132.5q0 -60 -40 -107.5t-102 -66.5q53 -20 83 -64.5t30 -99.5q0 -92 -77 -155.5t-206 -63.5zM340 416q70 0 112 36t42 87
q0 49 -39.5 80.5t-106.5 31.5q-69 0 -110 -36.5t-41 -86.5q0 -49 38 -80.5t105 -31.5zM289 342q-81 0 -127.5 -41t-46.5 -98q0 -58 44.5 -95.5t121.5 -37.5q81 0 127.5 41t46.5 98q0 58 -44.5 95.5t-121.5 37.5z" />
    <glyph glyph-name="eight.numr" horiz-adv-x="663" 
d="M403 707q-121 0 -192.5 58t-71.5 148q0 72 50 124.5t126 72.5q-41 20 -64.5 57.5t-23.5 81.5q0 87 70.5 143t179.5 56q105 0 171.5 -51.5t66.5 -132.5q0 -60 -40 -107.5t-102 -66.5q53 -20 83 -64.5t30 -99.5q0 -92 -77 -155.5t-206 -63.5zM467 1135q70 0 112 35.5
t42 86.5q0 49 -39.5 81t-106.5 32q-69 0 -110 -36.5t-41 -86.5q0 -49 38 -80.5t105 -31.5zM416 1061q-81 0 -127.5 -41t-46.5 -98q0 -58 44.5 -96t121.5 -38q81 0 127.5 41t46.5 99t-44.5 95.5t-121.5 37.5z" />
    <glyph glyph-name="eight.onum" horiz-adv-x="1232" 
d="M596 -27q-235 0 -378.5 115.5t-143.5 290.5q0 148 101.5 257.5t268.5 143.5q-90 42 -139 118t-49 169q0 113 63 203.5t172.5 140t243.5 49.5q205 0 332 -99t127 -259q0 -125 -84.5 -224.5t-214.5 -132.5q115 -49 177.5 -139t62.5 -198q0 -188 -152 -311.5t-387 -123.5z
M717 815q153 0 247.5 83t94.5 194q0 107 -86.5 179t-239.5 72t-244.5 -81.5t-91.5 -194.5q0 -107 84.5 -179.5t235.5 -72.5zM604 702q-176 0 -278.5 -94.5t-102.5 -220.5q0 -123 101 -208t278 -85q89 0 163.5 26t122 70t73.5 100.5t26 117.5q0 124 -103.5 209t-279.5 85z
" />
    <glyph glyph-name="eight.tnum" horiz-adv-x="1216" 
d="M588 -27q-235 0 -378.5 115.5t-143.5 290.5q0 148 101.5 257.5t268.5 143.5q-90 42 -139 118t-49 169q0 113 63 203.5t172.5 140t243.5 49.5q205 0 332 -99t127 -259q0 -125 -84.5 -224.5t-214.5 -132.5q115 -49 177 -139t62 -198q0 -188 -151.5 -311.5t-386.5 -123.5z
M709 815q153 0 247.5 83t94.5 194q0 107 -86.5 179t-239.5 72t-244.5 -81.5t-91.5 -194.5q0 -107 84.5 -179.5t235.5 -72.5zM596 702q-176 0 -278.5 -94.5t-102.5 -220.5q0 -123 101 -208t278 -85q89 0 163.5 26t122 70t73.5 100.5t26 117.5q0 124 -103.5 209t-279.5 85z
" />
    <glyph glyph-name="emdash.alt" horiz-adv-x="2097" 
d="M1923 475h-1743q-15 0 -23.5 9.5t-4.5 27.5l12 74q9 35 41 35h1743q14 0 23 -10.5t5 -26.5l-12 -74q-8 -35 -41 -35z" />
    <glyph glyph-name="endash.alt" horiz-adv-x="1216" 
d="M1040 475h-860q-15 0 -23.5 9.5t-4.5 27.5l12 74q9 35 41 35h860q15 0 25 -10.5t6 -26.5l-13 -74q-8 -35 -43 -35z" />
    <glyph glyph-name="exclamdown.alt" horiz-adv-x="546" 
d="M430 1460q55 0 91.5 -39.5t31.5 -95.5q-6 -56 -48.5 -95.5t-96.5 -39.5q-55 0 -91.5 39.5t-31.5 95.5t47.5 95.5t97.5 39.5zM129 35l168 899q5 14 16.5 24.5t24.5 10.5h68q13 0 21.5 -10.5t6.5 -24.5l-147 -899q-5 -14 -16 -24.5t-23 -10.5h-90q-14 0 -23.5 11t-5.5 24z
" />
    <glyph glyph-name="five.dnom" horiz-adv-x="618" 
d="M252 -10q-89 0 -157.5 38.5t-98.5 102.5q-10 24 10 33l43 18q19 9 33 -10q55 -98 174 -98q74 0 123 47.5t49 114.5q0 66 -43 104.5t-111 38.5q-11 0 -21.5 -1t-21.5 -4t-17.5 -4.5t-18 -7t-14.5 -6.5t-16.5 -8t-14.5 -8q-15 -9 -33 -2l-47 18q-14 7 -11 21l88 321
q6 19 27 19h373q19 0 16 -19l-8 -51q-3 -20 -25 -20h-317l-55 -199q65 35 135 35q100 0 167.5 -61t67.5 -158q0 -108 -77.5 -181t-198.5 -73z" />
    <glyph glyph-name="five.numr" horiz-adv-x="618" 
d="M379 707q-89 0 -157.5 38.5t-98.5 102.5q-10 24 10 33l43 18q19 9 33 -10q55 -98 174 -98q74 0 123 47t49 114q0 66 -43.5 105t-110.5 39q-10 0 -20 -1t-17.5 -2t-17.5 -4.5t-14.5 -5t-15.5 -6.5t-13 -6l-14 -7t-13 -7q-15 -9 -32 -2l-47 18q-14 7 -11 21l88 321
q6 19 27 19h373q19 0 16 -19l-8 -51q-3 -21 -25 -21h-317l-55 -198q65 35 135 35q100 0 167.5 -61t67.5 -158q0 -108 -77.5 -181t-198.5 -73z" />
    <glyph glyph-name="five.onum" horiz-adv-x="1150" 
d="M461 -377q-171 0 -304 77.5t-190 193.5q-15 27 17 49l49 28q37 21 55 -8q126 -215 373 -215q181 0 294 112.5t113 266.5q0 147 -95.5 233t-248.5 86q-146 0 -276 -86q-32 -19 -53 -10l-58 21q-28 9 -22 35l186 641q5 14 16.5 24t24.5 10h723q32 0 29 -34l-11 -64
q-12 -35 -43 -35h-643l-137 -465q138 80 297 80q199 0 328 -116.5t129 -309.5q0 -104 -40 -198t-111 -164t-175.5 -111t-226.5 -41z" />
    <glyph glyph-name="five.tnum" horiz-adv-x="1216" 
d="M559 -25q-173 0 -302.5 76.5t-190.5 194.5q-15 27 16 49l49 29q37 20 55 -9q126 -215 373 -215q181 0 294.5 112.5t113.5 266.5q0 147 -95.5 233.5t-248.5 86.5q-147 0 -277 -86q-33 -20 -53 -11l-57 21q-29 10 -23 35l186 641q5 14 16.5 24.5t24.5 10.5h723q32 0 29 -35
l-10 -64q-12 -35 -43 -35h-643l-138 -464q136 79 297 79q199 0 328 -116.5t129 -309.5q0 -104 -40 -198t-111 -164t-175.5 -111t-226.5 -41z" />
    <glyph glyph-name="four.dnom" horiz-adv-x="651" 
d="M348 205h-344q-19 0 -16 18l8 49q3 22 20 39l375 389q17 17 33 17h90q19 0 16 -19l-71 -413h112q20 0 17 -19l-8 -43q-3 -18 -23 -18h-113l-32 -185q-3 -20 -27 -20h-53q-20 0 -17 20zM100 285h262l58 331z" />
    <glyph glyph-name="four.numr" horiz-adv-x="651" 
d="M475 922h-344q-19 0 -16 18l8 49q3 22 20 39l375 389q17 17 33 17h90q19 0 16 -19l-71 -414h112q20 0 17 -18l-8 -43q-3 -18 -23 -18h-113l-32 -185q-3 -20 -27 -20h-53q-20 0 -17 20zM227 1001h262l58 332z" />
    <glyph glyph-name="four.onum" horiz-adv-x="1179" 
d="M692 70h-682q-14 0 -23 10.5t-5 23.5l12 64q6 34 31 59l776 824q25 28 59 28h115q18 0 26.5 -9t4.5 -26l-152 -851h209q15 0 24 -9.5t5 -25.5l-11 -54q-6 -34 -43 -34h-204l-70 -389q-6 -35 -41 -35h-72q-17 0 -24 10.5t-2 24.5zM145 193h570l129 737z" />
    <glyph glyph-name="four.tnum" horiz-adv-x="1216" 
d="M774 424h-682q-14 0 -23.5 11t-5.5 24l13 63q6 36 30 60l777 823q26 29 59 29h115q39 0 30 -35l-151 -852h209q15 0 24 -9.5t5 -25.5l-11 -53q-6 -35 -43 -35h-205l-69 -389q-6 -35 -41 -35h-72q-17 0 -24 10.5t-2 24.5zM227 547h570l129 737z" />
    <glyph glyph-name="greater.alt" horiz-adv-x="1966" 
d="M1370 1233l449 -496q15 -15 0 -32l-449 -498q-19 -25 -49 -25h-111q-11 0 -15.5 10.5t5.5 22.5l399 436h-1325q-13 0 -23.5 10.5t-10.5 24.5v68q0 14 10 24t24 10h1325l-399 437q-10 12 -4.5 23.5t16.5 11.5h109q28 0 49 -27z" />
    <glyph glyph-name="guillemotleft.alt" horiz-adv-x="964" 
d="M416 266h-54q-32 0 -45 29l-151 389q-10 30 10 55l264 363q22 28 49 28h74q13 0 17.5 -10t-5.5 -24l-264 -398l129 -397q5 -13 -1.5 -24t-22.5 -11zM762 266h-53q-32 0 -45 29l-152 389q-10 29 8 55l266 363q22 28 50 28h71q13 0 18.5 -10t-3.5 -24l-265 -398l129 -397
q5 -12 -3 -23.5t-21 -11.5z" />
    <glyph glyph-name="guillemotright.alt" horiz-adv-x="958" 
d="M297 1130h55q32 0 41 -28l135 -387q9 -35 -8 -58l-264 -362q-23 -29 -49 -29h-74q-13 0 -18.5 11t4.5 24l264 397l-113 398q-4 16 4.5 25t22.5 9zM639 1130h55q32 0 41 -28l135 -387q9 -35 -8 -58l-264 -362q-23 -29 -51 -29h-72q-13 0 -18.5 11t4.5 24l264 397l-113 398
q-4 16 4.5 25t22.5 9z" />
    <glyph glyph-name="guilsinglleft.alt" horiz-adv-x="618" 
d="M416 266h-54q-32 0 -45 29l-151 389q-10 30 10 55l264 363q22 28 49 28h74q13 0 17.5 -10t-5.5 -24l-264 -398l129 -397q5 -13 -1.5 -24t-22.5 -11z" />
    <glyph glyph-name="guilsinglright.alt" horiz-adv-x="616" 
d="M297 1130h55q32 0 41 -28l135 -387q9 -35 -8 -58l-264 -362q-23 -29 -49 -29h-74q-13 0 -18.5 11t4.5 24l264 397l-113 398q-4 16 4.5 25t22.5 9z" />
    <glyph glyph-name="hyphen.alt" horiz-adv-x="733" 
d="M582 598h-389q-15 0 -24 9.5t-5 27.5l12 74q9 34 41 34h389q15 0 24 -10t5 -26l-12 -74q-8 -35 -41 -35z" />
    <glyph glyph-name="i.TRK" horiz-adv-x="411" 
d="M340 1163q-47 0 -78 35t-26 82q4 47 41 82t81 35q47 0 79 -35t28 -82q-6 -48 -42 -82.5t-83 -34.5zM160 0h-72q-15 0 -24 9.5t-5 25.5l156 880q9 35 41 35h72q14 0 23 -9.5t5 -25.5l-157 -880q-6 -35 -39 -35z" />
    <glyph glyph-name="less.alt" horiz-adv-x="1966" 
d="M236 737l448 496q21 27 49 27h109q11 0 16.5 -11.5t-4.5 -23.5l-399 -437h1325q14 0 24.5 -10.5t10.5 -23.5v-68q0 -14 -10.5 -24.5t-24.5 -10.5h-1325l399 -436q10 -12 5.5 -22.5t-15.5 -10.5h-111q-30 0 -49 25l-448 498q-15 17 0 32z" />
    </font>
</defs>
</svg>
