<?xml version="1.0" standalone="no"?>
<!DOCTYPE svg PUBLIC "-//W3C//DTD SVG 1.1//EN" "http://www.w3.org/Graphics/SVG/1.1/DTD/svg11.dtd" >
<svg xmlns="http://www.w3.org/2000/svg" xmlns:xlink="http://www.w3.org/1999/xlink" version="1.1">
<metadata>
Created by FontForge 20170731 at Sat Apr 30 16:38:21 2022
 By Aleksey,,,
Copyright (c) 2001 by Henrik Kubel, A2/SW/HK + A2-TYPE. All rights reserved.
</metadata>
<defs>
<font id="Boing-Semibold" horiz-adv-x="1210" >
  <font-face 
    font-family="Boing-Semibold"
    font-weight="600"
    font-stretch="normal"
    units-per-em="2048"
    panose-1="2 11 7 3 3 0 0 2 0 4"
    ascent="1536"
    descent="-512"
    x-height="997"
    cap-height="1434"
    bbox="-399.448 -633 2374 2126"
    underline-thickness="102"
    underline-position="-511"
    unicode-range="U+000D-FB04"
  />
<missing-glyph horiz-adv-x="0" 
 />
    <glyph glyph-name="f_f" unicode="ff" horiz-adv-x="1236" 
d="M1004 1108v-111h174q19 0 32 -13t13 -32v-157q0 -18 -13.5 -31.5t-31.5 -13.5h-174v-705q0 -19 -13 -32t-33 -13h-204q-19 0 -32 13t-13 32v705h-217v-705q0 -19 -12 -32t-31 -13h-207q-19 0 -32 13t-13 32v705h-131q-18 0 -32 14t-14 31v157q0 19 13.5 32t32.5 13h131
v133q0 79 23.5 139.5t62.5 95t84.5 52t93.5 17.5h94q68 0 68 -66v-156q0 -51 -48 -51h-18q-65 0 -65 -69v-95h217v140q0 91 31 161.5t83 112.5t115 63t133 21q77 0 157 -26t132 -74q18 -14 19.5 -34.5t-15.5 -41.5l-86 -123q-12 -18 -29.5 -20.5t-27.5 2t-27 14.5
q-51 33 -90 33q-42 0 -71 -29.5t-29 -87.5z" />
    <glyph glyph-name="fi" unicode="fi" horiz-adv-x="1093" 
d="M492 750v-705q0 -19 -12 -32t-31 -13h-207q-19 0 -32 13t-13 32v705h-131q-20 0 -33 10t-13 28v164q0 19 13.5 32t32.5 13h131v140q0 91 31 161.5t83.5 112.5t116 63t133.5 21q76 0 156.5 -26.5t132.5 -73.5q34 -30 4 -76l-86 -123q-27 -40 -86 -4q-46 33 -90 33
q-42 0 -71 -29.5t-29 -87.5v-111h469q19 0 32 -13t13 -32v-907q0 -19 -13 -32t-32 -13h-207q-19 0 -32 13t-13 32v705h-217z" />
    <glyph glyph-name="fl" unicode="fl" horiz-adv-x="1191" 
d="M709 997v392q0 19 13 32t32 13h207q19 0 32 -13t13 -32v-1080q0 -63 61 -63h63q41 0 41 -43v-148q0 -55 -57 -55h-143q-135 0 -198.5 66.5t-63.5 183.5v500h-217v-705q0 -19 -12 -32t-31 -13h-207q-19 0 -32 13t-13 32v705h-131q-18 0 -32 14t-14 31v157q0 19 13.5 32
t32.5 13h131v133q0 79 23.5 139.5t62.5 95t84.5 52t93.5 17.5h94q68 0 68 -66v-156q0 -51 -48 -51h-18q-65 0 -65 -69v-95h217z" />
    <glyph glyph-name="f_f_i" unicode="ffi" horiz-adv-x="1605" 
d="M709 997v140q0 91 31 161.5t83.5 112.5t116 63t133.5 21q76 0 156.5 -26.5t132.5 -73.5q18 -14 19.5 -34.5t-15.5 -41.5l-86 -123q-12 -18 -29.5 -20.5t-27.5 2t-27 14.5q-51 33 -90 33q-44 0 -72 -29.5t-28 -87.5v-111h469q19 0 31 -13t12 -32v-907q0 -19 -12 -32
t-31 -13h-207q-19 0 -32 13t-13 32v705h-217v-705q0 -19 -13 -32t-32 -13h-207q-19 0 -32 13t-13 32v705h-217v-705q0 -19 -12 -32t-31 -13h-207q-19 0 -32 13t-13 32v705h-131q-18 0 -32 14t-14 31v157q0 19 13.5 32t32.5 13h131v133q0 79 23.5 139.5t62.5 95t84.5 52
t93.5 17.5h94q68 0 68 -66v-156q0 -51 -48 -51h-18q-65 0 -65 -69v-95h217z" />
    <glyph glyph-name="f_f_l" unicode="ffl" horiz-adv-x="1699" 
d="M1223 997v392q0 19 13 32t32 13h207q19 0 31 -13t12 -32v-1080q0 -29 16 -46t45 -17h63q41 0 41 -43v-148q0 -55 -57 -55h-141q-135 0 -198.5 66.5t-63.5 183.5v500h-217v-705q0 -19 -13 -32t-32 -13h-207q-19 0 -32 13t-13 32v705h-217v-705q0 -19 -12 -32t-31 -13h-207
q-19 0 -32 13t-13 32v705h-131q-18 0 -32 14t-14 31v157q0 19 13.5 32t32.5 13h131v133q0 79 23.5 139.5t62.5 95t84.5 52t93.5 17.5h94q68 0 68 -66v-156q0 -51 -48 -51h-18q-65 0 -65 -69v-95h217v133q0 79 23.5 139.5t62.5 95t84.5 52t93.5 17.5h94q68 0 68 -66v-156
q0 -51 -48 -51h-18q-63 0 -63 -69v-95h217z" />
    <glyph glyph-name="f_b" unicode="fb" horiz-adv-x="1830" 
d="M709 997v394q0 19 12 31t31 12h206q18 0 30.5 -12.5t12.5 -30.5v-494q42 58 120.5 93.5t174.5 35.5q98 0 187.5 -37.5t157 -104.5t107.5 -166.5t40 -217.5t-40 -218t-108 -167.5t-157.5 -105.5t-188.5 -38q-90 0 -171 31.5t-122 91.5v-51q0 -18 -12.5 -30.5t-30.5 -12.5
h-206q-19 0 -31 12t-12 31v707h-217v-705q0 -19 -12 -32t-31 -13h-207q-19 0 -32 13t-13 32v705h-131q-18 0 -32 14t-14 31v157q0 19 13.5 32t32.5 13h131v133q0 79 23.5 139.5t62.5 95t84.5 52t93.5 17.5h94q68 0 68 -66v-156q0 -51 -48 -51h-18q-65 0 -65 -69v-95h217z
M1004 496q0 -105 70 -178.5t173 -73.5t173.5 73.5t70.5 178.5t-70.5 180.5t-173.5 75.5t-173 -75t-70 -181z" />
    <glyph glyph-name="f_f_b" unicode="ffb" horiz-adv-x="2342" 
d="M2300 500q0 -118 -40 -218t-107.5 -167.5t-157 -105.5t-189.5 -38q-90 0 -171 31.5t-122 91.5v-51q0 -19 -12.5 -31t-32.5 -12h-204q-19 0 -31 12t-12 31v707h-217v-705q0 -19 -13 -32t-33 -13h-204q-19 0 -32 13t-13 32v705h-217v-705q0 -19 -12 -32t-31 -13h-207
q-19 0 -32 13t-13 32v705h-131q-18 0 -32 14t-14 31v157q0 19 13.5 32t32.5 13h131v133q0 79 23.5 139.5t62.5 95t84.5 52t93.5 17.5h94q68 0 68 -66v-156q0 -51 -48 -51h-18q-65 0 -65 -69v-95h217v133q0 79 23.5 139.5t62.5 95t84.5 52t93.5 17.5h94q68 0 68 -66v-156
q0 -51 -50 -51h-16q-65 0 -65 -69v-95h217v394q0 19 12 31t31 12h204q19 0 32 -12t13 -31v-494q42 58 120.5 93.5t174.5 35.5q98 0 187.5 -37.5t157 -104.5t107.5 -166.5t40 -217.5zM1513 496q0 -105 70.5 -178.5t173.5 -73.5q104 0 175 73.5t71 178.5t-71.5 180.5
t-174.5 75.5t-173.5 -75.5t-70.5 -180.5z" />
    <glyph glyph-name="f_f_f" unicode="fff" horiz-adv-x="1763" 
d="M1516 1108v-111h190q19 0 32 -13t13 -32v-157q0 -18 -13.5 -31.5t-31.5 -13.5h-190v-705q0 -19 -12 -32t-31 -13h-207q-19 0 -32 13t-13 32v705h-217v-705q0 -19 -13 -32t-33 -13h-204q-19 0 -32 13t-13 32v705h-217v-705q0 -19 -12 -32t-31 -13h-207q-19 0 -32 13
t-13 32v705h-131q-18 0 -32 14t-14 31v157q0 19 13.5 32t32.5 13h131v133q0 79 23.5 139.5t62.5 95t84.5 52t93.5 17.5h94q68 0 68 -66v-156q0 -51 -48 -51h-18q-65 0 -65 -69v-95h217v133q0 79 23.5 139.5t62.5 95t84.5 52t93.5 17.5h94q68 0 68 -66v-156q0 -51 -50 -51
h-16q-65 0 -65 -69v-95h217v140q0 91 31 161.5t83.5 112.5t116 63t133.5 21q76 0 156.5 -26.5t132.5 -73.5q34 -30 4 -76l-86 -123q-12 -18 -29.5 -20.5t-27.5 2t-27 14.5q-51 33 -92 33q-42 0 -71 -29.5t-29 -87.5z" />
    <glyph glyph-name="f_f_h" unicode="ffh" horiz-adv-x="2342" 
d="M1004 997h217v394q0 19 12 31t31 12h206q19 0 32.5 -11.5t13.5 -29.5v-500q113 133 317 133q111 0 196 -38t136 -105.5t76.5 -154t25.5 -189.5v-498q0 -18 -13.5 -29.5t-31.5 -11.5h-207q-18 0 -31.5 11.5t-13.5 29.5v473q0 110 -59 175t-162 65q-105 0 -169 -66.5
t-64 -173.5v-473q0 -18 -13.5 -29.5t-32.5 -11.5h-206q-19 0 -31 12t-12 31v707h-217v-705q0 -19 -13 -32t-33 -13h-204q-19 0 -32 13t-13 32v705h-217v-705q0 -19 -12 -32t-31 -13h-207q-19 0 -32 13t-13 32v705h-131q-18 0 -32 14t-14 31v157q0 19 13.5 32t32.5 13h131
v133q0 79 23.5 139.5t62.5 95t84.5 52t93.5 17.5h94q68 0 68 -66v-156q0 -51 -48 -51h-18q-65 0 -65 -69v-95h217v133q0 79 23.5 139.5t62.5 95t84.5 52t93.5 17.5h94q68 0 68 -66v-156q0 -51 -50 -51h-16q-65 0 -65 -69v-95z" />
    <glyph glyph-name="f_f_j" unicode="ffj" horiz-adv-x="1603" 
d="M1004 1108v-111h469q19 0 31 -13t12 -32v-1046q0 -99 -31.5 -174.5t-85 -119.5t-117 -65.5t-133.5 -21.5q-82 0 -160.5 24t-124.5 74q-32 32 -4 76l84 113q32 42 84 10q49 -29 92 -29q39 0 70 26t31 91v840h-217v-705q0 -19 -13 -32t-33 -13h-204q-19 0 -32 13t-13 32
v705h-217v-705q0 -19 -12 -32t-31 -13h-207q-19 0 -32 13t-13 32v705h-131q-18 0 -32 14t-14 31v157q0 19 13.5 32t32.5 13h131v133q0 155 86.5 229.5t224.5 74.5h47q68 0 68 -66v-156q0 -51 -48 -51h-18q-65 0 -65 -69v-95h217v140q0 91 31 161.5t83.5 112.5t116 63
t133.5 21q76 0 156.5 -26.5t132.5 -73.5q18 -14 19.5 -34.5t-15.5 -41.5l-86 -123q-12 -18 -29.5 -20.5t-27.5 2t-27 14.5q-51 33 -90 33q-44 0 -73 -29.5t-29 -87.5z" />
    <glyph glyph-name="f_f_k" unicode="ffk" horiz-adv-x="2174" 
d="M492 750v-705q0 -19 -12 -32t-31 -13h-207q-19 0 -32 13t-13 32v705h-131q-18 0 -32 14t-14 31v157q0 19 13.5 32t32.5 13h131v133q0 79 23.5 139.5t62.5 95t84.5 52t93.5 17.5h94q68 0 68 -66v-156q0 -51 -48 -51h-18q-65 0 -65 -69v-95h217v133q0 79 23.5 139.5
t62.5 95t84.5 52t93.5 17.5h94q68 0 68 -66v-156q0 -51 -50 -51h-16q-65 0 -65 -69v-95h217v394q0 19 13 31t32 12h207q19 0 31 -12t12 -31v-748h67l229 320q23 34 62 34h223q32 0 40 -22.5t-11 -48.5l-289 -369l338 -483q18 -26 5.5 -50t-46.5 -24h-233q-41 0 -62 37
l-256 389h-67v-383q0 -19 -12 -31t-31 -12h-207q-19 0 -32 12t-13 31v707h-217v-705q0 -19 -13 -32t-33 -13h-204q-19 0 -32 13t-13 32v705h-217z" />
    <glyph glyph-name="f_f_t" unicode="fft" horiz-adv-x="1875" 
d="M1518 750v-383q0 -65 30.5 -90t69.5 -25q48 0 92 29q23 18 46 16t36 -25l72 -114q27 -41 -6 -74q-48 -53 -125.5 -80t-167.5 -27q-67 0 -126.5 18.5t-108.5 55.5t-78 100.5t-29 145.5v453h-217v-705q0 -19 -13 -32t-32 -13h-207q-19 0 -32 13t-13 32v705h-217v-705
q0 -19 -12 -32t-31 -13h-207q-19 0 -32 13t-13 32v705h-131q-18 0 -32 14t-14 31v157q0 19 13.5 32t32.5 13h131v133q0 79 23.5 139.5t62.5 95t84.5 52t93.5 17.5h94q68 0 68 -66v-156q0 -51 -48 -51h-18q-65 0 -65 -69v-95h217v133q0 79 23.5 139.5t62.5 95t84.5 52
t93.5 17.5h94q68 0 68 -66v-156q0 -51 -48 -51h-18q-63 0 -63 -69v-95h217v265q0 20 13 32.5t32 12.5h207q19 0 31 -12.5t12 -32.5v-265h282q19 0 32 -13t13 -32v-157q0 -18 -13.5 -31.5t-31.5 -13.5h-282z" />
    <glyph glyph-name="f_h" unicode="fh" horiz-adv-x="1830" 
d="M492 997h217v394q0 19 12 31t31 12h209q18 0 31.5 -11.5t13.5 -29.5v-500q102 133 315 133q111 0 196 -38t136 -105.5t76.5 -154t25.5 -189.5v-498q0 -18 -13.5 -29.5t-31.5 -11.5h-205q-19 0 -32 11.5t-13 29.5v473q0 110 -60 175t-165 65q-103 0 -166 -66.5t-63 -173.5
v-473q0 -18 -13.5 -29.5t-31.5 -11.5h-209q-19 0 -31 12t-12 31v707h-217v-705q0 -19 -12 -32t-31 -13h-207q-19 0 -32 13t-13 32v705h-131q-18 0 -32 14t-14 31v157q0 19 13.5 32t32.5 13h131v133q0 155 86.5 229.5t224.5 74.5h47q68 0 68 -66v-156q0 -51 -48 -51h-18
q-65 0 -65 -69v-95z" />
    <glyph glyph-name="f_j" unicode="fj" horiz-adv-x="1093" 
d="M492 1108v-111h469q19 0 32 -13t13 -32v-1046q0 -99 -31.5 -174.5t-85 -119.5t-117.5 -65.5t-135 -21.5q-82 0 -160.5 24t-124.5 74q-32 32 -4 76l86 113q30 40 84 10q44 -29 92 -29q38 0 68.5 26t30.5 91v840h-217v-705q0 -19 -12 -32t-31 -13h-207q-19 0 -32 13t-13 32
v705h-131q-19 0 -32.5 12.5t-13.5 30.5v159q0 19 13.5 32t32.5 13h131v140q0 91 31 161.5t83.5 112.5t116 63t133.5 21q76 0 156.5 -26.5t132.5 -73.5q34 -30 4 -76l-86 -123q-27 -40 -86 -4q-46 33 -90 33q-42 0 -71 -29.5t-29 -87.5z" />
    <glyph glyph-name="f_k" unicode="fk" horiz-adv-x="1660" 
d="M492 750v-705q0 -19 -12 -32t-31 -13h-207q-19 0 -32 13t-13 32v705h-131q-18 0 -32 14t-14 31v157q0 19 13.5 32t32.5 13h131v133q0 79 23.5 139.5t62.5 95t84.5 52t93.5 17.5h94q68 0 68 -66v-156q0 -51 -48 -51h-18q-65 0 -65 -69v-95h217v394q0 19 13 31t32 12h207
q19 0 32 -12t13 -31v-748h63l231 320q20 34 60 34h223q32 0 40 -22.5t-11 -48.5l-287 -369l336 -483q18 -26 6.5 -50t-45.5 -24h-233q-43 0 -64 37l-256 389h-63v-383q0 -19 -13 -31t-32 -12h-207q-19 0 -32 12t-13 31v707h-217z" />
    <glyph glyph-name="f_t" unicode="ft" horiz-adv-x="1374" 
d="M719 297v453h-227v-705q0 -19 -12 -32t-31 -13h-207q-19 0 -32 13t-13 32v705h-131q-18 0 -32 14t-14 31v157q0 19 13.5 32t32.5 13h131v133q0 155 86.5 229.5t224.5 74.5h47q68 0 68 -66v-156q0 -51 -48 -51h-18q-65 0 -65 -69v-95h227v265q0 20 13.5 32.5t31.5 12.5
h209q18 0 30.5 -12.5t12.5 -32.5v-265h282q19 0 32 -13t13 -32v-157q0 -18 -13.5 -31.5t-31.5 -13.5h-282v-383q0 -65 30.5 -90t69.5 -25q43 0 92 29q23 18 46 16t36 -25l72 -114q24 -40 -6 -74q-48 -52 -126 -79.5t-167 -27.5q-53 0 -102 11t-93.5 36.5t-77 62t-52 90.5
t-19.5 120z" />
    <glyph glyph-name=".notdef" horiz-adv-x="0" 
 />
    <glyph glyph-name=".null" horiz-adv-x="0" 
 />
    <glyph glyph-name="nonmarkingreturn" horiz-adv-x="682" 
 />
    <glyph glyph-name="CR" unicode="&#xd;" horiz-adv-x="0" 
 />
    <glyph glyph-name="space" unicode=" " horiz-adv-x="409" 
 />
    <glyph glyph-name="exclam" unicode="!" horiz-adv-x="583" 
d="M446 1389l-2 -852q0 -19 -13.5 -33.5t-33.5 -14.5h-211q-20 0 -33.5 14.5t-13.5 33.5l-4 852q0 19 14.5 32t34.5 13h215q20 0 33.5 -13t13.5 -32zM291 -29q-78 0 -135.5 57t-57.5 136t57.5 135.5t135.5 56.5q80 0 137 -56.5t57 -135.5t-57 -136t-137 -57z" />
    <glyph glyph-name="quotedbl" unicode="&#x22;" horiz-adv-x="907" 
d="M346 791h-201q-20 0 -32.5 13t-12.5 32v555q0 19 12.5 31t32.5 12h201q19 0 32 -12t13 -31v-555q0 -19 -13 -32t-32 -13zM762 791h-203q-19 0 -32 13t-13 32v555q0 19 13 31t32 12h203q19 0 32 -12t13 -31v-555q0 -19 -13 -32t-32 -13z" />
    <glyph glyph-name="numbersign" unicode="#" horiz-adv-x="1288" 
d="M780 588v256h-270v-256h270zM510 412v-367q0 -19 -13 -32t-32 -13h-94q-19 0 -32 13t-13 32v367h-215q-20 0 -32.5 13.5t-12.5 33.5v86q0 19 12.5 31t32.5 12h215v256h-215q-45 0 -45 45v86q0 19 12.5 32t32.5 13h215v371q0 19 13 31t32 12h94q19 0 32 -12t13 -31v-371
h270v371q0 19 13 31t32 12h95q20 0 32.5 -12t12.5 -31v-371h213q18 0 31.5 -13.5t13.5 -31.5v-86q0 -20 -13.5 -32.5t-31.5 -12.5h-213v-256h213q18 0 31.5 -12.5t13.5 -30.5v-86q0 -20 -13.5 -33.5t-31.5 -13.5h-213v-367q0 -19 -12.5 -32t-32.5 -13h-95q-19 0 -32 13
t-13 32v367h-270z" />
    <glyph glyph-name="dollar" unicode="$" horiz-adv-x="1296" 
d="M567 909l13 -2v281q-71 -13 -114.5 -49.5t-43.5 -94.5q0 -94 145 -135zM899 395q0 58 -40 95t-122 61v-301q78 13 120 54t42 91zM688 -197h-59q-20 0 -34.5 15t-14.5 35v120q-167 11 -291.5 68.5t-198.5 138.5q-30 30 -32.5 64t28.5 61l131 103q50 38 105 -17
q109 -109 258 -139v340l-134 33q-169 42 -261.5 143t-92.5 254q0 178 136 299.5t352 138.5v123q0 20 14.5 33.5t34.5 13.5h59q20 0 34.5 -13.5t14.5 -33.5v-125q133 -13 239.5 -59t168.5 -107q65 -59 12 -112l-100 -105q-49 -49 -117 -2q-115 85 -203 107v-312l105 -26
q188 -50 290.5 -148t102.5 -268q0 -80 -31.5 -154.5t-91 -137t-156.5 -105t-219 -54.5v-122q0 -20 -14.5 -35t-34.5 -15z" />
    <glyph glyph-name="percent" unicode="%" horiz-adv-x="1445" 
d="M348 1448q136 0 211.5 -103t75.5 -268t-76 -270t-211 -105t-211 105t-76 270t75.5 268t211.5 103zM285 0h-60q-32 0 -42.5 22.5t7.5 45.5l904 1329q12 20 25 28.5t40 8.5h58q34 0 44 -22.5t-8 -45.5l-903 -1329q-12 -20 -25 -28.5t-40 -8.5zM231 1073q0 -229 117 -229
q119 0 119 229q0 123 -32.5 178.5t-86.5 55.5q-117 0 -117 -234zM1098 727q135 0 210.5 -103.5t75.5 -267.5q0 -169 -75 -271.5t-211 -102.5q-137 0 -212 102.5t-75 271.5q0 164 75 267.5t212 103.5zM981 350q0 -229 117 -229q116 0 116 229q0 236 -116 236
q-117 0 -117 -236z" />
    <glyph glyph-name="ampersand" unicode="&#x26;" horiz-adv-x="1460" 
d="M494 1108q0 -72 94 -166l43 29q108 66 108 149q0 53 -35.5 84t-82.5 31q-50 0 -88.5 -36t-38.5 -91zM588 225q118 0 221 84l-305 316l-25 -17q-117 -86 -117 -196q0 -78 62.5 -132.5t163.5 -54.5zM1083 27l-96 100q-112 -90 -217 -123t-219 -33q-210 0 -353 119t-143 305
q0 229 230 379l45 31q-121 124 -121 289q0 71 29 137.5t81 118t131 83t171 31.5q181 0 285 -98.5t104 -239.5q0 -194 -217 -327l-41 -23l227 -231q49 114 61 256q6 37 52 37h200q19 0 33 -11.5t14 -33.5q-6 -70 -46 -206t-105 -255l266 -271q21 -23 12 -42t-32 -19h-285
q-45 0 -66 27z" />
    <glyph glyph-name="quotesingle" unicode="'" horiz-adv-x="544" 
d="M82 899l121 184q-52 25 -82.5 72.5t-30.5 106.5q0 85 58.5 142.5t146.5 57.5q87 0 147 -59.5t60 -155.5q0 -64 -26.5 -131t-68.5 -122.5t-83 -97t-80 -71.5q-64 -51 -117 -20l-31 20q-45 34 -14 74z" />
    <glyph glyph-name="parenleft" unicode="(" horiz-adv-x="622" 
d="M377 645q0 -407 182 -790q25 -55 25 -70q0 -31 -35 -31h-109q-50 0 -82 41q-118 141 -211.5 379t-93.5 471t93.5 471t211.5 379q32 41 82 41h109q35 0 35 -31q0 -14 -25 -69q-182 -383 -182 -791z" />
    <glyph glyph-name="parenright" unicode=")" horiz-adv-x="622" 
d="M248 645q0 401 -185 791q-24 53 -24 69q0 31 35 31h110q48 0 80 -41q118 -137 211.5 -377t93.5 -473t-94 -474t-211 -376q-32 -41 -80 -41h-110q-35 0 -35 31q0 17 24 70q185 390 185 790z" />
    <glyph glyph-name="asterisk" unicode="*" horiz-adv-x="1058" 
d="M635 584q0 -47 -31 -77t-76 -30q-44 0 -75 30.5t-31 76.5q0 22 31.5 162.5t35.5 166.5q-24 -17 -136 -110.5t-132 -104.5q-38 -21 -78 -9.5t-63 52.5q-20 41 -8.5 81.5t51.5 64.5q22 11 162 47t168 47q-36 15 -175.5 53t-154.5 43q-40 24 -51.5 67t8.5 81q23 38 63 50.5
t78 -7.5q17 -10 67.5 -51t121.5 -100t79 -66q-4 23 -35.5 166.5t-31.5 164.5q0 43 31.5 74t74.5 31q44 0 75.5 -31t31.5 -74q0 -21 -32 -164t-36 -167q3 2 78 64.5t124.5 102.5t66.5 50q38 20 79 7.5t64 -50.5q19 -37 7 -80.5t-52 -67.5q-15 -6 -155 -43.5t-173 -52.5
q17 -6 161 -43.5t167 -50.5q40 -24 51.5 -64.5t-6.5 -81.5q-23 -41 -64 -52.5t-79 9.5q-20 11 -133 104.5t-136 110.5q4 -27 36 -167t32 -162z" />
    <glyph glyph-name="plus" unicode="+" 
d="M496 1270h215q45 0 45 -45v-359h346q20 0 33.5 -14t13.5 -33v-198q0 -20 -13.5 -34t-33.5 -14h-346v-360q0 -19 -12.5 -33t-32.5 -14h-215q-19 0 -32 14t-13 33v360h-345q-20 0 -32.5 13.5t-12.5 34.5v198q0 19 12.5 33t32.5 14h345v359q0 20 13 32.5t32 12.5z" />
    <glyph glyph-name="comma" unicode="," horiz-adv-x="534" 
d="M61 -182l117 176q-50 23 -80 69t-30 101q0 81 55.5 136.5t140.5 55.5q82 0 140.5 -57t58.5 -147q0 -79 -45 -166t-98.5 -145.5t-104.5 -94.5q-63 -50 -113 -18l-26 18q-43 32 -15 72z" />
    <glyph glyph-name="hyphen" unicode="-" horiz-adv-x="780" 
d="M637 451h-494q-20 0 -33.5 13.5t-13.5 33.5v213q0 19 13.5 33t33.5 14h494q20 0 33.5 -14t13.5 -33v-213q0 -20 -13.5 -33.5t-33.5 -13.5z" />
    <glyph glyph-name="period" unicode="." horiz-adv-x="514" 
d="M256 -29q-80 0 -136.5 56.5t-56.5 136.5q0 79 56.5 135.5t136.5 56.5t137.5 -56.5t57.5 -135.5t-57.5 -136t-137.5 -57z" />
    <glyph glyph-name="slash" unicode="/" horiz-adv-x="978" 
d="M57 63l650 1338q11 19 21 26t30 7h123q29 0 39 -19.5t-2 -42.5l-644 -1335q-7 -19 -18.5 -28t-38.5 -9h-123q-30 0 -39.5 20t2.5 43z" />
    <glyph glyph-name="zero" unicode="0" horiz-adv-x="1257" 
d="M629 1462q178 0 304.5 -92.5t189.5 -258.5t63 -390q0 -346 -145 -548t-412 -202q-179 0 -305.5 93.5t-189 261t-62.5 395.5q0 342 144.5 541.5t412.5 199.5zM629 225q112 0 178.5 118t66.5 368q0 133 -18.5 231t-52.5 155t-77 84t-97 27q-114 0 -181 -119t-67 -378
q0 -250 67.5 -368t180.5 -118z" />
    <glyph glyph-name="one" unicode="1" horiz-adv-x="684" 
d="M29 1053v155q0 52 47 52h28q137 0 199 131q22 43 68 43h127q20 0 32.5 -13t12.5 -32v-1342q0 -20 -13.5 -33.5t-33.5 -13.5h-203q-20 0 -33.5 13.5t-13.5 33.5v961h-172q-19 0 -32 12.5t-13 32.5z" />
    <glyph glyph-name="two" unicode="2" horiz-adv-x="1173" 
d="M1065 0h-942q-18 0 -31.5 13.5t-13.5 31.5v150q0 53 37 79l397 344q144 123 209 206.5t65 170.5q0 91 -61.5 144t-151.5 53q-94 0 -154.5 -57t-90.5 -138q-27 -72 -90 -53l-152 47q-23 6 -33 25.5t-4 44.5q19 79 62 149.5t108.5 127.5t159 90.5t203.5 33.5
q221 0 365.5 -121.5t144.5 -328.5q0 -78 -28 -152t-83.5 -144.5t-114.5 -128.5t-145 -130l-232 -195h576q20 0 32.5 -13t12.5 -32v-172q0 -19 -12.5 -32t-32.5 -13z" />
    <glyph glyph-name="three" unicode="3" horiz-adv-x="1214" 
d="M547 872h41q88 0 144 46.5t56 123.5q0 73 -52.5 120.5t-137.5 47.5q-130 0 -219 -149q-18 -25 -31 -31t-37 4l-147 64q-54 21 -33 73q22 54 61.5 103.5t98 93t143.5 69t184 25.5q199 0 329 -103.5t130 -271.5q0 -100 -56.5 -180t-148.5 -112q124 -31 201.5 -124
t77.5 -237q0 -210 -154.5 -336.5t-398.5 -126.5q-250 0 -406.5 131.5t-156.5 341.5v31q0 19 13 31t32 12h211q20 0 33.5 -12t13.5 -31v-12q0 -101 69 -169.5t189 -68.5q113 0 179.5 60.5t66.5 150.5q0 89 -64 144t-178 55h-55q-19 0 -32 13.5t-13 33.5v141q0 20 13.5 34.5
t33.5 14.5z" />
    <glyph glyph-name="four" unicode="4" horiz-adv-x="1214" 
d="M688 373h-614q-20 0 -33.5 14t-13.5 33v160q0 68 28 112l527 705q21 37 65 37h295q22 0 34.5 -12.5t12.5 -32.5v-773h141q20 0 34 -13.5t14 -33.5v-149q0 -19 -14 -33t-34 -14h-141v-326q0 -21 -12 -34t-35 -13h-207q-20 0 -33.5 13.5t-13.5 33.5v326zM297 616h391v527z
" />
    <glyph glyph-name="five" unicode="5" horiz-adv-x="1189" 
d="M571 -29q-171 0 -305 64t-209 176q-31 41 17 82l114 96q47 40 97 -10q62 -68 126.5 -104.5t155.5 -36.5q116 0 192.5 66.5t76.5 168.5q0 105 -74.5 165t-177.5 60q-116 0 -209 -77q-25 -19 -53 -13l-183 41q-38 8 -35 45l50 692q2 21 14.5 34.5t32.5 13.5h811
q20 0 33.5 -14t13.5 -34v-180q0 -20 -13.5 -33.5t-33.5 -13.5h-621l-22 -291q127 80 282 80q132 0 242 -54.5t179 -162.5t69 -250q0 -103 -41 -196t-114.5 -162.5t-181 -110.5t-233.5 -41z" />
    <glyph glyph-name="six" unicode="6" horiz-adv-x="1224" 
d="M635 -29q-252 0 -413 158t-161 401q0 78 18.5 157.5t46 146t73.5 139t86 125.5t99 117t98 103t96 93q23 23 65 23h236q30 0 37.5 -28t-13.5 -48q-59 -59 -234.5 -245.5t-211.5 -238.5q116 78 252 78q205 0 346 -133t141 -330q0 -218 -158.5 -368t-402.5 -150zM633 725
q-108 0 -181 -72t-73 -176q0 -103 73.5 -176.5t180.5 -73.5t180.5 73.5t73.5 176.5q0 104 -71.5 176t-182.5 72z" />
    <glyph glyph-name="seven" unicode="7" horiz-adv-x="1112" 
d="M1077 1389v-109q0 -57 -24 -100l-539 -1147q-8 -19 -19 -26t-38 -7h-242q-31 0 -41 21.5t4 44.5l555 1093h-655q-20 0 -34.5 13.5t-14.5 33.5v180q0 20 14.5 34t34.5 14h952q19 0 33 -13t14 -32z" />
    <glyph glyph-name="eight" unicode="8" horiz-adv-x="1284" 
d="M641 -29q-134 0 -245 35.5t-183.5 96.5t-112 142t-39.5 173q0 126 72.5 221.5t181.5 134.5q-82 40 -134 119t-52 180q0 172 143 280.5t369 108.5t370 -108.5t144 -280.5q0 -102 -52.5 -180.5t-135.5 -118.5q110 -39 183 -135t73 -221q0 -92 -39.5 -173t-112 -142
t-183.5 -96.5t-247 -35.5zM641 879q98 0 161.5 50t63.5 128q0 74 -63.5 124t-161.5 50q-97 0 -160 -50t-63 -124q0 -78 62.5 -128t160.5 -50zM641 641q-116 0 -190 -60t-74 -153q0 -89 74 -149t190 -60q117 0 191.5 60t74.5 149q0 93 -74 153t-192 60z" />
    <glyph glyph-name="nine" unicode="9" horiz-adv-x="1222" 
d="M580 0h-234q-31 0 -39.5 28t12.5 48q64 64 237.5 247.5t209.5 235.5q-113 -78 -252 -78q-133 0 -245 60t-177 166.5t-65 236.5q0 107 42 202t115 164.5t178 110.5t226 41q252 0 412.5 -158t160.5 -401q0 -78 -18 -157.5t-45.5 -146t-72.5 -138t-85.5 -125t-98.5 -117
t-97.5 -103t-96.5 -93.5q-29 -23 -67 -23zM592 709q107 0 180.5 73.5t73.5 173.5q0 103 -73.5 176.5t-180.5 73.5q-109 0 -182.5 -73.5t-73.5 -176.5q0 -101 72 -174t184 -73z" />
    <glyph glyph-name="colon" unicode=":" horiz-adv-x="559" 
d="M279 606q-79 0 -136 57t-57 136q0 80 57 137t136 57t136.5 -57.5t57.5 -136.5t-57 -136t-137 -57zM279 -29q-79 0 -136 56.5t-57 136.5q0 79 56.5 135.5t136.5 56.5t137 -56.5t57 -135.5t-57 -136t-137 -57z" />
    <glyph glyph-name="semicolon" unicode=";" horiz-adv-x="563" 
d="M279 606q-79 0 -136 57t-57 136q0 80 57 137t136 57t136.5 -57.5t57.5 -136.5t-57 -136t-137 -57zM78 -182l115 176q-50 23 -79.5 69t-29.5 101q0 80 55.5 136t139.5 56q82 0 140 -57t58 -147q0 -79 -45 -166t-98.5 -145.5t-104.5 -94.5q-63 -50 -112 -18l-27 18
q-43 32 -12 72z" />
    <glyph glyph-name="less" unicode="&#x3c;" horiz-adv-x="1208" 
d="M1085 406v-220q0 -39 -27.5 -50.5t-56.5 7.5l-884 443q-62 30 -62 123q0 85 62 120l884 443q29 16 56.5 5t27.5 -50v-219q0 -27 -15 -41.5t-44 -26.5l-512 -233l512 -232q20 -10 30.5 -16.5t19.5 -20.5t9 -32z" />
    <glyph glyph-name="equal" unicode="=" horiz-adv-x="1290" 
d="M1143 815h-996q-19 0 -33 13.5t-14 33.5v197q0 19 14 33t33 14h996q19 0 33 -14t14 -33v-197q0 -20 -14 -33.5t-33 -13.5zM1143 328h-996q-19 0 -33 13.5t-14 33.5v194q0 20 14 34.5t33 14.5h996q19 0 33 -14.5t14 -34.5v-194q0 -20 -14 -33.5t-33 -13.5z" />
    <glyph glyph-name="greater" unicode="&#x3e;" horiz-adv-x="1208" 
d="M123 186v220q0 18 9.5 32t19 20t30.5 17l512 232l-512 233q-19 9 -30 15.5t-20 20.5t-9 32v219q0 39 27.5 50t56.5 -5l887 -443q59 -36 59 -120q0 -93 -61 -123l-885 -443q-29 -19 -56.5 -7.5t-27.5 50.5z" />
    <glyph glyph-name="question" unicode="?" horiz-adv-x="1028" 
d="M502 1462q109 0 197 -33.5t141.5 -89t81.5 -123t28 -139.5q0 -74 -28.5 -145t-69 -124.5t-81 -101t-69 -93t-28.5 -81.5v-12q0 -22 -13 -33.5t-32 -11.5h-207q-19 0 -32 13.5t-13 33.5v47q0 51 26.5 105.5t64 101t75 91.5t64 93.5t26.5 90.5q0 57 -42 97t-116 40
q-106 0 -199 -115q-19 -24 -45 -27t-51 17l-100 80q-58 45 -4 121q55 80 166 139t260 59zM528 -29q-81 0 -137.5 56.5t-56.5 136.5t56.5 136t137.5 56q78 0 135.5 -56.5t57.5 -135.5t-57.5 -136t-135.5 -57z" />
    <glyph glyph-name="at" unicode="@" horiz-adv-x="2035" 
d="M1040 -457q-203 0 -384 76.5t-310 205.5t-204.5 306t-75.5 371q0 214 79 397.5t213 307.5t312.5 193.5t376.5 69.5q182 0 348 -61.5t292.5 -172t201.5 -277t75 -363.5q0 -171 -51 -305.5t-146.5 -210.5t-220.5 -76q-104 0 -168 47t-90 119q-44 -75 -127.5 -120.5
t-185.5 -45.5q-194 0 -330.5 140t-136.5 350q0 137 63 248.5t170 173t234 61.5q183 0 293 -135v53q0 19 13 32t32 13h155q22 0 35 -13t13 -32v-545q0 -59 17.5 -88t59.5 -29q58 0 102 91t44 282q0 147 -55.5 272t-150 208.5t-220 130.5t-264.5 47q-115 0 -224 -32
t-203.5 -96t-165 -153.5t-111 -212t-40.5 -262.5q0 -159 62.5 -301t167 -241.5t243.5 -157.5t289 -58q179 0 299 51q60 26 109 58q40 30 69 6l113 -84q25 -22 6 -41q-97 -91 -256 -144t-367 -53zM1010 733q-98 0 -158.5 -66t-60.5 -169q0 -100 61 -167t158 -67
q94 0 156.5 68t62.5 166q0 103 -61 169t-158 66z" />
    <glyph glyph-name="A" unicode="A" horiz-adv-x="1398" 
d="M870 590l-180 540h-6l-176 -540h362zM422 332l-94 -291q-14 -41 -47 -41h-230q-26 0 -37.5 19.5t0.5 50.5l463 1319q14 45 60 45h323q41 0 60 -45l464 -1317q10 -35 -1.5 -53.5t-41.5 -18.5h-241q-35 0 -47 41l-97 291h-534z" />
    <glyph glyph-name="B" unicode="B" horiz-adv-x="1390" 
d="M166 1434h637q102 0 184.5 -22.5t135 -58.5t87.5 -84.5t49.5 -98t14.5 -101.5q0 -97 -47.5 -175t-141.5 -118q133 -47 197 -143.5t64 -210.5q0 -81 -32.5 -156t-92 -134.5t-153 -95.5t-206.5 -36h-696q-45 0 -45 45v1344q0 20 11.5 32.5t33.5 12.5zM956 1026
q0 75 -50.5 121.5t-145.5 46.5h-332v-336h332q95 0 145.5 46.5t50.5 121.5zM809 631h-381v-391h381q93 0 155 54.5t62 141.5q0 86 -61.5 140.5t-155.5 54.5z" />
    <glyph glyph-name="C" unicode="C" horiz-adv-x="1513" 
d="M809 -29q-157 0 -298 58t-242 157t-160.5 237.5t-59.5 293.5t59.5 293t160.5 237t242 157t298 58q239 0 426.5 -118t259.5 -324q14 -38 -22 -47l-234 -62q-15 -4 -25.5 1.5t-13.5 11t-8 16.5q-125 238 -381 238q-191 0 -316.5 -133.5t-125.5 -327.5t125.5 -327.5
t316.5 -133.5q256 0 381 238q5 11 8 16t13.5 10.5t25.5 1.5l234 -61q36 -9 22 -47q-72 -206 -259.5 -324.5t-426.5 -118.5z" />
    <glyph glyph-name="D" unicode="D" horiz-adv-x="1513" 
d="M166 1434h563q219 0 385.5 -89t257 -251.5t90.5 -374.5q0 -211 -90.5 -374.5t-257.5 -254t-385 -90.5h-563q-20 0 -32.5 13.5t-12.5 33.5v1342q0 19 12.5 32t32.5 13zM428 283h301q182 0 297 124.5t115 311.5q0 189 -114.5 310.5t-297.5 121.5h-301v-868z" />
    <glyph glyph-name="E" unicode="E" horiz-adv-x="1298" 
d="M166 1434h1026q20 0 33.5 -14t13.5 -34v-188q0 -20 -13.5 -33.5t-33.5 -13.5h-764v-295h399q20 0 32.5 -13.5t12.5 -33.5v-180q0 -19 -12.5 -33t-32.5 -14h-399v-299h780q19 0 33 -13.5t14 -33.5v-189q0 -20 -14 -33.5t-33 -13.5h-1042q-20 0 -32.5 13.5t-12.5 33.5v1342
q0 19 12.5 32t32.5 13z" />
    <glyph glyph-name="F" unicode="F" horiz-adv-x="1232" 
d="M1016 735v-182q0 -19 -12.5 -33t-32.5 -14h-543v-459q0 -20 -14 -33.5t-33 -13.5h-215q-20 0 -32.5 13.5t-12.5 33.5v1342q0 19 12.5 32t32.5 13h987q20 0 33.5 -14t13.5 -34v-188q0 -20 -13.5 -33.5t-33.5 -13.5h-725v-371h543q20 0 32.5 -13t12.5 -32z" />
    <glyph glyph-name="G" unicode="G" horiz-adv-x="1603" 
d="M817 1462q244 0 439 -120t272 -322q16 -38 -23 -47l-231 -62q-33 -8 -49 29q-60 110 -162.5 174t-243.5 64q-126 0 -229 -62t-161 -168.5t-58 -234.5q0 -201 128 -332t326 -131q126 0 231.5 61.5t166.5 175.5h-373q-20 0 -33.5 14.5t-13.5 33.5v153q0 20 13.5 33.5
t33.5 13.5h625q20 0 34.5 -13.5t14.5 -33.5v-641q0 -20 -14.5 -33.5t-34.5 -13.5h-187q-20 0 -33.5 13.5t-13.5 33.5v125q-159 -201 -463 -201q-153 0 -289 58t-232 157t-152 237.5t-56 293.5t59.5 293t162 237t245 157t301.5 58z" />
    <glyph glyph-name="H" unicode="H" horiz-adv-x="1521" 
d="M1401 1389v-1342q0 -20 -12.5 -33.5t-32.5 -13.5h-215q-20 0 -33.5 13.5t-13.5 33.5v535h-666v-535q0 -20 -13.5 -33.5t-33.5 -13.5h-215q-20 0 -32.5 13.5t-12.5 33.5v1342q0 19 12.5 32t32.5 13h215q20 0 33.5 -13t13.5 -32v-533h666v533q0 19 13.5 32t33.5 13h215
q20 0 32.5 -13t12.5 -32z" />
    <glyph glyph-name="I" unicode="I" horiz-adv-x="548" 
d="M381 0h-215q-20 0 -32.5 13.5t-12.5 33.5v1342q0 19 12.5 32t32.5 13h215q20 0 33.5 -13t13.5 -32v-1342q0 -20 -13.5 -33.5t-33.5 -13.5z" />
    <glyph glyph-name="J" unicode="J" horiz-adv-x="1251" 
d="M1143 1389v-902q0 -126 -45 -226.5t-122.5 -162.5t-176 -94.5t-211.5 -32.5t-211 31t-175 91.5t-121 158.5t-44 223v94q0 19 12.5 32t32.5 13h215q19 0 33 -13t14 -32v-73q0 -110 62 -178t182 -68q122 0 185 68t63 178v893q0 19 13.5 32t33.5 13h215q19 0 32 -13t13 -32z
" />
    <glyph glyph-name="K" unicode="K" horiz-adv-x="1353" 
d="M1346 1372l-496 -624l498 -691q15 -23 6.5 -40t-29.5 -17h-258q-30 0 -45.5 7t-32.5 30l-389 553h-172v-543q0 -20 -14 -33.5t-33 -13.5h-215q-20 0 -32.5 13.5t-12.5 33.5v1342q0 19 12.5 32t32.5 13h215q19 0 33 -13t14 -32v-529h166l403 531q18 24 36 33.5t48 9.5h236
q29 0 38 -21t-9 -41z" />
    <glyph glyph-name="L" unicode="L" horiz-adv-x="1163" 
d="M1145 236v-189q0 -20 -13.5 -33.5t-33.5 -13.5h-932q-20 0 -32.5 13t-12.5 32v1341q0 21 12.5 34.5t32.5 13.5h215q19 0 33 -14t14 -34v-1103h670q20 0 33.5 -13.5t13.5 -33.5z" />
    <glyph glyph-name="M" unicode="M" horiz-adv-x="1798" 
d="M981 293h-168q-25 0 -39.5 8.5t-25.5 36.5l-324 709v-1002q0 -20 -13 -32.5t-32 -12.5h-213q-45 0 -45 45v1344q0 19 12.5 32t32.5 13h360q49 0 66 -41l309 -701l311 701q20 41 68 41h350q20 0 33.5 -13t13.5 -32v-1344q0 -20 -13.5 -32.5t-33.5 -12.5h-211q-45 0 -45 45
v1002l-325 -709q-11 -28 -26 -36.5t-42 -8.5z" />
    <glyph glyph-name="N" unicode="N" horiz-adv-x="1490" 
d="M995 45l-567 903v-903q0 -20 -13 -32.5t-32 -12.5h-217q-45 0 -45 45v1344q0 19 12.5 32t32.5 13h280q47 0 66 -37l551 -885v877q0 19 13 32t32 13h215q19 0 33 -13t14 -32v-1344q0 -20 -14 -32.5t-33 -12.5h-231q-71 0 -97 45z" />
    <glyph glyph-name="O" unicode="O" horiz-adv-x="1617" 
d="M1569 717q0 -155 -59.5 -293.5t-160.5 -237.5t-242 -157t-298 -58q-156 0 -297 58t-242.5 157t-161 237.5t-59.5 293.5q0 207 101 378t275.5 269t383.5 98q157 0 298 -58t242 -157t160.5 -237t59.5 -293zM1249 717q0 194 -125 327.5t-315 133.5t-315 -133.5t-125 -327.5
t125 -327.5t315 -133.5t315 133.5t125 327.5z" />
    <glyph glyph-name="P" unicode="P" horiz-adv-x="1259" 
d="M428 477v-430q0 -20 -13 -33.5t-32 -13.5h-217q-20 0 -32.5 13.5t-12.5 33.5v1342q0 19 12.5 32t32.5 13h561q119 0 216 -39t159 -105.5t95.5 -152.5t33.5 -183q0 -98 -34 -184.5t-96.5 -151.5t-159 -103t-214.5 -38h-299zM428 745h264q96 2 157.5 59t61.5 152t-61.5 151
t-157.5 56h-264v-418z" />
    <glyph glyph-name="Q" unicode="Q" horiz-adv-x="1617" 
d="M809 256q128 0 223 59l-244 215q-14 12 -14 30.5t14 35.5l103 115q26 33 67 4l240 -217q51 92 51 219q0 194 -125 327.5t-315 133.5t-315 -133.5t-125 -327.5t125 -327.5t315 -133.5zM1397 -8l-135 121q-204 -142 -453 -142q-156 0 -297 58t-242.5 157t-161 237.5
t-59.5 293.5q0 207 101 378t275.5 269t383.5 98q157 0 298 -58t242 -157t160.5 -237t59.5 -293q0 -235 -133 -430l129 -119q17 -13 17 -33t-17 -33l-101 -110q-38 -29 -67 0z" />
    <glyph glyph-name="R" unicode="R" horiz-adv-x="1384" 
d="M428 782h342q94 0 154.5 54.5t60.5 140.5t-58.5 136t-152.5 50h-346v-381zM1313 0h-238q-28 0 -44 10t-34 37l-295 488h-274v-488q0 -20 -13.5 -33.5t-33.5 -13.5h-215q-20 0 -32.5 13.5t-12.5 33.5v1342q0 19 11.5 32t33.5 13h643q224 0 361 -125t137 -314
q0 -55 -14.5 -111t-45.5 -114.5t-90 -107.5t-139 -76l328 -525q15 -20 5 -40.5t-38 -20.5z" />
    <glyph glyph-name="S" unicode="S" horiz-adv-x="1251" 
d="M625 1462q164 0 293 -49.5t204 -120.5q66 -59 13 -112l-101 -105q-49 -49 -116 -2q-154 119 -300 119q-96 0 -157.5 -39t-61.5 -109q0 -93 146 -135l274 -67q188 -50 290.5 -148t102.5 -268q0 -67 -22 -132t-69.5 -123.5t-114.5 -103t-164 -70.5t-211 -26q-193 0 -336 60
t-227 149q-31 31 -33.5 64t28.5 61l132 103q50 37 104 -17q155 -147 344 -147q111 0 172.5 44.5t61.5 106.5q0 65 -50 103.5t-155 64.5l-248 62q-169 42 -261.5 143t-92.5 254q0 191 157.5 315.5t397.5 124.5z" />
    <glyph glyph-name="T" unicode="T" horiz-adv-x="1269" 
d="M23 1198v188q0 20 13 34t32 14h1134q19 0 32 -14t13 -34v-188q0 -20 -13 -33.5t-32 -13.5h-409v-1104q0 -20 -14 -33.5t-34 -13.5h-223q-20 0 -32.5 13.5t-12.5 33.5v1104h-409q-19 0 -32 13.5t-13 33.5z" />
    <glyph glyph-name="U" unicode="U" horiz-adv-x="1417" 
d="M1311 1389v-873q0 -111 -33.5 -203t-90.5 -154.5t-134.5 -105.5t-163.5 -62.5t-180 -19.5t-180 19.5t-164 62.5t-135 105.5t-90.5 154.5t-33.5 203v873q0 19 13 32t33 13h215q19 0 33 -13t14 -32v-850q0 -134 77.5 -210.5t217.5 -76.5t217.5 76.5t77.5 210.5v850
q0 19 13.5 32t33.5 13h215q19 0 32 -13t13 -32z" />
    <glyph glyph-name="V" unicode="V" horiz-adv-x="1390" 
d="M854 0h-315q-46 0 -60 45l-463 1317q-12 34 0.5 53t40.5 19h250q35 0 47 -41l348 -1061h9l344 1061q14 41 47 41h235q27 0 38 -19t1 -51l-463 -1319q-14 -45 -59 -45z" />
    <glyph glyph-name="W" unicode="W" horiz-adv-x="2058" 
d="M2032 1362l-328 -1317q-5 -21 -25.5 -33t-31.5 -12h-326q-46 0 -57 45l-226 913l-227 -913q-5 -22 -22.5 -33.5t-34.5 -11.5h-342q-47 0 -58 45l-329 1317q-7 34 8 53t41 19h243q18 0 30.5 -13t17.5 -32l229 -1020l254 1024q7 22 16.5 31.5t32.5 9.5h279q38 0 49 -41
l254 -1016l229 1012q12 45 47 45h230q65 0 47 -72z" />
    <glyph glyph-name="X" unicode="X" horiz-adv-x="1314" 
d="M653 496l-293 -459q-12 -20 -25 -28.5t-40 -8.5h-258q-33 0 -41.5 23.5t6.5 42.5l449 663l-424 639q-17 23 -6 44.5t40 21.5h258q24 0 37 -9t25 -28l287 -449l280 449q9 14 14 20.5t17 11.5t31 5h245q31 0 39.5 -20.5t-6.5 -43.5l-420 -639l445 -665q15 -23 5.5 -44.5
t-40.5 -21.5h-260q-27 0 -39 9t-25 30z" />
    <glyph glyph-name="Y" unicode="Y" horiz-adv-x="1335" 
d="M514 47v494l-496 823q-16 25 -5.5 47.5t36.5 22.5h268q38 0 56 -35l299 -514h4l297 514q18 35 53 35h258q26 0 37.5 -20.5t-4.5 -49.5l-496 -823v-494q0 -20 -13.5 -33.5t-31.5 -13.5h-217q-19 0 -32 13.5t-13 33.5z" />
    <glyph glyph-name="Z" unicode="Z" horiz-adv-x="1255" 
d="M1176 0h-1096q-20 0 -33.5 13.5t-13.5 33.5v141q0 34 28 66l709 907h-647q-20 0 -33.5 13.5t-13.5 31.5v180q0 19 13.5 33.5t33.5 14.5h1003q18 0 31.5 -14.5t13.5 -33.5v-167q0 -35 -20 -58l-686 -889h711q19 0 32 -13t13 -32v-180q0 -20 -13 -33.5t-32 -13.5z" />
    <glyph glyph-name="bracketleft" unicode="[" horiz-adv-x="712" 
d="M686 1491v-129q0 -19 -13 -32t-32 -13h-225v-1313h225q19 0 32 -12t13 -31v-129q0 -19 -13 -32t-32 -13h-461q-19 0 -32 13t-13 30v1663q0 19 13 31t32 12h461q19 0 32 -13t13 -32z" />
    <glyph glyph-name="backslash" unicode="\" horiz-adv-x="976" 
d="M268 1401l650 -1338q12 -23 3.5 -43t-38.5 -20h-123q-27 0 -39.5 9t-20.5 28l-641 1335q-12 23 -2 42.5t39 19.5h119q22 0 32 -6.5t21 -26.5z" />
    <glyph glyph-name="bracketright" unicode="]" horiz-adv-x="712" 
d="M27 1362v129q0 19 13 32t32 13h460q18 0 32 -12.5t14 -30.5v-1663q0 -17 -14 -30t-32 -13h-460q-19 0 -32 13t-13 32v129q0 19 13 31t32 12h225v1313h-225q-19 0 -32 13t-13 32z" />
    <glyph glyph-name="asciicircum" unicode="^" horiz-adv-x="1191" 
d="M334 430h-221q-32 0 -43.5 19.5t0.5 48.5l346 891q18 45 57 45h248q39 0 57 -45l344 -891q12 -29 0.5 -48.5t-45.5 -19.5h-221q-50 0 -61 43l-197 582l-203 -582q-11 -43 -61 -43z" />
    <glyph glyph-name="underscore" unicode="_" horiz-adv-x="702" 
d="M645 -381h-588q-20 0 -33.5 14t-13.5 33v182q0 20 13.5 33t33.5 13h588q20 0 33.5 -13t13.5 -33v-182q0 -19 -13.5 -33t-33.5 -14z" />
    <glyph glyph-name="grave" unicode="`" horiz-adv-x="569" 
d="M115 1518h254q44 0 53 -39l82 -316q15 -65 -53 -65h-136q-33 0 -55 32l-186 320q-15 23 -2.5 45.5t43.5 22.5z" />
    <glyph glyph-name="a" unicode="a" 
d="M342 498q0 -105 70.5 -179.5t173.5 -74.5t173 74.5t70 179.5t-70 179.5t-173 74.5t-173.5 -74.5t-70.5 -179.5zM43 500q0 117 42 217.5t112 167t160 104t186 37.5q98 0 174 -37t112 -98v61q0 19 13 32t30 13h207q19 0 31 -13t12 -32v-909q0 -19 -12 -31t-31 -12h-207
q-18 0 -30.5 12.5t-12.5 30.5v63q-36 -61 -113 -98t-175 -37q-96 0 -186 38t-159 105t-111 168t-42 218z" />
    <glyph glyph-name="b" unicode="b" 
d="M383 1391v-494q39 57 118.5 93t176.5 36t185.5 -37.5t156 -104t107.5 -167t40 -217.5t-40.5 -217.5t-108.5 -168t-158 -105.5t-188 -38q-92 0 -170 34.5t-121 94.5v-57q0 -19 -12 -31t-31 -12h-205q-20 0 -32.5 12t-12.5 31v1348q0 19 12.5 31t32.5 12h207
q18 0 30.5 -12.5t12.5 -30.5zM381 498q0 -105 70.5 -179.5t173.5 -74.5t174 74.5t71 179.5t-71 179.5t-174 74.5t-173.5 -74.5t-70.5 -179.5z" />
    <glyph glyph-name="c" unicode="c" horiz-adv-x="1062" 
d="M1028 203q-66 -105 -183.5 -168.5t-266.5 -63.5t-272.5 70t-194 191t-70.5 266q0 146 70.5 267.5t194 191t272.5 69.5q150 0 267 -63.5t183 -167.5q11 -24 4.5 -45.5t-26.5 -34.5l-119 -90q-45 -35 -90 14q-47 58 -96 85.5t-119 27.5q-104 0 -173 -74t-69 -180t69 -179
t173 -73q70 0 119 27t96 85q46 50 90 15l119 -90q20 -14 26.5 -35t-4.5 -45z" />
    <glyph glyph-name="d" unicode="d" 
d="M342 498q0 -105 70.5 -179.5t173.5 -74.5t173 74.5t70 179.5t-70 179.5t-173 74.5t-173.5 -74.5t-70.5 -179.5zM43 500q0 117 41 217.5t110 167t158 104t185 37.5q99 0 176 -36.5t114 -94.5v496q0 19 13 31t32 12h207q19 0 31 -12t12 -31v-1348q0 -19 -12 -31t-31 -12
h-207q-18 0 -30.5 12.5t-12.5 30.5v63q-43 -62 -117 -98.5t-171 -36.5q-96 0 -186 38t-159 105t-111 168t-42 218z" />
    <glyph glyph-name="e" unicode="e" horiz-adv-x="1112" 
d="M571 1026q115 0 212.5 -42t162 -111.5t101 -159t36.5 -185.5v-55q0 -47 -51 -47h-684q10 -92 77 -148.5t157 -56.5q70 0 120 23.5t93 72.5q28 28 53 11l158 -103q18 -11 19 -30.5t-11 -30.5q-149 -193 -439 -193q-154 0 -276.5 69t-189 188t-66.5 266q0 146 67.5 267.5
t189 193t271.5 71.5zM354 610h439q-19 87 -80.5 132.5t-139.5 45.5q-76 0 -136 -47.5t-83 -130.5z" />
    <glyph glyph-name="f" unicode="f" horiz-adv-x="739" 
d="M66 997h131v140q0 91 31 161.5t83.5 112.5t116 63t133.5 21q76 0 156.5 -26.5t132.5 -73.5q34 -30 4 -76l-88 -123q-25 -40 -84 -4q-46 33 -90 33q-42 0 -71 -29.5t-29 -87.5v-111h190q19 0 32 -13t13 -32v-157q0 -18 -13.5 -31.5t-31.5 -13.5h-190v-705q0 -19 -12 -32
t-31 -13h-207q-19 0 -32 13t-13 32v705h-131q-18 0 -32 14t-14 31v157q0 19 13.5 32t32.5 13z" />
    <glyph glyph-name="g" unicode="g" 
d="M342 508q0 -106 69.5 -177t172.5 -71q104 0 173.5 71t69.5 177q0 105 -69.5 176.5t-173.5 71.5q-103 0 -172.5 -72t-69.5 -176zM590 -221q116 0 177.5 61t61.5 164v117q-37 -56 -112 -91.5t-170 -35.5q-137 0 -251 61.5t-183.5 180t-69.5 272.5q0 116 41 215t109 164.5
t157 102t185 36.5q100 0 178 -37.5t116 -99.5v63q0 18 12.5 30.5t30.5 12.5h207q19 0 31 -12t12 -31v-958q0 -212 -145.5 -340.5t-394.5 -128.5q-197 0 -334 82.5t-174 222.5q-6 12 -1 25.5t21 17.5l215 61q37 6 51 -20q20 -55 78 -95t152 -40z" />
    <glyph glyph-name="h" unicode="h" horiz-adv-x="1212" 
d="M838 41v473q0 110 -59.5 175t-164.5 65q-104 0 -167.5 -67t-63.5 -173v-473q0 -18 -13.5 -29.5t-31.5 -11.5h-207q-19 0 -31 12t-12 31v1348q0 19 12 31t31 12h207q18 0 31.5 -11.5t13.5 -29.5v-500q48 59 131 96t193 37q194 0 311 -122t117 -310v-553q0 -18 -13.5 -29.5
t-31.5 -11.5h-207q-18 0 -31.5 11.5t-13.5 29.5z" />
    <glyph glyph-name="i" unicode="i" horiz-adv-x="471" 
d="M238 1104q-73 0 -126 53t-53 125q0 74 53 127t126 53q72 0 124 -53t52 -127q0 -72 -52 -125t-124 -53zM340 0h-207q-19 0 -32 13t-13 32v907q0 19 13 32t32 13h207q19 0 31 -13t12 -32v-907q0 -19 -12 -32t-31 -13z" />
    <glyph glyph-name="j" unicode="j" horiz-adv-x="471" 
d="M236 1104q-72 0 -125.5 53t-53.5 125q0 73 53.5 126.5t125.5 53.5q73 0 125.5 -53t52.5 -127q0 -72 -52.5 -125t-125.5 -53zM133 997h205q20 0 32.5 -14t12.5 -33v-1048q0 -98 -31.5 -173t-85 -118t-117 -64.5t-133.5 -21.5q-83 0 -160.5 24t-123.5 74q-32 32 -4 76
l84 113q33 43 82 12q47 -31 94 -31q39 0 69.5 27.5t30.5 89.5v1040q0 19 12.5 33t32.5 14z" />
    <glyph glyph-name="k" unicode="k" horiz-adv-x="1042" 
d="M383 412v-369q0 -19 -12 -31t-31 -12h-207q-19 0 -32 12t-13 31v1348q0 19 13 31t32 12h207q19 0 31 -12t12 -31v-742h72l227 314q20 34 59 34h222q32 0 40.5 -22.5t-10.5 -48.5l-284 -371l331 -481q18 -26 6.5 -50t-45.5 -24h-231q-40 0 -61 37l-248 375h-78z" />
    <glyph glyph-name="l" unicode="l" horiz-adv-x="561" 
d="M489 0h-145q-135 0 -197.5 66.5t-62.5 183.5v1139q0 19 12.5 32t32.5 13h205q20 0 32.5 -13t12.5 -32v-1080q0 -29 16 -46t45 -17h64q43 0 43 -43v-148q0 -55 -58 -55z" />
    <glyph glyph-name="m" unicode="m" horiz-adv-x="1849" 
d="M383 535v-494q0 -18 -13.5 -29.5t-31.5 -11.5h-207q-19 0 -31 12t-12 31v909q0 19 12 32t31 13h207q18 0 31.5 -12t13.5 -29v-63q46 58 127 95.5t174 37.5q106 0 186.5 -43.5t124.5 -118.5q129 162 346 162q107 0 192 -36.5t135.5 -97t77 -134t26.5 -152.5v-565
q0 -18 -14 -29.5t-32 -11.5h-206q-18 0 -31.5 11.5t-13.5 29.5v494q0 97 -49.5 158t-143.5 61q-97 0 -151 -61.5t-54 -157.5v-494q0 -18 -13.5 -29.5t-31.5 -11.5h-205q-18 0 -31.5 11.5t-13.5 29.5v494q0 97 -49 158t-145 61q-95 0 -150 -62t-55 -157z" />
    <glyph glyph-name="n" unicode="n" horiz-adv-x="1212" 
d="M838 41v473q0 110 -59.5 175t-164.5 65q-104 0 -167.5 -67t-63.5 -173v-473q0 -18 -13.5 -29.5t-31.5 -11.5h-207q-19 0 -31 12t-12 31v909q0 19 12 32t31 13h207q18 0 31.5 -12t13.5 -29v-63q48 59 131 96t193 37q194 0 311 -122t117 -310v-553q0 -18 -13.5 -29.5
t-31.5 -11.5h-207q-18 0 -31.5 11.5t-13.5 29.5z" />
    <glyph glyph-name="o" unicode="o" horiz-adv-x="1165" 
d="M41 496q0 146 72 268t196.5 192t272.5 70q149 0 273.5 -70t196.5 -192t72 -268q0 -144 -72 -265t-196.5 -190.5t-273.5 -69.5q-148 0 -272.5 69.5t-196.5 190.5t-72 265zM340 498q0 -105 70 -178.5t172 -73.5q103 0 173 73.5t70 178.5t-70 179.5t-173 74.5
q-102 0 -172 -74.5t-70 -179.5z" />
    <glyph glyph-name="p" unicode="p" 
d="M381 498q0 -106 71 -180t175 -74t173.5 73.5t69.5 180.5q0 105 -70 179.5t-173 74.5t-174.5 -74.5t-71.5 -179.5zM379 952v-61q44 62 121.5 98.5t177.5 36.5q97 0 186 -37.5t156 -104.5t107 -166.5t40 -217.5t-40 -218t-107.5 -167.5t-157 -105.5t-188.5 -38
q-90 0 -170 31.5t-121 91.5v-495q0 -18 -12.5 -30.5t-30.5 -12.5h-209q-19 0 -31 12t-12 31v1353q0 19 12 32t31 13h205q19 0 31 -13t12 -32z" />
    <glyph glyph-name="q" unicode="q" 
d="M43 500q0 117 42 217.5t111 167t159 104t186 37.5q99 0 175 -36.5t113 -94.5v57q0 19 13 32t30 13h207q19 0 31 -13t12 -32v-1353q0 -19 -12 -31t-31 -12h-207q-19 0 -31 12t-12 31v507q-43 -62 -117 -98.5t-171 -36.5q-96 0 -186 38t-159 105t-111 168t-42 218zM342 498
q0 -106 70 -180t174 -74t173.5 73.5t69.5 180.5q0 105 -70 179.5t-173 74.5t-173.5 -74.5t-70.5 -179.5z" />
    <glyph glyph-name="r" unicode="r" horiz-adv-x="704" 
d="M606 1012h29q49 0 49 -56v-202q0 -31 -17.5 -43.5t-35.5 -12.5h-53q-99 0 -147 -51t-48 -164v-442q0 -18 -13.5 -29.5t-31.5 -11.5h-207q-19 0 -31 12t-12 31v909q0 19 12 32t31 13h197q17 0 30 -12t13 -29v-82q41 66 102 102t133 36z" />
    <glyph glyph-name="s" unicode="s" horiz-adv-x="978" 
d="M487 1026q135 0 237.5 -38t160.5 -89q48 -39 4 -90l-76 -86q-37 -43 -98 -6q-123 80 -228 80q-59 0 -94 -21t-35 -53q0 -60 115 -82l158 -31q309 -60 309 -301q0 -147 -125 -242.5t-326 -95.5q-218 0 -378 111q-123 88 -43 154l90 69q49 38 100 -6q115 -100 242 -100
q65 0 101 24.5t36 59.5t-33.5 54.5t-109.5 33.5l-164 35q-127 26 -199 100t-72 194q0 139 117.5 232.5t310.5 93.5z" />
    <glyph glyph-name="t" unicode="t" horiz-adv-x="839" 
d="M184 297v453h-131q-18 0 -30.5 13.5t-12.5 31.5v157q0 19 12 32t31 13h131v265q0 20 13 32.5t32 12.5h209q18 0 30.5 -12.5t12.5 -32.5v-265h281q19 0 33 -13t14 -32v-157q0 -17 -14 -31t-33 -14h-281v-383q0 -65 30.5 -90t70.5 -25q46 0 90 29q24 18 47.5 16t36.5 -25
l71 -114q24 -40 -6 -74q-50 -53 -127.5 -80t-167.5 -27q-67 0 -126.5 18.5t-108.5 55.5t-78 100.5t-29 145.5z" />
    <glyph glyph-name="u" unicode="u" horiz-adv-x="1165" 
d="M373 956v-514q0 -102 50.5 -161.5t151.5 -59.5q98 0 152.5 59t54.5 158v518q0 17 13 29t30 12h207q20 0 32.5 -13t12.5 -32v-909q0 -19 -12.5 -31t-32.5 -12h-207q-18 0 -30.5 11.5t-12.5 29.5v63q-53 -64 -121.5 -98.5t-177.5 -34.5q-188 0 -296.5 115.5t-108.5 306.5
v563q0 17 13.5 29t31.5 12h205q19 0 32 -12t13 -29z" />
    <glyph glyph-name="v" unicode="v" horiz-adv-x="1069" 
d="M688 0h-307q-43 0 -57 45l-306 883q-11 27 1.5 48t41.5 21h226q41 0 53 -45l207 -671l182 671q12 45 55 45h222q29 0 42.5 -21t2.5 -48l-306 -883q-14 -45 -57 -45z" />
    <glyph glyph-name="w" unicode="w" horiz-adv-x="1605" 
d="M803 604l-154 -559q-11 -45 -55 -45h-244q-41 0 -55 45l-285 887q-10 30 1.5 47.5t41.5 17.5h219q42 0 54 -45l155 -596l166 598q12 43 55 43h218q43 0 55 -43l166 -598l162 596q12 45 53 45h194q27 0 39 -17.5t2 -47.5l-282 -887q-14 -45 -58 -45h-239q-22 0 -37.5 12.5
t-20.5 32.5z" />
    <glyph glyph-name="x" unicode="x" horiz-adv-x="1062" 
d="M506 299l-178 -262q-27 -37 -66 -37h-217q-25 0 -34 18.5t5 38.5l326 459l-317 420q-17 20 -7.5 40.5t33.5 20.5h252q22 0 36 -7t30 -29l188 -246l166 246q21 36 65 36h213q24 0 34 -19.5t-7 -39.5l-309 -440l334 -441q14 -20 5.5 -38.5t-34.5 -18.5h-252q-40 0 -67 37z
" />
    <glyph glyph-name="y" unicode="y" horiz-adv-x="1077" 
d="M322 -475q-191 0 -304 104q-35 30 -4 78l74 107q32 50 90 12q62 -47 123 -47q88 0 125 94l45 127h-104q-42 0 -56 43l-293 885q-8 30 2.5 49.5t45.5 19.5h239q36 0 47 -47l199 -680l184 680q11 47 56 47h231q30 0 40 -19t-1 -50l-340 -1096q-46 -145 -147 -226t-252 -81z
" />
    <glyph glyph-name="z" unicode="z" horiz-adv-x="974" 
d="M889 758l-451 -504h453q18 0 30.5 -12.5t12.5 -32.5v-166q0 -18 -12.5 -30.5t-30.5 -12.5h-805q-19 0 -32 13t-13 32v139q0 32 20 52l457 507h-412q-19 0 -32 13t-13 32v162q0 19 13 33t32 14h760q17 0 31 -14t14 -33v-137q0 -33 -22 -55z" />
    <glyph glyph-name="braceleft" unicode="{" horiz-adv-x="714" 
d="M481 451v-369q0 -41 17 -58.5t53 -17.5h86q18 0 31.5 -13.5t13.5 -31.5v-127q0 -18 -13.5 -31.5t-31.5 -13.5h-197q-127 0 -194.5 63.5t-67.5 204.5v430q0 45 -16.5 61.5t-55.5 16.5h-22q-49 0 -49 53v111q0 31 15 43t34 12h22q38 0 55 16.5t17 59.5v408
q0 141 67.5 204.5t194.5 63.5h197q18 0 31.5 -13.5t13.5 -31.5v-129q0 -17 -14 -31t-31 -14h-86q-36 0 -53 -17t-17 -59v-344q0 -53 -16 -95t-38 -65t-47.5 -38t-41 -20t-21.5 -5q6 0 21.5 -5t41 -20t47.5 -38t38 -65t16 -95z" />
    <glyph glyph-name="bar" unicode="|" horiz-adv-x="444" 
d="M262 -256h-80q-19 0 -32 13t-13 32v1858q0 19 13 31t32 12h80q20 0 32.5 -12t12.5 -31v-1858q0 -19 -12.5 -32t-32.5 -13z" />
    <glyph glyph-name="braceright" unicode="}" horiz-adv-x="714" 
d="M233 82v369q0 53 16 95t38 65t47.5 38t41 20t21.5 5q-6 0 -21.5 5t-41 20t-47.5 38t-38 65t-16 95v344q0 42 -16.5 59t-54.5 17h-84q-17 0 -31 14t-14 31v129q0 18 13.5 31.5t31.5 13.5h194q129 0 197 -63.5t68 -204.5v-408q0 -43 16.5 -59.5t54.5 -16.5h23q19 0 34 -12
t15 -43v-111q0 -53 -49 -53h-23q-38 0 -54.5 -16.5t-16.5 -61.5v-430q0 -141 -68 -204.5t-197 -63.5h-194q-18 0 -31.5 13.5t-13.5 31.5v127q0 18 13.5 31.5t31.5 13.5h84q37 0 54 17.5t17 58.5z" />
    <glyph glyph-name="asciitilde" unicode="~" horiz-adv-x="1241" 
d="M918 543q-63 0 -286.5 33.5t-254.5 33.5q-37 0 -64 -14.5t-48 -31.5t-40 -21q-24 -6 -51 24l-74 101q-25 36 -22 63q2 19 24.5 47t56.5 54t80.5 44.5t90.5 18.5q59 0 281 -34t259 -34q38 0 66 15.5t49.5 33t40.5 19.5q25 6 53 -25l64 -100q25 -36 22 -63
q-5 -45 -82.5 -104.5t-164.5 -59.5z" />
    <glyph glyph-name="uni00A0" unicode="&#xa0;" horiz-adv-x="409" 
 />
    <glyph glyph-name="exclamdown" unicode="&#xa1;" horiz-adv-x="555" 
d="M276 1026q81 0 138 -56.5t57 -135.5q0 -80 -57 -137.5t-138 -57.5q-78 0 -134 57.5t-56 137.5q0 78 56 135t134 57zM430 461l4 -852q0 -19 -14 -32t-33 -13h-217q-20 0 -33.5 13t-13.5 32l4 852q0 19 12.5 32t32.5 13h211q20 0 33.5 -13t13.5 -32z" />
    <glyph glyph-name="cent" unicode="&#xa2;" horiz-adv-x="1128" 
d="M686 -25v-122q0 -20 -14.5 -35t-34.5 -15h-59q-20 0 -35 15t-15 35v124q-197 25 -327.5 173t-130.5 348q0 202 130.5 349.5t327.5 172.5v131q0 20 14.5 33.5t35.5 13.5h59q20 0 34.5 -13.5t14.5 -33.5v-129q123 -17 218 -77t153 -150q11 -24 4 -45.5t-27 -34.5l-119 -90
q-45 -35 -90 14q-73 83 -139 102v-485q70 20 139 102q46 50 90 15l119 -90q20 -14 27 -35t-4 -45q-58 -90 -153 -150.5t-218 -77.5zM369 498q0 -84 43.5 -148.5t115.5 -89.5v477q-73 -26 -116 -90.5t-43 -148.5z" />
    <glyph glyph-name="sterling" unicode="&#xa3;" horiz-adv-x="1304" 
d="M1208 244v-197q0 -20 -13.5 -33.5t-33.5 -13.5h-1032q-20 0 -33.5 13.5t-13.5 33.5v197q0 20 13.5 32.5t33.5 12.5h121v258h-121q-20 0 -33.5 14t-13.5 33v156q0 20 13.5 33.5t33.5 13.5h121v182q0 212 143 347.5t361 135.5q165 0 288 -68t193 -180q9 -25 3.5 -38.5
t-28.5 -32.5l-133 -96q-48 -34 -90 14q-98 127 -215 127q-105 0 -160 -67t-55 -175v-149h320q19 0 33 -13.5t14 -33.5v-156q0 -19 -14 -33t-33 -14h-320v-258h604q20 0 33.5 -12.5t13.5 -32.5z" />
    <glyph glyph-name="currency" unicode="&#xa4;" horiz-adv-x="1576" 
d="M788 1151q-118 0 -221 -64l221 -221l218 221q-103 64 -218 64zM362 717q0 -123 64 -221l215 221l-215 223q-64 -101 -64 -223zM1212 717q0 120 -61 223l-219 -223l219 -221q61 99 61 221zM788 285q124 0 218 61l-218 223l-221 -223q99 -61 221 -61zM1473 717
q-3 -223 -142 -402l144 -143q32 -32 2 -66l-84 -79q-13 -13 -33 -13t-33 13l-147 147q-174 -121 -392 -121q-212 0 -395 121l-145 -147q-14 -14 -33 -15t-33 15l-82 79q-35 31 0 66l142 141q-140 183 -140 404q0 222 140 405l-142 142q-17 14 -17 32t17 31l82 82
q14 16 33 15t33 -15l145 -147q179 118 395 118q223 0 392 -118l147 147q13 13 33 13t33 -13l84 -82q13 -13 13.5 -30.5t-15.5 -32.5l-144 -144q142 -186 142 -403z" />
    <glyph glyph-name="yen" unicode="&#xa5;" horiz-adv-x="1429" 
d="M870 319v-272q0 -20 -14 -33.5t-33 -13.5h-215q-20 0 -32.5 13.5t-12.5 33.5v272h-330q-19 0 -32 14t-13 34v116q0 19 13 33t32 14h330v11l-69 112h-261q-19 0 -32 13.5t-13 33.5v117q0 19 13 33t32 14h136l-303 500q-17 25 -6 47.5t38 22.5h269q35 0 53 -35l299 -514h6
l297 514q18 35 53 35h256q28 0 39.5 -20.5t-4.5 -49.5l-301 -500h129q19 0 32 -14t13 -33v-117q0 -20 -13 -33.5t-32 -13.5h-256l-68 -112v-11h324q19 0 32 -14t13 -33v-116q0 -20 -13 -34t-32 -14h-324z" />
    <glyph glyph-name="brokenbar" unicode="&#xa6;" horiz-adv-x="452" 
d="M311 1647v-723q0 -19 -12 -31t-31 -12h-82q-19 0 -32 12t-13 31v723q0 19 13 31t32 12h82q19 0 31 -12t12 -31zM311 510v-721q0 -19 -12 -32t-31 -13h-82q-19 0 -32 13t-13 32v721q0 20 13 32.5t32 12.5h82q19 0 31 -12.5t12 -32.5z" />
    <glyph glyph-name="section" unicode="&#xa7;" horiz-adv-x="1591" 
d="M635 459l307 -142q108 -51 178 -114q48 26 73.5 65.5t25.5 85.5q0 80 -63 133.5t-200 114.5l-307 139q-101 46 -180 117q-48 -24 -72 -64t-24 -87q0 -79 63.5 -133.5t198.5 -114.5zM745 -541q-149 0 -276.5 61t-192.5 140q-52 65 -4 109l123 106q23 19 50 17t47 -25
q119 -129 253 -129q82 0 131.5 41t49.5 100q0 65 -46 112t-151 95l-362 162q-149 69 -232.5 176t-83.5 250q0 75 27 148t95 145t169 114q-6 44 -6 88q0 186 143.5 309.5t366.5 123.5q149 0 275 -59.5t192 -139.5q52 -70 4 -111l-123 -104q-23 -20 -49.5 -17.5t-46.5 25.5
q-117 127 -254 127q-82 0 -131 -41t-49 -100q0 -65 45.5 -112t150.5 -95l365 -162q147 -65 230 -173.5t83 -252.5q0 -75 -27 -148.5t-95 -145.5t-169 -116q8 -36 8 -86q-5 -187 -145.5 -309.5t-364.5 -122.5z" />
    <glyph glyph-name="dieresis" unicode="&#xa8;" horiz-adv-x="917" 
d="M53 1272q0 75 54.5 128.5t128.5 53.5q75 0 128.5 -53.5t53.5 -128.5t-53.5 -128.5t-128.5 -53.5q-74 0 -128.5 53.5t-54.5 128.5zM498 1272q0 75 54 128.5t128 53.5q75 0 128.5 -53.5t53.5 -128.5t-53.5 -128.5t-128.5 -53.5q-74 0 -128 53.5t-54 128.5z" />
    <glyph glyph-name="copyright" unicode="&#xa9;" horiz-adv-x="1884" 
d="M66 717q0 177 68 335.5t185 272t279 180t344 66.5q242 0 443.5 -112.5t317.5 -308.5t116 -433t-116 -432.5t-317 -307.5t-444 -112q-182 0 -344 66t-279 179t-185 271.5t-68 335.5zM1642 717q0 194 -91 354.5t-252 253t-357 92.5t-357 -92.5t-252 -253t-91 -354.5
q0 -145 53.5 -274.5t146.5 -222.5t223 -147.5t277 -54.5t277 54.5t223 147.5t146.5 222.5t53.5 274.5zM946 956q-102 0 -165.5 -67.5t-63.5 -169.5q0 -100 63.5 -168t165.5 -68q61 0 105 26t90 79q14 20 35.5 25t52.5 -11l125 -84q21 -12 28.5 -33t-2.5 -45
q-63 -103 -177.5 -167t-262.5 -64q-146 0 -266 67t-188 183.5t-68 259.5q0 218 149.5 365t372.5 147q147 0 262 -64t178 -168q10 -24 2.5 -44.5t-28.5 -32.5l-125 -84q-31 -16 -52.5 -11t-35.5 25q-46 53 -89.5 78.5t-105.5 25.5z" />
    <glyph glyph-name="ordfeminine" unicode="&#xaa;" horiz-adv-x="948" 
d="M457 1270q-72 0 -121 -51t-49 -123q0 -74 49 -125t121 -51q71 0 118.5 51t47.5 125q0 73 -47.5 123.5t-118.5 50.5zM625 776v37q-26 -41 -79.5 -64.5t-119.5 -23.5q-145 0 -248.5 102.5t-103.5 268.5q0 165 105 267.5t247 102.5q66 0 119 -24.5t80 -63.5v35q0 33 32 33
h144q33 0 33 -33v-637q0 -33 -33 -33h-144q-32 0 -32 33zM797 455h-637q-35 0 -35 34v132q0 36 35 36h637q37 0 37 -36v-132q0 -34 -37 -34z" />
    <glyph glyph-name="guillemotleft" unicode="&#xab;" horiz-adv-x="1128" 
d="M565 16h-200q-25 0 -39 7.5t-27 29.5l-238 416q-21 34 0 68l238 417q18 35 66 35h200q18 0 28.5 -17.5t0.5 -39.5l-215 -430l215 -426q10 -22 -0.5 -41t-28.5 -19zM1030 16h-199q-24 0 -38 7.5t-27 29.5l-238 416q-21 34 0 68l238 417q18 35 65 35h199q20 0 30.5 -17.5
t0.5 -39.5l-215 -430l215 -426q10 -22 -0.5 -41t-30.5 -19z" />
    <glyph glyph-name="logicalnot" unicode="&#xac;" horiz-adv-x="1275" 
d="M1147 1051v-668q0 -20 -12.5 -33.5t-32.5 -13.5h-213q-20 0 -33.5 13.5t-13.5 33.5v424h-736q-20 0 -33.5 13t-13.5 32v199q0 20 13.5 33.5t33.5 13.5h996q20 0 32.5 -13.5t12.5 -33.5z" />
    <glyph glyph-name="registered" unicode="&#xae;" horiz-adv-x="1855" 
d="M66 717q0 236 115 432.5t313.5 309t435.5 112.5q178 0 337 -66.5t274 -180t182 -272t67 -335.5t-67 -335.5t-182 -271.5t-274 -179t-337 -66q-237 0 -435.5 112t-313.5 308t-115 432zM1618 717q0 145 -53.5 275t-145 223t-219 147.5t-270.5 54.5q-193 0 -351.5 -92.5
t-248.5 -253t-90 -354.5q0 -145 53 -274.5t144 -222.5t219.5 -147.5t273.5 -54.5q143 0 270.5 54.5t219 147.5t145 222.5t53.5 274.5zM1141 874q0 63 -41.5 102.5t-104.5 39.5h-178v-283h178q64 2 105 41t41 100zM784 211h-176q-15 0 -25 8.5t-10 24.5v944q0 14 10.5 24.5
t24.5 10.5h398q180 0 284.5 -102.5t104.5 -246.5q0 -99 -53 -182.5t-150 -126.5l178 -301q12 -23 4.5 -37t-31.5 -14h-182q-25 0 -39.5 9t-27.5 30l-154 276h-123v-284q0 -16 -10 -24.5t-23 -8.5z" />
    <glyph glyph-name="overscore" unicode="&#xaf;" horiz-adv-x="1015" 
d="M829 1133h-645q-19 0 -32 13.5t-13 33.5v155q0 19 13 32t32 13h645q20 0 34 -13t14 -32v-155q0 -20 -14 -33.5t-34 -13.5z" />
    <glyph glyph-name="degree" unicode="&#xb0;" horiz-adv-x="786" 
d="M393 797q-141 0 -241.5 96.5t-100.5 236.5q0 139 101 235.5t241 96.5q142 0 242 -96.5t100 -235.5q0 -140 -100 -236.5t-242 -96.5zM393 1292q-67 0 -112 -46.5t-45 -115.5t45 -116t112 -47t112.5 47t45.5 116t-45.5 115.5t-112.5 46.5z" />
    <glyph glyph-name="plusminus" unicode="&#xb1;" horiz-adv-x="1243" 
d="M514 1397h213q20 0 33.5 -13.5t13.5 -33.5v-359h346q19 0 32 -13.5t13 -33.5v-199q0 -19 -13 -32t-32 -13h-346v-360q0 -20 -13.5 -33.5t-33.5 -13.5h-213q-20 0 -33.5 13.5t-13.5 33.5v360h-344q-19 0 -32 13t-13 32v199q0 20 13 33.5t32 13.5h344v359q0 20 13.5 33.5
t33.5 13.5zM1165 244v-197q0 -20 -13 -33.5t-32 -13.5h-997q-19 0 -32 13.5t-13 33.5v197q0 20 13 32.5t32 12.5h997q19 0 32 -12.5t13 -32.5z" />
    <glyph glyph-name="twosuperior" unicode="&#xb2;" horiz-adv-x="628" 
d="M561 1022h-483q-25 0 -25 22v86q0 20 17 37l200 168q69 57 100 95.5t31 82.5q0 38 -28.5 64.5t-69.5 26.5q-45 0 -71.5 -24t-47.5 -67q-14 -36 -49 -24l-82 31q-24 9 -18 36q24 83 96 140t182 57q107 0 181.5 -63.5t74.5 -165.5q0 -78 -46 -140.5t-140 -138.5l-100 -78
h278q10 0 17.5 -7t7.5 -15v-98q0 -11 -7 -18t-18 -7z" />
    <glyph glyph-name="threesuperior" unicode="&#xb3;" horiz-adv-x="630" 
d="M313 1618q-68 0 -110 -72q-15 -21 -37 -12l-76 35q-26 14 -14 41q24 56 88.5 99.5t159.5 43.5t161 -51t66 -135q0 -50 -26.5 -90.5t-69.5 -59.5q59 -14 97 -61t38 -117q0 -104 -80 -167.5t-201 -63.5q-127 0 -203.5 65.5t-76.5 171.5v15q0 24 22 24h109q26 0 26 -24v-7
q0 -49 32.5 -79.5t90.5 -30.5q52 0 83.5 28.5t31.5 71.5q0 42 -30 67t-85 25h-24q-23 0 -23 25v76q0 24 23 24h24q38 0 65 22t27 58q0 35 -24.5 56.5t-63.5 21.5z" />
    <glyph glyph-name="acute" unicode="&#xb4;" horiz-adv-x="569" 
d="M205 1518h254q34 0 45 -22.5t-4 -45.5l-187 -320q-22 -32 -55 -32h-135q-65 0 -53 65l82 316q9 39 53 39z" />
    <glyph glyph-name="mu" unicode="&#xb5;" horiz-adv-x="1261" 
d="M133 -279v1235q0 17 13 29t32 12h205q18 0 31.5 -12t13.5 -29v-514q0 -102 50 -161.5t151 -59.5q100 0 152.5 58.5t52.5 158.5v518q0 17 13.5 29t31.5 12h208q19 0 31 -13t12 -32v-909q0 -19 -12 -31t-31 -12h-208q-18 0 -31.5 11.5t-13.5 29.5v63q-43 -60 -112.5 -96.5
t-152.5 -36.5q-123 0 -190 60v-310q0 -19 -12 -32t-31 -13h-158q-19 0 -32 13t-13 32z" />
    <glyph glyph-name="paragraph" unicode="&#xb6;" horiz-adv-x="1308" 
d="M59 965q0 128 56 234.5t160.5 170.5t236.5 64h586q20 0 33.5 -13t13.5 -32v-1342q0 -20 -13.5 -33.5t-33.5 -13.5h-133q-19 0 -33 13.5t-14 33.5v1198h-189v-1200q0 -20 -14 -32.5t-33 -12.5h-135q-19 0 -32 12.5t-13 32.5v473h-8q-135 0 -235.5 62.5t-150 162.5
t-49.5 222z" />
    <glyph glyph-name="middot" unicode="&#xb7;" horiz-adv-x="536" 
d="M268 520q-82 0 -142 60.5t-60 142.5q0 85 59.5 144t142.5 59t143 -59t60 -144q0 -82 -60.5 -142.5t-142.5 -60.5z" />
    <glyph glyph-name="cedilla" unicode="&#xb8;" horiz-adv-x="557" 
d="M205 47l305 -41l-156 -311q-16 -29 -57 -29h-160q-26 0 -37.5 16t-1.5 42z" />
    <glyph glyph-name="onesuperior" unicode="&#xb9;" horiz-adv-x="391" 
d="M23 1542v84q0 27 24 27h29q68 0 96 61q12 27 41 27h66q12 0 19 -7t7 -18v-669q0 -11 -7 -18t-19 -7h-111q-10 0 -17.5 7t-7.5 18v473h-96q-10 0 -17 7t-7 15z" />
    <glyph glyph-name="ordmasculine" unicode="&#xba;" horiz-adv-x="919" 
d="M459 723q-157 0 -268 107t-111 262q0 156 111 265t268 109q160 0 270.5 -108.5t110.5 -265.5q0 -155 -110.5 -262t-270.5 -107zM459 1268q-71 0 -119.5 -50.5t-48.5 -123.5t48.5 -123.5t119.5 -50.5q72 0 121 51t49 123t-49 123t-121 51zM776 455h-635q-32 0 -32 34v132
q0 17 9 26.5t23 9.5h635q35 0 35 -36v-132q0 -34 -35 -34z" />
    <glyph glyph-name="guillemotright" unicode="&#xbb;" horiz-adv-x="1126" 
d="M1067 469l-238 -416q-21 -37 -65 -37h-201q-18 0 -28 19t0 41l213 426l-213 430q-10 22 0 39.5t28 17.5h201q47 0 65 -35l238 -417q15 -34 0 -68zM600 469l-238 -416q-21 -37 -65 -37h-199q-19 0 -28.5 18.5t0.5 41.5l213 426l-213 430q-11 23 -1.5 40t29.5 17h199
q47 0 65 -35l238 -417q15 -34 0 -68z" />
    <glyph glyph-name="onequarter" unicode="&#xbc;" horiz-adv-x="1382" 
d="M1178 1366l-920 -1327q-12 -21 -25 -30t-40 -9h-41q-34 0 -44 22.5t9 45.5l919 1327q12 20 25.5 29.5t40.5 9.5h41q34 0 44 -22.5t-9 -45.5zM70 1235v84q0 27 24 27h29q68 0 96 61q12 27 41 27h66q12 0 19 -7t7 -18v-670q0 -24 -26 -24h-111q-11 0 -18 7t-7 17v473h-96
q-10 0 -17 7.5t-7 15.5zM1180 0h-109q-11 0 -19 7.5t-8 17.5v149h-319q-11 0 -19 7.5t-8 17.5v80q0 35 17 57l268 362q15 21 35 21h162q11 0 18.5 -7.5t7.5 -17.5v-391h92q25 0 25 -27v-77q0 -11 -7.5 -18t-17.5 -7h-92v-149q0 -10 -7.5 -17.5t-18.5 -7.5zM850 303h194v260z
" />
    <glyph glyph-name="onehalf" unicode="&#xbd;" horiz-adv-x="1447" 
d="M1161 1366l-919 -1327q-12 -20 -25.5 -29.5t-40.5 -9.5h-41q-34 0 -44 22.5t9 45.5l920 1327q12 21 25 30t40 9h41q34 0 44 -22.5t-9 -45.5zM68 1235v84q0 27 24 27h29q68 0 96 61q12 27 41 27h66q12 0 19 -7t7 -18v-670q0 -24 -26 -24h-111q-11 0 -18 7t-7 17v473h-96
q-10 0 -17 7.5t-7 15.5zM1364 0h-483q-11 0 -18 6.5t-7 16.5v86q0 20 16 36l201 168q68 56 99.5 95.5t31.5 83.5q0 38 -28.5 64t-69.5 26q-45 0 -71.5 -24t-47.5 -66q-15 -37 -49 -25l-82 31q-24 9 -18 37q24 82 96 139t182 57q107 0 181.5 -63.5t74.5 -165.5
q0 -78 -46 -140.5t-140 -138.5l-101 -78h279q10 0 17.5 -7t7.5 -15v-98q0 -11 -7.5 -18t-17.5 -7z" />
    <glyph glyph-name="threequarters" unicode="&#xbe;" horiz-adv-x="1503" 
d="M1321 1366l-920 -1327q-8 -14 -14.5 -21t-19 -12.5t-31.5 -5.5h-41q-34 0 -44 22.5t9 45.5l920 1327q12 21 25 30t40 9h41q34 0 44 -22.5t-9 -45.5zM342 1317q-69 0 -111 -72q-15 -21 -36 -12l-76 35q-27 15 -15 41q24 56 88.5 99.5t159.5 43.5q96 0 162 -51t66 -135
q0 -50 -26.5 -90.5t-70.5 -59.5q59 -14 97 -61t38 -117q0 -104 -79.5 -167.5t-200.5 -63.5q-127 0 -204 65.5t-77 171.5v14q0 25 23 25h108q27 0 27 -25v-6q0 -49 32.5 -79.5t90.5 -30.5q52 0 83.5 28.5t31.5 71.5q0 42 -30 67t-85 25h-25q-22 0 -22 25v76q0 24 22 24h25
q38 0 65 22t27 58q0 35 -24.5 56.5t-63.5 21.5zM1300 0h-108q-11 0 -19 7.5t-8 17.5v149h-319q-11 0 -19 7.5t-8 17.5v80q0 35 17 57l268 362q15 21 35 21h161q11 0 19 -7.5t8 -17.5v-391h92q25 0 25 -27v-77q0 -11 -7 -18t-18 -7h-92v-149q0 -10 -8 -17.5t-19 -7.5z
M971 303h194v260z" />
    <glyph glyph-name="questiondown" unicode="&#xbf;" horiz-adv-x="1009" 
d="M487 1026q79 0 137 -57t58 -135q0 -80 -58 -137.5t-137 -57.5q-78 0 -135 58t-57 137q0 78 57 135t135 57zM512 -467q-109 0 -196 33.5t-140.5 89t-81.5 123.5t-28 141q0 74 28.5 145t69 124.5t81 100.5t69 92.5t28.5 82.5v12q0 43 43 43h209q19 0 31 -12.5t12 -32.5v-49
q0 -51 -26 -104.5t-63.5 -99.5t-75 -91t-63.5 -94t-26 -92q0 -55 41.5 -96.5t114.5 -41.5q109 0 198 117q20 23 47 26t52 -16l100 -79q58 -45 2 -121q-59 -84 -166 -142.5t-260 -58.5z" />
    <glyph glyph-name="Agrave" unicode="&#xc0;" horiz-adv-x="1398" 
d="M424 1954h254q44 0 53 -39l82 -316q15 -65 -53 -65h-135q-33 0 -56 33l-186 319q-15 23 -2.5 45.5t43.5 22.5zM870 590l-180 540h-6l-176 -540h362zM422 332l-94 -291q-14 -41 -47 -41h-230q-26 0 -37.5 19.5t0.5 50.5l463 1319q14 45 60 45h323q41 0 60 -45l464 -1317
q10 -35 -1.5 -53.5t-41.5 -18.5h-241q-35 0 -47 41l-97 291h-534z" />
    <glyph glyph-name="Aacute" unicode="&#xc1;" horiz-adv-x="1398" 
d="M719 1954h254q34 0 45 -22.5t-4 -45.5l-187 -319q-23 -33 -55 -33h-135q-65 0 -53 65l82 316q9 39 53 39zM870 590l-180 540h-6l-176 -540h362zM422 332l-94 -291q-14 -41 -47 -41h-230q-26 0 -37.5 19.5t0.5 50.5l463 1319q14 45 60 45h323q41 0 60 -45l464 -1317
q10 -35 -1.5 -53.5t-41.5 -18.5h-241q-35 0 -47 41l-97 291h-534z" />
    <glyph glyph-name="Acircumflex" unicode="&#xc2;" horiz-adv-x="1398" 
d="M569 1954h256q39 0 62 -45l190 -310q15 -29 3 -47t-33 -18h-173q-23 0 -34.5 7.5t-26.5 27.5l-117 160l-114 -160q-14 -16 -20 -21t-17 -9.5t-27 -4.5h-170q-23 0 -34.5 18t3.5 47l189 310q26 45 63 45zM870 590l-180 540h-6l-176 -540h362zM422 332l-94 -291
q-14 -41 -47 -41h-230q-26 0 -37.5 19.5t0.5 50.5l463 1319q14 45 60 45h323q41 0 60 -45l464 -1317q10 -35 -1.5 -53.5t-41.5 -18.5h-241q-35 0 -47 41l-97 291h-534z" />
    <glyph glyph-name="Atilde" unicode="&#xc3;" horiz-adv-x="1398" 
d="M874 1561q-57 0 -177.5 31.5t-145.5 31.5q-35 0 -61.5 -16.5t-45.5 -32.5t-36 -16q-23 0 -43 26l-62 92q-18 23 -18 58q0 49 69 105t160 56q52 0 173.5 -32.5t150.5 -32.5q35 0 62.5 16.5t47.5 33.5t37 17q19 0 43 -28l57 -92q19 -29 19 -58q0 -47 -70 -103t-160 -56z
M870 590l-180 540h-6l-176 -540h362zM422 332l-94 -291q-14 -41 -47 -41h-230q-26 0 -37.5 19.5t0.5 50.5l463 1319q14 45 60 45h323q41 0 60 -45l464 -1317q10 -35 -1.5 -53.5t-41.5 -18.5h-241q-35 0 -47 41l-97 291h-534z" />
    <glyph glyph-name="Adieresis" unicode="&#xc4;" horiz-adv-x="1398" 
d="M291 1708q0 75 54 128.5t128 53.5q75 0 128.5 -53.5t53.5 -128.5t-53.5 -128.5t-128.5 -53.5q-74 0 -128 53.5t-54 128.5zM735 1708q0 75 54.5 128.5t128.5 53.5q75 0 128.5 -53.5t53.5 -128.5t-53.5 -128.5t-128.5 -53.5q-74 0 -128.5 53.5t-54.5 128.5zM870 590
l-180 540h-6l-176 -540h362zM422 332l-94 -291q-14 -41 -47 -41h-230q-26 0 -37.5 19.5t0.5 50.5l463 1319q14 45 60 45h323q41 0 60 -45l464 -1317q10 -35 -1.5 -53.5t-41.5 -18.5h-241q-35 0 -47 41l-97 291h-534z" />
    <glyph glyph-name="Aring" unicode="&#xc5;" horiz-adv-x="1398" 
d="M1014 1825q0 -128 -92 -213.5t-226 -85.5q-135 0 -225 85t-90 214t90 215t225 86q134 0 226 -86.5t92 -214.5zM819 1825q0 55 -34 92t-89 37t-89 -37t-34 -92t34 -91t89 -36t89 36t34 91zM870 590l-180 540h-6l-176 -540h362zM422 332l-94 -291q-14 -41 -47 -41h-230
q-26 0 -37.5 19.5t0.5 50.5l463 1319q14 45 60 45h323q41 0 60 -45l464 -1317q10 -35 -1.5 -53.5t-41.5 -18.5h-241q-35 0 -47 41l-97 291h-534z" />
    <glyph glyph-name="AE" unicode="&#xc6;" horiz-adv-x="1929" 
d="M899 598l-188 592l-189 -592h377zM446 332l-92 -287q-12 -45 -55 -45h-246q-28 0 -39.5 17t-1.5 51l449 1321q14 45 59 45h1311q20 0 33.5 -14t13.5 -34v-196q0 -20 -13.5 -32.5t-33.5 -12.5h-774l102 -289h395q20 0 34 -13.5t14 -33.5v-180q0 -19 -14 -33t-34 -14h-305
l105 -293h477q20 0 33.5 -12.5t13.5 -32.5v-197q0 -20 -13.5 -33.5t-33.5 -13.5h-701q-49 0 -61 45l-94 287h-529z" />
    <glyph glyph-name="Ccedilla" unicode="&#xc7;" horiz-adv-x="1513" 
d="M958 -16l-145 -289q-16 -29 -57 -29h-160q-26 0 -37.5 16t-1.5 42l88 264q-262 55 -429 256.5t-167 472.5q0 155 59.5 293t160.5 237t242 157t298 58q239 0 426.5 -118t259.5 -324q14 -38 -22 -47l-234 -62q-15 -4 -25.5 1.5t-13.5 11t-8 16.5q-125 238 -381 238
q-191 0 -316.5 -133.5t-125.5 -327.5t125.5 -327.5t316.5 -133.5q256 0 381 238q5 11 8 16t13.5 10.5t25.5 1.5l234 -61q36 -9 22 -47q-60 -173 -203.5 -285t-333.5 -145z" />
    <glyph glyph-name="Egrave" unicode="&#xc8;" horiz-adv-x="1298" 
d="M408 1954h254q44 0 53 -39l82 -316q15 -65 -54 -65h-135q-19 0 -30.5 7.5t-24.5 25.5l-186 319q-15 23 -2.5 45.5t43.5 22.5zM166 1434h1026q20 0 33.5 -14t13.5 -34v-188q0 -20 -13.5 -33.5t-33.5 -13.5h-764v-295h399q20 0 32.5 -13.5t12.5 -33.5v-180q0 -19 -12.5 -33
t-32.5 -14h-399v-299h780q19 0 33 -13.5t14 -33.5v-189q0 -20 -14 -33.5t-33 -13.5h-1042q-20 0 -32.5 13.5t-12.5 33.5v1342q0 19 12.5 32t32.5 13z" />
    <glyph glyph-name="Eacute" unicode="&#xc9;" horiz-adv-x="1298" 
d="M702 1954h254q34 0 45 -22.5t-4 -45.5l-186 -319q-23 -33 -55 -33h-135q-66 0 -54 65l82 316q9 39 53 39zM166 1434h1026q20 0 33.5 -14t13.5 -34v-188q0 -20 -13.5 -33.5t-33.5 -13.5h-764v-295h399q20 0 32.5 -13.5t12.5 -33.5v-180q0 -19 -12.5 -33t-32.5 -14h-399
v-299h780q19 0 33 -13.5t14 -33.5v-189q0 -20 -14 -33.5t-33 -13.5h-1042q-20 0 -32.5 13.5t-12.5 33.5v1342q0 19 12.5 32t32.5 13z" />
    <glyph glyph-name="Ecircumflex" unicode="&#xca;" horiz-adv-x="1298" 
d="M555 1954h256q38 0 61 -45l191 -310q15 -29 2.5 -47t-33.5 -18h-172q-23 0 -34.5 7.5t-26.5 27.5l-117 160l-115 -160q-15 -16 -20 -21t-16 -9.5t-27 -4.5h-170q-23 0 -34.5 18t3.5 47l189 310q26 45 63 45zM166 1434h1026q20 0 33.5 -14t13.5 -34v-188
q0 -20 -13.5 -33.5t-33.5 -13.5h-764v-295h399q20 0 32.5 -13.5t12.5 -33.5v-180q0 -19 -12.5 -33t-32.5 -14h-399v-299h780q19 0 33 -13.5t14 -33.5v-189q0 -20 -14 -33.5t-33 -13.5h-1042q-20 0 -32.5 13.5t-12.5 33.5v1342q0 19 12.5 32t32.5 13z" />
    <glyph glyph-name="Edieresis" unicode="&#xcb;" horiz-adv-x="1298" 
d="M274 1708q0 75 54.5 128.5t128.5 53.5q75 0 128.5 -53.5t53.5 -128.5t-53.5 -128.5t-128.5 -53.5q-74 0 -128.5 53.5t-54.5 128.5zM719 1708q0 75 54 128.5t128 53.5q75 0 128.5 -53.5t53.5 -128.5t-53.5 -128.5t-128.5 -53.5q-74 0 -128 53.5t-54 128.5zM166 1434h1026
q20 0 33.5 -14t13.5 -34v-188q0 -20 -13.5 -33.5t-33.5 -13.5h-764v-295h399q20 0 32.5 -13.5t12.5 -33.5v-180q0 -19 -12.5 -33t-32.5 -14h-399v-299h780q19 0 33 -13.5t14 -33.5v-189q0 -20 -14 -33.5t-33 -13.5h-1042q-20 0 -32.5 13.5t-12.5 33.5v1342q0 19 12.5 32
t32.5 13z" />
    <glyph glyph-name="Igrave" unicode="&#xcc;" horiz-adv-x="548" 
d="M0 1954h254q44 0 53 -39l82 -316q15 -65 -53 -65h-135q-33 0 -56 33l-186 319q-15 23 -2.5 45.5t43.5 22.5zM381 0h-215q-20 0 -32.5 13.5t-12.5 33.5v1342q0 19 12.5 32t32.5 13h215q20 0 33.5 -13t13.5 -32v-1342q0 -20 -13.5 -33.5t-33.5 -13.5z" />
    <glyph glyph-name="Iacute" unicode="&#xcd;" horiz-adv-x="548" 
d="M295 1954h254q34 0 45 -22.5t-4 -45.5l-187 -319q-23 -33 -55 -33h-135q-65 0 -53 65l82 316q9 39 53 39zM381 0h-215q-20 0 -32.5 13.5t-12.5 33.5v1342q0 19 12.5 32t32.5 13h215q20 0 33.5 -13t13.5 -32v-1342q0 -20 -13.5 -33.5t-33.5 -13.5z" />
    <glyph glyph-name="Icircumflex" unicode="&#xce;" horiz-adv-x="548" 
d="M145 1954h256q39 0 62 -45l190 -310q15 -29 3 -47t-33 -18h-172q-23 0 -35 7.5t-27 27.5l-117 160l-114 -160q-14 -16 -20 -21t-17 -9.5t-27 -4.5h-170q-23 0 -34 18t4 47l188 310q26 45 63 45zM381 0h-215q-20 0 -32.5 13.5t-12.5 33.5v1342q0 19 12.5 32t32.5 13h215
q20 0 33.5 -13t13.5 -32v-1342q0 -20 -13.5 -33.5t-33.5 -13.5z" />
    <glyph glyph-name="Idieresis" unicode="&#xcf;" horiz-adv-x="548" 
d="M-131 1708q0 75 54 128.5t128 53.5q75 0 128.5 -53.5t53.5 -128.5t-53.5 -128.5t-128.5 -53.5q-74 0 -128 53.5t-54 128.5zM313 1708q0 75 54.5 128.5t128.5 53.5q75 0 128.5 -53.5t53.5 -128.5t-53.5 -128.5t-128.5 -53.5q-74 0 -128.5 53.5t-54.5 128.5zM381 0h-215
q-20 0 -32.5 13.5t-12.5 33.5v1342q0 19 12.5 32t32.5 13h215q20 0 33.5 -13t13.5 -32v-1342q0 -20 -13.5 -33.5t-33.5 -13.5z" />
    <glyph glyph-name="Eth" unicode="&#xd0;" horiz-adv-x="1552" 
d="M768 0h-563q-19 0 -32 13.5t-13 33.5v551h-115q-20 0 -33.5 14t-13.5 33v148q0 20 13.5 33.5t33.5 13.5h115v549q0 19 13 32t32 13h563q219 0 385.5 -89t257 -251.5t90.5 -374.5q0 -211 -90.5 -374.5t-257.5 -254t-385 -90.5zM467 283h301q182 0 297 124.5t115 311.5
q0 189 -114.5 310.5t-297.5 121.5h-301v-311h315q19 0 32 -13.5t13 -33.5v-148q0 -19 -13 -33t-32 -14h-315v-315z" />
    <glyph glyph-name="Ntilde" unicode="&#xd1;" horiz-adv-x="1490" 
d="M924 1561q-57 0 -178 31.5t-146 31.5q-35 0 -61.5 -16.5t-45.5 -32.5t-36 -16q-23 0 -43 26l-62 92q-18 23 -18 58q0 49 69 105t160 56q52 0 173.5 -32.5t150.5 -32.5q35 0 62.5 16.5t47.5 33.5t37 17q18 0 43 -28l58 -92q18 -27 18 -58q0 -48 -69.5 -103.5t-159.5 -55.5
zM995 45l-567 903v-903q0 -20 -13 -32.5t-32 -12.5h-217q-45 0 -45 45v1344q0 19 12.5 32t32.5 13h280q47 0 66 -37l551 -885v877q0 19 13 32t32 13h215q19 0 33 -13t14 -32v-1344q0 -20 -14 -32.5t-33 -12.5h-231q-71 0 -97 45z" />
    <glyph glyph-name="Ograve" unicode="&#xd2;" horiz-adv-x="1617" 
d="M535 1954h253q45 0 54 -39l82 -316q15 -65 -54 -65h-135q-19 0 -30.5 7.5t-24.5 25.5l-186 319q-15 23 -2.5 45.5t43.5 22.5zM1569 717q0 -155 -59.5 -293.5t-160.5 -237.5t-242 -157t-298 -58q-156 0 -297 58t-242.5 157t-161 237.5t-59.5 293.5q0 207 101 378
t275.5 269t383.5 98q157 0 298 -58t242 -157t160.5 -237t59.5 -293zM1249 717q0 194 -125 327.5t-315 133.5t-315 -133.5t-125 -327.5t125 -327.5t315 -133.5t315 133.5t125 327.5z" />
    <glyph glyph-name="Oacute" unicode="&#xd3;" horiz-adv-x="1617" 
d="M829 1954h254q34 0 45 -22.5t-4 -45.5l-186 -319q-23 -33 -55 -33h-135q-66 0 -54 65l82 316q9 39 53 39zM1569 717q0 -155 -59.5 -293.5t-160.5 -237.5t-242 -157t-298 -58q-156 0 -297 58t-242.5 157t-161 237.5t-59.5 293.5q0 207 101 378t275.5 269t383.5 98
q157 0 298 -58t242 -157t160.5 -237t59.5 -293zM1249 717q0 194 -125 327.5t-315 133.5t-315 -133.5t-125 -327.5t125 -327.5t315 -133.5t315 133.5t125 327.5z" />
    <glyph glyph-name="Ocircumflex" unicode="&#xd4;" horiz-adv-x="1617" 
d="M682 1954h256q38 0 61 -45l191 -310q15 -29 2.5 -47t-33.5 -18h-172q-23 0 -34.5 7.5t-26.5 27.5l-117 160l-115 -160q-15 -16 -20 -21t-16 -9.5t-27 -4.5h-170q-23 0 -34.5 18t3.5 47l188 310q26 45 64 45zM1569 717q0 -155 -59.5 -293.5t-160.5 -237.5t-242 -157
t-298 -58q-156 0 -297 58t-242.5 157t-161 237.5t-59.5 293.5q0 207 101 378t275.5 269t383.5 98q157 0 298 -58t242 -157t160.5 -237t59.5 -293zM1249 717q0 194 -125 327.5t-315 133.5t-315 -133.5t-125 -327.5t125 -327.5t315 -133.5t315 133.5t125 327.5z" />
    <glyph glyph-name="Otilde" unicode="&#xd5;" horiz-adv-x="1617" 
d="M987 1561q-57 0 -177.5 31.5t-145.5 31.5q-35 0 -62 -16.5t-46 -32.5t-36 -16q-23 0 -43 26l-61 92q-19 24 -19 58q0 49 69.5 105t160.5 56q52 0 173 -32.5t150 -32.5q28 0 51.5 10.5t37 23t29.5 23t30 10.5q18 0 43 -28l57 -92q19 -29 19 -58q0 -47 -70 -103t-160 -56z
M1569 717q0 -155 -59.5 -293.5t-160.5 -237.5t-242 -157t-298 -58q-156 0 -297 58t-242.5 157t-161 237.5t-59.5 293.5q0 207 101 378t275.5 269t383.5 98q157 0 298 -58t242 -157t160.5 -237t59.5 -293zM1249 717q0 194 -125 327.5t-315 133.5t-315 -133.5t-125 -327.5
t125 -327.5t315 -133.5t315 133.5t125 327.5z" />
    <glyph glyph-name="Odieresis" unicode="&#xd6;" horiz-adv-x="1617" 
d="M401 1708q0 75 54.5 128.5t128.5 53.5q75 0 128.5 -53.5t53.5 -128.5t-53.5 -128.5t-128.5 -53.5q-74 0 -128.5 53.5t-54.5 128.5zM846 1708q0 75 54 128.5t128 53.5q75 0 128.5 -53.5t53.5 -128.5t-53.5 -128.5t-128.5 -53.5q-74 0 -128 53.5t-54 128.5zM1569 717
q0 -155 -59.5 -293.5t-160.5 -237.5t-242 -157t-298 -58q-156 0 -297 58t-242.5 157t-161 237.5t-59.5 293.5q0 207 101 378t275.5 269t383.5 98q157 0 298 -58t242 -157t160.5 -237t59.5 -293zM1249 717q0 194 -125 327.5t-315 133.5t-315 -133.5t-125 -327.5t125 -327.5
t315 -133.5t315 133.5t125 327.5z" />
    <glyph glyph-name="multiply" unicode="&#xd7;" horiz-adv-x="1273" 
d="M639 514l-348 -346q-12 -13 -32 -13.5t-32 11.5l-141 141q-14 12 -14 32.5t14 33.5l346 346l-346 346q-13 12 -13.5 31.5t11.5 36.5l141 139q12 14 32.5 14t33.5 -14l348 -346l344 346q17 14 36 14t32 -14l141 -139q11 -17 10.5 -36.5t-12.5 -31.5l-346 -346l346 -346
q12 -13 12 -33.5t-12 -32.5l-141 -141q-12 -12 -32.5 -11.5t-33.5 13.5z" />
    <glyph glyph-name="Oslash" unicode="&#xd8;" horiz-adv-x="1617" 
d="M1569 717q0 -155 -59.5 -293.5t-160.5 -237.5t-242 -157t-298 -58q-156 0 -297 58t-242.5 157t-161 237.5t-59.5 293.5q0 207 101 378t275.5 269t383.5 98q157 0 298 -58t242 -157t160.5 -237t59.5 -293zM369 717q0 -158 82.5 -277t218.5 -164v881
q-136 -45 -218.5 -163.5t-82.5 -276.5zM1249 717q0 158 -82.5 276.5t-218.5 163.5v-881q136 45 218.5 164t82.5 277z" />
    <glyph glyph-name="Ugrave" unicode="&#xd9;" horiz-adv-x="1417" 
d="M434 1954h254q44 0 53 -39l82 -316q15 -65 -53 -65h-135q-19 0 -30.5 7.5t-24.5 25.5l-187 319q-15 23 -2.5 45.5t43.5 22.5zM1311 1389v-873q0 -111 -33.5 -203t-90.5 -154.5t-134.5 -105.5t-163.5 -62.5t-180 -19.5t-180 19.5t-164 62.5t-135 105.5t-90.5 154.5
t-33.5 203v873q0 19 13 32t33 13h215q19 0 33 -13t14 -32v-850q0 -134 77.5 -210.5t217.5 -76.5t217.5 76.5t77.5 210.5v850q0 19 13.5 32t33.5 13h215q19 0 32 -13t13 -32z" />
    <glyph glyph-name="Uacute" unicode="&#xda;" horiz-adv-x="1417" 
d="M729 1954h254q34 0 45 -22.5t-4 -45.5l-186 -319q-23 -33 -56 -33h-135q-65 0 -53 65l82 316q9 39 53 39zM1311 1389v-873q0 -111 -33.5 -203t-90.5 -154.5t-134.5 -105.5t-163.5 -62.5t-180 -19.5t-180 19.5t-164 62.5t-135 105.5t-90.5 154.5t-33.5 203v873q0 19 13 32
t33 13h215q19 0 33 -13t14 -32v-850q0 -134 77.5 -210.5t217.5 -76.5t217.5 76.5t77.5 210.5v850q0 19 13.5 32t33.5 13h215q19 0 32 -13t13 -32z" />
    <glyph glyph-name="Ucircumflex" unicode="&#xdb;" horiz-adv-x="1417" 
d="M580 1954h256q38 0 61 -45l190 -310q15 -29 3 -47t-33 -18h-172q-23 0 -35 7.5t-27 27.5l-116 160l-115 -160q-14 -16 -20 -21t-17 -9.5t-27 -4.5h-170q-23 0 -34 18t4 47l188 310q26 45 64 45zM1311 1389v-873q0 -111 -33.5 -203t-90.5 -154.5t-134.5 -105.5
t-163.5 -62.5t-180 -19.5t-180 19.5t-164 62.5t-135 105.5t-90.5 154.5t-33.5 203v873q0 19 13 32t33 13h215q19 0 33 -13t14 -32v-850q0 -134 77.5 -210.5t217.5 -76.5t217.5 76.5t77.5 210.5v850q0 19 13.5 32t33.5 13h215q19 0 32 -13t13 -32z" />
    <glyph glyph-name="Udieresis" unicode="&#xdc;" horiz-adv-x="1417" 
d="M301 1708q0 75 54 128.5t128 53.5q75 0 129 -53.5t54 -128.5t-54 -128.5t-129 -53.5q-74 0 -128 53.5t-54 128.5zM745 1708q0 75 54.5 128.5t128.5 53.5q75 0 128.5 -53.5t53.5 -128.5t-53.5 -128.5t-128.5 -53.5q-74 0 -128.5 53.5t-54.5 128.5zM1311 1389v-873
q0 -111 -33.5 -203t-90.5 -154.5t-134.5 -105.5t-163.5 -62.5t-180 -19.5t-180 19.5t-164 62.5t-135 105.5t-90.5 154.5t-33.5 203v873q0 19 13 32t33 13h215q19 0 33 -13t14 -32v-850q0 -134 77.5 -210.5t217.5 -76.5t217.5 76.5t77.5 210.5v850q0 19 13.5 32t33.5 13h215
q19 0 32 -13t13 -32z" />
    <glyph glyph-name="Yacute" unicode="&#xdd;" horiz-adv-x="1335" 
d="M690 1954h254q34 0 45 -22.5t-4 -45.5l-186 -319q-23 -33 -56 -33h-135q-65 0 -53 65l82 316q9 39 53 39zM514 47v494l-496 823q-16 25 -5.5 47.5t36.5 22.5h268q38 0 56 -35l299 -514h4l297 514q18 35 53 35h258q26 0 37.5 -20.5t-4.5 -49.5l-496 -823v-494
q0 -20 -13.5 -33.5t-31.5 -13.5h-217q-19 0 -32 13.5t-13 33.5z" />
    <glyph glyph-name="Thorn" unicode="&#xde;" horiz-adv-x="1269" 
d="M383 0h-217q-20 0 -32.5 13.5t-12.5 33.5v1339q0 21 12.5 34.5t32.5 13.5h217q19 0 32 -14t13 -34v-167h299q119 0 216 -38.5t159 -104t95.5 -151.5t33.5 -184q0 -97 -34 -183.5t-96.5 -152.5t-159.5 -104.5t-214 -38.5h-299v-215q0 -20 -13 -33.5t-32 -13.5zM428 532
h264q96 0 157.5 57t61.5 152t-61.5 152t-157.5 57h-264v-418z" />
    <glyph glyph-name="germandbls" unicode="&#xdf;" horiz-adv-x="1146" 
d="M88 45v950q0 225 131 362.5t356 137.5q103 0 189.5 -31t143 -84t87.5 -121.5t31 -144.5q0 -66 -24.5 -134.5t-54.5 -113.5t-54.5 -87.5t-24.5 -63.5t25 -50.5t60.5 -65t71 -78t60.5 -103t25 -127.5q0 -61 -23.5 -117t-69 -102t-122.5 -73.5t-174 -27.5q-105 0 -162 17
q-33 11 -40 27q-4 11 -1 26l33 166q6 33 33 24q3 0 38.5 -5t55.5 -5q57 0 85 28t28 68q0 28 -24.5 62.5t-59 68.5t-69 70t-59 78.5t-24.5 83.5q0 42 28 100.5t61 107.5t61 105t28 94q0 59 -42.5 102.5t-119.5 43.5q-86 0 -137 -61.5t-51 -167.5v-959q0 -19 -12 -32t-31 -13
h-207q-19 0 -32 13t-13 32z" />
    <glyph glyph-name="agrave" unicode="&#xe0;" 
d="M324 1518h254q44 0 53 -39l82 -316q15 -65 -54 -65h-135q-33 0 -55 32l-186 320q-15 23 -2.5 45.5t43.5 22.5zM342 498q0 -105 70.5 -179.5t173.5 -74.5t173 74.5t70 179.5t-70 179.5t-173 74.5t-173.5 -74.5t-70.5 -179.5zM43 500q0 117 42 217.5t112 167t160 104
t186 37.5q98 0 174 -37t112 -98v61q0 19 13 32t30 13h207q19 0 31 -13t12 -32v-909q0 -19 -12 -31t-31 -12h-207q-18 0 -30.5 12.5t-12.5 30.5v63q-36 -61 -113 -98t-175 -37q-96 0 -186 38t-159 105t-111 168t-42 218z" />
    <glyph glyph-name="aacute" unicode="&#xe1;" 
d="M618 1518h254q34 0 45 -22.5t-4 -45.5l-186 -320q-22 -32 -55 -32h-135q-66 0 -54 65l82 316q9 39 53 39zM342 498q0 -105 70.5 -179.5t173.5 -74.5t173 74.5t70 179.5t-70 179.5t-173 74.5t-173.5 -74.5t-70.5 -179.5zM43 500q0 117 42 217.5t112 167t160 104t186 37.5
q98 0 174 -37t112 -98v61q0 19 13 32t30 13h207q19 0 31 -13t12 -32v-909q0 -19 -12 -31t-31 -12h-207q-18 0 -30.5 12.5t-12.5 30.5v63q-36 -61 -113 -98t-175 -37q-96 0 -186 38t-159 105t-111 168t-42 218z" />
    <glyph glyph-name="acircumflex" unicode="&#xe2;" 
d="M469 1518h256q38 0 61 -45l191 -310q15 -29 2.5 -47t-33.5 -18h-172q-23 0 -34.5 7.5t-26.5 27.5l-117 159l-115 -159q-15 -16 -20 -21t-16 -9.5t-27 -4.5h-170q-23 0 -34.5 18t3.5 47l189 310q26 45 63 45zM342 498q0 -105 70.5 -179.5t173.5 -74.5t173 74.5t70 179.5
t-70 179.5t-173 74.5t-173.5 -74.5t-70.5 -179.5zM43 500q0 117 42 217.5t112 167t160 104t186 37.5q98 0 174 -37t112 -98v61q0 19 13 32t30 13h207q19 0 31 -13t12 -32v-909q0 -19 -12 -31t-31 -12h-207q-18 0 -30.5 12.5t-12.5 30.5v63q-36 -61 -113 -98t-175 -37
q-96 0 -186 38t-159 105t-111 168t-42 218z" />
    <glyph glyph-name="atilde" unicode="&#xe3;" 
d="M774 1124q-57 0 -177.5 32t-145.5 32q-35 0 -62 -16.5t-46 -33t-36 -16.5q-22 0 -43 27l-61 92q-19 24 -19 57q0 49 69.5 105.5t160.5 56.5q52 0 173 -32.5t150 -32.5q28 0 51.5 10.5t37 23t29.5 23t30 10.5q18 0 43 -28l57 -93q19 -29 19 -57q0 -48 -70 -104t-160 -56z
M342 498q0 -105 70.5 -179.5t173.5 -74.5t173 74.5t70 179.5t-70 179.5t-173 74.5t-173.5 -74.5t-70.5 -179.5zM43 500q0 117 42 217.5t112 167t160 104t186 37.5q98 0 174 -37t112 -98v61q0 19 13 32t30 13h207q19 0 31 -13t12 -32v-909q0 -19 -12 -31t-31 -12h-207
q-18 0 -30.5 12.5t-12.5 30.5v63q-36 -61 -113 -98t-175 -37q-96 0 -186 38t-159 105t-111 168t-42 218z" />
    <glyph glyph-name="adieresis" unicode="&#xe4;" 
d="M190 1272q0 75 54.5 128.5t128.5 53.5q75 0 128.5 -53.5t53.5 -128.5t-53.5 -128.5t-128.5 -53.5q-74 0 -128.5 53.5t-54.5 128.5zM635 1272q0 75 54 128.5t128 53.5q75 0 128.5 -53.5t53.5 -128.5t-53.5 -128.5t-128.5 -53.5q-74 0 -128 53.5t-54 128.5zM342 498
q0 -105 70.5 -179.5t173.5 -74.5t173 74.5t70 179.5t-70 179.5t-173 74.5t-173.5 -74.5t-70.5 -179.5zM43 500q0 117 42 217.5t112 167t160 104t186 37.5q98 0 174 -37t112 -98v61q0 19 13 32t30 13h207q19 0 31 -13t12 -32v-909q0 -19 -12 -31t-31 -12h-207
q-18 0 -30.5 12.5t-12.5 30.5v63q-36 -61 -113 -98t-175 -37q-96 0 -186 38t-159 105t-111 168t-42 218z" />
    <glyph glyph-name="aring" unicode="&#xe5;" 
d="M913 1386q0 -128 -91.5 -213.5t-225.5 -85.5q-135 0 -225 85t-90 214t90 215.5t225 86.5q134 0 225.5 -86.5t91.5 -215.5zM719 1386q0 55 -34.5 92.5t-88.5 37.5t-88.5 -37.5t-34.5 -92.5t34 -90.5t89 -35.5t89 35.5t34 90.5zM342 498q0 -105 70.5 -179.5t173.5 -74.5
t173 74.5t70 179.5t-70 179.5t-173 74.5t-173.5 -74.5t-70.5 -179.5zM43 500q0 117 42 217.5t112 167t160 104t186 37.5q98 0 174 -37t112 -98v61q0 19 13 32t30 13h207q19 0 31 -13t12 -32v-909q0 -19 -12 -31t-31 -12h-207q-18 0 -30.5 12.5t-12.5 30.5v63
q-36 -61 -113 -98t-175 -37q-96 0 -186 38t-159 105t-111 168t-42 218z" />
    <glyph glyph-name="ae" unicode="&#xe6;" horiz-adv-x="1812" 
d="M1278 -29q-212 0 -356 125q-138 -125 -342 -125q-148 0 -272 69.5t-195.5 190.5t-71.5 265q0 146 71.5 268t195.5 192t272 70q201 0 344 -127q143 127 350 127q114 0 211 -42t161.5 -111.5t101 -159t36.5 -185.5v-55q0 -47 -51 -47h-684q10 -92 77.5 -148.5t157.5 -56.5
q70 0 120 23.5t93 72.5q28 28 53 11l158 -103q16 -11 16.5 -30.5t-8.5 -30.5q-149 -193 -438 -193zM1055 610h438q-19 88 -79.5 133t-137.5 45q-79 0 -138.5 -47t-82.5 -131zM584 246q115 0 186 80q-27 93 -27 168q0 85 29 174q-72 84 -188 84q-103 0 -173.5 -74.5
t-70.5 -179.5t70.5 -178.5t173.5 -73.5z" />
    <glyph glyph-name="ccedilla" unicode="&#xe7;" horiz-adv-x="1064" 
d="M725 -12l-147 -293q-16 -29 -58 -29h-160q-25 0 -36.5 16t-1.5 42l90 272q-165 50 -267 187.5t-102 314.5q0 146 70.5 267.5t194 191t272.5 69.5q150 0 267 -63.5t183 -167.5q11 -24 4.5 -45.5t-26.5 -34.5l-119 -90q-45 -35 -90 14q-47 58 -96 85.5t-119 27.5
q-104 0 -173 -74t-69 -180t69 -179t173 -73q70 0 119 27t96 85q46 50 90 15l119 -90q20 -14 26.5 -35t-4.5 -45q-103 -163 -305 -215z" />
    <glyph glyph-name="egrave" unicode="&#xe8;" horiz-adv-x="1112" 
d="M289 1518h254q44 0 53 -39l82 -316q15 -65 -53 -65h-136q-33 0 -55 32l-186 320q-15 23 -2.5 45.5t43.5 22.5zM571 1026q115 0 212.5 -42t162 -111.5t101 -159t36.5 -185.5v-55q0 -47 -51 -47h-684q10 -92 77 -148.5t157 -56.5q70 0 120 23.5t93 72.5q28 28 53 11
l158 -103q18 -11 19 -30.5t-11 -30.5q-149 -193 -439 -193q-154 0 -276.5 69t-189 188t-66.5 266q0 146 67.5 267.5t189 193t271.5 71.5zM354 610h439q-19 87 -80.5 132.5t-139.5 45.5q-76 0 -136 -47.5t-83 -130.5z" />
    <glyph glyph-name="eacute" unicode="&#xe9;" horiz-adv-x="1112" 
d="M584 1518h254q34 0 45 -22.5t-4 -45.5l-187 -320q-22 -32 -55 -32h-135q-65 0 -53 65l81 316q9 39 54 39zM571 1026q115 0 212.5 -42t162 -111.5t101 -159t36.5 -185.5v-55q0 -47 -51 -47h-684q10 -92 77 -148.5t157 -56.5q70 0 120 23.5t93 72.5q28 28 53 11l158 -103
q18 -11 19 -30.5t-11 -30.5q-149 -193 -439 -193q-154 0 -276.5 69t-189 188t-66.5 266q0 146 67.5 267.5t189 193t271.5 71.5zM354 610h439q-19 87 -80.5 132.5t-139.5 45.5q-76 0 -136 -47.5t-83 -130.5z" />
    <glyph glyph-name="ecircumflex" unicode="&#xea;" horiz-adv-x="1112" 
d="M434 1518h256q39 0 62 -45l190 -310q15 -29 2.5 -47t-33.5 -18h-172q-23 0 -34.5 7.5t-26.5 27.5l-117 159l-115 -159q-15 -16 -20 -21t-16 -9.5t-27 -4.5h-170q-23 0 -34.5 18t3.5 47l189 310q26 45 63 45zM571 1026q115 0 212.5 -42t162 -111.5t101 -159t36.5 -185.5
v-55q0 -47 -51 -47h-684q10 -92 77 -148.5t157 -56.5q70 0 120 23.5t93 72.5q28 28 53 11l158 -103q18 -11 19 -30.5t-11 -30.5q-149 -193 -439 -193q-154 0 -276.5 69t-189 188t-66.5 266q0 146 67.5 267.5t189 193t271.5 71.5zM354 610h439q-19 87 -80.5 132.5
t-139.5 45.5q-76 0 -136 -47.5t-83 -130.5z" />
    <glyph glyph-name="edieresis" unicode="&#xeb;" horiz-adv-x="1112" 
d="M156 1272q0 75 54 128.5t128 53.5q75 0 128.5 -53.5t53.5 -128.5t-53.5 -128.5t-128.5 -53.5q-74 0 -128 53.5t-54 128.5zM600 1272q0 75 54 128.5t128 53.5q75 0 129 -53.5t54 -128.5t-54 -128.5t-129 -53.5q-74 0 -128 53.5t-54 128.5zM571 1026q115 0 212.5 -42
t162 -111.5t101 -159t36.5 -185.5v-55q0 -47 -51 -47h-684q10 -92 77 -148.5t157 -56.5q70 0 120 23.5t93 72.5q28 28 53 11l158 -103q18 -11 19 -30.5t-11 -30.5q-149 -193 -439 -193q-154 0 -276.5 69t-189 188t-66.5 266q0 146 67.5 267.5t189 193t271.5 71.5zM354 610
h439q-19 87 -80.5 132.5t-139.5 45.5q-76 0 -136 -47.5t-83 -130.5z" />
    <glyph glyph-name="igrave" unicode="&#xec;" horiz-adv-x="471" 
d="M-37 1518h254q44 0 53 -39l82 -316q15 -65 -53 -65h-135q-33 0 -55 32l-187 320q-15 23 -2.5 45.5t43.5 22.5zM340 0h-207q-19 0 -32 13t-13 32v907q0 19 13 32t32 13h207q19 0 31 -13t12 -32v-907q0 -19 -12 -32t-31 -13z" />
    <glyph glyph-name="iacute" unicode="&#xed;" horiz-adv-x="471" 
d="M256 1518h254q34 0 45 -22.5t-4 -45.5l-186 -320q-22 -32 -56 -32h-135q-65 0 -53 65l82 316q9 39 53 39zM340 0h-207q-19 0 -32 13t-13 32v907q0 19 13 32t32 13h207q19 0 31 -13t12 -32v-907q0 -19 -12 -32t-31 -13z" />
    <glyph glyph-name="icircumflex" unicode="&#xee;" horiz-adv-x="471" 
d="M109 1518h256q38 0 61 -45l190 -310q15 -29 3 -47t-33 -18h-172q-23 0 -35 7.5t-27 27.5l-116 159l-115 -159q-14 -16 -20 -21t-17 -9.5t-27 -4.5h-170q-23 0 -34 18t4 47l188 310q26 45 64 45zM340 0h-207q-19 0 -32 13t-13 32v907q0 19 13 32t32 13h207q19 0 31 -13
t12 -32v-907q0 -19 -12 -32t-31 -13z" />
    <glyph glyph-name="idieresis" unicode="&#xef;" horiz-adv-x="471" 
d="M-168 1272q0 75 54 128.5t128 53.5q75 0 129 -53.5t54 -128.5t-54 -128.5t-129 -53.5q-74 0 -128 53.5t-54 128.5zM276 1272q0 75 54.5 128.5t128.5 53.5q75 0 128.5 -53.5t53.5 -128.5t-53.5 -128.5t-128.5 -53.5q-74 0 -128.5 53.5t-54.5 128.5zM340 0h-207
q-19 0 -32 13t-13 32v907q0 19 13 32t32 13h207q19 0 31 -13t12 -32v-907q0 -19 -12 -32t-31 -13z" />
    <glyph glyph-name="eth" unicode="&#xf0;" horiz-adv-x="1206" 
d="M602 -29q-157 0 -286 71.5t-202 193.5t-73 268q0 136 62.5 252t176 185t252.5 69t234 -74q-85 114 -182 217l-178 -59q-45 -16 -58 24l-24 80q-14 44 28 59l99 35q-50 52 -138 131q-24 23 -14 48.5t47 25.5l227 4q46 0 72 -22q8 -7 26.5 -23t36.5 -33t35 -34l185 61
q45 16 57 -23l25 -79q15 -45 -29 -60l-113 -39q79 -97 139.5 -198t106 -235.5t45.5 -260.5q0 -252 -155 -418t-402 -166zM344 498q0 -107 70.5 -180.5t175.5 -73.5t175.5 73.5t70.5 180.5t-70.5 180.5t-175.5 73.5t-175.5 -73.5t-70.5 -180.5z" />
    <glyph glyph-name="ntilde" unicode="&#xf1;" horiz-adv-x="1212" 
d="M743 1128q-57 0 -177.5 32t-145.5 32q-35 0 -62 -16.5t-46 -33t-36 -16.5q-22 0 -43 27l-61 92q-18 23 -18 58q0 49 69 105t160 56q52 0 173.5 -32.5t150.5 -32.5q35 0 62.5 16.5t47.5 33.5t37 17q18 0 43 -28l57 -92q19 -28 19 -58q0 -48 -70 -104t-160 -56zM838 41v473
q0 110 -59.5 175t-164.5 65q-104 0 -167.5 -67t-63.5 -173v-473q0 -18 -13.5 -29.5t-31.5 -11.5h-207q-19 0 -31 12t-12 31v909q0 19 12 32t31 13h207q18 0 31.5 -12t13.5 -29v-63q48 59 131 96t193 37q194 0 311 -122t117 -310v-553q0 -18 -13.5 -29.5t-31.5 -11.5h-207
q-18 0 -31.5 11.5t-13.5 29.5z" />
    <glyph glyph-name="ograve" unicode="&#xf2;" horiz-adv-x="1165" 
d="M309 1518h254q44 0 53 -39l82 -316q15 -65 -53 -65h-135q-33 0 -55 32l-187 320q-15 23 -2.5 45.5t43.5 22.5zM41 496q0 146 72 268t196.5 192t272.5 70q149 0 273.5 -70t196.5 -192t72 -268q0 -144 -72 -265t-196.5 -190.5t-273.5 -69.5q-148 0 -272.5 69.5
t-196.5 190.5t-72 265zM340 498q0 -105 70 -178.5t172 -73.5q103 0 173 73.5t70 178.5t-70 179.5t-173 74.5q-102 0 -172 -74.5t-70 -179.5z" />
    <glyph glyph-name="oacute" unicode="&#xf3;" horiz-adv-x="1165" 
d="M604 1518h254q34 0 45 -22.5t-4 -45.5l-186 -320q-22 -32 -56 -32h-135q-65 0 -53 65l82 316q9 39 53 39zM41 496q0 146 72 268t196.5 192t272.5 70q149 0 273.5 -70t196.5 -192t72 -268q0 -144 -72 -265t-196.5 -190.5t-273.5 -69.5q-148 0 -272.5 69.5t-196.5 190.5
t-72 265zM340 498q0 -105 70 -178.5t172 -73.5q103 0 173 73.5t70 178.5t-70 179.5t-173 74.5q-102 0 -172 -74.5t-70 -179.5z" />
    <glyph glyph-name="ocircumflex" unicode="&#xf4;" horiz-adv-x="1165" 
d="M455 1518h256q38 0 61 -45l191 -310q15 -29 2.5 -47t-33.5 -18h-172q-23 0 -35 7.5t-27 27.5l-116 159l-115 -159q-14 -16 -20 -21t-17 -9.5t-27 -4.5h-170q-23 0 -34 18t4 47l188 310q26 45 64 45zM41 496q0 146 72 268t196.5 192t272.5 70q149 0 273.5 -70t196.5 -192
t72 -268q0 -144 -72 -265t-196.5 -190.5t-273.5 -69.5q-148 0 -272.5 69.5t-196.5 190.5t-72 265zM340 498q0 -105 70 -178.5t172 -73.5q103 0 173 73.5t70 178.5t-70 179.5t-173 74.5q-102 0 -172 -74.5t-70 -179.5z" />
    <glyph glyph-name="otilde" unicode="&#xf5;" horiz-adv-x="1165" 
d="M762 1124q-57 0 -178 32t-146 32q-35 0 -61.5 -16.5t-45.5 -33t-36 -16.5q-22 0 -43 27l-62 92q-18 23 -18 57q0 49 69 105.5t160 56.5q52 0 173.5 -32.5t150.5 -32.5q35 0 62.5 16.5t47.5 33.5t37 17q18 0 43 -28l58 -93q18 -27 18 -57q0 -48 -69.5 -104t-159.5 -56z
M41 496q0 146 72 268t196.5 192t272.5 70q149 0 273.5 -70t196.5 -192t72 -268q0 -144 -72 -265t-196.5 -190.5t-273.5 -69.5q-148 0 -272.5 69.5t-196.5 190.5t-72 265zM340 498q0 -105 70 -178.5t172 -73.5q103 0 173 73.5t70 178.5t-70 179.5t-173 74.5
q-102 0 -172 -74.5t-70 -179.5z" />
    <glyph glyph-name="odieresis" unicode="&#xf6;" horiz-adv-x="1165" 
d="M176 1272q0 75 54 128.5t128 53.5q75 0 129 -53.5t54 -128.5t-54 -128.5t-129 -53.5q-74 0 -128 53.5t-54 128.5zM621 1272q0 75 54 128.5t128 53.5q75 0 128.5 -53.5t53.5 -128.5t-53.5 -128.5t-128.5 -53.5q-74 0 -128 53.5t-54 128.5zM41 496q0 146 72 268t196.5 192
t272.5 70q149 0 273.5 -70t196.5 -192t72 -268q0 -144 -72 -265t-196.5 -190.5t-273.5 -69.5q-148 0 -272.5 69.5t-196.5 190.5t-72 265zM340 498q0 -105 70 -178.5t172 -73.5q103 0 173 73.5t70 178.5t-70 179.5t-173 74.5q-102 0 -172 -74.5t-70 -179.5z" />
    <glyph glyph-name="divide" unicode="&#xf7;" horiz-adv-x="1216" 
d="M608 956q-80 0 -137 56t-57 137q0 79 57 134.5t137 55.5t136.5 -55.5t56.5 -134.5q0 -81 -56.5 -137t-136.5 -56zM1153 819v-198q0 -20 -13.5 -34t-33.5 -14h-995q-19 0 -33.5 14t-14.5 34v198q0 19 14.5 33t33.5 14h995q20 0 33.5 -14t13.5 -33zM608 94q-80 0 -137 56
t-57 135q0 81 57 136.5t137 55.5t136.5 -55.5t56.5 -136.5q0 -79 -56.5 -135t-136.5 -56z" />
    <glyph glyph-name="oslash" unicode="&#xf8;" horiz-adv-x="1165" 
d="M41 496q0 146 72 268t196.5 192t272.5 70q149 0 273.5 -70t196.5 -192t72 -268q0 -144 -72 -265t-196.5 -190.5t-273.5 -69.5q-148 0 -272.5 69.5t-196.5 190.5t-72 265zM825 498q0 79 -40 141t-107 92v-465q66 26 106.5 90t40.5 142zM340 498q0 -79 40.5 -141.5
t108.5 -92.5v467q-68 -30 -108.5 -92t-40.5 -141z" />
    <glyph glyph-name="ugrave" unicode="&#xf9;" horiz-adv-x="1165" 
d="M295 1518h254q44 0 53 -39l82 -316q15 -65 -53 -65h-135q-34 0 -56 32l-186 320q-15 23 -2.5 45.5t43.5 22.5zM373 956v-514q0 -102 50.5 -161.5t151.5 -59.5q98 0 152.5 59t54.5 158v518q0 17 13 29t30 12h207q20 0 32.5 -13t12.5 -32v-909q0 -19 -12.5 -31t-32.5 -12
h-207q-18 0 -30.5 11.5t-12.5 29.5v63q-53 -64 -121.5 -98.5t-177.5 -34.5q-188 0 -296.5 115.5t-108.5 306.5v563q0 17 13.5 29t31.5 12h205q19 0 32 -12t13 -29z" />
    <glyph glyph-name="uacute" unicode="&#xfa;" horiz-adv-x="1165" 
d="M590 1518h254q34 0 45 -22.5t-4 -45.5l-187 -320q-22 -32 -55 -32h-135q-65 0 -53 65l82 316q9 39 53 39zM373 956v-514q0 -102 50.5 -161.5t151.5 -59.5q98 0 152.5 59t54.5 158v518q0 17 13 29t30 12h207q20 0 32.5 -13t12.5 -32v-909q0 -19 -12.5 -31t-32.5 -12h-207
q-18 0 -30.5 11.5t-12.5 29.5v63q-53 -64 -121.5 -98.5t-177.5 -34.5q-188 0 -296.5 115.5t-108.5 306.5v563q0 17 13.5 29t31.5 12h205q19 0 32 -12t13 -29z" />
    <glyph glyph-name="ucircumflex" unicode="&#xfb;" horiz-adv-x="1165" 
d="M440 1518h256q39 0 62 -45l190 -310q15 -29 3 -47t-33 -18h-173q-23 0 -34.5 7.5t-26.5 27.5l-117 159l-114 -159q-14 -16 -20 -21t-17 -9.5t-27 -4.5h-170q-23 0 -34.5 18t3.5 47l189 310q26 45 63 45zM373 956v-514q0 -102 50.5 -161.5t151.5 -59.5q98 0 152.5 59
t54.5 158v518q0 17 13 29t30 12h207q20 0 32.5 -13t12.5 -32v-909q0 -19 -12.5 -31t-32.5 -12h-207q-18 0 -30.5 11.5t-12.5 29.5v63q-53 -64 -121.5 -98.5t-177.5 -34.5q-188 0 -296.5 115.5t-108.5 306.5v563q0 17 13.5 29t31.5 12h205q19 0 32 -12t13 -29z" />
    <glyph glyph-name="udieresis" unicode="&#xfc;" horiz-adv-x="1165" 
d="M162 1272q0 75 54 128.5t128 53.5q75 0 128.5 -53.5t53.5 -128.5t-53.5 -128.5t-128.5 -53.5q-74 0 -128 53.5t-54 128.5zM606 1272q0 75 54 128.5t128 53.5q75 0 129 -53.5t54 -128.5t-54 -128.5t-129 -53.5q-74 0 -128 53.5t-54 128.5zM373 956v-514
q0 -102 50.5 -161.5t151.5 -59.5q98 0 152.5 59t54.5 158v518q0 17 13 29t30 12h207q20 0 32.5 -13t12.5 -32v-909q0 -19 -12.5 -31t-32.5 -12h-207q-18 0 -30.5 11.5t-12.5 29.5v63q-53 -64 -121.5 -98.5t-177.5 -34.5q-188 0 -296.5 115.5t-108.5 306.5v563q0 17 13.5 29
t31.5 12h205q19 0 32 -12t13 -29z" />
    <glyph glyph-name="yacute" unicode="&#xfd;" horiz-adv-x="1077" 
d="M561 1518h254q34 0 45 -22.5t-4 -45.5l-186 -320q-22 -32 -56 -32h-135q-65 0 -53 65l82 316q9 39 53 39zM322 -475q-191 0 -304 104q-35 30 -4 78l74 107q32 50 90 12q62 -47 123 -47q88 0 125 94l45 127h-104q-42 0 -56 43l-293 885q-8 30 2.5 49.5t45.5 19.5h239
q36 0 47 -47l199 -680l184 680q11 47 56 47h231q30 0 40 -19t-1 -50l-340 -1096q-46 -145 -147 -226t-252 -81z" />
    <glyph glyph-name="thorn" unicode="&#xfe;" 
d="M381 498q0 -106 71 -180t175 -74t173.5 73.5t69.5 180.5q0 105 -70 179.5t-173 74.5t-174.5 -74.5t-71.5 -179.5zM383 1389v-498q43 62 119 98.5t176 36.5q97 0 186 -37.5t156 -104.5t107 -166.5t40 -217.5t-40 -218t-107.5 -167.5t-157 -105.5t-188.5 -38
q-90 0 -170 31.5t-121 91.5v-495q0 -18 -12.5 -30.5t-30.5 -12.5h-209q-19 0 -31 12t-12 31v1790q0 20 12 32.5t31 12.5h209q18 0 30.5 -12.5t12.5 -32.5z" />
    <glyph glyph-name="ydieresis" unicode="&#xff;" horiz-adv-x="1077" 
d="M133 1272q0 75 54 128.5t128 53.5q75 0 129 -53.5t54 -128.5t-54 -128.5t-129 -53.5q-74 0 -128 53.5t-54 128.5zM578 1272q0 75 54 128.5t128 53.5q75 0 128.5 -53.5t53.5 -128.5t-53.5 -128.5t-128.5 -53.5q-74 0 -128 53.5t-54 128.5zM322 -475q-191 0 -304 104
q-35 30 -4 78l74 107q32 50 90 12q62 -47 123 -47q88 0 125 94l45 127h-104q-42 0 -56 43l-293 885q-8 30 2.5 49.5t45.5 19.5h239q36 0 47 -47l199 -680l184 680q11 47 56 47h231q30 0 40 -19t-1 -50l-340 -1096q-46 -145 -147 -226t-252 -81z" />
    <glyph glyph-name="Amacron" unicode="&#x100;" horiz-adv-x="1398" 
d="M1018 1569h-645q-19 0 -32 13.5t-13 33.5v156q0 19 13 32t32 13h645q20 0 33.5 -13t13.5 -32v-156q0 -20 -13.5 -33.5t-33.5 -13.5zM870 590l-180 540h-6l-176 -540h362zM422 332l-94 -291q-14 -41 -47 -41h-230q-26 0 -37.5 19.5t0.5 50.5l463 1319q14 45 60 45h323
q41 0 60 -45l464 -1317q10 -35 -1.5 -53.5t-41.5 -18.5h-241q-35 0 -47 41l-97 291h-534z" />
    <glyph glyph-name="amacron" unicode="&#x101;" 
d="M918 1133h-646q-19 0 -32 13.5t-13 33.5v155q0 19 13 32t32 13h646q20 0 33.5 -13t13.5 -32v-155q0 -20 -13.5 -33.5t-33.5 -13.5zM342 498q0 -105 70.5 -179.5t173.5 -74.5t173 74.5t70 179.5t-70 179.5t-173 74.5t-173.5 -74.5t-70.5 -179.5zM43 500q0 117 42 217.5
t112 167t160 104t186 37.5q98 0 174 -37t112 -98v61q0 19 13 32t30 13h207q19 0 31 -13t12 -32v-909q0 -19 -12 -31t-31 -12h-207q-18 0 -30.5 12.5t-12.5 30.5v63q-36 -61 -113 -98t-175 -37q-96 0 -186 38t-159 105t-111 168t-42 218z" />
    <glyph glyph-name="Abreve" unicode="&#x102;" horiz-adv-x="1398" 
d="M696 1524q-176 0 -270 89t-94 240v43q0 17 10.5 27t24.5 10h178q14 0 24.5 -10t10.5 -27v-22q0 -54 32 -84.5t84 -30.5q53 0 86 30.5t33 84.5v22q0 17 10.5 27t24.5 10h176q37 0 37 -37v-43q0 -151 -95.5 -240t-271.5 -89zM870 590l-180 540h-6l-176 -540h362zM422 332
l-94 -291q-14 -41 -47 -41h-230q-26 0 -37.5 19.5t0.5 50.5l463 1319q14 45 60 45h323q41 0 60 -45l464 -1317q10 -35 -1.5 -53.5t-41.5 -18.5h-241q-35 0 -47 41l-97 291h-534z" />
    <glyph glyph-name="abreve" unicode="&#x103;" 
d="M596 1087q-176 0 -270.5 89.5t-94.5 240.5v43q0 17 10.5 27t24.5 10h178q14 0 24.5 -10t10.5 -27v-22q0 -54 32.5 -84.5t84.5 -30.5q53 0 86 30.5t33 84.5v22q0 17 10.5 27t24.5 10h176q37 0 37 -37v-43q0 -151 -95.5 -240.5t-271.5 -89.5zM342 498q0 -105 70.5 -179.5
t173.5 -74.5t173 74.5t70 179.5t-70 179.5t-173 74.5t-173.5 -74.5t-70.5 -179.5zM43 500q0 117 42 217.5t112 167t160 104t186 37.5q98 0 174 -37t112 -98v61q0 19 13 32t30 13h207q19 0 31 -13t12 -32v-909q0 -19 -12 -31t-31 -12h-207q-18 0 -30.5 12.5t-12.5 30.5v63
q-36 -61 -113 -98t-175 -37q-96 0 -186 38t-159 105t-111 168t-42 218z" />
    <glyph glyph-name="Aogonek" unicode="&#x104;" horiz-adv-x="1398" 
d="M870 590l-180 540h-6l-176 -540h362zM1405 -346l-8 -80q-11 -74 -191 -74q-120 0 -192 51.5t-72 147.5q0 148 211 301h-53q-35 0 -47 41l-97 291h-534l-94 -291q-14 -41 -47 -41h-230q-26 0 -37.5 19.5t0.5 50.5l463 1319q14 45 60 45h323q41 0 60 -45l464 -1317
q10 -35 -1.5 -53.5t-41.5 -18.5h-14q-117 -165 -117 -223q0 -76 90 -76q17 0 40.5 2t29.5 2q19 2 29 -10t6 -41z" />
    <glyph glyph-name="aogonek" unicode="&#x105;" 
d="M342 498q0 -105 70.5 -179.5t173.5 -74.5t173 74.5t70 179.5t-70 179.5t-173 74.5t-173.5 -74.5t-70.5 -179.5zM1157 -295l-8 -80q-11 -74 -191 -74q-120 0 -192 51.5t-72 147.5q0 137 154 258q-19 16 -19 35v63q-36 -61 -113 -98t-175 -37q-96 0 -186 38t-159 105
t-111 168t-42 218t42 217.5t112 167t160 104t186 37.5q98 0 174 -37t112 -98v61q0 19 13 32t30 13h207q19 0 31 -13t12 -32v-909q0 -19 -12 -31t-31 -12h-35q-81 -122 -81 -172q0 -76 90 -76q17 0 40 2t29 2q19 2 29 -10t6 -41z" />
    <glyph glyph-name="Cacute" unicode="&#x106;" horiz-adv-x="1513" 
d="M825 1954h254q34 0 45 -22.5t-4 -45.5l-186 -319q-23 -33 -55 -33h-136q-65 0 -53 65l82 316q9 39 53 39zM809 -29q-157 0 -298 58t-242 157t-160.5 237.5t-59.5 293.5t59.5 293t160.5 237t242 157t298 58q239 0 426.5 -118t259.5 -324q14 -38 -22 -47l-234 -62
q-15 -4 -25.5 1.5t-13.5 11t-8 16.5q-125 238 -381 238q-191 0 -316.5 -133.5t-125.5 -327.5t125.5 -327.5t316.5 -133.5q256 0 381 238q5 11 8 16t13.5 10.5t25.5 1.5l234 -61q36 -9 22 -47q-72 -206 -259.5 -324.5t-426.5 -118.5z" />
    <glyph glyph-name="cacute" unicode="&#x107;" horiz-adv-x="1062" 
d="M573 1518h254q34 0 45 -22.5t-4 -45.5l-186 -320q-22 -32 -55 -32h-135q-66 0 -54 65l82 316q9 39 53 39zM1028 203q-66 -105 -183.5 -168.5t-266.5 -63.5t-272.5 70t-194 191t-70.5 266q0 146 70.5 267.5t194 191t272.5 69.5q150 0 267 -63.5t183 -167.5
q11 -24 4.5 -45.5t-26.5 -34.5l-119 -90q-45 -35 -90 14q-47 58 -96 85.5t-119 27.5q-104 0 -173 -74t-69 -180t69 -179t173 -73q70 0 119 27t96 85q46 50 90 15l119 -90q20 -14 26.5 -35t-4.5 -45z" />
    <glyph glyph-name="Ccircumflex" unicode="&#x108;" horiz-adv-x="1513" 
d="M676 1954h256q38 0 61 -45l191 -310q15 -29 2.5 -47t-33.5 -18h-172q-23 0 -34.5 7.5t-26.5 27.5l-117 160l-115 -160q-15 -16 -20 -21t-16 -9.5t-27 -4.5h-170q-23 0 -34.5 18t3.5 47l188 310q26 45 64 45zM809 -29q-157 0 -298 58t-242 157t-160.5 237.5t-59.5 293.5
t59.5 293t160.5 237t242 157t298 58q239 0 426.5 -118t259.5 -324q14 -38 -22 -47l-234 -62q-15 -4 -25.5 1.5t-13.5 11t-8 16.5q-125 238 -381 238q-191 0 -316.5 -133.5t-125.5 -327.5t125.5 -327.5t316.5 -133.5q256 0 381 238q5 11 8 16t13.5 10.5t25.5 1.5l234 -61
q36 -9 22 -47q-72 -206 -259.5 -324.5t-426.5 -118.5z" />
    <glyph glyph-name="ccircumflex" unicode="&#x109;" horiz-adv-x="1062" 
d="M424 1518h256q38 0 61 -45l191 -310q15 -29 2.5 -47t-33.5 -18h-172q-23 0 -34.5 7.5t-26.5 27.5l-117 159l-115 -159q-15 -16 -20 -21t-16 -9.5t-27 -4.5h-170q-23 0 -34.5 18t3.5 47l188 310q26 45 64 45zM1028 203q-66 -105 -183.5 -168.5t-266.5 -63.5t-272.5 70
t-194 191t-70.5 266q0 146 70.5 267.5t194 191t272.5 69.5q150 0 267 -63.5t183 -167.5q11 -24 4.5 -45.5t-26.5 -34.5l-119 -90q-45 -35 -90 14q-47 58 -96 85.5t-119 27.5q-104 0 -173 -74t-69 -180t69 -179t173 -73q70 0 119 27t96 85q46 50 90 15l119 -90
q20 -14 26.5 -35t-4.5 -45z" />
    <glyph glyph-name="Cdotaccent" unicode="&#x10a;" horiz-adv-x="1513" 
d="M803 1540q-80 0 -140.5 59.5t-60.5 141.5t60 140t141 58q85 0 141.5 -56.5t56.5 -141.5t-57 -143t-141 -58zM809 -29q-157 0 -298 58t-242 157t-160.5 237.5t-59.5 293.5t59.5 293t160.5 237t242 157t298 58q239 0 426.5 -118t259.5 -324q14 -38 -22 -47l-234 -62
q-15 -4 -25.5 1.5t-13.5 11t-8 16.5q-125 238 -381 238q-191 0 -316.5 -133.5t-125.5 -327.5t125.5 -327.5t316.5 -133.5q256 0 381 238q5 11 8 16t13.5 10.5t25.5 1.5l234 -61q36 -9 22 -47q-72 -206 -259.5 -324.5t-426.5 -118.5z" />
    <glyph glyph-name="cdotaccent" unicode="&#x10b;" horiz-adv-x="1062" 
d="M551 1102q-80 0 -140.5 59.5t-60.5 141.5t60 140t141 58q85 0 142 -56.5t57 -141.5t-57 -143t-142 -58zM1028 203q-66 -105 -183.5 -168.5t-266.5 -63.5t-272.5 70t-194 191t-70.5 266q0 146 70.5 267.5t194 191t272.5 69.5q150 0 267 -63.5t183 -167.5q11 -24 4.5 -45.5
t-26.5 -34.5l-119 -90q-45 -35 -90 14q-47 58 -96 85.5t-119 27.5q-104 0 -173 -74t-69 -180t69 -179t173 -73q70 0 119 27t96 85q46 50 90 15l119 -90q20 -14 26.5 -35t-4.5 -45z" />
    <glyph glyph-name="Ccaron" unicode="&#x10c;" horiz-adv-x="1513" 
d="M932 1534h-256q-37 0 -64 43l-188 311q-15 29 -3.5 47.5t34.5 18.5h170q7 0 12.5 -0.5t10.5 -2.5t8 -3.5t8 -5.5t7 -6l8 -8l9 -9l115 -160l117 160q11 14 17 20t17 10.5t27 4.5h172q21 0 33.5 -18.5t-2.5 -47.5l-191 -311q-21 -43 -61 -43zM809 -29q-157 0 -298 58
t-242 157t-160.5 237.5t-59.5 293.5t59.5 293t160.5 237t242 157t298 58q239 0 426.5 -118t259.5 -324q14 -38 -22 -47l-234 -62q-15 -4 -25.5 1.5t-13.5 11t-8 16.5q-125 238 -381 238q-191 0 -316.5 -133.5t-125.5 -327.5t125.5 -327.5t316.5 -133.5q256 0 381 238
q5 11 8 16t13.5 10.5t25.5 1.5l234 -61q36 -9 22 -47q-72 -206 -259.5 -324.5t-426.5 -118.5z" />
    <glyph glyph-name="ccaron" unicode="&#x10d;" horiz-adv-x="1062" 
d="M680 1098h-256q-37 0 -64 43l-188 311q-15 29 -3.5 47.5t34.5 18.5h170q7 0 12.5 -0.5t10.5 -2.5t8 -3.5t8 -5.5t7 -6l8 -8l9 -9l115 -160l117 160q11 14 17 20t17 10.5t27 4.5h172q21 0 33.5 -18.5t-2.5 -47.5l-191 -311q-21 -43 -61 -43zM1028 203
q-66 -105 -183.5 -168.5t-266.5 -63.5t-272.5 70t-194 191t-70.5 266q0 146 70.5 267.5t194 191t272.5 69.5q150 0 267 -63.5t183 -167.5q11 -24 4.5 -45.5t-26.5 -34.5l-119 -90q-45 -35 -90 14q-47 58 -96 85.5t-119 27.5q-104 0 -173 -74t-69 -180t69 -179t173 -73
q70 0 119 27t96 85q46 50 90 15l119 -90q20 -14 26.5 -35t-4.5 -45z" />
    <glyph glyph-name="Dcaron" unicode="&#x10e;" horiz-adv-x="1513" 
d="M893 1534h-256q-37 0 -64 43l-188 311q-15 29 -3.5 47.5t34.5 18.5h170q7 0 12.5 -0.5t10.5 -2.5t8 -3.5t8 -5.5t7 -6l8 -8l9 -9l115 -160l117 160q11 14 17 20t17 10.5t27 4.5h172q21 0 33.5 -18.5t-2.5 -47.5l-191 -311q-21 -43 -61 -43zM166 1434h563q219 0 385.5 -89
t257 -251.5t90.5 -374.5q0 -211 -90.5 -374.5t-257.5 -254t-385 -90.5h-563q-20 0 -32.5 13.5t-12.5 33.5v1342q0 19 12.5 32t32.5 13zM428 283h301q182 0 297 124.5t115 311.5q0 189 -114.5 310.5t-297.5 121.5h-301v-868z" />
    <glyph glyph-name="dcaron" unicode="&#x10f;" horiz-adv-x="1366" 
d="M1217 1004l86 120q-46 24 -73.5 65t-27.5 89q0 72 51 123t125 51q75 0 126.5 -51t51.5 -135q0 -53 -19 -105t-51.5 -93.5t-63.5 -72t-66 -55.5q-58 -44 -101 -14l-22 14q-42 31 -16 64zM342 498q0 -105 70.5 -179.5t173.5 -74.5t173 74.5t70 179.5t-70 179.5t-173 74.5
t-173.5 -74.5t-70.5 -179.5zM43 500q0 117 41 217.5t110 167t158 104t185 37.5q99 0 176 -36.5t114 -94.5v496q0 19 13 31t32 12h207q19 0 31 -12t12 -31v-1348q0 -19 -12 -31t-31 -12h-207q-18 0 -30.5 12.5t-12.5 30.5v63q-43 -62 -117 -98.5t-171 -36.5q-96 0 -186 38
t-159 105t-111 168t-42 218z" />
    <glyph glyph-name="Dcroat" unicode="&#x110;" horiz-adv-x="1552" 
d="M768 0h-563q-19 0 -32 13.5t-13 33.5v551h-115q-20 0 -33.5 14t-13.5 33v148q0 20 13.5 33.5t33.5 13.5h115v549q0 19 13 32t32 13h563q219 0 385.5 -89t257 -251.5t90.5 -374.5q0 -211 -90.5 -374.5t-257.5 -254t-385 -90.5zM467 283h301q182 0 297 124.5t115 311.5
q0 189 -114.5 310.5t-297.5 121.5h-301v-311h315q19 0 32 -13.5t13 -33.5v-148q0 -19 -13 -33t-32 -14h-315v-315z" />
    <glyph glyph-name="dslash" unicode="&#x111;" 
d="M342 498q0 -105 70.5 -179.5t173.5 -74.5t173 74.5t70 179.5t-70 179.5t-173 74.5t-173.5 -74.5t-70.5 -179.5zM829 43v63q-43 -62 -117 -98.5t-171 -36.5q-96 0 -186 38t-159 105t-111 168t-42 218t41 217.5t110 167t158 104t185 37.5q99 0 176 -36.5t114 -94.5v211
h-217q-19 0 -32 13.5t-13 33.5v96q0 20 13 33.5t32 13.5h217v95q0 19 13 31t32 12h207q19 0 31 -12t12 -31v-95h86q20 0 32.5 -13.5t12.5 -33.5v-96q0 -20 -12.5 -33.5t-32.5 -13.5h-86v-1063q0 -19 -12 -31t-31 -12h-207q-18 0 -30.5 12.5t-12.5 30.5z" />
    <glyph glyph-name="Emacron" unicode="&#x112;" horiz-adv-x="1298" 
d="M1004 1569h-646q-19 0 -32 13.5t-13 33.5v156q0 19 13 32t32 13h646q20 0 33.5 -13t13.5 -32v-156q0 -20 -13.5 -33.5t-33.5 -13.5zM166 1434h1026q20 0 33.5 -14t13.5 -34v-188q0 -20 -13.5 -33.5t-33.5 -13.5h-764v-295h399q20 0 32.5 -13.5t12.5 -33.5v-180
q0 -19 -12.5 -33t-32.5 -14h-399v-299h780q19 0 33 -13.5t14 -33.5v-189q0 -20 -14 -33.5t-33 -13.5h-1042q-20 0 -32.5 13.5t-12.5 33.5v1342q0 19 12.5 32t32.5 13z" />
    <glyph glyph-name="emacron" unicode="&#x113;" horiz-adv-x="1112" 
d="M883 1133h-645q-19 0 -32 13.5t-13 33.5v155q0 19 13 32t32 13h645q20 0 33.5 -13t13.5 -32v-155q0 -20 -13.5 -33.5t-33.5 -13.5zM571 1026q115 0 212.5 -42t162 -111.5t101 -159t36.5 -185.5v-55q0 -47 -51 -47h-684q10 -92 77 -148.5t157 -56.5q70 0 120 23.5t93 72.5
q28 28 53 11l158 -103q18 -11 19 -30.5t-11 -30.5q-149 -193 -439 -193q-154 0 -276.5 69t-189 188t-66.5 266q0 146 67.5 267.5t189 193t271.5 71.5zM354 610h439q-19 87 -80.5 132.5t-139.5 45.5q-76 0 -136 -47.5t-83 -130.5z" />
    <glyph glyph-name="Ebreve" unicode="&#x114;" horiz-adv-x="1298" 
d="M682 1524q-176 0 -270.5 89t-94.5 240v43q0 17 10.5 27t24.5 10h178q14 0 24.5 -10t10.5 -27v-22q0 -54 32.5 -84.5t84.5 -30.5q53 0 86 30.5t33 84.5v22q0 17 10.5 27t24.5 10h176q37 0 37 -37v-43q0 -151 -95.5 -240t-271.5 -89zM166 1434h1026q20 0 33.5 -14t13.5 -34
v-188q0 -20 -13.5 -33.5t-33.5 -13.5h-764v-295h399q20 0 32.5 -13.5t12.5 -33.5v-180q0 -19 -12.5 -33t-32.5 -14h-399v-299h780q19 0 33 -13.5t14 -33.5v-189q0 -20 -14 -33.5t-33 -13.5h-1042q-20 0 -32.5 13.5t-12.5 33.5v1342q0 19 12.5 32t32.5 13z" />
    <glyph glyph-name="ebreve" unicode="&#x115;" horiz-adv-x="1112" 
d="M561 1087q-176 0 -270 89t-94 241v43q0 17 10 27t24 10h179q14 0 24 -10t10 -27v-22q0 -54 32.5 -84.5t84.5 -30.5q53 0 86 30.5t33 84.5v22q0 17 10.5 27t24.5 10h176q37 0 37 -37v-43q0 -151 -95.5 -240.5t-271.5 -89.5zM571 1026q115 0 212.5 -42t162 -111.5t101 -159
t36.5 -185.5v-55q0 -47 -51 -47h-684q10 -92 77 -148.5t157 -56.5q70 0 120 23.5t93 72.5q28 28 53 11l158 -103q18 -11 19 -30.5t-11 -30.5q-149 -193 -439 -193q-154 0 -276.5 69t-189 188t-66.5 266q0 146 67.5 267.5t189 193t271.5 71.5zM354 610h439
q-19 87 -80.5 132.5t-139.5 45.5q-76 0 -136 -47.5t-83 -130.5z" />
    <glyph glyph-name="Edotaccent" unicode="&#x116;" horiz-adv-x="1298" 
d="M682 1540q-80 0 -140.5 59.5t-60.5 141.5t60 140t141 58q85 0 142 -56.5t57 -141.5t-57 -143t-142 -58zM166 1434h1026q20 0 33.5 -14t13.5 -34v-188q0 -20 -13.5 -33.5t-33.5 -13.5h-764v-295h399q20 0 32.5 -13.5t12.5 -33.5v-180q0 -19 -12.5 -33t-32.5 -14h-399v-299
h780q19 0 33 -13.5t14 -33.5v-189q0 -20 -14 -33.5t-33 -13.5h-1042q-20 0 -32.5 13.5t-12.5 33.5v1342q0 19 12.5 32t32.5 13z" />
    <glyph glyph-name="edotaccent" unicode="&#x117;" horiz-adv-x="1112" 
d="M561 1102q-80 0 -140.5 59.5t-60.5 141.5t60 140t141 58q85 0 142 -56.5t57 -141.5t-57 -143t-142 -58zM571 1026q115 0 212.5 -42t162 -111.5t101 -159t36.5 -185.5v-55q0 -47 -51 -47h-684q10 -92 77 -148.5t157 -56.5q70 0 120 23.5t93 72.5q28 28 53 11l158 -103
q18 -11 19 -30.5t-11 -30.5q-149 -193 -439 -193q-154 0 -276.5 69t-189 188t-66.5 266q0 146 67.5 267.5t189 193t271.5 71.5zM354 610h439q-19 87 -80.5 132.5t-139.5 45.5q-76 0 -136 -47.5t-83 -130.5z" />
    <glyph glyph-name="Eogonek" unicode="&#x118;" horiz-adv-x="1298" 
d="M1161 -344l-10 -82q-8 -74 -190 -74q-120 0 -191.5 51.5t-71.5 147.5q0 90 60.5 169t142.5 132h-735q-20 0 -32.5 13.5t-12.5 33.5v1342q0 19 12.5 32t32.5 13h1026q20 0 33.5 -14t13.5 -34v-188q0 -20 -13.5 -33.5t-33.5 -13.5h-764v-295h399q20 0 32.5 -13.5
t12.5 -33.5v-180q0 -19 -12.5 -33t-32.5 -14h-399v-299h780q19 0 33 -13.5t14 -33.5v-189q0 -20 -14 -33.5t-33 -13.5h-133q-108 -157 -108 -219q0 -78 92 -78q13 0 67 6q43 0 35 -53z" />
    <glyph glyph-name="eogonek" unicode="&#x119;" horiz-adv-x="1112" 
d="M709 -451q-120 0 -192.5 51.5t-72.5 147.5q0 115 115 223q-149 3 -268 73.5t-183.5 188.5t-64.5 261q0 146 67.5 267.5t189 193t271.5 71.5q115 0 212.5 -42t162 -111.5t101 -159t36.5 -185.5v-55q0 -47 -51 -47h-684q10 -92 77 -148.5t157 -56.5q70 0 120 23.5t93 72.5
q28 28 53 11l158 -103q18 -11 19 -30.5t-11 -30.5q-86 -110 -211 -156q-90 -131 -90 -182q0 -76 90 -76q17 0 40 2t29 2q19 2 29 -10t6 -41l-8 -80q-11 -74 -190 -74zM354 610h439q-19 87 -80.5 132.5t-139.5 45.5q-76 0 -136 -47.5t-83 -130.5z" />
    <glyph glyph-name="Ecaron" unicode="&#x11a;" horiz-adv-x="1298" 
d="M811 1534h-256q-36 0 -63 43l-189 311q-15 29 -3.5 47.5t34.5 18.5h170q7 0 12.5 -0.5t10.5 -2.5t8 -3.5t8 -5.5t7 -6l8 -8l9 -9l115 -160l117 160q11 14 17 20t17 10.5t27 4.5h172q21 0 33.5 -18.5t-2.5 -47.5l-191 -311q-21 -43 -61 -43zM166 1434h1026q20 0 33.5 -14
t13.5 -34v-188q0 -20 -13.5 -33.5t-33.5 -13.5h-764v-295h399q20 0 32.5 -13.5t12.5 -33.5v-180q0 -19 -12.5 -33t-32.5 -14h-399v-299h780q19 0 33 -13.5t14 -33.5v-189q0 -20 -14 -33.5t-33 -13.5h-1042q-20 0 -32.5 13.5t-12.5 33.5v1342q0 19 12.5 32t32.5 13z" />
    <glyph glyph-name="ecaron" unicode="&#x11b;" horiz-adv-x="1112" 
d="M690 1098h-256q-36 0 -63 43l-189 311q-15 29 -3.5 47.5t34.5 18.5h170q7 0 12.5 -0.5t10.5 -2.5t8 -3.5t8 -5.5t7 -6l8 -8l9 -9l115 -160l117 160q11 14 17 20t17 10.5t27 4.5h172q21 0 33.5 -18.5t-2.5 -47.5l-190 -311q-21 -43 -62 -43zM571 1026q115 0 212.5 -42
t162 -111.5t101 -159t36.5 -185.5v-55q0 -47 -51 -47h-684q10 -92 77 -148.5t157 -56.5q70 0 120 23.5t93 72.5q28 28 53 11l158 -103q18 -11 19 -30.5t-11 -30.5q-149 -193 -439 -193q-154 0 -276.5 69t-189 188t-66.5 266q0 146 67.5 267.5t189 193t271.5 71.5zM354 610
h439q-19 87 -80.5 132.5t-139.5 45.5q-76 0 -136 -47.5t-83 -130.5z" />
    <glyph glyph-name="Gcircumflex" unicode="&#x11c;" horiz-adv-x="1603" 
d="M676 1954h256q38 0 61 -45l191 -310q15 -29 2.5 -47t-33.5 -18h-172q-23 0 -34.5 7.5t-26.5 27.5l-117 160l-115 -160q-15 -16 -20 -21t-16 -9.5t-27 -4.5h-170q-23 0 -34.5 18t3.5 47l188 310q26 45 64 45zM817 1462q244 0 439 -120t272 -322q16 -38 -23 -47l-231 -62
q-33 -8 -49 29q-60 110 -162.5 174t-243.5 64q-126 0 -229 -62t-161 -168.5t-58 -234.5q0 -201 128 -332t326 -131q126 0 231.5 61.5t166.5 175.5h-373q-20 0 -33.5 14.5t-13.5 33.5v153q0 20 13.5 33.5t33.5 13.5h625q20 0 34.5 -13.5t14.5 -33.5v-641q0 -20 -14.5 -33.5
t-34.5 -13.5h-187q-20 0 -33.5 13.5t-13.5 33.5v125q-159 -201 -463 -201q-153 0 -289 58t-232 157t-152 237.5t-56 293.5t59.5 293t162 237t245 157t301.5 58z" />
    <glyph glyph-name="gcircumflex" unicode="&#x11d;" 
d="M467 1518h256q38 0 61 -45l191 -310q15 -29 2.5 -47t-33.5 -18h-172q-23 0 -34.5 7.5t-26.5 27.5l-117 159l-115 -159q-15 -16 -20 -21t-16 -9.5t-27 -4.5h-170q-23 0 -34.5 18t3.5 47l188 310q26 45 64 45zM342 508q0 -106 69.5 -177t172.5 -71q104 0 173.5 71t69.5 177
q0 105 -69.5 176.5t-173.5 71.5q-103 0 -172.5 -72t-69.5 -176zM590 -221q116 0 177.5 61t61.5 164v117q-37 -56 -112 -91.5t-170 -35.5q-137 0 -251 61.5t-183.5 180t-69.5 272.5q0 116 41 215t109 164.5t157 102t185 36.5q100 0 178 -37.5t116 -99.5v63q0 18 12.5 30.5
t30.5 12.5h207q19 0 31 -12t12 -31v-958q0 -212 -145.5 -340.5t-394.5 -128.5q-197 0 -334 82.5t-174 222.5q-6 12 -1 25.5t21 17.5l215 61q37 6 51 -20q20 -55 78 -95t152 -40z" />
    <glyph glyph-name="Gbreve" unicode="&#x11e;" horiz-adv-x="1603" 
d="M803 1524q-176 0 -270.5 89t-94.5 240v43q0 17 10.5 27t24.5 10h178q14 0 24.5 -10t10.5 -27v-22q0 -54 32.5 -84.5t84.5 -30.5q53 0 86 30.5t33 84.5v22q0 17 10 27t24 10h177q36 0 36 -37v-43q0 -151 -95 -240t-271 -89zM817 1462q244 0 439 -120t272 -322
q16 -38 -23 -47l-231 -62q-33 -8 -49 29q-60 110 -162.5 174t-243.5 64q-126 0 -229 -62t-161 -168.5t-58 -234.5q0 -201 128 -332t326 -131q126 0 231.5 61.5t166.5 175.5h-373q-20 0 -33.5 14.5t-13.5 33.5v153q0 20 13.5 33.5t33.5 13.5h625q20 0 34.5 -13.5t14.5 -33.5
v-641q0 -20 -14.5 -33.5t-34.5 -13.5h-187q-20 0 -33.5 13.5t-13.5 33.5v125q-159 -201 -463 -201q-153 0 -289 58t-232 157t-152 237.5t-56 293.5t59.5 293t162 237t245 157t301.5 58z" />
    <glyph glyph-name="gbreve" unicode="&#x11f;" 
d="M594 1087q-176 0 -270.5 89.5t-94.5 240.5v43q0 17 10.5 27t24.5 10h178q14 0 24.5 -10t10.5 -27v-22q0 -54 32.5 -84.5t84.5 -30.5q53 0 86 30.5t33 84.5v22q0 17 10.5 27t24.5 10h176q37 0 37 -37v-43q0 -151 -95.5 -240.5t-271.5 -89.5zM342 508q0 -106 69.5 -177
t172.5 -71q104 0 173.5 71t69.5 177q0 105 -69.5 176.5t-173.5 71.5q-103 0 -172.5 -72t-69.5 -176zM590 -221q116 0 177.5 61t61.5 164v117q-37 -56 -112 -91.5t-170 -35.5q-137 0 -251 61.5t-183.5 180t-69.5 272.5q0 116 41 215t109 164.5t157 102t185 36.5
q100 0 178 -37.5t116 -99.5v63q0 18 12.5 30.5t30.5 12.5h207q19 0 31 -12t12 -31v-958q0 -212 -145.5 -340.5t-394.5 -128.5q-197 0 -334 82.5t-174 222.5q-6 12 -1 25.5t21 17.5l215 61q37 6 51 -20q20 -55 78 -95t152 -40z" />
    <glyph glyph-name="Gdotaccent" unicode="&#x120;" horiz-adv-x="1603" 
d="M805 1540q-80 0 -140.5 59.5t-60.5 141.5t60 140t141 58q85 0 142 -56.5t57 -141.5t-57 -143t-142 -58zM817 1462q244 0 439 -120t272 -322q16 -38 -23 -47l-231 -62q-33 -8 -49 29q-60 110 -162.5 174t-243.5 64q-126 0 -229 -62t-161 -168.5t-58 -234.5
q0 -201 128 -332t326 -131q126 0 231.5 61.5t166.5 175.5h-373q-20 0 -33.5 14.5t-13.5 33.5v153q0 20 13.5 33.5t33.5 13.5h625q20 0 34.5 -13.5t14.5 -33.5v-641q0 -20 -14.5 -33.5t-34.5 -13.5h-187q-20 0 -33.5 13.5t-13.5 33.5v125q-159 -201 -463 -201q-153 0 -289 58
t-232 157t-152 237.5t-56 293.5t59.5 293t162 237t245 157t301.5 58z" />
    <glyph glyph-name="gdotaccent" unicode="&#x121;" 
d="M578 1106q-80 0 -140.5 59.5t-60.5 141.5t60 140t141 58q85 0 141.5 -56.5t56.5 -141.5t-57 -143t-141 -58zM342 508q0 -106 69.5 -177t172.5 -71q104 0 173.5 71t69.5 177q0 105 -69.5 176.5t-173.5 71.5q-103 0 -172.5 -72t-69.5 -176zM590 -221q116 0 177.5 61
t61.5 164v117q-37 -56 -112 -91.5t-170 -35.5q-137 0 -251 61.5t-183.5 180t-69.5 272.5q0 116 41 215t109 164.5t157 102t185 36.5q100 0 178 -37.5t116 -99.5v63q0 18 12.5 30.5t30.5 12.5h207q19 0 31 -12t12 -31v-958q0 -212 -145.5 -340.5t-394.5 -128.5
q-197 0 -334 82.5t-174 222.5q-6 12 -1 25.5t21 17.5l215 61q37 6 51 -20q20 -55 78 -95t152 -40z" />
    <glyph glyph-name="Gcommaaccent" unicode="&#x122;" horiz-adv-x="1603" 
d="M817 1462q244 0 439 -120t272 -322q16 -38 -23 -47l-231 -62q-33 -8 -49 29q-60 110 -162.5 174t-243.5 64q-126 0 -229 -62t-161 -168.5t-58 -234.5q0 -201 128 -332t326 -131q126 0 231.5 61.5t166.5 175.5h-373q-20 0 -33.5 14.5t-13.5 33.5v153q0 20 13.5 33.5
t33.5 13.5h625q20 0 34.5 -13.5t14.5 -33.5v-641q0 -20 -14.5 -33.5t-34.5 -13.5h-187q-20 0 -33.5 13.5t-13.5 33.5v125q-159 -201 -463 -201q-153 0 -289 58t-232 157t-152 237.5t-56 293.5t59.5 293t162 237t245 157t301.5 58zM645 -539l82 121q-44 20 -70 60.5t-26 89.5
q0 74 50 125t124 51q75 0 127.5 -51t52.5 -133q0 -178 -201 -330q-59 -45 -100 -15l-27 17q-40 26 -12 65z" />
    <glyph glyph-name="gcommaaccent" unicode="&#x123;" 
d="M766 1616l-107 -137q50 -25 79.5 -71t29.5 -101q0 -81 -55.5 -138t-139.5 -57q-81 0 -139.5 59t-58.5 150q0 191 235 367q65 52 113 18l29 -18q42 -31 14 -72zM342 508q0 -106 69.5 -177t172.5 -71q104 0 173.5 71t69.5 177q0 105 -69.5 176.5t-173.5 71.5
q-103 0 -172.5 -72t-69.5 -176zM590 -221q116 0 177.5 61t61.5 164v117q-37 -56 -112 -91.5t-170 -35.5q-137 0 -251 61.5t-183.5 180t-69.5 272.5q0 116 41 215t109 164.5t157 102t185 36.5q100 0 178 -37.5t116 -99.5v63q0 18 12.5 30.5t30.5 12.5h207q19 0 31 -12t12 -31
v-958q0 -212 -145.5 -340.5t-394.5 -128.5q-197 0 -334 82.5t-174 222.5q-6 12 -1 25.5t21 17.5l215 61q37 6 51 -20q20 -55 78 -95t152 -40z" />
    <glyph glyph-name="Hcircumflex" unicode="&#x124;" horiz-adv-x="1521" 
d="M633 1954h256q38 0 61 -45l191 -310q15 -29 2.5 -47t-33.5 -18h-172q-23 0 -34.5 7.5t-26.5 27.5l-117 160l-115 -160q-15 -16 -20 -21t-16 -9.5t-27 -4.5h-170q-23 0 -34.5 18t3.5 47l188 310q26 45 64 45zM1401 1389v-1342q0 -20 -12.5 -33.5t-32.5 -13.5h-215
q-20 0 -33.5 13.5t-13.5 33.5v535h-666v-535q0 -20 -13.5 -33.5t-33.5 -13.5h-215q-20 0 -32.5 13.5t-12.5 33.5v1342q0 19 12.5 32t32.5 13h215q20 0 33.5 -13t13.5 -32v-533h666v533q0 19 13.5 32t33.5 13h215q20 0 32.5 -13t12.5 -32z" />
    <glyph glyph-name="hcircumflex" unicode="&#x125;" horiz-adv-x="1212" 
d="M477 1954h256q39 0 62 -45l190 -310q15 -29 2.5 -47t-33.5 -18h-172q-23 0 -34.5 7.5t-26.5 27.5l-117 160l-115 -160q-15 -16 -20 -21t-16 -9.5t-27 -4.5h-170q-23 0 -34.5 18t3.5 47l189 310q26 45 63 45zM838 41v473q0 110 -59.5 175t-164.5 65q-104 0 -167.5 -67
t-63.5 -173v-473q0 -18 -13.5 -29.5t-31.5 -11.5h-207q-19 0 -31 12t-12 31v1348q0 19 12 31t31 12h207q18 0 31.5 -11.5t13.5 -29.5v-500q48 59 131 96t193 37q194 0 311 -122t117 -310v-553q0 -18 -13.5 -29.5t-31.5 -11.5h-207q-18 0 -31.5 11.5t-13.5 29.5z" />
    <glyph glyph-name="Hbar" unicode="&#x126;" horiz-adv-x="1533" 
d="M432 856h668v174h-668v-174zM432 582v-535q0 -20 -13 -33.5t-32 -13.5h-217q-19 0 -32 13.5t-13 33.5v983h-59q-20 0 -33 14t-13 33v123q0 19 13 33t33 14h59v142q0 19 13 32t32 13h217q19 0 32 -13t13 -32v-142h668v142q0 19 13 32t32 13h215q20 0 33.5 -13t13.5 -32
v-142h59q20 0 33.5 -14t13.5 -33v-123q0 -19 -13.5 -33t-33.5 -14h-59v-983q0 -20 -13.5 -33.5t-33.5 -13.5h-215q-19 0 -32 13.5t-13 33.5v535h-668z" />
    <glyph glyph-name="hbar" unicode="&#x127;" horiz-adv-x="1212" 
d="M383 514v-473q0 -18 -13.5 -29.5t-31.5 -11.5h-207q-19 0 -31 12t-12 31v1063h-84q-20 0 -33.5 13.5t-13.5 33.5v96q0 20 13.5 33.5t33.5 13.5h84v95q0 19 12 31t31 12h207q18 0 31.5 -11.5t13.5 -29.5v-97h217q20 0 33.5 -13.5t13.5 -33.5v-96q0 -20 -13.5 -33.5
t-33.5 -13.5h-217v-213q48 59 131 96t193 37q194 0 311 -122t117 -310v-553q0 -18 -13.5 -29.5t-31.5 -11.5h-207q-18 0 -31.5 11.5t-13.5 29.5v473q0 110 -59.5 175t-164.5 65q-104 0 -167.5 -67t-63.5 -173z" />
    <glyph glyph-name="Itilde" unicode="&#x128;" horiz-adv-x="548" 
d="M453 1561q-57 0 -178 31.5t-146 31.5q-35 0 -61.5 -16.5t-45.5 -32.5t-36 -16q-23 0 -43 26l-62 92q-18 23 -18 58q0 49 69 105t160 56q52 0 173.5 -32.5t150.5 -32.5q35 0 62.5 16.5t47.5 33.5t37 17q19 0 43 -28l58 -92q18 -27 18 -58q0 -48 -69.5 -103.5t-159.5 -55.5
zM381 0h-215q-20 0 -32.5 13.5t-12.5 33.5v1342q0 19 12.5 32t32.5 13h215q20 0 33.5 -13t13.5 -32v-1342q0 -20 -13.5 -33.5t-33.5 -13.5z" />
    <glyph glyph-name="itilde" unicode="&#x129;" horiz-adv-x="471" 
d="M414 1128q-57 0 -178 32t-146 32q-35 0 -62.5 -16.5t-46.5 -33t-34 -16.5q-22 0 -43 27l-62 92q-18 23 -18 58q0 49 69 105t160 56q52 0 173.5 -32.5t150.5 -32.5q35 0 62.5 16.5t47.5 33.5t37 17q18 0 43 -28l58 -92q18 -27 18 -58q0 -48 -69.5 -104t-159.5 -56zM340 0
h-207q-19 0 -32 13t-13 32v907q0 19 13 32t32 13h207q19 0 31 -13t12 -32v-907q0 -19 -12 -32t-31 -13z" />
    <glyph glyph-name="Imacron" unicode="&#x12a;" horiz-adv-x="548" 
d="M596 1569h-645q-19 0 -32 13.5t-13 33.5v156q0 19 13 32t32 13h645q20 0 33.5 -13t13.5 -32v-156q0 -20 -13.5 -33.5t-33.5 -13.5zM381 0h-215q-20 0 -32.5 13.5t-12.5 33.5v1342q0 19 12.5 32t32.5 13h215q20 0 33.5 -13t13.5 -32v-1342q0 -20 -13.5 -33.5t-33.5 -13.5z
" />
    <glyph glyph-name="imacron" unicode="&#x12b;" horiz-adv-x="471" 
d="M557 1133h-645q-19 0 -32 13.5t-13 33.5v155q0 19 13 32t32 13h645q20 0 33.5 -13t13.5 -32v-155q0 -20 -13.5 -33.5t-33.5 -13.5zM340 0h-207q-19 0 -32 13t-13 32v907q0 19 13 32t32 13h207q19 0 31 -13t12 -32v-907q0 -19 -12 -32t-31 -13z" />
    <glyph glyph-name="Ibreve" unicode="&#x12c;" horiz-adv-x="548" 
d="M272 1524q-176 0 -270 89t-94 240v43q0 17 10.5 27t24.5 10h178q14 0 24.5 -10t10.5 -27v-22q0 -54 32 -84.5t84 -30.5q53 0 86 30.5t33 84.5v22q0 17 10.5 27t24.5 10h176q37 0 37 -37v-43q0 -151 -95.5 -240t-271.5 -89zM381 0h-215q-20 0 -32.5 13.5t-12.5 33.5v1342
q0 19 12.5 32t32.5 13h215q20 0 33.5 -13t13.5 -32v-1342q0 -20 -13.5 -33.5t-33.5 -13.5z" />
    <glyph glyph-name="ibreve" unicode="&#x12d;" horiz-adv-x="471" 
d="M236 1087q-176 0 -270.5 89.5t-94.5 240.5v43q0 17 10.5 27t24.5 10h178q14 0 24.5 -10t10.5 -27v-22q0 -54 32.5 -84.5t84.5 -30.5t85 30.5t33 84.5v22q0 17 10.5 27t24.5 10h176q37 0 37 -37v-43q0 -151 -95 -240.5t-271 -89.5zM340 0h-207q-19 0 -32 13t-13 32v907
q0 19 13 32t32 13h207q19 0 31 -13t12 -32v-907q0 -19 -12 -32t-31 -13z" />
    <glyph glyph-name="Iogonek" unicode="&#x12e;" horiz-adv-x="548" 
d="M266 -500q-120 0 -192 51.5t-72 147.5q0 148 211 301h-47q-20 0 -32.5 13.5t-12.5 33.5v1342q0 19 12.5 32t32.5 13h215q20 0 33.5 -13t13.5 -32v-1342q0 -19 -12.5 -33t-26.5 -14q-119 -159 -119 -223q0 -76 90 -76q17 0 40.5 2t29.5 2q19 2 29 -10t6 -41l-8 -80
q-11 -74 -191 -74z" />
    <glyph glyph-name="iogonek" unicode="&#x12f;" horiz-adv-x="471" 
d="M238 1104q-73 0 -126 53t-53 125q0 74 53 127t126 53q72 0 124 -53t52 -127q0 -72 -52 -125t-124 -53zM227 -500q-120 0 -192 51.5t-72 147.5q0 148 211 301h-41q-19 0 -32 13t-13 32v907q0 19 13 32t32 13h207q19 0 31 -13t12 -32v-907q0 -18 -11 -31.5t-22 -11.5
q-119 -159 -119 -225q0 -76 91 -76q17 0 40 2t29 2q19 2 29 -10t6 -41l-8 -80q-11 -74 -191 -74z" />
    <glyph glyph-name="Idot" unicode="&#x130;" horiz-adv-x="548" 
d="M274 1540q-80 0 -140 59.5t-60 141.5t59.5 140t140.5 58q85 0 142 -56.5t57 -141.5t-57 -143t-142 -58zM381 0h-215q-20 0 -32.5 13.5t-12.5 33.5v1342q0 19 12.5 32t32.5 13h215q20 0 33.5 -13t13.5 -32v-1342q0 -20 -13.5 -33.5t-33.5 -13.5z" />
    <glyph glyph-name="dotlessi" unicode="&#x131;" horiz-adv-x="471" 
d="M340 0h-207q-19 0 -32 13t-13 32v907q0 19 13 32t32 13h207q19 0 31 -13t12 -32v-907q0 -19 -12 -32t-31 -13z" />
    <glyph glyph-name="IJ" unicode="&#x132;" horiz-adv-x="1796" 
d="M381 0h-215q-20 0 -32.5 13.5t-12.5 33.5v1342q0 19 12.5 32t32.5 13h215q20 0 33.5 -13t13.5 -32v-1342q0 -20 -13.5 -33.5t-33.5 -13.5zM1688 1389v-902q0 -126 -45 -226.5t-122.5 -162.5t-176 -94.5t-211.5 -32.5t-211 31t-175 91.5t-121 158.5t-44 223v94
q0 19 12.5 32t32.5 13h215q19 0 33 -13t14 -32v-73q0 -110 62 -178t182 -68q122 0 184.5 68t62.5 178v893q0 19 13.5 32t33.5 13h215q19 0 32.5 -13t13.5 -32z" />
    <glyph glyph-name="ij" unicode="&#x133;" horiz-adv-x="940" 
d="M705 1104q-72 0 -125.5 53t-53.5 125q0 73 53.5 126.5t125.5 53.5q73 0 125.5 -53t52.5 -127q0 -72 -52.5 -125t-125.5 -53zM238 1104q-73 0 -126 53t-53 125q0 74 53 127t126 53q72 0 124 -53t52 -127q0 -72 -52 -125t-124 -53zM340 0h-207q-19 0 -32 13t-13 32v907
q0 19 13 32t32 13h207q19 0 31 -13t12 -32v-907q0 -19 -12 -32t-31 -13zM602 997h205q20 0 32.5 -14t12.5 -33v-1048q0 -98 -31.5 -173t-85 -118t-117 -64.5t-133.5 -21.5q-83 0 -160.5 24t-123.5 74q-32 32 -4 76l84 113q33 43 81 12q47 -31 95 -31q39 0 69.5 27.5
t30.5 89.5v1040q0 19 12.5 33t32.5 14z" />
    <glyph glyph-name="Jcircumflex" unicode="&#x134;" horiz-adv-x="1251" 
d="M862 1954h256q39 0 62 -45l190 -310q15 -29 2.5 -47t-33.5 -18h-172q-23 0 -34.5 7.5t-26.5 27.5l-117 160l-115 -160q-15 -16 -20 -21t-16 -9.5t-27 -4.5h-170q-23 0 -34.5 18t3.5 47l189 310q26 45 63 45zM1143 1389v-902q0 -126 -45 -226.5t-122.5 -162.5t-176 -94.5
t-211.5 -32.5t-211 31t-175 91.5t-121 158.5t-44 223v94q0 19 12.5 32t32.5 13h215q19 0 33 -13t14 -32v-73q0 -110 62 -178t182 -68q122 0 185 68t63 178v893q0 19 13.5 32t33.5 13h215q19 0 32 -13t13 -32z" />
    <glyph glyph-name="jcircumflex" unicode="&#x135;" horiz-adv-x="471" 
d="M111 1518h256q38 0 61 -45l190 -310q15 -29 3 -47t-33 -18h-172q-23 0 -35 7.5t-27 27.5l-116 159l-115 -159q-14 -16 -20 -21t-17 -9.5t-27 -4.5h-170q-23 0 -34 18t4 47l188 310q26 45 64 45zM133 997h205q20 0 32.5 -14t12.5 -33v-1048q0 -98 -31.5 -173t-85 -118
t-117 -64.5t-133.5 -21.5q-83 0 -160.5 24t-123.5 74q-32 32 -4 76l84 113q33 43 82 12q47 -31 94 -31q39 0 69.5 27.5t30.5 89.5v1040q0 19 12.5 33t32.5 14z" />
    <glyph glyph-name="Kcommaaccent" unicode="&#x136;" horiz-adv-x="1353" 
d="M1346 1372l-496 -624l498 -691q15 -23 6.5 -40t-29.5 -17h-258q-30 0 -45.5 7t-32.5 30l-389 553h-172v-543q0 -20 -14 -33.5t-33 -13.5h-215q-20 0 -32.5 13.5t-12.5 33.5v1342q0 19 12.5 32t32.5 13h215q19 0 33 -13t14 -32v-529h166l403 531q18 24 36 33.5t48 9.5h236
q29 0 38 -21t-9 -41zM539 -539l82 121q-45 20 -71 60.5t-26 89.5q0 74 50 125t124 51q75 0 128 -51t53 -133q0 -178 -201 -330q-59 -45 -100 -15l-27 17q-40 26 -12 65z" />
    <glyph glyph-name="kcommaaccent" unicode="&#x137;" horiz-adv-x="1042" 
d="M383 412v-369q0 -19 -12 -31t-31 -12h-207q-19 0 -32 12t-13 31v1348q0 19 13 31t32 12h207q19 0 31 -12t12 -31v-742h72l227 314q20 34 59 34h222q32 0 40.5 -22.5t-10.5 -48.5l-284 -371l331 -481q18 -26 6.5 -50t-45.5 -24h-231q-40 0 -61 37l-248 375h-78zM367 -539
l82 121q-45 20 -71 60.5t-26 89.5q0 74 50 125t124 51q75 0 128 -51t53 -133q0 -178 -201 -330q-59 -45 -100 -15l-27 17q-40 26 -12 65z" />
    <glyph glyph-name="kgreenlandic" unicode="&#x138;" horiz-adv-x="1040" 
d="M383 397v-354q0 -19 -12 -31t-31 -12h-207q-19 0 -32 12t-13 31v909q0 19 13 32t32 13h207q19 0 31 -13t12 -32v-315h72l227 326q20 34 59 34h220q32 0 40.5 -23t-10.5 -48l-284 -377l333 -475q19 -26 7.5 -50t-46.5 -24h-231q-40 0 -61 37l-248 360h-78z" />
    <glyph glyph-name="Lacute" unicode="&#x139;" horiz-adv-x="1163" 
d="M297 1954h254q34 0 45 -22.5t-4 -45.5l-186 -319q-23 -33 -56 -33h-135q-65 0 -53 65l82 316q9 39 53 39zM1145 236v-189q0 -20 -13.5 -33.5t-33.5 -13.5h-932q-20 0 -32.5 13t-12.5 32v1341q0 21 12.5 34.5t32.5 13.5h215q19 0 33 -14t14 -34v-1103h670q20 0 33.5 -13.5
t13.5 -33.5z" />
    <glyph glyph-name="lacute" unicode="&#x13a;" horiz-adv-x="561" 
d="M252 1954h254q34 0 45 -22.5t-4 -45.5l-187 -319q-23 -33 -55 -33h-135q-65 0 -53 65l82 316q9 39 53 39zM489 0h-145q-135 0 -197.5 66.5t-62.5 183.5v1139q0 19 12.5 32t32.5 13h205q20 0 32.5 -13t12.5 -32v-1080q0 -29 16 -46t45 -17h64q43 0 43 -43v-148
q0 -55 -58 -55z" />
    <glyph glyph-name="Lcommaaccent" unicode="&#x13b;" horiz-adv-x="1163" 
d="M1145 236v-189q0 -20 -13.5 -33.5t-33.5 -13.5h-932q-20 0 -32.5 13t-12.5 32v1341q0 21 12.5 34.5t32.5 13.5h215q19 0 33 -14t14 -34v-1103h670q20 0 33.5 -13.5t13.5 -33.5zM465 -539l82 121q-44 20 -70 60.5t-26 89.5q0 74 50 125t124 51q75 0 127.5 -51t52.5 -133
q0 -178 -201 -330q-59 -45 -100 -15l-27 17q-40 26 -12 65z" />
    <glyph glyph-name="lcommaaccent" unicode="&#x13c;" horiz-adv-x="561" 
d="M489 0h-145q-135 0 -197.5 66.5t-62.5 183.5v1139q0 19 12.5 32t32.5 13h205q20 0 32.5 -13t12.5 -32v-1080q0 -29 16 -46t45 -17h64q43 0 43 -43v-148q0 -55 -58 -55zM117 -539l82 121q-45 20 -71 60.5t-26 89.5q0 74 50 125t124 51q75 0 128 -51t53 -133
q0 -178 -201 -330q-59 -45 -100 -15l-27 17q-40 26 -12 65z" />
    <glyph glyph-name="Lcaron" unicode="&#x13d;" horiz-adv-x="1167" 
d="M700 1004l86 120q-45 24 -72.5 65t-27.5 89q0 72 51 123t125 51q75 0 126.5 -51t51.5 -135q0 -53 -19 -105t-51.5 -93.5t-63.5 -72t-66 -55.5q-58 -44 -101 -14l-22 14q-42 31 -17 64zM1145 236v-189q0 -20 -13.5 -33.5t-33.5 -13.5h-932q-20 0 -32.5 13t-12.5 32v1341
q0 21 12.5 34.5t32.5 13.5h215q19 0 33 -14t14 -34v-1103h670q20 0 33.5 -13.5t13.5 -33.5z" />
    <glyph glyph-name="lcaron" unicode="&#x13e;" horiz-adv-x="641" 
d="M471 1004l86 120q-45 24 -72.5 65t-27.5 89q0 72 50.5 123t125.5 51t126.5 -51t51.5 -135q0 -69 -35.5 -138t-76.5 -110.5t-89 -77.5q-58 -44 -100 -14l-23 14q-42 31 -16 64zM489 0h-145q-135 0 -197.5 66.5t-62.5 183.5v1139q0 19 12.5 32t32.5 13h205q20 0 32.5 -13
t12.5 -32v-1080q0 -29 16 -46t45 -17h64q43 0 43 -43v-148q0 -55 -58 -55z" />
    <glyph glyph-name="Ldot" unicode="&#x13f;" horiz-adv-x="1177" 
d="M1145 236v-189q0 -20 -13.5 -33.5t-33.5 -13.5h-932q-20 0 -32.5 13t-12.5 32v1341q0 21 12.5 34.5t32.5 13.5h215q19 0 33 -14t14 -34v-1103h670q20 0 33.5 -13.5t13.5 -33.5zM817 567q-82 0 -142.5 60.5t-60.5 142.5q0 85 60 144t143 59t143 -59t60 -144
q0 -82 -60.5 -142.5t-142.5 -60.5z" />
    <glyph glyph-name="ldot" unicode="&#x140;" horiz-adv-x="763" 
d="M489 0h-145q-135 0 -197.5 66.5t-62.5 183.5v1139q0 19 12.5 32t32.5 13h205q20 0 32.5 -13t12.5 -32v-1080q0 -29 16 -46t45 -17h64q43 0 43 -43v-148q0 -55 -58 -55zM614 432q-73 0 -125.5 52t-52.5 124q0 75 52 126.5t126 51.5q73 0 126 -52t53 -126q0 -72 -53.5 -124
t-125.5 -52z" />
    <glyph glyph-name="Lslash" unicode="&#x141;" horiz-adv-x="1179" 
d="M1114 0h-930q-20 0 -33.5 13t-13.5 32v453l-74 -19q-23 -6 -37 5t-14 34v150q0 44 37 53l88 20v645q0 20 13.5 34t33.5 14h213q19 0 33 -14t14 -34v-569l330 82q23 6 37 -5t14 -34v-151q0 -45 -37 -54l-344 -84v-288h670q19 0 33 -13.5t14 -33.5v-189q0 -20 -14 -33.5
t-33 -13.5z" />
    <glyph glyph-name="lslash" unicode="&#x142;" horiz-adv-x="626" 
d="M543 0h-144q-135 0 -197.5 66.5t-62.5 183.5v239l-63 -22q-49 -13 -49 31v131q0 22 7 30.5t27 16.5l78 24v689q0 19 12.5 32t32.5 13h205q20 0 32.5 -13t12.5 -32v-588l119 41q49 13 49 -31v-131q0 -33 -35 -45l-133 -45v-281q0 -29 16.5 -46t45.5 -17h63q43 0 43 -43
v-148q0 -55 -59 -55z" />
    <glyph glyph-name="Nacute" unicode="&#x143;" horiz-adv-x="1490" 
d="M768 1954h254q34 0 45 -22.5t-4 -45.5l-186 -319q-23 -33 -56 -33h-135q-65 0 -53 65l82 316q9 39 53 39zM995 45l-567 903v-903q0 -20 -13 -32.5t-32 -12.5h-217q-45 0 -45 45v1344q0 19 12.5 32t32.5 13h280q47 0 66 -37l551 -885v877q0 19 13 32t32 13h215
q19 0 33 -13t14 -32v-1344q0 -20 -14 -32.5t-33 -12.5h-231q-71 0 -97 45z" />
    <glyph glyph-name="nacute" unicode="&#x144;" horiz-adv-x="1212" 
d="M627 1518h254q34 0 45 -22.5t-4 -45.5l-187 -320q-22 -32 -55 -32h-135q-65 0 -53 65l81 316q9 39 54 39zM838 41v473q0 110 -59.5 175t-164.5 65q-104 0 -167.5 -67t-63.5 -173v-473q0 -18 -13.5 -29.5t-31.5 -11.5h-207q-19 0 -31 12t-12 31v909q0 19 12 32t31 13h207
q18 0 31.5 -12t13.5 -29v-63q48 59 131 96t193 37q194 0 311 -122t117 -310v-553q0 -18 -13.5 -29.5t-31.5 -11.5h-207q-18 0 -31.5 11.5t-13.5 29.5z" />
    <glyph glyph-name="Ncommaaccent" unicode="&#x145;" horiz-adv-x="1490" 
d="M995 45l-567 903v-903q0 -20 -13 -32.5t-32 -12.5h-217q-45 0 -45 45v1344q0 19 12.5 32t32.5 13h280q47 0 66 -37l551 -885v877q0 19 13 32t32 13h215q19 0 33 -13t14 -32v-1344q0 -20 -14 -32.5t-33 -12.5h-231q-71 0 -97 45zM586 -539l82 121q-45 20 -71 60.5
t-26 89.5q0 74 50 125t124 51q75 0 128 -51t53 -133q0 -178 -201 -330q-59 -45 -100 -15l-27 17q-40 26 -12 65z" />
    <glyph glyph-name="ncommaaccent" unicode="&#x146;" horiz-adv-x="1212" 
d="M838 41v473q0 110 -59.5 175t-164.5 65q-104 0 -167.5 -67t-63.5 -173v-473q0 -18 -13.5 -29.5t-31.5 -11.5h-207q-19 0 -31 12t-12 31v909q0 19 12 32t31 13h207q18 0 31.5 -12t13.5 -29v-63q48 59 131 96t193 37q194 0 311 -122t117 -310v-553q0 -18 -13.5 -29.5
t-31.5 -11.5h-207q-18 0 -31.5 11.5t-13.5 29.5zM420 -539l82 121q-44 20 -70 60.5t-26 89.5q0 74 50 125t124 51q75 0 127.5 -51t52.5 -133q0 -178 -201 -330q-59 -45 -100 -15l-27 17q-40 26 -12 65z" />
    <glyph glyph-name="Ncaron" unicode="&#x147;" horiz-adv-x="1490" 
d="M874 1534h-256q-36 0 -63 43l-188 311q-15 29 -4 47.5t34 18.5h170q6 0 11.5 -0.5t9 -1.5t8 -3.5t7 -3.5t7 -5t6 -5.5l7.5 -7.5l8 -8l114 -160l117 160q15 20 27 27.5t35 7.5h172q21 0 33 -18.5t-3 -47.5l-190 -311q-21 -43 -62 -43zM995 45l-567 903v-903
q0 -20 -13 -32.5t-32 -12.5h-217q-45 0 -45 45v1344q0 19 12.5 32t32.5 13h280q47 0 66 -37l551 -885v877q0 19 13 32t32 13h215q19 0 33 -13t14 -32v-1344q0 -20 -14 -32.5t-33 -12.5h-231q-71 0 -97 45z" />
    <glyph glyph-name="ncaron" unicode="&#x148;" horiz-adv-x="1212" 
d="M733 1098h-256q-36 0 -63 43l-189 311q-15 29 -3.5 47.5t34.5 18.5h170q7 0 12.5 -0.5t10.5 -2.5t8 -3.5t8 -5.5t7 -6l8 -8l9 -9l115 -160l117 160q11 14 17 20t17 10.5t27 4.5h172q21 0 33.5 -18.5t-2.5 -47.5l-190 -311q-21 -43 -62 -43zM838 41v473q0 110 -59.5 175
t-164.5 65q-104 0 -167.5 -67t-63.5 -173v-473q0 -18 -13.5 -29.5t-31.5 -11.5h-207q-19 0 -31 12t-12 31v909q0 19 12 32t31 13h207q18 0 31.5 -12t13.5 -29v-63q48 59 131 96t193 37q194 0 311 -122t117 -310v-553q0 -18 -13.5 -29.5t-31.5 -11.5h-207q-18 0 -31.5 11.5
t-13.5 29.5z" />
    <glyph glyph-name="napostrophe" unicode="&#x149;" horiz-adv-x="1212" 
d="M74 1245l86 121q-46 24 -73.5 65t-27.5 89q0 72 51 123t126 51q74 0 126 -51.5t52 -135.5q0 -53 -19.5 -104.5t-52 -93t-63.5 -71.5t-66 -56q-58 -44 -100 -15l-23 15q-41 31 -16 63zM838 41v473q0 110 -59.5 175t-164.5 65q-104 0 -167.5 -67t-63.5 -173v-473
q0 -18 -13.5 -29.5t-31.5 -11.5h-207q-19 0 -31 12t-12 31v909q0 19 12 32t31 13h207q18 0 31.5 -12t13.5 -29v-63q48 59 131 96t193 37q194 0 311 -122t117 -310v-553q0 -18 -13.5 -29.5t-31.5 -11.5h-207q-18 0 -31.5 11.5t-13.5 29.5z" />
    <glyph glyph-name="Eng" unicode="&#x14a;" horiz-adv-x="1490" 
d="M1001 -512q-81 0 -159.5 25t-122.5 75q-38 31 -4 74l84 121q30 40 84 10q56 -29 92 -29q37 0 67.5 26.5t30.5 90.5v119q-49 3 -74 41l-571 907v-903q0 -20 -13 -32.5t-32 -12.5h-217q-45 0 -45 45v1344q0 19 12.5 32t32.5 13h280q47 0 66 -37l551 -885v877q0 19 13 32
t32 13h215q19 0 33 -13t14 -32v-1520q0 -97 -31.5 -172.5t-85 -120t-117.5 -66.5t-135 -22z" />
    <glyph glyph-name="eng" unicode="&#x14b;" horiz-adv-x="1212" 
d="M766 -475q-82 0 -160.5 24t-124.5 74q-32 32 -4 76l86 117q30 40 84 10q44 -29 92 -29q38 0 68.5 26t30.5 91v600q0 110 -59.5 175t-164.5 65q-104 0 -167.5 -67t-63.5 -173v-473q0 -18 -13.5 -29.5t-31.5 -11.5h-207q-19 0 -31 12t-12 31v909q0 19 12 32t31 13h207
q18 0 31.5 -12t13.5 -29v-63q106 133 317 133q110 0 195 -38t136.5 -105.5t77.5 -154t26 -189.5v-633q0 -99 -31.5 -174.5t-85 -119.5t-117.5 -65.5t-135 -21.5z" />
    <glyph glyph-name="Omacron" unicode="&#x14c;" horiz-adv-x="1617" 
d="M1130 1569h-645q-19 0 -32 13.5t-13 33.5v156q0 19 13 32t32 13h645q20 0 34 -13t14 -32v-156q0 -20 -14 -33.5t-34 -13.5zM1569 717q0 -155 -59.5 -293.5t-160.5 -237.5t-242 -157t-298 -58q-156 0 -297 58t-242.5 157t-161 237.5t-59.5 293.5q0 207 101 378t275.5 269
t383.5 98q157 0 298 -58t242 -157t160.5 -237t59.5 -293zM1249 717q0 194 -125 327.5t-315 133.5t-315 -133.5t-125 -327.5t125 -327.5t315 -133.5t315 133.5t125 327.5z" />
    <glyph glyph-name="omacron" unicode="&#x14d;" horiz-adv-x="1165" 
d="M905 1133h-645q-19 0 -32 13.5t-13 33.5v155q0 19 13 32t32 13h645q20 0 33.5 -13t13.5 -32v-155q0 -20 -13.5 -33.5t-33.5 -13.5zM41 496q0 146 72 268t196.5 192t272.5 70q149 0 273.5 -70t196.5 -192t72 -268q0 -144 -72 -265t-196.5 -190.5t-273.5 -69.5
q-148 0 -272.5 69.5t-196.5 190.5t-72 265zM340 498q0 -105 70 -178.5t172 -73.5q103 0 173 73.5t70 178.5t-70 179.5t-173 74.5q-102 0 -172 -74.5t-70 -179.5z" />
    <glyph glyph-name="Obreve" unicode="&#x14e;" horiz-adv-x="1617" 
d="M809 1524q-176 0 -270.5 89t-94.5 240v43q0 17 10.5 27t24.5 10h178q14 0 24.5 -10t10.5 -27v-22q0 -54 32.5 -84.5t84.5 -30.5q53 0 86 30.5t33 84.5v22q0 17 10.5 27t24.5 10h176q37 0 37 -37v-43q0 -151 -95.5 -240t-271.5 -89zM1569 717q0 -155 -59.5 -293.5
t-160.5 -237.5t-242 -157t-298 -58q-156 0 -297 58t-242.5 157t-161 237.5t-59.5 293.5q0 207 101 378t275.5 269t383.5 98q157 0 298 -58t242 -157t160.5 -237t59.5 -293zM1249 717q0 194 -125 327.5t-315 133.5t-315 -133.5t-125 -327.5t125 -327.5t315 -133.5t315 133.5
t125 327.5z" />
    <glyph glyph-name="obreve" unicode="&#x14f;" horiz-adv-x="1165" 
d="M582 1087q-176 0 -270.5 89.5t-94.5 240.5v43q0 17 10.5 27t24.5 10h178q14 0 24.5 -10t10.5 -27v-22q0 -54 32.5 -84.5t84.5 -30.5t85 30.5t33 84.5v22q0 17 10.5 27t24.5 10h176q37 0 37 -37v-43q0 -151 -95 -240.5t-271 -89.5zM41 496q0 146 72 268t196.5 192
t272.5 70q149 0 273.5 -70t196.5 -192t72 -268q0 -144 -72 -265t-196.5 -190.5t-273.5 -69.5q-148 0 -272.5 69.5t-196.5 190.5t-72 265zM340 498q0 -105 70 -178.5t172 -73.5q103 0 173 73.5t70 178.5t-70 179.5t-173 74.5q-102 0 -172 -74.5t-70 -179.5z" />
    <glyph glyph-name="Ohungarumlaut" unicode="&#x150;" horiz-adv-x="1617" 
d="M604 1954h254q33 0 45 -22.5t-2 -45.5l-188 -319q-20 -33 -54 -33h-135q-68 0 -53 65l80 316q9 39 53 39zM1049 1954h254q31 0 43 -22.5t-3 -45.5l-188 -319q-20 -33 -53 -33h-135q-31 0 -46 17.5t-8 47.5l82 316q9 39 54 39zM1569 717q0 -155 -59.5 -293.5
t-160.5 -237.5t-242 -157t-298 -58q-156 0 -297 58t-242.5 157t-161 237.5t-59.5 293.5q0 207 101 378t275.5 269t383.5 98q157 0 298 -58t242 -157t160.5 -237t59.5 -293zM1249 717q0 194 -125 327.5t-315 133.5t-315 -133.5t-125 -327.5t125 -327.5t315 -133.5t315 133.5
t125 327.5z" />
    <glyph glyph-name="ohungarumlaut" unicode="&#x151;" horiz-adv-x="1165" 
d="M379 1518h254q33 0 45 -22.5t-2 -45.5l-189 -320q-19 -32 -53 -32h-135q-68 0 -53 65l80 316q9 39 53 39zM823 1518h254q31 0 43.5 -22.5t-2.5 -45.5l-188 -320q-19 -32 -53 -32h-136q-31 0 -45.5 17.5t-7.5 47.5l82 316q9 39 53 39zM41 496q0 146 72 268t196.5 192
t272.5 70q149 0 273.5 -70t196.5 -192t72 -268q0 -144 -72 -265t-196.5 -190.5t-273.5 -69.5q-148 0 -272.5 69.5t-196.5 190.5t-72 265zM340 498q0 -105 70 -178.5t172 -73.5q103 0 173 73.5t70 178.5t-70 179.5t-173 74.5q-102 0 -172 -74.5t-70 -179.5z" />
    <glyph glyph-name="OE" unicode="&#x152;" horiz-adv-x="2418" 
d="M1249 717q0 196 -123.5 330.5t-314.5 134.5q-190 0 -315 -134.5t-125 -330.5q0 -127 56 -233.5t157.5 -169t226.5 -62.5q126 0 227 63t156 169t55 233zM1233 47v119q-61 -92 -180 -143.5t-262 -51.5q-155 0 -292.5 58t-236 157t-156 237.5t-57.5 293.5q0 207 96 378
t264 269t373 98q149 0 268.5 -51t182.5 -143v121q0 19 14 32t33 13h1042q20 0 32.5 -13.5t12.5 -34.5v-188q0 -20 -12.5 -33.5t-32.5 -13.5h-782v-295h402q19 0 33 -13.5t14 -33.5v-180q0 -19 -14 -33t-33 -14h-402v-299h782q20 0 32.5 -13.5t12.5 -33.5v-189
q0 -20 -12.5 -33.5t-32.5 -13.5h-1042q-19 0 -33 13.5t-14 33.5z" />
    <glyph glyph-name="oe" unicode="&#x153;" horiz-adv-x="1896" 
d="M1360 -29q-234 0 -389 158q-158 -158 -389 -158q-148 0 -272.5 69.5t-196.5 190.5t-72 265q0 146 72 268t196.5 192t272.5 70q115 0 215.5 -42.5t175.5 -119.5q70 77 169.5 119.5t215.5 42.5q114 0 211 -42t161.5 -111.5t101 -159t36.5 -185.5v-55q0 -47 -51 -47h-684
q10 -92 76.5 -148.5t156.5 -56.5q70 0 120 23.5t93 72.5q28 28 53 11l158 -103q18 -11 19 -30.5t-11 -30.5q-149 -193 -438 -193zM1139 610h438q-19 88 -79.5 133t-137.5 45q-79 0 -138.5 -47t-82.5 -131zM340 498q0 -105 70 -178.5t172 -73.5q103 0 173 73.5t70 178.5
t-70 179.5t-173 74.5q-102 0 -172 -74.5t-70 -179.5z" />
    <glyph glyph-name="Racute" unicode="&#x154;" horiz-adv-x="1384" 
d="M723 1954h254q34 0 45 -22.5t-4 -45.5l-187 -319q-23 -33 -55 -33h-135q-65 0 -53 65l82 316q9 39 53 39zM428 782h342q94 0 154.5 54.5t60.5 140.5t-58.5 136t-152.5 50h-346v-381zM1313 0h-238q-28 0 -44 10t-34 37l-295 488h-274v-488q0 -20 -13.5 -33.5t-33.5 -13.5
h-215q-20 0 -32.5 13.5t-12.5 33.5v1342q0 19 11.5 32t33.5 13h643q224 0 361 -125t137 -314q0 -55 -14.5 -111t-45.5 -114.5t-90 -107.5t-139 -76l328 -525q15 -20 5 -40.5t-38 -20.5z" />
    <glyph glyph-name="racute" unicode="&#x155;" horiz-adv-x="704" 
d="M399 1518h254q34 0 45 -22.5t-4 -45.5l-186 -320q-22 -32 -55 -32h-136q-65 0 -53 65l82 316q9 39 53 39zM606 1012h29q49 0 49 -56v-202q0 -31 -17.5 -43.5t-35.5 -12.5h-53q-99 0 -147 -51t-48 -164v-442q0 -18 -13.5 -29.5t-31.5 -11.5h-207q-19 0 -31 12t-12 31v909
q0 19 12 32t31 13h197q17 0 30 -12t13 -29v-82q41 66 102 102t133 36z" />
    <glyph glyph-name="Rcommaaccent" unicode="&#x156;" horiz-adv-x="1384" 
d="M428 782h342q94 0 154.5 54.5t60.5 140.5t-58.5 136t-152.5 50h-346v-381zM1313 0h-238q-28 0 -44 10t-34 37l-295 488h-274v-488q0 -20 -13.5 -33.5t-33.5 -13.5h-215q-20 0 -32.5 13.5t-12.5 33.5v1342q0 19 11.5 32t33.5 13h643q224 0 361 -125t137 -314
q0 -55 -14.5 -111t-45.5 -114.5t-90 -107.5t-139 -76l328 -525q15 -20 5 -40.5t-38 -20.5zM541 -539l82 121q-45 20 -71 60.5t-26 89.5q0 74 50 125t124 51q75 0 128 -51t53 -133q0 -178 -201 -330q-59 -45 -100 -15l-27 17q-40 26 -12 65z" />
    <glyph glyph-name="rcommaaccent" unicode="&#x157;" horiz-adv-x="704" 
d="M606 1012h29q49 0 49 -56v-202q0 -31 -17.5 -43.5t-35.5 -12.5h-53q-99 0 -147 -51t-48 -164v-442q0 -18 -13.5 -29.5t-31.5 -11.5h-207q-19 0 -31 12t-12 31v909q0 19 12 32t31 13h197q17 0 30 -12t13 -29v-82q41 66 102 102t133 36zM78 -539l82 121q-45 20 -71 60.5
t-26 89.5q0 74 50 125t125 51t127.5 -51t52.5 -133q0 -178 -201 -330q-59 -45 -100 -15l-27 17q-40 26 -12 65z" />
    <glyph glyph-name="Rcaron" unicode="&#x158;" horiz-adv-x="1384" 
d="M829 1534h-256q-36 0 -63 43l-188 311q-15 29 -4 47.5t34 18.5h170q6 0 11.5 -0.5t9 -1.5t8 -3.5t7 -3.5t7 -5t6 -5.5l7.5 -7.5l8 -8l114 -160l117 160q15 20 27 27.5t35 7.5h172q21 0 33 -18.5t-3 -47.5l-190 -311q-21 -43 -62 -43zM428 782h342q94 0 154.5 54.5
t60.5 140.5t-58.5 136t-152.5 50h-346v-381zM1313 0h-238q-28 0 -44 10t-34 37l-295 488h-274v-488q0 -20 -13.5 -33.5t-33.5 -13.5h-215q-20 0 -32.5 13.5t-12.5 33.5v1342q0 19 11.5 32t33.5 13h643q224 0 361 -125t137 -314q0 -55 -14.5 -111t-45.5 -114.5t-90 -107.5
t-139 -76l328 -525q15 -20 5 -40.5t-38 -20.5z" />
    <glyph glyph-name="rcaron" unicode="&#x159;" horiz-adv-x="704" 
d="M508 1098h-256q-37 0 -64 43l-188 311q-15 29 -3.5 47.5t34.5 18.5h170q7 0 12.5 -0.5t10.5 -2.5t8 -3.5t8 -5.5t7 -6l8 -8l9 -9l115 -160l117 160q11 14 17 20t17 10.5t27 4.5h172q21 0 33.5 -18.5t-2.5 -47.5l-191 -311q-21 -43 -61 -43zM606 1012h29q49 0 49 -56v-202
q0 -31 -17.5 -43.5t-35.5 -12.5h-53q-99 0 -147 -51t-48 -164v-442q0 -18 -13.5 -29.5t-31.5 -11.5h-207q-19 0 -31 12t-12 31v909q0 19 12 32t31 13h197q17 0 30 -12t13 -29v-82q41 66 102 102t133 36z" />
    <glyph glyph-name="Sacute" unicode="&#x15a;" horiz-adv-x="1251" 
d="M649 1954h254q34 0 45 -22.5t-4 -45.5l-186 -319q-23 -33 -56 -33h-135q-65 0 -53 65l82 316q9 39 53 39zM625 1462q164 0 293 -49.5t204 -120.5q66 -59 13 -112l-101 -105q-49 -49 -116 -2q-154 119 -300 119q-96 0 -157.5 -39t-61.5 -109q0 -93 146 -135l274 -67
q188 -50 290.5 -148t102.5 -268q0 -67 -22 -132t-69.5 -123.5t-114.5 -103t-164 -70.5t-211 -26q-193 0 -336 60t-227 149q-31 31 -33.5 64t28.5 61l132 103q50 37 104 -17q155 -147 344 -147q111 0 172.5 44.5t61.5 106.5q0 65 -50 103.5t-155 64.5l-248 62
q-169 42 -261.5 143t-92.5 254q0 191 157.5 315.5t397.5 124.5z" />
    <glyph glyph-name="sacute" unicode="&#x15b;" horiz-adv-x="978" 
d="M516 1518h254q34 0 45 -22.5t-4 -45.5l-186 -320q-22 -32 -56 -32h-135q-65 0 -53 65l82 316q9 39 53 39zM487 1026q135 0 237.5 -38t160.5 -89q48 -39 4 -90l-76 -86q-37 -43 -98 -6q-123 80 -228 80q-59 0 -94 -21t-35 -53q0 -60 115 -82l158 -31q309 -60 309 -301
q0 -147 -125 -242.5t-326 -95.5q-218 0 -378 111q-123 88 -43 154l90 69q49 38 100 -6q115 -100 242 -100q65 0 101 24.5t36 59.5t-33.5 54.5t-109.5 33.5l-164 35q-127 26 -199 100t-72 194q0 139 117.5 232.5t310.5 93.5z" />
    <glyph glyph-name="Scircumflex" unicode="&#x15c;" horiz-adv-x="1251" 
d="M502 1954h256q38 0 61 -45l191 -310q15 -29 2.5 -47t-33.5 -18h-172q-23 0 -35 7.5t-27 27.5l-116 160l-115 -160q-15 -16 -20 -21t-16 -9.5t-27 -4.5h-170q-23 0 -34.5 18t3.5 47l188 310q26 45 64 45zM625 1462q164 0 293 -49.5t204 -120.5q66 -59 13 -112l-101 -105
q-49 -49 -116 -2q-154 119 -300 119q-96 0 -157.5 -39t-61.5 -109q0 -93 146 -135l274 -67q188 -50 290.5 -148t102.5 -268q0 -67 -22 -132t-69.5 -123.5t-114.5 -103t-164 -70.5t-211 -26q-193 0 -336 60t-227 149q-31 31 -33.5 64t28.5 61l132 103q50 37 104 -17
q155 -147 344 -147q111 0 172.5 44.5t61.5 106.5q0 65 -50 103.5t-155 64.5l-248 62q-169 42 -261.5 143t-92.5 254q0 191 157.5 315.5t397.5 124.5z" />
    <glyph glyph-name="scircumflex" unicode="&#x15d;" horiz-adv-x="978" 
d="M367 1518h256q38 0 61 -45l190 -310q15 -29 3 -47t-33 -18h-172q-23 0 -35 7.5t-27 27.5l-116 159l-115 -159q-14 -16 -20 -21t-17 -9.5t-27 -4.5h-170q-23 0 -34 18t4 47l188 310q26 45 64 45zM487 1026q135 0 237.5 -38t160.5 -89q48 -39 4 -90l-76 -86q-37 -43 -98 -6
q-123 80 -228 80q-59 0 -94 -21t-35 -53q0 -60 115 -82l158 -31q309 -60 309 -301q0 -147 -125 -242.5t-326 -95.5q-218 0 -378 111q-123 88 -43 154l90 69q49 38 100 -6q115 -100 242 -100q65 0 101 24.5t36 59.5t-33.5 54.5t-109.5 33.5l-164 35q-127 26 -199 100t-72 194
q0 139 117.5 232.5t310.5 93.5z" />
    <glyph glyph-name="Scedilla" unicode="&#x15e;" horiz-adv-x="1251" 
d="M571 -334h-159q-26 0 -37.5 16t-1.5 42l86 262q-252 44 -391 194q-31 31 -33.5 64t28.5 61l132 103q50 37 104 -17q155 -147 344 -147q111 0 172.5 44.5t61.5 106.5q0 65 -50 103.5t-155 64.5l-248 62q-169 42 -261.5 143t-92.5 254q0 191 157.5 315.5t397.5 124.5
q164 0 293 -49.5t204 -120.5q66 -59 13 -112l-101 -105q-49 -49 -116 -2q-154 119 -300 119q-96 0 -157.5 -39t-61.5 -109q0 -93 146 -135l274 -67q188 -50 290.5 -148t102.5 -268q0 -75 -27.5 -146t-80.5 -131.5t-138.5 -104.5t-193.5 -62l-143 -287q-16 -29 -58 -29z" />
    <glyph glyph-name="scedilla" unicode="&#x15f;" horiz-adv-x="978" 
d="M461 -334h-160q-26 0 -37.5 16t-1.5 42l86 260q-148 34 -237 98q-123 88 -43 154l90 69q49 38 100 -6q115 -100 242 -100q65 0 101 24.5t36 59.5t-33.5 54.5t-109.5 33.5l-164 35q-127 26 -199 100t-72 194q0 139 117.5 232.5t310.5 93.5q135 0 237.5 -38t160.5 -89
q48 -39 4 -90l-76 -86q-37 -43 -98 -6q-123 80 -228 80q-59 0 -94 -21t-35 -53q0 -60 115 -82l158 -31q309 -60 309 -301q0 -111 -72 -194.5t-200 -118.5l-150 -301q-16 -29 -57 -29z" />
    <glyph glyph-name="Scaron" unicode="&#x160;" horiz-adv-x="1251" 
d="M758 1534h-256q-37 0 -64 43l-188 311q-15 29 -3.5 47.5t34.5 18.5h170q7 0 12.5 -0.5t10.5 -2.5t8 -3.5t8 -5.5t7 -6l8 -8l9 -9l115 -160l116 160q15 20 27 27.5t35 7.5h172q21 0 33.5 -18.5t-2.5 -47.5l-191 -311q-21 -43 -61 -43zM625 1462q164 0 293 -49.5
t204 -120.5q66 -59 13 -112l-101 -105q-49 -49 -116 -2q-154 119 -300 119q-96 0 -157.5 -39t-61.5 -109q0 -93 146 -135l274 -67q188 -50 290.5 -148t102.5 -268q0 -67 -22 -132t-69.5 -123.5t-114.5 -103t-164 -70.5t-211 -26q-193 0 -336 60t-227 149q-31 31 -33.5 64
t28.5 61l132 103q50 37 104 -17q155 -147 344 -147q111 0 172.5 44.5t61.5 106.5q0 65 -50 103.5t-155 64.5l-248 62q-169 42 -261.5 143t-92.5 254q0 191 157.5 315.5t397.5 124.5z" />
    <glyph glyph-name="scaron" unicode="&#x161;" horiz-adv-x="978" 
d="M623 1098h-256q-37 0 -64 43l-188 311q-15 29 -4 47.5t34 18.5h170q6 0 11.5 -0.5t9 -1.5t8 -3.5t7 -3.5t7 -5t6 -5.5l7.5 -7.5l8 -8l115 -160l116 160q15 20 27 27.5t35 7.5h172q21 0 33 -18.5t-3 -47.5l-190 -311q-21 -43 -61 -43zM487 1026q135 0 237.5 -38t160.5 -89
q48 -39 4 -90l-76 -86q-37 -43 -98 -6q-123 80 -228 80q-59 0 -94 -21t-35 -53q0 -60 115 -82l158 -31q309 -60 309 -301q0 -147 -125 -242.5t-326 -95.5q-218 0 -378 111q-123 88 -43 154l90 69q49 38 100 -6q115 -100 242 -100q65 0 101 24.5t36 59.5t-33.5 54.5
t-109.5 33.5l-164 35q-127 26 -199 100t-72 194q0 139 117.5 232.5t310.5 93.5z" />
    <glyph glyph-name="Tcommaaccent" unicode="&#x162;" horiz-adv-x="1269" 
d="M23 1198v188q0 20 13 34t32 14h1134q19 0 32 -14t13 -34v-188q0 -20 -13 -33.5t-32 -13.5h-409v-1104q0 -20 -14 -33.5t-34 -13.5h-223q-20 0 -32.5 13.5t-12.5 33.5v1104h-409q-19 0 -32 13.5t-13 33.5zM471 -539l82 121q-44 20 -70 60.5t-26 89.5q0 74 50 125t124 51
q75 0 127.5 -51t52.5 -133q0 -178 -201 -330q-59 -45 -100 -15l-27 17q-40 26 -12 65z" />
    <glyph glyph-name="tcommaaccent" unicode="&#x163;" horiz-adv-x="839" 
d="M184 297v453h-131q-18 0 -30.5 13.5t-12.5 31.5v157q0 19 12 32t31 13h131v265q0 20 13 32.5t32 12.5h209q18 0 30.5 -12.5t12.5 -32.5v-265h281q19 0 33 -13t14 -32v-157q0 -17 -14 -31t-33 -14h-281v-383q0 -65 30.5 -90t70.5 -25q46 0 90 29q24 18 47.5 16t36.5 -25
l71 -114q24 -40 -6 -74q-50 -53 -127.5 -80t-167.5 -27q-67 0 -126.5 18.5t-108.5 55.5t-78 100.5t-29 145.5zM256 -539l82 121q-44 20 -70 60.5t-26 89.5q0 74 50 125t124 51q75 0 127.5 -51t52.5 -133q0 -178 -201 -330q-59 -45 -100 -15l-27 17q-40 26 -12 65z" />
    <glyph glyph-name="Tcaron" unicode="&#x164;" horiz-adv-x="1269" 
d="M764 1534h-256q-37 0 -64 43l-188 311q-15 29 -3.5 47.5t34.5 18.5h170q7 0 12.5 -0.5t10.5 -2.5t8 -3.5t8 -5.5t7 -6l8 -8l9 -9l115 -160l117 160q11 14 17 20t17 10.5t27 4.5h172q21 0 33.5 -18.5t-2.5 -47.5l-191 -311q-21 -43 -61 -43zM23 1198v188q0 20 13 34t32 14
h1134q19 0 32 -14t13 -34v-188q0 -20 -13 -33.5t-32 -13.5h-409v-1104q0 -20 -14 -33.5t-34 -13.5h-223q-20 0 -32.5 13.5t-12.5 33.5v1104h-409q-19 0 -32 13.5t-13 33.5z" />
    <glyph glyph-name="tcaron" unicode="&#x165;" horiz-adv-x="839" 
d="M584 1280l86 121q-46 24 -73.5 64.5t-27.5 88.5q0 73 51 124t125 51q75 0 127 -51.5t52 -135.5q0 -53 -19.5 -104.5t-52 -93t-63.5 -71.5t-66 -56q-58 -44 -100 -15l-23 15q-41 31 -16 63zM184 297v453h-131q-18 0 -30.5 13.5t-12.5 31.5v157q0 19 12 32t31 13h131v265
q0 20 13 32.5t32 12.5h209q18 0 30.5 -12.5t12.5 -32.5v-265h281q19 0 33 -13t14 -32v-157q0 -17 -14 -31t-33 -14h-281v-383q0 -65 30.5 -90t70.5 -25q46 0 90 29q24 18 47.5 16t36.5 -25l71 -114q24 -40 -6 -74q-50 -53 -127.5 -80t-167.5 -27q-67 0 -126.5 18.5
t-108.5 55.5t-78 100.5t-29 145.5z" />
    <glyph glyph-name="Tbar" unicode="&#x166;" horiz-adv-x="1286" 
d="M801 561v-514q0 -20 -13.5 -33.5t-33.5 -13.5h-224q-20 0 -32.5 13.5t-12.5 33.5v514h-200q-20 0 -33.5 13.5t-13.5 33.5v142q0 19 13.5 32t33.5 13h200v356h-409q-19 0 -32 13.5t-13 33.5v188q0 20 13 34t32 14h1134q19 0 32 -14t13 -34v-188q0 -20 -13 -33.5t-32 -13.5
h-409v-356h203q20 0 33.5 -13t13.5 -32v-142q0 -20 -13.5 -33.5t-33.5 -13.5h-203z" />
    <glyph glyph-name="tbar" unicode="&#x167;" horiz-adv-x="849" 
d="M827 84q-50 -53 -127.5 -80t-167.5 -27q-67 0 -126.5 18.5t-108.5 55.5t-78 100.5t-29 145.5v166h-127q-20 0 -33.5 13.5t-13.5 33.5v80q0 19 13.5 33t33.5 14h127v113h-131q-18 0 -30.5 13.5t-12.5 31.5v157q0 19 12 32t31 13h131v265q0 20 13.5 32.5t32.5 12.5h208
q18 0 30.5 -12.5t12.5 -32.5v-265h281q19 0 33 -13t14 -32v-157q0 -17 -14 -31t-33 -14h-281v-113h279q20 0 34.5 -14t14.5 -33v-80q0 -20 -14.5 -33.5t-34.5 -13.5h-279v-96q0 -65 30.5 -90t70.5 -25q46 0 90 29q24 18 47.5 16t36.5 -25l72 -114q23 -39 -7 -74z" />
    <glyph glyph-name="Utilde" unicode="&#x168;" horiz-adv-x="1417" 
d="M887 1561q-57 0 -178 31.5t-146 31.5q-35 0 -61.5 -16.5t-45.5 -32.5t-36 -16q-23 0 -43 26l-62 92q-18 23 -18 58q0 49 69 105t160 56q52 0 173.5 -32.5t150.5 -32.5q35 0 62.5 16.5t47.5 33.5t37 17q18 0 43 -28l58 -92q18 -27 18 -58q0 -48 -69.5 -103.5t-159.5 -55.5
zM1311 1389v-873q0 -111 -33.5 -203t-90.5 -154.5t-134.5 -105.5t-163.5 -62.5t-180 -19.5t-180 19.5t-164 62.5t-135 105.5t-90.5 154.5t-33.5 203v873q0 19 13 32t33 13h215q19 0 33 -13t14 -32v-850q0 -134 77.5 -210.5t217.5 -76.5t217.5 76.5t77.5 210.5v850
q0 19 13.5 32t33.5 13h215q19 0 32 -13t13 -32z" />
    <glyph glyph-name="utilde" unicode="&#x169;" horiz-adv-x="1165" 
d="M748 1124q-57 0 -178 32t-146 32q-35 0 -61.5 -16.5t-45.5 -33t-36 -16.5q-22 0 -43 27l-62 92q-18 23 -18 57q0 49 69 105.5t160 56.5q52 0 173.5 -32.5t150.5 -32.5q35 0 62.5 16.5t47.5 33.5t37 17q18 0 43 -28l57 -93q19 -29 19 -57q0 -48 -69.5 -104t-159.5 -56z
M373 956v-514q0 -102 50.5 -161.5t151.5 -59.5q98 0 152.5 59t54.5 158v518q0 17 13 29t30 12h207q20 0 32.5 -13t12.5 -32v-909q0 -19 -12.5 -31t-32.5 -12h-207q-18 0 -30.5 11.5t-12.5 29.5v63q-53 -64 -121.5 -98.5t-177.5 -34.5q-188 0 -296.5 115.5t-108.5 306.5v563
q0 17 13.5 29t31.5 12h205q19 0 32 -12t13 -29z" />
    <glyph glyph-name="Umacron" unicode="&#x16a;" horiz-adv-x="1417" 
d="M1030 1569h-645q-19 0 -32 13.5t-13 33.5v156q0 19 13 32t32 13h645q20 0 33.5 -13t13.5 -32v-156q0 -20 -13.5 -33.5t-33.5 -13.5zM1311 1389v-873q0 -111 -33.5 -203t-90.5 -154.5t-134.5 -105.5t-163.5 -62.5t-180 -19.5t-180 19.5t-164 62.5t-135 105.5t-90.5 154.5
t-33.5 203v873q0 19 13 32t33 13h215q19 0 33 -13t14 -32v-850q0 -134 77.5 -210.5t217.5 -76.5t217.5 76.5t77.5 210.5v850q0 19 13.5 32t33.5 13h215q19 0 32 -13t13 -32z" />
    <glyph glyph-name="umacron" unicode="&#x16b;" horiz-adv-x="1165" 
d="M891 1133h-645q-19 0 -32 13.5t-13 33.5v155q0 19 13 32t32 13h645q20 0 33.5 -13t13.5 -32v-155q0 -20 -13.5 -33.5t-33.5 -13.5zM373 956v-514q0 -102 50.5 -161.5t151.5 -59.5q98 0 152.5 59t54.5 158v518q0 17 13 29t30 12h207q20 0 32.5 -13t12.5 -32v-909
q0 -19 -12.5 -31t-32.5 -12h-207q-18 0 -30.5 11.5t-12.5 29.5v63q-53 -64 -121.5 -98.5t-177.5 -34.5q-188 0 -296.5 115.5t-108.5 306.5v563q0 17 13.5 29t31.5 12h205q19 0 32 -12t13 -29z" />
    <glyph glyph-name="Ubreve" unicode="&#x16c;" horiz-adv-x="1417" 
d="M707 1524q-176 0 -270.5 89t-94.5 240v43q0 17 10.5 27t24.5 10h178q14 0 24.5 -10t10.5 -27v-22q0 -54 32.5 -84.5t84.5 -30.5t85 30.5t33 84.5v22q0 17 10.5 27t24.5 10h176q37 0 37 -37v-43q0 -151 -95 -240t-271 -89zM1311 1389v-873q0 -111 -33.5 -203t-90.5 -154.5
t-134.5 -105.5t-163.5 -62.5t-180 -19.5t-180 19.5t-164 62.5t-135 105.5t-90.5 154.5t-33.5 203v873q0 19 13 32t33 13h215q19 0 33 -13t14 -32v-850q0 -134 77.5 -210.5t217.5 -76.5t217.5 76.5t77.5 210.5v850q0 19 13.5 32t33.5 13h215q19 0 32 -13t13 -32z" />
    <glyph glyph-name="ubreve" unicode="&#x16d;" horiz-adv-x="1165" 
d="M567 1087q-176 0 -270 89t-94 241v43q0 17 10.5 27t24.5 10h178q14 0 24.5 -10t10.5 -27v-22q0 -54 32 -84.5t84 -30.5q53 0 86 30.5t33 84.5v22q0 17 10.5 27t24.5 10h176q37 0 37 -37v-43q0 -151 -95.5 -240.5t-271.5 -89.5zM373 956v-514q0 -102 50.5 -161.5
t151.5 -59.5q98 0 152.5 59t54.5 158v518q0 17 13 29t30 12h207q20 0 32.5 -13t12.5 -32v-909q0 -19 -12.5 -31t-32.5 -12h-207q-18 0 -30.5 11.5t-12.5 29.5v63q-53 -64 -121.5 -98.5t-177.5 -34.5q-188 0 -296.5 115.5t-108.5 306.5v563q0 17 13.5 29t31.5 12h205
q19 0 32 -12t13 -29z" />
    <glyph glyph-name="Uring" unicode="&#x16e;" horiz-adv-x="1417" 
d="M1026 1825q0 -128 -91.5 -213.5t-225.5 -85.5q-135 0 -225.5 85t-90.5 214t90.5 215t225.5 86q134 0 225.5 -86.5t91.5 -214.5zM831 1825q0 55 -34 92t-88 37q-55 0 -89 -37t-34 -92t34 -91t89 -36t88.5 36t33.5 91zM1311 1389v-873q0 -111 -33.5 -203t-90.5 -154.5
t-134.5 -105.5t-163.5 -62.5t-180 -19.5t-180 19.5t-164 62.5t-135 105.5t-90.5 154.5t-33.5 203v873q0 19 13 32t33 13h215q19 0 33 -13t14 -32v-850q0 -134 77.5 -210.5t217.5 -76.5t217.5 76.5t77.5 210.5v850q0 19 13.5 32t33.5 13h215q19 0 32 -13t13 -32z" />
    <glyph glyph-name="uring" unicode="&#x16f;" horiz-adv-x="1165" 
d="M885 1386q0 -128 -92 -213.5t-226 -85.5q-135 0 -225 85t-90 214t90 215.5t225 86.5q134 0 226 -87t92 -215zM690 1386q0 55 -34.5 92.5t-88.5 37.5t-88.5 -37.5t-34.5 -92.5t34 -90.5t89 -35.5t89 35.5t34 90.5zM373 956v-514q0 -102 50.5 -161.5t151.5 -59.5
q98 0 152.5 59t54.5 158v518q0 17 13 29t30 12h207q20 0 32.5 -13t12.5 -32v-909q0 -19 -12.5 -31t-32.5 -12h-207q-18 0 -30.5 11.5t-12.5 29.5v63q-53 -64 -121.5 -98.5t-177.5 -34.5q-188 0 -296.5 115.5t-108.5 306.5v563q0 17 13.5 29t31.5 12h205q19 0 32 -12t13 -29z
" />
    <glyph glyph-name="Uhungarumlaut" unicode="&#x170;" horiz-adv-x="1417" 
d="M504 1954h254q33 0 45 -22.5t-2 -45.5l-189 -319q-20 -33 -53 -33h-135q-68 0 -53 65l80 316q9 39 53 39zM948 1954h254q31 0 43.5 -22.5t-2.5 -45.5l-188 -319q-20 -33 -54 -33h-135q-31 0 -45.5 17.5t-7.5 47.5l82 316q9 39 53 39zM1311 1389v-873q0 -111 -33.5 -203
t-90.5 -154.5t-134.5 -105.5t-163.5 -62.5t-180 -19.5t-180 19.5t-164 62.5t-135 105.5t-90.5 154.5t-33.5 203v873q0 19 13 32t33 13h215q19 0 33 -13t14 -32v-850q0 -134 77.5 -210.5t217.5 -76.5t217.5 76.5t77.5 210.5v850q0 19 13.5 32t33.5 13h215q19 0 32 -13t13 -32
z" />
    <glyph glyph-name="uhungarumlaut" unicode="&#x171;" horiz-adv-x="1165" 
d="M365 1518h253q33 0 45.5 -22.5t-1.5 -45.5l-189 -320q-19 -32 -53 -32h-135q-69 0 -54 65l80 316q9 39 54 39zM809 1518h254q31 0 43.5 -22.5t-2.5 -45.5l-189 -320q-19 -32 -53 -32h-135q-31 0 -45.5 17.5t-7.5 47.5l82 316q9 39 53 39zM373 956v-514
q0 -102 50.5 -161.5t151.5 -59.5q98 0 152.5 59t54.5 158v518q0 17 13 29t30 12h207q20 0 32.5 -13t12.5 -32v-909q0 -19 -12.5 -31t-32.5 -12h-207q-18 0 -30.5 11.5t-12.5 29.5v63q-53 -64 -121.5 -98.5t-177.5 -34.5q-188 0 -296.5 115.5t-108.5 306.5v563q0 17 13.5 29
t31.5 12h205q19 0 32 -12t13 -29z" />
    <glyph glyph-name="Uogonek" unicode="&#x172;" horiz-adv-x="1417" 
d="M883 -442q-121 0 -193 51t-72 147q0 108 107 215h-16q-94 0 -180 19.5t-164 62.5t-135 105.5t-90.5 154.5t-33.5 203v873q0 19 13 32t33 13h215q19 0 33 -13t14 -32v-850q0 -134 77.5 -210.5t217.5 -76.5t217.5 76.5t77.5 210.5v850q0 19 13.5 32t33.5 13h215
q19 0 32 -13t13 -32v-873q0 -191 -90.5 -316t-243.5 -182q-90 -131 -90 -184q0 -76 90 -76q17 0 40.5 2t29.5 2q19 2 28.5 -10t5.5 -41l-8 -80q-11 -73 -190 -73z" />
    <glyph glyph-name="uogonek" unicode="&#x173;" horiz-adv-x="1165" 
d="M1102 -346l-8 -80q-11 -74 -191 -74q-120 0 -192 51.5t-72 147.5q0 148 211 301h-25q-18 0 -30.5 11.5t-12.5 29.5v63q-53 -64 -121.5 -98.5t-177.5 -34.5q-188 0 -296.5 115.5t-108.5 306.5v563q0 17 13.5 29t31.5 12h205q19 0 32 -12t13 -29v-514q0 -102 50.5 -161.5
t151.5 -59.5q98 0 152.5 59t54.5 158v518q0 17 13 29t30 12h207q20 0 32.5 -13t12.5 -32v-909q0 -19 -12.5 -31t-32.5 -12h-8q-117 -165 -117 -223q0 -76 90 -76q17 0 40.5 2t29.5 2q19 2 29 -10t6 -41z" />
    <glyph glyph-name="Wcircumflex" unicode="&#x174;" horiz-adv-x="2058" 
d="M909 1954h256q39 0 62 -45l190 -310q15 -29 2.5 -47t-33.5 -18h-172q-23 0 -34.5 7.5t-26.5 27.5l-117 160l-114 -160q-14 -16 -20 -21t-17 -9.5t-27 -4.5h-170q-23 0 -34.5 18t3.5 47l189 310q26 45 63 45zM2032 1362l-328 -1317q-5 -21 -25.5 -33t-31.5 -12h-326
q-46 0 -57 45l-226 913l-227 -913q-5 -22 -22.5 -33.5t-34.5 -11.5h-342q-47 0 -58 45l-329 1317q-7 34 8 53t41 19h243q18 0 30.5 -13t17.5 -32l229 -1020l254 1024q7 22 16.5 31.5t32.5 9.5h279q38 0 49 -41l254 -1016l229 1012q12 45 47 45h230q65 0 47 -72z" />
    <glyph glyph-name="wcircumflex" unicode="&#x175;" horiz-adv-x="1605" 
d="M684 1518h256q38 0 61 -45l191 -310q15 -29 2.5 -47t-33.5 -18h-172q-23 0 -34.5 7.5t-26.5 27.5l-117 159l-115 -159q-15 -16 -20 -21t-16 -9.5t-27 -4.5h-170q-23 0 -34.5 18t3.5 47l189 310q26 45 63 45zM803 604l-154 -559q-11 -45 -55 -45h-244q-41 0 -55 45
l-285 887q-10 30 1.5 47.5t41.5 17.5h219q42 0 54 -45l155 -596l166 598q12 43 55 43h218q43 0 55 -43l166 -598l162 596q12 45 53 45h194q27 0 39 -17.5t2 -47.5l-282 -887q-14 -45 -58 -45h-239q-22 0 -37.5 12.5t-20.5 32.5z" />
    <glyph glyph-name="Ycircumflex" unicode="&#x176;" horiz-adv-x="1335" 
d="M539 1954h256q38 0 61 -45l191 -310q15 -29 2.5 -47t-33.5 -18h-172q-23 0 -35 7.5t-27 27.5l-116 160l-115 -160q-14 -16 -20 -21t-17 -9.5t-27 -4.5h-170q-23 0 -34 18t4 47l188 310q26 45 64 45zM514 47v494l-496 823q-16 25 -5.5 47.5t36.5 22.5h268q38 0 56 -35
l299 -514h4l297 514q18 35 53 35h258q26 0 37.5 -20.5t-4.5 -49.5l-496 -823v-494q0 -20 -13.5 -33.5t-31.5 -13.5h-217q-19 0 -32 13.5t-13 33.5z" />
    <glyph glyph-name="ycircumflex" unicode="&#x177;" horiz-adv-x="1077" 
d="M412 1518h256q38 0 61 -45l191 -310q15 -29 2.5 -47t-33.5 -18h-172q-23 0 -35 7.5t-27 27.5l-116 159l-115 -159q-14 -16 -20 -21t-17 -9.5t-27 -4.5h-170q-23 0 -34 18t4 47l188 310q26 45 64 45zM322 -475q-191 0 -304 104q-35 30 -4 78l74 107q32 50 90 12
q62 -47 123 -47q88 0 125 94l45 127h-104q-42 0 -56 43l-293 885q-8 30 2.5 49.5t45.5 19.5h239q36 0 47 -47l199 -680l184 680q11 47 56 47h231q30 0 40 -19t-1 -50l-340 -1096q-46 -145 -147 -226t-252 -81z" />
    <glyph glyph-name="Ydieresis" unicode="&#x178;" horiz-adv-x="1335" 
d="M262 1708q0 75 54 128.5t128 53.5q75 0 129 -53.5t54 -128.5t-54 -128.5t-129 -53.5q-74 0 -128 53.5t-54 128.5zM707 1708q0 75 54 128.5t128 53.5q75 0 128.5 -53.5t53.5 -128.5t-53.5 -128.5t-128.5 -53.5q-74 0 -128 53.5t-54 128.5zM514 47v494l-496 823
q-16 25 -5.5 47.5t36.5 22.5h268q38 0 56 -35l299 -514h4l297 514q18 35 53 35h258q26 0 37.5 -20.5t-4.5 -49.5l-496 -823v-494q0 -20 -13.5 -33.5t-31.5 -13.5h-217q-19 0 -32 13.5t-13 33.5z" />
    <glyph glyph-name="Zacute" unicode="&#x179;" horiz-adv-x="1255" 
d="M647 1954h254q34 0 45 -22.5t-4 -45.5l-186 -319q-23 -33 -56 -33h-135q-65 0 -53 65l82 316q9 39 53 39zM1176 0h-1096q-20 0 -33.5 13.5t-13.5 33.5v141q0 34 28 66l709 907h-647q-20 0 -33.5 13.5t-13.5 31.5v180q0 19 13.5 33.5t33.5 14.5h1003q18 0 31.5 -14.5
t13.5 -33.5v-167q0 -35 -20 -58l-686 -889h711q19 0 32 -13t13 -32v-180q0 -20 -13 -33.5t-32 -13.5z" />
    <glyph glyph-name="zacute" unicode="&#x17a;" horiz-adv-x="974" 
d="M510 1518h254q34 0 45 -22.5t-4 -45.5l-187 -320q-22 -32 -55 -32h-135q-65 0 -53 65l82 316q9 39 53 39zM889 758l-451 -504h453q18 0 30.5 -12.5t12.5 -32.5v-166q0 -18 -12.5 -30.5t-30.5 -12.5h-805q-19 0 -32 13t-13 32v139q0 32 20 52l457 507h-412q-19 0 -32 13
t-13 32v162q0 19 13 33t32 14h760q17 0 31 -14t14 -33v-137q0 -33 -22 -55z" />
    <glyph glyph-name="Zdotaccent" unicode="&#x17b;" horiz-adv-x="1255" 
d="M625 1540q-80 0 -140.5 59.5t-60.5 141.5t60 140t141 58q85 0 141.5 -56.5t56.5 -141.5t-57 -143t-141 -58zM1176 0h-1096q-20 0 -33.5 13.5t-13.5 33.5v141q0 34 28 66l709 907h-647q-20 0 -33.5 13.5t-13.5 31.5v180q0 19 13.5 33.5t33.5 14.5h1003q18 0 31.5 -14.5
t13.5 -33.5v-167q0 -35 -20 -58l-686 -889h711q19 0 32 -13t13 -32v-180q0 -20 -13 -33.5t-32 -13.5z" />
    <glyph glyph-name="zdotaccent" unicode="&#x17c;" horiz-adv-x="974" 
d="M510 1096q-80 0 -140.5 59t-60.5 141t60 140.5t141 58.5q85 0 142 -57t57 -142t-57 -142.5t-142 -57.5zM889 758l-451 -504h453q18 0 30.5 -12.5t12.5 -32.5v-166q0 -18 -12.5 -30.5t-30.5 -12.5h-805q-19 0 -32 13t-13 32v139q0 32 20 52l457 507h-412q-19 0 -32 13
t-13 32v162q0 19 13 33t32 14h760q17 0 31 -14t14 -33v-137q0 -33 -22 -55z" />
    <glyph glyph-name="Zcaron" unicode="&#x17d;" horiz-adv-x="1255" 
d="M754 1534h-256q-37 0 -64 43l-188 311q-15 29 -4 47.5t34 18.5h170q6 0 11.5 -0.5t9 -1.5t8 -3.5t7 -3.5t7 -5t6 -5.5l7.5 -7.5l8 -8l115 -160l116 160q15 20 27 27.5t35 7.5h172q21 0 33.5 -18.5t-2.5 -47.5l-191 -311q-21 -43 -61 -43zM1176 0h-1096q-20 0 -33.5 13.5
t-13.5 33.5v141q0 34 28 66l709 907h-647q-20 0 -33.5 13.5t-13.5 31.5v180q0 19 13.5 33.5t33.5 14.5h1003q18 0 31.5 -14.5t13.5 -33.5v-167q0 -35 -20 -58l-686 -889h711q19 0 32 -13t13 -32v-180q0 -20 -13 -33.5t-32 -13.5z" />
    <glyph glyph-name="zcaron" unicode="&#x17e;" horiz-adv-x="974" 
d="M616 1098h-256q-36 0 -63 43l-188 311q-15 29 -4 47.5t34 18.5h170q6 0 11.5 -0.5t9 -1.5t8 -3.5t7 -3.5t7 -5t6 -5.5l7.5 -7.5l8 -8l114 -160l117 160q15 20 27 27.5t35 7.5h172q21 0 33 -18.5t-3 -47.5l-190 -311q-21 -43 -62 -43zM889 758l-451 -504h453
q18 0 30.5 -12.5t12.5 -32.5v-166q0 -18 -12.5 -30.5t-30.5 -12.5h-805q-19 0 -32 13t-13 32v139q0 32 20 52l457 507h-412q-19 0 -32 13t-13 32v162q0 19 13 33t32 14h760q17 0 31 -14t14 -33v-137q0 -33 -22 -55z" />
    <glyph glyph-name="longs" unicode="&#x17f;" horiz-adv-x="600" 
d="M492 1108v-1063q0 -19 -12 -32t-31 -13h-207q-19 0 -32 13t-13 32v705h-131q-18 0 -32 14t-14 31v157q0 19 13.5 32t32.5 13h131v140q0 91 31 161.5t83.5 112.5t116 63t133.5 21q76 0 156.5 -26.5t132.5 -73.5q34 -30 4 -76l-86 -123q-27 -40 -86 -4q-46 33 -90 33
q-42 0 -71 -29.5t-29 -87.5z" />
    <glyph glyph-name="florin" unicode="&#x192;" horiz-adv-x="1001" 
d="M307 735v402q0 91 31.5 161.5t84 112.5t116 63t133.5 21q76 0 156.5 -26.5t132.5 -73.5q18 -14 19.5 -34.5t-15.5 -41.5l-86 -123q-27 -40 -86 -4q-46 33 -91 33q-42 0 -71 -29.5t-29 -87.5v-373h191q19 0 32 -12t13 -31v-157q0 -18 -13.5 -32t-31.5 -14h-191v-593
q0 -73 -20.5 -133.5t-55.5 -102t-82 -69.5t-99 -41t-107 -13q-76 0 -156.5 27t-132.5 74q-31 31 -4 75l86 123q14 18 31.5 20.5t26 -1.5t26.5 -15q51 -33 92 -33q42 0 71 29t29 88v565h-162q-18 0 -31.5 14t-13.5 32v157q0 19 13 31t32 12h162z" />
    <glyph glyph-name="Scommaaccent" unicode="&#x218;" horiz-adv-x="1251" 
d="M625 1462q164 0 293 -49.5t204 -120.5q66 -59 13 -112l-101 -105q-49 -49 -116 -2q-154 119 -300 119q-96 0 -157.5 -39t-61.5 -109q0 -93 146 -135l274 -67q188 -50 290.5 -148t102.5 -268q0 -67 -22 -132t-69.5 -123.5t-114.5 -103t-164 -70.5t-211 -26q-193 0 -336 60
t-227 149q-31 31 -33.5 64t28.5 61l132 103q50 37 104 -17q155 -147 344 -147q111 0 172.5 44.5t61.5 106.5q0 65 -50 103.5t-155 64.5l-248 62q-169 42 -261.5 143t-92.5 254q0 191 157.5 315.5t397.5 124.5zM446 -539l82 121q-44 20 -70 60.5t-26 89.5q0 74 50 125t124 51
q75 0 127.5 -51t52.5 -133q0 -179 -200 -330q-60 -45 -101 -15l-26 17q-40 27 -13 65z" />
    <glyph glyph-name="scommaaccent" unicode="&#x219;" horiz-adv-x="978" 
d="M487 1026q135 0 237.5 -38t160.5 -89q48 -39 4 -90l-76 -86q-37 -43 -98 -6q-123 80 -228 80q-59 0 -94 -21t-35 -53q0 -60 115 -82l158 -31q309 -60 309 -301q0 -147 -125 -242.5t-326 -95.5q-218 0 -378 111q-123 88 -43 154l90 69q49 38 100 -6q115 -100 242 -100
q65 0 101 24.5t36 59.5t-33.5 54.5t-109.5 33.5l-164 35q-127 26 -199 100t-72 194q0 139 117.5 232.5t310.5 93.5zM336 -539l82 121q-44 20 -70 60.5t-26 89.5q0 74 50 125t124 51q75 0 127.5 -51t52.5 -133q0 -178 -201 -330q-59 -45 -100 -15l-27 17q-40 26 -12 65z" />
    <glyph glyph-name="uni021A" unicode="&#x21a;" horiz-adv-x="1269" 
d="M23 1198v188q0 20 13 34t32 14h1134q19 0 32 -14t13 -34v-188q0 -20 -13 -33.5t-32 -13.5h-409v-1104q0 -20 -14 -33.5t-34 -13.5h-223q-20 0 -32.5 13.5t-12.5 33.5v1104h-409q-19 0 -32 13.5t-13 33.5zM475 -539l82 121q-44 20 -70 60.5t-26 89.5q0 74 50 125t124 51
q75 0 127.5 -51t52.5 -133q0 -178 -201 -330q-59 -45 -100 -15l-27 17q-40 26 -12 65z" />
    <glyph glyph-name="uni021B" unicode="&#x21b;" horiz-adv-x="839" 
d="M184 297v453h-131q-18 0 -30.5 13.5t-12.5 31.5v157q0 19 12 32t31 13h131v265q0 20 13 32.5t32 12.5h209q18 0 30.5 -12.5t12.5 -32.5v-265h281q19 0 33 -13t14 -32v-157q0 -17 -14 -31t-33 -14h-281v-383q0 -65 30.5 -90t70.5 -25q46 0 90 29q24 18 47.5 16t36.5 -25
l71 -114q24 -40 -6 -74q-50 -53 -127.5 -80t-167.5 -27q-67 0 -126.5 18.5t-108.5 55.5t-78 100.5t-29 145.5zM256 -539l82 121q-44 20 -70 60.5t-26 89.5q0 74 50 125t124 51q75 0 127.5 -51t52.5 -133q0 -178 -201 -330q-59 -45 -100 -15l-27 17q-40 26 -12 65z" />
    <glyph glyph-name="dotlessj" unicode="&#x237;" horiz-adv-x="471" 
d="M133 997h205q20 0 32.5 -14t12.5 -33v-1048q0 -98 -31.5 -173t-85 -118t-117 -64.5t-133.5 -21.5q-83 0 -160.5 24t-123.5 74q-32 32 -4 76l84 113q33 43 82 12q47 -31 94 -31q39 0 69.5 27.5t30.5 89.5v1040q0 19 12.5 33t32.5 14z" />
    <glyph glyph-name="apostrophe" unicode="&#x2bc;" horiz-adv-x="546" 
d="M82 895l121 184q-52 25 -82.5 72.5t-30.5 103.5q0 86 58.5 144.5t144.5 58.5q88 0 148.5 -59.5t60.5 -155.5q0 -63 -27 -130.5t-69 -123.5t-83 -98t-79 -72q-63 -50 -117 -18l-31 20q-45 31 -14 74z" />
    <glyph glyph-name="circumflex" unicode="&#x2c6;" horiz-adv-x="892" 
d="M319 1518h256q39 0 62 -45l190 -310q15 -29 3 -47t-33 -18h-172q-23 0 -35 7.5t-27 27.5l-117 159l-114 -159q-14 -16 -20 -21t-17 -9.5t-27 -4.5h-170q-23 0 -34 18t4 47l188 310q26 45 63 45z" />
    <glyph glyph-name="caron" unicode="&#x2c7;" horiz-adv-x="892" 
d="M575 1098h-256q-36 0 -63 43l-188 311q-15 29 -4 47.5t34 18.5h170q6 0 11.5 -0.5t9 -1.5t8 -3.5t7 -3.5t7 -5t6 -5.5l7.5 -7.5l8 -8l114 -160l117 160q15 20 27 27.5t35 7.5h172q21 0 33 -18.5t-3 -47.5l-190 -311q-21 -43 -62 -43z" />
    <glyph glyph-name="breve" unicode="&#x2d8;" horiz-adv-x="835" 
d="M418 1087q-176 0 -270.5 89.5t-94.5 240.5v43q0 17 10.5 27t24.5 10h178q14 0 24.5 -10t10.5 -27v-22q0 -54 32.5 -84.5t84.5 -30.5q53 0 86 30.5t33 84.5v22q0 17 10 27t24 10h177q36 0 36 -37v-43q0 -151 -95 -240.5t-271 -89.5z" />
    <glyph glyph-name="dotaccent" unicode="&#x2d9;" horiz-adv-x="524" 
d="M262 1096q-80 0 -140.5 59t-60.5 141t60 140.5t141 58.5q85 0 142 -57t57 -142t-57 -142.5t-142 -57.5z" />
    <glyph glyph-name="ring" unicode="&#x2da;" horiz-adv-x="745" 
d="M690 1395q0 -128 -91.5 -213.5t-225.5 -85.5q-135 0 -225.5 85t-90.5 214t90.5 215t225.5 86q134 0 225.5 -86.5t91.5 -214.5zM496 1395q0 55 -34 92t-89 37t-89 -37t-34 -92t34 -91t89 -36t89 36t34 91z" />
    <glyph glyph-name="ogonek" unicode="&#x2db;" horiz-adv-x="684" 
d="M104 -301q0 62 35.5 124t88.5 107.5t99.5 75.5t82.5 45l77 -10l15 -25q-129 -181 -129 -239q0 -76 90 -76q17 0 40 2t29 2q19 2 29 -10t6 -41l-8 -80q-11 -74 -190 -74q-120 0 -192.5 51.5t-72.5 147.5z" />
    <glyph glyph-name="tilde" unicode="&#x2dc;" horiz-adv-x="892" 
d="M629 1128q-57 0 -178 32t-146 32q-35 0 -61.5 -16.5t-45.5 -33t-36 -16.5q-22 0 -43 27l-62 92q-18 23 -18 58q0 49 69 105t160 56q52 0 173.5 -32.5t150.5 -32.5q35 0 62.5 16.5t47.5 33.5t37 17q19 0 43 -28l58 -92q18 -27 18 -58q0 -48 -69.5 -104t-159.5 -56z" />
    <glyph glyph-name="hungarumlaut" unicode="&#x2dd;" horiz-adv-x="1013" 
d="M211 1518h254q33 0 45 -22.5t-2 -45.5l-189 -320q-19 -32 -53 -32h-135q-68 0 -53 65l80 316q9 39 53 39zM655 1518h254q31 0 43.5 -22.5t-2.5 -45.5l-188 -320q-19 -32 -53 -32h-136q-31 0 -45.5 17.5t-7.5 47.5l82 316q9 39 53 39z" />
    <glyph glyph-name="pi" unicode="&#x3c0;" horiz-adv-x="1402" 
d="M721 297v453h-232v-705q0 -19 -12 -32t-31 -13h-208q-18 0 -31.5 13.5t-13.5 31.5v705h-121q-18 0 -30.5 13.5t-12.5 31.5v157q0 19 12 32t31 13h1228q19 0 32.5 -13t13.5 -32v-157q0 -17 -14 -31t-32 -14h-282v-383q0 -65 30.5 -90t69.5 -25q46 0 90 29q24 18 47.5 16
t36.5 -25l72 -114q27 -41 -6 -74q-48 -53 -126 -80t-169 -27q-67 0 -126.5 18.5t-108.5 55.5t-78 100.5t-29 145.5z" />
    <glyph glyph-name="Wgrave" unicode="&#x1e80;" horiz-adv-x="2058" 
d="M758 1954h254q44 0 53 -39l82 -316q15 -65 -53 -65h-136q-19 0 -30.5 7.5t-24.5 25.5l-186 319q-15 23 -2.5 45.5t43.5 22.5zM2032 1362l-328 -1317q-5 -21 -25.5 -33t-31.5 -12h-326q-46 0 -57 45l-226 913l-227 -913q-5 -22 -22.5 -33.5t-34.5 -11.5h-342q-47 0 -58 45
l-329 1317q-7 34 8 53t41 19h243q18 0 30.5 -13t17.5 -32l229 -1020l254 1024q7 22 16.5 31.5t32.5 9.5h279q38 0 49 -41l254 -1016l229 1012q12 45 47 45h230q65 0 47 -72z" />
    <glyph glyph-name="wgrave" unicode="&#x1e81;" horiz-adv-x="1605" 
d="M539 1518h254q44 0 53 -39l82 -316q15 -65 -54 -65h-135q-33 0 -55 32l-186 320q-15 23 -2.5 45.5t43.5 22.5zM803 604l-154 -559q-11 -45 -55 -45h-244q-41 0 -55 45l-285 887q-10 30 1.5 47.5t41.5 17.5h219q42 0 54 -45l155 -596l166 598q12 43 55 43h218q43 0 55 -43
l166 -598l162 596q12 45 53 45h194q27 0 39 -17.5t2 -47.5l-282 -887q-14 -45 -58 -45h-239q-22 0 -37.5 12.5t-20.5 32.5z" />
    <glyph glyph-name="Wacute" unicode="&#x1e82;" horiz-adv-x="2058" 
d="M1059 1954h254q34 0 45 -22.5t-4 -45.5l-187 -319q-23 -33 -55 -33h-135q-65 0 -53 65l82 316q9 39 53 39zM2032 1362l-328 -1317q-5 -21 -25.5 -33t-31.5 -12h-326q-46 0 -57 45l-226 913l-227 -913q-5 -22 -22.5 -33.5t-34.5 -11.5h-342q-47 0 -58 45l-329 1317
q-7 34 8 53t41 19h243q18 0 30.5 -13t17.5 -32l229 -1020l254 1024q7 22 16.5 31.5t32.5 9.5h279q38 0 49 -41l254 -1016l229 1012q12 45 47 45h230q65 0 47 -72z" />
    <glyph glyph-name="wacute" unicode="&#x1e83;" horiz-adv-x="1605" 
d="M834 1518h253q34 0 45 -22.5t-4 -45.5l-186 -320q-22 -32 -55 -32h-135q-66 0 -54 65l82 316q9 39 54 39zM803 604l-154 -559q-11 -45 -55 -45h-244q-41 0 -55 45l-285 887q-10 30 1.5 47.5t41.5 17.5h219q42 0 54 -45l155 -596l166 598q12 43 55 43h218q43 0 55 -43
l166 -598l162 596q12 45 53 45h194q27 0 39 -17.5t2 -47.5l-282 -887q-14 -45 -58 -45h-239q-22 0 -37.5 12.5t-20.5 32.5z" />
    <glyph glyph-name="Wdieresis" unicode="&#x1e84;" horiz-adv-x="2058" 
d="M631 1708q0 75 54 128.5t128 53.5q75 0 128.5 -53.5t53.5 -128.5t-53.5 -128.5t-128.5 -53.5q-74 0 -128 53.5t-54 128.5zM1075 1708q0 75 54 128.5t128 53.5q75 0 129 -53.5t54 -128.5t-54 -128.5t-129 -53.5q-74 0 -128 53.5t-54 128.5zM2032 1362l-328 -1317
q-5 -21 -25.5 -33t-31.5 -12h-326q-46 0 -57 45l-226 913l-227 -913q-5 -22 -22.5 -33.5t-34.5 -11.5h-342q-47 0 -58 45l-329 1317q-7 34 8 53t41 19h243q18 0 30.5 -13t17.5 -32l229 -1020l254 1024q7 22 16.5 31.5t32.5 9.5h279q38 0 49 -41l254 -1016l229 1012
q12 45 47 45h230q65 0 47 -72z" />
    <glyph glyph-name="wdieresis" unicode="&#x1e85;" horiz-adv-x="1605" 
d="M406 1272q0 75 54 128.5t128 53.5q75 0 128.5 -53.5t53.5 -128.5t-53.5 -128.5t-128.5 -53.5q-74 0 -128 53.5t-54 128.5zM850 1272q0 75 54 128.5t128 53.5q75 0 128.5 -53.5t53.5 -128.5t-53.5 -128.5t-128.5 -53.5q-74 0 -128 53.5t-54 128.5zM803 604l-154 -559
q-11 -45 -55 -45h-244q-41 0 -55 45l-285 887q-10 30 1.5 47.5t41.5 17.5h219q42 0 54 -45l155 -596l166 598q12 43 55 43h218q43 0 55 -43l166 -598l162 596q12 45 53 45h194q27 0 39 -17.5t2 -47.5l-282 -887q-14 -45 -58 -45h-239q-22 0 -37.5 12.5t-20.5 32.5z" />
    <glyph glyph-name="Ygrave" unicode="&#x1ef2;" horiz-adv-x="1335" 
d="M395 1954h254q44 0 53 -39l82 -316q15 -65 -53 -65h-135q-19 0 -30.5 7.5t-24.5 25.5l-187 319q-15 23 -2.5 45.5t43.5 22.5zM514 47v494l-496 823q-16 25 -5.5 47.5t36.5 22.5h268q38 0 56 -35l299 -514h4l297 514q18 35 53 35h258q26 0 37.5 -20.5t-4.5 -49.5
l-496 -823v-494q0 -20 -13.5 -33.5t-31.5 -13.5h-217q-19 0 -32 13.5t-13 33.5z" />
    <glyph glyph-name="ygrave" unicode="&#x1ef3;" horiz-adv-x="1077" 
d="M266 1518h254q44 0 53 -39l82 -316q15 -65 -53 -65h-135q-33 0 -55 32l-187 320q-15 23 -2.5 45.5t43.5 22.5zM322 -475q-191 0 -304 104q-35 30 -4 78l74 107q32 50 90 12q62 -47 123 -47q88 0 125 94l45 127h-104q-42 0 -56 43l-293 885q-8 30 2.5 49.5t45.5 19.5h239
q36 0 47 -47l199 -680l184 680q11 47 56 47h231q30 0 40 -19t-1 -50l-340 -1096q-46 -145 -147 -226t-252 -81z" />
    <glyph glyph-name="endash" unicode="&#x2013;" horiz-adv-x="1337" 
d="M1194 451h-1051q-20 0 -33.5 13.5t-13.5 33.5v213q0 19 13.5 33t33.5 14h1051q20 0 33.5 -14t13.5 -33v-213q0 -20 -13.5 -33.5t-33.5 -13.5z" />
    <glyph glyph-name="emdash" unicode="&#x2014;" horiz-adv-x="2021" 
d="M1876 451h-1733q-20 0 -33.5 13.5t-13.5 33.5v213q0 19 13.5 33t33.5 14h1733q20 0 34.5 -14t14.5 -33v-213q0 -20 -14.5 -33.5t-34.5 -13.5z" />
    <glyph glyph-name="quoteleft" unicode="&#x2018;" horiz-adv-x="542" 
d="M469 1356l-123 -182q54 -25 84.5 -72t30.5 -107q0 -87 -57.5 -144.5t-145.5 -57.5q-87 0 -147 60.5t-60 156.5q0 64 26.5 131t68.5 122.5t82.5 96.5t80.5 72q65 51 117 18l29 -18q45 -33 14 -76z" />
    <glyph glyph-name="quoteright" unicode="&#x2019;" horiz-adv-x="546" 
d="M84 899l121 184q-52 25 -83.5 72.5t-31.5 106.5q0 85 58.5 142.5t146.5 57.5q85 0 147 -60t62 -155q0 -64 -26.5 -131t-68.5 -122.5t-83 -97t-80 -71.5q-70 -53 -117 -20l-31 20q-47 32 -14 74z" />
    <glyph glyph-name="quotesinglbase" unicode="&#x201a;" horiz-adv-x="548" 
d="M59 -199l121 185q-51 25 -81.5 72t-30.5 106q0 86 58 144.5t144 58.5q85 0 147 -61t62 -156q0 -63 -27 -130.5t-69 -123.5t-83 -98t-79 -72q-67 -50 -119 -17l-28 19q-47 33 -15 73z" />
    <glyph glyph-name="quotedblleft" unicode="&#x201c;" horiz-adv-x="1021" 
d="M948 1356l-123 -182q52 -25 83.5 -72.5t31.5 -106.5q0 -86 -58.5 -144t-146.5 -58q-83 0 -145 61t-62 156q0 64 26.5 131t68.5 122.5t83 97t80 71.5q67 50 117 18l29 -18q47 -33 16 -76zM469 1356l-123 -182q54 -25 84.5 -72t30.5 -107q0 -87 -57.5 -144.5t-145.5 -57.5
q-87 0 -147 60.5t-60 156.5q0 64 26.5 131t68.5 122.5t82.5 96.5t80.5 72q65 51 117 18l29 -18q45 -33 14 -76z" />
    <glyph glyph-name="quotedblright" unicode="&#x201d;" horiz-adv-x="1024" 
d="M84 899l121 184q-52 25 -83.5 72.5t-31.5 106.5q0 85 58.5 142.5t146.5 57.5q85 0 147 -60t62 -155q0 -64 -26.5 -131t-68.5 -122.5t-83 -97t-80 -71.5q-70 -53 -117 -20l-31 20q-47 32 -14 74zM561 899l123 184q-54 25 -84.5 72t-30.5 107q0 85 58.5 142.5t144.5 57.5
q88 0 148.5 -59.5t60.5 -155.5q0 -64 -26.5 -131t-68.5 -122.5t-83 -97t-80 -71.5q-66 -53 -117 -20l-31 20q-43 32 -14 74z" />
    <glyph glyph-name="quotedblbase" unicode="&#x201e;" horiz-adv-x="1030" 
d="M61 -199l123 185q-54 25 -85 71.5t-31 106.5q0 86 58 144.5t146 58.5t148.5 -60.5t60.5 -156.5q0 -63 -27 -130.5t-69 -123.5t-83 -98t-79 -72q-66 -50 -117 -17l-30 19q-46 34 -15 73zM541 -199l121 185q-52 25 -83.5 72t-31.5 106q0 86 58.5 144.5t146.5 58.5
q85 0 147 -61t62 -156q0 -63 -27 -130.5t-69.5 -123.5t-83 -98t-79.5 -72q-66 -50 -118 -17l-29 19q-46 32 -14 73z" />
    <glyph glyph-name="dagger" unicode="&#x2020;" horiz-adv-x="956" 
d="M602 862v-532q0 -17 -10 -28t-27 -11h-172q-17 0 -28 11t-11 28v532h-245q-17 0 -27 11t-10 28v158q0 37 37 37h245v299q0 17 11 28t28 11h172q17 0 27 -11t10 -28v-299h248q37 0 37 -37v-158q0 -17 -10 -28t-27 -11h-248z" />
    <glyph glyph-name="daggerdbl" unicode="&#x2021;" horiz-adv-x="956" 
d="M600 360v-321q0 -39 -37 -39h-172q-17 0 -28 11t-11 28v321h-243q-17 0 -28 10t-11 27v160q0 17 11 27t28 10h243v246h-243q-17 0 -28 10t-11 27v159q0 17 11 27t28 10h243v322q0 17 11 28t28 11h172q37 0 37 -39v-322h250q37 0 37 -37v-159q0 -37 -37 -37h-250v-246h250
q37 0 37 -37v-160q0 -37 -37 -37h-250z" />
    <glyph glyph-name="bullet" unicode="&#x2022;" horiz-adv-x="774" 
d="M387 444q-115 0 -195.5 80.5t-80.5 196.5q0 115 80.5 195.5t195.5 80.5q116 0 196.5 -80.5t80.5 -195.5t-81 -196t-196 -81z" />
    <glyph glyph-name="ellipsis" unicode="&#x2026;" horiz-adv-x="1736" 
d="M256 -29q-80 0 -136.5 56.5t-56.5 136.5q0 79 56.5 135.5t136.5 56.5t137.5 -56.5t57.5 -135.5t-57.5 -136t-137.5 -57zM868 -29q-79 0 -135.5 56.5t-56.5 136.5t56 136t136 56q81 0 137 -56t56 -136t-56 -136.5t-137 -56.5zM1481 -29q-79 0 -136 56.5t-57 136.5
q0 79 56.5 135.5t136.5 56.5q79 0 135.5 -56t56.5 -136t-56.5 -136.5t-135.5 -56.5z" />
    <glyph glyph-name="perthousand" unicode="&#x2030;" horiz-adv-x="2117" 
d="M348 1448q136 0 211.5 -103t75.5 -268t-76 -270t-211 -105t-211 105t-76 270t75.5 268t211.5 103zM285 0h-60q-32 0 -42.5 22.5t7.5 45.5l904 1329q12 20 25 28.5t40 8.5h58q34 0 44 -22.5t-8 -45.5l-903 -1329q-12 -20 -25 -28.5t-40 -8.5zM231 1073q0 -229 117 -229
q119 0 119 229q0 123 -32.5 178.5t-86.5 55.5q-117 0 -117 -234zM1772 727q137 0 212.5 -103.5t75.5 -267.5q0 -169 -75 -271.5t-213 -102.5q-136 0 -210.5 102.5t-74.5 271.5q0 164 75 267.5t210 103.5zM1098 727q135 0 210.5 -103.5t75.5 -267.5q0 -169 -75 -271.5
t-211 -102.5q-137 0 -212 102.5t-75 271.5q0 164 75 267.5t212 103.5zM1655 350q0 -229 117 -229q118 0 118 229q0 236 -118 236q-117 0 -117 -236zM981 350q0 -229 117 -229q116 0 116 229q0 236 -116 236q-117 0 -117 -236z" />
    <glyph glyph-name="guilsinglleft" unicode="&#x2039;" horiz-adv-x="661" 
d="M565 16h-200q-25 0 -39 7.5t-27 29.5l-238 416q-21 34 0 68l238 417q18 35 66 35h200q18 0 28.5 -17.5t0.5 -39.5l-215 -430l215 -426q10 -22 -0.5 -41t-28.5 -19z" />
    <glyph glyph-name="guilsinglright" unicode="&#x203a;" horiz-adv-x="659" 
d="M600 469l-238 -416q-21 -37 -65 -37h-199q-19 0 -28.5 18.5t0.5 41.5l213 426l-213 430q-11 23 -1.5 40t29.5 17h199q47 0 65 -35l238 -417q15 -34 0 -68z" />
    <glyph glyph-name="fraction" unicode="&#x2044;" horiz-adv-x="286" 
d="M674 1366l-920 -1327q-12 -21 -25 -30t-40 -9h-41q-34 0 -44 22.5t9 45.5l919 1327q12 20 25.5 29.5t40.5 9.5h41q34 0 44 -22.5t-9 -45.5z" />
    <glyph glyph-name="zerosuperior" unicode="&#x2070;" horiz-adv-x="663" 
d="M45 1380q0 165 75.5 269t211.5 104q137 0 211.5 -103.5t74.5 -269.5t-74.5 -269t-211.5 -103q-136 0 -211.5 103.5t-75.5 268.5zM215 1376q0 -229 117 -229q119 0 119 229q0 236 -119 236q-117 0 -117 -236z" />
    <glyph glyph-name="foursuperior" unicode="&#x2074;" horiz-adv-x="669" 
d="M502 1022h-109q-11 0 -18.5 7.5t-7.5 17.5v149h-320q-11 0 -19 7.5t-8 17.5v79q0 36 17 58l268 362q15 21 35 21h162q11 0 18.5 -7.5t7.5 -17.5v-391h93q24 0 24 -27v-77q0 -11 -7 -18t-17 -7h-93v-149q0 -10 -7.5 -17.5t-18.5 -7.5zM172 1325h195v260z" />
    <glyph glyph-name="fivesuperior" unicode="&#x2075;" horiz-adv-x="622" 
d="M303 1008q-88 0 -157.5 31.5t-106.5 88.5q-7 11 -3.5 23t15.5 20l66 52q25 18 47 -9q58 -65 137 -65q55 0 90 31.5t35 79.5q0 51 -35 79.5t-86 28.5q-49 0 -98 -35q-15 -9 -27 -6l-96 21q-21 6 -18 24l24 344q3 25 27 25h403q10 0 17.5 -7.5t7.5 -17.5v-96
q0 -10 -7.5 -17.5t-17.5 -7.5h-305l-10 -135q64 39 141 39q98 0 170 -64t72 -171t-79.5 -181.5t-205.5 -74.5z" />
    <glyph glyph-name="sixsuperior" unicode="&#x2076;" horiz-adv-x="634" 
d="M612 1266q0 -111 -79.5 -185.5t-200.5 -74.5q-129 0 -210 78.5t-81 201.5q0 54 17.5 109.5t41 97t62.5 89.5t66.5 75.5t68.5 66.5q9 15 33 15h119q18 0 23.5 -16.5t-7.5 -26.5q-31 -31 -122 -126t-97 -108q51 33 123 33q101 0 172 -66t71 -163zM207 1257
q0 -51 34.5 -83.5t88.5 -32.5q50 0 84.5 33t34.5 83q0 51 -34.5 85t-84.5 34q-54 0 -88.5 -34t-34.5 -85z" />
    <glyph glyph-name="sevensuperior" unicode="&#x2077;" horiz-adv-x="573" 
d="M256 1022h-125q-14 0 -18.5 11t2.5 24l254 538h-322q-27 0 -27 27v94q0 10 8 17.5t19 7.5h477q12 0 19.5 -7t7.5 -18v-57q0 -31 -14 -55l-250 -564q-1 -1 -2.5 -3.5t-2 -3.5t-2 -3t-2.5 -3t-3.5 -2t-5 -1.5t-6 -1t-7.5 -0.5z" />
    <glyph glyph-name="eightsuperior" unicode="&#x2078;" horiz-adv-x="665" 
d="M332 1008q-132 0 -211.5 64t-79.5 159q0 62 36 109.5t87 66.5q-40 20 -65 58t-25 89q0 88 71.5 143.5t186.5 55.5q116 0 188 -55.5t72 -143.5q0 -51 -26 -89t-66 -58q53 -18 89 -65.5t36 -110.5q0 -95 -80.5 -159t-212.5 -64zM332 1630q-45 0 -76 -23t-31 -59t31 -60
t76 -24q47 0 77.5 23.5t30.5 60.5t-30 59.5t-78 22.5zM332 1339q-55 0 -90 -28.5t-35 -71.5t35 -71.5t90 -28.5t91 28.5t36 71.5t-36 71.5t-91 28.5z" />
    <glyph glyph-name="ninesuperior" unicode="&#x2079;" horiz-adv-x="634" 
d="M23 1495q0 111 78 185.5t200 74.5q129 0 211 -78.5t82 -201.5q0 -53 -17 -106.5t-38 -92.5t-60.5 -88t-63 -73.5t-66.5 -67.5l-11 -11q-9 -12 -35 -12h-119q-19 0 -24.5 15t6.5 26q35 35 125 128.5t96 106.5q-55 -34 -123 -34q-99 0 -170 66t-71 163zM426 1503
q0 51 -34.5 84t-88.5 33q-50 0 -83.5 -33t-33.5 -84t33.5 -85t83.5 -34q54 0 88.5 34t34.5 85z" />
    <glyph glyph-name="zeroinferior" unicode="&#x2080;" horiz-adv-x="663" 
d="M45 55q0 165 75.5 269t211.5 104q137 0 211.5 -103.5t74.5 -269.5t-74.5 -269t-211.5 -103q-136 0 -211.5 103.5t-75.5 268.5zM215 51q0 -229 117 -229q119 0 119 229q0 236 -119 236q-117 0 -117 -236z" />
    <glyph glyph-name="oneinferior" unicode="&#x2081;" horiz-adv-x="391" 
d="M23 213v84q0 27 24 27h29q68 0 96 61q12 27 41 27h66q12 0 19 -7t7 -18v-670q0 -24 -26 -24h-111q-11 0 -18 7t-7 17v473h-96q-10 0 -17 7.5t-7 15.5z" />
    <glyph glyph-name="twoinferior" unicode="&#x2082;" horiz-adv-x="628" 
d="M561 -307h-483q-25 0 -25 22v86q0 20 17 37l200 168q69 57 100 95.5t31 82.5q0 38 -28.5 64t-69.5 26q-45 0 -71.5 -24t-47.5 -66q-14 -36 -49 -24l-82 30q-24 9 -18 37q24 83 96 140t182 57q107 0 181.5 -63.5t74.5 -165.5q0 -78 -46 -140.5t-140 -138.5l-100 -78h278
q10 0 17.5 -7t7.5 -15v-99q0 -10 -7 -17t-18 -7z" />
    <glyph glyph-name="threeinferior" unicode="&#x2083;" horiz-adv-x="630" 
d="M313 293q-68 0 -110 -72q-15 -21 -37 -12l-76 35q-26 14 -14 41q24 56 88.5 99.5t159.5 43.5t161 -51t66 -135q0 -50 -26.5 -90.5t-69.5 -59.5q59 -14 97 -61t38 -117q0 -104 -80 -167.5t-201 -63.5q-127 0 -203.5 65.5t-76.5 171.5v14q0 25 22 25h109q26 0 26 -25v-6
q0 -49 32.5 -79.5t90.5 -30.5q52 0 83.5 28.5t31.5 71.5q0 42 -30 67t-85 25h-24q-23 0 -23 25v76q0 24 23 24h24q38 0 65 22t27 58q0 35 -24.5 56.5t-63.5 21.5z" />
    <glyph glyph-name="fourinferior" unicode="&#x2084;" horiz-adv-x="669" 
d="M502 -307h-109q-11 0 -18.5 7t-7.5 17v150h-320q-11 0 -19 7t-8 17v80q0 36 17 58l268 362q15 21 35 21h162q11 0 18.5 -7.5t7.5 -17.5v-391h93q24 0 24 -27v-78q0 -11 -6.5 -17.5t-17.5 -6.5h-93v-150q0 -10 -7.5 -17t-18.5 -7zM172 -4h195v260z" />
    <glyph glyph-name="fiveinferior" unicode="&#x2085;" horiz-adv-x="622" 
d="M303 -322q-88 0 -157.5 32t-106.5 89q-7 11 -3.5 23t15.5 20l66 52q25 18 47 -9q58 -65 137 -65q55 0 90 31t35 79q0 51 -35.5 80t-85.5 29q-49 0 -98 -35q-15 -9 -27 -6l-96 20q-21 6 -18 25l24 344q3 25 27 25h403q10 0 17.5 -7t7.5 -18v-96q0 -11 -7.5 -18t-17.5 -7
h-305l-10 -135q64 39 141 39q98 0 170 -64.5t72 -171.5t-79.5 -181.5t-205.5 -74.5z" />
    <glyph glyph-name="sixinferior" unicode="&#x2086;" horiz-adv-x="634" 
d="M612 -63q0 -111 -79.5 -186t-200.5 -75q-129 0 -210 79t-81 202q0 54 17.5 109.5t41 97t62.5 89.5t66.5 75.5t68.5 66.5q9 15 33 15h119q18 0 23.5 -16t-7.5 -27q-31 -31 -122 -126t-97 -108q51 33 123 33q101 0 172 -66t71 -163zM207 -72q0 -51 34.5 -83.5t88.5 -32.5
q50 0 84.5 33t34.5 83q0 51 -34.5 85t-84.5 34q-54 0 -88.5 -34t-34.5 -85z" />
    <glyph glyph-name="seveninferior" unicode="&#x2087;" horiz-adv-x="573" 
d="M256 -307h-125q-14 0 -18.5 10.5t2.5 24.5l254 538h-322q-27 0 -27 27v94q0 10 8 17.5t19 7.5h477q12 0 19.5 -7t7.5 -18v-57q0 -32 -14 -56l-250 -563q-1 -1 -2.5 -3.5t-2 -3.5t-2 -3t-2.5 -3t-3.5 -2t-5 -1.5t-6 -1t-7.5 -0.5z" />
    <glyph glyph-name="eightinferior" unicode="&#x2088;" horiz-adv-x="665" 
d="M332 -317q-132 0 -211.5 64t-79.5 159q0 62 36 109.5t87 66.5q-40 20 -65 58t-25 89q0 88 71.5 143.5t186.5 55.5q116 0 188 -55.5t72 -143.5q0 -51 -26 -89t-66 -58q53 -18 89 -65.5t36 -110.5q0 -95 -80.5 -159t-212.5 -64zM332 305q-45 0 -76 -23t-31 -59t31 -60
t76 -24q47 0 77.5 23.5t30.5 60.5t-30 59.5t-78 22.5zM332 14q-55 0 -90 -28.5t-35 -71.5t35 -71.5t90 -28.5t91 28.5t36 71.5t-36 71.5t-91 28.5z" />
    <glyph glyph-name="nineinferior" unicode="&#x2089;" horiz-adv-x="634" 
d="M23 170q0 111 78 185.5t200 74.5q129 0 211 -78.5t82 -201.5q0 -53 -17 -106.5t-38 -92.5t-60.5 -88t-63 -73.5t-66.5 -67.5l-11 -11q-9 -12 -35 -12h-119q-19 0 -24.5 15.5t6.5 25.5q35 35 125 128.5t96 106.5q-55 -34 -123 -34q-99 0 -170 66t-71 163zM426 178
q0 51 -34.5 84t-88.5 33q-50 0 -83.5 -33t-33.5 -84t33.5 -85t83.5 -34q54 0 88.5 34t34.5 85z" />
    <glyph glyph-name="Euro" unicode="&#x20ac;" horiz-adv-x="1431" 
d="M868 -29q-249 0 -429 135t-234 367h-94q-20 0 -34 13t-14 32v86q0 19 14 33t34 14h59q-4 46 -4 66q0 19 4 65h-59q-20 0 -34 14t-14 33v86q0 19 14 32.5t34 13.5h94q51 228 224.5 364.5t440.5 136.5q153 0 287.5 -54t194.5 -130q25 -40 0 -72l-105 -121q-46 -46 -106 2
q-117 95 -271 95q-116 0 -200.5 -58t-122.5 -163h407q20 0 33.5 -13.5t13.5 -32.5v-86q0 -19 -13.5 -33t-33.5 -14h-462q-5 -58 -5 -65q0 -9 5 -66h462q20 0 33.5 -14t13.5 -33v-86q0 -19 -13.5 -32t-33.5 -13h-407q38 -105 123 -163t200 -58q156 0 269 94q63 51 106 2
l107 -121q24 -31 0 -71q-60 -76 -194 -130.5t-290 -54.5z" />
    <glyph glyph-name="litre" unicode="&#x2113;" horiz-adv-x="901" 
d="M539 -16q-150 0 -239 86.5t-89 218.5v162l-70 -39q-29 -15 -49 18l-49 92q-22 36 16 60q9 5 76.5 43.5t71.5 42.5v452q0 160 89.5 251t242.5 91q131 0 219 -88.5t88 -232.5q0 -172 -96 -305.5t-306 -272.5v-229q0 -60 30.5 -91.5t76.5 -31.5q78 0 113 74q18 41 55 24
l121 -71q41 -23 18 -60q-46 -96 -128.5 -145t-190.5 -49zM633 1130q0 56 -25 89.5t-69 33.5q-45 0 -70 -37t-25 -94v-317q189 150 189 325z" />
    <glyph glyph-name="trademark" unicode="&#x2122;" horiz-adv-x="1734" 
d="M61 1311v96q0 27 27 27h594q10 0 17.5 -8t7.5 -19v-96q0 -11 -7.5 -18t-17.5 -7h-215v-536q0 -27 -25 -27h-116q-27 0 -27 27v536h-211q-27 0 -27 25zM1049 1407l151 -346l156 346q15 27 35 27h190q25 0 25 -27v-659q0 -25 -25 -25h-115q-11 0 -17.5 7.5t-6.5 19.5v485
l-156 -338q-12 -27 -37 -27h-102q-13 0 -20.5 5.5t-14.5 21.5l-154 338v-485q0 -27 -26 -27h-115q-26 0 -26 25v659q0 27 26 27h197q23 0 35 -27z" />
    <glyph glyph-name="Omega" unicode="&#x2126;" horiz-adv-x="1542" 
d="M770 1462q170 0 307 -50.5t222.5 -135.5t130.5 -192t45 -226q0 -87 -25.5 -165t-64 -133t-90.5 -100.5t-99.5 -72.5t-95.5 -45v-82h256q19 0 33 -14.5t14 -34.5v-164q0 -20 -14 -33.5t-33 -13.5h-457q-20 0 -34.5 13.5t-14.5 33.5v356q0 23 1 32.5t11.5 24t32.5 25.5
q66 36 108.5 66.5t80.5 72t55.5 95.5t17.5 123q0 151 -112.5 244.5t-274.5 93.5q-160 0 -271.5 -93.5t-111.5 -244.5q0 -57 13 -103.5t33 -80t56.5 -66t70.5 -55t87 -52.5q7 -3 12.5 -7t10 -7t7.5 -8t5.5 -7.5t4 -8t2 -7.5t1 -9t0.5 -8.5v-10v-9.5v-356q0 -20 -13 -33.5
t-32 -13.5h-459q-20 0 -32.5 13.5t-12.5 33.5v164q0 21 12.5 35t32.5 14h256v82q-48 18 -95.5 45t-99 72.5t-90.5 100.5t-64 133t-25 165q0 119 45 226t130 192t221.5 135.5t305.5 50.5z" />
    <glyph glyph-name="estimated" unicode="&#x212e;" horiz-adv-x="1761" 
d="M1673 705h-1270q-18 0 -18 -25v-352q0 -82 84.5 -150t199 -102.5t222.5 -34.5q156 0 290.5 52t231.5 153l3 3q7 8 11 11t11.5 5.5t17.5 2.5h43q10 0 13 -8t-3 -16q-111 -129 -269.5 -198t-348.5 -69q-171 0 -322 58.5t-257.5 158.5t-168 238t-61.5 291q0 151 60 286
t165.5 234t257.5 157t326 58q186 0 338.5 -56t253.5 -154.5t158 -229.5t63 -283q0 -12 -9.5 -21t-21.5 -9zM385 1069v-283q0 -18 18 -18h977q19 0 19 18v283q0 87 -42.5 152t-116 102.5t-161.5 55.5t-188 18q-75 0 -145 -11t-136.5 -36t-115.5 -62t-79 -93t-30 -126z" />
    <glyph glyph-name="onethird" unicode="&#x2153;" horiz-adv-x="1406" 
d="M1163 1366l-919 -1327q-12 -20 -25.5 -29.5t-40.5 -9.5h-41q-34 0 -44 22.5t9 45.5l920 1327q8 14 14.5 21t19 12.5t31.5 5.5h41q34 0 44 -22.5t-9 -45.5zM70 1235v84q0 27 24 27h29q68 0 96 61q12 27 41 27h66q12 0 19 -7t7 -18v-670q0 -24 -26 -24h-111q-11 0 -18 7
t-7 17v473h-96q-10 0 -17 7.5t-7 15.5zM1071 590q-68 0 -110 -72q-15 -21 -37 -12l-76 35q-26 14 -14 41q24 56 88 99.5t159 43.5q96 0 162 -51t66 -135q0 -50 -26.5 -90.5t-70.5 -59.5q60 -14 98 -61.5t38 -116.5q0 -104 -80 -167.5t-201 -63.5q-127 0 -204 65.5t-77 171.5
v14q0 25 23 25h109q26 0 26 -25v-6q0 -49 32.5 -79.5t90.5 -30.5q52 0 83.5 28.5t31.5 71.5q0 42 -30 67t-85 25h-25q-22 0 -22 25v76q0 24 22 24h25q38 0 65 22t27 58q0 35 -24.5 56.5t-63.5 21.5z" />
    <glyph glyph-name="twothirds" unicode="&#x2154;" horiz-adv-x="1591" 
d="M594 717h-483q-25 0 -25 22v86q0 21 16 37l201 168q69 57 100 95.5t31 82.5q0 38 -28.5 64t-69.5 26q-45 0 -71.5 -24t-47.5 -66q-14 -36 -49 -24l-82 30q-24 9 -18 37q24 83 96 140t182 57q107 0 181.5 -63.5t74.5 -165.5q0 -78 -46 -140.5t-140 -138.5l-101 -78h279
q10 0 17 -7t7 -15v-99q0 -11 -7 -17.5t-17 -6.5zM1348 1366l-920 -1327q-12 -20 -25.5 -29.5t-40.5 -9.5h-40q-34 0 -44 22.5t9 45.5l919 1327q12 20 25.5 29.5t40.5 9.5h41q34 0 44 -22.5t-9 -45.5zM1255 590q-68 0 -110 -72q-15 -21 -37 -12l-76 35q-26 14 -14 41
q24 56 88.5 99.5t159.5 43.5t161 -51t66 -135q0 -50 -26.5 -90.5t-69.5 -59.5q59 -14 97 -61t38 -117q0 -104 -80 -167.5t-201 -63.5q-127 0 -203.5 65.5t-76.5 171.5v14q0 25 22 25h109q26 0 26 -25v-6q0 -49 32.5 -79.5t90.5 -30.5q52 0 83.5 28.5t31.5 71.5q0 42 -30 67
t-85 25h-24q-23 0 -23 25v76q0 24 23 24h24q38 0 65 22t27 58q0 35 -24.5 56.5t-63.5 21.5z" />
    <glyph glyph-name="oneeight" unicode="&#x215b;" horiz-adv-x="1501" 
d="M1176 1366l-920 -1327q-12 -20 -25.5 -29.5t-40.5 -9.5h-40q-34 0 -44 22.5t9 45.5l919 1327q12 20 25.5 29.5t40.5 9.5h41q34 0 44 -22.5t-9 -45.5zM68 1235v84q0 27 24 27h29q68 0 96 61q12 27 41 27h66q12 0 19 -7t7 -18v-670q0 -24 -26 -24h-111q-11 0 -18 7t-7 17
v473h-96q-10 0 -17 7.5t-7 15.5zM1151 -16q-132 0 -211.5 64t-79.5 159q0 62 36 109.5t87 66.5q-40 20 -65 58t-25 89q0 88 71.5 143.5t186.5 55.5q116 0 188 -55.5t72 -143.5q0 -51 -26 -89t-66 -58q53 -18 89 -65.5t36 -110.5q0 -95 -80.5 -159t-212.5 -64zM1151 606
q-45 0 -76 -23t-31 -59t31 -60t76 -24q47 0 78 23.5t31 60.5q0 36 -30.5 59t-78.5 23zM1151 315q-55 0 -90 -28.5t-35 -71.5t35 -71.5t90 -28.5t91 28.5t36 71.5t-36 71.5t-91 28.5z" />
    <glyph glyph-name="threeeights" unicode="&#x215c;" horiz-adv-x="1527" 
d="M1282 1366l-920 -1327q-8 -14 -14.5 -21t-19 -12.5t-31.5 -5.5h-41q-34 0 -44 22.5t9 45.5l920 1327q8 14 14.5 21t19 12.5t31.5 5.5h41q34 0 44 -22.5t-9 -45.5zM344 1317q-69 0 -111 -72q-15 -21 -36 -12l-76 35q-27 15 -15 41q24 56 88.5 99.5t159.5 43.5
q96 0 162 -51t66 -135q0 -50 -26.5 -90.5t-70.5 -59.5q60 -14 98 -61.5t38 -116.5q0 -104 -80 -167.5t-201 -63.5q-127 0 -204 65.5t-77 171.5v14q0 25 23 25h108q27 0 27 -25v-6q0 -49 32.5 -79.5t90.5 -30.5q52 0 83.5 28.5t31.5 71.5q0 42 -30 67t-85 25h-25
q-22 0 -22 25v76q0 24 22 24h25q38 0 65 22t27 58q0 35 -24.5 56.5t-63.5 21.5zM1174 -16q-132 0 -211.5 64t-79.5 159q0 62 36 109.5t87 66.5q-40 20 -65.5 58t-25.5 89q0 88 72 143.5t187 55.5q116 0 188 -55.5t72 -143.5q0 -51 -26.5 -88.5t-66.5 -58.5q53 -18 89 -65.5
t36 -110.5q0 -95 -80 -159t-212 -64zM1174 606q-45 0 -76 -23t-31 -59t31 -60t76 -24q47 0 77.5 23.5t30.5 60.5t-30 59.5t-78 22.5zM1174 315q-55 0 -90 -28.5t-35 -71.5t35 -71.5t90 -28.5t90.5 28.5t35.5 71.5t-35.5 71.5t-90.5 28.5z" />
    <glyph glyph-name="fiveeights" unicode="&#x215d;" horiz-adv-x="1521" 
d="M1278 1364l-920 -1327q-12 -21 -25 -30t-40 -9h-41q-34 0 -44 22.5t9 45.5l920 1327q12 21 25 30t40 9h41q34 0 44 -22.5t-9 -45.5zM334 700q-88 0 -157.5 32t-106.5 89q-7 11 -3.5 23t15.5 20l65 51q26 19 48 -8q58 -65 137 -65q55 0 90 31t35 79q0 51 -35.5 80
t-85.5 29q-49 0 -98 -35q-15 -9 -27 -6l-96 20q-22 6 -19 25l25 344q3 25 26 25h404q10 0 17 -7t7 -18v-96q0 -11 -7 -18t-17 -7h-305l-10 -135q64 39 141 39q98 0 169.5 -64t71.5 -172q0 -107 -79 -181.5t-205 -74.5zM1169 -16q-132 0 -211 64t-79 159q0 63 35.5 110
t86.5 66q-40 20 -65 58t-25 89q0 88 71.5 143.5t186.5 55.5q117 0 189 -55.5t72 -143.5q0 -51 -26.5 -88.5t-66.5 -58.5q53 -18 89 -65.5t36 -110.5q0 -95 -80.5 -159t-212.5 -64zM1169 606q-45 0 -75.5 -23t-30.5 -59t30.5 -60t75.5 -24q47 0 78 23.5t31 60.5
q0 36 -30.5 59t-78.5 23zM1169 315q-55 0 -90 -28.5t-35 -71.5t35 -71.5t90 -28.5t91 28.5t36 71.5t-36 71.5t-91 28.5z" />
    <glyph glyph-name="seveneights" unicode="&#x215e;" horiz-adv-x="1425" 
d="M1180 1366l-920 -1327q-8 -14 -14.5 -21t-19 -12.5t-31.5 -5.5h-41q-34 0 -44 22.5t9 45.5l919 1327q12 20 25.5 29.5t40.5 9.5h41q34 0 44 -22.5t-9 -45.5zM301 715h-125q-14 0 -18.5 10.5t2.5 24.5l254 538h-322q-26 0 -26 27v94q0 10 7.5 17.5t18.5 7.5h477
q12 0 19.5 -7t7.5 -18v-57q0 -32 -14 -56l-250 -563q-1 -1 -2.5 -3.5t-2 -3.5t-2 -3t-2.5 -3t-3.5 -2t-5 -1.5t-6 -1t-7.5 -0.5zM1071 -16q-132 0 -211.5 64t-79.5 159q0 62 36 109.5t87 66.5q-40 20 -65 58t-25 89q0 88 71.5 143.5t186.5 55.5q116 0 188 -55.5t72 -143.5
q0 -51 -26 -89t-66 -58q53 -18 89 -65.5t36 -110.5q0 -95 -80.5 -159t-212.5 -64zM1071 606q-45 0 -75.5 -23t-30.5 -59t30.5 -60t75.5 -24q47 0 78 23.5t31 60.5q0 36 -30.5 59t-78.5 23zM1071 315q-55 0 -90 -28.5t-35 -71.5t35 -71.5t90 -28.5t91 28.5t36 71.5t-36 71.5
t-91 28.5z" />
    <glyph glyph-name="arrowup" unicode="&#x2191;" horiz-adv-x="1638" 
d="M260 1163l518 391q17 12 40 12t40 -12l522 -391q33 -22 33 -71v-228q0 -23 -17.5 -30.5t-52.5 12.5l-378 289v-1225q0 -20 -13.5 -33.5t-33.5 -13.5h-197q-20 0 -33.5 14.5t-13.5 34.5v1223l-379 -289q-35 -20 -52.5 -12.5t-17.5 30.5v228q0 49 35 71z" />
    <glyph glyph-name="arrowdown" unicode="&#x2193;" horiz-adv-x="1638" 
d="M778 -125l-518 393q-35 20 -35 72v227q0 22 17.5 29.5t52.5 -12.5l379 -287v1223q0 19 13.5 34t33.5 15h197q20 0 33.5 -14t13.5 -33v-1225l378 287q35 20 52.5 13.5t17.5 -28.5v-229q0 -52 -33 -72l-522 -393q-17 -11 -40 -11t-40 11z" />
    <glyph glyph-name="arrowupleft" unicode="&#x2196;" horiz-adv-x="1802" 
d="M367 1368l643 88q41 10 75 -24l160 -162q10 -10 11 -22t-10.5 -23t-37.5 -15l-471 -65l877 -877q17 -14 18 -33.5t-16 -33.5l-139 -140q-12 -13 -32.5 -13t-33.5 13l-879 879l-63 -471q-5 -26 -16.5 -38t-23 -11t-21.5 10l-162 164q-34 34 -27 72l90 645q4 23 21.5 39
t36.5 18z" />
    <glyph glyph-name="arrowupright" unicode="&#x2197;" horiz-adv-x="1802" 
d="M791 1456l645 -88q19 -2 35 -18t20 -39l92 -645q7 -38 -27 -72l-163 -164q-9 -9 -21 -10t-23.5 11t-15.5 38l-63 471l-881 -879q-13 -13 -32 -13t-33 13l-140 140q-13 14 -12.5 33.5t14.5 33.5l877 877l-471 65q-35 6 -44 26.5t7 33.5l162 162q31 35 74 24z" />
    <glyph glyph-name="arrowdownright" unicode="&#x2198;" horiz-adv-x="1802" 
d="M1434 137l-641 -90q-41 -8 -76 27l-162 162q-10 10 -11 21.5t10.5 22.5t37.5 15l471 65l-877 877q-31 39 -2 68l140 139q29 29 67 0l879 -877l63 471q7 35 28 44t34 -7l159 -164q36 -32 29 -71l-90 -645q-4 -22 -21 -37.5t-38 -20.5z" />
    <glyph glyph-name="arrowdownleft" unicode="&#x2199;" horiz-adv-x="1802" 
d="M1010 47l-643 90q-20 5 -37 20.5t-21 37.5l-90 645q-7 37 27 71l162 164q13 16 33.5 7t27.5 -44l63 -471l879 877q17 14 36 14t32 -14l137 -139q33 -26 0 -68l-877 -877l471 -65q35 -6 44 -26t-7 -33l-162 -162q-35 -35 -75 -27z" />
    <glyph glyph-name="partialdiff" unicode="&#x2202;" horiz-adv-x="1208" 
d="M604 -29q-157 0 -286 71.5t-202 193.5t-73 268q0 136 63 252t176.5 185t252.5 69q138 0 233 -74q-90 119 -220 256t-233 231q-24 23 -14 48.5t47 25.5l227 4q46 0 72 -22q34 -31 69.5 -65t88.5 -92.5t99 -118.5t95 -139t83.5 -157t56.5 -170.5t22 -181.5
q0 -252 -155 -418t-402 -166zM346 498q0 -107 70.5 -180.5t175.5 -73.5t175.5 73.5t70.5 180.5t-70.5 180.5t-175.5 73.5t-175.5 -73.5t-70.5 -180.5z" />
    <glyph glyph-name="increment" unicode="&#x2206;" horiz-adv-x="1607" 
d="M82 303l543 1086q20 45 67 45h223q45 0 68 -45l541 -1086q24 -40 24 -88v-168q0 -20 -14.5 -33.5t-34.5 -13.5h-1393q-20 0 -33.5 13.5t-13.5 33.5v168q0 44 23 88zM797 1118l-394 -835h783z" />
    <glyph glyph-name="product" unicode="&#x220f;" horiz-adv-x="1855" 
d="M66 717q0 236 115 432.5t313.5 309t435.5 112.5q178 0 337 -66.5t274 -180t182 -272t67 -335.5t-67 -335.5t-182 -271.5t-274 -179t-337 -66q-237 0 -435.5 112t-313.5 308t-115 432zM1618 717q0 145 -53.5 275t-145 223t-219 147.5t-270.5 54.5q-193 0 -351.5 -92.5
t-248.5 -253t-90 -354.5q0 -145 53 -274.5t144 -222.5t219.5 -147.5t273.5 -54.5q143 0 270.5 54.5t219 147.5t145 222.5t53.5 274.5zM608 1223h398q180 0 284.5 -102.5t104.5 -246.5q0 -68 -26 -130t-73.5 -110.5t-122.5 -77t-167 -28.5h-189v-284q0 -16 -10 -24.5
t-23 -8.5h-176q-15 0 -25 8.5t-10 24.5v944q0 14 10.5 24.5t24.5 10.5zM1141 874q0 63 -41.5 102.5t-104.5 39.5h-178v-283h178q64 2 105 41t41 100z" />
    <glyph glyph-name="summation" unicode="&#x2211;" horiz-adv-x="1273" 
d="M520 1151l309 -346q39 -39 39 -88t-39 -88l-309 -346h633q19 0 32 -13.5t13 -33.5v-189q0 -20 -13 -33.5t-32 -13.5h-1038q-19 0 -32 13.5t-13 33.5v160q0 24 18 45l410 465l-410 463q-18 21 -18 47v162q0 19 13 32t32 13h1038q19 0 32 -14t13 -34v-188q0 -20 -13 -33.5
t-32 -13.5h-633z" />
    <glyph glyph-name="minus" unicode="&#x2212;" horiz-adv-x="1292" 
d="M1190 819v-198q0 -20 -13 -34t-32 -14h-998q-19 0 -32 14t-13 34v198q0 19 13 33t32 14h998q19 0 32 -14t13 -33z" />
    <glyph glyph-name="radical" unicode="&#x221a;" horiz-adv-x="1466" 
d="M907 -297h-291q-41 0 -55 45l-305 707l-154 -66q-17 -8 -35 -1t-24 24l-63 149q-6 19 0.5 37.5t23.5 24.5l352 151q42 15 70 4t39 -39l295 -714l385 1464q5 19 17 32t28 13h219q33 0 43.5 -20t3.5 -48l-491 -1718q-14 -45 -58 -45z" />
    <glyph glyph-name="infinity" unicode="&#x221e;" horiz-adv-x="2187" 
d="M588 1292q60 0 114 -12t120.5 -44.5t137 -101.5t136.5 -171q52 82 108.5 142.5t106 95.5t103.5 56.5t96.5 28t88.5 6.5q62 0 128.5 -18t136.5 -61.5t125 -107t90 -164t35 -222.5t-35 -222.5t-90 -164t-125 -107.5t-136.5 -62t-128.5 -18q-46 0 -88.5 7t-96.5 28
t-103.5 56.5t-106 97t-108.5 143.5q-54 -83 -111 -144.5t-107 -96.5t-104 -56.5t-96.5 -28t-89.5 -6.5q-62 0 -128.5 18t-136.5 62t-124.5 107.5t-89.5 164t-35 222.5t35 222.5t89.5 164t124.5 107t136.5 61.5t128.5 18zM606 983q-82 0 -148.5 -69t-66.5 -195
q0 -124 67 -192t150 -68q78 0 152 54.5t160 205.5q-89 150 -163 207t-151 57zM1583 459q79 0 147 68.5t68 191.5q0 65 -20.5 117.5t-53 83.5t-69 47t-72.5 16q-78 0 -151 -56.5t-162 -207.5q86 -151 160 -205.5t153 -54.5z" />
    <glyph glyph-name="integral" unicode="&#x222b;" horiz-adv-x="985" 
d="M346 -76v1213q0 91 31.5 161.5t84 112.5t116 63t133.5 21q76 0 156 -26.5t132 -73.5q14 -14 16 -34.5t-11 -41.5l-89 -123q-12 -18 -28.5 -20.5t-26 2t-26.5 14.5q-51 33 -93 33t-71 -29.5t-29 -87.5v-1212q0 -91 -31.5 -162t-84 -112.5t-116 -63t-133.5 -21.5
q-76 0 -156 26.5t-132 74.5q-31 31 -4 75l86 123q27 40 86 4q46 -33 88 -33q45 0 73.5 29t28.5 88z" />
    <glyph glyph-name="approxequal" unicode="&#x2248;" horiz-adv-x="1292" 
d="M942 784q-63 0 -286.5 34t-252.5 34q-30 0 -54 -9.5t-37 -21t-29.5 -23t-32.5 -14.5q-23 -6 -51 25l-74 100q-23 33 -23 64q2 19 24.5 47t56.5 54t81 44.5t92 18.5q58 0 279.5 -34t259.5 -34t66 15.5t49.5 33t40.5 19.5q27 6 53 -27l63 -98q26 -37 23 -66q-2 -19 -24 -46
t-55 -53t-79 -44.5t-90 -18.5zM942 297q-63 0 -286.5 34t-252.5 34q-30 0 -54 -9.5t-37 -21t-29.5 -23t-32.5 -14.5q-23 -6 -51 25l-74 100q-23 30 -23 63q2 19 24.5 47t56.5 54t81 44.5t92 18.5q58 0 279.5 -33.5t259.5 -33.5t66 14.5t50 31.5t40 21q26 6 53 -24l63 -101
q26 -37 23 -65q-2 -19 -24 -46t-55 -53t-79 -44.5t-90 -18.5z" />
    <glyph glyph-name="notequal" unicode="&#x2260;" horiz-adv-x="1290" 
d="M799 328v-140q0 -19 -14 -32t-33 -13h-215q-19 0 -33.5 13.5t-14.5 31.5v140h-342q-19 0 -33 13.5t-14 33.5v194q0 20 14 34.5t33 14.5h342v197h-342q-19 0 -33 13.5t-14 33.5v197q0 19 14 33t33 14h342v137q0 18 14.5 31.5t33.5 13.5h215q19 0 33 -13t14 -32v-137h344
q19 0 33 -14t14 -33v-197q0 -20 -14 -33.5t-33 -13.5h-344v-197h344q19 0 33 -14.5t14 -34.5v-194q0 -20 -14 -33.5t-33 -13.5h-344z" />
    <glyph glyph-name="lessequal" unicode="&#x2264;" horiz-adv-x="1200" 
d="M1096 664v-220q0 -39 -27.5 -50.5t-56.5 7.5l-885 443q-59 31 -59 123q0 89 57 120l887 441q29 19 56.5 7.5t27.5 -50.5v-219q0 -26 -14.5 -40.5t-45.5 -29.5l-512 -231l512 -232q21 -10 31.5 -16.5t19.5 -20.5t9 -32zM1096 244v-197q0 -20 -13.5 -33.5t-33.5 -13.5h-930
q-20 0 -33.5 13.5t-13.5 33.5v197q0 20 13.5 32.5t33.5 12.5h930q20 0 33.5 -12.5t13.5 -32.5z" />
    <glyph glyph-name="greaterequal" unicode="&#x2265;" horiz-adv-x="1202" 
d="M104 444v220q0 14 4.5 24.5t15 19t17.5 13t23 12.5l512 232l-512 231q-15 8 -23 12.5t-18 13.5t-14.5 19.5t-4.5 24.5v219q0 39 27.5 50.5t56.5 -7.5l887 -441q58 -31 58 -120q0 -94 -60 -123l-885 -443q-29 -19 -56.5 -7.5t-27.5 50.5zM1081 0h-929q-20 0 -34 13.5
t-14 33.5v197q0 20 13.5 32.5t34.5 12.5h929q20 0 33.5 -12.5t13.5 -32.5v-197q0 -20 -13.5 -33.5t-33.5 -13.5z" />
    <glyph glyph-name="filledbox" unicode="&#x25a0;" horiz-adv-x="1802" 
d="M1587 0h-1372q-12 0 -21.5 9.5t-9.5 21.5v1372q0 12 9.5 21.5t21.5 9.5h1372q12 0 21.5 -9.5t9.5 -21.5v-1372q0 -12 -9.5 -21.5t-21.5 -9.5z" />
    <glyph glyph-name="triagup" unicode="&#x25b2;" horiz-adv-x="1802" 
d="M1710 0h-1618q-11 0 -15.5 8t1.5 19l807 1380q6 11 16.5 11t16.5 -11l806 -1380q6 -11 1.5 -19t-15.5 -8z" />
    <glyph glyph-name="uni25B6" unicode="&#x25b6;" horiz-adv-x="1802" 
d="M223 -92v1618q0 11 8.5 15.5t18.5 -1.5l1380 -807q10 -6 10 -16.5t-10 -16.5l-1380 -806q-10 -6 -18.5 -1.5t-8.5 15.5z" />
    <glyph glyph-name="triagdn" unicode="&#x25bc;" horiz-adv-x="1802" 
d="M885 27l-807 1380q-6 11 -1.5 19t15.5 8h1618q11 0 15.5 -8t-1.5 -19l-806 -1380q-6 -11 -16.5 -11t-16.5 11z" />
    <glyph glyph-name="uni25C0" unicode="&#x25c0;" horiz-adv-x="1802" 
d="M170 733l1380 807q10 6 18.5 1.5t8.5 -15.5v-1618q0 -11 -8.5 -15.5t-18.5 1.5l-1380 806q-10 6 -10 16.5t10 16.5z" />
    <glyph glyph-name="lozenge" unicode="&#x25ca;" horiz-adv-x="1966" 
d="M1872 694l-866 -868q-22 -22 -45 0l-869 868q-22 22 0 45l869 869q23 22 45 0l866 -869q22 -23 0 -45z" />
    <glyph glyph-name="uni2B24" unicode="&#x2b24;" horiz-adv-x="1802" 
d="M1618 717q0 -145 -57 -278t-153 -229t-229 -153t-278 -57t-278 57t-229 153t-153 229t-57 278t57 278t153 229t229 153t278 57t278 -57t229 -153t153 -229t57 -278z" />
    <glyph glyph-name="logo.01" unicode="&#xe00f;" horiz-adv-x="2476" 
d="M1171 -332q-158 71 -307.5 166.5t-289 223t-243.5 267.5t-166.5 309t-62.5 339q0 153 55 292.5t154 243.5q185 191 482 191q249 0 454 -176q193 172 445 172q139 0 261.5 -49t213.5 -144q98 -103 152.5 -242.5t54.5 -291.5q0 -146 -45.5 -289.5t-125.5 -267t-184 -237
t-226.5 -207.5t-245.5 -168.5t-249 -131.5q-37 -17 -63.5 -17t-63.5 17z" />
    <glyph glyph-name="commaaccent" unicode="&#xf6c3;" horiz-adv-x="530" 
d="M115 -539l82 121q-45 20 -71 60.5t-26 89.5q0 74 50 125t124 51q75 0 128 -51t53 -133q0 -178 -201 -330q-59 -45 -100 -15l-27 17q-40 26 -12 65z" />
    <glyph glyph-name="NULL" horiz-adv-x="0" 
 />
    <glyph glyph-name="apostrophemod" horiz-adv-x="673" 
d="M186 1004l86 120q-45 24 -72.5 65t-27.5 89q0 72 51 123t125 51q75 0 126.5 -51t51.5 -135q0 -70 -35.5 -138.5t-76 -110t-88.5 -77.5q-58 -44 -101 -14l-22 14q-42 31 -17 64z" />
    <glyph glyph-name="eight.dnom" horiz-adv-x="665" 
d="M332 -16q-132 0 -211.5 64t-79.5 159q0 62 36 109.5t87 66.5q-40 20 -65 58t-25 89q0 88 71.5 143.5t186.5 55.5q116 0 188 -55.5t72 -143.5q0 -51 -26 -89t-66 -58q53 -18 89 -65.5t36 -110.5q0 -95 -80.5 -159t-212.5 -64zM332 606q-45 0 -76 -23t-31 -59t31 -60
t76 -24q47 0 77.5 23.5t30.5 60.5t-30 59.5t-78 22.5zM332 315q-55 0 -90 -28.5t-35 -71.5t35 -71.5t90 -28.5t91 28.5t36 71.5t-36 71.5t-91 28.5z" />
    <glyph glyph-name="eight.numr" horiz-adv-x="665" 
d="M332 700q-132 0 -211.5 64.5t-79.5 159.5q0 62 36 109.5t87 66.5q-40 20 -65 58t-25 89q0 88 71.5 143.5t186.5 55.5q116 0 188 -55.5t72 -143.5q0 -51 -26 -89t-66 -58q53 -18 89 -65.5t36 -110.5q0 -95 -80.5 -159.5t-212.5 -64.5zM332 1323q-45 0 -76 -23t-31 -59
t31 -60t76 -24q47 0 77.5 23.5t30.5 60.5t-30 59.5t-78 22.5zM332 1032q-55 0 -90 -28.5t-35 -71.5t35 -72t90 -29t91 29t36 72t-36 71.5t-91 28.5z" />
    <glyph glyph-name="eight.onum" horiz-adv-x="1271" 
d="M635 -29q-134 0 -245 35.5t-183.5 96.5t-112 142t-39.5 173q0 126 72.5 221.5t181.5 134.5q-82 40 -134 119t-52 180q0 172 143 280.5t369 108.5t370 -108.5t144 -280.5q0 -102 -52.5 -180.5t-135.5 -118.5q110 -39 183 -135t73 -221q0 -92 -39.5 -173t-112 -142
t-183.5 -96.5t-247 -35.5zM635 879q98 0 161.5 50t63.5 128q0 74 -63.5 124t-161.5 50q-97 0 -160 -50t-63 -124q0 -78 62.5 -128t160.5 -50zM635 641q-116 0 -190 -60t-74 -153q0 -89 74 -149t190 -60q117 0 191.5 60t74.5 149q0 93 -74 153t-192 60z" />
    <glyph glyph-name="eight.tnum" horiz-adv-x="1216" 
d="M606 -29q-266 0 -422.5 128.5t-156.5 318.5q0 126 72.5 221.5t181.5 134.5q-82 40 -134.5 119t-52.5 180q0 172 143 280.5t369 108.5t370 -108.5t144 -280.5q0 -102 -52.5 -180.5t-135.5 -118.5q110 -39 183 -135t73 -221q0 -92 -39.5 -173t-112 -142t-183.5 -96.5
t-247 -35.5zM606 879q98 0 161.5 50t63.5 128q0 74 -63.5 124t-161.5 50q-97 0 -160 -50t-63 -124q0 -78 62.5 -128t160.5 -50zM606 641q-116 0 -190 -60t-74 -153q0 -89 74 -149t190 -60q117 0 191.5 60t74.5 149q0 93 -74 153t-192 60z" />
    <glyph glyph-name="emdash.alt" horiz-adv-x="2045" 
d="M1888 451h-1732q-20 0 -33.5 13.5t-13.5 33.5v213q0 19 13.5 33t33.5 14h1732q20 0 34.5 -14t14.5 -33v-213q0 -20 -14.5 -33.5t-34.5 -13.5z" />
    <glyph glyph-name="endash.alt" horiz-adv-x="1361" 
d="M1206 451h-1050q-20 0 -33.5 13.5t-13.5 33.5v213q0 19 13.5 33t33.5 14h1050q20 0 33.5 -14t13.5 -33v-213q0 -20 -13.5 -33.5t-33.5 -13.5z" />
    <glyph glyph-name="exclamdown.alt" horiz-adv-x="606" 
d="M301 1462q81 0 138 -56.5t57 -135.5q0 -80 -57 -137.5t-138 -57.5q-78 0 -134 57.5t-56 137.5q0 78 56 135t134 57zM455 897l4 -852q0 -19 -14 -32t-33 -13h-217q-20 0 -34 13t-14 32l5 852q0 19 12.5 32t32.5 13h211q20 0 33.5 -13t13.5 -32z" />
    <glyph glyph-name="five.dnom" horiz-adv-x="622" 
d="M303 -14q-88 0 -157.5 31.5t-106.5 88.5q-7 11 -3.5 23.5t15.5 20.5l66 51q26 19 47 -8q58 -66 137 -66q55 0 90 31.5t35 79.5q0 51 -35 79.5t-86 28.5q-49 0 -98 -35q-15 -9 -27 -6l-96 21q-21 6 -18 24l24 344q3 25 27 25h403q10 0 17.5 -7.5t7.5 -17.5v-96
q0 -10 -7.5 -17.5t-17.5 -7.5h-305l-10 -135q64 39 141 39q98 0 170 -64t72 -171t-79.5 -181.5t-205.5 -74.5z" />
    <glyph glyph-name="five.numr" horiz-adv-x="622" 
d="M303 700q-88 0 -157.5 32t-106.5 89q-7 11 -3.5 23t15.5 20l66 51q26 19 47 -8q58 -65 137 -65q55 0 90 31t35 79q0 51 -35.5 80t-85.5 29q-49 0 -98 -35q-15 -9 -27 -6l-96 20q-21 6 -18 25l24 344q3 25 27 25h403q10 0 17.5 -7t7.5 -18v-96q0 -11 -7.5 -18t-17.5 -7
h-305l-10 -135q64 39 141 39q98 0 170 -64.5t72 -171.5t-79.5 -181.5t-205.5 -74.5z" />
    <glyph glyph-name="five.onum" horiz-adv-x="1157" 
d="M555 -381q-171 0 -305 64t-209 176q-31 42 16 82l115 96q47 39 96 -10q62 -69 127 -105.5t156 -36.5q116 0 192 66.5t76 169.5q0 105 -74.5 165t-177.5 60q-115 0 -209 -78q-24 -18 -53 -12l-182 41q-38 8 -35 45l49 692q2 21 14.5 34t32.5 13h811q20 0 33.5 -13.5
t13.5 -33.5v-180q0 -20 -13.5 -33.5t-33.5 -13.5h-620l-23 -291q127 80 283 80q132 0 242 -54.5t178.5 -162.5t68.5 -250q0 -103 -41 -196t-114 -162.5t-180.5 -110.5t-233.5 -41z" />
    <glyph glyph-name="five.tnum" horiz-adv-x="1216" 
d="M586 -29q-171 0 -305 64t-209 176q-31 42 16 82l115 96q47 39 96 -10q61 -68 126.5 -104.5t156.5 -36.5q116 0 192 66.5t76 168.5q0 105 -74.5 165t-177.5 60q-116 0 -209 -77q-25 -19 -53 -13l-182 41q-38 8 -35 45l49 692q2 21 14.5 34.5t32.5 13.5h811q20 0 33.5 -14
t13.5 -34v-180q0 -20 -13.5 -33.5t-33.5 -13.5h-620l-23 -291q127 80 283 80q132 0 242 -54.5t178.5 -162.5t68.5 -250q0 -103 -41 -196t-114 -162.5t-180.5 -110.5t-233.5 -41z" />
    <glyph glyph-name="four.dnom" horiz-adv-x="669" 
d="M504 0h-109q-11 0 -18.5 7.5t-7.5 17.5v149h-320q-11 0 -18.5 7.5t-7.5 17.5v80q0 36 16 57l268 362q15 21 35 21h162q11 0 18.5 -7.5t7.5 -17.5v-391h93q24 0 24 -27v-77q0 -11 -7 -18t-17 -7h-93v-149q0 -10 -7.5 -17.5t-18.5 -7.5zM174 303h195v260z" />
    <glyph glyph-name="four.numr" horiz-adv-x="669" 
d="M504 715h-109q-11 0 -18.5 7t-7.5 17v150h-320q-11 0 -18.5 7t-7.5 17v80q0 37 16 58l268 362q15 21 35 21h162q11 0 18.5 -7.5t7.5 -17.5v-391h93q24 0 24 -27v-78q0 -11 -6.5 -17.5t-17.5 -6.5h-93v-150q0 -10 -7.5 -17t-18.5 -7zM174 1018h195v260z" />
    <glyph glyph-name="four.onum" horiz-adv-x="1212" 
d="M694 20h-614q-20 0 -33.5 14t-13.5 34v159q0 73 28 113l525 704q26 37 69 37h295q20 0 33.5 -13t13.5 -32v-772h140q20 0 34.5 -13.5t14.5 -33.5v-149q0 -20 -14.5 -34t-34.5 -14h-140v-325q0 -20 -13.5 -33.5t-33.5 -13.5h-209q-20 0 -33.5 13.5t-13.5 33.5v325z
M305 264h389v527z" />
    <glyph glyph-name="four.tnum" horiz-adv-x="1216" 
d="M696 373h-614q-20 0 -33.5 14t-13.5 33v160q0 68 28 112l527 705q21 37 65 37h295q22 0 34.5 -12.5t12.5 -32.5v-773h142q20 0 33.5 -13.5t13.5 -33.5v-149q0 -19 -13.5 -33t-33.5 -14h-142v-326q0 -21 -12 -34t-35 -13h-207q-20 0 -33.5 13.5t-13.5 33.5v326zM305 616
h391v527z" />
    </font>
</defs>
</svg>
