<?xml version="1.0" standalone="no"?>
<!DOCTYPE svg PUBLIC "-//W3C//DTD SVG 1.1//EN" "http://www.w3.org/Graphics/SVG/1.1/DTD/svg11.dtd" >
<svg xmlns="http://www.w3.org/2000/svg" xmlns:xlink="http://www.w3.org/1999/xlink" version="1.1">
<metadata>
Created by FontForge 20170731 at Sat Apr 30 16:38:19 2022
 By Aleksey,,,
Copyright (c) 2001 by Henrik Kubel, A2/SW/HK + A2-TYPE. All rights reserved.
</metadata>
<defs>
<font id="Boing-MediumItalic" horiz-adv-x="1193" >
  <font-face 
    font-family="Boing-Medium Italic"
    font-weight="500"
    font-style="italic"
    font-stretch="normal"
    units-per-em="2048"
    panose-1="2 11 6 3 3 0 0 9 0 4"
    ascent="1536"
    descent="-512"
    x-height="987"
    cap-height="1434"
    bbox="-491.036 -615.681 2479.1 2095"
    underline-thickness="102"
    underline-position="-460"
    unicode-range="U+000D-FB04"
  />
<missing-glyph horiz-adv-x="425" 
 />
    <glyph glyph-name="f_f" unicode="ff" horiz-adv-x="1208" 
d="M1044 987h191q19 0 29 -12t6 -31l-25 -135q-5 -19 -18 -31t-31 -12h-190l-127 -723q-5 -18 -19 -30.5t-31 -12.5h-176q-18 0 -28.5 13t-6.5 30l127 723h-237l-127 -723q-5 -18 -18 -30.5t-31 -12.5h-176q-18 0 -28.5 13t-6.5 30l127 723h-131q-17 0 -27 13t-6 30l25 137
q5 18 17.5 29.5t29.5 11.5h131l26 152q16 81 49.5 140.5t77.5 92t91 47.5t100 15h76q59 0 51 -60l-25 -137q-6 -47 -51 -47h-20q-77 0 -95 -84l-20 -119h237l29 156q31 176 130.5 259t248.5 83q68 0 138.5 -24.5t117.5 -65.5q28 -28 2 -66l-84 -112q-29 -41 -78 -3
q-47 33 -88 33q-111 0 -133 -129z" />
    <glyph glyph-name="fi" unicode="fi" horiz-adv-x="1054" 
d="M287 987l28 156q31 176 130.5 259t248.5 83q68 0 138.5 -24.5t117.5 -65.5q28 -28 2 -66l-84 -112q-28 -41 -77 -3q-47 33 -89 33q-111 0 -133 -129l-22 -131h457q18 0 27 -12.5t5 -30.5l-159 -901q-2 -17 -16.5 -30t-33.5 -13h-174q-18 0 -28.5 13t-6.5 30l127 723h-237
l-127 -723q-5 -18 -18 -30.5t-31 -12.5h-176q-18 0 -28.5 13t-6.5 30l127 723h-131q-17 0 -27 13t-6 30l25 137q5 18 17.5 29.5t29.5 11.5h131z" />
    <glyph glyph-name="fl" unicode="fl" horiz-adv-x="1148" 
d="M248 766h-131q-17 0 -27 13t-6 30l25 137q5 18 17.5 29.5t29.5 11.5h131l26 152q16 81 49.5 140.5t77.5 92t91 47.5t100 15h76q59 0 51 -60l-25 -137q-6 -47 -51 -47h-20q-77 0 -95 -84l-20 -119h237l72 404q5 19 17.5 31t29.5 12h178q19 0 28 -12t5 -31l-192 -1094
q-6 -36 7.5 -57t45.5 -21h65q41 0 33 -39l-22 -131q-10 -49 -62 -49h-119q-123 0 -180 66t-37 180l92 520h-237l-127 -723q-5 -18 -18 -30.5t-31 -12.5h-176q-18 0 -28.5 13t-6.5 30z" />
    <glyph glyph-name="f_f_i" unicode="ffi" horiz-adv-x="1552" 
d="M592 -111l153 877h-237l-127 -723q-5 -18 -18 -30.5t-31 -12.5h-176q-18 0 -28.5 13t-6.5 30l127 723h-131q-17 0 -27 13t-6 30l25 137q5 18 17.5 29.5t29.5 11.5h131l26 152q16 81 49.5 140.5t77.5 92t91 47.5t100 15h76q59 0 51 -60l-25 -137q-6 -47 -51 -47h-20
q-77 0 -95 -84l-20 -119h237l29 156q31 176 130.5 259t248.5 83q68 0 138.5 -24.5t117.5 -65.5q28 -28 2 -66l-84 -112q-29 -41 -78 -3q-47 33 -88 33q-111 0 -133 -129l-23 -131h457q17 0 26 -12t7 -31l-160 -901q-5 -18 -18.5 -30.5t-30.5 -12.5h-176q-17 0 -27 13t-6 30
l127 723h-237l-158 -901q-31 -176 -130.5 -259t-248.5 -83q-68 0 -138.5 24.5t-117.5 65.5q-27 27 -2 65l84 113q28 41 78 2q47 -33 88 -33q109 0 131 129z" />
    <glyph glyph-name="f_f_l" unicode="ffl" horiz-adv-x="1642" 
d="M1006 766l-158 -901q-31 -176 -130.5 -259t-248.5 -83q-68 0 -138.5 24.5t-117.5 65.5q-27 27 -2 65l84 113q28 41 78 2q47 -33 88 -33q109 0 131 129l153 877h-237l-127 -723q-5 -18 -18 -30.5t-31 -12.5h-176q-18 0 -28.5 13t-6.5 30l127 723h-131q-17 0 -27 13t-6 30
l25 137q5 18 17.5 29.5t29.5 11.5h131l26 152q16 81 49.5 140.5t77.5 92t91 47.5t100 15h76q59 0 51 -60l-25 -137q-6 -47 -51 -47h-20q-77 0 -95 -84l-20 -119h237l27 152q16 81 49 140.5t77 92t91 47.5t100 15h76q60 0 49 -60l-22 -137q-6 -47 -53 -47h-19q-76 0 -94 -84
l-21 -119h238l70 404q5 19 18.5 31t30.5 12h178q18 0 27.5 -12.5t5.5 -30.5l-193 -1094q-6 -36 7.5 -57t43.5 -21h68q41 0 33 -39l-25 -131q-7 -49 -61 -49h-119q-123 0 -179 66t-36 180l92 520h-237z" />
    <glyph glyph-name="f_b" unicode="fb" horiz-adv-x="1787" 
d="M1219 -29q-113 0 -199 46t-131 126l-19 -102q-9 -41 -47 -41h-176q-18 0 -27.5 12t-5.5 29l129 725h-235l-127 -723q-5 -18 -18 -30.5t-31 -12.5h-176q-18 0 -28.5 13t-6.5 30l127 723h-131q-17 0 -27 13t-6 30l25 137q5 18 17.5 29.5t29.5 11.5h131l26 152
q16 81 49.5 140.5t77.5 92t91 47.5t100 15h76q59 0 51 -60l-25 -137q-6 -47 -51 -47h-20q-77 0 -95 -84l-20 -119h235l72 406q11 41 47 41h176q17 0 27 -11.5t8 -29.5l-92 -510q46 57 122 94t173 37q180 0 301 -130t121 -327q0 -129 -42 -239.5t-113 -186t-165.5 -118
t-197.5 -42.5zM1235 780q-122 0 -205.5 -95.5t-83.5 -227.5q0 -111 66.5 -183.5t175.5 -72.5q123 0 205 94t82 227q0 108 -65.5 183t-174.5 75z" />
    <glyph glyph-name="f_f_b" unicode="ffb" horiz-adv-x="2285" 
d="M1733 780q-122 0 -205.5 -95.5t-83.5 -227.5q0 -110 67.5 -183t176.5 -73q121 0 202.5 94.5t81.5 226.5q0 109 -64.5 183.5t-174.5 74.5zM745 766h-237l-127 -723q-5 -18 -18 -30.5t-31 -12.5h-176q-18 0 -28.5 13t-6.5 30l127 723h-131q-17 0 -27 13t-6 30l25 137
q5 18 17.5 29.5t29.5 11.5h131l26 152q16 81 49.5 140.5t77.5 92t91 47.5t100 15h76q59 0 51 -60l-25 -137q-6 -47 -51 -47h-20q-77 0 -95 -84l-20 -119h237l27 152q16 81 49 140.5t77 92t91 47.5t100 15h76q60 0 49 -60l-22 -137q-6 -47 -53 -47h-19q-76 0 -94 -84
l-21 -119h238l70 406q11 41 49 41h174q18 0 28.5 -12t6.5 -29l-92 -510q46 56 122.5 93.5t174.5 37.5q178 0 298.5 -130t120.5 -327q0 -129 -42 -239.5t-112.5 -186t-165 -118t-198.5 -42.5q-110 0 -196 46t-131 126l-19 -102q-9 -41 -47 -41h-176q-18 0 -27.5 12t-5.5 29
l127 725h-235l-158 -901q-31 -176 -130.5 -259t-248.5 -83q-68 0 -138.5 24.5t-117.5 65.5q-27 27 -2 65l84 113q28 41 78 2q47 -33 88 -33q109 0 131 129z" />
    <glyph glyph-name="f_f_f" unicode="fff" horiz-adv-x="1703" 
d="M1282 987l29 156q31 176 130.5 259t248.5 83q68 0 138.5 -24.5t117.5 -65.5q28 -28 2 -66l-84 -112q-29 -41 -78 -3q-47 33 -88 33q-111 0 -133 -129l-23 -131h191q19 0 28.5 -12t5.5 -31l-24 -135q-10 -43 -51 -43h-189l-129 -723q-1 -17 -15.5 -30t-31.5 -13h-176
q-18 0 -28.5 13t-6.5 30l127 723h-237l-158 -901q-31 -176 -130.5 -259t-248.5 -83q-68 0 -138.5 24.5t-117.5 65.5q-27 27 -2 65l84 113q28 41 78 2q47 -33 88 -33q109 0 131 129l153 877h-237l-127 -723q-5 -18 -18 -30.5t-31 -12.5h-176q-18 0 -28.5 13t-6.5 30l127 723
h-131q-17 0 -27 13t-6 30l25 137q5 18 17.5 29.5t29.5 11.5h131l26 152q16 81 49.5 140.5t77.5 92t91 47.5t100 15h76q59 0 51 -60l-25 -137q-6 -47 -51 -47h-20q-77 0 -95 -84l-20 -119h237l27 152q16 81 49 140.5t77 92t91 47.5t100 15h76q60 0 49 -60l-22 -137
q-6 -47 -53 -47h-19q-76 0 -94 -84l-21 -119h238z" />
    <glyph glyph-name="f_f_h" unicode="ffh" horiz-adv-x="2265" 
d="M745 766h-237l-127 -723q-5 -18 -18 -30.5t-31 -12.5h-176q-18 0 -28.5 13t-6.5 30l127 723h-131q-17 0 -27 13t-6 30l25 137q5 18 17.5 29.5t29.5 11.5h131l26 152q16 81 49.5 140.5t77.5 92t91 47.5t100 15h76q59 0 51 -60l-25 -137q-6 -47 -51 -47h-20q-77 0 -95 -84
l-20 -119h237l27 152q16 81 49 140.5t77 92t91 47.5t100 15h76q60 0 49 -60l-22 -137q-6 -47 -53 -47h-19q-76 0 -94 -84l-21 -119h238l70 406q10 41 47 41h178q18 0 28.5 -11t6.5 -28l-92 -518q52 63 131.5 101t173.5 38q92 0 167.5 -32t125.5 -90.5t69.5 -148t1.5 -198.5
l-90 -508q-4 -18 -17.5 -28.5t-31.5 -10.5h-176q-18 0 -28.5 11t-6.5 28l84 477q24 121 -22.5 189.5t-161.5 68.5q-110 0 -187 -79.5t-102 -215.5l-78 -440q-4 -18 -17.5 -28.5t-31.5 -10.5h-176q-18 0 -27.5 12t-5.5 29l127 725h-235l-158 -901q-31 -176 -130.5 -259
t-248.5 -83q-68 0 -138.5 24.5t-117.5 65.5q-27 27 -2 65l84 113q28 41 78 2q47 -33 88 -33q109 0 131 129z" />
    <glyph glyph-name="f_f_j" unicode="ffj" horiz-adv-x="1552" 
d="M784 987l29 156q31 176 130.5 259t248.5 83q68 0 138.5 -24.5t117.5 -65.5q28 -28 2 -66l-84 -112q-29 -41 -78 -3q-47 33 -88 33q-111 0 -133 -129l-23 -131h455q17 0 27 -12.5t8 -30.5l-186 -1057q-34 -188 -133 -276t-246 -88q-83 0 -154 26t-108 66q-27 27 4 68
l73 100q30 42 80 12q44 -33 92 -33q43 0 81 30.5t50 98.5l156 875h-237l-127 -723q-5 -18 -19 -30.5t-31 -12.5h-176q-18 0 -28.5 13t-6.5 30l127 723h-237l-127 -723q-5 -18 -18 -30.5t-31 -12.5h-176q-18 0 -28.5 13t-6.5 30l127 723h-131q-17 0 -27 13t-6 30l25 137
q5 18 17.5 29.5t29.5 11.5h131l26 152q16 81 49.5 140.5t77.5 92t91 47.5t100 15h76q59 0 51 -60l-25 -137q-6 -47 -51 -47h-20q-77 0 -95 -84l-20 -119h237z" />
    <glyph glyph-name="f_f_k" unicode="ffk" horiz-adv-x="2138" 
d="M745 766h-237l-127 -723q-5 -18 -18 -30.5t-31 -12.5h-176q-18 0 -28.5 13t-6.5 30l127 723h-131q-17 0 -27 13t-6 30l25 137q5 18 17.5 29.5t29.5 11.5h131l26 152q16 81 49.5 140.5t77.5 92t91 47.5t100 15h76q59 0 51 -60l-25 -137q-6 -47 -51 -47h-20q-77 0 -95 -84
l-20 -119h237l27 152q16 81 49 140.5t77 92t91 47.5t100 15h76q60 0 49 -60l-22 -137q-6 -47 -53 -47h-19q-76 0 -94 -84l-21 -119h238l70 406q4 19 18 30t31 11h178q18 0 27.5 -12t5.5 -29l-135 -762h92l303 325q25 31 59 31h201q29 0 35.5 -20t-13.5 -43l-378 -392
l292 -466q13 -23 1 -44.5t-41 -21.5h-177q-25 0 -37.5 7.5t-23.5 27.5l-246 411h-100l-72 -405q-2 -17 -15 -29t-32 -12h-176q-41 0 -35 41l127 725h-235l-158 -901q-31 -176 -130.5 -259t-248.5 -83q-68 0 -138.5 24.5t-117.5 65.5q-27 27 -2 65l84 113q28 41 78 2
q47 -33 88 -33q109 0 131 129z" />
    <glyph glyph-name="f_f_t" unicode="fft" horiz-adv-x="1798" 
d="M469 -477q-68 0 -138.5 24.5t-117.5 65.5q-27 27 -2 65l84 113q28 41 78 2q47 -33 88 -33q109 0 131 129l153 877h-237l-127 -723q-5 -18 -18 -30.5t-31 -12.5h-176q-18 0 -28.5 13t-6.5 30l127 723h-131q-17 0 -27 13t-6 30l25 137q5 18 17.5 29.5t29.5 11.5h131l26 152
q16 81 49.5 140.5t77.5 92t91 47.5t100 15h76q59 0 51 -60l-25 -137q-6 -47 -51 -47h-20q-77 0 -95 -84l-20 -119h237l27 152q16 81 49 140.5t77 92t91 47.5t100 15h76q60 0 49 -60l-22 -137q-6 -47 -53 -47h-19q-76 0 -94 -84l-21 -119h238l49 275q5 19 18.5 31t32.5 12
h174q19 0 29 -12t6 -31l-49 -275h262q18 0 29.5 -12t7.5 -31l-24 -137q-5 -18 -19.5 -29.5t-32.5 -11.5h-262l-73 -416q-16 -71 4 -102t57 -31q11 0 20 0.5t18 3t15 4t16 5.5t14.5 6t17.5 8.5t18 9.5q45 19 67 -29l45 -102q18 -44 -26 -70q-115 -76 -273 -76
q-61 0 -112.5 19.5t-91 57.5t-56 102t-2.5 147l82 463h-237l-158 -901q-31 -176 -130.5 -259t-248.5 -83z" />
    <glyph glyph-name="f_h" unicode="fh" horiz-adv-x="1767" 
d="M332 0h-176q-18 0 -28.5 13t-6.5 30l127 723h-131q-17 0 -27 13t-6 30l25 137q5 18 17.5 29.5t29.5 11.5h131l26 152q16 81 49.5 140.5t77.5 92t91 47.5t100 15h76q59 0 51 -60l-25 -137q-6 -47 -51 -47h-20q-77 0 -95 -84l-20 -119h235l72 406q10 41 47 41h178
q18 0 28.5 -11t6.5 -28l-92 -518q52 63 131.5 101t173.5 38q124 0 214.5 -54.5t132.5 -162.5t18 -252l-90 -508q-4 -18 -18 -28.5t-32 -10.5h-176q-17 0 -27 11t-8 28l86 477q21 122 -24.5 190t-159.5 68q-110 0 -186.5 -79t-102.5 -216l-80 -440q-4 -18 -17.5 -28.5
t-31.5 -10.5h-176q-18 0 -27.5 12t-5.5 29l127 725h-235l-127 -723q-5 -18 -18 -30.5t-31 -12.5z" />
    <glyph glyph-name="f_j" unicode="fj" horiz-adv-x="1054" 
d="M287 987l28 156q31 176 130.5 259t248.5 83q68 0 138.5 -24.5t117.5 -65.5q28 -28 2 -66l-84 -112q-28 -41 -77 -3q-47 33 -89 33q-111 0 -133 -129l-22 -131h454q18 0 28.5 -13t6.5 -30l-186 -1057q-34 -188 -133 -276t-246 -88q-83 0 -154 26t-108 66q-27 27 4 68
l74 100q32 41 80 12q47 -33 92 -33q43 0 81 30.5t50 98.5l155 875h-237l-127 -723q-5 -18 -18 -30.5t-31 -12.5h-176q-18 0 -28.5 13t-6.5 30l127 723h-131q-17 0 -27 13t-6 30l25 137q5 18 17.5 29.5t29.5 11.5h131z" />
    <glyph glyph-name="f_k" unicode="fk" horiz-adv-x="1640" 
d="M508 766l-127 -723q-5 -18 -18 -30.5t-31 -12.5h-176q-18 0 -28.5 13t-6.5 30l127 723h-131q-17 0 -27 13t-6 30l25 137q5 18 17.5 29.5t29.5 11.5h131l26 152q16 81 49.5 140.5t77.5 92t91 47.5t100 15h76q59 0 51 -60l-25 -137q-6 -47 -51 -47h-20q-77 0 -95 -84
l-20 -119h235l72 406q4 19 18 30t31 11h176q19 0 29 -12t6 -29l-135 -762h92l301 325q25 31 62 31h200q29 0 36 -20t-13 -43l-379 -392l293 -466q13 -23 0.5 -44.5t-41.5 -21.5h-176q-25 0 -38 7.5t-24 27.5l-245 411h-101l-72 -405q-2 -17 -15 -29t-32 -12h-176
q-41 0 -35 41l127 725h-235z" />
    <glyph glyph-name="f_t" unicode="ft" horiz-adv-x="1298" 
d="M924 -23q-61 0 -112.5 19.5t-91 57.5t-56 102t-2.5 147l81 463h-235l-127 -723q-5 -18 -18 -30.5t-31 -12.5h-176q-18 0 -28.5 13t-6.5 30l127 723h-131q-17 0 -27 13t-6 30l25 137q5 18 17.5 29.5t29.5 11.5h131l26 152q16 81 49.5 140.5t77.5 92t91 47.5t100 15h76
q59 0 51 -60l-25 -137q-6 -47 -51 -47h-20q-77 0 -95 -84l-20 -119h235l49 275q5 19 18.5 31t33.5 12h174q19 0 29 -12t6 -31l-50 -275h263q18 0 28 -11.5t6 -31.5l-22 -137q-5 -18 -19 -29.5t-32 -11.5h-262l-74 -416q-16 -71 4 -102t57 -31q11 0 20 0.5t18 3t15 4t16 5.5
t14.5 6t17.5 8.5t18 9.5q46 20 68 -29l45 -102q18 -44 -27 -70q-115 -76 -272 -76z" />
    <glyph glyph-name=".notdef" horiz-adv-x="425" 
 />
    <glyph glyph-name=".null" horiz-adv-x="0" 
 />
    <glyph glyph-name="nonmarkingreturn" horiz-adv-x="682" 
 />
    <glyph glyph-name="CR" unicode="&#xd;" horiz-adv-x="0" 
 />
    <glyph glyph-name="space" unicode=" " horiz-adv-x="430" 
 />
    <glyph glyph-name="exclam" unicode="!" horiz-adv-x="567" 
d="M573 1391l-155 -863q-5 -18 -18.5 -30.5t-30.5 -12.5h-181q-17 0 -27.5 13t-6.5 30l147 863q1 17 16.5 30t32.5 13h189q17 0 27.5 -13t6.5 -30zM215 -29q-75 0 -123.5 53.5t-42.5 127.5q6 75 64 128.5t133 53.5t123.5 -53.5t42.5 -128.5q-4 -73 -64 -127t-133 -54z" />
    <glyph glyph-name="quotedbl" unicode="&#x22;" horiz-adv-x="864" 
d="M379 811h-174q-18 0 -28.5 12.5t-6.5 30.5l94 539q11 41 49 41h174q18 0 28.5 -12t6.5 -29l-94 -539q-5 -19 -18 -31t-31 -12zM770 811h-176q-18 0 -27.5 12.5t-5.5 30.5l94 539q5 18 18.5 29.5t31.5 11.5h174q18 0 28 -12t6 -29l-94 -539q-5 -19 -18 -31t-31 -12z" />
    <glyph glyph-name="numbersign" unicode="#" horiz-adv-x="1282" 
d="M801 584l47 264h-287l-47 -264h287zM487 422l-67 -379q-5 -18 -18.5 -30.5t-30.5 -12.5h-86q-18 0 -28.5 13t-6.5 30l67 379h-219q-19 0 -29 12t-6 31l15 78q5 18 17.5 29.5t29.5 11.5h219l47 264h-217q-19 0 -29 12t-6 31l15 78q1 17 15.5 29t31.5 12h219l67 383
q5 17 19 29t31 12h86q18 0 28 -12t6 -29l-67 -383h287l67 383q5 18 18.5 29.5t30.5 11.5h86q18 0 28.5 -12t6.5 -29l-67 -383h217q18 0 28 -12t6 -29l-14 -78q-1 -18 -16 -30.5t-33 -12.5h-217l-47 -264h217q18 0 28.5 -12t6.5 -29l-15 -78q-1 -18 -16 -30.5t-33 -12.5h-217
l-68 -379q-1 -17 -15.5 -30t-31.5 -13h-86q-17 0 -27.5 13t-6.5 30l67 379h-287z" />
    <glyph glyph-name="dollar" unicode="$" horiz-adv-x="1284" 
d="M612 903l37 -12l58 334q-108 -4 -171 -52t-63 -124q0 -94 139 -146zM907 399q0 101 -166 168l-63 -356q114 10 171.5 64t57.5 124zM573 -199h-90q-25 0 -22 29l26 154q-152 27 -263.5 95t-176.5 152q-46 58 21 113l82 70q23 19 42.5 21t34.5 -7.5t33 -30.5
q57 -65 119.5 -110t150.5 -66l70 397l-117 41q-143 51 -222 144t-79 211q0 92 36.5 173t104.5 142.5t173.5 97t236.5 35.5h17l18 105q3 28 33 28h92q28 0 25 -28l-21 -121q128 -24 223 -83t152 -130q19 -23 20 -43t-6.5 -31t-23.5 -26l-93 -76q-19 -15 -36 -16t-30 7t-30 25
q-106 101 -219 135l-66 -370l84 -31q328 -117 328 -385q0 -61 -18.5 -121.5t-61.5 -120.5t-106 -106t-161 -74.5t-218 -28.5l-25 -141q-3 -29 -37 -29z" />
    <glyph glyph-name="percent" unicode="%" horiz-adv-x="1441" 
d="M166 995q0 119 35.5 220t111.5 167t179 66q112 0 178.5 -79.5t66.5 -213.5q0 -119 -35.5 -220t-111 -167t-178.5 -66q-112 0 -179 79.5t-67 213.5zM1409 1370l-1155 -1331q-27 -29 -40 -34q-11 -5 -28 -5h-43q-29 0 -35 20t13 43l1155 1332q1 2 7.5 9t8 8t6.5 6t7 6t7 4
t9 3.5t10 1.5t12 1h43q29 0 36 -20.5t-13 -43.5zM317 987q0 -78 29 -117t76 -39q67 0 116.5 90t49.5 242q0 78 -29 117t-76 39q-67 0 -116.5 -90t-49.5 -242zM786 274q0 88 21 168t60.5 144t102.5 101.5t142 37.5q110 0 177 -80t67 -213q0 -88 -21 -168t-61 -143.5
t-103 -101t-141 -37.5q-112 0 -178 79t-66 213zM936 264q0 -76 28.5 -114.5t75.5 -38.5q67 0 116.5 89.5t49.5 241.5q0 76 -28.5 115t-75.5 39q-67 0 -116.5 -90t-49.5 -242z" />
    <glyph glyph-name="ampersand" unicode="&#x26;" horiz-adv-x="1433" 
d="M563 1114q0 -91 82 -180l33 18q92 51 128 97.5t36 97.5q0 53 -36 87t-91 34q-63 0 -107.5 -42.5t-44.5 -111.5zM547 201q148 0 272 112l-270 340l-49 -30q-178 -111 -178 -232q0 -78 60 -134t165 -56zM1051 25l-88 110q-106 -89 -219.5 -126.5t-249.5 -37.5
q-192 0 -320.5 111.5t-128.5 277.5q0 257 279 410l92 51q-43 58 -71 132t-28 141q0 66 24.5 129.5t72 118t126.5 87.5t177 33q83 0 153 -27t115.5 -72t70.5 -101t25 -115q0 -117 -63 -199t-211 -160l-33 -16l211 -262q73 116 133 291q12 37 51 37h177q18 0 27.5 -10t8.5 -27
q-13 -74 -83 -218t-160 -264l213 -264q14 -19 6 -37t-31 -18h-221q-21 0 -32 5.5t-23 19.5z" />
    <glyph glyph-name="quotesingle" unicode="'" horiz-adv-x="524" 
d="M190 928l136 182q-52 24 -83 69t-30 99q2 78 57 131t136 53q80 0 136 -56t56 -146q0 -58 -27.5 -121.5t-71 -117t-84.5 -93t-79 -68.5q-62 -49 -109 -18l-24 16q-41 30 -13 70z" />
    <glyph glyph-name="parenleft" unicode="(" horiz-adv-x="608" 
d="M250 -207q-75 110 -126.5 286t-51.5 367q0 158 43 319t114.5 296t148 242t159.5 194q31 39 81 39h72q34 0 46 -21.5t-9 -58.5q-86 -139 -148 -258.5t-120 -264t-88.5 -298t-30.5 -309.5q0 -210 90 -480q27 -92 -51 -92h-57q-45 0 -72 39z" />
    <glyph glyph-name="parenright" unicode=")" horiz-adv-x="608" 
d="M414 1497q75 -110 126.5 -286t51.5 -367q0 -158 -43 -319t-114.5 -296t-148 -242t-159.5 -194q-31 -39 -82 -39h-72q-34 0 -45.5 21.5t9.5 58.5q85 134 149 256.5t121 266t87 298t30 310.5q0 206 -91 479q-27 92 52 92h57q45 0 72 -39z" />
    <glyph glyph-name="asterisk" unicode="*" horiz-adv-x="1069" 
d="M647 600q-6 -41 -40.5 -64.5t-76.5 -15.5q-42 6 -64.5 39.5t-14.5 75.5q4 31 118 305q-16 -8 -86.5 -49t-130 -73t-78.5 -36q-39 -12 -75 6.5t-49 59.5q-12 39 6.5 76.5t58.5 50.5q25 9 168.5 20.5t163.5 14.5q-24 14 -151 74.5t-148 76.5q-36 30 -41 69t24 75
q26 32 66.5 37t71.5 -21q11 -9 43.5 -45t62.5 -70.5t69.5 -80t47.5 -54.5q0 26 -3 108.5t-4 133.5t1 86q6 41 40 64.5t76 15.5q43 -8 66.5 -39t13.5 -76q-3 -25 -49.5 -143t-68.5 -162q20 9 147 80t150 78q39 12 74 -5.5t48 -58.5q12 -40 -6 -78.5t-59 -50.5
q-17 -4 -155.5 -17t-174.5 -22q25 -15 152 -74t147 -73q35 -29 39.5 -70.5t-22.5 -73.5q-29 -34 -68.5 -38t-71.5 22q-16 14 -109 121.5t-114 128.5q0 -22 3 -104.5t4 -135.5t-1 -88z" />
    <glyph glyph-name="plus" unicode="+" horiz-adv-x="1161" 
d="M623 1251h182q19 0 29 -12t6 -31l-62 -356h338q19 0 29 -13t6 -32l-31 -172q-1 -19 -15.5 -32t-33.5 -13h-340l-63 -357q-5 -19 -19.5 -32t-32.5 -13h-182q-18 0 -28.5 13.5t-6.5 31.5l64 357h-338q-19 0 -29 13t-6 32l31 172q5 19 19 32t32 13h336l63 356q5 19 19 31
t33 12z" />
    <glyph glyph-name="comma" unicode="," horiz-adv-x="522" 
d="M-10 -180l139 176q-48 21 -75 65t-21 97q6 76 60.5 126t131.5 50q76 0 128 -56.5t46 -142.5q-7 -105 -97 -213t-179 -168q-67 -46 -107 -18l-20 16q-39 26 -6 68z" />
    <glyph glyph-name="hyphen" unicode="-" horiz-adv-x="759" 
d="M606 455h-465q-19 0 -30 12.5t-7 32.5l33 184q5 20 18.5 32.5t32.5 12.5h467q18 0 28.5 -12.5t6.5 -32.5l-33 -184q-5 -20 -18.5 -32.5t-32.5 -12.5z" />
    <glyph glyph-name="period" unicode="." horiz-adv-x="507" 
d="M195 -29q-75 0 -123.5 53.5t-42.5 127.5q6 75 63.5 128.5t132.5 53.5q74 0 123 -53.5t43 -128.5q-4 -73 -63.5 -127t-132.5 -54z" />
    <glyph glyph-name="slash" unicode="/" horiz-adv-x="978" 
d="M125 0h-109q-27 0 -32.5 19.5t8.5 39.5l885 1342q14 20 24.5 26.5t30.5 6.5h108q28 0 34 -17.5t-9 -40.5l-879 -1341q-12 -19 -24 -27t-37 -8z" />
    <glyph glyph-name="zero" unicode="0" horiz-adv-x="1255" 
d="M754 1462q226 0 350.5 -155t124.5 -414q0 -135 -24.5 -265t-77 -249.5t-127 -210t-182 -144t-234.5 -53.5q-227 0 -351 155t-124 415q0 135 24.5 265t76.5 249t126.5 209.5t182 144t235.5 53.5zM735 1233q-99 0 -181.5 -104.5t-127.5 -267t-45 -339.5q0 -171 62 -246
t159 -75q99 0 181.5 104.5t127.5 266.5t45 339q0 171 -62 246.5t-159 75.5z" />
    <glyph glyph-name="one" unicode="1" horiz-adv-x="667" 
d="M133 1077l23 135q9 48 49 48h37q79 0 129 32t88 101q16 25 31.5 33t37.5 8h113q19 0 29 -12t6 -29l-236 -1348q-5 -19 -19 -32t-34 -13h-180q-18 0 -28.5 13.5t-6.5 31.5l174 989h-180q-18 0 -27.5 12.5t-5.5 30.5z" />
    <glyph glyph-name="two" unicode="2" horiz-adv-x="1171" 
d="M983 0h-928q-19 0 -30 13t-7 30l25 125q9 50 49 78l457 356q195 152 271.5 241t76.5 181q0 90 -62.5 143.5t-156.5 53.5q-57 0 -104 -18.5t-80.5 -52.5t-55.5 -67.5t-41 -76.5q-27 -65 -92 -41l-125 47q-42 15 -30 65q53 171 193.5 278t354.5 107q129 0 237 -50
t173.5 -144t65.5 -213q0 -107 -51 -206t-142 -188t-244 -202l-303 -223h590q19 0 30 -12.5t7 -30.5l-29 -150q-5 -19 -18 -31t-31 -12z" />
    <glyph glyph-name="three" unicode="3" 
d="M557 -29q-248 0 -390 131t-124 324l4 43q3 39 45 39h178q38 0 35 -37l-4 -33q-12 -102 60 -171.5t202 -69.5t203.5 75t73.5 174q0 97 -69.5 161.5t-203.5 64.5h-80q-42 0 -34 41l14 100q6 33 35 59l356 316h-598q-18 0 -29.5 13t-7.5 32l29 156q9 45 53 45h866
q19 0 29 -12t6 -31l-24 -138q-10 -63 -41 -94l-373 -323q151 -21 248.5 -125.5t97.5 -259.5q0 -93 -37.5 -178.5t-106 -153t-176 -108t-237.5 -40.5z" />
    <glyph glyph-name="four" unicode="4" horiz-adv-x="1200" 
d="M678 383h-623q-18 0 -28.5 13.5t-6.5 31.5l25 139q4 24 7 37.5t12 31.5t24 34l672 729q27 35 69 35h252q20 0 32 -13t7 -30l-139 -789h168q41 0 35 -45l-23 -129q-5 -20 -18.5 -32.5t-32.5 -12.5h-168l-59 -338q-5 -19 -19.5 -32t-34.5 -13h-178q-19 0 -28.5 13t-4.5 32z
M295 602h422l98 563z" />
    <glyph glyph-name="five" unicode="5" horiz-adv-x="1185" 
d="M545 -23q-182 0 -323.5 76t-205.5 201q-10 19 -1.5 38.5t32.5 31.5l115 79q20 17 38 13.5t27.5 -11t16.5 -18.5q42 -70 123 -121t186 -51q134 0 217.5 76.5t83.5 193.5q0 110 -75.5 172t-184.5 62q-118 0 -215 -64q-29 -18 -55 -8l-144 49q-35 11 -26 43l168 650
q5 19 19 32t34 13h788q20 0 31.5 -11.5t7.5 -29.5l-28 -160q-5 -19 -19.5 -32t-32.5 -13h-628l-84 -316q118 62 258 62q195 0 327.5 -119t132.5 -311q0 -105 -41.5 -200.5t-115.5 -168t-184.5 -115.5t-241.5 -43z" />
    <glyph glyph-name="six" unicode="6" horiz-adv-x="1216" 
d="M610 -29q-233 0 -384.5 142.5t-151.5 359.5q0 87 24.5 175.5t63.5 163.5t98.5 153t116.5 138t131 125t129 108.5t123 93.5q18 13 29.5 16t33.5 2l205 -18q29 -1 34 -27t-20 -43q-89 -62 -275 -219t-278 -267q110 62 238 62q89 0 170.5 -30t144.5 -84t100.5 -137
t37.5 -181q0 -147 -74.5 -269t-205.5 -193t-290 -71zM645 737q-126 0 -209.5 -85t-83.5 -203q0 -110 75.5 -178t184.5 -68q126 0 209.5 85.5t83.5 203.5q0 110 -75 177.5t-185 67.5z" />
    <glyph glyph-name="seven" unicode="7" horiz-adv-x="1099" 
d="M1221 1391l-17 -97q-9 -51 -37 -92l-731 -1171q-11 -18 -22 -24.5t-33 -6.5h-223q-27 0 -33 19.5t8 39.5l739 1129h-675q-18 0 -29.5 13t-7.5 32l28 156q9 45 54 45h944q19 0 29 -12t6 -31z" />
    <glyph glyph-name="eight" unicode="8" horiz-adv-x="1277" 
d="M616 -29q-255 0 -406 121.5t-151 304.5q0 150 98 254.5t234 136.5q-73 44 -117.5 115.5t-44.5 159.5q0 176 146.5 287.5t374.5 111.5q217 0 356 -106.5t139 -272.5q0 -121 -74.5 -212.5t-185.5 -125.5q94 -42 150.5 -127.5t56.5 -195.5q0 -92 -40 -174t-113 -143.5
t-182.5 -97.5t-240.5 -36zM733 864q114 0 184 57.5t70 143.5q0 80 -67 133t-175 53q-113 0 -182 -58t-69 -142q0 -81 66 -134t173 -53zM629 657q-129 0 -210 -70t-81 -167q0 -98 79.5 -161.5t203.5 -63.5q129 0 210.5 70t81.5 169q0 94 -81 158.5t-203 64.5z" />
    <glyph glyph-name="nine" unicode="9" horiz-adv-x="1216" 
d="M473 -14l-205 18q-29 1 -34 27t20 43q90 63 275.5 219t277.5 266q-108 -61 -238 -61q-118 0 -220 50.5t-167 151t-65 230.5q0 110 43.5 208.5t119 169.5t181.5 112.5t225 41.5q233 0 385 -142t152 -359q0 -87 -24.5 -175.5t-63.5 -163.5t-98.5 -153t-116.5 -138
t-131 -125t-129 -108.5t-123 -93.5q-18 -12 -29.5 -15.5t-34.5 -2.5zM651 696q126 0 209.5 85.5t83.5 203.5q0 110 -75 178t-185 68q-126 0 -209.5 -85.5t-83.5 -203.5q0 -110 75.5 -178t184.5 -68z" />
    <glyph glyph-name="colon" unicode=":" horiz-adv-x="557" 
d="M319 618q-74 0 -121.5 53t-41.5 128t63 128.5t131 53.5t123 -53.5t43 -128.5t-64.5 -128t-132.5 -53zM201 -29q-73 0 -121.5 53.5t-42.5 127.5q6 75 63 128.5t131 53.5q75 0 123.5 -53.5t42.5 -128.5q-4 -73 -63.5 -127t-132.5 -54z" />
    <glyph glyph-name="semicolon" unicode=";" horiz-adv-x="565" 
d="M317 618q-74 0 -122.5 53t-42.5 128q8 75 64.5 128.5t131.5 53.5q74 0 123 -53.5t43 -128.5t-64.5 -128t-132.5 -53zM-2 -180l139 176q-48 20 -74 65t-20 99q6 75 60.5 124.5t132.5 49.5q77 0 128.5 -55.5t45.5 -141.5q-4 -56 -34.5 -117.5t-75.5 -112.5t-87 -89t-80 -64
q-66 -46 -106 -18l-21 16q-38 25 -8 68z" />
    <glyph glyph-name="less" unicode="&#x3c;" horiz-adv-x="1175" 
d="M1030 391l-33 -178q-7 -35 -34 -45t-50 6l-778 424q-31 17 -38 50.5t1 60.5q5 25 11 42t22.5 36.5t42.5 31.5l928 422q30 16 52 6t15 -45l-34 -209q-4 -22 -20 -35t-46 -26l-577 -238l493 -239q52 -27 45 -64z" />
    <glyph glyph-name="equal" unicode="=" horiz-adv-x="1251" 
d="M1155 825h-942q-19 0 -29 12t-6 31l29 170q5 19 20 32t33 13h942q18 0 28.5 -13.5t6.5 -31.5l-31 -170q-5 -19 -18.5 -31t-32.5 -12zM1073 350h-944q-18 0 -28.5 12.5t-6.5 30.5l31 170q5 19 19 32t32 13h942q18 0 28.5 -13.5t6.5 -31.5l-31 -170q-5 -19 -18.5 -31
t-30.5 -12z" />
    <glyph glyph-name="greater" unicode="&#x3e;" horiz-adv-x="1175" 
d="M84 213l35 209q4 23 20 36t45 25l578 238l-494 240q-25 13 -37 27t-8 36l35 178q7 35 33 45t49 -6l780 -424q29 -17 36 -49t-1 -61q-13 -82 -76 -111l-927 -422q-25 -15 -48.5 -4.5t-19.5 43.5z" />
    <glyph glyph-name="question" unicode="?" horiz-adv-x="1052" 
d="M659 1462q182 0 298 -101t116 -247q0 -71 -26.5 -136.5t-67 -113.5t-89.5 -96.5t-92 -85.5t-75.5 -81t-40.5 -83l-4 -18q-6 -37 -47 -37h-185q-18 0 -28 11.5t-6 29.5l8 49q11 62 52.5 125t92.5 113t100.5 97.5t83 97.5t33.5 95q0 59 -41.5 99.5t-111.5 40.5
q-123 0 -236 -140q-42 -53 -92 -10l-100 74q-50 35 8 110q175 207 450 207zM475 -25q-75 0 -123.5 53.5t-42.5 127.5q6 75 64 128.5t133 53.5q74 0 123 -53.5t43 -128.5q-4 -73 -64 -127t-133 -54z" />
    <glyph glyph-name="at" unicode="@" horiz-adv-x="1982" 
d="M1403 -178l82 -82q10 -11 9.5 -22t-11.5 -17q-211 -137 -518 -137q-195 0 -362 66t-282.5 180.5t-181 271.5t-65.5 336q0 147 36 283.5t101 247.5t156.5 202.5t201.5 154t238.5 96.5t263.5 34q172 0 326.5 -55.5t270.5 -155t184.5 -249.5t68.5 -329q0 -282 -133 -461.5
t-332 -179.5q-84 0 -141.5 38t-81.5 103q-56 -68 -135.5 -105.5t-169.5 -37.5q-168 0 -286 120.5t-118 301.5q0 116 40 217t105.5 168.5t150.5 106t175 38.5q101 0 178.5 -42t120.5 -113l15 80q9 39 45 39h147q19 0 30 -12t7 -29l-92 -535q-24 -135 63 -135q35 0 71 26.5
t69 77.5t54 141t21 203q0 137 -53 250.5t-143 187.5t-207 114t-248 40q-160 0 -304 -60.5t-249.5 -167t-168 -260t-62.5 -329.5q0 -142 53.5 -269t144.5 -218.5t218 -145t268 -53.5q202 0 368 80q14 6 20 8t18.5 0.5t23.5 -12.5zM979 221q109 0 183.5 87t74.5 206
q0 99 -57.5 163t-155.5 64q-107 0 -180.5 -86.5t-73.5 -205.5q0 -96 56.5 -162t152.5 -66z" />
    <glyph glyph-name="A" unicode="A" horiz-adv-x="1368" 
d="M907 580l-102 618l-305 -618h407zM385 348l-152 -309q-17 -39 -51 -39h-202q-25 0 -35 18.5t6 47.5l684 1325q21 43 59 43h299q39 0 47 -43l240 -1325q6 -30 -7.5 -48t-39.5 -18h-195q-35 0 -41 39l-51 309h-561z" />
    <glyph glyph-name="B" unicode="B" horiz-adv-x="1370" 
d="M791 0h-699q-19 0 -30 13t-7 30l238 1348q11 43 51 43h584q91 0 164 -20t120 -53t79 -78t45.5 -91.5t13.5 -95.5q0 -42 -13 -88.5t-40 -95.5t-78.5 -90t-118.5 -62q103 -47 154 -130.5t51 -180.5q0 -56 -17.5 -115t-57.5 -119.5t-98 -108t-146.5 -77t-194.5 -29.5z
M530 1219l-65 -371h358q118 0 181 57t63 148q0 74 -51 120t-142 46h-344zM354 215h414q115 0 184.5 69t69.5 169q0 86 -65 138t-166 52h-361z" />
    <glyph glyph-name="C" unicode="C" horiz-adv-x="1486" 
d="M375 662q0 -199 121 -325t307 -126q262 0 411 254q1 1 3.5 5.5t3.5 6t3.5 5.5t5 5.5t6 3.5t7 2t8.5 -0.5t11 -3.5l172 -75q33 -13 16 -47q-96 -190 -271 -294t-393 -104q-151 0 -280 52.5t-218 144t-139.5 218t-50.5 271.5q0 167 61.5 317t165.5 256.5t245 169t296 62.5
q255 0 435.5 -131.5t226.5 -353.5q7 -34 -31 -41l-174 -33q-38 -6 -47 25q-48 139 -150 216t-249 77q-139 0 -254.5 -75.5t-181.5 -203t-66 -278.5z" />
    <glyph glyph-name="D" unicode="D" horiz-adv-x="1497" 
d="M344 1434h428q166 0 301.5 -51t223.5 -139t136 -204t48 -249q0 -171 -67 -319.5t-181.5 -251t-271 -161.5t-332.5 -59h-537q-19 0 -30.5 14t-6.5 31l238 1346q5 18 19 30.5t32 12.5zM362 250h263q130 0 238.5 40.5t182 111.5t114 169t40.5 211q0 181 -117.5 291.5
t-326.5 110.5h-230z" />
    <glyph glyph-name="E" unicode="E" horiz-adv-x="1271" 
d="M344 1434h991q18 0 28.5 -13.5t6.5 -31.5l-29 -164q-10 -43 -51 -43h-764l-59 -338h397q19 0 30 -13t7 -32l-29 -156q-5 -19 -19 -32t-32 -13h-397l-62 -346h779q19 0 29 -12t6 -31l-29 -164q-11 -45 -51 -45h-1004q-19 0 -30 13t-7 32l238 1346q5 18 19 30.5t32 12.5z
" />
    <glyph glyph-name="F" unicode="F" horiz-adv-x="1208" 
d="M1028 733l-27 -158q-11 -45 -51 -45h-540l-86 -485q-5 -19 -19 -32t-31 -13h-182q-19 0 -30 13t-7 32l238 1346q1 17 16.5 30t34.5 13h950q18 0 28.5 -13.5t6.5 -31.5l-29 -164q-10 -43 -51 -43h-725l-71 -406h540q19 0 29 -12t6 -31z" />
    <glyph glyph-name="G" unicode="G" horiz-adv-x="1572" 
d="M1167 53l27 140q-166 -222 -461 -222q-137 0 -255.5 51t-202.5 139t-131.5 211t-47.5 263q0 168 60.5 320t164.5 263.5t253.5 177.5t318.5 66q242 0 419 -120.5t232 -309.5q14 -32 -26 -45l-168 -57q-33 -10 -47 24q-114 265 -408 265q-148 0 -268.5 -79t-186 -208.5
t-65.5 -280.5q0 -195 115 -317.5t307 -122.5q141 0 256 72t194 213h-403q-19 0 -29.5 13t-5.5 30l22 135q5 19 19 31t33 12h606q19 0 30 -12.5t7 -30.5l-111 -629q-11 -45 -53 -45h-154q-51 0 -41 53z" />
    <glyph glyph-name="H" unicode="H" horiz-adv-x="1511" 
d="M1536 1391l-238 -1346q-4 -20 -18 -32.5t-31 -12.5h-186q-18 0 -28.5 12.5t-6.5 32.5l98 553h-702l-98 -553q-6 -45 -50 -45h-184q-19 0 -30 12.5t-7 32.5l238 1346q10 43 51 43h182q19 0 30 -12.5t7 -30.5l-96 -547h704l95 547q10 43 51 43h182q19 0 30 -12.5t7 -30.5z
" />
    <glyph glyph-name="I" unicode="I" horiz-adv-x="536" 
d="M274 0h-184q-41 0 -35 45l238 1346q10 43 51 43h182q18 0 28.5 -12.5t6.5 -30.5l-237 -1346q-6 -45 -50 -45z" />
    <glyph glyph-name="J" unicode="J" horiz-adv-x="1206" 
d="M1243 1391l-166 -930q-41 -237 -186.5 -363.5t-374.5 -126.5q-89 0 -168.5 22t-143.5 66.5t-107 106t-59.5 146t-0.5 182.5l10 65q10 43 51 43h176q19 0 29 -12t6 -31l-14 -80q-20 -118 45 -192t188 -74q124 0 192.5 75t90.5 201l160 902q5 18 19 30.5t32 12.5h182
q18 0 29.5 -12.5t9.5 -30.5z" />
    <glyph glyph-name="K" unicode="K" horiz-adv-x="1327" 
d="M426 625l-102 -580q-5 -19 -18.5 -32t-31.5 -13h-184q-19 0 -29 13t-6 32l238 1346q2 17 16 30t33 13h184q18 0 27.5 -12.5t7.5 -30.5l-96 -541h164l508 547q19 21 36.5 29t45.5 8h219q25 0 30 -16.5t-12 -35.5l-612 -641l416 -688q9 -23 0 -38t-29 -15h-207
q-26 0 -40 7.5t-26 27.5l-342 590h-190z" />
    <glyph glyph-name="L" unicode="L" horiz-adv-x="1130" 
d="M1069 209l-31 -164q-1 -19 -16.5 -32t-34.5 -13h-895q-19 0 -30 13t-7 30l238 1346q1 19 16.5 32t34.5 13h182q18 0 28.5 -13.5t6.5 -31.5l-201 -1137h672q19 0 30 -12.5t7 -30.5z" />
    <glyph glyph-name="M" unicode="M" horiz-adv-x="1777" 
d="M684 1395l219 -774l479 774q23 39 70 39h313q19 0 30 -13t7 -30l-237 -1348q-5 -19 -18.5 -31t-30.5 -12h-183q-18 0 -28.5 12t-8.5 31l187 1049l-496 -770q-13 -25 -28 -34t-39 -9h-138q-24 0 -35.5 9t-17.5 34l-223 770l-184 -1049q-5 -19 -18.5 -31t-31.5 -12h-182
q-19 0 -29 12t-6 31l238 1348q5 18 19 30.5t32 12.5h287q43 0 53 -39z" />
    <glyph glyph-name="N" unicode="N" horiz-adv-x="1470" 
d="M948 43l-452 997l-174 -997q-1 -19 -15 -31t-33 -12h-182q-19 0 -30 12.5t-7 30.5l238 1348q2 17 16 30t33 13h221q40 0 55 -35l439 -983l170 975q5 18 19.5 30.5t31.5 12.5h182q18 0 28.5 -13t6.5 -30l-238 -1348q-5 -19 -18 -31t-31 -12h-182q-63 0 -78 43z" />
    <glyph glyph-name="O" unicode="O" horiz-adv-x="1585" 
d="M868 1462q155 0 286.5 -54t221 -147t139.5 -220.5t50 -272.5q0 -163 -58.5 -310t-159.5 -254t-245 -170t-307 -63q-154 0 -285 54.5t-220.5 148t-139.5 221t-50 271.5q0 218 98.5 400t275.5 289t394 107zM864 1219q-102 0 -192.5 -44t-155.5 -118t-103 -176t-38 -215
q0 -200 120 -325.5t306 -125.5q137 0 249 74.5t175 201t63 277.5q0 200 -120 325.5t-304 125.5z" />
    <glyph glyph-name="P" unicode="P" horiz-adv-x="1261" 
d="M741 492h-333l-80 -449q-6 -43 -49 -43h-187q-19 0 -30 13t-7 30l238 1348q1 17 16.5 30t34.5 13h490q118 0 210.5 -34t150 -93t87 -135t29.5 -164q0 -104 -38 -197t-108 -164.5t-180 -113t-244 -41.5zM451 733h284q134 0 212.5 68.5t78.5 185.5q0 97 -62.5 152
t-168.5 55h-263z" />
    <glyph glyph-name="Q" unicode="Q" horiz-adv-x="1585" 
d="M801 215q131 0 241 72l-268 248q-12 12 -11 29.5t13 31.5l92 100q14 14 33 15t31 -11l268 -251q88 144 88 319q0 200 -120 325.5t-304 125.5q-102 0 -192.5 -44t-155.5 -118t-103 -176t-38 -215q0 -200 120 -325.5t306 -125.5zM1362 -8l-127 117q-193 -138 -440 -138
q-154 0 -285 54.5t-220.5 148t-139.5 221t-50 271.5q0 218 98.5 400t275.5 289t394 107q155 0 286.5 -54t221 -147t139.5 -220.5t50 -272.5q0 -282 -166 -504l121 -112q13 -14 12.5 -31t-12.5 -31l-95 -98q-14 -13 -31.5 -12.5t-31.5 12.5z" />
    <glyph glyph-name="R" unicode="R" horiz-adv-x="1374" 
d="M453 772h348q139 0 210.5 67.5t71.5 166.5q0 86 -57 137t-154 51h-346zM414 549l-90 -504q-2 -19 -16 -32t-34 -13h-182q-19 0 -30 12.5t-7 30.5l238 1348q2 18 15.5 30.5t35.5 12.5h576q206 0 327 -111t121 -283q0 -45 -8.5 -90.5t-34 -102.5t-66 -104t-112.5 -89
t-166 -64l283 -533q11 -19 -1 -38t-38 -19h-191q-28 0 -39 9t-24 36l-260 504h-297z" />
    <glyph glyph-name="S" unicode="S" horiz-adv-x="1251" 
d="M719 1462q130 0 243 -37t181 -85.5t114 -106.5q19 -23 20 -43t-6.5 -31t-23.5 -26l-92 -76q-19 -15 -36 -16t-30 7t-30 25q-78 77 -160 114.5t-192 37.5q-114 0 -181 -48.5t-67 -127.5q0 -94 139 -146l260 -96q328 -117 328 -385q0 -61 -18.5 -121.5t-61.5 -120.5
t-106 -106t-161 -74.5t-218 -28.5q-107 0 -204 23t-169 62t-125 82.5t-90 92.5q-47 59 20 113l82 70q23 19 42.5 21t35 -7.5t33.5 -30.5q34 -38 67 -67t80 -59t106.5 -46t127.5 -16q130 0 198 57t68 133q0 109 -184 174l-240 86q-143 51 -222 144t-79 211q0 92 36.5 173
t104.5 142.5t173.5 97t236.5 35.5z" />
    <glyph glyph-name="T" unicode="T" horiz-adv-x="1247" 
d="M152 1225l28 164q1 19 15.5 32t31.5 13h1116q19 0 30 -13t7 -32l-28 -164q-10 -43 -52 -43h-419l-201 -1137q-6 -45 -51 -45h-191q-19 0 -29 13t-6 32l201 1137h-420q-18 0 -27 12.5t-5 30.5z" />
    <glyph glyph-name="U" unicode="U" horiz-adv-x="1423" 
d="M1464 1391l-155 -879q-48 -271 -219 -406t-437 -135q-118 0 -222 35.5t-180.5 101.5t-111.5 170.5t-14 231.5l156 881q5 18 19 30.5t32 12.5h184q19 0 30 -13t7 -30l-152 -863q-26 -141 52 -224t229 -83q146 0 237.5 81t116.5 226l152 863q5 18 19 30.5t32 12.5h188
q19 0 30 -13t7 -30z" />
    <glyph glyph-name="V" unicode="V" horiz-adv-x="1359" 
d="M731 0h-274q-15 0 -29 11t-18 32l-236 1325q-6 30 8.5 48t38.5 18h209q33 0 39 -39l174 -1100h6l547 1100q24 39 51 39h226q24 0 31 -17.5t-9 -46.5l-700 -1327q-11 -21 -29.5 -32t-34.5 -11z" />
    <glyph glyph-name="W" unicode="W" horiz-adv-x="2041" 
d="M1112 1001l-395 -958q-19 -43 -62 -43h-301q-16 0 -31 11t-16 32l-125 1325q-4 30 13.5 48t42.5 18h198q35 0 39 -43l82 -1078l453 1082q9 20 19.5 29.5t31.5 9.5h223q18 0 29.5 -10.5t13.5 -28.5l117 -1073l432 1069q6 18 20 30.5t31 12.5h203q28 0 37.5 -14.5
t-4.5 -51.5l-578 -1325q-9 -20 -29.5 -31.5t-31.5 -11.5h-267q-41 0 -49 43z" />
    <glyph glyph-name="X" unicode="X" horiz-adv-x="1277" 
d="M651 522l-395 -487q-31 -35 -66 -35h-239q-29 0 -33.5 21t14.5 38l580 686l-326 629q-10 23 2 41.5t37 18.5h207q23 0 34 -8t19 -27l228 -471l377 471q27 35 59 35h235q29 0 35.5 -19.5t-12.5 -38.5l-551 -665l340 -652q11 -21 -1 -40t-40 -19h-209q-23 0 -32.5 8.5
t-18.5 28.5z" />
    <glyph glyph-name="Y" unicode="Y" horiz-adv-x="1318" 
d="M666 0h-185q-19 0 -30 13t-7 32l99 551l-357 774q-10 23 2.5 43.5t36.5 20.5h205q36 0 47 -33l238 -559h4l420 559q26 33 55 33h229q25 0 32.5 -19t-13.5 -45l-633 -788l-94 -537q-5 -19 -18.5 -32t-30.5 -13z" />
    <glyph glyph-name="Z" unicode="Z" horiz-adv-x="1230" 
d="M1067 0h-1073q-20 0 -31 13t-6 32l23 123q7 32 38 63l902 959h-672q-18 0 -28.5 13t-6.5 30l27 156q5 19 19 32t32 13h981q19 0 29 -13t6 -32l-25 -144q-9 -33 -33 -61l-878 -940h739q18 0 28.5 -12.5t6.5 -30.5l-29 -156q-5 -19 -18.5 -32t-30.5 -13z" />
    <glyph glyph-name="bracketleft" unicode="[" horiz-adv-x="698" 
d="M848 1493l-21 -113q-5 -19 -18.5 -31t-32.5 -12h-231l-238 -1353h232q19 0 28.5 -12t5.5 -29l-20 -113q-5 -19 -18 -31t-31 -12h-441q-18 0 -29 12t-7 29l295 1667q5 18 18.5 29.5t30.5 11.5h440q19 0 30 -13t7 -30z" />
    <glyph glyph-name="backslash" unicode="\" horiz-adv-x="1189" 
d="M406 1401l653 -1342q12 -20 3.5 -39.5t-36.5 -19.5h-111q-25 0 -36 8t-19 27l-645 1341q-12 23 -3.5 40.5t36.5 17.5h108q20 0 29.5 -7t20.5 -26z" />
    <glyph glyph-name="bracketright" unicode="]" horiz-adv-x="698" 
d="M-88 -170l20 113q5 19 19 31t33 12h231l238 1353h-232q-19 0 -29 12t-6 29l21 113q5 19 18 31t31 12h440q18 0 29.5 -12t7.5 -29l-295 -1667q-5 -18 -18.5 -29.5t-30.5 -11.5h-440q-19 0 -30 13t-7 30z" />
    <glyph glyph-name="asciicircum" unicode="^" horiz-adv-x="1146" 
d="M311 434h-205q-29 0 -37 18t9 44l495 895q24 43 62 43h219q37 0 47 -43l176 -895q5 -27 -8 -44.5t-43 -17.5h-182q-47 0 -51 41l-97 627l-319 -627q-9 -14 -15 -21.5t-19.5 -13.5t-31.5 -6z" />
    <glyph glyph-name="underscore" unicode="_" horiz-adv-x="663" 
d="M457 -365h-555q-18 0 -28.5 14t-6.5 32l29 157q5 19 18.5 31t32.5 12h555q19 0 30 -12.5t7 -30.5l-29 -157q-5 -20 -19 -33t-34 -13z" />
    <glyph glyph-name="grave" unicode="`" horiz-adv-x="536" 
d="M190 1497h222q38 0 53 -37l104 -307q15 -59 -47 -59h-119q-30 0 -51 30l-200 310q-13 23 -2.5 43t40.5 20z" />
    <glyph glyph-name="a" unicode="a" 
d="M555 201q122 0 205.5 95t83.5 228q0 111 -66.5 183.5t-175.5 72.5q-123 0 -205 -95t-82 -228q0 -108 65 -182t175 -74zM53 434q0 127 43.5 238t115.5 185t165.5 116.5t193.5 42.5q111 0 198 -46.5t132 -125.5l17 100q8 43 47 43h176q18 0 28.5 -13t6.5 -30l-160 -903
q-5 -18 -18.5 -29.5t-30.5 -11.5h-174q-19 0 -29 12t-6 29l14 78q-46 -64 -124 -106t-181 -42q-182 0 -298 131.5t-116 331.5z" />
    <glyph glyph-name="b" unicode="b" horiz-adv-x="1191" 
d="M307 1434h174q18 0 28.5 -12t6.5 -29l-92 -510q46 56 122.5 93.5t174.5 37.5q178 0 299 -130t121 -327q0 -129 -42 -239.5t-112.5 -186t-165 -118t-198.5 -42.5q-111 0 -197 46.5t-131 125.5l-19 -102q-9 -41 -47 -41h-176q-18 0 -27.5 12t-5.5 29l238 1352q11 41 49 41z
M639 782q-122 0 -205.5 -95t-83.5 -228q0 -110 67.5 -183t176.5 -73q121 0 203 95t82 228q0 108 -65 182t-175 74z" />
    <glyph glyph-name="c" unicode="c" horiz-adv-x="1042" 
d="M956 166q-153 -195 -415 -195q-217 0 -351.5 136.5t-134.5 341.5q0 243 153 405t380 162q170 0 284.5 -73.5t159.5 -184.5q7 -18 -2 -36.5t-29 -29.5l-114 -61q-41 -24 -68 20q-78 129 -225 129q-117 0 -198 -94.5t-81 -226.5q0 -111 66 -182.5t170 -71.5q65 0 117 26
t104 84q34 39 76 7l102 -78q17 -13 18 -37t-12 -41z" />
    <glyph glyph-name="d" unicode="d" 
d="M555 201q122 0 205.5 95t83.5 228q0 111 -66.5 183.5t-175.5 72.5q-123 0 -205 -95t-82 -228q0 -108 65 -182t175 -74zM758 41l14 78q-46 -64 -124 -106t-181 -42q-182 0 -298 131.5t-116 331.5q0 127 43.5 238t115.5 185t165.5 116.5t193.5 42.5q111 0 197 -46.5
t131 -125.5l94 549q10 41 47 41h181q18 0 27 -11.5t5 -29.5l-237 -1352q-5 -18 -18.5 -29.5t-30.5 -11.5h-174q-19 0 -29 12t-6 29z" />
    <glyph glyph-name="e" unicode="e" horiz-adv-x="1097" 
d="M539 -29q-223 0 -355.5 134t-132.5 339q0 156 71.5 287t199.5 208t284 77q115 0 208 -42t149 -110.5t84 -153.5t22 -175l-4 -56q-3 -51 -57 -51h-699v-8q0 -99 64.5 -161t163.5 -62q131 0 237 102q29 29 60 10l124 -84q16 -10 18 -28.5t-7 -28.5q-61 -85 -169.5 -141
t-260.5 -56zM598 809q-90 0 -163.5 -60t-102.5 -163h485q0 109 -63 166t-156 57z" />
    <glyph glyph-name="f" unicode="f" horiz-adv-x="708" 
d="M154 987h131l28 156q31 176 130.5 259t248.5 83q68 0 138.5 -24.5t117.5 -65.5q28 -28 2 -66l-84 -112q-29 -41 -78 -3q-47 33 -88 33q-111 0 -133 -129l-22 -131h190q19 0 30 -12.5t7 -30.5l-24 -135q-5 -19 -19 -31t-33 -12h-190l-127 -723q-5 -18 -18 -30.5t-31 -12.5
h-174q-18 0 -28.5 13t-6.5 30l127 723h-133q-17 0 -27 13t-6 30l24 137q5 18 18 29.5t30 11.5z" />
    <glyph glyph-name="g" unicode="g" horiz-adv-x="1189" 
d="M557 229q122 0 204.5 89.5t82.5 220.5q0 110 -67.5 179.5t-176.5 69.5q-120 0 -199 -91t-79 -218q0 -108 63 -179t172 -71zM430 -477q-95 0 -179 23.5t-142 62t-97 81t-59 85.5q-6 17 -7 29t5.5 20.5t11.5 12.5t17 11l122 68q14 9 26 10t21.5 -6t12.5 -11t10 -13
q97 -142 279 -142q120 0 193 65t95 167l31 141q-41 -50 -117.5 -83.5t-171.5 -33.5q-181 0 -302.5 127t-121.5 322q0 122 41 227.5t110.5 177t161.5 112t193 40.5q114 0 201.5 -46.5t132.5 -125.5l18 100q8 43 48 43h176q17 0 26.5 -13t5.5 -30l-174 -960
q-39 -220 -184 -340.5t-383 -120.5z" />
    <glyph glyph-name="h" unicode="h" horiz-adv-x="1171" 
d="M356 479l-77 -440q-4 -18 -18 -28.5t-32 -10.5h-176q-18 0 -27.5 12t-5.5 29l238 1352q10 41 47 41h178q18 0 28.5 -11t6.5 -28l-92 -518q52 63 131.5 101t173.5 38q124 0 214.5 -54.5t132.5 -162.5t18 -252l-90 -508q-4 -18 -18 -28.5t-32 -10.5h-174q-18 0 -28 11
t-6 28l83 477q24 121 -23.5 189.5t-162.5 68.5q-110 0 -187 -79.5t-102 -215.5z" />
    <glyph glyph-name="i" unicode="i" horiz-adv-x="456" 
d="M356 1116q-67 0 -111 49t-38 117t58 117t118 49q67 0 111 -49t38 -117t-58 -117t-118 -49zM231 0h-178q-17 0 -27 13t-6 30l160 901q5 19 18.5 31t30.5 12h177q18 0 27 -12.5t5 -30.5l-159 -901q-1 -17 -16 -30t-32 -13z" />
    <glyph glyph-name="j" unicode="j" horiz-adv-x="458" 
d="M354 1116q-67 0 -111 49t-38 117t58 117t118 49q67 0 111 -49t38 -117t-58 -117t-118 -49zM-6 -111l186 1055q5 18 18.5 30.5t30.5 12.5h177q17 0 27.5 -13t6.5 -30l-190 -1079q-31 -175 -131.5 -258.5t-249.5 -83.5q-68 0 -138.5 24.5t-117.5 65.5q-27 27 -2 65l84 113
q28 41 78 2q47 -33 88 -33q111 0 133 129z" />
    <glyph glyph-name="k" unicode="k" horiz-adv-x="1038" 
d="M346 426l-67 -385q-2 -17 -15.5 -29t-32.5 -12h-176q-41 0 -35 41l238 1352q4 19 18 30t31 11h176q19 0 29 -12t6 -29l-135 -762h86l303 325q25 31 59 31h203q29 0 35.5 -20t-12.5 -43l-381 -392l293 -466q14 -23 2 -44.5t-41 -21.5h-176q-28 0 -39.5 7.5t-22.5 27.5
l-235 391h-111z" />
    <glyph glyph-name="l" unicode="l" horiz-adv-x="544" 
d="M387 0h-117q-126 0 -182 66t-35 180l203 1145q5 19 17.5 31t29.5 12h178q18 0 27.5 -12.5t5.5 -30.5l-192 -1094q-6 -36 7.5 -57t45.5 -21h65q41 0 33 -39l-22 -131q-10 -49 -64 -49z" />
    <glyph glyph-name="m" unicode="m" horiz-adv-x="1820" 
d="M365 524l-86 -485q-4 -18 -18 -28.5t-32 -10.5h-176q-18 0 -27.5 12t-5.5 29l160 903q10 43 47 43h179q18 0 27 -11t5 -28l-12 -78q128 146 311 146q103 0 179 -47.5t106 -126.5q150 174 364 174q101 0 180 -35.5t123.5 -94.5t61.5 -134.5t2 -155.5l-100 -557
q-4 -18 -17.5 -28.5t-31.5 -10.5h-174q-18 0 -28.5 11t-6.5 28l88 496q19 106 -27 171.5t-147 65.5q-104 0 -169.5 -66t-86.5 -176l-88 -491q-4 -18 -18 -28.5t-32 -10.5h-174q-18 0 -28 11t-6 28l88 496q19 106 -27 171.5t-147 65.5q-105 0 -170.5 -68.5t-85.5 -179.5z" />
    <glyph glyph-name="n" unicode="n" horiz-adv-x="1171" 
d="M748 39l83 477q24 121 -23.5 189.5t-162.5 68.5q-111 0 -187.5 -79t-101.5 -216l-77 -440q-4 -18 -18 -28.5t-32 -10.5h-176q-18 0 -27.5 12t-5.5 29l160 903q10 43 47 43h170q18 0 28.5 -11t6.5 -28l-14 -78q46 61 128.5 103.5t184.5 42.5q124 0 214.5 -54.5
t132.5 -162.5t18 -252l-90 -508q-4 -18 -18 -28.5t-32 -10.5h-174q-18 0 -28 11t-6 28z" />
    <glyph glyph-name="o" unicode="o" horiz-adv-x="1144" 
d="M604 1016q210 0 350 -137t140 -347q0 -154 -72 -282.5t-198.5 -203.5t-280.5 -75q-208 0 -349 137.5t-141 346.5q0 154 72 282.5t198.5 203.5t280.5 75zM594 782q-120 0 -201.5 -93t-81.5 -224q0 -118 70 -190t172 -72q120 0 201.5 93t81.5 224q0 120 -69.5 191
t-172.5 71z" />
    <glyph glyph-name="p" unicode="p" 
d="M641 780q-122 0 -205.5 -95.5t-83.5 -227.5q0 -110 67.5 -183t176.5 -73q121 0 203 94.5t82 226.5q0 109 -65 183.5t-175 74.5zM297 143l-96 -542q-5 -18 -17.5 -29.5t-29.5 -11.5h-177q-17 0 -26.5 12t-5.5 29l235 1343q5 19 18 31t31 12h174q18 0 28.5 -13t6.5 -30
l-14 -76q43 63 124 104.5t175 41.5q179 0 299.5 -130t120.5 -327q0 -129 -42 -239.5t-112.5 -186t-165 -118t-198.5 -42.5q-111 0 -197 46.5t-131 125.5z" />
    <glyph glyph-name="q" unicode="q" 
d="M889 -440h-176q-19 0 -29 12t-6 29l92 503q-111 -133 -297 -133q-179 0 -299.5 132.5t-120.5 330.5q0 128 43 238t114.5 184.5t165.5 117t195 42.5q111 0 198 -46.5t132 -125.5l17 100q8 43 47 43h176q18 0 28.5 -12.5t6.5 -30.5l-240 -1343q-1 -17 -15.5 -29t-31.5 -12z
M555 201q122 0 205.5 95t83.5 228q0 111 -66.5 183.5t-175.5 72.5q-123 0 -205 -95t-82 -228q0 -108 65 -182t175 -74z" />
    <glyph glyph-name="r" unicode="r" horiz-adv-x="704" 
d="M686 999h37q47 0 39 -49l-33 -182q-10 -49 -59 -49h-58q-212 0 -258 -242l-75 -438q-6 -39 -50 -39h-176q-19 0 -28.5 12t-4.5 29l160 903q10 43 47 43h158q17 0 27.5 -11t9.5 -28l-25 -127q45 82 122 130t167 48z" />
    <glyph glyph-name="s" unicode="s" horiz-adv-x="946" 
d="M88 694q0 142 113 232t297 90q123 0 229 -38t176 -99q42 -40 -6 -88l-68 -68q-23 -23 -43 -24.5t-49 18.5q-66 45 -121 68.5t-120 23.5q-66 0 -108 -25t-42 -63q0 -34 24.5 -53t84.5 -37l135 -41q140 -42 211.5 -111.5t72.5 -175.5q0 -139 -109.5 -235.5t-311.5 -96.5
q-122 0 -231 39t-173 96q-42 40 -44.5 71t28.5 59l47 45q54 53 106 10q136 -113 275 -113q71 0 113 25t42 67q0 43 -36 66t-115 47l-131 39q-243 71 -246 272z" />
    <glyph glyph-name="t" unicode="t" horiz-adv-x="788" 
d="M668 225l45 -102q18 -44 -27 -70q-115 -76 -272 -76q-61 0 -112.5 19.5t-91 57.5t-56 102t-2.5 147l81 463h-131q-19 0 -29 13t-5 30l24 135q9 43 49 43h131l50 275q5 19 18.5 31t32.5 12h174q19 0 29 -12t6 -31l-50 -275h263q18 0 29 -12t7 -31l-24 -137
q-11 -41 -49 -41h-264l-74 -416q-16 -71 4 -102t57 -31q11 0 20 0.5t18 3t15 4t16 5.5t14.5 6t17.5 8.5t18 9.5q46 20 68 -29z" />
    <glyph glyph-name="u" unicode="u" horiz-adv-x="1142" 
d="M432 948l-92 -512q-20 -116 26.5 -177.5t151.5 -61.5q106 0 172.5 65.5t87.5 179.5l90 506q4 17 18.5 28t31.5 11h176q17 0 25.5 -12t4.5 -31l-157 -903q-10 -41 -47 -41h-175q-18 0 -29 11t-7 28l16 78q-115 -146 -313 -146q-180 0 -274 123t-62 312l96 542
q5 17 17.5 28t29.5 11h176q17 0 27.5 -11t9.5 -28z" />
    <glyph glyph-name="v" unicode="v" horiz-adv-x="1030" 
d="M555 0h-262q-37 0 -47 43l-142 881q-5 25 10 44t40 19h184q37 0 41 -41l90 -678l328 678q18 41 59 41h199q24 0 32 -19t-4 -44l-465 -881q-24 -43 -63 -43z" />
    <glyph glyph-name="w" unicode="w" horiz-adv-x="1550" 
d="M797 592l-250 -549q-8 -19 -25 -31t-37 -12h-204q-38 0 -48 43l-139 885q-4 28 9.5 43.5t39.5 15.5h181q39 0 43 -41l75 -631l289 631q18 41 60 41h157q40 0 43 -43l70 -629l289 631q18 41 57 41h168q24 0 32 -15t-3 -44l-435 -885q-24 -43 -61 -43h-201q-20 0 -31.5 12
t-13.5 31z" />
    <glyph glyph-name="x" unicode="x" horiz-adv-x="1005" 
d="M471 324l-240 -289q-26 -35 -65 -35h-203q-23 0 -28 17t12 36l401 477l-237 404q-11 17 -1 35t33 18h183q41 0 59 -35l158 -266l217 266q16 22 30 28.5t35 6.5h197q23 0 27.5 -18t-13.5 -35l-374 -449l258 -432q11 -19 -0.5 -36t-34.5 -17h-191q-32 0 -53 35z" />
    <glyph glyph-name="y" unicode="y" horiz-adv-x="1032" 
d="M135 -477q-92 0 -164 29.5t-112 74.5q-35 35 0 82l63 78q36 45 86 12q66 -49 131 -49q97 0 152 107l74 143h-93q-37 0 -43 39l-131 885q-5 28 8.5 45.5t47.5 17.5h188q17 0 27 -12t12 -31l84 -719l326 719q19 43 57 43h207q52 0 26 -63l-542 -1108q-67 -144 -163 -218.5
t-241 -74.5z" />
    <glyph glyph-name="z" unicode="z" horiz-adv-x="952" 
d="M913 774l-563 -547h471q18 0 27.5 -12t5.5 -29l-27 -147q-5 -17 -17.5 -28t-29.5 -11h-778q-18 0 -28.5 13t-6.5 30l23 121q6 27 28 49l568 547h-428q-19 0 -28.5 13t-4.5 30l25 143q5 18 17.5 29.5t29.5 11.5h733q18 0 28.5 -13t6.5 -30l-23 -121q-7 -27 -29 -49z" />
    <glyph glyph-name="braceleft" unicode="{" horiz-adv-x="704" 
d="M453 471l-70 -403q-7 -44 7.5 -63t53.5 -19h97q18 0 28 -12.5t6 -30.5l-20 -111q-5 -19 -18.5 -31t-30.5 -12h-172q-134 0 -191.5 60.5t-33.5 195.5l79 461q7 42 -6 58t-49 16h-31q-18 0 -30.5 12t-8.5 39l17 96q5 27 22 39t35 12h31q37 0 56 16.5t26 57.5l76 428
q24 138 94 197t201 59h192q18 0 28.5 -13t6.5 -30l-19 -113q-5 -18 -19.5 -30.5t-31.5 -12.5h-96q-40 0 -61.5 -18t-28.5 -64l-66 -368q-8 -48 -29 -86.5t-41.5 -59t-50 -36.5t-41 -19.5t-26.5 -7.5q7 0 21.5 -5.5t35.5 -19t36.5 -37t24 -59.5t-2.5 -86z" />
    <glyph glyph-name="bar" unicode="|" horiz-adv-x="602" 
d="M406 -256h-127q-17 0 -30 13t-13 30v1862q0 17 13 29t30 12h127q19 0 31 -12t12 -29v-1862q0 -18 -12.5 -30.5t-30.5 -12.5z" />
    <glyph glyph-name="braceright" unicode="}" horiz-adv-x="702" 
d="M174 68l70 403q9 47 30 85.5t44.5 60t48.5 36.5t41 20t24 5q-51 19 -76 45q-56 59 -39 164l66 368q7 46 -7.5 64t-53.5 18h-97q-18 0 -28.5 13t-6.5 30l19 113q5 18 19.5 30.5t31.5 12.5h172q134 0 191.5 -60.5t33.5 -195.5l-75 -428q-7 -41 6.5 -57.5t50.5 -16.5h31
q18 0 30 -12t7 -39l-17 -96q-4 -27 -20.5 -39t-34.5 -12h-31q-37 0 -57 -16.5t-27 -57.5l-80 -461q-24 -138 -94 -197t-201 -59h-192q-18 0 -29.5 12.5t-7.5 30.5l21 111q4 19 19 31t32 12h96q39 0 61 19.5t29 62.5z" />
    <glyph glyph-name="asciitilde" unicode="~" horiz-adv-x="1214" 
d="M895 805q35 0 62.5 13t51.5 30.5t42 23.5q36 9 55 -22l47 -80q17 -33 6 -65q-23 -49 -95 -100.5t-163 -51.5q-57 0 -267.5 37t-238.5 37q-35 0 -62 -13t-51 -31t-42 -24q-36 -9 -56 23l-47 80q-17 33 -6 65q23 49 95 100.5t163 51.5q52 0 262.5 -37t243.5 -37z" />
    <glyph glyph-name="uni00A0" unicode="&#xa0;" horiz-adv-x="1024" 
 />
    <glyph glyph-name="exclamdown" unicode="&#xa1;" horiz-adv-x="538" 
d="M340 1016q75 0 123.5 -53t42.5 -127q-6 -75 -64 -129t-133 -54t-123.5 54t-42.5 129q8 74 65 127t132 53zM-18 -403l155 862q5 18 18.5 30.5t30.5 12.5h181q17 0 27.5 -13t6.5 -30l-147 -862q-1 -17 -16.5 -30t-32.5 -13h-189q-17 0 -27.5 13t-6.5 30z" />
    <glyph glyph-name="cent" unicode="&#xa2;" horiz-adv-x="1112" 
d="M344 459q0 -77 35.5 -139t95.5 -93l98 549q-99 -20 -164 -109.5t-65 -207.5zM580 -29l-25 -141q-3 -29 -37 -29h-90q-25 0 -22 29l28 158q-161 39 -255.5 165.5t-94.5 295.5q0 160 70 290.5t191.5 203.5t270.5 73l27 153q3 29 33 29h92q28 0 25 -29l-31 -170
q111 -28 186 -92t113 -149q7 -18 -2 -36.5t-29 -29.5l-115 -61q-40 -23 -67 20q-56 88 -127 113l-98 -555q96 12 178 106q34 39 76 7l102 -78q17 -13 18 -37t-12 -41q-153 -195 -405 -195z" />
    <glyph glyph-name="sterling" unicode="&#xa3;" horiz-adv-x="1241" 
d="M1124 215l-30 -172q-5 -19 -19 -31t-33 -12h-1001q-17 0 -28 13t-9 32l33 172q10 41 51 41h123l53 297h-125q-19 0 -30 13t-7 30l25 137q5 19 19 32t32 13h125l37 205q42 227 175 352t345 125q151 0 266.5 -75.5t159.5 -184.5q18 -39 -29 -65l-120 -66q-50 -28 -78 19
q-35 58 -87.5 93.5t-117.5 35.5q-195 0 -248 -261l-33 -178h322q19 0 29 -13t6 -32l-25 -137q-5 -18 -18 -30.5t-31 -12.5h-321l-54 -297h606q19 0 30 -12.5t7 -30.5z" />
    <glyph glyph-name="currency" unicode="&#xa4;" horiz-adv-x="1697" 
d="M889 1159q-128 0 -234 -69l234 -236l231 236q-106 69 -231 69zM758 717l-232 237q-71 -103 -71 -237q0 -135 71 -238zM1321 717q0 133 -70 237l-233 -237l233 -238q70 104 70 238zM889 274q124 0 231 70l-231 236l-234 -236q107 -70 234 -70zM500 188l-146 -145
q-14 -13 -32 -13t-31 13l-72 70q-31 31 0 61l141 141q-139 182 -139 402q0 219 139 401l-141 142q-31 30 0 61l72 70q34 34 63 0l146 -146q174 121 389 121q218 0 387 -121l147 146q14 13 32 12.5t30 -12.5l74 -70q12 -12 11 -30t-14 -31l-143 -144q141 -181 141 -399
q-3 -229 -141 -400l143 -143q13 -13 14 -31t-11 -30l-74 -70q-12 -12 -30 -12.5t-32 12.5l-147 145q-167 -120 -387 -120q-217 0 -389 120z" />
    <glyph glyph-name="yen" unicode="&#xa5;" horiz-adv-x="1394" 
d="M805 348l-53 -303q-5 -19 -19 -32t-31 -13h-184q-19 0 -30 13t-7 32l54 303h-334q-19 0 -30 13t-7 32l18 103q5 20 18.5 32.5t32.5 12.5h336l11 55l-39 84h-281q-20 0 -31 13t-6 32l19 102q5 20 18.5 32.5t32.5 12.5h160l-230 498q-10 23 2.5 43.5t36.5 20.5h205
q36 0 47 -33l238 -559h4l420 559q26 33 55 33h229q25 0 32.5 -19t-13.5 -45l-400 -498h152q19 0 30 -12.5t7 -32.5l-19 -104q-10 -43 -53 -43h-270l-80 -98l-8 -41h333q19 0 30 -12.5t7 -32.5l-18 -105q-10 -43 -53 -43h-332z" />
    <glyph glyph-name="brokenbar" unicode="&#xa6;" horiz-adv-x="595" 
d="M444 1649v-734q0 -17 -12 -29t-31 -12h-127q-19 0 -31 12t-12 29v734q0 17 12 29t31 12h127q19 0 31 -12t12 -29zM444 518v-731q0 -18 -12.5 -30.5t-30.5 -12.5h-127q-18 0 -30.5 12.5t-12.5 30.5v731q0 19 12 31t31 12h127q19 0 31 -12t12 -31z" />
    <glyph glyph-name="section" unicode="&#xa7;" horiz-adv-x="1564" 
d="M584 489l309 -178q105 -59 168 -141q129 50 135 162q10 76 -40 131.5t-159 118.5l-309 178q-105 59 -168 141q-129 -50 -135 -162q-10 -76 40 -131.5t159 -118.5zM1130 -113q-26 -183 -165.5 -292.5t-362.5 -102.5q-162 4 -281.5 73.5t-177.5 160.5q-38 60 15 98l104 78
q49 36 90 -15q62 -75 122.5 -111t139.5 -40q95 -4 157 44t67 118q6 63 -31.5 112.5t-134.5 104.5l-318 184q-289 174 -256 436q19 121 105 222.5t243 152.5q0 52 5 74q25 183 166 292.5t362 102.5q162 -4 281.5 -73t177.5 -160q38 -61 -15 -99l-104 -78q-49 -36 -90 15
q-62 75 -122.5 111t-139.5 40q-95 4 -157 -43.5t-67 -117.5q-6 -63 31.5 -113t134.5 -105l318 -184q289 -174 256 -436q-19 -121 -105 -222.5t-243 -152.5q0 -51 -5 -74z" />
    <glyph glyph-name="dieresis" unicode="&#xa8;" horiz-adv-x="862" 
d="M170 1253q6 69 59 118.5t119 49.5q69 0 113.5 -49.5t38.5 -118.5t-59.5 -118.5t-121.5 -49.5q-67 0 -111 49.5t-38 118.5zM602 1253q6 69 58.5 118.5t119.5 49.5q68 0 113 -49.5t39 -118.5t-59 -118.5t-121 -49.5t-112 49.5t-38 118.5z" />
    <glyph glyph-name="copyright" unicode="&#xa9;" horiz-adv-x="1873" 
d="M123 717q0 173 67 328t181 266t272.5 176t335.5 65q176 0 334 -65t272 -176t181 -266t67 -328q0 -231 -113.5 -422.5t-309.5 -301.5t-431 -110q-236 0 -432.5 110t-310 301.5t-113.5 422.5zM1671 717q0 193 -91 352t-249.5 250.5t-351.5 91.5t-352.5 -91.5t-250.5 -250.5
t-91 -352t91 -351.5t250 -249.5t353 -91q193 0 351.5 91t249.5 249.5t91 351.5zM471 719q0 213 145.5 355.5t362.5 142.5q144 0 256 -64.5t172 -169.5q10 -21 2 -41t-27 -31l-112 -67q-49 -32 -84 12q-47 60 -91.5 87.5t-111.5 27.5q-108 0 -176 -72t-68 -180t68 -180
t176 -72q67 0 111.5 27.5t91.5 87.5q35 44 84 12l112 -68q20 -11 27.5 -30.5t-2.5 -40.5q-60 -105 -172 -169.5t-256 -64.5q-217 0 -362.5 142.5t-145.5 355.5z" />
    <glyph glyph-name="ordfeminine" unicode="&#xaa;" horiz-adv-x="997" 
d="M563 1288q-77 0 -129.5 -55.5t-52.5 -134.5q0 -80 52.5 -135.5t129.5 -55.5t128.5 55.5t51.5 135.5q0 79 -51.5 134.5t-128.5 55.5zM745 780v45q-30 -44 -85 -70t-123 -26q-144 0 -247.5 104t-103.5 265q0 163 104.5 265.5t246.5 102.5q70 0 124 -25.5t84 -68.5v41
q0 33 33 33h123q33 0 33 -33v-633q0 -32 -33 -32h-123q-33 0 -33 32zM899 471h-627q-34 0 -34 35v115q0 34 34 34h627q15 0 25 -9t10 -25v-115q0 -16 -10.5 -25.5t-24.5 -9.5z" />
    <glyph glyph-name="guillemotleft" unicode="&#xab;" horiz-adv-x="1071" 
d="M442 27h-116q-23 0 -34.5 6t-21.5 28l-202 424q-14 33 12 66l313 391q30 35 64 35h149q18 0 25 -16.5t-6 -36.5l-283 -422l137 -422q6 -20 -6.5 -36.5t-30.5 -16.5zM883 27h-117q-21 0 -33 6t-22 28l-201 424q-11 32 10 66l316 391q30 35 63 35h150q18 0 24 -16.5
t-6 -36.5l-285 -422l138 -422q6 -20 -6 -36.5t-31 -16.5z" />
    <glyph glyph-name="logicalnot" unicode="&#xac;" horiz-adv-x="1218" 
d="M1184 1026l-109 -620q-5 -19 -19 -31.5t-32 -12.5h-182q-19 0 -29 12.5t-6 31.5l70 405h-719q-19 0 -29 12t-6 31l31 172q5 19 19 32t32 13h944q19 0 29 -13t6 -32z" />
    <glyph glyph-name="registered" unicode="&#xae;" horiz-adv-x="1851" 
d="M123 717q0 173 66 328t179 266t269 176t330 65q173 0 329 -65t268 -176t178 -266t66 -328t-66 -328t-178 -265.5t-268 -175.5t-329 -65q-174 0 -330 65t-269 176t-179 265.5t-66 327.5zM1649 717q0 193 -89.5 352t-246 250.5t-346.5 91.5q-143 0 -270 -54t-217.5 -146
t-143.5 -221t-53 -273t53 -272.5t143.5 -220.5t217.5 -145.5t270 -53.5q190 0 346.5 91t246 249.5t89.5 351.5zM1190 877q0 67 -45 108t-113 41h-188v-301h188q68 2 113 44.5t45 107.5zM811 219h-154q-12 0 -22 9t-10 22v930q0 12 10 22t22 10h381q176 0 277.5 -98
t101.5 -237q0 -102 -54 -184t-155 -122l187 -301q12 -20 4 -35.5t-31 -15.5h-154q-25 0 -38.5 9t-26.5 30l-170 283h-135v-291q0 -13 -10 -22t-23 -9z" />
    <glyph glyph-name="overscore" unicode="&#xaf;" horiz-adv-x="1040" 
d="M928 1130h-609q-18 0 -28 14t-6 32l22 133q5 19 19.5 31t33.5 12h607q19 0 30 -12.5t7 -30.5l-23 -133q-5 -19 -20 -32.5t-33 -13.5z" />
    <glyph glyph-name="degree" unicode="&#xb0;" horiz-adv-x="784" 
d="M170 1137q0 134 98 229.5t234 95.5q138 0 236 -95t98 -230t-98 -230.5t-236 -95.5q-136 0 -234 96t-98 230zM338 1137q0 -72 47.5 -121t116.5 -49t116.5 49t47.5 121t-47.5 121t-116.5 49t-116.5 -49t-47.5 -121z" />
    <glyph glyph-name="plusminus" unicode="&#xb1;" horiz-adv-x="1202" 
d="M662 1358h182q19 0 29 -12t6 -31l-62 -357h338q19 0 29 -13t6 -32l-29 -172q-5 -19 -18.5 -31t-32.5 -12h-338l-63 -358q-5 -19 -20 -32t-34 -13h-180q-19 0 -30 13t-7 32l64 358h-338q-18 0 -28.5 12.5t-6.5 30.5l31 172q5 19 19 32t32 13h336l63 357q4 19 19.5 31
t32.5 12zM1069 215l-31 -170q-5 -19 -19.5 -32t-31.5 -13h-946q-18 0 -28.5 13.5t-6.5 31.5l31 170q5 19 18.5 31t32.5 12h944q18 0 28.5 -12t8.5 -31z" />
    <glyph glyph-name="twosuperior" unicode="&#xb2;" horiz-adv-x="622" 
d="M651 1022h-471q-21 0 -18 22l12 68q7 26 27 41l227 174q98 75 134 117t36 88q0 41 -30.5 65.5t-73.5 24.5q-53 0 -87 -28t-49 -70q-7 -22 -18.5 -27.5t-28.5 0.5l-71 25q-21 6 -15 34q26 86 97 142.5t182 56.5q101 0 172.5 -58t71.5 -149q0 -80 -53 -144.5t-165 -146.5
l-147 -108h291q21 0 18 -21l-14 -84q-3 -22 -27 -22z" />
    <glyph glyph-name="threesuperior" unicode="&#xb3;" horiz-adv-x="624" 
d="M430 1012q-126 0 -196.5 66t-59.5 165l2 21q3 22 27 22h94q19 0 16 -20l-2 -17q-6 -50 25.5 -83t97.5 -33q62 0 95.5 35.5t33.5 82.5q0 45 -33 75t-98 30h-41q-19 0 -16 20l10 54q3 19 14 30l170 148h-290q-11 0 -17 7t-2 17l16 86q3 23 27 23h432q22 0 19 -23l-9 -73
q-8 -36 -20 -48l-178 -149q76 -18 120 -68.5t44 -126.5q0 -98 -75.5 -169.5t-205.5 -71.5z" />
    <glyph glyph-name="acute" unicode="&#xb4;" horiz-adv-x="536" 
d="M362 1497h222q30 0 42 -22t-3 -41l-242 -310q-12 -18 -22.5 -24t-28.5 -6h-119q-30 0 -43.5 16.5t-3.5 42.5l145 307q16 37 53 37z" />
    <glyph glyph-name="mu" unicode="&#xb5;" horiz-adv-x="1232" 
d="M281 43l-58 -322q-5 -19 -18 -31t-31 -12h-137q-18 0 -27.5 12.5t-5.5 30.5l217 1227q5 17 17.5 28t29.5 11h176q17 0 27.5 -11t9.5 -28l-92 -512q-20 -116 26.5 -177.5t151.5 -61.5q106 0 172.5 66t85.5 179l90 506q4 17 18.5 28t31.5 11h178q17 0 26 -12t5 -31
l-158 -903q-10 -41 -47 -41h-174q-18 0 -29.5 11t-7.5 28l16 78q-115 -146 -299 -146q-122 0 -194 72z" />
    <glyph glyph-name="paragraph" unicode="&#xb6;" horiz-adv-x="1261" 
d="M678 1434h534q18 0 28.5 -12.5t6.5 -30.5l-237 -1346q-2 -19 -15 -32t-32 -13h-119q-19 0 -29 12t-6 31l215 1219h-195l-217 -1219q-6 -43 -47 -43h-119q-18 0 -28 11.5t-6 31.5l90 508h-8q-156 0 -252.5 106.5t-96.5 268.5q0 216 153.5 362t379.5 146z" />
    <glyph glyph-name="middot" unicode="&#xb7;" horiz-adv-x="530" 
d="M301 535q-78 0 -133 56t-53 134q1 78 57.5 133t134.5 55t132 -55t53 -133q-2 -78 -57.5 -134t-133.5 -56z" />
    <glyph glyph-name="cedilla" unicode="&#xb8;" horiz-adv-x="520" 
d="M233 41l271 -35l-205 -305q-19 -29 -57 -29h-138q-24 0 -34.5 15.5t0.5 38.5z" />
    <glyph glyph-name="onesuperior" unicode="&#xb9;" horiz-adv-x="378" 
d="M213 1552l12 76q6 25 27 25h31q43 0 66 14t42 51q12 21 37 21h59q22 0 19 -21l-117 -671q-6 -25 -29 -25h-98q-8 0 -13.5 7.5t-4.5 17.5l86 485h-99q-21 0 -18 20z" />
    <glyph glyph-name="ordmasculine" unicode="&#xba;" horiz-adv-x="964" 
d="M559 729q-156 0 -265.5 107t-109.5 260q0 155 109.5 262.5t265.5 107.5q157 0 266 -107.5t109 -262.5q0 -154 -109 -260.5t-266 -106.5zM559 1286q-78 0 -130 -55t-52 -135q0 -79 52.5 -134t129.5 -55t129.5 55t52.5 134q0 80 -52 135t-130 55zM868 471h-620
q-33 0 -33 35v115q0 34 33 34h620q35 0 35 -34v-115q0 -35 -35 -35z" />
    <glyph glyph-name="guillemotright" unicode="&#xbb;" horiz-adv-x="1058" 
d="M197 977h118q21 0 32.5 -6.5t21.5 -28.5l194 -426q15 -29 -10 -65l-315 -390q-25 -34 -64 -34h-149q-18 0 -24.5 15t5.5 38l283 422l-129 422q-6 22 6.5 37.5t30.5 15.5zM625 977h118q21 0 32.5 -6.5t21.5 -28.5l194 -426q15 -29 -10 -65l-315 -390q-25 -34 -64 -34h-149
q-18 0 -24.5 15t5.5 38l283 422l-129 422q-6 22 6.5 37.5t30.5 15.5z" />
    <glyph glyph-name="onequarter" unicode="&#xbc;" horiz-adv-x="1402" 
d="M1333 1372l-1155 -1333q-12 -15 -18 -21t-19.5 -12t-31.5 -6h-39q-30 0 -37 19t14 42l1155 1334q11 14 18 21t20.5 12.5t31.5 5.5h39q30 0 36.5 -19.5t-14.5 -42.5zM207 1247l12 76q6 25 27 25h30q43 0 66.5 14t42.5 51q12 21 37 21h59q22 0 19 -21l-117 -672
q-6 -24 -29 -24h-98q-8 0 -13.5 7t-4.5 17l86 486h-99q-21 0 -18 20zM1036 188h-313q-24 0 -21 23l15 78q1 4 4 13t4.5 14t5.5 12.5t10 13.5l332 356q19 19 37 19h137q24 0 21 -23l-68 -387h86q22 0 19 -22l-13 -74q-3 -23 -26 -23h-86l-29 -163q-3 -25 -31 -25h-96
q-22 0 -16 25zM856 307h201l47 266z" />
    <glyph glyph-name="onehalf" unicode="&#xbd;" horiz-adv-x="1458" 
d="M1329 1372l-1155 -1333q-16 -20 -30.5 -29.5t-41.5 -9.5h-39q-30 0 -36 19t14 42l1155 1334q31 39 70 39h41q29 0 35 -19.5t-13 -42.5zM203 1247l12 76q6 25 27 25h30q43 0 66.5 14t42.5 51q12 21 37 21h59q22 0 19 -21l-117 -672q-6 -24 -29 -24h-98q-8 0 -14 7t-5 17
l86 486h-98q-21 0 -18 20zM1288 0h-471q-21 0 -18 23l12 67q7 26 27 41l227 174q98 75 134 117t36 88q0 41 -31 65.5t-74 24.5q-99 0 -135 -98q-7 -22 -18.5 -27.5t-28.5 0.5l-71 25q-21 6 -15 35q25 85 97.5 141.5t183.5 56.5q100 0 170.5 -58t70.5 -149
q0 -80 -53.5 -147.5t-163.5 -147.5l-147 -104h291q21 0 18 -21l-14 -83q-3 -23 -27 -23z" />
    <glyph glyph-name="threequarters" unicode="&#xbe;" horiz-adv-x="1542" 
d="M1475 1372l-1156 -1333q-16 -20 -30.5 -29.5t-38.5 -9.5h-39q-30 0 -37 19t14 42l1155 1334q11 14 18 21t20.5 12.5t31.5 5.5h39q30 0 36 -19.5t-13 -42.5zM403 705q-126 0 -196.5 66t-59.5 165l3 20q3 23 26 23h94q20 0 17 -21l-2 -16q-6 -50 25.5 -83.5t97.5 -33.5
q62 0 95.5 36t33.5 83q0 45 -33 75t-98 30h-41q-20 0 -17 20l10 53q3 19 15 31l170 147h-291q-11 0 -17 7.5t-2 17.5l17 86q3 23 26 23h433q21 0 18 -23l-8 -74q-7 -33 -21 -47l-178 -149q76 -18 120 -68.5t44 -126.5q0 -98 -75.5 -169.5t-205.5 -71.5zM1176 188h-314
q-23 0 -20 23l14 78q13 40 25 53l331 356q19 19 37 19h137q24 0 21 -23l-68 -387h86q22 0 19 -22l-12 -74q-3 -23 -27 -23h-86l-29 -163q-3 -25 -30 -25h-97q-22 0 -16 25zM995 307h201l47 266z" />
    <glyph glyph-name="questiondown" unicode="&#xbf;" horiz-adv-x="1028" 
d="M563 1016q75 0 123.5 -53t42.5 -127q-6 -75 -64 -129t-133 -54q-74 0 -122.5 54t-42.5 129q8 74 65 127t131 53zM379 -471q-182 0 -298 101t-116 247q0 61 20 118t52 102t71.5 86.5t80 78.5t75.5 70.5t60 70t32 70.5l4 19q6 36 48 36h184q18 0 28.5 -11.5t6.5 -29.5
l-9 -49q-11 -62 -52.5 -125t-92.5 -113t-100.5 -97.5t-83 -97.5t-33.5 -95q0 -59 42 -99t112 -40q68 0 124 35.5t111 103.5q42 53 92 10l101 -74q50 -35 -9 -110q-29 -38 -68 -71.5t-93.5 -65.5t-129.5 -51t-159 -19z" />
    <glyph glyph-name="Agrave" unicode="&#xc0;" horiz-adv-x="1368" 
d="M578 1944h221q38 0 53 -37l104 -308q15 -59 -47 -59h-118q-30 0 -52 31l-200 309q-13 23 -2 43.5t41 20.5zM907 580l-102 618l-305 -618h407zM385 348l-152 -309q-17 -39 -51 -39h-202q-25 0 -35 18.5t6 47.5l684 1325q21 43 59 43h299q39 0 47 -43l240 -1325
q6 -30 -7.5 -48t-39.5 -18h-195q-35 0 -41 39l-51 309h-561z" />
    <glyph glyph-name="Aacute" unicode="&#xc1;" horiz-adv-x="1368" 
d="M954 1944h222q29 0 41 -22.5t-3 -41.5l-241 -309q-13 -18 -23 -24.5t-28 -6.5h-119q-30 0 -43.5 16.5t-3.5 42.5l145 308q16 37 53 37zM907 580l-102 618l-305 -618h407zM385 348l-152 -309q-17 -39 -51 -39h-202q-25 0 -35 18.5t6 47.5l684 1325q21 43 59 43h299
q39 0 47 -43l240 -1325q6 -30 -7.5 -48t-39.5 -18h-195q-35 0 -41 39l-51 309h-561z" />
    <glyph glyph-name="Acircumflex" unicode="&#xc2;" horiz-adv-x="1368" 
d="M803 1944h219q35 0 53 -41l133 -304q11 -24 -0.5 -41.5t-33.5 -17.5h-138q-22 0 -31.5 7t-21.5 26l-92 166l-152 -166q-26 -26 -37 -30q-10 -3 -24 -3h-168q-20 0 -28 17t12 42l239 304q35 41 70 41zM907 580l-102 618l-305 -618h407zM385 348l-152 -309q-17 -39 -51 -39
h-202q-25 0 -35 18.5t6 47.5l684 1325q21 43 59 43h299q39 0 47 -43l240 -1325q6 -30 -7.5 -48t-39.5 -18h-195q-35 0 -41 39l-51 309h-561z" />
    <glyph glyph-name="Atilde" unicode="&#xc3;" horiz-adv-x="1368" 
d="M711 1876q50 0 167 -34t142 -34q30 0 53.5 11t44.5 27.5t31 21.5q13 7 30 1.5t27 -24.5l41 -73q16 -28 6 -58q-14 -53 -80 -100t-157 -47q-55 0 -171.5 33.5t-137.5 33.5q-30 0 -53.5 -10.5t-45 -27t-30.5 -21.5q-13 -7 -30.5 -2t-27.5 24l-41 74q-16 29 -6 58
q14 53 80.5 100t157.5 47zM907 580l-102 618l-305 -618h407zM385 348l-152 -309q-17 -39 -51 -39h-202q-25 0 -35 18.5t6 47.5l684 1325q21 43 59 43h299q39 0 47 -43l240 -1325q6 -30 -7.5 -48t-39.5 -18h-195q-35 0 -41 39l-51 309h-561z" />
    <glyph glyph-name="Adieresis" unicode="&#xc4;" horiz-adv-x="1368" 
d="M498 1700q6 69 59 118.5t119 49.5q69 0 113 -49.5t38 -118.5t-59 -118.5t-121 -49.5q-67 0 -111 49.5t-38 118.5zM930 1700q6 69 58.5 118.5t119.5 49.5q68 0 113 -49.5t39 -118.5t-59.5 -118.5t-121.5 -49.5q-67 0 -111 49.5t-38 118.5zM907 580l-102 618l-305 -618h407
zM385 348l-152 -309q-17 -39 -51 -39h-202q-25 0 -35 18.5t6 47.5l684 1325q21 43 59 43h299q39 0 47 -43l240 -1325q6 -30 -7.5 -48t-39.5 -18h-195q-35 0 -41 39l-51 309h-561z" />
    <glyph glyph-name="Aring" unicode="&#xc5;" horiz-adv-x="1368" 
d="M913 2095q116 0 197.5 -71t81.5 -191q0 -128 -90 -217.5t-225 -89.5q-115 0 -197 72.5t-82 189.5q0 128 90 217.5t225 89.5zM885 1683q58 0 95.5 43.5t37.5 98.5q0 49 -30.5 81.5t-82.5 32.5q-60 0 -97.5 -42t-37.5 -99q0 -49 31.5 -82t83.5 -33zM907 580l-102 618
l-305 -618h407zM385 348l-152 -309q-17 -39 -51 -39h-202q-25 0 -35 18.5t6 47.5l684 1325q21 43 59 43h299q39 0 47 -43l240 -1325q6 -30 -7.5 -48t-39.5 -18h-195q-35 0 -41 39l-51 309h-561z" />
    <glyph glyph-name="AE" unicode="&#xc6;" horiz-adv-x="1892" 
d="M922 586l-95 628l-319 -628h414zM399 348l-151 -305q-19 -43 -60 -43h-215q-25 0 -33 15t7 46l694 1330q19 43 61 43h1260q20 0 31 -13t6 -32l-31 -170q-10 -43 -51 -43h-801l53 -332h418q19 0 29 -13t6 -32l-27 -156q-11 -45 -51 -45h-338l56 -340h495q19 0 29 -12
t6 -31l-31 -170q-11 -45 -51 -45h-663q-46 0 -52 43l-45 305h-551z" />
    <glyph glyph-name="Ccedilla" unicode="&#xc7;" horiz-adv-x="1486" 
d="M854 -29l-180 -268q-19 -29 -58 -29h-137q-24 0 -35 15.5t0 38.5l140 268q-223 62 -354.5 240t-131.5 419q0 167 61.5 317t165.5 256.5t245 169t296 62.5q255 0 435.5 -131.5t226.5 -353.5q7 -34 -31 -41l-174 -33q-38 -6 -47 25q-48 139 -150 216t-249 77
q-139 0 -254.5 -75.5t-181.5 -203t-66 -278.5q0 -199 121 -325t307 -126q262 0 411 254q1 1 3.5 5.5t3.5 6t3.5 5.5t5 5.5t6 3.5t7 2t8.5 -0.5t11 -3.5l172 -75q33 -13 16 -47q-87 -172 -243.5 -275.5t-352.5 -120.5z" />
    <glyph glyph-name="Egrave" unicode="&#xc8;" horiz-adv-x="1271" 
d="M569 1944h222q38 0 53 -37l104 -308q15 -59 -47 -59h-119q-29 0 -51 31l-201 309q-13 23 -2 43.5t41 20.5zM344 1434h991q18 0 28.5 -13.5t6.5 -31.5l-29 -164q-10 -43 -51 -43h-764l-59 -338h397q19 0 30 -13t7 -32l-29 -156q-5 -19 -19 -32t-32 -13h-397l-62 -346h779
q19 0 29 -12t6 -31l-29 -164q-11 -45 -51 -45h-1004q-19 0 -30 13t-7 32l238 1346q5 18 19 30.5t32 12.5z" />
    <glyph glyph-name="Eacute" unicode="&#xc9;" horiz-adv-x="1271" 
d="M946 1944h221q30 0 42 -22.5t-3 -41.5l-241 -309q-12 -18 -23 -24.5t-29 -6.5h-118q-30 0 -43.5 16.5t-3.5 42.5l145 308q16 37 53 37zM344 1434h991q18 0 28.5 -13.5t6.5 -31.5l-29 -164q-10 -43 -51 -43h-764l-59 -338h397q19 0 30 -13t7 -32l-29 -156q-5 -19 -19 -32
t-32 -13h-397l-62 -346h779q19 0 29 -12t6 -31l-29 -164q-11 -45 -51 -45h-1004q-19 0 -30 13t-7 32l238 1346q5 18 19 30.5t32 12.5z" />
    <glyph glyph-name="Ecircumflex" unicode="&#xca;" horiz-adv-x="1271" 
d="M795 1944h219q35 0 53 -41l133 -304q11 -23 -1 -41t-34 -18h-137q-22 0 -31.5 7t-21.5 26l-92 166l-152 -166q-26 -26 -37 -30q-10 -3 -24 -3h-168q-20 0 -28.5 17t11.5 42l240 304q35 41 70 41zM344 1434h991q18 0 28.5 -13.5t6.5 -31.5l-29 -164q-10 -43 -51 -43h-764
l-59 -338h397q19 0 30 -13t7 -32l-29 -156q-5 -19 -19 -32t-32 -13h-397l-62 -346h779q19 0 29 -12t6 -31l-29 -164q-11 -45 -51 -45h-1004q-19 0 -30 13t-7 32l238 1346q5 18 19 30.5t32 12.5z" />
    <glyph glyph-name="Edieresis" unicode="&#xcb;" horiz-adv-x="1271" 
d="M489 1700q6 69 59.5 118.5t119.5 49.5q69 0 113 -49.5t38 -118.5t-59 -118.5t-121 -49.5t-112 49.5t-38 118.5zM922 1700q6 69 58.5 118.5t119.5 49.5q68 0 112.5 -49.5t38.5 -118.5t-59 -118.5t-121 -49.5q-67 0 -111 49.5t-38 118.5zM344 1434h991q18 0 28.5 -13.5
t6.5 -31.5l-29 -164q-10 -43 -51 -43h-764l-59 -338h397q19 0 30 -13t7 -32l-29 -156q-5 -19 -19 -32t-32 -13h-397l-62 -346h779q19 0 29 -12t6 -31l-29 -164q-11 -45 -51 -45h-1004q-19 0 -30 13t-7 32l238 1346q5 18 19 30.5t32 12.5z" />
    <glyph glyph-name="Igrave" unicode="&#xcc;" horiz-adv-x="536" 
d="M166 1944h221q38 0 53 -37l105 -308q15 -59 -47 -59h-119q-29 0 -51 31l-201 309q-13 23 -2 43.5t41 20.5zM274 0h-184q-41 0 -35 45l238 1346q10 43 51 43h182q18 0 28.5 -12.5t6.5 -30.5l-237 -1346q-6 -45 -50 -45z" />
    <glyph glyph-name="Iacute" unicode="&#xcd;" horiz-adv-x="536" 
d="M543 1944h221q30 0 42 -22.5t-3 -41.5l-242 -309q-13 -18 -23 -24.5t-28 -6.5h-119q-30 0 -43.5 16.5t-3.5 42.5l145 308q16 37 54 37zM274 0h-184q-41 0 -35 45l238 1346q10 43 51 43h182q18 0 28.5 -12.5t6.5 -30.5l-237 -1346q-6 -45 -50 -45z" />
    <glyph glyph-name="Icircumflex" unicode="&#xce;" horiz-adv-x="536" 
d="M391 1944h219q36 0 54 -41l133 -304q11 -23 -1 -41t-34 -18h-137q-22 0 -32 7t-22 26l-92 166l-151 -166l-15.5 -15.5t-12 -9t-16 -7t-18.5 -1.5h-168q-20 0 -28 17t12 42l240 304q35 41 69 41zM274 0h-184q-41 0 -35 45l238 1346q10 43 51 43h182q18 0 28.5 -12.5
t6.5 -30.5l-237 -1346q-6 -45 -50 -45z" />
    <glyph glyph-name="Idieresis" unicode="&#xcf;" horiz-adv-x="536" 
d="M86 1700q6 69 59 118.5t119 49.5q69 0 113.5 -49.5t38.5 -118.5t-59 -118.5t-121 -49.5t-112 49.5t-38 118.5zM518 1700q6 69 58.5 118.5t119.5 49.5q68 0 113 -49.5t39 -118.5t-59 -118.5t-121 -49.5t-112 49.5t-38 118.5zM274 0h-184q-41 0 -35 45l238 1346
q10 43 51 43h182q18 0 28.5 -12.5t6.5 -30.5l-237 -1346q-6 -45 -50 -45z" />
    <glyph glyph-name="Eth" unicode="&#xd0;" horiz-adv-x="1531" 
d="M664 0h-537q-19 0 -30.5 14t-6.5 31l100 567h-124q-19 0 -30 13t-7 32l22 127q5 19 19 32t32 13h127l99 562q5 18 19 30.5t32 12.5h428q166 0 301.5 -51t223.5 -139t136 -204t48 -249q0 -171 -67 -319.5t-181.5 -251t-271 -161.5t-332.5 -59zM397 250h262q173 0 305 70
t201.5 190t69.5 272q0 181 -117.5 291.5t-326.5 110.5h-230l-61 -355h327q19 0 30 -13t7 -32l-22 -127q-5 -19 -20 -32t-34 -13h-327z" />
    <glyph glyph-name="Ntilde" unicode="&#xd1;" horiz-adv-x="1470" 
d="M766 1876q50 0 167 -34t142 -34q30 0 53.5 11t44.5 27.5t31 21.5q13 7 30.5 1.5t27.5 -24.5l41 -73q16 -28 6 -58q-14 -53 -80.5 -100t-157.5 -47q-55 0 -171.5 33.5t-137.5 33.5q-30 0 -53.5 -10.5t-45 -27t-30.5 -21.5q-13 -7 -30.5 -2t-27.5 24l-40 74q-16 30 -7 58
q14 53 80.5 100t157.5 47zM948 43l-452 997l-174 -997q-1 -19 -15 -31t-33 -12h-182q-19 0 -30 12.5t-7 30.5l238 1348q2 17 16 30t33 13h221q40 0 55 -35l439 -983l170 975q5 18 19.5 30.5t31.5 12.5h182q18 0 28.5 -13t6.5 -30l-238 -1348q-5 -19 -18 -31t-31 -12h-182
q-63 0 -78 43z" />
    <glyph glyph-name="Ograve" unicode="&#xd2;" horiz-adv-x="1585" 
d="M627 1948h221q38 0 53 -37l105 -307q7 -29 -5.5 -44.5t-42.5 -15.5h-118q-30 0 -52 31l-200 309q-13 23 -2 43.5t41 20.5zM868 1462q155 0 286.5 -54t221 -147t139.5 -220.5t50 -272.5q0 -163 -58.5 -310t-159.5 -254t-245 -170t-307 -63q-154 0 -285 54.5t-220.5 148
t-139.5 221t-50 271.5q0 218 98.5 400t275.5 289t394 107zM864 1219q-102 0 -192.5 -44t-155.5 -118t-103 -176t-38 -215q0 -200 120 -325.5t306 -125.5q137 0 249 74.5t175 201t63 277.5q0 200 -120 325.5t-304 125.5z" />
    <glyph glyph-name="Oacute" unicode="&#xd3;" horiz-adv-x="1585" 
d="M1004 1948h221q30 0 42 -22.5t-3 -41.5l-242 -309q-13 -18 -23 -24.5t-28 -6.5h-119q-30 0 -43.5 17t-3.5 43l145 307q16 37 54 37zM868 1462q155 0 286.5 -54t221 -147t139.5 -220.5t50 -272.5q0 -163 -58.5 -310t-159.5 -254t-245 -170t-307 -63q-154 0 -285 54.5
t-220.5 148t-139.5 221t-50 271.5q0 218 98.5 400t275.5 289t394 107zM864 1219q-102 0 -192.5 -44t-155.5 -118t-103 -176t-38 -215q0 -200 120 -325.5t306 -125.5q137 0 249 74.5t175 201t63 277.5q0 200 -120 325.5t-304 125.5z" />
    <glyph glyph-name="Ocircumflex" unicode="&#xd4;" horiz-adv-x="1585" 
d="M852 1948h219q35 0 53 -41l133 -303q11 -24 -0.5 -42t-33.5 -18h-138q-22 0 -31.5 7t-21.5 26l-92 166l-152 -166q-26 -26 -37 -30q-10 -3 -24 -3h-168q-20 0 -28 17.5t12 42.5l239 303q35 41 70 41zM868 1462q155 0 286.5 -54t221 -147t139.5 -220.5t50 -272.5
q0 -163 -58.5 -310t-159.5 -254t-245 -170t-307 -63q-154 0 -285 54.5t-220.5 148t-139.5 221t-50 271.5q0 218 98.5 400t275.5 289t394 107zM864 1219q-102 0 -192.5 -44t-155.5 -118t-103 -176t-38 -215q0 -200 120 -325.5t306 -125.5q137 0 249 74.5t175 201t63 277.5
q0 200 -120 325.5t-304 125.5z" />
    <glyph glyph-name="Otilde" unicode="&#xd5;" horiz-adv-x="1585" 
d="M760 1880q50 0 167 -34t142 -34q30 0 53.5 11t44.5 27.5t31 21.5q13 7 30 1.5t27 -24.5l41 -73q16 -30 7 -58q-14 -53 -80.5 -100t-157.5 -47q-55 0 -171.5 33.5t-137.5 33.5q-30 0 -53.5 -10.5t-45 -27t-30.5 -21.5q-13 -7 -30.5 -1.5t-27.5 24.5l-41 73q-16 29 -6 58
q14 53 80.5 100t157.5 47zM868 1462q155 0 286.5 -54t221 -147t139.5 -220.5t50 -272.5q0 -163 -58.5 -310t-159.5 -254t-245 -170t-307 -63q-154 0 -285 54.5t-220.5 148t-139.5 221t-50 271.5q0 218 98.5 400t275.5 289t394 107zM864 1219q-102 0 -192.5 -44t-155.5 -118
t-103 -176t-38 -215q0 -200 120 -325.5t306 -125.5q137 0 249 74.5t175 201t63 277.5q0 200 -120 325.5t-304 125.5z" />
    <glyph glyph-name="Odieresis" unicode="&#xd6;" horiz-adv-x="1585" 
d="M547 1704q6 69 59 118.5t119 49.5q69 0 113.5 -49.5t38.5 -118.5t-59.5 -118.5t-121.5 -49.5q-67 0 -111 49.5t-38 118.5zM979 1704q6 69 58.5 118.5t119.5 49.5q68 0 113 -49.5t39 -118.5t-59.5 -118.5t-121.5 -49.5q-67 0 -111 49.5t-38 118.5zM868 1462
q155 0 286.5 -54t221 -147t139.5 -220.5t50 -272.5q0 -163 -58.5 -310t-159.5 -254t-245 -170t-307 -63q-154 0 -285 54.5t-220.5 148t-139.5 221t-50 271.5q0 218 98.5 400t275.5 289t394 107zM864 1219q-102 0 -192.5 -44t-155.5 -118t-103 -176t-38 -215
q0 -200 120 -325.5t306 -125.5q137 0 249 74.5t175 201t63 277.5q0 200 -120 325.5t-304 125.5z" />
    <glyph glyph-name="multiply" unicode="&#xd7;" horiz-adv-x="1241" 
d="M1106 274l-139 -108q-40 -28 -64 6l-272 365l-395 -308q-38 -23 -62 7l-98 135q-10 14 -7 31.5t17 29.5l393 305l-274 365q-11 13 -9 33t19 30l139 109q17 11 35.5 10t28.5 -14l274 -365l395 307q17 10 35 8t29 -16l100 -133q10 -14 6 -32t-18 -29l-395 -308l274 -366
q24 -40 -12 -62z" />
    <glyph glyph-name="Oslash" unicode="&#xd8;" horiz-adv-x="1585" 
d="M868 1462q155 0 286.5 -54t221 -147t139.5 -220.5t50 -272.5q0 -163 -58.5 -310t-159.5 -254t-245 -170t-307 -63q-154 0 -285 54.5t-220.5 148t-139.5 221t-50 271.5q0 218 98.5 400t275.5 289t394 107zM375 666q0 -137 57 -236l660 725q-98 64 -228 64
q-102 0 -192.5 -44t-155.5 -118t-103 -176t-38 -215zM801 215q137 0 249 74.5t175 201t63 277.5q0 126 -53 229l-653 -725q96 -57 219 -57z" />
    <glyph glyph-name="Ugrave" unicode="&#xd9;" horiz-adv-x="1423" 
d="M612 1944h222q38 0 53 -37l104 -308q15 -59 -47 -59h-119q-29 0 -51 31l-201 309q-13 23 -2 43.5t41 20.5zM1464 1391l-155 -879q-48 -271 -219 -406t-437 -135q-118 0 -222 35.5t-180.5 101.5t-111.5 170.5t-14 231.5l156 881q5 18 19 30.5t32 12.5h184q19 0 30 -13
t7 -30l-152 -863q-26 -141 52 -224t229 -83q146 0 237.5 81t116.5 226l152 863q5 18 19 30.5t32 12.5h188q19 0 30 -13t7 -30z" />
    <glyph glyph-name="Uacute" unicode="&#xda;" horiz-adv-x="1423" 
d="M989 1944h221q30 0 42 -22.5t-3 -41.5l-241 -309q-12 -18 -23 -24.5t-29 -6.5h-118q-30 0 -43.5 16.5t-3.5 42.5l145 308q16 37 53 37zM1464 1391l-155 -879q-48 -271 -219 -406t-437 -135q-118 0 -222 35.5t-180.5 101.5t-111.5 170.5t-14 231.5l156 881q5 18 19 30.5
t32 12.5h184q19 0 30 -13t7 -30l-152 -863q-26 -141 52 -224t229 -83q146 0 237.5 81t116.5 226l152 863q5 18 19 30.5t32 12.5h188q19 0 30 -13t7 -30z" />
    <glyph glyph-name="Ucircumflex" unicode="&#xdb;" horiz-adv-x="1423" 
d="M838 1944h219q35 0 53 -41l133 -304q11 -23 -1 -41t-34 -18h-137q-22 0 -31.5 7t-21.5 26l-92 166l-152 -166q-26 -26 -37 -30q-10 -3 -24 -3h-168q-20 0 -28.5 17t11.5 42l240 304q35 41 70 41zM1464 1391l-155 -879q-48 -271 -219 -406t-437 -135q-118 0 -222 35.5
t-180.5 101.5t-111.5 170.5t-14 231.5l156 881q5 18 19 30.5t32 12.5h184q19 0 30 -13t7 -30l-152 -863q-26 -141 52 -224t229 -83q146 0 237.5 81t116.5 226l152 863q5 18 19 30.5t32 12.5h188q19 0 30 -13t7 -30z" />
    <glyph glyph-name="Udieresis" unicode="&#xdc;" horiz-adv-x="1423" 
d="M532 1700q6 69 59.5 118.5t119.5 49.5q69 0 113 -49.5t38 -118.5t-59 -118.5t-121 -49.5t-112 49.5t-38 118.5zM965 1700q6 69 58.5 118.5t119.5 49.5q68 0 112.5 -49.5t38.5 -118.5t-59 -118.5t-121 -49.5q-67 0 -111 49.5t-38 118.5zM1464 1391l-155 -879
q-48 -271 -219 -406t-437 -135q-118 0 -222 35.5t-180.5 101.5t-111.5 170.5t-14 231.5l156 881q5 18 19 30.5t32 12.5h184q19 0 30 -13t7 -30l-152 -863q-26 -141 52 -224t229 -83q146 0 237.5 81t116.5 226l152 863q5 18 19 30.5t32 12.5h188q19 0 30 -13t7 -30z" />
    <glyph glyph-name="Yacute" unicode="&#xdd;" horiz-adv-x="1318" 
d="M932 1944h221q30 0 42 -22.5t-3 -41.5l-242 -309q-13 -18 -23 -24.5t-28 -6.5h-119q-30 0 -43.5 16.5t-3.5 42.5l146 308q16 37 53 37zM666 0h-185q-19 0 -30 13t-7 32l99 551l-357 774q-10 23 2.5 43.5t36.5 20.5h205q36 0 47 -33l238 -559h4l420 559q26 33 55 33h229
q25 0 32.5 -19t-13.5 -45l-633 -788l-94 -537q-5 -19 -18.5 -32t-30.5 -13z" />
    <glyph glyph-name="Thorn" unicode="&#xde;" horiz-adv-x="1271" 
d="M369 274l-41 -231q-5 -19 -18.5 -31t-30.5 -12h-187q-19 0 -30 12.5t-7 30.5l238 1348q5 19 18.5 31t32.5 12h186q18 0 28.5 -12.5t6.5 -30.5l-30 -177h260q118 0 210.5 -34t150 -93t87 -135t29.5 -164q0 -105 -38 -198t-108 -163.5t-179.5 -111.5t-244.5 -41h-333z
M756 975h-262l-80 -461h282q133 0 211 69t78 185q0 97 -62 152t-167 55z" />
    <glyph glyph-name="germandbls" unicode="&#xdf;" horiz-adv-x="1126" 
d="M20 43l166 934q19 107 58 193.5t99.5 154t149.5 104.5t199 37q184 0 293 -101t109 -243q0 -61 -24.5 -121t-60 -105t-71 -83t-60 -70t-24.5 -53q0 -25 20 -55.5t49 -62t57.5 -67t48.5 -85t20 -103.5q0 -66 -25 -127t-73.5 -110.5t-128.5 -79t-181 -29.5q-85 0 -162 23
q-40 15 -30 49l45 147q9 26 36 23q46 -12 99 -12q70 0 107.5 37.5t37.5 89.5q0 37 -30.5 83t-66.5 82t-66.5 85t-30.5 92q0 37 27 79.5t65.5 82.5t77 81t65.5 87.5t27 89.5q0 59 -41.5 102t-118.5 43q-94 0 -154 -68.5t-84 -191.5l-163 -932q-5 -18 -18.5 -30.5t-31.5 -12.5
h-176q-18 0 -28.5 13t-6.5 30z" />
    <glyph glyph-name="agrave" unicode="&#xe0;" 
d="M406 1497h221q38 0 53 -37l104 -307q15 -59 -47 -59h-119q-30 0 -51 30l-200 310q-13 23 -2 43t41 20zM555 201q122 0 205.5 95t83.5 228q0 111 -66.5 183.5t-175.5 72.5q-123 0 -205 -95t-82 -228q0 -108 65 -182t175 -74zM53 434q0 127 43.5 238t115.5 185t165.5 116.5
t193.5 42.5q111 0 198 -46.5t132 -125.5l17 100q8 43 47 43h176q18 0 28.5 -13t6.5 -30l-160 -903q-5 -18 -18.5 -29.5t-30.5 -11.5h-174q-19 0 -29 12t-6 29l14 78q-46 -64 -124 -106t-181 -42q-182 0 -298 131.5t-116 331.5z" />
    <glyph glyph-name="aacute" unicode="&#xe1;" 
d="M782 1497h222q30 0 41.5 -22t-3.5 -41l-241 -310q-12 -18 -22.5 -24t-28.5 -6h-119q-30 0 -43.5 16.5t-3.5 42.5l145 307q16 37 53 37zM555 201q122 0 205.5 95t83.5 228q0 111 -66.5 183.5t-175.5 72.5q-123 0 -205 -95t-82 -228q0 -108 65 -182t175 -74zM53 434
q0 127 43.5 238t115.5 185t165.5 116.5t193.5 42.5q111 0 198 -46.5t132 -125.5l17 100q8 43 47 43h176q18 0 28.5 -13t6.5 -30l-160 -903q-5 -18 -18.5 -29.5t-30.5 -11.5h-174q-19 0 -29 12t-6 29l14 78q-46 -64 -124 -106t-181 -42q-182 0 -298 131.5t-116 331.5z" />
    <glyph glyph-name="acircumflex" unicode="&#xe2;" 
d="M631 1497h219q35 0 53 -41l133 -303q11 -23 -1 -41t-34 -18h-137q-22 0 -32 6.5t-21 25.5l-92 166l-152 -166q-15 -15 -20 -19.5t-15.5 -8.5t-25.5 -4h-168q-20 0 -28 17t12 42l239 303q35 41 70 41zM555 201q122 0 205.5 95t83.5 228q0 111 -66.5 183.5t-175.5 72.5
q-123 0 -205 -95t-82 -228q0 -108 65 -182t175 -74zM53 434q0 127 43.5 238t115.5 185t165.5 116.5t193.5 42.5q111 0 198 -46.5t132 -125.5l17 100q8 43 47 43h176q18 0 28.5 -13t6.5 -30l-160 -903q-5 -18 -18.5 -29.5t-30.5 -11.5h-174q-19 0 -29 12t-6 29l14 78
q-46 -64 -124 -106t-181 -42q-182 0 -298 131.5t-116 331.5z" />
    <glyph glyph-name="atilde" unicode="&#xe3;" 
d="M539 1430q50 0 167 -34t142 -34q30 0 53.5 10.5t45 27t30.5 21.5q37 16 57 -22l41 -74q16 -28 6 -57q-14 -54 -80 -101t-157 -47q-55 0 -171.5 34t-137.5 34q-30 0 -53.5 -11t-44.5 -27.5t-31 -21.5q-13 -7 -30.5 -1.5t-27.5 24.5l-41 74q-16 28 -6 57q14 54 80.5 101
t157.5 47zM555 201q122 0 205.5 95t83.5 228q0 111 -66.5 183.5t-175.5 72.5q-123 0 -205 -95t-82 -228q0 -108 65 -182t175 -74zM53 434q0 127 43.5 238t115.5 185t165.5 116.5t193.5 42.5q111 0 198 -46.5t132 -125.5l17 100q8 43 47 43h176q18 0 28.5 -13t6.5 -30
l-160 -903q-5 -18 -18.5 -29.5t-30.5 -11.5h-174q-19 0 -29 12t-6 29l14 78q-46 -64 -124 -106t-181 -42q-182 0 -298 131.5t-116 331.5z" />
    <glyph glyph-name="adieresis" unicode="&#xe4;" 
d="M326 1253q6 69 59 118.5t119 49.5q69 0 113 -49.5t38 -118.5t-59 -118.5t-121 -49.5q-67 0 -111 49.5t-38 118.5zM758 1253q6 69 58.5 118.5t119.5 49.5q68 0 112.5 -49.5t38.5 -118.5t-59 -118.5t-121 -49.5q-67 0 -111 49.5t-38 118.5zM555 201q122 0 205.5 95
t83.5 228q0 111 -66.5 183.5t-175.5 72.5q-123 0 -205 -95t-82 -228q0 -108 65 -182t175 -74zM53 434q0 127 43.5 238t115.5 185t165.5 116.5t193.5 42.5q111 0 198 -46.5t132 -125.5l17 100q8 43 47 43h176q18 0 28.5 -13t6.5 -30l-160 -903q-5 -18 -18.5 -29.5
t-30.5 -11.5h-174q-19 0 -29 12t-6 29l14 78q-46 -64 -124 -106t-181 -42q-182 0 -298 131.5t-116 331.5z" />
    <glyph glyph-name="aring" unicode="&#xe5;" 
d="M721 1649q115 0 196.5 -71.5t81.5 -191.5q0 -128 -90 -217.5t-225 -89.5q-115 0 -196.5 72t-81.5 190q0 128 90 218t225 90zM692 1237q59 0 96 43.5t37 97.5q0 49 -30 82t-82 33q-60 0 -97.5 -42t-37.5 -99q0 -49 31 -82t83 -33zM555 201q122 0 205.5 95t83.5 228
q0 111 -66.5 183.5t-175.5 72.5q-123 0 -205 -95t-82 -228q0 -108 65 -182t175 -74zM53 434q0 127 43.5 238t115.5 185t165.5 116.5t193.5 42.5q111 0 198 -46.5t132 -125.5l17 100q8 43 47 43h176q18 0 28.5 -13t6.5 -30l-160 -903q-5 -18 -18.5 -29.5t-30.5 -11.5h-174
q-19 0 -29 12t-6 29l14 78q-46 -64 -124 -106t-181 -42q-182 0 -298 131.5t-116 331.5z" />
    <glyph glyph-name="ae" unicode="&#xe6;" horiz-adv-x="1792" 
d="M1233 -29q-227 0 -359 138q-135 -138 -348 -138q-217 0 -345 135.5t-128 342.5q0 243 154.5 405t382.5 162q220 0 344 -137q149 137 362 137q113 0 206.5 -40.5t151 -107.5t86.5 -151.5t23 -173.5l-4 -64q-3 -51 -57 -51h-698v-8q0 -99 64 -161t163 -62q131 0 237 102
q29 29 60 10l125 -84q16 -10 17.5 -28.5t-7.5 -28.5q-61 -85 -169.5 -141t-260.5 -56zM1292 809q-90 0 -163.5 -60t-102.5 -163h485q0 109 -63 166t-156 57zM551 201q123 0 215 92q-21 71 -21 151q0 133 52 246q-78 90 -201 90q-120 0 -201.5 -91.5t-81.5 -229.5
q0 -111 67 -184.5t171 -73.5z" />
    <glyph glyph-name="ccedilla" unicode="&#xe7;" horiz-adv-x="1040" 
d="M618 -25l-180 -268q-19 -29 -57 -29h-137q-24 0 -35 15.5t0 38.5l141 272q-139 54 -218 172.5t-79 272.5q0 243 153 405t380 162q170 0 284.5 -73.5t159.5 -184.5q7 -18 -2 -36.5t-29 -29.5l-114 -61q-41 -24 -68 20q-78 129 -225 129q-117 0 -198 -94.5t-81 -226.5
q0 -111 66 -182.5t170 -71.5q65 0 117 26t104 84q34 39 76 7l102 -78q17 -13 18 -37t-12 -41q-131 -160 -336 -191z" />
    <glyph glyph-name="egrave" unicode="&#xe8;" horiz-adv-x="1097" 
d="M362 1497h222q38 0 53 -37l104 -307q15 -59 -47 -59h-119q-30 0 -51 30l-200 310q-13 23 -2.5 43t40.5 20zM539 -29q-223 0 -355.5 134t-132.5 339q0 156 71.5 287t199.5 208t284 77q115 0 208 -42t149 -110.5t84 -153.5t22 -175l-4 -56q-3 -51 -57 -51h-699v-8
q0 -99 64.5 -161t163.5 -62q131 0 237 102q29 29 60 10l124 -84q16 -10 18 -28.5t-7 -28.5q-61 -85 -169.5 -141t-260.5 -56zM598 809q-90 0 -163.5 -60t-102.5 -163h485q0 109 -63 166t-156 57z" />
    <glyph glyph-name="eacute" unicode="&#xe9;" horiz-adv-x="1097" 
d="M739 1497h222q30 0 41.5 -22t-3.5 -41l-241 -310q-12 -18 -22.5 -24t-28.5 -6h-119q-30 0 -43.5 16.5t-3.5 42.5l145 307q16 37 53 37zM539 -29q-223 0 -355.5 134t-132.5 339q0 156 71.5 287t199.5 208t284 77q115 0 208 -42t149 -110.5t84 -153.5t22 -175l-4 -56
q-3 -51 -57 -51h-699v-8q0 -99 64.5 -161t163.5 -62q131 0 237 102q29 29 60 10l124 -84q16 -10 18 -28.5t-7 -28.5q-61 -85 -169.5 -141t-260.5 -56zM598 809q-90 0 -163.5 -60t-102.5 -163h485q0 109 -63 166t-156 57z" />
    <glyph glyph-name="ecircumflex" unicode="&#xea;" horiz-adv-x="1097" 
d="M588 1497h219q35 0 53 -41l133 -303q11 -23 -1 -41t-34 -18h-137q-22 0 -32 6.5t-21 25.5l-92 166l-152 -166q-15 -15 -20 -19.5t-15.5 -8.5t-25.5 -4h-168q-20 0 -28 17t12 42l239 303q35 41 70 41zM539 -29q-223 0 -355.5 134t-132.5 339q0 156 71.5 287t199.5 208
t284 77q115 0 208 -42t149 -110.5t84 -153.5t22 -175l-4 -56q-3 -51 -57 -51h-699v-8q0 -99 64.5 -161t163.5 -62q131 0 237 102q29 29 60 10l124 -84q16 -10 18 -28.5t-7 -28.5q-61 -85 -169.5 -141t-260.5 -56zM598 809q-90 0 -163.5 -60t-102.5 -163h485q0 109 -63 166
t-156 57z" />
    <glyph glyph-name="edieresis" unicode="&#xeb;" horiz-adv-x="1097" 
d="M283 1253q6 69 59 118.5t119 49.5q69 0 113 -49.5t38 -118.5t-59 -118.5t-121 -49.5q-67 0 -111 49.5t-38 118.5zM715 1253q6 69 58.5 118.5t119.5 49.5q68 0 112.5 -49.5t38.5 -118.5t-59 -118.5t-121 -49.5q-67 0 -111 49.5t-38 118.5zM539 -29q-223 0 -355.5 134
t-132.5 339q0 156 71.5 287t199.5 208t284 77q115 0 208 -42t149 -110.5t84 -153.5t22 -175l-4 -56q-3 -51 -57 -51h-699v-8q0 -99 64.5 -161t163.5 -62q131 0 237 102q29 29 60 10l124 -84q16 -10 18 -28.5t-7 -28.5q-61 -85 -169.5 -141t-260.5 -56zM598 809
q-90 0 -163.5 -60t-102.5 -163h485q0 109 -63 166t-156 57z" />
    <glyph glyph-name="igrave" unicode="&#xec;" horiz-adv-x="456" 
d="M47 1497h221q39 0 54 -37l104 -307q15 -59 -47 -59h-119q-30 0 -51 30l-201 310q-13 23 -2 43t41 20zM231 0h-176q-18 0 -28.5 13t-6.5 30l160 901q5 19 18.5 31t30.5 12h177q18 0 27 -12.5t5 -30.5l-159 -901q-1 -17 -16 -30t-32 -13z" />
    <glyph glyph-name="iacute" unicode="&#xed;" horiz-adv-x="456" 
d="M424 1497h221q30 0 42 -22t-3 -41l-242 -310q-12 -18 -22.5 -24t-28.5 -6h-119q-30 0 -43.5 16.5t-3.5 42.5l146 307q16 37 53 37zM231 0h-176q-18 0 -28.5 13t-6.5 30l160 901q5 19 18.5 31t30.5 12h177q18 0 27 -12.5t5 -30.5l-159 -901q-1 -17 -16 -30t-32 -13z" />
    <glyph glyph-name="icircumflex" unicode="&#xee;" horiz-adv-x="456" 
d="M270 1497h219q36 0 54 -41l133 -303q11 -23 -1 -41t-34 -18h-137q-22 0 -32 6.5t-21 25.5l-93 166l-151 -166q-14 -14 -20 -19t-16.5 -9t-25.5 -4h-168q-20 0 -28 17t12 42l240 303q35 41 69 41zM229 0h-176q-18 0 -28.5 13t-6.5 30l160 901q5 19 18.5 31t30.5 12h176
q18 0 27.5 -12.5t5.5 -30.5l-160 -901q-1 -17 -15.5 -30t-31.5 -13z" />
    <glyph glyph-name="idieresis" unicode="&#xef;" horiz-adv-x="456" 
d="M-33 1253q6 69 59 118.5t119 49.5q69 0 113.5 -49.5t38.5 -118.5t-59 -118.5t-121 -49.5t-112 49.5t-38 118.5zM399 1253q6 69 58.5 118.5t120.5 49.5t112.5 -49.5t38.5 -118.5t-59 -118.5t-121 -49.5t-112 49.5t-38 118.5zM231 0h-176q-18 0 -28.5 13t-6.5 30l160 901
q5 19 18.5 31t30.5 12h177q18 0 27 -12.5t5 -30.5l-159 -901q-1 -17 -16 -30t-32 -13z" />
    <glyph glyph-name="eth" unicode="&#xf0;" horiz-adv-x="1159" 
d="M555 -29q-134 0 -246.5 58t-183 172.5t-70.5 263.5q0 143 63 266t180 198t261 75q67 0 135.5 -22.5t112.5 -68.5q-60 114 -148 236l-196 -51q-41 -11 -51 26l-19 62q-11 43 35 53l135 35q-84 108 -133 162q-15 17 -5.5 40t38.5 23h166q41 0 63 -24q101 -116 117 -136
l174 45q41 11 51 -26l19 -62q11 -43 -35 -53l-121 -31q213 -328 213 -639q0 -168 -68 -304.5t-196 -217t-291 -80.5zM600 782q-121 0 -203 -93t-82 -224q0 -118 70.5 -190t173.5 -72q121 0 203 93t82 224q0 121 -70 191.5t-174 70.5z" />
    <glyph glyph-name="ntilde" unicode="&#xf1;" horiz-adv-x="1171" 
d="M545 1430q50 0 167 -34t142 -34q30 0 53.5 10.5t45 27t30.5 21.5q37 16 57 -22l41 -74q16 -28 6 -57q-14 -54 -80 -101t-157 -47q-55 0 -171.5 34t-137.5 34q-30 0 -53.5 -11t-44.5 -27.5t-31 -21.5q-13 -7 -30.5 -1.5t-27.5 24.5l-41 74q-16 28 -6 57q14 54 80.5 101
t157.5 47zM748 39l83 477q24 121 -23.5 189.5t-162.5 68.5q-111 0 -187.5 -79t-101.5 -216l-77 -440q-4 -18 -18 -28.5t-32 -10.5h-176q-18 0 -27.5 12t-5.5 29l160 903q10 43 47 43h170q18 0 28.5 -11t6.5 -28l-14 -78q46 61 128.5 103.5t184.5 42.5q124 0 214.5 -54.5
t132.5 -162.5t18 -252l-90 -508q-4 -18 -18 -28.5t-32 -10.5h-174q-18 0 -28 11t-6 28z" />
    <glyph glyph-name="ograve" unicode="&#xf2;" horiz-adv-x="1144" 
d="M360 1497h222q38 0 53 -37l104 -307q15 -59 -47 -59h-119q-30 0 -51 30l-200 310q-13 23 -2.5 43t40.5 20zM604 1016q210 0 350 -137t140 -347q0 -154 -72 -282.5t-198.5 -203.5t-280.5 -75q-208 0 -349 137.5t-141 346.5q0 154 72 282.5t198.5 203.5t280.5 75zM594 782
q-120 0 -201.5 -93t-81.5 -224q0 -118 70 -190t172 -72q120 0 201.5 93t81.5 224q0 120 -69.5 191t-172.5 71z" />
    <glyph glyph-name="oacute" unicode="&#xf3;" horiz-adv-x="1144" 
d="M737 1497h221q30 0 42 -22t-3 -41l-241 -310q-12 -18 -22.5 -24t-28.5 -6h-119q-30 0 -43.5 16.5t-3.5 42.5l145 307q16 37 53 37zM604 1016q210 0 350 -137t140 -347q0 -154 -72 -282.5t-198.5 -203.5t-280.5 -75q-208 0 -349 137.5t-141 346.5q0 154 72 282.5
t198.5 203.5t280.5 75zM594 782q-120 0 -201.5 -93t-81.5 -224q0 -118 70 -190t172 -72q120 0 201.5 93t81.5 224q0 120 -69.5 191t-172.5 71z" />
    <glyph glyph-name="ocircumflex" unicode="&#xf4;" horiz-adv-x="1144" 
d="M586 1497h219q35 0 53 -41l133 -303q11 -23 -1 -41t-34 -18h-137q-22 0 -32 6.5t-21 25.5l-92 166l-152 -166q-15 -15 -20 -19.5t-15.5 -8.5t-25.5 -4h-168q-20 0 -28.5 17t11.5 42l240 303q35 41 70 41zM604 1016q210 0 350 -137t140 -347q0 -154 -72 -282.5
t-198.5 -203.5t-280.5 -75q-208 0 -349 137.5t-141 346.5q0 154 72 282.5t198.5 203.5t280.5 75zM594 782q-120 0 -201.5 -93t-81.5 -224q0 -118 70 -190t172 -72q120 0 201.5 93t81.5 224q0 120 -69.5 191t-172.5 71z" />
    <glyph glyph-name="otilde" unicode="&#xf5;" horiz-adv-x="1144" 
d="M492 1430q50 0 167 -34t142 -34q30 0 53.5 10.5t45 27t30.5 21.5q37 16 57 -22l41 -74q16 -28 6 -57q-14 -54 -80 -101t-157 -47q-55 0 -172 34t-138 34q-30 0 -53.5 -11t-44.5 -27.5t-31 -21.5q-13 -7 -30 -1.5t-27 24.5l-41 74q-16 28 -6 57q14 54 80.5 101t157.5 47z
M604 1016q210 0 350 -137t140 -347q0 -154 -72 -282.5t-198.5 -203.5t-280.5 -75q-208 0 -349 137.5t-141 346.5q0 154 72 282.5t198.5 203.5t280.5 75zM594 782q-120 0 -201.5 -93t-81.5 -224q0 -118 70 -190t172 -72q120 0 201.5 93t81.5 224q0 120 -69.5 191t-172.5 71z
" />
    <glyph glyph-name="odieresis" unicode="&#xf6;" horiz-adv-x="1144" 
d="M281 1253q6 69 59 118.5t119 49.5q69 0 113 -49.5t38 -118.5t-59 -118.5t-121 -49.5q-67 0 -111 49.5t-38 118.5zM713 1253q6 69 58.5 118.5t119.5 49.5q68 0 112.5 -49.5t38.5 -118.5t-59 -118.5t-121 -49.5q-67 0 -111 49.5t-38 118.5zM604 1016q210 0 350 -137
t140 -347q0 -154 -72 -282.5t-198.5 -203.5t-280.5 -75q-208 0 -349 137.5t-141 346.5q0 154 72 282.5t198.5 203.5t280.5 75zM594 782q-120 0 -201.5 -93t-81.5 -224q0 -118 70 -190t172 -72q120 0 201.5 93t81.5 224q0 120 -69.5 191t-172.5 71z" />
    <glyph glyph-name="divide" unicode="&#xf7;" horiz-adv-x="1165" 
d="M680 956q-74 0 -125.5 53t-50.5 128t55 127.5t129 52.5q74 0 125.5 -52.5t50.5 -127.5q-2 -75 -55.5 -128t-128.5 -53zM1155 807l-31 -172q-5 -19 -19 -32t-32 -13h-944q-19 0 -30 13t-7 32l33 172q5 20 18 32.5t31 12.5h946q19 0 29 -13t6 -32zM557 117q-75 0 -127 52.5
t-51 127.5t55.5 127.5t128.5 52.5q75 0 127 -52.5t51 -127.5q-5 -76 -57.5 -128t-126.5 -52z" />
    <glyph glyph-name="oslash" unicode="&#xf8;" horiz-adv-x="1144" 
d="M604 1016q210 0 350 -137t140 -347q0 -154 -72 -282.5t-198.5 -203.5t-280.5 -75q-208 0 -349 137.5t-141 346.5q0 154 72 282.5t198.5 203.5t280.5 75zM311 465q0 -68 29 -131l383 411q-55 37 -129 37q-120 0 -201.5 -93t-81.5 -224zM553 203q120 0 201.5 93t81.5 224
q0 58 -23 119l-375 -408q54 -28 115 -28z" />
    <glyph glyph-name="ugrave" unicode="&#xf9;" horiz-adv-x="1142" 
d="M385 1497h221q38 0 53 -37l105 -307q15 -59 -47 -59h-119q-30 0 -51 30l-201 310q-13 23 -2 43t41 20zM432 948l-92 -512q-20 -116 26.5 -177.5t151.5 -61.5q106 0 172.5 65.5t87.5 179.5l90 506q4 17 18.5 28t31.5 11h176q17 0 25.5 -12t4.5 -31l-157 -903
q-10 -41 -47 -41h-175q-18 0 -29 11t-7 28l16 78q-115 -146 -313 -146q-180 0 -274 123t-62 312l96 542q5 17 17.5 28t29.5 11h176q17 0 27.5 -11t9.5 -28z" />
    <glyph glyph-name="uacute" unicode="&#xfa;" horiz-adv-x="1142" 
d="M762 1497h221q30 0 42 -22t-3 -41l-242 -310q-12 -18 -22.5 -24t-28.5 -6h-119q-30 0 -43.5 16.5t-3.5 42.5l146 307q16 37 53 37zM432 948l-92 -512q-20 -116 26.5 -177.5t151.5 -61.5q106 0 172.5 65.5t87.5 179.5l90 506q4 17 18.5 28t31.5 11h176q17 0 25.5 -12
t4.5 -31l-157 -903q-10 -41 -47 -41h-175q-18 0 -29 11t-7 28l16 78q-115 -146 -313 -146q-180 0 -274 123t-62 312l96 542q5 17 17.5 28t29.5 11h176q17 0 27.5 -11t9.5 -28z" />
    <glyph glyph-name="ucircumflex" unicode="&#xfb;" horiz-adv-x="1142" 
d="M610 1497h219q36 0 54 -41l133 -303q11 -23 -1 -41t-34 -18h-137q-22 0 -32 6.5t-21 25.5l-93 166l-151 -166q-14 -14 -20 -19t-16.5 -9t-25.5 -4h-168q-20 0 -28 17t12 42l240 303q35 41 69 41zM432 948l-92 -512q-20 -116 26.5 -177.5t151.5 -61.5q106 0 172.5 65.5
t87.5 179.5l90 506q4 17 18.5 28t31.5 11h176q17 0 25.5 -12t4.5 -31l-157 -903q-10 -41 -47 -41h-175q-18 0 -29 11t-7 28l16 78q-115 -146 -313 -146q-180 0 -274 123t-62 312l96 542q5 17 17.5 28t29.5 11h176q17 0 27.5 -11t9.5 -28z" />
    <glyph glyph-name="udieresis" unicode="&#xfc;" horiz-adv-x="1142" 
d="M305 1253q6 69 59 118.5t119 49.5q69 0 113.5 -49.5t38.5 -118.5t-59 -118.5t-121 -49.5t-112 49.5t-38 118.5zM737 1253q6 69 58.5 118.5t119.5 49.5q68 0 113 -49.5t39 -118.5t-59 -118.5t-121 -49.5t-112 49.5t-38 118.5zM432 948l-92 -512q-20 -116 26.5 -177.5
t151.5 -61.5q106 0 172.5 65.5t87.5 179.5l90 506q4 17 18.5 28t31.5 11h176q17 0 25.5 -12t4.5 -31l-157 -903q-10 -41 -47 -41h-175q-18 0 -29 11t-7 28l16 78q-115 -146 -313 -146q-180 0 -274 123t-62 312l96 542q5 17 17.5 28t29.5 11h176q17 0 27.5 -11t9.5 -28z" />
    <glyph glyph-name="yacute" unicode="&#xfd;" horiz-adv-x="1032" 
d="M680 1497h221q30 0 42 -22t-3 -41l-242 -310q-12 -18 -22.5 -24t-28.5 -6h-119q-30 0 -43.5 16.5t-3.5 42.5l146 307q16 37 53 37zM135 -477q-92 0 -164 29.5t-112 74.5q-35 35 0 82l63 78q36 45 86 12q66 -49 131 -49q97 0 152 107l74 143h-93q-37 0 -43 39l-131 885
q-5 28 8.5 45.5t47.5 17.5h188q17 0 27 -12t12 -31l84 -719l326 719q19 43 57 43h207q52 0 26 -63l-542 -1108q-67 -144 -163 -218.5t-241 -74.5z" />
    <glyph glyph-name="thorn" unicode="&#xfe;" horiz-adv-x="1191" 
d="M639 782q-122 0 -205.5 -95t-83.5 -228q0 -110 67.5 -183t176.5 -73q121 0 203 95t82 228q0 108 -65 182t-175 74zM295 143l-96 -542q-5 -18 -17.5 -29.5t-29.5 -11.5h-177q-17 0 -26.5 12t-5.5 29l315 1792q10 41 47 41h176q18 0 28.5 -11.5t6.5 -29.5l-94 -516
q51 61 128.5 99t170.5 38q179 0 299.5 -130t120.5 -327q0 -129 -42 -239.5t-112.5 -186t-165 -118t-198.5 -42.5q-111 0 -197 46.5t-131 125.5z" />
    <glyph glyph-name="ydieresis" unicode="&#xff;" horiz-adv-x="1032" 
d="M223 1253q6 69 59 118.5t119 49.5q69 0 113.5 -49.5t38.5 -118.5t-59 -118.5t-121 -49.5t-112 49.5t-38 118.5zM655 1253q6 69 58.5 118.5t120.5 49.5t112.5 -49.5t38.5 -118.5t-59 -118.5t-121 -49.5t-112 49.5t-38 118.5zM135 -477q-92 0 -164 29.5t-112 74.5
q-35 35 0 82l63 78q36 45 86 12q66 -49 131 -49q97 0 152 107l74 143h-93q-37 0 -43 39l-131 885q-5 28 8.5 45.5t47.5 17.5h188q17 0 27 -12t12 -31l84 -719l326 719q19 43 57 43h207q52 0 26 -63l-542 -1108q-67 -144 -163 -218.5t-241 -74.5z" />
    <glyph glyph-name="Amacron" unicode="&#x100;" horiz-adv-x="1368" 
d="M1169 1577h-608q-18 0 -28.5 13.5t-6.5 31.5l23 133q5 19 19.5 31t33.5 12h606q19 0 30 -12.5t7 -30.5l-22 -133q-5 -19 -20 -32t-34 -13zM907 580l-102 618l-305 -618h407zM385 348l-152 -309q-17 -39 -51 -39h-202q-25 0 -35 18.5t6 47.5l684 1325q21 43 59 43h299
q39 0 47 -43l240 -1325q6 -30 -7.5 -48t-39.5 -18h-195q-35 0 -41 39l-51 309h-561z" />
    <glyph glyph-name="amacron" unicode="&#x101;" 
d="M997 1130h-608q-18 0 -28.5 14t-6.5 32l23 133q5 19 19.5 31t33.5 12h606q19 0 30 -12.5t7 -30.5l-22 -133q-5 -19 -20.5 -32.5t-33.5 -13.5zM555 201q122 0 205.5 95t83.5 228q0 111 -66.5 183.5t-175.5 72.5q-123 0 -205 -95t-82 -228q0 -108 65 -182t175 -74zM53 434
q0 127 43.5 238t115.5 185t165.5 116.5t193.5 42.5q111 0 198 -46.5t132 -125.5l17 100q8 43 47 43h176q18 0 28.5 -13t6.5 -30l-160 -903q-5 -18 -18.5 -29.5t-30.5 -11.5h-174q-19 0 -29 12t-6 29l14 78q-46 -64 -124 -106t-181 -42q-182 0 -298 131.5t-116 331.5z" />
    <glyph glyph-name="Abreve" unicode="&#x102;" horiz-adv-x="1368" 
d="M778 1878l-4 -23q-11 -49 18 -81.5t93 -32.5q56 0 95.5 30t49.5 84l4 23q9 33 35 33h166q30 0 27 -33l-9 -51q-23 -140 -124 -218.5t-259 -78.5t-244.5 86t-66.5 221l6 41q1 13 13 23t26 10h152q31 0 22 -33zM907 580l-102 618l-305 -618h407zM385 348l-152 -309
q-17 -39 -51 -39h-202q-25 0 -35 18.5t6 47.5l684 1325q21 43 59 43h299q39 0 47 -43l240 -1325q6 -30 -7.5 -48t-39.5 -18h-195q-35 0 -41 39l-51 309h-561z" />
    <glyph glyph-name="abreve" unicode="&#x103;" 
d="M606 1432l-4 -23q-11 -49 18 -82t93 -33q55 0 95 30.5t50 84.5l4 23q8 32 35 32h166q30 0 27 -32l-9 -52q-23 -140 -124 -218.5t-259 -78.5t-244.5 86.5t-66.5 221.5l6 41q1 13 13 22.5t26 9.5h152q30 0 22 -32zM555 201q122 0 205.5 95t83.5 228q0 111 -66.5 183.5
t-175.5 72.5q-123 0 -205 -95t-82 -228q0 -108 65 -182t175 -74zM53 434q0 127 43.5 238t115.5 185t165.5 116.5t193.5 42.5q111 0 198 -46.5t132 -125.5l17 100q8 43 47 43h176q18 0 28.5 -13t6.5 -30l-160 -903q-5 -18 -18.5 -29.5t-30.5 -11.5h-174q-19 0 -29 12t-6 29
l14 78q-46 -64 -124 -106t-181 -42q-182 0 -298 131.5t-116 331.5z" />
    <glyph glyph-name="Aogonek" unicode="&#x104;" horiz-adv-x="1368" 
d="M907 580l-102 618l-305 -618h407zM1237 -305l-10 -68q-4 -30 -70 -48.5t-131 -18.5q-89 0 -139.5 39.5t-50.5 115.5q0 72 57 146.5t145 138.5q-35 0 -41 39l-51 309h-561l-152 -309q-17 -39 -51 -39h-202q-25 0 -35 18.5t6 47.5l684 1325q21 43 59 43h299q39 0 47 -43
l240 -1325q6 -30 -7.5 -48t-39.5 -18h-47q-59 -61 -94 -118t-35 -93q0 -61 73 -61q23 0 49.5 5t30.5 5q33 0 27 -43z" />
    <glyph glyph-name="aogonek" unicode="&#x105;" 
d="M555 201q122 0 205.5 95t83.5 228q0 111 -66.5 183.5t-175.5 72.5q-123 0 -205 -95t-82 -228q0 -108 65 -182t175 -74zM999 -258l-10 -68q-4 -30 -70 -48.5t-131 -18.5q-89 0 -139.5 39.5t-50.5 115.5q0 120 164 254q-7 17 -4 25l14 78q-46 -64 -124 -106t-181 -42
q-182 0 -298 131.5t-116 331.5q0 127 43.5 238t115.5 185t165.5 116.5t193.5 42.5q111 0 198 -46.5t132 -125.5l17 100q8 43 47 43h176q18 0 28.5 -13t6.5 -30l-160 -903q-5 -18 -18.5 -29.5t-30.5 -11.5h-60q-88 -106 -88 -164q0 -61 74 -61q23 0 49.5 5t30.5 5
q32 0 26 -43z" />
    <glyph glyph-name="Cacute" unicode="&#x106;" horiz-adv-x="1486" 
d="M1057 1939h221q30 0 42 -22t-3 -41l-242 -309q-13 -18 -23 -24.5t-28 -6.5h-119q-30 0 -43.5 16.5t-3.5 42.5l146 308q8 19 19.5 27.5t33.5 8.5zM375 662q0 -199 121 -325t307 -126q262 0 411 254q1 1 3.5 5.5t3.5 6t3.5 5.5t5 5.5t6 3.5t7 2t8.5 -0.5t11 -3.5l172 -75
q33 -13 16 -47q-96 -190 -271 -294t-393 -104q-151 0 -280 52.5t-218 144t-139.5 218t-50.5 271.5q0 167 61.5 317t165.5 256.5t245 169t296 62.5q255 0 435.5 -131.5t226.5 -353.5q7 -34 -31 -41l-174 -33q-38 -6 -47 25q-48 139 -150 216t-249 77q-139 0 -254.5 -75.5
t-181.5 -203t-66 -278.5z" />
    <glyph glyph-name="cacute" unicode="&#x107;" horiz-adv-x="1042" 
d="M741 1491h222q29 0 41 -22.5t-3 -41.5l-241 -309q-13 -18 -23 -24.5t-28 -6.5h-119q-30 0 -43.5 17t-3.5 43l145 307q16 37 53 37zM956 166q-153 -195 -415 -195q-217 0 -351.5 136.5t-134.5 341.5q0 243 153 405t380 162q170 0 284.5 -73.5t159.5 -184.5q7 -18 -2 -36.5
t-29 -29.5l-114 -61q-41 -24 -68 20q-78 129 -225 129q-117 0 -198 -94.5t-81 -226.5q0 -111 66 -182.5t170 -71.5q65 0 117 26t104 84q34 39 76 7l102 -78q17 -13 18 -37t-12 -41z" />
    <glyph glyph-name="Ccircumflex" unicode="&#x108;" horiz-adv-x="1486" 
d="M905 1939h219q36 0 54 -41l133 -303q11 -23 -1 -41t-34 -18h-137q-22 0 -32 7t-22 26l-92 166l-151 -166l-15.5 -15.5t-12 -9t-16 -7t-18.5 -1.5h-168q-20 0 -28 17t12 42l240 303q35 41 69 41zM375 662q0 -199 121 -325t307 -126q262 0 411 254q1 1 3.5 5.5t3.5 6
t3.5 5.5t5 5.5t6 3.5t7 2t8.5 -0.5t11 -3.5l172 -75q33 -13 16 -47q-96 -190 -271 -294t-393 -104q-151 0 -280 52.5t-218 144t-139.5 218t-50.5 271.5q0 167 61.5 317t165.5 256.5t245 169t296 62.5q255 0 435.5 -131.5t226.5 -353.5q7 -34 -31 -41l-174 -33q-38 -6 -47 25
q-48 139 -150 216t-249 77q-139 0 -254.5 -75.5t-181.5 -203t-66 -278.5z" />
    <glyph glyph-name="ccircumflex" unicode="&#x109;" horiz-adv-x="1042" 
d="M590 1491h219q35 0 53 -41l133 -303q11 -24 -0.5 -42t-33.5 -18h-138q-22 0 -31.5 7t-21.5 26l-92 166l-152 -166q-26 -26 -37 -30q-9 -3 -24 -3h-168q-20 0 -28 17.5t12 42.5l239 303q35 41 70 41zM956 166q-153 -195 -415 -195q-217 0 -351.5 136.5t-134.5 341.5
q0 243 153 405t380 162q170 0 284.5 -73.5t159.5 -184.5q7 -18 -2 -36.5t-29 -29.5l-114 -61q-41 -24 -68 20q-78 129 -225 129q-117 0 -198 -94.5t-81 -226.5q0 -111 66 -182.5t170 -71.5q65 0 117 26t104 84q34 39 76 7l102 -78q17 -13 18 -37t-12 -41z" />
    <glyph glyph-name="Cdotaccent" unicode="&#x10a;" horiz-adv-x="1486" 
d="M965 1544q-75 0 -124.5 55t-41.5 130q6 77 64 130.5t134 53.5t124.5 -53.5t41.5 -130.5q-4 -74 -64 -129.5t-134 -55.5zM375 662q0 -199 121 -325t307 -126q262 0 411 254q1 1 3.5 5.5t3.5 6t3.5 5.5t5 5.5t6 3.5t7 2t8.5 -0.5t11 -3.5l172 -75q33 -13 16 -47
q-96 -190 -271 -294t-393 -104q-151 0 -280 52.5t-218 144t-139.5 218t-50.5 271.5q0 167 61.5 317t165.5 256.5t245 169t296 62.5q255 0 435.5 -131.5t226.5 -353.5q7 -34 -31 -41l-174 -33q-38 -6 -47 25q-48 139 -150 216t-249 77q-139 0 -254.5 -75.5t-181.5 -203
t-66 -278.5z" />
    <glyph glyph-name="cdotaccent" unicode="&#x10b;" horiz-adv-x="1042" 
d="M649 1096q-75 0 -124 54.5t-42 129.5q6 77 64.5 130.5t134.5 53.5t124.5 -53.5t41.5 -130.5q-4 -74 -64.5 -129t-134.5 -55zM956 166q-153 -195 -415 -195q-217 0 -351.5 136.5t-134.5 341.5q0 243 153 405t380 162q170 0 284.5 -73.5t159.5 -184.5q7 -18 -2 -36.5
t-29 -29.5l-114 -61q-41 -24 -68 20q-78 129 -225 129q-117 0 -198 -94.5t-81 -226.5q0 -111 66 -182.5t170 -71.5q65 0 117 26t104 84q34 39 76 7l102 -78q17 -13 18 -37t-12 -41z" />
    <glyph glyph-name="Ccaron" unicode="&#x10c;" horiz-adv-x="1486" 
d="M1055 1536h-221q-36 0 -54 41l-133 303q-10 24 3 41.5t32 17.5h139q22 0 32 -6.5t21 -25.5l91 -166l153 166q14 14 20 19t16.5 9t25.5 4h166q20 0 28 -16.5t-10 -42.5l-242 -303q-35 -41 -67 -41zM375 662q0 -199 121 -325t307 -126q262 0 411 254q1 1 3.5 5.5t3.5 6
t3.5 5.5t5 5.5t6 3.5t7 2t8.5 -0.5t11 -3.5l172 -75q33 -13 16 -47q-96 -190 -271 -294t-393 -104q-151 0 -280 52.5t-218 144t-139.5 218t-50.5 271.5q0 167 61.5 317t165.5 256.5t245 169t296 62.5q255 0 435.5 -131.5t226.5 -353.5q7 -34 -31 -41l-174 -33q-38 -6 -47 25
q-48 139 -150 216t-249 77q-139 0 -254.5 -75.5t-181.5 -203t-66 -278.5z" />
    <glyph glyph-name="ccaron" unicode="&#x10d;" horiz-adv-x="1042" 
d="M739 1087h-221q-35 0 -53 41l-133 304q-10 24 3 41.5t32 17.5h139q22 0 31.5 -7t21.5 -26l90 -166l154 166q26 26 37 30q10 3 24 3h166q20 0 28.5 -16.5t-9.5 -42.5l-242 -304q-35 -41 -68 -41zM956 166q-153 -195 -415 -195q-217 0 -351.5 136.5t-134.5 341.5
q0 243 153 405t380 162q170 0 284.5 -73.5t159.5 -184.5q7 -18 -2 -36.5t-29 -29.5l-114 -61q-41 -24 -68 20q-78 129 -225 129q-117 0 -198 -94.5t-81 -226.5q0 -111 66 -182.5t170 -71.5q65 0 117 26t104 84q34 39 76 7l102 -78q17 -13 18 -37t-12 -41z" />
    <glyph glyph-name="Dcaron" unicode="&#x10e;" horiz-adv-x="1497" 
d="M1012 1540h-221q-36 0 -54 41l-133 303q-10 24 3 42t32 18h139q22 0 31.5 -7t21.5 -26l91 -166l153 166l15.5 15.5t12 9t16 7t18.5 1.5h166q20 0 28 -17t-10 -43l-242 -303q-35 -41 -67 -41zM344 1434h428q166 0 301.5 -51t223.5 -139t136 -204t48 -249
q0 -171 -67 -319.5t-181.5 -251t-271 -161.5t-332.5 -59h-537q-19 0 -30.5 14t-6.5 31l238 1346q5 18 19 30.5t32 12.5zM362 250h263q130 0 238.5 40.5t182 111.5t114 169t40.5 211q0 181 -117.5 291.5t-326.5 110.5h-230z" />
    <glyph glyph-name="dcaron" unicode="&#x10f;" horiz-adv-x="1343" 
d="M1294 1004l103 135q-42 18 -68 61t-22 92q8 69 56.5 113.5t119.5 44.5q70 0 120 -52.5t44 -129.5q-7 -89 -78.5 -178t-151.5 -148q-31 -20 -51 -24t-45 8l-21 14q-36 26 -6 64zM555 201q122 0 205.5 95t83.5 228q0 111 -66.5 183.5t-175.5 72.5q-123 0 -205 -95t-82 -228
q0 -108 65 -182t175 -74zM758 41l14 78q-46 -64 -124 -106t-181 -42q-182 0 -298 131.5t-116 331.5q0 127 43.5 238t115.5 185t165.5 116.5t193.5 42.5q111 0 197 -46.5t131 -125.5l94 549q10 41 47 41h181q18 0 27 -11.5t5 -29.5l-237 -1352q-5 -18 -18.5 -29.5
t-30.5 -11.5h-174q-19 0 -29 12t-6 29z" />
    <glyph glyph-name="Dcroat" unicode="&#x110;" horiz-adv-x="1531" 
d="M664 0h-537q-19 0 -30.5 14t-6.5 31l100 567h-124q-19 0 -30 13t-7 32l22 127q5 19 19 32t32 13h127l99 562q5 18 19 30.5t32 12.5h428q166 0 301.5 -51t223.5 -139t136 -204t48 -249q0 -171 -67 -319.5t-181.5 -251t-271 -161.5t-332.5 -59zM397 250h262q173 0 305 70
t201.5 190t69.5 272q0 181 -117.5 291.5t-326.5 110.5h-230l-61 -355h327q19 0 30 -13t7 -32l-22 -127q-5 -19 -20 -32t-34 -13h-327z" />
    <glyph glyph-name="dslash" unicode="&#x111;" 
d="M555 201q122 0 205.5 95t83.5 228q0 111 -66.5 183.5t-175.5 72.5q-123 0 -205 -95t-82 -228q0 -108 65 -182t175 -74zM758 41l14 78q-46 -64 -124 -106t-181 -42q-182 0 -298 131.5t-116 331.5q0 127 43.5 238t115.5 185t165.5 116.5t193.5 42.5q111 0 197 -46.5
t131 -125.5l45 264h-217q-19 0 -30 13t-7 32l15 84q9 45 53 45h217l18 111q10 41 47 41h181q18 0 27 -11.5t5 -29.5l-18 -111h106q19 0 29 -13t6 -32l-14 -84q-9 -45 -51 -45h-107l-188 -1067q-5 -18 -18.5 -29.5t-30.5 -11.5h-174q-19 0 -29 12t-6 29z" />
    <glyph glyph-name="Emacron" unicode="&#x112;" horiz-adv-x="1271" 
d="M1161 1577h-608q-18 0 -28.5 13.5t-6.5 31.5l23 133q5 19 19.5 31t33.5 12h606q19 0 30 -12.5t7 -30.5l-23 -133q-5 -19 -20 -32t-33 -13zM344 1434h991q18 0 28.5 -13.5t6.5 -31.5l-29 -164q-10 -43 -51 -43h-764l-59 -338h397q19 0 30 -13t7 -32l-29 -156
q-5 -19 -19 -32t-32 -13h-397l-62 -346h779q19 0 29 -12t6 -31l-29 -164q-11 -45 -51 -45h-1004q-19 0 -30 13t-7 32l238 1346q5 18 19 30.5t32 12.5z" />
    <glyph glyph-name="emacron" unicode="&#x113;" horiz-adv-x="1097" 
d="M954 1130h-608q-18 0 -28.5 14t-6.5 32l23 133q5 19 19.5 31t33.5 12h606q19 0 30 -12.5t7 -30.5l-22 -133q-5 -19 -20.5 -32.5t-33.5 -13.5zM539 -29q-223 0 -355.5 134t-132.5 339q0 156 71.5 287t199.5 208t284 77q115 0 208 -42t149 -110.5t84 -153.5t22 -175l-4 -56
q-3 -51 -57 -51h-699v-8q0 -99 64.5 -161t163.5 -62q131 0 237 102q29 29 60 10l124 -84q16 -10 18 -28.5t-7 -28.5q-61 -85 -169.5 -141t-260.5 -56zM598 809q-90 0 -163.5 -60t-102.5 -163h485q0 109 -63 166t-156 57z" />
    <glyph glyph-name="Ebreve" unicode="&#x114;" horiz-adv-x="1271" 
d="M770 1878l-4 -23q-11 -49 18 -81.5t93 -32.5q56 0 95.5 30t49.5 84l4 23q9 33 35 33h166q29 0 26 -33l-8 -51q-23 -140 -124 -218.5t-259 -78.5t-244.5 86t-66.5 221l6 41q1 13 13 23t26 10h152q31 0 22 -33zM344 1434h991q18 0 28.5 -13.5t6.5 -31.5l-29 -164
q-10 -43 -51 -43h-764l-59 -338h397q19 0 30 -13t7 -32l-29 -156q-5 -19 -19 -32t-32 -13h-397l-62 -346h779q19 0 29 -12t6 -31l-29 -164q-11 -45 -51 -45h-1004q-19 0 -30 13t-7 32l238 1346q5 18 19 30.5t32 12.5z" />
    <glyph glyph-name="ebreve" unicode="&#x115;" horiz-adv-x="1097" 
d="M563 1432l-4 -23q-11 -49 18 -82t93 -33q55 0 95 30.5t50 84.5l4 23q8 32 35 32h166q30 0 27 -32l-9 -52q-23 -140 -124 -218.5t-259 -78.5t-244.5 86.5t-66.5 221.5l6 41q1 13 13 22.5t26 9.5h152q30 0 22 -32zM539 -29q-223 0 -355.5 134t-132.5 339q0 156 71.5 287
t199.5 208t284 77q115 0 208 -42t149 -110.5t84 -153.5t22 -175l-4 -56q-3 -51 -57 -51h-699v-8q0 -99 64.5 -161t163.5 -62q131 0 237 102q29 29 60 10l124 -84q16 -10 18 -28.5t-7 -28.5q-61 -85 -169.5 -141t-260.5 -56zM598 809q-90 0 -163.5 -60t-102.5 -163h485
q0 109 -63 166t-156 57z" />
    <glyph glyph-name="Edotaccent" unicode="&#x116;" horiz-adv-x="1271" 
d="M854 1548q-75 0 -124.5 55t-41.5 130q6 77 64.5 130.5t134.5 53.5t124.5 -53.5t41.5 -130.5q-4 -74 -64.5 -129.5t-134.5 -55.5zM344 1434h991q18 0 28.5 -13.5t6.5 -31.5l-29 -164q-10 -43 -51 -43h-764l-59 -338h397q19 0 30 -13t7 -32l-29 -156q-5 -19 -19 -32
t-32 -13h-397l-62 -346h779q19 0 29 -12t6 -31l-29 -164q-11 -45 -51 -45h-1004q-19 0 -30 13t-7 32l238 1346q5 18 19 30.5t32 12.5z" />
    <glyph glyph-name="edotaccent" unicode="&#x117;" horiz-adv-x="1097" 
d="M647 1102q-75 0 -124 54.5t-42 129.5q6 77 64.5 130.5t134.5 53.5t124.5 -53.5t41.5 -130.5q-4 -74 -64.5 -129t-134.5 -55zM539 -29q-223 0 -355.5 134t-132.5 339q0 156 71.5 287t199.5 208t284 77q115 0 208 -42t149 -110.5t84 -153.5t22 -175l-4 -56q-3 -51 -57 -51
h-699v-8q0 -99 64.5 -161t163.5 -62q131 0 237 102q29 29 60 10l124 -84q16 -10 18 -28.5t-7 -28.5q-61 -85 -169.5 -141t-260.5 -56zM598 809q-90 0 -163.5 -60t-102.5 -163h485q0 109 -63 166t-156 57z" />
    <glyph glyph-name="Eogonek" unicode="&#x118;" horiz-adv-x="1271" 
d="M989 -305l-10 -68q-4 -30 -70 -48.5t-131 -18.5q-89 0 -139.5 39.5t-50.5 115.5q0 72 57.5 146.5t145.5 138.5h-699q-19 0 -30 13t-7 32l238 1346q5 18 19 30.5t32 12.5h991q18 0 28.5 -13.5t6.5 -31.5l-29 -164q-10 -43 -51 -43h-764l-59 -338h397q19 0 30 -13t7 -32
l-29 -156q-5 -19 -19 -32t-32 -13h-397l-62 -346h779q19 0 29 -12t6 -31l-29 -164q-11 -45 -51 -45h-158q-59 -61 -94 -118t-35 -93q0 -61 74 -61q23 0 49.5 5t30.5 5q32 0 26 -43z" />
    <glyph glyph-name="eogonek" unicode="&#x119;" horiz-adv-x="1097" 
d="M610 -393q-89 0 -139.5 39.5t-50.5 115.5q0 102 112 209q-146 0 -257 64t-167.5 170.5t-56.5 238.5q0 156 71.5 287t199.5 208t284 77q115 0 208 -42t149 -110.5t84 -153.5t22 -175l-4 -56q-3 -51 -57 -51h-699v-8q0 -99 64.5 -161t163.5 -62q131 0 237 102q29 29 60 10
l124 -84q16 -10 18 -28.5t-7 -28.5q-84 -116 -242 -170q-86 -99 -86 -162q0 -61 74 -61q23 0 49.5 5t30.5 5q32 0 26 -43l-10 -68q-4 -30 -70 -48.5t-131 -18.5zM598 809q-90 0 -163.5 -60t-102.5 -163h485q0 109 -63 166t-156 57z" />
    <glyph glyph-name="Ecaron" unicode="&#x11a;" horiz-adv-x="1271" 
d="M944 1540h-221q-35 0 -53 41l-133 303q-10 25 2.5 42.5t31.5 17.5h140q22 0 31.5 -7t21.5 -26l90 -166l154 166q26 26 37 30q9 3 24 3h166q20 0 28 -17t-10 -43l-241 -303q-35 -41 -68 -41zM344 1434h991q18 0 28.5 -13.5t6.5 -31.5l-29 -164q-10 -43 -51 -43h-764
l-59 -338h397q19 0 30 -13t7 -32l-29 -156q-5 -19 -19 -32t-32 -13h-397l-62 -346h779q19 0 29 -12t6 -31l-29 -164q-11 -45 -51 -45h-1004q-19 0 -30 13t-7 32l238 1346q5 18 19 30.5t32 12.5z" />
    <glyph glyph-name="ecaron" unicode="&#x11b;" horiz-adv-x="1097" 
d="M737 1094h-221q-35 0 -53 41l-133 303q-10 24 3 41.5t32 17.5h139q22 0 31.5 -7t21.5 -26l90 -166l154 166q26 26 37 30q10 3 24 3h166q20 0 28.5 -16.5t-9.5 -42.5l-242 -303q-35 -41 -68 -41zM539 -29q-223 0 -355.5 134t-132.5 339q0 156 71.5 287t199.5 208t284 77
q115 0 208 -42t149 -110.5t84 -153.5t22 -175l-4 -56q-3 -51 -57 -51h-699v-8q0 -99 64.5 -161t163.5 -62q131 0 237 102q29 29 60 10l124 -84q16 -10 18 -28.5t-7 -28.5q-61 -85 -169.5 -141t-260.5 -56zM598 809q-90 0 -163.5 -60t-102.5 -163h485q0 109 -63 166t-156 57z
" />
    <glyph glyph-name="Gcircumflex" unicode="&#x11c;" horiz-adv-x="1572" 
d="M911 1944h219q36 0 54 -41l133 -304q11 -23 -1 -41t-34 -18h-137q-22 0 -31.5 7t-21.5 26l-93 166l-151 -166l-15.5 -15.5t-12 -9t-16 -7t-18.5 -1.5h-168q-20 0 -28 17t12 42l240 304q35 41 69 41zM1167 53l27 140q-166 -222 -461 -222q-137 0 -255.5 51t-202.5 139
t-131.5 211t-47.5 263q0 168 60.5 320t164.5 263.5t253.5 177.5t318.5 66q242 0 419 -120.5t232 -309.5q14 -32 -26 -45l-168 -57q-33 -10 -47 24q-114 265 -408 265q-148 0 -268.5 -79t-186 -208.5t-65.5 -280.5q0 -195 115 -317.5t307 -122.5q141 0 256 72t194 213h-403
q-19 0 -29.5 13t-5.5 30l22 135q5 19 19 31t33 12h606q19 0 30 -12.5t7 -30.5l-111 -629q-11 -45 -53 -45h-154q-51 0 -41 53z" />
    <glyph glyph-name="gcircumflex" unicode="&#x11d;" horiz-adv-x="1189" 
d="M623 1497h219q35 0 53 -41l133 -303q11 -23 -1 -41t-34 -18h-137q-22 0 -32 6.5t-21 25.5l-92 166l-152 -166q-15 -15 -20 -19.5t-15.5 -8.5t-25.5 -4h-168q-20 0 -28.5 17t11.5 42l240 303q35 41 70 41zM557 229q122 0 204.5 89.5t82.5 220.5q0 110 -67.5 179.5
t-176.5 69.5q-120 0 -199 -91t-79 -218q0 -108 63 -179t172 -71zM430 -477q-95 0 -179 23.5t-142 62t-97 81t-59 85.5q-6 17 -7 29t5.5 20.5t11.5 12.5t17 11l122 68q14 9 26 10t21.5 -6t12.5 -11t10 -13q97 -142 279 -142q120 0 193 65t95 167l31 141q-41 -50 -117.5 -83.5
t-171.5 -33.5q-181 0 -302.5 127t-121.5 322q0 122 41 227.5t110.5 177t161.5 112t193 40.5q114 0 201.5 -46.5t132.5 -125.5l18 100q8 43 48 43h176q17 0 26.5 -13t5.5 -30l-174 -960q-39 -220 -184 -340.5t-383 -120.5z" />
    <glyph glyph-name="Gbreve" unicode="&#x11e;" horiz-adv-x="1572" 
d="M887 1878l-4 -23q-11 -49 17.5 -81.5t92.5 -32.5q56 0 96 30t50 84l4 23q9 33 35 33h165q30 0 27 -33l-8 -51q-23 -140 -124 -218.5t-259 -78.5t-244.5 86t-66.5 221l6 41q1 13 13 23t26 10h151q32 0 23 -33zM1167 53l27 140q-166 -222 -461 -222q-137 0 -255.5 51
t-202.5 139t-131.5 211t-47.5 263q0 168 60.5 320t164.5 263.5t253.5 177.5t318.5 66q242 0 419 -120.5t232 -309.5q14 -32 -26 -45l-168 -57q-33 -10 -47 24q-114 265 -408 265q-148 0 -268.5 -79t-186 -208.5t-65.5 -280.5q0 -195 115 -317.5t307 -122.5q141 0 256 72
t194 213h-403q-19 0 -29.5 13t-5.5 30l22 135q5 19 19 31t33 12h606q19 0 30 -12.5t7 -30.5l-111 -629q-11 -45 -53 -45h-154q-51 0 -41 53z" />
    <glyph glyph-name="gbreve" unicode="&#x11f;" horiz-adv-x="1189" 
d="M598 1432l-4 -23q-11 -49 18 -82t93 -33q55 0 95 30.5t50 84.5l4 23q8 32 35 32h166q29 0 26 -32l-8 -52q-23 -140 -124 -218.5t-259 -78.5t-244.5 86.5t-66.5 221.5l6 41q1 13 13 22.5t26 9.5h151q31 0 23 -32zM557 229q122 0 204.5 89.5t82.5 220.5q0 110 -67.5 179.5
t-176.5 69.5q-120 0 -199 -91t-79 -218q0 -108 63 -179t172 -71zM430 -477q-95 0 -179 23.5t-142 62t-97 81t-59 85.5q-6 17 -7 29t5.5 20.5t11.5 12.5t17 11l122 68q14 9 26 10t21.5 -6t12.5 -11t10 -13q97 -142 279 -142q120 0 193 65t95 167l31 141q-41 -50 -117.5 -83.5
t-171.5 -33.5q-181 0 -302.5 127t-121.5 322q0 122 41 227.5t110.5 177t161.5 112t193 40.5q114 0 201.5 -46.5t132.5 -125.5l18 100q8 43 48 43h176q17 0 26.5 -13t5.5 -30l-174 -960q-39 -220 -184 -340.5t-383 -120.5z" />
    <glyph glyph-name="Gdotaccent" unicode="&#x120;" horiz-adv-x="1572" 
d="M971 1548q-75 0 -124.5 55t-41.5 130q6 77 64.5 130.5t134.5 53.5t124 -53.5t41 -130.5q-4 -74 -64 -129.5t-134 -55.5zM1167 53l27 140q-166 -222 -461 -222q-137 0 -255.5 51t-202.5 139t-131.5 211t-47.5 263q0 168 60.5 320t164.5 263.5t253.5 177.5t318.5 66
q242 0 419 -120.5t232 -309.5q14 -32 -26 -45l-168 -57q-33 -10 -47 24q-114 265 -408 265q-148 0 -268.5 -79t-186 -208.5t-65.5 -280.5q0 -195 115 -317.5t307 -122.5q141 0 256 72t194 213h-403q-19 0 -29.5 13t-5.5 30l22 135q5 19 19 31t33 12h606q19 0 30 -12.5
t7 -30.5l-111 -629q-11 -45 -53 -45h-154q-51 0 -41 53z" />
    <glyph glyph-name="gdotaccent" unicode="&#x121;" horiz-adv-x="1189" 
d="M682 1102q-75 0 -124 54.5t-42 129.5q6 77 64.5 130.5t134.5 53.5t124.5 -53.5t41.5 -130.5q-4 -74 -64.5 -129t-134.5 -55zM557 229q122 0 204.5 89.5t82.5 220.5q0 110 -67.5 179.5t-176.5 69.5q-120 0 -199 -91t-79 -218q0 -108 63 -179t172 -71zM430 -477
q-95 0 -179 23.5t-142 62t-97 81t-59 85.5q-6 17 -7 29t5.5 20.5t11.5 12.5t17 11l122 68q14 9 26 10t21.5 -6t12.5 -11t10 -13q97 -142 279 -142q120 0 193 65t95 167l31 141q-41 -50 -117.5 -83.5t-171.5 -33.5q-181 0 -302.5 127t-121.5 322q0 122 41 227.5t110.5 177
t161.5 112t193 40.5q114 0 201.5 -46.5t132.5 -125.5l18 100q8 43 48 43h176q17 0 26.5 -13t5.5 -30l-174 -960q-39 -220 -184 -340.5t-383 -120.5z" />
    <glyph glyph-name="Gcommaaccent" unicode="&#x122;" horiz-adv-x="1572" 
d="M1167 53l27 140q-166 -222 -461 -222q-137 0 -255.5 51t-202.5 139t-131.5 211t-47.5 263q0 168 60.5 320t164.5 263.5t253.5 177.5t318.5 66q242 0 419 -120.5t232 -309.5q14 -32 -26 -45l-168 -57q-33 -10 -47 24q-114 265 -408 265q-148 0 -268.5 -79t-186 -208.5
t-65.5 -280.5q0 -195 115 -317.5t307 -122.5q141 0 256 72t194 213h-403q-19 0 -29.5 13t-5.5 30l22 135q5 19 19 31t33 12h606q19 0 30 -12.5t7 -30.5l-111 -629q-11 -45 -53 -45h-154q-51 0 -41 53zM498 -530l104 129q-42 18 -67 57.5t-21 85.5q8 70 55.5 114t118.5 44
q68 0 116 -52.5t42 -128.5q-4 -50 -28 -99.5t-61.5 -90t-70 -68t-68.5 -51.5q-61 -42 -94 -14l-20 12q-18 13 -18.5 31t12.5 31z" />
    <glyph glyph-name="gcommaaccent" unicode="&#x123;" horiz-adv-x="1189" 
d="M872 1589l-127 -145q48 -24 74.5 -69.5t22.5 -98.5q-8 -75 -60 -123.5t-129 -48.5q-75 0 -127.5 58t-48.5 145q18 179 262 348q68 44 105 16l20 -16q39 -26 8 -66zM557 229q122 0 204.5 89.5t82.5 220.5q0 110 -67.5 179.5t-176.5 69.5q-120 0 -199 -91t-79 -218
q0 -108 63 -179t172 -71zM430 -477q-95 0 -179 23.5t-142 62t-97 81t-59 85.5q-6 17 -7 29t5.5 20.5t11.5 12.5t17 11l122 68q14 9 26 10t21.5 -6t12.5 -11t10 -13q97 -142 279 -142q120 0 193 65t95 167l31 141q-41 -50 -117.5 -83.5t-171.5 -33.5q-181 0 -302.5 127
t-121.5 322q0 122 41 227.5t110.5 177t161.5 112t193 40.5q114 0 201.5 -46.5t132.5 -125.5l18 100q8 43 48 43h176q17 0 26.5 -13t5.5 -30l-174 -960q-39 -220 -184 -340.5t-383 -120.5z" />
    <glyph glyph-name="Hcircumflex" unicode="&#x124;" horiz-adv-x="1511" 
d="M879 1944h219q35 0 53 -41l133 -304q11 -23 -1 -41t-34 -18h-137q-22 0 -31.5 7t-21.5 26l-92 166l-152 -166q-26 -26 -37 -30q-10 -3 -24 -3h-168q-20 0 -28.5 17t11.5 42l240 304q35 41 70 41zM1536 1391l-238 -1346q-4 -20 -18 -32.5t-31 -12.5h-186q-18 0 -28.5 12.5
t-6.5 32.5l98 553h-702l-98 -553q-6 -45 -50 -45h-184q-19 0 -30 12.5t-7 32.5l238 1346q10 43 51 43h182q19 0 30 -12.5t7 -30.5l-96 -547h704l95 547q10 43 51 43h182q19 0 30 -12.5t7 -30.5z" />
    <glyph glyph-name="hcircumflex" unicode="&#x125;" horiz-adv-x="1171" 
d="M711 1944h219q35 0 53 -41l133 -304q11 -23 -1 -41t-34 -18h-137q-22 0 -31.5 7t-21.5 26l-92 166l-152 -166q-26 -26 -37 -30q-10 -3 -24 -3h-168q-20 0 -28.5 17t11.5 42l240 304q35 41 70 41zM356 479l-77 -440q-4 -18 -18 -28.5t-32 -10.5h-176q-18 0 -27.5 12
t-5.5 29l238 1352q10 41 47 41h178q18 0 28.5 -11t6.5 -28l-92 -518q52 63 131.5 101t173.5 38q124 0 214.5 -54.5t132.5 -162.5t18 -252l-90 -508q-4 -18 -18 -28.5t-32 -10.5h-174q-18 0 -28 11t-6 28l83 477q24 121 -23.5 189.5t-162.5 68.5q-110 0 -187 -79.5
t-102 -215.5z" />
    <glyph glyph-name="Hbar" unicode="&#x126;" horiz-adv-x="1525" 
d="M477 844h705l32 190h-704zM434 598l-98 -553q-6 -45 -49 -45h-185q-19 0 -29.5 12.5t-6.5 32.5l174 989h-82q-18 0 -28.5 13t-8.5 32l18 107q5 19 20 32t34 13h81l29 160q10 43 51 43h183q19 0 29.5 -12.5t6.5 -30.5l-28 -160h704l27 160q10 43 51 43h182q19 0 30 -12.5
t7 -30.5l-28 -160h71q19 0 29 -13t6 -32l-18 -107q-5 -19 -19.5 -32t-32.5 -13h-71l-174 -989q-4 -20 -18 -32.5t-31 -12.5h-187q-18 0 -28.5 12.5t-6.5 32.5l99 553h-703z" />
    <glyph glyph-name="hbar" unicode="&#x127;" horiz-adv-x="1171" 
d="M356 479l-77 -440q-4 -18 -18 -28.5t-32 -10.5h-176q-18 0 -27.5 12t-5.5 29l189 1067h-94q-19 0 -30 13t-7 32l14 84q9 45 53 45h95l18 111q10 41 47 41h178q18 0 28.5 -11t6.5 -28l-20 -113h231q19 0 29 -13t6 -32l-14 -84q-9 -45 -52 -45h-231l-41 -231
q52 63 131.5 101t173.5 38q124 0 214.5 -54.5t132.5 -162.5t18 -252l-90 -508q-4 -18 -18 -28.5t-32 -10.5h-174q-18 0 -28 11t-6 28l83 477q24 121 -23.5 189.5t-162.5 68.5q-110 0 -187 -79.5t-102 -215.5z" />
    <glyph glyph-name="Itilde" unicode="&#x128;" horiz-adv-x="536" 
d="M299 1876q50 0 167 -34t142 -34q30 0 53.5 11t44.5 27.5t31 21.5q13 7 30.5 1.5t27.5 -24.5l41 -73q16 -28 6 -58q-14 -53 -80.5 -100t-157.5 -47q-55 0 -171.5 33.5t-137.5 33.5q-30 0 -53.5 -10.5t-45 -27t-30.5 -21.5q-37 -16 -57 22l-41 74q-16 30 -7 58
q14 53 80.5 100t157.5 47zM274 0h-184q-41 0 -35 45l238 1346q10 43 51 43h182q18 0 28.5 -12.5t6.5 -30.5l-237 -1346q-6 -45 -50 -45z" />
    <glyph glyph-name="itilde" unicode="&#x129;" horiz-adv-x="456" 
d="M180 1430q50 0 167 -34t142 -34q30 0 53.5 10.5t45 27t30.5 21.5q13 7 30.5 2t27.5 -24l41 -74q16 -28 6 -57q-14 -54 -80.5 -101t-157.5 -47q-55 0 -171.5 34t-137.5 34q-30 0 -53.5 -11t-44.5 -27.5t-31 -21.5q-13 -7 -30 -1.5t-27 24.5l-41 74q-16 28 -6 57
q14 54 80 101t157 47zM231 0h-176q-18 0 -28.5 13t-6.5 30l160 901q5 19 18.5 31t30.5 12h177q18 0 27 -12.5t5 -30.5l-159 -901q-1 -17 -16 -30t-32 -13z" />
    <glyph glyph-name="Imacron" unicode="&#x12a;" horiz-adv-x="536" 
d="M758 1577h-608q-18 0 -28.5 13.5t-6.5 31.5l22 133q5 19 19.5 31t33.5 12h607q19 0 30 -12.5t7 -30.5l-23 -133q-5 -19 -20 -32t-33 -13zM274 0h-184q-41 0 -35 45l238 1346q10 43 51 43h182q18 0 28.5 -12.5t6.5 -30.5l-237 -1346q-6 -45 -50 -45z" />
    <glyph glyph-name="imacron" unicode="&#x12b;" horiz-adv-x="456" 
d="M639 1130h-608q-18 0 -28.5 14t-6.5 32l22 133q4 19 19.5 31t34.5 12h606q19 0 30 -12.5t7 -30.5l-23 -133q-5 -19 -20 -32.5t-33 -13.5zM231 0h-176q-18 0 -28.5 13t-6.5 30l160 901q5 19 18.5 31t30.5 12h177q18 0 27 -12.5t5 -30.5l-159 -901q-1 -17 -16 -30t-32 -13z
" />
    <glyph glyph-name="Ibreve" unicode="&#x12c;" horiz-adv-x="536" 
d="M367 1878l-5 -23q-11 -49 18 -81.5t93 -32.5q56 0 95.5 30t49.5 84l5 23q9 33 34 33h166q30 0 27 -33l-8 -51q-23 -140 -124 -218.5t-259 -78.5t-245 86t-67 221l7 41q1 13 13 23t26 10h151q32 0 23 -33zM274 0h-184q-41 0 -35 45l238 1346q10 43 51 43h182
q18 0 28.5 -12.5t6.5 -30.5l-237 -1346q-6 -45 -50 -45z" />
    <glyph glyph-name="ibreve" unicode="&#x12d;" horiz-adv-x="456" 
d="M248 1432l-4 -23q-11 -49 17.5 -82t92.5 -33q55 0 95.5 30.5t50.5 84.5l4 23q8 32 35 32h166q29 0 26 -32l-8 -52q-23 -140 -124 -218.5t-259 -78.5t-244.5 86.5t-66.5 221.5l6 41q1 13 13 22.5t26 9.5h151q31 0 23 -32zM231 0h-176q-18 0 -28.5 13t-6.5 30l160 901
q5 19 18.5 31t30.5 12h177q18 0 27 -12.5t5 -30.5l-159 -901q-1 -17 -16 -30t-32 -13z" />
    <glyph glyph-name="Iogonek" unicode="&#x12e;" horiz-adv-x="536" 
d="M319 -305l-10 -68q-4 -30 -70 -48.5t-130 -18.5q-89 0 -140 39.5t-51 115.5q0 72 57.5 146.5t145.5 138.5h-31q-41 0 -35 45l238 1346q10 43 51 43h182q18 0 28.5 -12.5t6.5 -30.5l-237 -1346q-6 -45 -50 -45h-6q-59 -61 -94 -118t-35 -93q0 -61 74 -61q23 0 49.5 5
t30.5 5q32 0 26 -43z" />
    <glyph glyph-name="iogonek" unicode="&#x12f;" horiz-adv-x="456" 
d="M356 1116q-67 0 -111 49t-38 117t58 117t118 49q67 0 111 -49t38 -117t-58 -117t-118 -49zM240 -305l-11 -68q-4 -30 -70 -48.5t-130 -18.5q-89 0 -140 39.5t-51 115.5q0 134 205 287q-13 5 -20 16.5t-3 24.5l160 901q5 19 18.5 31t30.5 12h177q18 0 27 -12.5t5 -30.5
l-159 -901q-1 -17 -16 -30t-32 -13h-43q-59 -61 -94 -118t-35 -93q0 -61 74 -61q23 0 49.5 5t30.5 5q33 0 27 -43z" />
    <glyph glyph-name="Idot" unicode="&#x130;" horiz-adv-x="536" 
d="M451 1548q-75 0 -124.5 55t-41.5 130q6 77 64 130.5t134 53.5t124.5 -53.5t41.5 -130.5q-4 -74 -64 -129.5t-134 -55.5zM274 0h-184q-41 0 -35 45l238 1346q10 43 51 43h182q18 0 28.5 -12.5t6.5 -30.5l-237 -1346q-6 -45 -50 -45z" />
    <glyph glyph-name="dotlessi" unicode="&#x131;" horiz-adv-x="456" 
d="M231 0h-176q-18 0 -28.5 13t-6.5 30l160 901q5 19 18.5 31t30.5 12h177q18 0 27 -12.5t5 -30.5l-159 -901q-1 -17 -16 -30t-32 -13z" />
    <glyph glyph-name="IJ" unicode="&#x132;" horiz-adv-x="1761" 
d="M274 0h-184q-41 0 -35 45l238 1346q10 43 51 43h182q18 0 28.5 -12.5t6.5 -30.5l-237 -1346q-6 -45 -50 -45zM1798 1391l-166 -930q-41 -237 -186.5 -363.5t-374.5 -126.5q-89 0 -168.5 22t-143.5 66.5t-107 106t-59.5 146t-0.5 182.5l10 65q10 43 51 43h176q19 0 29 -12
t6 -31l-14 -80q-20 -118 45 -192t188 -74q124 0 192.5 75t90.5 201l160 902q5 18 19 30.5t32 12.5h182q18 0 29.5 -12.5t9.5 -30.5z" />
    <glyph glyph-name="ij" unicode="&#x133;" horiz-adv-x="917" 
d="M813 1116q-67 0 -111 49t-38 117t58 117t118 49q67 0 111 -49t38 -117t-58 -117t-118 -49zM356 1116q-67 0 -111 49t-38 117t58 117t118 49q67 0 111 -49t38 -117t-58 -117t-118 -49zM231 0h-178q-17 0 -27 13t-6 30l160 901q5 19 18.5 31t30.5 12h177q18 0 27 -12.5
t5 -30.5l-159 -901q-1 -17 -16 -30t-32 -13zM453 -111l186 1055q5 18 18.5 30.5t30.5 12.5h176q18 0 28.5 -13t6.5 -30l-190 -1079q-31 -175 -131.5 -258.5t-249.5 -83.5q-68 0 -138.5 24.5t-117.5 65.5q-27 27 -2 65l84 113q28 40 77 2q47 -33 88 -33q112 0 134 129z" />
    <glyph glyph-name="Jcircumflex" unicode="&#x134;" horiz-adv-x="1206" 
d="M1073 1944h219q36 0 54 -41l133 -304q11 -23 -1 -41t-34 -18h-137q-22 0 -32 7t-22 26l-92 166l-151 -166l-15.5 -15.5t-12 -9t-16 -7t-18.5 -1.5h-168q-20 0 -28 17t12 42l240 304q35 41 69 41zM1243 1391l-166 -930q-41 -237 -186.5 -363.5t-374.5 -126.5
q-89 0 -168.5 22t-143.5 66.5t-107 106t-59.5 146t-0.5 182.5l10 65q10 43 51 43h176q19 0 29 -12t6 -31l-14 -80q-20 -118 45 -192t188 -74q124 0 192.5 75t90.5 201l160 902q5 18 19 30.5t32 12.5h182q18 0 29.5 -12.5t9.5 -30.5z" />
    <glyph glyph-name="jcircumflex" unicode="&#x135;" horiz-adv-x="458" 
d="M274 1497h220q35 0 53 -41l133 -303q11 -23 -1 -41t-34 -18h-137q-22 0 -32 6.5t-21 25.5l-93 166l-151 -166q-15 -15 -20 -19.5t-15.5 -8.5t-25.5 -4h-168q-20 0 -28.5 17t11.5 42l240 303q35 41 69 41zM-6 -111l186 1055q5 18 18.5 30.5t30.5 12.5h177q17 0 27.5 -13
t6.5 -30l-190 -1079q-31 -175 -131.5 -258.5t-249.5 -83.5q-68 0 -138.5 24.5t-117.5 65.5q-27 27 -2 65l84 113q28 41 78 2q47 -33 88 -33q111 0 133 129z" />
    <glyph glyph-name="Kcommaaccent" unicode="&#x136;" horiz-adv-x="1327" 
d="M426 625l-102 -580q-5 -19 -18.5 -32t-31.5 -13h-184q-19 0 -29 13t-6 32l238 1346q2 17 16 30t33 13h184q18 0 27.5 -12.5t7.5 -30.5l-96 -541h164l508 547q19 21 36.5 29t45.5 8h219q25 0 30 -16.5t-12 -35.5l-612 -641l416 -688q9 -23 0 -38t-29 -15h-207
q-26 0 -40 7.5t-26 27.5l-342 590h-190zM383 -530l104 129q-42 18 -67 57.5t-21 85.5q8 70 55.5 114t118.5 44q68 0 116 -52.5t42 -128.5q-4 -50 -28 -99.5t-61 -90t-69.5 -68t-68.5 -51.5q-61 -42 -94 -14l-21 12q-18 13 -18.5 31t12.5 31z" />
    <glyph glyph-name="kcommaaccent" unicode="&#x137;" horiz-adv-x="1038" 
d="M346 426l-67 -385q-2 -17 -15.5 -29t-32.5 -12h-176q-41 0 -35 41l238 1352q4 19 18 30t31 11h176q19 0 29 -12t6 -29l-135 -762h86l303 325q25 31 59 31h203q29 0 35.5 -20t-12.5 -43l-381 -392l293 -466q14 -23 2 -44.5t-41 -21.5h-176q-28 0 -39.5 7.5t-22.5 27.5
l-235 391h-111zM209 -530l104 129q-42 18 -67 57.5t-21 85.5q8 70 55.5 114t118.5 44q68 0 116 -52.5t42 -128.5q-4 -50 -28 -99.5t-61 -90t-69.5 -68t-68.5 -51.5q-61 -42 -94 -14l-21 12q-18 13 -18.5 31t12.5 31z" />
    <glyph glyph-name="kgreenlandic" unicode="&#x138;" horiz-adv-x="1040" 
d="M348 426l-67 -385q-5 -18 -18.5 -29.5t-31.5 -11.5h-174q-19 0 -30 12t-7 29l160 903q5 19 18.5 31t30.5 12h179q18 0 27 -12.5t5 -30.5l-55 -313h86l303 325q25 31 60 31h202q29 0 35.5 -20t-12.5 -43l-381 -392l293 -466q14 -23 2 -44.5t-41 -21.5h-176
q-28 0 -39.5 7.5t-22.5 27.5l-235 391h-111z" />
    <glyph glyph-name="Lacute" unicode="&#x139;" horiz-adv-x="1130" 
d="M545 1944h221q30 0 42 -22.5t-3 -41.5l-242 -309q-13 -18 -23 -24.5t-28 -6.5h-119q-30 0 -43.5 16.5t-3.5 42.5l146 308q16 37 53 37zM1069 209l-31 -164q-1 -19 -16.5 -32t-34.5 -13h-895q-19 0 -30 13t-7 30l238 1346q1 19 16.5 32t34.5 13h182q18 0 28.5 -13.5
t6.5 -31.5l-201 -1137h672q19 0 30 -12.5t7 -30.5z" />
    <glyph glyph-name="lacute" unicode="&#x13a;" horiz-adv-x="544" 
d="M500 1944h221q30 0 42 -22.5t-3 -41.5l-242 -309q-13 -18 -23 -24.5t-28 -6.5h-119q-30 0 -43.5 16.5t-3.5 42.5l145 308q16 37 54 37zM387 0h-117q-126 0 -182 66t-35 180l203 1145q5 19 17.5 31t29.5 12h178q18 0 27.5 -12.5t5.5 -30.5l-192 -1094q-6 -36 7.5 -57
t45.5 -21h65q41 0 33 -39l-22 -131q-10 -49 -64 -49z" />
    <glyph glyph-name="Lcommaaccent" unicode="&#x13b;" horiz-adv-x="1130" 
d="M1069 209l-31 -164q-1 -19 -16.5 -32t-34.5 -13h-895q-19 0 -30 13t-7 30l238 1346q1 19 16.5 32t34.5 13h182q18 0 28.5 -13.5t6.5 -31.5l-201 -1137h672q19 0 30 -12.5t7 -30.5zM319 -530l105 129q-42 18 -67 57.5t-21 85.5q8 70 55.5 114t118.5 44q68 0 116 -52.5
t42 -128.5q-4 -50 -28 -99.5t-61.5 -90t-70 -68t-68.5 -51.5q-61 -42 -94 -14l-20 12q-18 13 -19 31t12 31z" />
    <glyph glyph-name="lcommaaccent" unicode="&#x13c;" horiz-adv-x="544" 
d="M387 0h-117q-126 0 -182 66t-35 180l203 1145q5 19 17.5 31t29.5 12h178q18 0 27.5 -12.5t5.5 -30.5l-192 -1094q-6 -36 7.5 -57t45.5 -21h65q41 0 33 -39l-22 -131q-10 -49 -64 -49zM-4 -530l104 129q-42 18 -67 57.5t-21 85.5q8 70 55.5 114t118.5 44q68 0 116 -52.5
t42 -128.5q-4 -50 -28 -99.5t-61 -90t-69.5 -68t-68.5 -51.5q-61 -42 -94 -14l-21 12q-18 13 -18.5 31t12.5 31z" />
    <glyph glyph-name="Lcaron" unicode="&#x13d;" horiz-adv-x="1134" 
d="M784 1004l103 135q-42 18 -68 61t-22 92q8 69 56.5 113.5t119.5 44.5q70 0 120 -52.5t44 -129.5q-7 -89 -78.5 -178t-151.5 -148q-31 -20 -51 -24t-45 8l-20 14q-37 27 -7 64zM1069 209l-31 -164q-1 -19 -16.5 -32t-34.5 -13h-895q-19 0 -30 13t-7 30l238 1346
q1 19 16.5 32t34.5 13h182q18 0 28.5 -13.5t6.5 -31.5l-201 -1137h672q19 0 30 -12.5t7 -30.5z" />
    <glyph glyph-name="lcaron" unicode="&#x13e;" horiz-adv-x="645" 
d="M582 1004l102 135q-42 18 -68 61t-22 92q8 69 56.5 113.5t119.5 44.5q70 0 120 -52.5t44 -129.5q-7 -89 -78.5 -178t-150.5 -148q-31 -20 -51.5 -24t-45.5 8l-20 14q-36 26 -6 64zM387 0h-117q-126 0 -182 66t-35 180l203 1145q5 19 17.5 31t29.5 12h178q18 0 27.5 -12.5
t5.5 -30.5l-192 -1094q-6 -36 7.5 -57t45.5 -21h65q41 0 33 -39l-22 -131q-10 -49 -64 -49z" />
    <glyph glyph-name="Ldot" unicode="&#x13f;" horiz-adv-x="1142" 
d="M1069 209l-31 -164q-1 -19 -16.5 -32t-34.5 -13h-895q-19 0 -30 13t-7 30l238 1346q1 19 16.5 32t34.5 13h182q18 0 28.5 -13.5t6.5 -31.5l-201 -1137h672q19 0 30 -12.5t7 -30.5zM829 575q-78 0 -129 56.5t-45 134.5q8 77 68.5 132.5t138.5 55.5t128 -55t44 -133
q-8 -78 -68.5 -134.5t-136.5 -56.5z" />
    <glyph glyph-name="ldot" unicode="&#x140;" horiz-adv-x="782" 
d="M387 0h-117q-126 0 -182 66t-35 180l203 1145q5 19 17.5 31t29.5 12h178q18 0 27.5 -12.5t5.5 -30.5l-192 -1094q-6 -36 7.5 -57t45.5 -21h65q41 0 33 -39l-22 -131q-10 -49 -64 -49zM623 420q-69 0 -114 48.5t-40 117.5q6 69 59.5 118.5t122.5 49.5t113.5 -49.5
t38.5 -118.5q-4 -69 -57.5 -117.5t-122.5 -48.5z" />
    <glyph glyph-name="Lslash" unicode="&#x141;" horiz-adv-x="1167" 
d="M1024 0h-895q-19 0 -30 13t-7 30l84 475l-121 -31q-23 -6 -34.5 5t-6.5 30l23 133q6 41 43 50l135 34l115 650q1 19 16.5 32t34.5 13h182q18 0 28.5 -13.5t6.5 -31.5l-102 -580l327 82q23 4 34.5 -6t6.5 -29l-22 -135q-6 -37 -43 -49l-342 -84l-60 -336h672
q19 0 30 -12.5t7 -30.5l-31 -164q-1 -19 -16.5 -32t-34.5 -13z" />
    <glyph glyph-name="lslash" unicode="&#x142;" horiz-adv-x="571" 
d="M408 0h-117q-126 0 -182 66t-35 180l45 252l-43 -17q-23 -8 -35 0.5t-8 28.5l20 117q4 19 13.5 28t29.5 17l58 22l122 697q5 19 18 31t30 12h178q18 0 27.5 -12.5t5.5 -30.5l-103 -586l86 35q23 8 36 -0.5t9 -28.5l-22 -117q-4 -18 -13.5 -27.5t-27.5 -15.5l-103 -41
l-55 -313q-6 -36 7.5 -57t45.5 -21h66q41 0 33 -39l-23 -131q-10 -49 -63 -49z" />
    <glyph glyph-name="Nacute" unicode="&#x143;" horiz-adv-x="1470" 
d="M1010 1944h221q30 0 42 -22.5t-3 -41.5l-242 -309q-13 -18 -23 -24.5t-28 -6.5h-119q-30 0 -43.5 16.5t-3.5 42.5l145 308q16 37 54 37zM948 43l-452 997l-174 -997q-1 -19 -15 -31t-33 -12h-182q-19 0 -30 12.5t-7 30.5l238 1348q2 17 16 30t33 13h221q40 0 55 -35
l439 -983l170 975q5 18 19.5 30.5t31.5 12.5h182q18 0 28.5 -13t6.5 -30l-238 -1348q-5 -19 -18 -31t-31 -12h-182q-63 0 -78 43z" />
    <glyph glyph-name="nacute" unicode="&#x144;" horiz-adv-x="1171" 
d="M788 1497h222q30 0 42 -22t-3 -41l-242 -310q-12 -18 -22.5 -24t-28.5 -6h-119q-30 0 -43.5 16.5t-3.5 42.5l145 307q16 37 53 37zM748 39l83 477q24 121 -23.5 189.5t-162.5 68.5q-111 0 -187.5 -79t-101.5 -216l-77 -440q-4 -18 -18 -28.5t-32 -10.5h-176
q-18 0 -27.5 12t-5.5 29l160 903q10 43 47 43h170q18 0 28.5 -11t6.5 -28l-14 -78q46 61 128.5 103.5t184.5 42.5q124 0 214.5 -54.5t132.5 -162.5t18 -252l-90 -508q-4 -18 -18 -28.5t-32 -10.5h-174q-18 0 -28 11t-6 28z" />
    <glyph glyph-name="Ncommaaccent" unicode="&#x145;" horiz-adv-x="1470" 
d="M948 43l-452 997l-174 -997q-1 -19 -15 -31t-33 -12h-182q-19 0 -30 12.5t-7 30.5l238 1348q2 17 16 30t33 13h221q40 0 55 -35l439 -983l170 975q5 18 19.5 30.5t31.5 12.5h182q18 0 28.5 -13t6.5 -30l-238 -1348q-5 -19 -18 -31t-31 -12h-182q-63 0 -78 43zM438 -530
l105 129q-42 18 -67 57.5t-21 85.5q8 70 55.5 114t118.5 44q68 0 115.5 -52.5t41.5 -128.5q-4 -50 -28 -99.5t-61 -90t-69.5 -68t-68.5 -51.5q-61 -42 -94 -14l-21 12q-18 13 -18.5 31t12.5 31z" />
    <glyph glyph-name="ncommaaccent" unicode="&#x146;" horiz-adv-x="1171" 
d="M748 39l83 477q24 121 -23.5 189.5t-162.5 68.5q-111 0 -187.5 -79t-101.5 -216l-77 -440q-4 -18 -18 -28.5t-32 -10.5h-176q-18 0 -27.5 12t-5.5 29l160 903q10 43 47 43h170q18 0 28.5 -11t6.5 -28l-14 -78q46 61 128.5 103.5t184.5 42.5q124 0 214.5 -54.5
t132.5 -162.5t18 -252l-90 -508q-4 -18 -18 -28.5t-32 -10.5h-174q-18 0 -28 11t-6 28zM295 -530l104 129q-42 18 -67 57.5t-21 85.5q8 70 55.5 114t118.5 44q68 0 116 -52.5t42 -128.5q-4 -50 -28 -99.5t-61 -90t-69.5 -68t-68.5 -51.5q-61 -42 -94 -14l-21 12
q-18 13 -18.5 31t12.5 31z" />
    <glyph glyph-name="Ncaron" unicode="&#x147;" horiz-adv-x="1470" 
d="M1008 1540h-222q-35 0 -53 41l-133 303q-10 24 3 42t32 18h139q22 0 31.5 -7t21.5 -26l91 -166l153 166l15.5 15.5t12 9t16 7t18.5 1.5h165q20 0 28.5 -17t-9.5 -43l-242 -303q-35 -41 -67 -41zM948 43l-452 997l-174 -997q-1 -19 -15 -31t-33 -12h-182q-19 0 -30 12.5
t-7 30.5l238 1348q2 17 16 30t33 13h221q40 0 55 -35l439 -983l170 975q5 18 19.5 30.5t31.5 12.5h182q18 0 28.5 -13t6.5 -30l-238 -1348q-5 -19 -18 -31t-31 -12h-182q-63 0 -78 43z" />
    <glyph glyph-name="ncaron" unicode="&#x148;" horiz-adv-x="1171" 
d="M786 1094h-221q-35 0 -53 41l-133 303q-10 24 3 41.5t32 17.5h139q22 0 31.5 -7t21.5 -26l90 -166l154 166q26 26 37 30q10 3 24 3h166q20 0 28.5 -16.5t-9.5 -42.5l-242 -303q-35 -41 -68 -41zM748 39l83 477q24 121 -23.5 189.5t-162.5 68.5q-111 0 -187.5 -79
t-101.5 -216l-77 -440q-4 -18 -18 -28.5t-32 -10.5h-176q-18 0 -27.5 12t-5.5 29l160 903q10 43 47 43h170q18 0 28.5 -11t6.5 -28l-14 -78q46 61 128.5 103.5t184.5 42.5q124 0 214.5 -54.5t132.5 -162.5t18 -252l-90 -508q-4 -18 -18 -28.5t-32 -10.5h-174q-18 0 -28 11
t-6 28z" />
    <glyph glyph-name="napostrophe" unicode="&#x149;" horiz-adv-x="1171" 
d="M176 1212l103 136q-42 18 -68.5 61t-22.5 92q8 68 57 113t120 45q70 0 119.5 -52.5t43.5 -129.5q-7 -89 -78.5 -178t-150.5 -148q-31 -20 -51 -24t-45 8l-21 14q-36 26 -6 63zM748 39l83 477q24 121 -23.5 189.5t-162.5 68.5q-111 0 -187.5 -79t-101.5 -216l-77 -440
q-4 -18 -18 -28.5t-32 -10.5h-176q-18 0 -27.5 12t-5.5 29l160 903q10 43 47 43h170q18 0 28.5 -11t6.5 -28l-14 -78q46 61 128.5 103.5t184.5 42.5q124 0 214.5 -54.5t132.5 -162.5t18 -252l-90 -508q-4 -18 -18 -28.5t-32 -10.5h-174q-18 0 -28 11t-6 28z" />
    <glyph glyph-name="Eng" unicode="&#x14a;" horiz-adv-x="1470" 
d="M850 -477q-82 0 -153.5 27.5t-108.5 68.5q-27 27 4 68l74 96q32 41 79 12q47 -33 91 -33q43 0 80 30t53 99l22 115q-31 6 -43 37l-456 971l-170 -971q-1 -19 -15 -31t-33 -12h-182q-19 0 -30 12.5t-7 30.5l238 1348q2 17 16 30t33 13h221q40 0 55 -35l443 -955l166 947
q5 18 19.5 30.5t31.5 12.5h182q18 0 28.5 -13t6.5 -30l-266 -1504q-34 -188 -133 -276t-246 -88z" />
    <glyph glyph-name="eng" unicode="&#x14b;" horiz-adv-x="1171" 
d="M719 -111l112 627q24 121 -23.5 189.5t-162.5 68.5q-111 0 -187.5 -79t-101.5 -216l-77 -440q-4 -18 -18 -28.5t-32 -10.5h-176q-18 0 -27.5 12t-5.5 29l160 903q10 43 47 43h170q18 0 28.5 -11t6.5 -28l-14 -78q46 61 128.5 103.5t184.5 42.5q92 0 168 -31.5t127 -91.5
t70.5 -147.5t-0.5 -198.5l-121 -682q-31 -175 -131.5 -258.5t-249.5 -83.5q-68 0 -138.5 24.5t-117.5 65.5q-27 27 -2 65l84 113q28 41 78 2q47 -33 88 -33q111 0 133 129z" />
    <glyph glyph-name="Omacron" unicode="&#x14c;" horiz-adv-x="1585" 
d="M1219 1581h-609q-18 0 -28.5 13.5t-6.5 31.5l23 133q5 19 19.5 31t33.5 12h606q19 0 30 -12.5t7 -30.5l-22 -133q-5 -19 -20 -32t-33 -13zM868 1462q155 0 286.5 -54t221 -147t139.5 -220.5t50 -272.5q0 -163 -58.5 -310t-159.5 -254t-245 -170t-307 -63
q-154 0 -285 54.5t-220.5 148t-139.5 221t-50 271.5q0 218 98.5 400t275.5 289t394 107zM864 1219q-102 0 -192.5 -44t-155.5 -118t-103 -176t-38 -215q0 -200 120 -325.5t306 -125.5q137 0 249 74.5t175 201t63 277.5q0 200 -120 325.5t-304 125.5z" />
    <glyph glyph-name="omacron" unicode="&#x14d;" horiz-adv-x="1144" 
d="M952 1130h-608q-18 0 -28.5 14t-6.5 32l23 133q5 19 19.5 31t33.5 12h606q19 0 30 -12.5t7 -30.5l-22 -133q-5 -19 -20.5 -32.5t-33.5 -13.5zM604 1016q210 0 350 -137t140 -347q0 -154 -72 -282.5t-198.5 -203.5t-280.5 -75q-208 0 -349 137.5t-141 346.5
q0 154 72 282.5t198.5 203.5t280.5 75zM594 782q-120 0 -201.5 -93t-81.5 -224q0 -118 70 -190t172 -72q120 0 201.5 93t81.5 224q0 120 -69.5 191t-172.5 71z" />
    <glyph glyph-name="Obreve" unicode="&#x14e;" horiz-adv-x="1585" 
d="M827 1882l-4 -22q-11 -49 18 -82t93 -33q55 0 95 30.5t50 84.5l4 22q9 33 35 33h166q30 0 27 -33l-8 -51q-23 -140 -124 -218.5t-259 -78.5t-245 86t-67 221l6 41q1 13 13 23t26 10h152q31 0 22 -33zM868 1462q155 0 286.5 -54t221 -147t139.5 -220.5t50 -272.5
q0 -163 -58.5 -310t-159.5 -254t-245 -170t-307 -63q-154 0 -285 54.5t-220.5 148t-139.5 221t-50 271.5q0 218 98.5 400t275.5 289t394 107zM864 1219q-102 0 -192.5 -44t-155.5 -118t-103 -176t-38 -215q0 -200 120 -325.5t306 -125.5q137 0 249 74.5t175 201t63 277.5
q0 200 -120 325.5t-304 125.5z" />
    <glyph glyph-name="obreve" unicode="&#x14f;" horiz-adv-x="1144" 
d="M561 1432l-4 -23q-11 -49 18 -82t93 -33q55 0 95 30.5t50 84.5l4 23q8 32 35 32h166q29 0 26 -32l-8 -52q-23 -140 -124 -218.5t-259 -78.5t-244.5 86.5t-66.5 221.5l6 41q1 13 13 22.5t26 9.5h152q30 0 22 -32zM604 1016q210 0 350 -137t140 -347q0 -154 -72 -282.5
t-198.5 -203.5t-280.5 -75q-208 0 -349 137.5t-141 346.5q0 154 72 282.5t198.5 203.5t280.5 75zM594 782q-120 0 -201.5 -93t-81.5 -224q0 -118 70 -190t172 -72q120 0 201.5 93t81.5 224q0 120 -69.5 191t-172.5 71z" />
    <glyph glyph-name="Ohungarumlaut" unicode="&#x150;" horiz-adv-x="1585" 
d="M791 1948h221q30 0 42 -22t-3 -42l-228 -309q-12 -18 -23.5 -24.5t-29.5 -6.5h-117q-30 0 -43.5 17t-3.5 43l131 307q16 37 54 37zM1219 1948h221q30 0 42 -22t-3 -42l-228 -309q-22 -31 -51 -31h-119q-30 0 -43.5 17t-3.5 43l133 307q15 37 52 37zM868 1462
q155 0 286.5 -54t221 -147t139.5 -220.5t50 -272.5q0 -163 -58.5 -310t-159.5 -254t-245 -170t-307 -63q-154 0 -285 54.5t-220.5 148t-139.5 221t-50 271.5q0 218 98.5 400t275.5 289t394 107zM864 1219q-102 0 -192.5 -44t-155.5 -118t-103 -176t-38 -215
q0 -200 120 -325.5t306 -125.5q137 0 249 74.5t175 201t63 277.5q0 200 -120 325.5t-304 125.5z" />
    <glyph glyph-name="ohungarumlaut" unicode="&#x151;" horiz-adv-x="1144" 
d="M522 1497h221q30 0 41.5 -21.5t-2.5 -41.5l-227 -310q-21 -30 -53 -30h-117q-30 0 -43.5 16.5t-3.5 42.5l131 307q16 37 53 37zM950 1497h221q30 0 41.5 -21.5t-2.5 -41.5l-227 -310q-21 -30 -51 -30h-119q-30 0 -43.5 16.5t-3.5 42.5l133 307q15 37 51 37zM604 1016
q210 0 350 -137t140 -347q0 -154 -72 -282.5t-198.5 -203.5t-280.5 -75q-208 0 -349 137.5t-141 346.5q0 154 72 282.5t198.5 203.5t280.5 75zM594 782q-120 0 -201.5 -93t-81.5 -224q0 -118 70 -190t172 -72q120 0 201.5 93t81.5 224q0 120 -69.5 191t-172.5 71z" />
    <glyph glyph-name="OE" unicode="&#x152;" horiz-adv-x="2377" 
d="M868 1219q-102 0 -192.5 -44t-155.5 -118t-103 -176t-38 -215q0 -200 120 -325.5t304 -125.5q135 0 246.5 74.5t174 201t62.5 277.5q0 201 -116.5 326t-301.5 125zM1161 45l21 109q-171 -183 -422 -183q-190 0 -341.5 90t-235 245.5t-83.5 346.5q0 167 57.5 316.5
t156.5 257.5t239.5 171.5t298.5 63.5q174 0 310.5 -76t197.5 -210l39 215q5 18 19 30.5t32 12.5h993q18 0 28.5 -13.5t6.5 -31.5l-31 -164q-1 -19 -15.5 -31t-33.5 -12h-766l-59 -338h397q19 0 30 -13t7 -32l-29 -156q-11 -45 -51 -45h-397l-62 -346h779q19 0 28.5 -12
t5.5 -31l-28 -164q-11 -45 -51 -45h-1004q-19 0 -30 13t-7 32z" />
    <glyph glyph-name="oe" unicode="&#x153;" horiz-adv-x="1884" 
d="M1325 -29q-264 0 -399 185q-145 -185 -396 -185q-209 0 -343 136.5t-134 347.5q0 154 68 282.5t191.5 203.5t275.5 75q126 0 224 -51t159 -144q75 92 184 143.5t238 51.5q114 0 206.5 -40.5t149 -108t84.5 -152t22 -174.5l-4 -62q-3 -51 -57 -51h-698v-8q0 -99 64 -161
t163 -62q132 0 238 102q29 29 59 10l125 -84q16 -10 17.5 -28.5t-7.5 -28.5q-61 -85 -169.5 -141t-260.5 -56zM1384 809q-90 0 -163.5 -60t-102.5 -163h486q0 109 -63.5 166t-156.5 57zM594 784q-120 0 -201.5 -93.5t-81.5 -225.5q0 -118 70.5 -190t173.5 -72
q120 0 201.5 93.5t81.5 223.5q0 120 -70.5 192t-173.5 72z" />
    <glyph glyph-name="Racute" unicode="&#x154;" horiz-adv-x="1374" 
d="M938 1944h221q30 0 42 -22.5t-3 -41.5l-242 -309q-13 -18 -23 -24.5t-28 -6.5h-119q-30 0 -43.5 16.5t-3.5 42.5l146 308q16 37 53 37zM453 772h348q139 0 210.5 67.5t71.5 166.5q0 86 -57 137t-154 51h-346zM414 549l-90 -504q-2 -19 -16 -32t-34 -13h-182
q-19 0 -30 12.5t-7 30.5l238 1348q2 18 15.5 30.5t35.5 12.5h576q206 0 327 -111t121 -283q0 -45 -8.5 -90.5t-34 -102.5t-66 -104t-112.5 -89t-166 -64l283 -533q11 -19 -1 -38t-38 -19h-191q-28 0 -39 9t-24 36l-260 504h-297z" />
    <glyph glyph-name="racute" unicode="&#x155;" horiz-adv-x="704" 
d="M565 1497h221q30 0 42 -22t-3 -41l-241 -310q-12 -17 -22.5 -23.5t-29.5 -6.5h-118q-30 0 -43.5 16.5t-3.5 42.5l145 307q16 37 53 37zM686 999h37q47 0 39 -49l-33 -182q-10 -49 -59 -49h-58q-212 0 -258 -242l-75 -438q-6 -39 -50 -39h-176q-19 0 -28.5 12t-4.5 29
l160 903q10 43 47 43h158q17 0 27.5 -11t9.5 -28l-25 -127q45 82 122 130t167 48z" />
    <glyph glyph-name="Rcommaaccent" unicode="&#x156;" horiz-adv-x="1374" 
d="M453 772h348q139 0 210.5 67.5t71.5 166.5q0 86 -57 137t-154 51h-346zM414 549l-90 -504q-2 -19 -16 -32t-34 -13h-182q-19 0 -30 12.5t-7 30.5l238 1348q2 18 15.5 30.5t35.5 12.5h576q206 0 327 -111t121 -283q0 -45 -8.5 -90.5t-34 -102.5t-66 -104t-112.5 -89
t-166 -64l283 -533q11 -19 -1 -38t-38 -19h-191q-28 0 -39 9t-24 36l-260 504h-297zM393 -530l105 129q-42 18 -67 57.5t-21 85.5q8 70 55.5 114t118.5 44q68 0 115.5 -52.5t41.5 -128.5q-4 -50 -28 -99.5t-61 -90t-69.5 -68t-68.5 -51.5q-61 -42 -94 -14l-21 12
q-18 13 -18.5 31t12.5 31z" />
    <glyph glyph-name="rcommaaccent" unicode="&#x157;" horiz-adv-x="704" 
d="M686 999h37q47 0 39 -49l-33 -182q-10 -49 -59 -49h-58q-212 0 -258 -242l-75 -438q-6 -39 -50 -39h-176q-19 0 -28.5 12t-4.5 29l160 903q10 43 47 43h158q17 0 27.5 -11t9.5 -28l-25 -127q45 82 122 130t167 48zM-68 -530l105 129q-42 18 -67 57.5t-21 85.5
q8 70 55.5 114t118.5 44q68 0 116 -52.5t42 -128.5q-4 -50 -28 -99.5t-61.5 -90t-70 -68t-68.5 -51.5q-61 -42 -94 -14l-20 12q-18 13 -19 31t12 31z" />
    <glyph glyph-name="Rcaron" unicode="&#x158;" horiz-adv-x="1374" 
d="M936 1540h-221q-35 0 -53 41l-134 303q-10 24 3 42t32 18h139q22 0 32 -7t22 -26l90 -166l153 166l15.5 15.5t12 9t16 7t18.5 1.5h166q20 0 28 -17t-10 -43l-241 -303q-35 -41 -68 -41zM453 772h348q139 0 210.5 67.5t71.5 166.5q0 86 -57 137t-154 51h-346zM414 549
l-90 -504q-2 -19 -16 -32t-34 -13h-182q-19 0 -30 12.5t-7 30.5l238 1348q2 18 15.5 30.5t35.5 12.5h576q206 0 327 -111t121 -283q0 -45 -8.5 -90.5t-34 -102.5t-66 -104t-112.5 -89t-166 -64l283 -533q11 -19 -1 -38t-38 -19h-191q-28 0 -39 9t-24 36l-260 504h-297z" />
    <glyph glyph-name="rcaron" unicode="&#x159;" horiz-adv-x="704" 
d="M563 1094h-221q-35 0 -53 41l-133 303q-10 24 2.5 41.5t31.5 17.5h140q22 0 31.5 -7t21.5 -26l90 -166l154 166q26 26 37 30q10 3 24 3h166q20 0 28 -16.5t-10 -42.5l-241 -303q-35 -41 -68 -41zM686 999h37q47 0 39 -49l-33 -182q-10 -49 -59 -49h-58q-212 0 -258 -242
l-75 -438q-6 -39 -50 -39h-176q-19 0 -28.5 12t-4.5 29l160 903q10 43 47 43h158q17 0 27.5 -11t9.5 -28l-25 -127q45 82 122 130t167 48z" />
    <glyph glyph-name="Sacute" unicode="&#x15a;" horiz-adv-x="1251" 
d="M879 1937h221q30 0 42 -22t-3 -41l-242 -309q-13 -18 -23 -24.5t-28 -6.5h-119q-30 0 -43.5 16.5t-3.5 42.5l145 308q16 36 54 36zM719 1462q130 0 243 -37t181 -85.5t114 -106.5q19 -23 20 -43t-6.5 -31t-23.5 -26l-92 -76q-19 -15 -36 -16t-30 7t-30 25
q-78 77 -160 114.5t-192 37.5q-114 0 -181 -48.5t-67 -127.5q0 -94 139 -146l260 -96q328 -117 328 -385q0 -61 -18.5 -121.5t-61.5 -120.5t-106 -106t-161 -74.5t-218 -28.5q-107 0 -204 23t-169 62t-125 82.5t-90 92.5q-47 59 20 113l82 70q23 19 42.5 21t35 -7.5
t33.5 -30.5q34 -38 67 -67t80 -59t106.5 -46t127.5 -16q130 0 198 57t68 133q0 109 -184 174l-240 86q-143 51 -222 144t-79 211q0 92 36.5 173t104.5 142.5t173.5 97t236.5 35.5z" />
    <glyph glyph-name="sacute" unicode="&#x15b;" horiz-adv-x="946" 
d="M662 1497h221q30 0 42 -22t-3 -41l-242 -310q-12 -18 -22.5 -24t-28.5 -6h-119q-30 0 -43.5 16.5t-3.5 42.5l145 307q16 37 54 37zM88 694q0 142 113 232t297 90q123 0 229 -38t176 -99q42 -40 -6 -88l-68 -68q-23 -23 -43 -24.5t-49 18.5q-66 45 -121 68.5t-120 23.5
q-66 0 -108 -25t-42 -63q0 -34 24.5 -53t84.5 -37l135 -41q140 -42 211.5 -111.5t72.5 -175.5q0 -139 -109.5 -235.5t-311.5 -96.5q-122 0 -231 39t-173 96q-42 40 -44.5 71t28.5 59l47 45q54 53 106 10q136 -113 275 -113q71 0 113 25t42 67q0 43 -36 66t-115 47l-131 39
q-243 71 -246 272z" />
    <glyph glyph-name="Scircumflex" unicode="&#x15c;" horiz-adv-x="1251" 
d="M727 1937h219q35 0 53 -41l134 -303q11 -23 -1 -41t-34 -18h-137q-22 0 -32 7t-22 26l-92 166l-151 -166l-15.5 -15.5t-12 -9t-16 -7t-18.5 -1.5h-168q-20 0 -28 17t12 42l239 303q35 41 70 41zM719 1462q130 0 243 -37t181 -85.5t114 -106.5q19 -23 20 -43t-6.5 -31
t-23.5 -26l-92 -76q-19 -15 -36 -16t-30 7t-30 25q-78 77 -160 114.5t-192 37.5q-114 0 -181 -48.5t-67 -127.5q0 -94 139 -146l260 -96q328 -117 328 -385q0 -61 -18.5 -121.5t-61.5 -120.5t-106 -106t-161 -74.5t-218 -28.5q-107 0 -204 23t-169 62t-125 82.5t-90 92.5
q-47 59 20 113l82 70q23 19 42.5 21t35 -7.5t33.5 -30.5q34 -38 67 -67t80 -59t106.5 -46t127.5 -16q130 0 198 57t68 133q0 109 -184 174l-240 86q-143 51 -222 144t-79 211q0 92 36.5 173t104.5 142.5t173.5 97t236.5 35.5z" />
    <glyph glyph-name="scircumflex" unicode="&#x15d;" horiz-adv-x="946" 
d="M510 1497h219q35 0 53 -41l133 -303q11 -24 -0.5 -41.5t-33.5 -17.5h-138q-22 0 -32 6.5t-21 25.5l-92 166l-152 -166q-15 -15 -20 -19.5t-15.5 -8.5t-25.5 -4h-168q-20 0 -28 17t12 42l239 303q35 41 70 41zM88 694q0 142 113 232t297 90q123 0 229 -38t176 -99
q42 -40 -6 -88l-68 -68q-23 -23 -43 -24.5t-49 18.5q-66 45 -121 68.5t-120 23.5q-66 0 -108 -25t-42 -63q0 -34 24.5 -53t84.5 -37l135 -41q140 -42 211.5 -111.5t72.5 -175.5q0 -139 -109.5 -235.5t-311.5 -96.5q-122 0 -231 39t-173 96q-42 40 -44.5 71t28.5 59l47 45
q54 53 106 10q136 -113 275 -113q71 0 113 25t42 67q0 43 -36 66t-115 47l-131 39q-243 71 -246 272z" />
    <glyph glyph-name="Scedilla" unicode="&#x15e;" horiz-adv-x="1251" 
d="M463 -322h-137q-24 0 -35 15.5t0 38.5l135 260q-132 33 -232 98t-161 141q-47 59 20 113l82 70q23 19 42.5 21t35 -7.5t33.5 -30.5q34 -38 67 -67t80 -59t106.5 -46t127.5 -16q130 0 198 57t68 133q0 109 -184 174l-240 86q-143 51 -222 144t-79 211q0 92 36.5 173
t104.5 142.5t173.5 97t236.5 35.5q130 0 243 -37t181 -85.5t114 -106.5q19 -23 20 -43t-6.5 -31t-23.5 -26l-92 -76q-19 -15 -36 -16t-30 7t-30 25q-78 77 -160 114.5t-192 37.5q-114 0 -181 -48.5t-67 -127.5q0 -94 139 -146l260 -96q328 -117 328 -385q0 -57 -16 -113.5
t-53.5 -113t-92 -101.5t-138.5 -77t-186 -42l-180 -268q-19 -29 -57 -29z" />
    <glyph glyph-name="scedilla" unicode="&#x15f;" horiz-adv-x="946" 
d="M313 -328h-137q-24 0 -35 15.5t0 38.5l140 268q-154 40 -232 112q-42 40 -44.5 71t28.5 59l47 45q54 53 106 10q136 -113 275 -113q71 0 113 25t42 67q0 43 -36 66t-115 47l-131 39q-243 71 -246 272q0 142 113 232t297 90q123 0 229 -38t176 -99q42 -40 -6 -88l-68 -68
q-23 -23 -43 -24.5t-49 18.5q-66 45 -121 68.5t-120 23.5q-66 0 -108 -25t-42 -63q0 -34 24.5 -53t84.5 -37l135 -41q140 -42 211.5 -111.5t72.5 -175.5q0 -116 -82.5 -207.5t-234.5 -115.5l-186 -279q-19 -29 -58 -29z" />
    <glyph glyph-name="Scaron" unicode="&#x160;" horiz-adv-x="1251" 
d="M877 1534h-222q-35 0 -53 41l-133 303q-10 24 3 41.5t32 17.5h139q22 0 32 -6.5t21 -25.5l90 -166l154 166q15 15 20 19.5t15.5 8.5t25.5 4h166q20 0 28.5 -16.5t-9.5 -42.5l-242 -303q-35 -41 -67 -41zM719 1462q130 0 243 -37t181 -85.5t114 -106.5q19 -23 20 -43
t-6.5 -31t-23.5 -26l-92 -76q-19 -15 -36 -16t-30 7t-30 25q-78 77 -160 114.5t-192 37.5q-114 0 -181 -48.5t-67 -127.5q0 -94 139 -146l260 -96q328 -117 328 -385q0 -61 -18.5 -121.5t-61.5 -120.5t-106 -106t-161 -74.5t-218 -28.5q-107 0 -204 23t-169 62t-125 82.5
t-90 92.5q-47 59 20 113l82 70q23 19 42.5 21t35 -7.5t33.5 -30.5q34 -38 67 -67t80 -59t106.5 -46t127.5 -16q130 0 198 57t68 133q0 109 -184 174l-240 86q-143 51 -222 144t-79 211q0 92 36.5 173t104.5 142.5t173.5 97t236.5 35.5z" />
    <glyph glyph-name="scaron" unicode="&#x161;" horiz-adv-x="946" 
d="M659 1094h-221q-35 0 -53 41l-133 303q-10 24 3 41.5t32 17.5h139q22 0 31.5 -7t21.5 -26l90 -166l154 166q26 26 37 30q10 3 24 3h166q20 0 28.5 -16.5t-9.5 -42.5l-242 -303q-35 -41 -68 -41zM88 694q0 142 113 232t297 90q123 0 229 -38t176 -99q42 -40 -6 -88
l-68 -68q-23 -23 -43 -24.5t-49 18.5q-66 45 -121 68.5t-120 23.5q-66 0 -108 -25t-42 -63q0 -34 24.5 -53t84.5 -37l135 -41q140 -42 211.5 -111.5t72.5 -175.5q0 -139 -109.5 -235.5t-311.5 -96.5q-122 0 -231 39t-173 96q-42 40 -44.5 71t28.5 59l47 45q54 53 106 10
q136 -113 275 -113q71 0 113 25t42 67q0 43 -36 66t-115 47l-131 39q-243 71 -246 272z" />
    <glyph glyph-name="Tcommaaccent" unicode="&#x162;" horiz-adv-x="1247" 
d="M152 1225l28 164q1 19 15.5 32t31.5 13h1116q19 0 30 -13t7 -32l-28 -164q-10 -43 -52 -43h-419l-201 -1137q-6 -45 -51 -45h-191q-19 0 -29 13t-6 32l201 1137h-420q-18 0 -27 12.5t-5 30.5zM313 -530l105 129q-42 18 -67 57.5t-21 85.5q8 70 55.5 114t118.5 44
q68 0 116 -52.5t42 -128.5q-4 -50 -28 -99.5t-61.5 -90t-70 -68t-68.5 -51.5q-61 -42 -94 -14l-21 12q-18 13 -18.5 31t12.5 31z" />
    <glyph glyph-name="tcommaaccent" unicode="&#x163;" horiz-adv-x="788" 
d="M668 225l45 -102q18 -44 -27 -70q-115 -76 -272 -76q-61 0 -112.5 19.5t-91 57.5t-56 102t-2.5 147l81 463h-131q-19 0 -29 13t-5 30l24 135q9 43 49 43h131l50 275q5 19 18.5 31t32.5 12h174q19 0 29 -12t6 -31l-50 -275h263q18 0 29 -12t7 -31l-24 -137
q-11 -41 -49 -41h-264l-74 -416q-16 -71 4 -102t57 -31q11 0 20 0.5t18 3t15 4t16 5.5t14.5 6t17.5 8.5t18 9.5q46 20 68 -29zM131 -530l105 129q-42 18 -67.5 57.5t-21.5 85.5q8 70 56 114t119 44q68 0 115.5 -52.5t41.5 -128.5q-4 -50 -28 -99.5t-61 -90t-69.5 -68
t-68.5 -51.5q-61 -42 -94 -14l-21 12q-18 13 -18.5 31t12.5 31z" />
    <glyph glyph-name="Tcaron" unicode="&#x164;" horiz-adv-x="1247" 
d="M895 1540h-221q-35 0 -53 41l-134 303q-10 24 3 42t32 18h140q22 0 31.5 -7t21.5 -26l90 -166l153 166l15.5 15.5t12 9t16 7t18.5 1.5h166q20 0 28 -17t-10 -43l-241 -303q-35 -41 -68 -41zM152 1225l28 164q1 19 15.5 32t31.5 13h1116q19 0 30 -13t7 -32l-28 -164
q-10 -43 -52 -43h-419l-201 -1137q-6 -45 -51 -45h-191q-19 0 -29 13t-6 32l201 1137h-420q-18 0 -27 12.5t-5 30.5z" />
    <glyph glyph-name="tcaron" unicode="&#x165;" horiz-adv-x="788" 
d="M682 1235l102 135q-42 18 -68 61.5t-22 92.5q8 68 56.5 112.5t119.5 44.5q70 0 120 -52.5t44 -129.5q-7 -89 -78 -177.5t-151 -147.5q-32 -20 -51 -24.5t-45 7.5l-21 14q-36 26 -6 64zM668 225l45 -102q18 -44 -27 -70q-115 -76 -272 -76q-61 0 -112.5 19.5t-91 57.5
t-56 102t-2.5 147l81 463h-131q-19 0 -29 13t-5 30l24 135q9 43 49 43h131l50 275q5 19 18.5 31t32.5 12h174q19 0 29 -12t6 -31l-50 -275h263q18 0 29 -12t7 -31l-24 -137q-11 -41 -49 -41h-264l-74 -416q-16 -71 4 -102t57 -31q11 0 20 0.5t18 3t15 4t16 5.5t14.5 6
t17.5 8.5t18 9.5q46 20 68 -29z" />
    <glyph glyph-name="Tbar" unicode="&#x166;" horiz-adv-x="1265" 
d="M784 588l-96 -543q-6 -45 -51 -45h-191q-19 0 -29 13t-5 32l96 543h-209q-19 0 -30 12.5t-7 30.5l21 125q5 18 20 30.5t33 12.5h209l67 383h-419q-18 0 -27.5 12.5t-5.5 30.5l28 164q1 18 15.5 31.5t32.5 13.5h1116q19 0 30 -13t7 -32l-29 -164q-10 -43 -51 -43h-420
l-68 -383h215q19 0 29.5 -13t5.5 -30l-20 -123q-4 -20 -18.5 -32.5t-33.5 -12.5h-215z" />
    <glyph glyph-name="tbar" unicode="&#x167;" horiz-adv-x="796" 
d="M692 53q-115 -76 -272 -76q-61 0 -112.5 19.5t-91 57.5t-56 102t-2.5 147l30 172h-129q-19 0 -29.5 13t-6.5 32l12 70q5 19 19 32t32 13h131l23 131h-131q-19 0 -29.5 13t-5.5 30l24 135q9 43 49 43h132l49 275q5 19 18.5 31t32.5 12h174q19 0 29 -12t6 -31l-49 -275h262
q18 0 29.5 -12t7.5 -31l-25 -137q-11 -41 -49 -41h-264l-23 -131h254q17 0 27 -13t6 -32l-10 -70q-5 -19 -18.5 -32t-30.5 -13h-256l-23 -125q-16 -71 4 -102t57 -31q11 0 20 0.5t18 3t15 4t16 5.5t14.5 6t17.5 8.5t18 9.5q46 20 68 -29l45 -102q18 -44 -27 -70z" />
    <glyph glyph-name="Utilde" unicode="&#x168;" horiz-adv-x="1423" 
d="M745 1876q50 0 167.5 -34t142.5 -34q30 0 53.5 11t44.5 27.5t31 21.5q13 7 30 1.5t27 -24.5l41 -73q16 -28 6 -58q-14 -53 -80 -100t-157 -47q-55 0 -172 33.5t-138 33.5q-30 0 -53.5 -10.5t-45 -27t-30.5 -21.5q-37 -16 -57 22l-41 74q-16 29 -6 58q14 53 80 100t157 47
zM1464 1391l-155 -879q-48 -271 -219 -406t-437 -135q-118 0 -222 35.5t-180.5 101.5t-111.5 170.5t-14 231.5l156 881q5 18 19 30.5t32 12.5h184q19 0 30 -13t7 -30l-152 -863q-26 -141 52 -224t229 -83q146 0 237.5 81t116.5 226l152 863q5 18 19 30.5t32 12.5h188
q19 0 30 -13t7 -30z" />
    <glyph glyph-name="utilde" unicode="&#x169;" horiz-adv-x="1142" 
d="M518 1430q50 0 167 -34t142 -34q30 0 53.5 10.5t45 27t30.5 21.5q13 7 30.5 2t27.5 -24l41 -74q16 -28 6 -57q-14 -54 -80.5 -101t-157.5 -47q-55 0 -171.5 34t-137.5 34q-30 0 -53.5 -11t-44.5 -27.5t-31 -21.5q-13 -7 -30 -1.5t-27 24.5l-41 74q-16 28 -6 57
q14 54 80 101t157 47zM432 948l-92 -512q-20 -116 26.5 -177.5t151.5 -61.5q106 0 172.5 65.5t87.5 179.5l90 506q4 17 18.5 28t31.5 11h176q17 0 25.5 -12t4.5 -31l-157 -903q-10 -41 -47 -41h-175q-18 0 -29 11t-7 28l16 78q-115 -146 -313 -146q-180 0 -274 123t-62 312
l96 542q5 17 17.5 28t29.5 11h176q17 0 27.5 -11t9.5 -28z" />
    <glyph glyph-name="Umacron" unicode="&#x16a;" horiz-adv-x="1423" 
d="M1204 1577h-608q-18 0 -28.5 13.5t-6.5 31.5l23 133q5 19 19.5 31t33.5 12h606q19 0 30 -12.5t7 -30.5l-23 -133q-5 -19 -20 -32t-33 -13zM1464 1391l-155 -879q-48 -271 -219 -406t-437 -135q-118 0 -222 35.5t-180.5 101.5t-111.5 170.5t-14 231.5l156 881
q5 18 19 30.5t32 12.5h184q19 0 30 -13t7 -30l-152 -863q-26 -141 52 -224t229 -83q146 0 237.5 81t116.5 226l152 863q5 18 19 30.5t32 12.5h188q19 0 30 -13t7 -30z" />
    <glyph glyph-name="umacron" unicode="&#x16b;" horiz-adv-x="1142" 
d="M977 1130h-608q-18 0 -28.5 14t-6.5 32l22 133q4 19 19.5 31t34.5 12h606q19 0 30 -12.5t7 -30.5l-23 -133q-5 -19 -20 -32.5t-33 -13.5zM432 948l-92 -512q-20 -116 26.5 -177.5t151.5 -61.5q106 0 172.5 65.5t87.5 179.5l90 506q4 17 18.5 28t31.5 11h176
q17 0 25.5 -12t4.5 -31l-157 -903q-10 -41 -47 -41h-175q-18 0 -29 11t-7 28l16 78q-115 -146 -313 -146q-180 0 -274 123t-62 312l96 542q5 17 17.5 28t29.5 11h176q17 0 27.5 -11t9.5 -28z" />
    <glyph glyph-name="Ubreve" unicode="&#x16c;" horiz-adv-x="1423" 
d="M813 1878l-4 -23q-11 -49 18 -81.5t93 -32.5q56 0 95.5 30t49.5 84l4 23q9 33 35 33h166q29 0 26 -33l-8 -51q-23 -140 -124 -218.5t-259 -78.5t-244.5 86t-66.5 221l6 41q1 13 13 23t26 10h152q31 0 22 -33zM1464 1391l-155 -879q-48 -271 -219 -406t-437 -135
q-118 0 -222 35.5t-180.5 101.5t-111.5 170.5t-14 231.5l156 881q5 18 19 30.5t32 12.5h184q19 0 30 -13t7 -30l-152 -863q-26 -141 52 -224t229 -83q146 0 237.5 81t116.5 226l152 863q5 18 19 30.5t32 12.5h188q19 0 30 -13t7 -30z" />
    <glyph glyph-name="ubreve" unicode="&#x16d;" horiz-adv-x="1142" 
d="M586 1432l-4 -23q-11 -49 17.5 -82t92.5 -33q55 0 95.5 30.5t50.5 84.5l4 23q8 32 35 32h165q30 0 27 -32l-8 -52q-23 -140 -124 -218.5t-259 -78.5t-244.5 86.5t-66.5 221.5l6 41q1 13 13 22.5t26 9.5h151q31 0 23 -32zM432 948l-92 -512q-20 -116 26.5 -177.5
t151.5 -61.5q106 0 172.5 65.5t87.5 179.5l90 506q4 17 18.5 28t31.5 11h176q17 0 25.5 -12t4.5 -31l-157 -903q-10 -41 -47 -41h-175q-18 0 -29 11t-7 28l16 78q-115 -146 -313 -146q-180 0 -274 123t-62 312l96 542q5 17 17.5 28t29.5 11h176q17 0 27.5 -11t9.5 -28z" />
    <glyph glyph-name="Uring" unicode="&#x16e;" horiz-adv-x="1423" 
d="M928 2095q116 0 197 -71t81 -191q0 -128 -90 -217.5t-225 -89.5q-115 0 -197 72.5t-82 189.5q0 128 90.5 217.5t225.5 89.5zM899 1683q58 0 95.5 43.5t37.5 98.5q0 49 -30 81.5t-82 32.5q-61 0 -98.5 -42t-37.5 -99q0 -49 31.5 -82t83.5 -33zM1464 1391l-155 -879
q-48 -271 -219 -406t-437 -135q-118 0 -222 35.5t-180.5 101.5t-111.5 170.5t-14 231.5l156 881q5 18 19 30.5t32 12.5h184q19 0 30 -13t7 -30l-152 -863q-26 -141 52 -224t229 -83q146 0 237.5 81t116.5 226l152 863q5 18 19 30.5t32 12.5h188q19 0 30 -13t7 -30z" />
    <glyph glyph-name="uring" unicode="&#x16f;" horiz-adv-x="1142" 
d="M700 1649q116 0 197.5 -71.5t81.5 -191.5q0 -128 -90 -217.5t-225 -89.5q-115 0 -197 72.5t-82 189.5q0 128 90 218t225 90zM672 1237q59 0 96 43.5t37 97.5q0 49 -30.5 82t-82.5 33q-60 0 -97.5 -42t-37.5 -99q0 -49 31.5 -82t83.5 -33zM432 948l-92 -512
q-20 -116 26.5 -177.5t151.5 -61.5q106 0 172.5 65.5t87.5 179.5l90 506q4 17 18.5 28t31.5 11h176q17 0 25.5 -12t4.5 -31l-157 -903q-10 -41 -47 -41h-175q-18 0 -29 11t-7 28l16 78q-115 -146 -313 -146q-180 0 -274 123t-62 312l96 542q5 17 17.5 28t29.5 11h176
q17 0 27.5 -11t9.5 -28z" />
    <glyph glyph-name="Uhungarumlaut" unicode="&#x170;" horiz-adv-x="1423" 
d="M776 1944h221q30 0 42 -22t-3 -42l-227 -309q-12 -18 -23.5 -24.5t-29.5 -6.5h-117q-30 0 -43.5 16.5t-3.5 42.5l131 308q16 37 53 37zM1204 1944h221q30 0 42 -22t-3 -42l-227 -309q-22 -31 -51 -31h-119q-30 0 -43.5 16.5t-3.5 42.5l133 308q15 37 51 37zM1464 1391
l-155 -879q-48 -271 -219 -406t-437 -135q-118 0 -222 35.5t-180.5 101.5t-111.5 170.5t-14 231.5l156 881q5 18 19 30.5t32 12.5h184q19 0 30 -13t7 -30l-152 -863q-26 -141 52 -224t229 -83q146 0 237.5 81t116.5 226l152 863q5 18 19 30.5t32 12.5h188q19 0 30 -13t7 -30
z" />
    <glyph glyph-name="uhungarumlaut" unicode="&#x171;" horiz-adv-x="1142" 
d="M549 1497h221q30 0 42 -21.5t-3 -41.5l-227 -310q-21 -30 -54 -30h-116q-30 0 -43.5 16.5t-3.5 42.5l131 307q16 37 53 37zM977 1497h221q30 0 41.5 -21.5t-2.5 -41.5l-227 -310q-21 -30 -52 -30h-118q-30 0 -43.5 16.5t-3.5 42.5l133 307q15 37 51 37zM432 948l-92 -512
q-20 -116 26.5 -177.5t151.5 -61.5q106 0 172.5 65.5t87.5 179.5l90 506q4 17 18.5 28t31.5 11h176q17 0 25.5 -12t4.5 -31l-157 -903q-10 -41 -47 -41h-175q-18 0 -29 11t-7 28l16 78q-115 -146 -313 -146q-180 0 -274 123t-62 312l96 542q5 17 17.5 28t29.5 11h176
q17 0 27.5 -11t9.5 -28z" />
    <glyph glyph-name="Uogonek" unicode="&#x172;" horiz-adv-x="1423" 
d="M733 -385q-88 0 -139 40t-51 116q0 96 104 200q-93 0 -178 22t-156 67t-119 108t-67.5 151t-1.5 191l156 881q5 18 19 30.5t32 12.5h184q19 0 30 -13t7 -30l-152 -863q-26 -141 52 -224t229 -83q146 0 237.5 81t116.5 226l152 863q5 18 19 30.5t32 12.5h188q19 0 30 -13
t7 -30l-155 -879q-80 -441 -473 -522q-72 -90 -72 -146q0 -61 74 -61q23 0 49.5 5t30.5 5q32 0 26 -43l-10 -67q-4 -30 -70.5 -49t-130.5 -19z" />
    <glyph glyph-name="uogonek" unicode="&#x173;" horiz-adv-x="1142" 
d="M934 -305l-10 -68q-4 -30 -70 -48.5t-131 -18.5q-89 0 -140 39.5t-51 115.5q0 72 58.5 147t146.5 140q-14 2 -23 13t-5 24l16 78q-115 -146 -313 -146q-180 0 -274 123t-62 312l96 542q5 17 17.5 28t29.5 11h176q17 0 27.5 -11t9.5 -28l-92 -512q-20 -116 26.5 -177.5
t151.5 -61.5q106 0 172.5 65.5t87.5 179.5l90 506q4 17 18.5 28t31.5 11h176q17 0 25.5 -12t4.5 -31l-157 -903q-10 -41 -47 -41h-37q-59 -61 -94 -118t-35 -93q0 -61 73 -61q23 0 49.5 5t30.5 5q33 0 27 -43z" />
    <glyph glyph-name="Wcircumflex" unicode="&#x174;" horiz-adv-x="2041" 
d="M1151 1944h219q35 0 53 -41l133 -304q11 -24 -0.5 -41.5t-33.5 -17.5h-138q-22 0 -31.5 7t-21.5 26l-92 166l-152 -166q-26 -26 -37 -30q-9 -3 -24 -3h-168q-20 0 -28 17t12 42l239 304q35 41 70 41zM1112 1001l-395 -958q-19 -43 -62 -43h-301q-16 0 -31 11t-16 32
l-125 1325q-4 30 13.5 48t42.5 18h198q35 0 39 -43l82 -1078l453 1082q9 20 19.5 29.5t31.5 9.5h223q18 0 29.5 -10.5t13.5 -28.5l117 -1073l432 1069q6 18 20 30.5t31 12.5h203q28 0 37.5 -14.5t-4.5 -51.5l-578 -1325q-9 -20 -29.5 -31.5t-31.5 -11.5h-267q-41 0 -49 43z
" />
    <glyph glyph-name="wcircumflex" unicode="&#x175;" horiz-adv-x="1550" 
d="M823 1497h219q36 0 54 -41l133 -303q11 -23 -1 -41t-34 -18h-137q-22 0 -32 6.5t-21 25.5l-93 166l-151 -166q-14 -14 -20 -19t-16.5 -9t-25.5 -4h-168q-20 0 -28 17t12 42l240 303q35 41 69 41zM797 592l-250 -549q-8 -19 -25 -31t-37 -12h-204q-38 0 -48 43l-139 885
q-4 28 9.5 43.5t39.5 15.5h181q39 0 43 -41l75 -631l289 631q18 41 60 41h157q40 0 43 -43l70 -629l289 631q18 41 57 41h168q24 0 32 -15t-3 -44l-435 -885q-24 -43 -61 -43h-201q-20 0 -31.5 12t-13.5 31z" />
    <glyph glyph-name="Ycircumflex" unicode="&#x176;" horiz-adv-x="1318" 
d="M780 1944h219q36 0 54 -41l133 -304q11 -23 -1 -41t-34 -18h-137q-22 0 -31.5 7t-21.5 26l-93 166l-151 -166l-15.5 -15.5t-12 -9t-16 -7t-18.5 -1.5h-168q-20 0 -28 17t12 42l240 304q35 41 69 41zM666 0h-185q-19 0 -30 13t-7 32l99 551l-357 774q-10 23 2.5 43.5
t36.5 20.5h205q36 0 47 -33l238 -559h4l420 559q26 33 55 33h229q25 0 32.5 -19t-13.5 -45l-633 -788l-94 -537q-5 -19 -18.5 -32t-30.5 -13z" />
    <glyph glyph-name="ycircumflex" unicode="&#x177;" horiz-adv-x="1032" 
d="M528 1497h220q35 0 53 -41l133 -303q11 -23 -1 -41t-34 -18h-137q-22 0 -32 6.5t-21 25.5l-93 166l-151 -166q-14 -14 -20 -19t-16.5 -9t-25.5 -4h-167q-20 0 -28.5 17t11.5 42l240 303q35 41 69 41zM135 -477q-92 0 -164 29.5t-112 74.5q-35 35 0 82l63 78q36 45 86 12
q66 -49 131 -49q97 0 152 107l74 143h-93q-37 0 -43 39l-131 885q-5 28 8.5 45.5t47.5 17.5h188q17 0 27 -12t12 -31l84 -719l326 719q19 43 57 43h207q52 0 26 -63l-542 -1108q-67 -144 -163 -218.5t-241 -74.5z" />
    <glyph glyph-name="Ydieresis" unicode="&#x178;" horiz-adv-x="1318" 
d="M475 1700q6 69 59 118.5t119 49.5q69 0 113.5 -49.5t38.5 -118.5t-59 -118.5t-121 -49.5t-112 49.5t-38 118.5zM907 1700q6 69 58.5 118.5t119.5 49.5q68 0 113 -49.5t39 -118.5t-59 -118.5t-121 -49.5t-112 49.5t-38 118.5zM666 0h-185q-19 0 -30 13t-7 32l99 551
l-357 774q-10 23 2.5 43.5t36.5 20.5h205q36 0 47 -33l238 -559h4l420 559q26 33 55 33h229q25 0 32.5 -19t-13.5 -45l-633 -788l-94 -537q-5 -19 -18.5 -32t-30.5 -13z" />
    <glyph glyph-name="Zacute" unicode="&#x179;" horiz-adv-x="1230" 
d="M899 1944h221q30 0 42 -22.5t-3 -41.5l-241 -309q-12 -18 -23 -24.5t-29 -6.5h-118q-30 0 -44 16.5t-4 42.5l146 308q16 37 53 37zM1067 0h-1073q-20 0 -31 13t-6 32l23 123q7 32 38 63l902 959h-672q-18 0 -28.5 13t-6.5 30l27 156q5 19 19 32t32 13h981q19 0 29 -13
t6 -32l-25 -144q-9 -33 -33 -61l-878 -940h739q18 0 28.5 -12.5t6.5 -30.5l-29 -156q-5 -19 -18.5 -32t-30.5 -13z" />
    <glyph glyph-name="zacute" unicode="&#x17a;" horiz-adv-x="952" 
d="M668 1497h221q30 0 42 -22t-3 -41l-242 -310q-12 -18 -22.5 -24t-28.5 -6h-119q-30 0 -43.5 16.5t-3.5 42.5l145 307q16 37 54 37zM913 774l-563 -547h471q18 0 27.5 -12t5.5 -29l-27 -147q-5 -17 -17.5 -28t-29.5 -11h-778q-18 0 -28.5 13t-6.5 30l23 121q6 27 28 49
l568 547h-428q-19 0 -28.5 13t-4.5 30l25 143q5 18 17.5 29.5t29.5 11.5h733q18 0 28.5 -13t6.5 -30l-23 -121q-7 -27 -29 -49z" />
    <glyph glyph-name="Zdotaccent" unicode="&#x17b;" horiz-adv-x="1230" 
d="M807 1548q-75 0 -124.5 55t-41.5 130q6 77 64.5 130.5t134.5 53.5t124.5 -53.5t41.5 -130.5q-4 -74 -64.5 -129.5t-134.5 -55.5zM1067 0h-1073q-20 0 -31 13t-6 32l23 123q7 32 38 63l902 959h-672q-18 0 -28.5 13t-6.5 30l27 156q5 19 19 32t32 13h981q19 0 29 -13
t6 -32l-25 -144q-9 -33 -33 -61l-878 -940h739q18 0 28.5 -12.5t6.5 -30.5l-29 -156q-5 -19 -18.5 -32t-30.5 -13z" />
    <glyph glyph-name="zdotaccent" unicode="&#x17c;" horiz-adv-x="952" 
d="M575 1102q-75 0 -124 54.5t-41 129.5q6 77 64 130.5t134 53.5t124.5 -53.5t41.5 -130.5q-4 -74 -64.5 -129t-134.5 -55zM913 774l-563 -547h471q18 0 27.5 -12t5.5 -29l-27 -147q-5 -17 -17.5 -28t-29.5 -11h-778q-18 0 -28.5 13t-6.5 30l23 121q6 27 28 49l568 547h-428
q-19 0 -28.5 13t-4.5 30l25 143q5 18 17.5 29.5t29.5 11.5h733q18 0 28.5 -13t6.5 -30l-23 -121q-7 -27 -29 -49z" />
    <glyph glyph-name="Zcaron" unicode="&#x17d;" horiz-adv-x="1230" 
d="M897 1540h-221q-35 0 -53 41l-134 303q-10 24 3 42t32 18h140q22 0 31.5 -7t21.5 -26l90 -166l154 166q26 26 37 30q10 3 24 3h166q20 0 28 -17t-10 -43l-241 -303q-35 -41 -68 -41zM1067 0h-1073q-20 0 -31 13t-6 32l23 123q7 32 38 63l902 959h-672q-18 0 -28.5 13
t-6.5 30l27 156q5 19 19 32t32 13h981q19 0 29 -13t6 -32l-25 -144q-9 -33 -33 -61l-878 -940h739q18 0 28.5 -12.5t6.5 -30.5l-29 -156q-5 -19 -18.5 -32t-30.5 -13z" />
    <glyph glyph-name="zcaron" unicode="&#x17e;" horiz-adv-x="952" 
d="M666 1094h-222q-35 0 -53 41l-133 303q-10 24 3 41.5t32 17.5h139q22 0 31.5 -7t21.5 -26l90 -166l154 166l15.5 15.5t12 9t16 7t18.5 1.5h165q20 0 28.5 -16.5t-9.5 -42.5l-242 -303q-35 -41 -67 -41zM913 774l-563 -547h471q18 0 27.5 -12t5.5 -29l-27 -147
q-5 -17 -17.5 -28t-29.5 -11h-778q-18 0 -28.5 13t-6.5 30l23 121q6 27 28 49l568 547h-428q-19 0 -28.5 13t-4.5 30l25 143q5 18 17.5 29.5t29.5 11.5h733q18 0 28.5 -13t6.5 -30l-23 -121q-7 -27 -29 -49z" />
    <glyph glyph-name="longs" unicode="&#x17f;" horiz-adv-x="577" 
d="M285 987l28 156q31 175 134.5 260.5t252.5 85.5q72 0 142.5 -24.5t109.5 -69.5q28 -28 -6 -70l-80 -108q-29 -41 -78 -3q-44 33 -88 33q-24 0 -43 -5t-38 -18t-32.5 -40t-19.5 -66l-188 -1075q-5 -18 -18 -30.5t-31 -12.5h-174q-18 0 -28.5 13t-6.5 30l127 723h-133
q-17 0 -27 13t-6 30l24 137q5 18 18 29.5t30 11.5h131z" />
    <glyph glyph-name="florin" unicode="&#x192;" horiz-adv-x="923" 
d="M59 -477q-68 0 -138.5 24.5t-117.5 65.5q-27 27 -2 65l84 113q28 41 78 2q47 -33 88 -33q109 0 131 129l111 625h-168q-17 0 -27 13t-6 30l23 137q11 41 49 41h168l71 408q31 176 130.5 259t248.5 83q68 0 138.5 -24.5t117.5 -65.5q28 -28 2 -66l-84 -112q-28 -41 -77 -3
q-47 33 -88 33q-112 0 -134 -129l-67 -383h194q19 0 30 -12.5t7 -30.5l-24 -135q-5 -19 -18.5 -31t-33.5 -12h-194l-113 -649q-31 -176 -130.5 -259t-248.5 -83z" />
    <glyph glyph-name="Scommaaccent" unicode="&#x218;" horiz-adv-x="1251" 
d="M719 1462q130 0 243 -37t181 -85.5t114 -106.5q19 -23 20 -43t-6.5 -31t-23.5 -26l-92 -76q-19 -15 -36 -16t-30 7t-30 25q-78 77 -160 114.5t-192 37.5q-114 0 -181 -48.5t-67 -127.5q0 -94 139 -146l260 -96q328 -117 328 -385q0 -61 -18.5 -121.5t-61.5 -120.5
t-106 -106t-161 -74.5t-218 -28.5q-107 0 -204 23t-169 62t-125 82.5t-90 92.5q-47 59 20 113l82 70q23 19 42.5 21t35 -7.5t33.5 -30.5q34 -38 67 -67t80 -59t106.5 -46t127.5 -16q130 0 198 57t68 133q0 109 -184 174l-240 86q-143 51 -222 144t-79 211q0 92 36.5 173
t104.5 142.5t173.5 97t236.5 35.5zM356 -524l105 129q-42 18 -67 57.5t-21 85.5q8 70 55.5 114t118.5 44q68 0 116 -52t42 -128q-4 -50 -28 -100t-61.5 -90t-70 -68t-68.5 -52q-61 -42 -94 -14l-21 12q-18 13 -18.5 31t12.5 31z" />
    <glyph glyph-name="scommaaccent" unicode="&#x219;" horiz-adv-x="946" 
d="M88 694q0 142 113 232t297 90q123 0 229 -38t176 -99q42 -40 -6 -88l-68 -68q-23 -23 -43 -24.5t-49 18.5q-66 45 -121 68.5t-120 23.5q-66 0 -108 -25t-42 -63q0 -34 24.5 -53t84.5 -37l135 -41q140 -42 211.5 -111.5t72.5 -175.5q0 -139 -109.5 -235.5t-311.5 -96.5
q-122 0 -231 39t-173 96q-42 40 -44.5 71t28.5 59l47 45q54 53 106 10q136 -113 275 -113q71 0 113 25t42 67q0 43 -36 66t-115 47l-131 39q-243 71 -246 272zM207 -530l104 129q-42 18 -67 57.5t-21 85.5q8 70 55.5 114t118.5 44q68 0 116 -52.5t42 -128.5
q-4 -50 -28 -99.5t-61 -90t-69.5 -68t-68.5 -51.5q-61 -43 -95 -14l-20 12q-18 13 -18.5 31t12.5 31z" />
    <glyph glyph-name="uni021A" unicode="&#x21a;" horiz-adv-x="1247" 
d="M152 1225l28 164q1 19 15.5 32t31.5 13h1116q19 0 30 -13t7 -32l-28 -164q-10 -43 -52 -43h-419l-201 -1137q-6 -45 -51 -45h-191q-19 0 -29 13t-6 32l201 1137h-420q-18 0 -27 12.5t-5 30.5zM326 -530l104 129q-42 18 -67 57.5t-21 85.5q8 70 55.5 114t118.5 44
q68 0 116 -52.5t42 -128.5q-4 -50 -28 -99.5t-61.5 -90t-70 -68t-68.5 -51.5q-61 -42 -94 -14l-20 12q-18 13 -18.5 31t12.5 31z" />
    <glyph glyph-name="uni021B" unicode="&#x21b;" horiz-adv-x="788" 
d="M668 225l45 -102q18 -44 -27 -70q-115 -76 -272 -76q-61 0 -112.5 19.5t-91 57.5t-56 102t-2.5 147l81 463h-131q-19 0 -29 13t-5 30l24 135q9 43 49 43h131l50 275q5 19 18.5 31t32.5 12h174q19 0 29 -12t6 -31l-50 -275h263q18 0 29 -12t7 -31l-24 -137
q-11 -41 -49 -41h-264l-74 -416q-16 -71 4 -102t57 -31q11 0 20 0.5t18 3t15 4t16 5.5t14.5 6t17.5 8.5t18 9.5q46 20 68 -29zM131 -530l105 129q-42 18 -67.5 57.5t-21.5 85.5q8 70 56 114t119 44q68 0 115.5 -52.5t41.5 -128.5q-4 -50 -28 -99.5t-61 -90t-69.5 -68
t-68.5 -51.5q-61 -42 -94 -14l-21 12q-18 13 -18.5 31t12.5 31z" />
    <glyph glyph-name="dotlessj" unicode="&#x237;" horiz-adv-x="458" 
d="M-6 -111l186 1055q5 18 18.5 30.5t30.5 12.5h177q17 0 27.5 -13t6.5 -30l-190 -1079q-31 -175 -131.5 -258.5t-249.5 -83.5q-68 0 -138.5 24.5t-117.5 65.5q-27 27 -2 65l84 113q28 41 78 2q47 -33 88 -33q111 0 133 129z" />
    <glyph glyph-name="circumflex" unicode="&#x2c6;" horiz-adv-x="845" 
d="M465 1497h219q35 0 53 -41l133 -303q11 -24 -0.5 -41.5t-33.5 -17.5h-138q-22 0 -32 6.5t-21 25.5l-92 166l-152 -166q-15 -15 -20 -19.5t-15.5 -8.5t-25.5 -4h-168q-20 0 -28 17t12 42l239 303q35 41 70 41z" />
    <glyph glyph-name="caron" unicode="&#x2c7;" horiz-adv-x="845" 
d="M616 1094h-221q-35 0 -53 41l-133 303q-10 24 3 41.5t32 17.5h139q22 0 31.5 -7t21.5 -26l90 -166l154 166q26 26 37 30q10 3 24 3h166q20 0 28.5 -16.5t-9.5 -42.5l-242 -303q-35 -41 -68 -41z" />
    <glyph glyph-name="breve" unicode="&#x2d8;" horiz-adv-x="788" 
d="M414 1432l-4 -23q-11 -49 17.5 -82t92.5 -33q55 0 95.5 30.5t50.5 84.5l4 23q8 32 35 32h165q30 0 27 -32l-8 -52q-23 -140 -124 -218.5t-259 -78.5t-244.5 86.5t-66.5 221.5l6 41q1 13 13 22.5t26 9.5h151q31 0 23 -32z" />
    <glyph glyph-name="dotaccent" unicode="&#x2d9;" horiz-adv-x="485" 
d="M346 1096q-75 0 -124 54.5t-42 129.5q6 77 64.5 130.5t134.5 53.5t124.5 -53.5t41.5 -130.5q-4 -74 -64.5 -129t-134.5 -55z" />
    <glyph glyph-name="ring" unicode="&#x2da;" horiz-adv-x="710" 
d="M489 1655q116 0 197.5 -71t81.5 -191q0 -128 -90 -218t-225 -90q-115 0 -197 72.5t-82 190.5q0 128 90 217.5t225 89.5zM461 1243q59 0 96 43.5t37 97.5q0 49 -30.5 82t-82.5 33q-60 0 -97.5 -42t-37.5 -99q0 -49 31.5 -82t83.5 -33z" />
    <glyph glyph-name="ogonek" unicode="&#x2db;" horiz-adv-x="647" 
d="M111 -285q0 92 94.5 190.5t208.5 160.5l65 -11l8 -28q-69 -67 -112 -133.5t-43 -104.5q0 -61 74 -61q23 0 49 5t30 5q33 0 27 -43l-10 -68q-4 -30 -70 -48.5t-131 -18.5q-89 0 -139.5 39.5t-50.5 115.5z" />
    <glyph glyph-name="tilde" unicode="&#x2dc;" horiz-adv-x="847" 
d="M377 1434q50 0 167 -34t142 -34q30 0 53.5 10.5t45 27t30.5 21.5q37 16 57 -22l41 -74q16 -29 7 -57q-14 -54 -80.5 -101t-157.5 -47q-55 0 -171.5 34t-137.5 34q-30 0 -53.5 -10.5t-45 -27t-30.5 -21.5q-13 -7 -30.5 -2t-27.5 24l-41 74q-16 28 -6 57q14 54 80.5 101
t157.5 47z" />
    <glyph glyph-name="hungarumlaut" unicode="&#x2dd;" horiz-adv-x="952" 
d="M369 1497h221q30 0 42 -21.5t-3 -41.5l-228 -310q-21 -30 -53 -30h-117q-30 0 -43.5 16.5t-3.5 42.5l131 307q16 37 54 37zM797 1497h221q30 0 42 -21.5t-3 -41.5l-228 -310q-21 -30 -51 -30h-119q-30 0 -43.5 16.5t-3.5 42.5l133 307q15 37 52 37z" />
    <glyph glyph-name="pi" unicode="&#x3c0;" horiz-adv-x="1355" 
d="M778 766h-213l-225 -723q-5 -19 -19 -31t-34 -12h-193q-18 0 -29.5 13t-5.5 30l246 723h-184q-19 0 -28.5 13t-4.5 30l25 135q9 43 47 43h1171q20 0 30.5 -11.5t6.5 -31.5l-25 -137q-11 -41 -49 -41h-256l-73 -416q-16 -71 4 -102t57 -31q11 0 20 0.5t18 3t15 4t16 5.5
t14.5 6t17.5 8.5t18 9.5q45 19 67 -29l45 -102q18 -44 -26 -70q-115 -76 -273 -76q-61 0 -112.5 19.5t-91 57.5t-56 102t-2.5 147z" />
    <glyph glyph-name="Wgrave" unicode="&#x1e80;" horiz-adv-x="2041" 
d="M926 1944h221q38 0 53 -37l105 -308q15 -59 -48 -59h-118q-30 0 -52 31l-200 309q-13 23 -2 43.5t41 20.5zM1112 1001l-395 -958q-19 -43 -62 -43h-301q-16 0 -31 11t-16 32l-125 1325q-4 30 13.5 48t42.5 18h198q35 0 39 -43l82 -1078l453 1082q9 20 19.5 29.5t31.5 9.5
h223q18 0 29.5 -10.5t13.5 -28.5l117 -1073l432 1069q6 18 20 30.5t31 12.5h203q28 0 37.5 -14.5t-4.5 -51.5l-578 -1325q-9 -20 -29.5 -31.5t-31.5 -11.5h-267q-41 0 -49 43z" />
    <glyph glyph-name="wgrave" unicode="&#x1e81;" horiz-adv-x="1550" 
d="M598 1497h221q38 0 53 -37l105 -307q15 -59 -47 -59h-119q-30 0 -51 30l-201 310q-13 23 -2 43t41 20zM797 592l-250 -549q-8 -19 -25 -31t-37 -12h-204q-38 0 -48 43l-139 885q-4 28 9.5 43.5t39.5 15.5h181q39 0 43 -41l75 -631l289 631q18 41 60 41h157q40 0 43 -43
l70 -629l289 631q18 41 57 41h168q24 0 32 -15t-3 -44l-435 -885q-24 -43 -61 -43h-201q-20 0 -31.5 12t-13.5 31z" />
    <glyph glyph-name="Wacute" unicode="&#x1e82;" horiz-adv-x="2041" 
d="M1303 1944h221q30 0 42 -22.5t-3 -41.5l-242 -309q-13 -18 -23 -24.5t-28 -6.5h-119q-30 0 -43.5 16.5t-3.5 42.5l145 308q16 37 54 37zM1112 1001l-395 -958q-19 -43 -62 -43h-301q-16 0 -31 11t-16 32l-125 1325q-4 30 13.5 48t42.5 18h198q35 0 39 -43l82 -1078
l453 1082q9 20 19.5 29.5t31.5 9.5h223q18 0 29.5 -10.5t13.5 -28.5l117 -1073l432 1069q6 18 20 30.5t31 12.5h203q28 0 37.5 -14.5t-4.5 -51.5l-578 -1325q-9 -20 -29.5 -31.5t-31.5 -11.5h-267q-41 0 -49 43z" />
    <glyph glyph-name="wacute" unicode="&#x1e83;" horiz-adv-x="1550" 
d="M975 1497h221q30 0 42 -22t-3 -41l-242 -310q-12 -18 -22.5 -24t-28.5 -6h-119q-30 0 -43.5 16.5t-3.5 42.5l146 307q16 37 53 37zM797 592l-250 -549q-8 -19 -25 -31t-37 -12h-204q-38 0 -48 43l-139 885q-4 28 9.5 43.5t39.5 15.5h181q39 0 43 -41l75 -631l289 631
q18 41 60 41h157q40 0 43 -43l70 -629l289 631q18 41 57 41h168q24 0 32 -15t-3 -44l-435 -885q-24 -43 -61 -43h-201q-20 0 -31.5 12t-13.5 31z" />
    <glyph glyph-name="Wdieresis" unicode="&#x1e84;" horiz-adv-x="2041" 
d="M846 1700q6 69 59 118.5t119 49.5q69 0 113.5 -49.5t38.5 -118.5t-59.5 -118.5t-121.5 -49.5q-67 0 -111 49.5t-38 118.5zM1278 1700q6 69 58.5 118.5t119.5 49.5q68 0 113 -49.5t39 -118.5t-59.5 -118.5t-121.5 -49.5q-67 0 -111 49.5t-38 118.5zM1112 1001l-395 -958
q-19 -43 -62 -43h-301q-16 0 -31 11t-16 32l-125 1325q-4 30 13.5 48t42.5 18h198q35 0 39 -43l82 -1078l453 1082q9 20 19.5 29.5t31.5 9.5h223q18 0 29.5 -10.5t13.5 -28.5l117 -1073l432 1069q6 18 20 30.5t31 12.5h203q28 0 37.5 -14.5t-4.5 -51.5l-578 -1325
q-9 -20 -29.5 -31.5t-31.5 -11.5h-267q-41 0 -49 43z" />
    <glyph glyph-name="wdieresis" unicode="&#x1e85;" horiz-adv-x="1550" 
d="M518 1253q6 69 59 118.5t119 49.5q69 0 113.5 -49.5t38.5 -118.5t-59 -118.5t-121 -49.5t-112 49.5t-38 118.5zM950 1253q6 69 58.5 118.5t119.5 49.5q68 0 113 -49.5t39 -118.5t-59 -118.5t-121 -49.5t-112 49.5t-38 118.5zM797 592l-250 -549q-8 -19 -25 -31t-37 -12
h-204q-38 0 -48 43l-139 885q-4 28 9.5 43.5t39.5 15.5h181q39 0 43 -41l75 -631l289 631q18 41 60 41h157q40 0 43 -43l70 -629l289 631q18 41 57 41h168q24 0 32 -15t-3 -44l-435 -885q-24 -43 -61 -43h-201q-20 0 -31.5 12t-13.5 31z" />
    <glyph glyph-name="Ygrave" unicode="&#x1ef2;" horiz-adv-x="1318" 
d="M555 1944h221q38 0 53 -37l105 -308q15 -59 -47 -59h-119q-29 0 -51 31l-201 309q-13 23 -2 43.5t41 20.5zM666 0h-185q-19 0 -30 13t-7 32l99 551l-357 774q-10 23 2.5 43.5t36.5 20.5h205q36 0 47 -33l238 -559h4l420 559q26 33 55 33h229q25 0 32.5 -19t-13.5 -45
l-633 -788l-94 -537q-5 -19 -18.5 -32t-30.5 -13z" />
    <glyph glyph-name="ygrave" unicode="&#x1ef3;" horiz-adv-x="1032" 
d="M303 1497h221q39 0 54 -37l104 -307q15 -59 -47 -59h-119q-30 0 -51 30l-201 310q-13 23 -2 43t41 20zM135 -477q-92 0 -164 29.5t-112 74.5q-35 35 0 82l63 78q36 45 86 12q66 -49 131 -49q97 0 152 107l74 143h-93q-37 0 -43 39l-131 885q-5 28 8.5 45.5t47.5 17.5h188
q17 0 27 -12t12 -31l84 -719l326 719q19 43 57 43h207q52 0 26 -63l-542 -1108q-67 -144 -163 -218.5t-241 -74.5z" />
    <glyph glyph-name="endash" unicode="&#x2013;" horiz-adv-x="1294" 
d="M1139 455h-998q-19 0 -29 12.5t-6 32.5l31 184q4 20 18.5 32.5t32.5 12.5h998q20 0 31.5 -12.5t7.5 -32.5l-33 -184q-4 -20 -19 -32.5t-34 -12.5z" />
    <glyph glyph-name="emdash" unicode="&#x2014;" horiz-adv-x="2007" 
d="M1853 455h-1712q-19 0 -29 12.5t-6 32.5l31 184q4 20 18.5 32.5t32.5 12.5h1713q18 0 29 -13t7 -32l-32 -184q-9 -45 -52 -45z" />
    <glyph glyph-name="quoteleft" unicode="&#x2018;" horiz-adv-x="524" 
d="M565 1364l-135 -184q52 -21 83 -66t30 -100q-2 -79 -57 -133t-136 -54q-80 0 -136 56.5t-56 146.5q0 60 27.5 124t71.5 117.5t84 92.5t79 68q66 46 108 18l25 -16q40 -30 12 -70z" />
    <glyph glyph-name="quoteright" unicode="&#x2019;" horiz-adv-x="524" 
d="M190 928l136 182q-52 24 -83 68t-30 98q2 79 57 132.5t136 53.5q80 0 136 -56t56 -146q0 -60 -27.5 -124t-71.5 -117.5t-84 -92.5t-79 -68q-65 -45 -109 -16l-24 16q-41 30 -13 70z" />
    <glyph glyph-name="quotesinglbase" unicode="&#x201a;" horiz-adv-x="522" 
d="M-10 -180l139 176q-48 21 -75 65t-21 97q6 76 60.5 126t131.5 50q76 0 128 -56.5t46 -142.5q-7 -105 -97 -213t-179 -168q-67 -46 -107 -18l-20 16q-39 26 -6 68z" />
    <glyph glyph-name="quotedblleft" unicode="&#x201c;" horiz-adv-x="985" 
d="M1026 1362l-133 -182q51 -24 81.5 -68.5t29.5 -97.5q-2 -78 -57 -132.5t-134 -54.5q-81 0 -137 56.5t-55 146.5q0 60 27.5 124t70.5 117.5t83.5 92.5t78.5 68q64 45 108 16l25 -16q40 -30 12 -70zM565 1362l-135 -182q52 -24 83 -68.5t30 -97.5q-2 -79 -57 -133t-136 -54
q-80 0 -136 56.5t-56 146.5q0 60 27.5 124t71.5 117.5t84 92.5t79 68q64 45 108 16l25 -16q40 -30 12 -70z" />
    <glyph glyph-name="quotedblright" unicode="&#x201d;" horiz-adv-x="985" 
d="M190 928l136 182q-52 24 -83 68t-30 98q2 79 57 132.5t136 53.5q80 0 136 -56t56 -146q0 -60 -27.5 -124t-71.5 -117.5t-84 -92.5t-79 -68q-65 -45 -109 -16l-24 16q-41 30 -13 70zM653 928l133 182q-51 24 -81 68t-29 98q2 78 56.5 132t133.5 54q80 0 136.5 -56
t56.5 -146q0 -59 -27.5 -123.5t-71 -118t-84 -93.5t-77.5 -67q-66 -46 -111 -16l-22 16q-43 32 -13 70z" />
    <glyph glyph-name="quotedblbase" unicode="&#x201e;" horiz-adv-x="1001" 
d="M10 -195l133 185q-50 21 -80.5 66t-29.5 100q2 79 56.5 132.5t135.5 53.5q80 0 136 -56.5t55 -146.5q0 -60 -27.5 -124t-70.5 -117t-83 -92t-79 -68q-67 -46 -109 -19l-24 17q-40 30 -13 69zM471 -195l135 185q-50 21 -80.5 66t-29.5 100q2 79 55.5 132.5t134.5 53.5
q80 0 136.5 -56.5t56.5 -146.5q0 -60 -27.5 -124t-72 -117t-84.5 -92t-79 -68q-63 -49 -108 -19l-25 17q-40 29 -12 69z" />
    <glyph glyph-name="dagger" unicode="&#x2020;" horiz-adv-x="925" 
d="M643 885l-98 -553q-10 -39 -43 -39h-148q-35 0 -32 39l100 553h-242q-18 0 -26 10t-4 27l22 137q10 37 45 37h242l51 301q10 37 43 37h147q36 0 33 -37l-53 -301h244q17 0 24.5 -10t3.5 -27l-24 -137q-3 -37 -43 -37h-242z" />
    <glyph glyph-name="daggerdbl" unicode="&#x2021;" horiz-adv-x="925" 
d="M553 373l-59 -336q-10 -37 -45 -37h-148q-34 0 -31 37l60 336h-242q-34 0 -31 37l25 137q10 37 45 37h240l49 266h-242q-18 0 -26.5 10t-4.5 27l25 137q1 17 14 27t31 10h240l57 336q10 37 43 37h147q36 0 33 -37l-59 -336h244q18 0 26 -10t4 -27l-24 -137
q-1 -17 -13 -27t-30 -10h-244l-47 -266h244q17 0 24.5 -10t3.5 -27l-22 -137q-1 -17 -14 -27t-31 -10h-242z" />
    <glyph glyph-name="bullet" unicode="&#x2022;" horiz-adv-x="759" 
d="M412 465q-105 0 -179.5 76t-74.5 182q5 107 81.5 182.5t182.5 75.5q105 0 179.5 -76t74.5 -182q0 -105 -79 -181.5t-185 -76.5z" />
    <glyph glyph-name="ellipsis" unicode="&#x2026;" horiz-adv-x="1693" 
d="M195 -29q-75 0 -123.5 53.5t-42.5 127.5q6 75 63.5 128.5t132.5 53.5q74 0 123 -53.5t43 -128.5q-4 -73 -63.5 -127t-132.5 -54zM786 -29q-73 0 -122 53.5t-43 127.5q6 75 64.5 128.5t133.5 53.5t122.5 -53.5t41.5 -128.5q-6 -74 -64 -127.5t-133 -53.5zM1380 -29
q-75 0 -123.5 53.5t-42.5 127.5q8 75 65 128.5t132 53.5t123.5 -53.5t42.5 -128.5q-6 -74 -64 -127.5t-133 -53.5z" />
    <glyph glyph-name="perthousand" unicode="&#x2030;" horiz-adv-x="2086" 
d="M166 995q0 119 35.5 220t111.5 167t179 66q112 0 178.5 -79.5t66.5 -213.5q0 -119 -35.5 -220t-111 -167t-178.5 -66q-112 0 -179 79.5t-67 213.5zM1409 1370l-1155 -1331q-27 -29 -40 -34q-11 -5 -28 -5h-43q-29 0 -35 20t13 43l1155 1332q1 2 7.5 9t8 8t6.5 6t7 6t7 4
t9 3.5t10 1.5t12 1h43q29 0 36 -20.5t-13 -43.5zM317 987q0 -78 29 -117t76 -39q67 0 116.5 90t49.5 242q0 78 -29 117t-76 39q-67 0 -116.5 -90t-49.5 -242zM1436 274q0 119 35.5 219.5t111 166t178.5 65.5q112 0 179 -79.5t67 -213.5q0 -88 -21 -168t-61 -143.5t-103 -101
t-141 -37.5q-112 0 -178.5 79t-66.5 213zM786 274q0 88 21 168t60.5 144t102.5 101.5t142 37.5q110 0 177 -80t67 -213q0 -88 -21 -168t-61 -143.5t-103 -101t-141 -37.5q-112 0 -178 79t-66 213zM1587 264q0 -76 27.5 -114.5t71.5 -38.5q71 0 120 89t49 242q0 76 -27 115
t-71 39q-71 0 -120.5 -89.5t-49.5 -242.5zM936 264q0 -76 28.5 -114.5t75.5 -38.5q67 0 116.5 89.5t49.5 241.5q0 76 -28.5 115t-75.5 39q-67 0 -116.5 -90t-49.5 -242z" />
    <glyph glyph-name="guilsinglleft" unicode="&#x2039;" horiz-adv-x="630" 
d="M442 27h-116q-23 0 -34.5 6t-21.5 28l-202 424q-14 33 12 66l313 391q30 35 64 35h149q18 0 25 -16.5t-6 -36.5l-283 -422l137 -422q6 -20 -6.5 -36.5t-30.5 -16.5z" />
    <glyph glyph-name="guilsinglright" unicode="&#x203a;" horiz-adv-x="630" 
d="M197 977h118q21 0 32.5 -6.5t21.5 -28.5l194 -426q15 -29 -10 -65l-315 -390q-25 -34 -64 -34h-149q-18 0 -24.5 15t5.5 38l283 422l-129 422q-6 22 6.5 37.5t30.5 15.5z" />
    <glyph glyph-name="fraction" unicode="&#x2044;" horiz-adv-x="258" 
d="M811 1372l-1155 -1333q-31 -39 -70 -39h-39q-30 0 -36.5 19t14.5 42l1155 1334q11 14 18 21t20.5 12.5t31.5 5.5h38q30 0 36 -19.5t-13 -42.5z" />
    <glyph glyph-name="zerosuperior" unicode="&#x2070;" horiz-adv-x="655" 
d="M528 1755q114 0 176 -79t64 -210q0 -85 -20 -164.5t-58.5 -146t-102 -107t-143.5 -40.5q-117 0 -179 80t-62 210q0 85 20 164.5t58.5 146t102.5 106.5t144 40zM451 1135q50 0 89.5 52t60 129.5t20.5 160.5q-1 82 -29.5 118.5t-71.5 34.5q-77 0 -123.5 -104t-46.5 -238
q0 -153 101 -153z" />
    <glyph glyph-name="foursuperior" unicode="&#x2074;" horiz-adv-x="645" 
d="M489 1210h-313q-23 0 -20 23l14 78q13 40 25 53l331 356q19 19 37 19h137q24 0 21 -23l-68 -387h86q22 0 19 -22l-13 -74q-3 -23 -26 -23h-86l-29 -163q-3 -25 -31 -25h-96q-22 0 -16 25zM309 1329h201l47 266z" />
    <glyph glyph-name="fivesuperior" unicode="&#x2075;" horiz-adv-x="622" 
d="M432 1010q-89 0 -159 37t-107 96q-18 30 16 51l54 37q24 16 45 -10q30 -37 63.5 -58.5t87.5 -21.5q60 0 98.5 34.5t38.5 88.5q0 53 -35.5 82.5t-87.5 29.5q-46 0 -100 -30q-20 -13 -39 -5l-71 27q-20 7 -13 23l82 325q3 23 27 23h401q24 0 21 -21l-15 -88
q-10 -24 -28 -24h-314l-37 -146q60 31 127 31q96 0 164 -63.5t68 -159.5q0 -107 -80 -182.5t-207 -75.5z" />
    <glyph glyph-name="sixsuperior" unicode="&#x2076;" horiz-adv-x="634" 
d="M457 1001q-118 0 -195.5 73t-77.5 183q0 51 15 100.5t46 96t60 82.5t75.5 78t72 63t69.5 56q17 12 37 10l105 -10q17 -1 20.5 -14t-8.5 -23q-229 -183 -277 -238q60 31 123 31q90 0 155.5 -60.5t65.5 -158.5q0 -112 -82 -190.5t-204 -78.5zM473 1380q-61 0 -100 -39
t-39 -96q0 -52 36 -84.5t87 -32.5q60 0 99.5 40.5t39.5 95.5q0 52 -36 84t-87 32z" />
    <glyph glyph-name="sevensuperior" unicode="&#x2077;" horiz-adv-x="557" 
d="M340 1022h-117q-13 0 -17.5 10.5t3.5 22.5l350 551h-319q-22 0 -19 24l15 86q3 23 28 23h465q19 0 16 -23l-8 -51q-8 -36 -20 -57l-346 -570q-10 -16 -31 -16z" />
    <glyph glyph-name="eightsuperior" unicode="&#x2078;" horiz-adv-x="669" 
d="M463 1010q-129 0 -206 62t-77 153q0 78 49.5 129.5t114.5 64.5q-80 46 -80 137q0 90 73 145.5t191 55.5q110 0 181 -53.5t71 -138.5q0 -62 -36 -105.5t-91 -62.5q101 -53 101 -160q0 -95 -79.5 -161t-211.5 -66zM520 1462q53 0 86 26.5t33 65.5q0 38 -32 63t-81 25
q-53 0 -85.5 -27.5t-32.5 -66.5q0 -37 31.5 -61.5t80.5 -24.5zM469 1350q-62 0 -99.5 -32.5t-37.5 -80.5q0 -47 36.5 -77t96.5 -30t98.5 33.5t38.5 81.5q0 47 -36.5 76t-96.5 29z" />
    <glyph glyph-name="ninesuperior" unicode="&#x2079;" horiz-adv-x="632" 
d="M426 1028q-17 -12 -37 -10l-104 10q-17 1 -21 14t8 23q229 183 277 238q-60 -31 -123 -31q-90 0 -155.5 60.5t-65.5 158.5q0 111 82.5 189.5t204.5 78.5q118 0 195 -72.5t77 -183.5q0 -51 -15 -100.5t-46 -96t-59.5 -82t-75.5 -77.5t-72 -63t-70 -56zM475 1380
q60 0 99.5 39.5t39.5 96.5q0 52 -35.5 84t-86.5 32q-60 0 -100 -40t-40 -95q0 -52 36 -84.5t87 -32.5z" />
    <glyph glyph-name="zeroinferior" unicode="&#x2080;" horiz-adv-x="655" 
d="M295 426q114 0 176 -79t64 -210q0 -85 -20 -164.5t-58.5 -146.5t-102 -107.5t-143.5 -40.5q-117 0 -179.5 80.5t-62.5 210.5q0 67 12 131.5t38.5 124t64 104t92 71t119.5 26.5zM217 -195q50 0 89.5 52t60 129.5t20.5 160.5q-1 82 -29.5 119t-70.5 35q-77 0 -123.5 -104
t-46.5 -238q0 -154 100 -154z" />
    <glyph glyph-name="oneinferior" unicode="&#x2081;" horiz-adv-x="378" 
d="M-23 223l13 76q6 25 26 25h31q43 0 66.5 14t42.5 51q12 21 37 21h59q21 0 18 -21l-116 -672q-6 -24 -29 -24h-98q-8 0 -14 7t-5 17l86 486h-98q-22 0 -19 20z" />
    <glyph glyph-name="twoinferior" unicode="&#x2082;" horiz-adv-x="622" 
d="M416 -307h-471q-22 0 -19 22l13 68q7 27 26 41l228 174q97 75 133 117t36 88q0 41 -30.5 65.5t-73.5 24.5q-99 0 -135 -98q-7 -22 -18.5 -27.5t-28.5 0.5l-72 25q-23 7 -14 34q26 86 96.5 142.5t181.5 56.5q101 0 172.5 -58t71.5 -149q0 -80 -53 -145t-164 -146
l-148 -108h291q22 0 19 -21l-15 -84q-3 -22 -26 -22z" />
    <glyph glyph-name="threeinferior" unicode="&#x2083;" horiz-adv-x="624" 
d="M195 -317q-126 0 -196.5 66t-59.5 165l2 20q3 23 26 23h94q20 0 17 -20l-2 -17q-6 -50 25.5 -83.5t97.5 -33.5q62 0 95.5 36t33.5 83q0 45 -33 75t-98 30h-41q-20 0 -17 20l11 53q3 20 14 31l170 148h-291q-11 0 -16.5 7t-1.5 17l16 86q3 23 27 23h432q21 0 18 -23
l-8 -74q-7 -33 -21 -47l-178 -149q76 -18 120 -68.5t44 -126.5q0 -98 -75 -169.5t-205 -71.5z" />
    <glyph glyph-name="fourinferior" unicode="&#x2084;" horiz-adv-x="645" 
d="M256 -119h-313q-24 0 -21 23l15 78q1 4 4 13t4.5 14t5.5 12.5t10 13.5l332 356q19 19 37 19h137q23 0 20 -23l-67 -387h86q21 0 18 -23l-12 -73q-3 -23 -27 -23h-86l-28 -164q-3 -24 -31 -24h-96q-23 0 -17 24zM76 0h200l48 266z" />
    <glyph glyph-name="fiveinferior" unicode="&#x2085;" horiz-adv-x="622" 
d="M197 -319q-89 0 -159.5 37t-107.5 96q-18 29 17 51l53 37q9 6 16 7t13 -3t8.5 -6.5t7.5 -8.5q29 -36 63.5 -57.5t88.5 -21.5q60 0 98.5 34t38.5 88q0 53 -35.5 83t-87.5 30q-45 0 -100 -31q-19 -13 -39 -4l-72 27q-18 6 -12 22l82 326q3 23 26 23h402q23 0 20 -21
l-14 -88q-11 -25 -29 -25h-313l-37 -145q60 31 127 31q96 0 163.5 -63.5t67.5 -159.5q0 -107 -79.5 -182.5t-206.5 -75.5z" />
    <glyph glyph-name="sixinferior" unicode="&#x2086;" horiz-adv-x="634" 
d="M223 -328q-118 0 -195 72.5t-77 183.5q0 51 15 100.5t46 96t59.5 82t75.5 77.5t72 63t70 56q18 13 37 11l104 -11q17 -1 20.5 -13.5t-8.5 -22.5q-225 -180 -276 -238q60 31 123 31q90 0 155.5 -60.5t65.5 -158.5q0 -111 -82.5 -190t-204.5 -79zM240 51
q-61 0 -100.5 -39.5t-39.5 -95.5q0 -52 36 -84.5t87 -32.5q60 0 99.5 40t39.5 95q0 53 -35.5 85t-86.5 32z" />
    <glyph glyph-name="seveninferior" unicode="&#x2087;" horiz-adv-x="557" 
d="M106 -307h-116q-13 0 -18 10.5t3 22.5l351 550h-320q-21 0 -18 25l14 86q3 23 29 23h465q19 0 16 -23l-8 -51q-7 -33 -21 -57l-346 -570q-10 -16 -31 -16z" />
    <glyph glyph-name="eightinferior" unicode="&#x2088;" horiz-adv-x="669" 
d="M227 -319q-129 0 -205.5 62t-76.5 153q0 78 49.5 129.5t114.5 64.5q-80 46 -80 137q0 90 73 145.5t191 55.5q110 0 181 -53.5t71 -138.5q0 -62 -36 -105.5t-91 -62.5q100 -53 100 -160q0 -95 -79.5 -161t-211.5 -66zM285 133q53 0 85.5 26.5t32.5 65.5q0 38 -31.5 63
t-80.5 25q-53 0 -86 -27.5t-33 -66.5q0 -37 32 -61.5t81 -24.5zM233 20q-62 0 -99.5 -32t-37.5 -80q0 -47 36.5 -77t96.5 -30t99 33.5t39 81.5q0 47 -37 75.5t-97 28.5z" />
    <glyph glyph-name="nineinferior" unicode="&#x2089;" horiz-adv-x="632" 
d="M193 -301q-17 -12 -37 -10l-105 10q-17 1 -20.5 14t8.5 23q228 183 276 237q-59 -30 -122 -30q-90 0 -156 60.5t-66 158.5q0 111 82.5 189.5t204.5 78.5q118 0 195 -72.5t77 -183.5q0 -51 -15 -100.5t-46 -96t-59.5 -82.5t-75 -77.5t-72 -62.5t-69.5 -56zM242 51
q60 0 99.5 39.5t39.5 95.5q0 52 -36 84.5t-87 32.5q-60 0 -99.5 -40t-39.5 -95q0 -52 36 -84.5t87 -32.5z" />
    <glyph glyph-name="Euro" unicode="&#x20ac;" horiz-adv-x="1378" 
d="M760 -29q-227 0 -380 144.5t-165 363.5h-94q-18 0 -28.5 12.5t-6.5 30.5l12 76q11 45 52 45h65q4 44 23 148h-66q-17 0 -26 12.5t-7 30.5l11 77q10 43 51 43h75q79 242 239.5 375t385.5 133q145 0 270 -59.5t187 -142.5q10 -14 7 -34t-17 -34l-88 -86q-48 -48 -95 -4
q-62 57 -124.5 87t-147.5 30q-118 0 -201.5 -71.5t-130.5 -193.5h428q18 0 28.5 -12.5t6.5 -30.5l-12 -77q-11 -43 -49 -43h-445q-7 -25 -24 -148h442q19 0 29 -13t6 -32l-13 -76q-10 -43 -49 -43h-420q5 -109 82.5 -186.5t194.5 -77.5q156 0 317 135q50 42 93 -4l81 -96
q24 -34 -4 -70q-77 -87 -208 -148t-285 -61z" />
    <glyph glyph-name="litre" unicode="&#x2113;" horiz-adv-x="894" 
d="M469 -18q-147 0 -226.5 93.5t-58.5 227.5l27 160q-9 -3 -41.5 -20t-36.5 -19q-29 -16 -45 16l-37 80q-7 17 -0.5 32t23.5 23q10 7 85 45.5t85 41.5l80 462q30 163 117 250.5t231 87.5q135 0 212.5 -95t57.5 -237q-25 -170 -149.5 -304t-350.5 -259l-43 -241
q-12 -67 13.5 -103.5t76.5 -36.5q77 0 132 78q25 38 63 15l90 -54q35 -27 19 -63q-43 -88 -129.5 -134t-194.5 -46zM752 1135q8 62 -15.5 99.5t-72.5 37.5t-80.5 -40t-42.5 -104l-60 -342q249 172 271 349z" />
    <glyph glyph-name="trademark" unicode="&#x2122;" horiz-adv-x="1740" 
d="M209 1321l14 86q3 27 29 27h606q10 0 16.5 -8t4.5 -19l-15 -86q-3 -25 -28 -25h-226l-96 -544q-1 -12 -10.5 -19.5t-20.5 -7.5h-104q-24 0 -21 27l97 544h-226q-23 0 -20 25zM1202 1405l103 -358l225 358q19 29 43 29h170q23 0 20 -27l-116 -657q-3 -25 -31 -25h-94
q-24 0 -21 27l88 497l-227 -352q-18 -27 -41 -27h-88q-24 0 -33 27l-106 354l-88 -499q-1 -12 -10.5 -19.5t-20.5 -7.5h-94q-24 0 -21 25l115 657q3 27 33 27h163q21 0 31 -29z" />
    <glyph glyph-name="Omega" unicode="&#x2126;" horiz-adv-x="1521" 
d="M672 403l-64 -358q-6 -45 -51 -45h-438q-18 0 -27.5 12.5t-7.5 30.5l27 145q6 45 51 45h256l22 119q-125 60 -213 184.5t-88 286.5q0 95 28.5 186t88.5 173t144.5 144.5t205 99t260.5 36.5q124 0 230.5 -30.5t182.5 -83t130.5 -122t80.5 -148t26 -160.5q0 -76 -16 -144
t-43 -119.5t-65 -97t-78 -78t-86 -59.5t-86 -44t-81 -30l-21 -113h254q20 0 32 -13t7 -30l-24 -145q-11 -45 -54 -45h-436q-19 0 -29 13t-6 32l64 358q1 3 2.5 11.5t2 11.5t2.5 10t4 10.5t6 9.5t9 9t11.5 7t15.5 7q78 30 135 65.5t103.5 84t70 114.5t23.5 148
q0 141 -107.5 231t-267.5 90q-196 0 -317 -116.5t-121 -288.5q0 -226 225 -328q38 -17 27 -76z" />
    <glyph glyph-name="estimated" unicode="&#x212e;" horiz-adv-x="1777" 
d="M1731 705h-1270q-19 0 -19 -25v-352q0 -82 84.5 -150t199 -102.5t222.5 -34.5q156 0 290.5 52t231.5 153l3 3q7 8 11 11t11.5 5.5t17.5 2.5h43q10 0 13.5 -8t-2.5 -16q-111 -129 -270 -198t-349 -69q-171 0 -322 58.5t-257.5 158.5t-168 238t-61.5 291q0 151 60 286
t165.5 234t257.5 157t326 58q186 0 338.5 -56t253.5 -154.5t158 -229.5t63 -283q0 -12 -9 -21t-21 -9zM442 1069v-283q0 -18 19 -18h977q18 0 18 18v283q0 87 -42.5 152t-116 102.5t-161.5 55.5t-188 18q-75 0 -145 -11t-136.5 -36t-115.5 -62t-79 -93t-30 -126z" />
    <glyph glyph-name="onethird" unicode="&#x2153;" horiz-adv-x="1435" 
d="M1327 1372l-1155 -1333q-16 -20 -30.5 -29.5t-41.5 -9.5h-39q-30 0 -36 19t14 42l1155 1334q31 39 70 39h41q29 0 35 -19.5t-13 -42.5zM201 1247l12 76q6 25 27 25h30q43 0 66.5 14t42.5 51q12 21 37 21h59q22 0 19 -21l-117 -672q-6 -24 -29 -24h-98q-8 0 -14 7t-5 17
l86 486h-98q-21 0 -18 20zM1042 -16q-126 0 -196.5 66t-59.5 165l2 21q3 22 27 22h94q20 0 17 -20l-2 -17q-6 -50 25.5 -83.5t97.5 -33.5q62 0 95.5 36t33.5 83q0 45 -33.5 75t-98.5 30h-40q-20 0 -17 20l10 53q3 19 15 31l170 148h-291q-11 0 -17 7t-2 17l17 86q3 23 26 23
h433q21 0 18 -23l-8 -74q-7 -33 -21 -47l-178 -149q76 -18 120 -68.5t44 -126.5q0 -98 -75.5 -169.5t-205.5 -71.5z" />
    <glyph glyph-name="twothirds" unicode="&#x2154;" horiz-adv-x="1587" 
d="M625 717h-471q-22 0 -19 22l12 68q7 26 27 41l227 174q98 75 134 117t36 88q0 41 -30.5 65.5t-73.5 24.5q-99 0 -135 -98q-7 -22 -18.5 -27.5t-28.5 0.5l-72 25q-20 6 -14 34q25 85 97 142t183 57q100 0 171 -58t71 -149q0 -80 -53.5 -147.5t-163.5 -147.5l-148 -104h291
q22 0 19 -21l-15 -84q-3 -22 -26 -22zM1497 1372l-1155 -1333q-16 -20 -30.5 -29.5t-41.5 -9.5h-39q-29 0 -35 19t13 42l1155 1334q16 20 30.5 29.5t41.5 9.5h39q29 0 35 -19.5t-13 -42.5zM1192 -16q-126 0 -196.5 66t-59.5 165l2 21q3 22 27 22h94q19 0 16 -20l-2 -17
q-6 -50 25.5 -83.5t97.5 -33.5q62 0 95.5 36t33.5 83q0 45 -33 75t-98 30h-41q-19 0 -16 20l10 53q3 20 14 31l170 148h-291q-11 0 -16.5 7t-1.5 17l16 86q3 23 27 23h432q22 0 19 -23l-9 -74q-8 -35 -20 -47l-178 -149q76 -18 120 -68.5t44 -126.5q0 -98 -75.5 -169.5
t-205.5 -71.5z" />
    <glyph glyph-name="oneeight" unicode="&#x215b;" horiz-adv-x="1415" 
d="M1298 1372l-1155 -1333q-12 -15 -18 -21t-19.5 -12t-31.5 -6h-39q-30 0 -36 19t13 42l1155 1334q31 39 70 39h39q30 0 36.5 -19.5t-14.5 -42.5zM213 1247l12 76q6 25 27 25h31q43 0 66 14t42 51q12 21 37 21h59q22 0 19 -21l-117 -672q-6 -24 -29 -24h-98q-8 0 -13.5 7
t-4.5 17l86 486h-99q-21 0 -18 20zM1012 -18q-129 0 -206 62t-77 153q0 78 49.5 129.5t114.5 64.5q-80 46 -80 137q0 90 73 145.5t191 55.5q110 0 181 -53.5t71 -138.5q0 -62 -36 -105.5t-91 -62.5q101 -53 101 -160q0 -95 -79.5 -161t-211.5 -66zM1069 434q53 0 86 26.5
t33 65.5q0 38 -32 63t-81 25q-53 0 -86 -27.5t-33 -66.5q0 -37 32 -61.5t81 -24.5zM1018 322q-62 0 -99.5 -32.5t-37.5 -80.5q0 -47 36.5 -77t96.5 -30t98.5 33.5t38.5 81.5q0 47 -36.5 76t-96.5 29z" />
    <glyph glyph-name="threeeights" unicode="&#x215c;" horiz-adv-x="1591" 
d="M1473 1372l-1156 -1333q-16 -20 -30.5 -29.5t-38.5 -9.5h-41q-29 0 -35 19t14 42l1155 1334q11 14 18 21t20.5 12.5t31.5 5.5h39q30 0 36 -19.5t-13 -42.5zM401 705q-126 0 -196.5 66t-59.5 165l2 20q3 23 27 23h94q20 0 17 -21l-2 -16q-6 -50 25.5 -83.5t97.5 -33.5
q62 0 95.5 36t33.5 83q0 45 -33.5 75t-98.5 30h-41q-19 0 -16 20l10 53q3 19 15 31l170 147h-291q-11 0 -17 7.5t-2 17.5l17 86q3 23 26 23h433q21 0 18 -23l-8 -74q-7 -33 -21 -47l-178 -149q76 -18 120 -68.5t44 -126.5q0 -98 -75.5 -169.5t-205.5 -71.5zM1186 -18
q-129 0 -206 62t-77 153q0 78 49.5 129.5t114.5 64.5q-80 46 -80 137q0 90 73 145.5t191 55.5q110 0 181 -53.5t71 -138.5q0 -62 -36 -105.5t-91 -62.5q101 -53 101 -160q0 -95 -79.5 -161t-211.5 -66zM1243 434q53 0 86 26.5t33 65.5q0 38 -32 63t-81 25q-53 0 -86 -27.5
t-33 -66.5q0 -37 32 -61.5t81 -24.5zM1192 322q-62 0 -99.5 -32.5t-37.5 -80.5q0 -47 36.5 -77t96.5 -30t98.5 33.5t38.5 81.5q0 47 -36.5 76t-96.5 29z" />
    <glyph glyph-name="fiveeights" unicode="&#x215d;" horiz-adv-x="1579" 
d="M1462 1372l-1155 -1333q-16 -21 -30 -30t-41 -9h-39q-29 0 -35.5 19t12.5 42l1155 1334q16 20 30.5 29.5t41.5 9.5h39q29 0 35 -19.5t-13 -42.5zM406 705q-89 0 -159.5 37t-107.5 96q-18 29 17 51l53 37q9 6 16 7t13 -3t8.5 -6.5t7.5 -8.5q29 -36 63.5 -57.5t88.5 -21.5
q60 0 98.5 34t38.5 88q0 53 -35.5 83t-87.5 30q-46 0 -101 -31q-19 -12 -38 -4l-72 27q-18 6 -12 22l82 326q3 23 26 23h402q23 0 20 -21l-14 -88q-11 -25 -29 -25h-313l-37 -145q60 31 127 31q96 0 163.5 -63.5t67.5 -159.5q0 -107 -79.5 -182.5t-206.5 -75.5zM1174 -18
q-129 0 -206 62t-77 153q0 78 49.5 129.5t114.5 64.5q-80 46 -80 137q0 90 73 145.5t191 55.5q110 0 181 -53.5t71 -138.5q0 -62 -36 -105.5t-91 -62.5q100 -53 100 -160q0 -95 -79 -161t-211 -66zM1231 434q53 0 86 26.5t33 65.5q0 38 -32 63t-81 25q-53 0 -86 -27.5
t-33 -66.5q0 -37 32 -61.5t81 -24.5zM1180 322q-62 0 -100 -32.5t-38 -80.5q0 -47 37 -77t97 -30t98.5 33.5t38.5 81.5q0 47 -36.5 76t-96.5 29z" />
    <glyph glyph-name="seveneights" unicode="&#x215e;" horiz-adv-x="1452" 
d="M1335 1372l-1155 -1333q-16 -20 -30.5 -29.5t-38.5 -9.5h-39q-30 0 -37 19t14 42l1155 1334q11 14 18 21t20.5 12.5t31.5 5.5h39q30 0 36 -19.5t-14 -42.5zM336 717h-117q-13 0 -17.5 10.5t3.5 22.5l350 550h-319q-22 0 -19 25l14 86q3 23 29 23h465q19 0 16 -23l-8 -51
q-8 -36 -20 -57l-346 -570q-10 -16 -31 -16zM1049 -18q-129 0 -206 62t-77 153q0 78 49.5 129.5t114.5 64.5q-80 46 -80 137q0 90 73 145.5t191 55.5q110 0 181 -53.5t71 -138.5q0 -62 -36 -105.5t-91 -62.5q100 -53 100 -160q0 -95 -79 -161t-211 -66zM1106 434
q53 0 86 26.5t33 65.5q0 38 -32 63t-81 25q-53 0 -86 -27.5t-33 -66.5q0 -37 32 -61.5t81 -24.5zM1055 322q-62 0 -99.5 -32.5t-37.5 -80.5q0 -47 36.5 -77t96.5 -30t98.5 33.5t38.5 81.5q0 47 -36.5 76t-96.5 29z" />
    <glyph glyph-name="arrowup" unicode="&#x2191;" horiz-adv-x="1638" 
d="M352 1141l514 403q14 10 34.5 10t37.5 -10l516 -403q31 -22 31 -66v-205q0 -21 -16.5 -27.5t-45.5 11.5l-391 311v-1245q0 -19 -13 -32t-32 -13h-170q-19 0 -32 14t-13 33v1243l-391 -311q-29 -18 -45.5 -11t-16.5 27v205q0 46 33 66z" />
    <glyph glyph-name="arrowdown" unicode="&#x2193;" horiz-adv-x="1638" 
d="M780 -113l-514 404q-33 20 -33 67v203q0 20 16.5 27.5t45.5 -10.5l391 -312v1243q0 19 13 33t32 14h170q19 0 32 -13t13 -32v-1245l391 312q29 18 45.5 11.5t16.5 -26.5v-205q0 -45 -31 -67l-516 -404q-17 -11 -38 -11t-34 11z" />
    <glyph glyph-name="arrowupleft" unicode="&#x2196;" horiz-adv-x="1802" 
d="M389 1372l647 78q43 6 72 -23l143 -145q15 -12 8.5 -30.5t-36.5 -22.5l-500 -58l899 -899q14 -14 14.5 -32.5t-12.5 -30.5l-121 -121q-12 -14 -30.5 -14t-30.5 14l-901 899l-56 -500q-4 -28 -23.5 -35t-31.5 7l-145 145q-33 33 -25 68l78 651q6 43 51 49z" />
    <glyph glyph-name="arrowupright" unicode="&#x2197;" horiz-adv-x="1802" 
d="M799 1450l647 -78q45 -6 51 -49l78 -651q8 -35 -25 -68l-145 -145q-12 -15 -31.5 -9.5t-23.5 37.5l-56 500l-901 -899q-12 -14 -30.5 -14t-30.5 14l-121 121q-13 12 -12.5 30.5t14.5 32.5l899 899l-500 58q-32 4 -37.5 22.5t9.5 30.5l143 145q29 29 72 23z" />
    <glyph glyph-name="arrowdownright" unicode="&#x2198;" horiz-adv-x="1802" 
d="M1503 152l-645 -78q-39 -7 -70 24l-145 146q-14 12 -8.5 30.5t33.5 22.5l503 57l-899 899q-13 13 -13.5 32.5t11.5 31.5l121 121q34 34 64 0l901 -899l55 497q4 32 24.5 37t32.5 -10l142 -141q34 -34 26 -68l-80 -651q-6 -45 -53 -51z" />
    <glyph glyph-name="arrowdownleft" unicode="&#x2199;" horiz-adv-x="1802" 
d="M1104 74l-645 78q-47 6 -53 51l-80 651q-8 34 26 68l142 141q12 15 32.5 10t24.5 -37l55 -497l901 899q34 34 64 0l121 -121q12 -12 11.5 -31.5t-13.5 -32.5l-899 -899l503 -57q28 -4 33.5 -22.5t-8.5 -30.5l-145 -146q-31 -31 -70 -24z" />
    <glyph glyph-name="partialdiff" unicode="&#x2202;" horiz-adv-x="1159" 
d="M1110 573q0 -168 -68 -304.5t-196 -217t-291 -80.5q-134 0 -246.5 58t-183 172.5t-70.5 263.5q0 143 63 266t180 198t261 75q67 0 135.5 -22.5t112.5 -68.5q-44 89 -115.5 192.5t-122.5 166t-119 141.5q-14 16 -20 23q-15 17 -5.5 40t38.5 23h166q41 0 63 -24
q42 -45 84.5 -96.5t106.5 -147t111 -191t81.5 -221.5t34.5 -246zM600 782q-121 0 -203 -93t-82 -224q0 -118 70.5 -190t173.5 -72q121 0 203 93t82 224q0 121 -70 191.5t-174 70.5z" />
    <glyph glyph-name="increment" unicode="&#x2206;" horiz-adv-x="1556" 
d="M47 270l725 1121q30 43 72 43h196q43 0 58 -43l332 -1121q14 -35 8 -80l-29 -145q-1 -19 -16.5 -32t-34.5 -13h-1335q-19 0 -30 13t-7 32l26 145q10 50 35 80zM909 1153l-555 -901h795z" />
    <glyph glyph-name="product" unicode="&#x220f;" horiz-adv-x="1851" 
d="M123 717q0 173 66 328t179 266t269 176t330 65q173 0 329 -65t268 -176t178 -266t66 -328t-66 -328t-178 -265.5t-268 -175.5t-329 -65q-174 0 -330 65t-269 176t-179 265.5t-66 327.5zM1651 717q0 144 -53 273t-143.5 221t-217.5 146t-270 54t-270 -54t-217.5 -146
t-143.5 -221t-53 -273t53 -272.5t143.5 -220.5t217.5 -145.5t270 -53.5t270 53.5t217.5 145.5t143.5 220.5t53 272.5zM659 1212h381q176 0 277.5 -98t101.5 -237t-101.5 -237.5t-277.5 -98.5h-196v-291q0 -31 -33 -31h-152q-14 0 -24 9t-10 22v930q0 12 10.5 22t23.5 10z
M1192 877q0 67 -45 108t-115 41h-188v-301h188q69 2 114.5 44t45.5 108z" />
    <glyph glyph-name="summation" unicode="&#x2211;" horiz-adv-x="1249" 
d="M565 1182l279 -387q31 -35 24.5 -77t-49.5 -79l-395 -387h661q19 0 30 -12.5t7 -30.5l-30 -164q-9 -45 -52 -45h-1011q-19 0 -30 13t-7 32l26 139q3 21 25 43l526 504l-350 469q-18 25 -12 51l22 140q5 19 19 31t33 12h1011q19 0 30 -12.5t7 -32.5l-29 -164
q-10 -43 -51 -43h-684z" />
    <glyph glyph-name="minus" unicode="&#x2212;" horiz-adv-x="1257" 
d="M1200 807l-31 -172q-5 -19 -19 -32t-32 -13h-944q-19 0 -30 13t-7 32l31 172q5 19 19.5 32t31.5 13h946q18 0 28.5 -13.5t6.5 -31.5z" />
    <glyph glyph-name="radical" unicode="&#x221a;" horiz-adv-x="1417" 
d="M715 -287h-244q-36 0 -47 43l-174 717l-174 -72q-17 -6 -33 0t-20 23l-29 131q-4 17 5 33t26 24l358 148q37 12 61.5 2t30.5 -35l164 -725l659 1489q18 41 54 41h188q28 0 36.5 -19.5t-3.5 -42.5l-797 -1714q-19 -43 -61 -43z" />
    <glyph glyph-name="infinity" unicode="&#x221e;" horiz-adv-x="2148" 
d="M625 1268q61 0 117 -14t119.5 -48.5t128.5 -102t126 -165.5q199 330 490 330q64 0 130.5 -20t132 -63.5t116.5 -106t82.5 -156t31.5 -203.5t-31.5 -203.5t-82.5 -156t-116.5 -106t-132 -63.5t-130.5 -20q-291 0 -490 330q-61 -98 -126 -165.5t-128.5 -102t-119.5 -48.5
t-117 -14q-64 0 -130.5 20t-132 63.5t-116.5 106t-83 156t-32 203.5t32 203.5t83 156t116.5 106t132 63.5t130.5 20zM639 997q-38 0 -76.5 -17t-72.5 -49t-55 -87.5t-21 -124.5q0 -130 71 -203.5t156 -73.5q82 0 160 60t160 217q-85 156 -162.5 217t-159.5 61zM1591 442
q84 0 155 73.5t71 203.5q0 69 -21.5 124.5t-55.5 87.5t-72.5 49t-76.5 17q-83 0 -157.5 -60t-163.5 -218q88 -159 163 -218t158 -59z" />
    <glyph glyph-name="integral" unicode="&#x222b;" horiz-adv-x="921" 
d="M225 -111l221 1254q31 176 130.5 259t248.5 83q68 0 138.5 -24.5t117.5 -65.5q28 -28 2 -66l-84 -112q-28 -41 -77 -3q-47 33 -88 33q-112 0 -134 -129l-219 -1253q-31 -176 -130.5 -259t-248.5 -83q-68 0 -138.5 24.5t-117.5 65.5q-27 27 -2 65l84 113q28 41 78 2
q47 -33 88 -33q109 0 131 129z" />
    <glyph glyph-name="approxequal" unicode="&#x2248;" horiz-adv-x="1265" 
d="M965 1040q35 0 62 13t51 31t42 24q36 9 56 -23l47 -79q17 -33 6 -66q-23 -49 -95 -100.5t-163 -51.5q-57 0 -267.5 37t-238.5 37q-35 0 -62.5 -13t-51.5 -30.5t-42 -23.5q-36 -9 -55 22l-47 80q-17 33 -6 66q23 49 95 100t163 51q52 0 262.5 -37t243.5 -37zM881 565
q35 0 62 13t51 31t42 24q36 9 56 -23l47 -80q17 -33 6 -65q-23 -49 -95 -100.5t-163 -51.5q-57 0 -267.5 37t-238.5 37q-47 0 -96 -32.5t-60 -35.5q-35 -9 -55 23l-47 80q-17 33 -6 65q23 49 95 100.5t163 51.5q52 0 262.5 -37t243.5 -37z" />
    <glyph glyph-name="notequal" unicode="&#x2260;" horiz-adv-x="1251" 
d="M735 350l-24 -143q-5 -19 -19 -31t-33 -12h-184q-18 0 -28.5 12t-8.5 31l25 143h-334q-18 0 -28.5 12.5t-6.5 30.5l31 170q5 19 19 32t32 13h334l37 217h-334q-19 0 -29 12t-6 31l29 170q5 19 20 32t33 13h334l24 142q4 19 19.5 31t34.5 12h182q19 0 29 -12t6 -31
l-25 -142h338q18 0 28.5 -13.5t6.5 -31.5l-31 -170q-5 -19 -18.5 -31t-32.5 -12h-336l-39 -217h338q18 0 28.5 -13.5t6.5 -31.5l-31 -170q-5 -19 -18.5 -31t-30.5 -12h-338z" />
    <glyph glyph-name="lessequal" unicode="&#x2264;" horiz-adv-x="1175" 
d="M1085 610l-32 -178q-6 -35 -32.5 -45t-49.5 6l-778 424q-31 15 -38 49.5t1 61.5q16 82 73 110l930 422q26 15 49 4.5t19 -43.5l-33 -209q-4 -22 -20 -35t-46 -26l-579 -238l493 -241q26 -12 37.5 -25.5t5.5 -36.5zM1014 215l-31 -170q-5 -19 -19 -32t-32 -13h-891
q-19 0 -29 13t-6 32l29 170q5 19 18.5 31t32.5 12h891q19 0 30 -12.5t7 -30.5z" />
    <glyph glyph-name="greaterequal" unicode="&#x2265;" horiz-adv-x="1169" 
d="M102 432l35 209q4 22 20 35t46 26l577 238l-493 240q-25 13 -37 27t-8 36l34 178q7 35 33 45t49 -6l781 -424q29 -17 36 -49t-1 -61q-13 -83 -74 -111l-930 -422q-30 -15 -52 -5.5t-16 44.5zM963 0h-891q-19 0 -30 13t-7 32l31 170q5 19 18.5 31t32.5 12h891
q19 0 29.5 -12.5t6.5 -30.5l-30 -170q-5 -19 -19 -32t-32 -13z" />
    <glyph glyph-name="filledbox" unicode="&#x25a0;" horiz-adv-x="1802" 
d="M1628 0h-1372q-12 0 -21.5 9.5t-9.5 21.5v1372q0 12 9.5 21.5t21.5 9.5h1372q12 0 21.5 -9.5t9.5 -21.5v-1372q0 -12 -9.5 -21.5t-21.5 -9.5z" />
    <glyph glyph-name="triagup" unicode="&#x25b2;" horiz-adv-x="1802" 
d="M1630 0h-1618q-11 0 -15.5 8t1.5 19l807 1380q6 11 16.5 11t16.5 -11l807 -1380q6 -11 1 -19t-16 -8z" />
    <glyph glyph-name="uni25B6" unicode="&#x25b6;" horiz-adv-x="1802" 
d="M315 -92v1618q0 11 8.5 15.5t18.5 -1.5l1380 -807q10 -6 10 -16.5t-10 -16.5l-1380 -806q-10 -6 -18.5 -1.5t-8.5 15.5z" />
    <glyph glyph-name="triagdn" unicode="&#x25bc;" horiz-adv-x="1802" 
d="M1047 27l-807 1380q-6 11 -1.5 19t15.5 8h1618q11 0 15.5 -8t-1.5 -19l-807 -1380q-6 -11 -16 -11t-16 11z" />
    <glyph glyph-name="uni25C0" unicode="&#x25c0;" horiz-adv-x="1802" 
d="M160 733l1380 807q10 6 18.5 1.5t8.5 -15.5v-1618q0 -11 -8.5 -15.5t-18.5 1.5l-1380 806q-10 6 -10 16.5t10 16.5z" />
    <glyph glyph-name="lozenge" unicode="&#x25ca;" horiz-adv-x="1966" 
d="M1913 694l-866 -868q-23 -23 -46 0l-868 868q-23 22 0 45l868 869q23 23 46 0l866 -869q23 -23 0 -45z" />
    <glyph glyph-name="uni2B24" unicode="&#x2b24;" horiz-adv-x="1802" 
d="M1659 717q0 -145 -57 -278t-153 -229t-229 -153t-278 -57t-278 57t-229 153t-153 229t-57 278t57 278t153 229t229 153t278 57t278 -57t229 -153t153 -229t57 -278z" />
    <glyph glyph-name="logo.01" unicode="&#xe00f;" horiz-adv-x="2476" 
d="M1253 -332q-158 71 -307.5 166.5t-289 223t-243.5 267.5t-166.5 309t-62.5 339q0 153 55 292.5t154 243.5q185 191 481 191q250 0 455 -176q193 172 445 172q139 0 261.5 -49t213.5 -144q98 -103 152.5 -242.5t54.5 -291.5q0 -146 -45.5 -289.5t-125.5 -267t-184 -237
t-226.5 -207.5t-245.5 -168.5t-249 -131.5q-37 -17 -63.5 -17t-63.5 17z" />
    <glyph glyph-name="commaaccent" unicode="&#xf6c3;" horiz-adv-x="520" 
d="M-29 -530l105 129q-42 18 -67 57.5t-21 85.5q8 70 55.5 114t118.5 44q68 0 115.5 -52.5t41.5 -128.5q-4 -50 -28 -99.5t-61 -90t-69.5 -68t-68.5 -51.5q-61 -42 -94 -14l-21 12q-18 13 -18.5 31t12.5 31z" />
    <glyph glyph-name="NULL" horiz-adv-x="0" 
 />
    <glyph glyph-name="apostrophe" horiz-adv-x="788" 
d="M246 924l133 182q-51 24 -81.5 68.5t-29.5 97.5q2 78 57 132t134 54q81 0 137 -56.5t55 -146.5q0 -60 -27.5 -124t-70.5 -117t-83 -92t-79 -68q-64 -45 -108 -16l-25 16q-42 31 -12 70z" />
    <glyph glyph-name="apostrophemod" horiz-adv-x="473" 
d="M201 1004l102 135q-42 18 -68 61t-22 92q8 69 56.5 113.5t119.5 44.5q70 0 120 -52.5t44 -129.5q-7 -89 -78.5 -178t-150.5 -148q-31 -20 -51.5 -24t-45.5 8l-20 14q-36 26 -6 64z" />
    <glyph glyph-name="eight.dnom" horiz-adv-x="669" 
d="M281 -18q-129 0 -206 62t-77 153q0 78 49.5 129.5t114.5 64.5q-80 46 -80 137q0 90 73 145.5t191 55.5q110 0 181 -53.5t71 -138.5q0 -62 -36 -105.5t-91 -62.5q100 -53 100 -160q0 -95 -79 -161t-211 -66zM338 434q53 0 86 26.5t33 65.5q0 38 -32 63t-81 25
q-53 0 -86 -27.5t-33 -66.5q0 -37 32 -61.5t81 -24.5zM287 322q-62 0 -99.5 -32.5t-37.5 -80.5q0 -47 36.5 -77t96.5 -30t98.5 33.5t38.5 81.5q0 47 -36.5 76t-96.5 29z" />
    <glyph glyph-name="eight.numr" horiz-adv-x="669" 
d="M408 702q-129 0 -206 62.5t-77 153.5q0 78 49.5 129.5t114.5 64.5q-80 46 -80 137q0 90 73 145.5t191 55.5q110 0 181 -54t71 -139q0 -62 -36 -105t-91 -62q100 -53 100 -160q0 -95 -79 -161.5t-211 -66.5zM465 1155q53 0 86 26.5t33 65.5q0 38 -32 63t-81 25
q-53 0 -86 -27.5t-33 -66.5q0 -37 32 -61.5t81 -24.5zM414 1042q-62 0 -100 -32t-38 -80q0 -47 37 -77t97 -30t98.5 33.5t38.5 81.5q0 47 -36.5 75.5t-96.5 28.5z" />
    <glyph glyph-name="eight.onum" horiz-adv-x="1265" 
d="M610 -29q-255 0 -406 121.5t-151 304.5q0 150 98 254.5t234 136.5q-73 44 -117.5 115.5t-44.5 159.5q0 176 146 287.5t374 111.5q217 0 356.5 -106.5t139.5 -272.5q0 -121 -74.5 -212.5t-185.5 -125.5q94 -42 150.5 -127.5t56.5 -195.5q0 -92 -40 -174t-113 -143.5
t-182.5 -97.5t-240.5 -36zM727 864q114 0 184 57.5t70 143.5q0 80 -67 133t-175 53q-113 0 -182.5 -58t-69.5 -142q0 -81 66.5 -134t173.5 -53zM623 657q-129 0 -210 -70t-81 -167q0 -99 79 -162t203 -63q129 0 211 70t82 169q0 94 -81 158.5t-203 64.5z" />
    <glyph glyph-name="eight.tnum" horiz-adv-x="1216" 
d="M586 -29q-255 0 -406 121.5t-151 304.5q0 150 97.5 254.5t233.5 136.5q-73 43 -117 114.5t-44 160.5q0 176 146 287.5t374 111.5q217 0 356 -106.5t139 -272.5q0 -121 -74.5 -212.5t-185.5 -125.5q94 -42 150.5 -127.5t56.5 -195.5q0 -92 -40 -174t-112.5 -143.5
t-182 -97.5t-240.5 -36zM702 864q114 0 184 57.5t70 143.5q0 81 -67 133.5t-174 52.5q-113 0 -182.5 -58t-69.5 -142q0 -81 66 -134t173 -53zM598 657q-129 0 -210 -70t-81 -167q0 -98 79.5 -161.5t203.5 -63.5q129 0 211 70t82 169q0 94 -81.5 158.5t-203.5 64.5z" />
    <glyph glyph-name="emdash.alt" horiz-adv-x="2037" 
d="M1870 455h-1712q-19 0 -29 12.5t-6 32.5l31 184q4 20 18.5 32.5t32.5 12.5h1712q18 0 29.5 -13t7.5 -32l-33 -184q-9 -45 -51 -45z" />
    </font>
</defs>
</svg>
