<?xml version="1.0" standalone="no"?>
<!DOCTYPE svg PUBLIC "-//W3C//DTD SVG 1.1//EN" "http://www.w3.org/Graphics/SVG/1.1/DTD/svg11.dtd" >
<svg xmlns="http://www.w3.org/2000/svg" xmlns:xlink="http://www.w3.org/1999/xlink" version="1.1">
<metadata>
Created by FontForge 20170731 at Sat Apr 30 16:38:17 2022
 By Aleksey,,,
Copyright (c) 2001 by Henrik Kubel, A2/SW/HK + A2-TYPE. All rights reserved.
</metadata>
<defs>
<font id="Boing-BoldItalic" horiz-adv-x="1206" >
  <font-face 
    font-family="Boing-Bold Italic"
    font-weight="700"
    font-style="italic"
    font-stretch="normal"
    units-per-em="2048"
    panose-1="2 11 8 3 3 0 0 9 0 4"
    ascent="1536"
    descent="-512"
    x-height="1014"
    cap-height="1434"
    bbox="-489 -694.044 2461 2179"
    underline-thickness="102"
    underline-position="-460"
    slope="-10"
    unicode-range="U+000D-FB04"
  />
<missing-glyph horiz-adv-x="0" 
 />
    <glyph glyph-name="f_f" unicode="ff" horiz-adv-x="1300" 
d="M1151 1014h178q21 0 33 -13.5t8 -33.5l-35 -197q-5 -21 -21 -35t-36 -14h-178l-119 -672q-5 -21 -20 -35t-35 -14h-252q-21 0 -33 14.5t-8 34.5l119 672h-172l-119 -672q-5 -21 -20 -35t-35 -14h-252q-21 0 -33 14.5t-8 34.5l118 672h-122q-19 0 -30 14.5t-7 34.5l34 197
q4 20 19.5 33.5t34.5 13.5h123l18 102q15 88 51 152.5t84 99.5t98.5 50.5t106.5 15.5h90q77 0 64 -76l-33 -193q-9 -59 -66 -59h-14q-34 0 -43 -39l-8 -53h172l20 110q35 194 150 287.5t282 93.5q83 0 165.5 -29.5t127.5 -82.5q28 -36 -10 -86l-108 -148q-35 -50 -93 -8
q-42 31 -84 31q-29 0 -53.5 -21.5t-34.5 -70.5z" />
    <glyph glyph-name="fi" unicode="fi" horiz-adv-x="1128" 
d="M283 1014l20 110q35 194 150 287.5t282 93.5q83 0 165.5 -29.5t127.5 -82.5q28 -36 -10 -86l-109 -148q-15 -22 -33.5 -26.5t-30.5 1t-28 17.5q-42 31 -84 31q-29 0 -53.5 -21.5t-34.5 -70.5l-14 -76h473q19 0 30 -13.5t7 -33.5l-162 -918q-5 -21 -20 -35t-35 -14h-252
q-20 0 -31.5 14.5t-7.5 34.5l119 672h-172l-119 -672q-5 -21 -20 -35t-35 -14h-252q-21 0 -33 14.5t-8 34.5l118 672h-122q-19 0 -30 14.5t-7 34.5l34 197q5 20 20.5 33.5t35.5 13.5h121z" />
    <glyph glyph-name="fl" unicode="fl" horiz-adv-x="1230" 
d="M231 721h-122q-19 0 -30 14.5t-7 34.5l34 197q4 20 19.5 33.5t34.5 13.5h123l18 102q15 88 51 152.5t84 99.5t98.5 50.5t106.5 15.5h90q77 0 64 -76l-33 -193q-9 -59 -66 -59h-14q-34 0 -43 -39l-8 -53h172l65 370q5 20 21 35t35 15h254q20 0 30.5 -14.5t5.5 -35.5
l-184 -1050q-4 -17 5 -29t26 -12h67q45 0 37 -45l-32 -187q-11 -61 -76 -61h-144q-145 0 -203.5 72.5t-39.5 185.5l82 463h-172l-119 -672q-5 -21 -20 -35t-35 -14h-252q-21 0 -33 14.5t-8 34.5z" />
    <glyph glyph-name="f_f_i" unicode="ffi" horiz-adv-x="1648" 
d="M612 -70l142 791h-174l-119 -672q-5 -21 -20 -35t-35 -14h-252q-21 0 -33 14.5t-8 34.5l118 672h-122q-19 0 -30 14.5t-7 34.5l34 197q4 20 19.5 33.5t34.5 13.5h123l18 102q15 88 51 152.5t84 99.5t98.5 50.5t106.5 15.5h90q77 0 64 -76l-33 -193q-9 -59 -66 -59h-14
q-34 0 -43 -39l-8 -53h172l20 110q35 194 150 287.5t282 93.5q83 0 165.5 -29.5t127.5 -82.5q28 -36 -10 -86l-108 -148q-35 -50 -93 -8q-42 31 -84 31q-29 0 -53.5 -21.5t-34.5 -70.5l-14 -76h473q19 0 30 -13.5t7 -33.5l-162 -918q-5 -21 -20 -35t-35 -14h-252
q-20 0 -31.5 14.5t-7.5 34.5l119 672h-174l-144 -825q-35 -194 -149.5 -287.5t-282.5 -93.5q-83 0 -165.5 29.5t-127.5 82.5q-28 36 11 86l108 148q15 22 33.5 26.5t30.5 -1t28 -17.5q42 -31 84 -31q29 0 53.5 21.5t34.5 70.5z" />
    <glyph glyph-name="f_f_l" unicode="ffl" horiz-adv-x="1746" 
d="M1098 721l-144 -825q-35 -194 -149.5 -287.5t-282.5 -93.5q-83 0 -165.5 29.5t-127.5 82.5q-28 36 11 86l108 148q15 22 33.5 26.5t30.5 -1t28 -17.5q42 -31 84 -31q29 0 53.5 21.5t34.5 70.5l142 791h-174l-119 -672q-5 -21 -20 -35t-35 -14h-252q-21 0 -33 14.5
t-8 34.5l118 672h-122q-19 0 -30 14.5t-7 34.5l34 197q4 20 19.5 33.5t34.5 13.5h123l18 102q15 88 51 152.5t84 99.5t98.5 50.5t106.5 15.5h90q77 0 64 -76l-33 -193q-9 -59 -66 -59h-14q-34 0 -43 -39l-8 -53h172l18 102q15 88 51 152.5t84 99.5t98.5 50.5t106.5 15.5h90
q77 0 64 -76l-33 -193q-9 -59 -65 -59h-15q-34 0 -43 -39l-8 -53h172l66 370q5 21 20.5 35.5t34.5 14.5h254q20 0 31 -15t6 -35l-185 -1050q-4 -17 5 -29t26 -12h68q45 0 37 -45l-33 -187q-11 -61 -76 -61h-143q-145 0 -204 72.5t-40 185.5l82 463h-174z" />
    <glyph glyph-name="f_b" unicode="fb" horiz-adv-x="1843" 
d="M1282 -31q-197 0 -303 121l-8 -43q-4 -23 -19 -35t-34 -12h-252q-19 0 -30 14t-7 33l119 674h-168l-119 -672q-5 -21 -20 -35t-35 -14h-252q-21 0 -33 14.5t-8 34.5l118 672h-122q-19 0 -30 14.5t-7 34.5l34 197q4 20 19.5 33.5t34.5 13.5h123l18 102q15 88 51 152.5
t84 99.5t98.5 50.5t106.5 15.5h90q77 0 64 -76l-33 -193q-9 -59 -66 -59h-14q-34 0 -43 -39l-8 -53h170l65 372q5 21 20.5 34.5t35.5 13.5h249q20 0 31.5 -14t7.5 -34l-80 -438q104 94 261 94q174 0 296.5 -133t122.5 -334q0 -134 -42.5 -249t-114.5 -192.5t-168 -121
t-203 -43.5zM1270 729q-96 0 -159.5 -74.5t-63.5 -175.5q0 -88 52 -146.5t138 -58.5q96 0 159.5 74.5t63.5 175.5q0 88 -52 146.5t-138 58.5z" />
    <glyph glyph-name="f_f_b" unicode="ffb" horiz-adv-x="2365" 
d="M1792 729q-96 0 -159.5 -74.5t-63.5 -175.5q0 -88 52 -146.5t138 -58.5q96 0 159.5 74.5t63.5 175.5q0 88 -52 146.5t-138 58.5zM754 721h-174l-119 -672q-5 -21 -20 -35t-35 -14h-252q-21 0 -33 14.5t-8 34.5l118 672h-122q-19 0 -30 14.5t-7 34.5l34 197
q4 20 19.5 33.5t34.5 13.5h123l18 102q15 88 51 152.5t84 99.5t98.5 50.5t106.5 15.5h90q77 0 64 -76l-33 -193q-9 -59 -66 -59h-14q-34 0 -43 -39l-8 -53h172l18 102q15 88 51 152.5t84 99.5t98.5 50.5t106.5 15.5h90q77 0 64 -76l-33 -193q-9 -59 -65 -59h-15
q-34 0 -43 -39l-8 -53h172l66 372q5 21 20 34.5t35 13.5h250q20 0 31.5 -14t7.5 -34l-80 -438q104 94 260 94q175 0 297.5 -133t122.5 -334q0 -134 -42.5 -249t-115 -192.5t-168.5 -121t-203 -43.5q-197 0 -303 121l-8 -43q-4 -23 -19 -35t-34 -12h-252q-19 0 -30 14t-7 33
l119 674h-172l-144 -825q-35 -194 -149.5 -287.5t-282.5 -93.5q-83 0 -165.5 29.5t-127.5 82.5q-28 36 11 86l108 148q15 22 33.5 26.5t30.5 -1t28 -17.5q42 -31 84 -31q29 0 53.5 21.5t34.5 70.5z" />
    <glyph glyph-name="f_f_f" unicode="fff" horiz-adv-x="1820" 
d="M1323 1014l20 110q35 194 150.5 287.5t282.5 93.5q83 0 165 -29.5t127 -82.5q28 -36 -10 -86l-108 -148q-15 -22 -33.5 -26.5t-30.5 1t-28 17.5q-42 31 -84 31q-29 0 -53.5 -21.5t-34.5 -70.5l-15 -76h178q21 0 33 -13.5t8 -33.5l-35 -197q-5 -21 -21 -35t-36 -14h-178
l-119 -672q-5 -21 -20 -35t-35 -14h-252q-21 0 -33 14.5t-8 34.5l119 672h-174l-144 -825q-35 -194 -149.5 -287.5t-282.5 -93.5q-83 0 -165.5 29.5t-127.5 82.5q-28 36 11 86l108 148q15 22 33.5 26.5t30.5 -1t28 -17.5q42 -31 84 -31q29 0 53.5 21.5t34.5 70.5l142 791
h-174l-119 -672q-5 -21 -20 -35t-35 -14h-252q-21 0 -33 14.5t-8 34.5l118 672h-122q-19 0 -30 14.5t-7 34.5l34 197q4 20 19.5 33.5t34.5 13.5h123l18 102q15 88 51 152.5t84 99.5t98.5 50.5t106.5 15.5h90q77 0 64 -76l-33 -193q-9 -59 -66 -59h-14q-34 0 -43 -39l-8 -53
h172l18 102q15 88 51 152.5t84 99.5t98.5 50.5t106.5 15.5h90q77 0 64 -76l-33 -193q-9 -59 -65 -59h-15q-34 0 -43 -39l-8 -53h172z" />
    <glyph glyph-name="f_f_h" unicode="ffh" horiz-adv-x="2347" 
d="M754 721h-174l-119 -672q-5 -21 -20 -35t-35 -14h-252q-21 0 -33 14.5t-8 34.5l118 672h-122q-19 0 -30 14.5t-7 34.5l34 197q4 20 19.5 33.5t34.5 13.5h123l18 102q15 88 51 152.5t84 99.5t98.5 50.5t106.5 15.5h90q77 0 64 -76l-33 -193q-9 -59 -66 -59h-14
q-34 0 -43 -39l-8 -53h172l18 102q15 88 51 152.5t84 99.5t98.5 50.5t106.5 15.5h90q77 0 64 -76l-33 -193q-9 -59 -65 -59h-15q-34 0 -43 -39l-8 -53h172l66 372q5 20 19.5 34t33.5 14h254q20 0 32.5 -12.5t8.5 -30.5l-82 -447q115 100 268 100q91 0 168 -32t131.5 -95
t75.5 -156.5t0 -215.5l-88 -502q-4 -18 -20.5 -30.5t-35.5 -12.5h-251q-20 0 -32.5 12.5t-8.5 30.5l82 465q39 211 -142 211q-87 0 -146.5 -65.5t-82.5 -188.5l-76 -422q-4 -18 -21 -30.5t-36 -12.5h-250q-20 0 -31.5 13.5t-7.5 33.5l119 674h-172l-144 -825
q-35 -194 -149.5 -287.5t-282.5 -93.5q-83 0 -165.5 29.5t-127.5 82.5q-28 36 11 86l108 148q15 22 33.5 26.5t30.5 -1t28 -17.5q42 -31 84 -31q29 0 53.5 21.5t34.5 70.5z" />
    <glyph glyph-name="f_f_j" unicode="ffj" horiz-adv-x="1648" 
d="M803 1014l20 110q35 194 150 287.5t282 93.5q83 0 165.5 -29.5t127.5 -82.5q28 -36 -10 -86l-108 -148q-35 -50 -93 -8q-42 31 -84 31q-29 0 -53.5 -21.5t-34.5 -70.5l-14 -76h471q19 0 31 -14.5t8 -34.5l-188 -1069q-35 -194 -150 -287.5t-283 -93.5q-83 0 -165 29.5
t-127 82.5q-28 36 10 86l108 148q15 22 33.5 26.5t30.5 -1t28 -17.5q42 -31 84 -31q29 0 53.5 21.5t34.5 70.5l142 791h-172l-119 -672q-5 -21 -20 -35t-35 -14h-252q-21 0 -33 14.5t-8 34.5l119 672h-172l-119 -672q-5 -21 -20 -35t-35 -14h-252q-21 0 -33 14.5t-8 34.5
l118 672h-122q-19 0 -30 14.5t-7 34.5l34 197q4 20 19.5 33.5t34.5 13.5h123l18 102q15 88 51 152.5t84 99.5t98.5 50.5t106.5 15.5h90q77 0 64 -76l-33 -193q-9 -59 -66 -59h-14q-34 0 -43 -39l-8 -53h172z" />
    <glyph glyph-name="f_f_k" unicode="ffk" horiz-adv-x="2254" 
d="M754 721h-174l-119 -672q-5 -21 -20 -35t-35 -14h-252q-21 0 -33 14.5t-8 34.5l118 672h-122q-19 0 -30 14.5t-7 34.5l34 197q4 20 19.5 33.5t34.5 13.5h123l18 102q15 88 51 152.5t84 99.5t98.5 50.5t106.5 15.5h90q77 0 64 -76l-33 -193q-9 -59 -66 -59h-14
q-34 0 -43 -39l-8 -53h172l18 102q15 88 51 152.5t84 99.5t98.5 50.5t106.5 15.5h90q77 0 64 -76l-33 -193q-9 -59 -65 -59h-15q-34 0 -43 -39l-8 -53h172l66 372q5 20 20.5 34t34.5 14h254q19 0 30 -14t7 -34l-127 -722h55l252 313q30 37 74 37h266q38 0 47.5 -26.5
t-16.5 -57.5l-342 -393l247 -449q18 -31 1.5 -59.5t-56.5 -28.5h-242q-29 0 -42.5 8.5t-24.5 32.5l-195 383h-67l-66 -377q-5 -21 -20 -34t-35 -13h-252q-21 0 -33 13.5t-8 33.5l119 674h-172l-144 -825q-35 -194 -149.5 -287.5t-282.5 -93.5q-83 0 -165.5 29.5t-127.5 82.5
q-28 36 11 86l108 148q15 22 33.5 26.5t30.5 -1t28 -17.5q42 -31 84 -31q29 0 53.5 21.5t34.5 70.5z" />
    <glyph glyph-name="f_f_t" unicode="fft" horiz-adv-x="1898" 
d="M522 -485q-83 0 -165.5 29.5t-127.5 82.5q-28 36 11 86l108 148q15 22 33.5 26.5t30.5 -1t28 -17.5q42 -31 84 -31q29 0 53.5 21.5t34.5 70.5l142 791h-174l-119 -672q-5 -21 -20 -35t-35 -14h-252q-21 0 -33 14.5t-8 34.5l118 672h-122q-19 0 -30 14.5t-7 34.5l34 197
q4 20 19.5 33.5t34.5 13.5h123l18 102q15 88 51 152.5t84 99.5t98.5 50.5t106.5 15.5h90q77 0 64 -76l-33 -193q-9 -59 -66 -59h-14q-34 0 -43 -39l-8 -53h172l18 102q15 88 51 152.5t84 99.5t98.5 50.5t106.5 15.5h90q77 0 64 -76l-33 -193q-9 -59 -65 -59h-15
q-34 0 -43 -39l-8 -53h174l43 250q5 20 21 33.5t36 13.5h252q20 0 31.5 -13.5t7.5 -33.5l-45 -250h240q21 0 33 -13.5t8 -33.5l-35 -197q-5 -21 -21 -35t-36 -14h-240l-57 -324q-3 -35 -0.5 -54.5t15.5 -29t21.5 -12t18.5 -2.5q7 0 13 1t10 1.5t12 3t11.5 4t14.5 6.5t17 7
q30 11 46.5 1.5t29.5 -40.5l55 -131q20 -48 -35 -89q-141 -92 -305 -92q-60 0 -116 20.5t-101.5 61t-65 112.5t-2.5 165l70 391h-174l-144 -825q-35 -194 -149.5 -287.5t-282.5 -93.5z" />
    <glyph glyph-name="f_h" unicode="fh" horiz-adv-x="1824" 
d="M406 0h-252q-21 0 -33 14.5t-8 34.5l118 672h-122q-19 0 -30 14.5t-7 34.5l34 197q4 20 19.5 33.5t34.5 13.5h123l18 102q15 88 51 152.5t84 99.5t98.5 50.5t106.5 15.5h90q77 0 64 -76l-33 -193q-9 -59 -66 -59h-14q-34 0 -43 -39l-8 -53h170l65 372q5 20 20 34t34 14
h254q20 0 32 -12.5t8 -30.5l-81 -447q115 100 268 100q91 0 168 -32t131.5 -95t75.5 -156.5t0 -215.5l-88 -502q-4 -18 -20.5 -30.5t-35.5 -12.5h-250q-20 0 -32.5 12.5t-8.5 30.5l82 465q39 211 -141 211q-87 0 -145.5 -64.5t-81.5 -187.5l-78 -424q-4 -18 -21 -30.5
t-36 -12.5h-252q-20 0 -31.5 13.5t-7.5 33.5l119 674h-168l-119 -672q-5 -21 -20 -35t-35 -14z" />
    <glyph glyph-name="f_j" unicode="fj" horiz-adv-x="1128" 
d="M283 1014l20 110q35 194 150 287.5t282 93.5q83 0 165.5 -29.5t127.5 -82.5q28 -36 -10 -86l-109 -148q-15 -22 -33.5 -26.5t-30.5 1t-28 17.5q-42 31 -84 31q-29 0 -53.5 -21.5t-34.5 -70.5l-14 -76h471q19 0 31 -14.5t8 -34.5l-189 -1069q-35 -194 -149.5 -287.5
t-282.5 -93.5q-83 0 -165.5 29.5t-127.5 82.5q-28 36 11 86l108 148q15 22 33.5 26.5t30.5 -1t28 -17.5q42 -31 84 -31q29 0 53.5 21.5t34.5 70.5l142 791h-172l-119 -672q-5 -21 -20 -35t-35 -14h-252q-21 0 -33 14.5t-8 34.5l118 672h-122q-19 0 -30 14.5t-7 34.5l34 197
q5 20 20.5 33.5t35.5 13.5h121z" />
    <glyph glyph-name="f_k" unicode="fk" horiz-adv-x="1734" 
d="M580 721l-119 -672q-5 -21 -20 -35t-35 -14h-252q-21 0 -33 14.5t-8 34.5l118 672h-122q-19 0 -30 14.5t-7 34.5l34 197q4 20 19.5 33.5t34.5 13.5h123l18 102q15 88 51 152.5t84 99.5t98.5 50.5t106.5 15.5h90q77 0 64 -76l-33 -193q-9 -59 -66 -59h-14q-34 0 -43 -39
l-8 -53h170l65 372q4 20 20.5 34t35.5 14h254q19 0 29.5 -14t6.5 -34l-127 -722h56l252 313q30 37 73 37h267q38 0 47 -26.5t-17 -57.5l-342 -393l248 -449q18 -31 1.5 -59.5t-56.5 -28.5h-242q-29 0 -42.5 8.5t-24.5 32.5l-195 383h-68l-65 -377q-5 -21 -20 -34t-35 -13
h-252q-21 0 -33 13.5t-8 33.5l119 674h-168z" />
    <glyph glyph-name="f_t" unicode="ft" horiz-adv-x="1374" 
d="M963 -29q-60 0 -116 20.5t-101.5 61t-65 112.5t-2.5 165l70 391h-168l-119 -672q-5 -21 -20 -35t-35 -14h-252q-21 0 -33 14.5t-8 34.5l118 672h-122q-19 0 -30 14.5t-7 34.5l34 197q4 20 19.5 33.5t34.5 13.5h123l18 102q15 88 51 152.5t84 99.5t98.5 50.5t106.5 15.5
h90q77 0 64 -76l-33 -193q-9 -59 -66 -59h-14q-34 0 -43 -39l-8 -53h170l43 250q5 20 21 33.5t36 13.5h252q20 0 31.5 -13.5t7.5 -33.5l-45 -250h239q21 0 33 -13.5t8 -33.5l-34 -197q-5 -20 -21.5 -34.5t-36.5 -14.5h-239l-58 -324q-3 -35 -0.5 -54.5t16 -29t22 -12
t18.5 -2.5q8 0 14 0.5t14.5 3t12 4t17 7t19.5 8.5q30 11 46.5 1.5t29.5 -40.5l56 -131q20 -48 -35 -89q-141 -92 -305 -92z" />
    <glyph glyph-name=".notdef" horiz-adv-x="0" 
 />
    <glyph glyph-name=".null" horiz-adv-x="0" 
 />
    <glyph glyph-name="nonmarkingreturn" horiz-adv-x="682" 
 />
    <glyph glyph-name="CR" unicode="&#xd;" horiz-adv-x="0" 
 />
    <glyph glyph-name="space" unicode=" " horiz-adv-x="380" 
 />
    <glyph glyph-name="exclam" unicode="!" horiz-adv-x="602" 
d="M637 1384l-148 -833q-4 -23 -20 -37t-37 -14h-262q-21 0 -33 14t-8 37l147 833q5 21 21.5 35.5t36.5 14.5h262q20 0 32.5 -15t8.5 -35zM233 -31q-90 0 -147 63t-49 152t76 153t157 64t147.5 -64t51.5 -153q-8 -88 -77 -151.5t-159 -63.5z" />
    <glyph glyph-name="quotedbl" unicode="&#x22;" horiz-adv-x="956" 
d="M426 752h-244q-21 0 -33 14.5t-8 34.5l103 585q5 20 21 34t36 14h244q21 0 33 -14t8 -34l-103 -585q-5 -21 -21 -35t-36 -14zM864 752h-246q-19 0 -30.5 14.5t-7.5 34.5l102 585q5 20 20.5 34t34.5 14h246q20 0 31.5 -14t7.5 -34l-102 -585q-5 -21 -20.5 -35t-35.5 -14z
" />
    <glyph glyph-name="numbersign" unicode="#" horiz-adv-x="1292" 
d="M784 598l41 236h-239l-41 -236h239zM510 395l-61 -346q-5 -21 -20.5 -35t-35.5 -14h-114q-21 0 -33 14.5t-8 34.5l61 346h-207q-20 0 -31.5 14.5t-7.5 34.5l19 107q5 21 20 34t35 13h207l41 236h-205q-20 0 -31.5 14.5t-7.5 34.5l19 106q5 21 20 34t35 13h207l61 350
q5 20 21 34t36 14h115q20 0 31.5 -14t7.5 -34l-61 -350h239l62 350q5 20 21 34t36 14h115q20 0 31.5 -14t7.5 -34l-62 -350h203q21 0 33 -13.5t8 -33.5l-19 -106q-5 -21 -21 -35t-36 -14h-205l-41 -236h203q21 0 33 -13.5t8 -33.5l-18 -107q-5 -20 -21.5 -34.5t-36.5 -14.5
h-202l-62 -346q-5 -21 -20 -35t-35 -14h-115q-21 0 -33 14.5t-8 34.5l62 346h-240z" />
    <glyph glyph-name="dollar" unicode="$" horiz-adv-x="1316" 
d="M641 944l25 -8l34 209q-70 -6 -106.5 -37t-36.5 -72q0 -63 84 -92zM846 412q0 33 -26 58t-79 50l-41 -229q78 10 112 44.5t34 76.5zM643 -31l-25 -139q-3 -29 -36 -29h-90q-26 0 -23 29l27 152q-153 23 -265.5 86t-175.5 143q-59 77 27 154l106 98q27 26 54 28t47 -10
t45 -37q111 -111 219 -141l47 266l-129 43q-136 46 -222.5 145.5t-86.5 225.5q0 95 36 180t105 153t183 108t259 40h13l18 103q3 28 33 28h92q28 0 25 -28l-21 -117q138 -27 240.5 -86.5t148.5 -120.5q23 -23 30.5 -44.5t-0.5 -39t-16.5 -28t-23.5 -23.5l-133 -109
q-23 -19 -46 -19.5t-38.5 9t-36.5 29.5q-80 74 -182 106l-43 -237l80 -29q358 -124 358 -412q0 -62 -18.5 -125t-63 -127t-110 -113.5t-169 -80.5t-229.5 -31h-10z" />
    <glyph glyph-name="percent" unicode="%" horiz-adv-x="1431" 
d="M156 1004q0 86 20.5 164t60.5 141.5t106 101t149 37.5q121 0 190.5 -84.5t69.5 -216.5q0 -86 -20.5 -164t-60.5 -141.5t-106 -101.5t-149 -38q-121 0 -190.5 85t-69.5 217zM1407 1360l-1151 -1321q-16 -21 -31.5 -30t-44.5 -9h-47q-36 0 -43.5 24.5t14.5 49.5l1151 1321
q16 21 31.5 30t44.5 9h47q37 0 45 -24.5t-16 -49.5zM342 989q0 -129 86 -129q57 0 97 79.5t40 221.5q0 129 -86 129q-57 0 -97 -79.5t-40 -221.5zM756 281q0 86 20.5 164t60.5 141.5t106 101t149 37.5q121 0 190.5 -84.5t69.5 -216.5q0 -86 -20.5 -164t-60.5 -141.5
t-106 -101t-149 -37.5q-121 0 -190.5 84.5t-69.5 216.5zM942 266q0 -129 86 -129q57 0 97 79.5t40 221.5q0 129 -86 129q-57 0 -97 -79.5t-40 -221.5z" />
    <glyph glyph-name="ampersand" unicode="&#x26;" horiz-adv-x="1484" 
d="M641 1110q0 -56 59 -127l37 21q94 51 94 124q0 36 -26 60t-62 24q-44 0 -73 -28t-29 -74zM580 272q100 0 192 70l-219 279l-53 -39q-99 -73 -99 -160q0 -65 48 -107.5t131 -42.5zM1014 31l-64 82q-121 -88 -227.5 -116t-218.5 -28q-131 0 -238.5 50.5t-171 145.5
t-63.5 216q0 260 254 403l100 58q-76 129 -76 243q0 65 25 129.5t73.5 121.5t134 92.5t193.5 35.5q91 0 166.5 -27.5t124.5 -73.5t75.5 -105t26.5 -123q0 -212 -229 -336l-37 -21l129 -166q33 58 74 187q6 21 19.5 31t41.5 10h250q20 0 31.5 -11.5t11.5 -29.5
q0 -41 -65.5 -182t-155.5 -269l217 -276q20 -25 8.5 -48.5t-41.5 -23.5h-301q-30 0 -42 6t-25 25z" />
    <glyph glyph-name="quotesingle" unicode="'" horiz-adv-x="563" 
d="M168 852l135 188q-56 30 -89.5 82.5t-33.5 114.5q0 93 66.5 160t163.5 67t166 -68t69 -175q0 -72 -30.5 -146.5t-78 -135t-94 -106t-90.5 -75.5q-81 -57 -137 -17l-33 23q-28 19 -30.5 44t16.5 44z" />
    <glyph glyph-name="parenleft" unicode="(" horiz-adv-x="610" 
d="M225 -199q-65 89 -115.5 269.5t-50.5 390.5q0 155 41 317t106.5 295.5t136 238.5t140.5 177q44 47 101 47h80q102 0 51 -104q-75 -151 -123 -261.5t-94 -251t-68 -289.5t-22 -315q0 -207 45 -448q18 -113 -70 -113h-74q-32 0 -49.5 12t-34.5 35z" />
    <glyph glyph-name="parenright" unicode=")" horiz-adv-x="608" 
d="M436 1489q66 -88 116 -267.5t50 -392.5q0 -155 -41 -317t-106.5 -295.5t-136 -238.5t-140.5 -177q-44 -47 -100 -47h-80q-103 0 -51 105q76 151 123.5 261t93.5 251t68 289.5t22 314.5q0 207 -45 448q-18 113 70 113h73q32 0 49.5 -12t34.5 -35z" />
    <glyph glyph-name="asterisk" unicode="*" horiz-adv-x="1130" 
d="M684 522q-11 -48 -49.5 -75t-85.5 -17q-47 7 -75.5 46.5t-20.5 86.5q4 17 32 84.5t60.5 145.5t40.5 98q-14 -8 -93 -55t-142 -82t-81 -39q-45 -14 -86.5 6.5t-58.5 66.5q-11 47 9 89t67 59q22 8 172.5 18.5t183.5 18.5q-29 20 -166 81.5t-155 75.5q-40 34 -44.5 80
t23.5 86q31 38 77 43.5t83 -24.5q17 -15 115.5 -133.5t121.5 -141.5q0 25 -4.5 108.5t-7.5 157t0 89.5q7 47 47 74.5t88 19.5q49 -11 76.5 -49t17.5 -86q-4 -24 -53.5 -143.5t-79.5 -184.5q12 7 92.5 54.5t143.5 82.5t82 39q45 14 85.5 -6.5t57.5 -67.5q11 -47 -8 -89
t-68 -58q-23 -8 -172 -18.5t-182 -18.5q31 -20 167.5 -82.5t154.5 -75.5q39 -34 43 -79.5t-23 -85.5q-32 -38 -78.5 -43t-83.5 24q-17 14 -115.5 133t-121.5 142q0 -24 8.5 -178t5.5 -177z" />
    <glyph glyph-name="plus" unicode="+" horiz-adv-x="1253" 
d="M639 1307h260q23 0 34.5 -14.5t6.5 -37.5l-63 -364h337q23 0 34.5 -14t6.5 -37l-43 -246q-5 -23 -20.5 -37t-38.5 -14h-338l-65 -367q-5 -23 -21 -37t-39 -14h-260q-23 0 -34.5 14t-6.5 37l64 367h-336q-23 0 -34.5 14t-6.5 37l43 246q5 23 20.5 37t38.5 14h336l66 364
q5 24 20.5 38t38.5 14z" />
    <glyph glyph-name="comma" unicode="," horiz-adv-x="550" 
d="M-33 -180l144 178q-51 26 -79 78t-22 112q8 91 73.5 152t158.5 61t154.5 -67t54.5 -170q-6 -67 -40.5 -137.5t-84 -127t-99 -99.5t-94.5 -70q-80 -53 -131 -17l-29 23q-47 36 -6 84z" />
    <glyph glyph-name="hyphen" unicode="-" horiz-adv-x="794" 
d="M647 440h-522q-23 0 -34.5 14.5t-6.5 37.5l47 266q5 23 20.5 37t38.5 14h523q21 0 33 -14t8 -37l-47 -266q-5 -23 -21 -37.5t-39 -14.5z" />
    <glyph glyph-name="period" unicode="." horiz-adv-x="532" 
d="M205 -31q-90 0 -147.5 63.5t-49.5 151.5q8 89 76.5 153t157.5 64t147.5 -64t50.5 -153q-8 -88 -76.5 -151.5t-158.5 -63.5z" />
    <glyph glyph-name="slash" unicode="/" horiz-adv-x="1017" 
d="M162 0h-146q-36 0 -42 24.5t14 49.5l878 1325q17 23 28 29t34 6h145q35 0 42 -21.5t-13 -50.5l-871 -1323q-8 -14 -14.5 -21t-20.5 -12.5t-34 -5.5z" />
    <glyph glyph-name="zero" unicode="0" horiz-adv-x="1282" 
d="M762 1464q124 0 222 -44.5t159 -123t93 -183t32 -228.5q0 -107 -17 -213.5t-51 -210t-90 -192t-128 -156t-170.5 -106t-213.5 -38.5q-166 0 -282 78t-170 206.5t-54 295.5q0 92 12 183t38 182t64 171.5t93 150.5t122 120.5t154.5 79t186.5 28.5zM741 1157
q-65 0 -119.5 -59t-89.5 -153t-54 -205.5t-19 -221.5q0 -242 159 -242q65 0 120 59t89.5 153t54 205.5t19.5 221.5q0 242 -160 242z" />
    <glyph glyph-name="one" unicode="1" horiz-adv-x="714" 
d="M115 1008l32 194q12 58 64 58h27q120 0 213 129q31 45 84 45h165q23 0 34.5 -14.5t6.5 -35.5l-235 -1333q-4 -23 -21.5 -37t-38.5 -14h-262q-21 0 -33 14t-8 37l160 905h-147q-23 0 -34.5 14.5t-6.5 37.5z" />
    <glyph glyph-name="two" unicode="2" horiz-adv-x="1200" 
d="M1006 0h-955q-21 0 -33 14.5t-8 34.5l33 180q11 60 57 93l428 323q177 136 221 178q81 78 90 149q1 10 1 21q0 67 -48 106.5t-118 39.5q-45 0 -81.5 -15t-63.5 -43.5t-41 -48.5t-31 -51q-40 -82 -121 -51l-166 61q-53 21 -37 82q26 77 74 145.5t117.5 124.5t167.5 88.5
t210 32.5q138 0 252 -49.5t185 -148.5t71 -230q0 -76 -25 -146.5t-62 -125t-101.5 -115.5t-120 -104t-141.5 -103l-182 -129h483q23 0 34.5 -14t6.5 -35l-39 -215q-5 -21 -20 -35t-37 -14z" />
    <glyph glyph-name="three" unicode="3" horiz-adv-x="1204" 
d="M553 -31q-253 0 -399 140.5t-121 345.5l4 34q4 24 22.5 37t42.5 13h238q52 0 43 -45l-4 -21q-18 -81 37.5 -142t154.5 -61q94 0 146.5 54t52.5 131q0 73 -56 121.5t-171 48.5h-66q-49 0 -41 51l21 137q6 40 43 74l256 219h-516q-21 0 -34 14.5t-9 36.5l41 225
q5 23 21.5 37.5t39.5 14.5h872q23 0 34.5 -14.5t6.5 -37.5l-22 -192q-6 -45 -16.5 -67.5t-30.5 -41.5l-285 -250q127 -40 204 -131t77 -237q0 -95 -40 -183.5t-113 -158t-185.5 -111t-247.5 -41.5z" />
    <glyph glyph-name="four" unicode="4" horiz-adv-x="1228" 
d="M629 352h-578q-21 0 -33 14t-8 37l35 197q5 31 8.5 46.5t15 40t29.5 46.5l588 660q38 41 78 41h358q23 0 35.5 -14.5t7.5 -35.5l-129 -741h140q21 0 31.5 -14t6.5 -37l-32 -189q-4 -23 -20.5 -37t-37.5 -14h-139l-53 -301q-4 -23 -22 -37t-42 -14h-254q-23 0 -33.5 14
t-5.5 37zM369 643h311l76 436z" />
    <glyph glyph-name="five" unicode="5" 
d="M561 -23q-179 0 -332 77t-223 204q-22 45 39 88l158 113q57 40 106 -21q112 -141 260 -141q99 0 162.5 52.5t63.5 139.5q0 84 -61 128.5t-138 44.5q-92 0 -172 -50q-28 -17 -53 -6l-209 70q-40 15 -31 51l156 655q5 23 21.5 37.5t39.5 14.5h838q24 0 37.5 -13t9.5 -35
l-41 -229q-5 -23 -20.5 -37t-38.5 -14h-611l-53 -209q99 51 229 51q196 0 330.5 -120.5t134.5 -313.5q0 -107 -41.5 -204t-117.5 -171t-191 -118t-252 -44z" />
    <glyph glyph-name="six" unicode="6" horiz-adv-x="1253" 
d="M639 -31q-251 0 -413.5 152t-162.5 383q0 70 14.5 139.5t36.5 128.5t61 122t73.5 110.5t88.5 103.5t92 92.5t99 87t94 76.5t91 70q20 17 37 21t43 -1l276 -27q37 -4 42.5 -37.5t-24.5 -56.5l-509 -418q90 41 186 41q125 0 230.5 -54t170 -157t64.5 -233
q0 -111 -45.5 -211t-123.5 -173t-188 -116t-233 -43zM657 692q-91 0 -155 -63t-64 -154q0 -88 59 -141t142 -53q91 0 155 63t64 154q0 88 -59 141t-142 53z" />
    <glyph glyph-name="seven" unicode="7" horiz-adv-x="1138" 
d="M1257 1382l-22 -131q-2 -10 -4.5 -19t-5 -17.5t-4.5 -14.5t-5.5 -13.5t-5 -11t-5.5 -11t-5 -9.5t-6 -10t-6 -10l-676 -1096q-14 -21 -28 -30t-44 -9h-309q-35 0 -41.5 25t12.5 51l680 1030h-600q-21 0 -34 14.5t-9 36.5l41 225q5 23 22 37.5t40 14.5h975q23 0 34 -14.5
t6 -37.5z" />
    <glyph glyph-name="eight" unicode="8" horiz-adv-x="1302" 
d="M629 -31q-134 0 -245.5 35t-185 95.5t-113.5 140.5t-40 170q0 82 30 152t78 115.5t98.5 74.5t100.5 43q-64 39 -104.5 107.5t-40.5 156.5q0 179 154.5 292t394.5 113q228 0 376 -112t148 -281q0 -118 -67 -204.5t-162 -121.5q79 -41 130.5 -122.5t51.5 -190.5
q0 -92 -40.5 -175t-115.5 -147.5t-191 -102.5t-257 -38zM743 899q80 0 134.5 41t54.5 104q0 64 -52.5 102t-127.5 38q-80 0 -134.5 -41.5t-54.5 -104.5q0 -64 52.5 -101.5t127.5 -37.5zM645 625q-97 0 -161 -52.5t-64 -130.5q0 -77 63 -125.5t148 -48.5q96 0 160.5 53.5
t64.5 131.5q0 77 -62.5 124.5t-148.5 47.5z" />
    <glyph glyph-name="nine" unicode="9" horiz-adv-x="1253" 
d="M537 -20l-277 26q-37 4 -42.5 37.5t24.5 56.5l510 418q-90 -41 -187 -41q-125 0 -231 54.5t-170 157.5t-64 233q0 148 77 272t213 197t300 73q251 0 413.5 -151.5t162.5 -382.5q0 -70 -14.5 -139.5t-36.5 -128.5t-61 -122t-73.5 -110.5t-88.5 -103.5t-92 -92.5t-99 -87
t-94 -76.5t-91 -70q-20 -17 -36.5 -21t-42.5 1zM672 741q91 0 155 63t64 154q0 88 -59 141.5t-142 53.5q-91 0 -155 -63t-64 -154q0 -88 59 -141.5t142 -53.5z" />
    <glyph glyph-name="colon" unicode=":" horiz-adv-x="569" 
d="M322 582q-90 0 -147.5 62.5t-49.5 152.5q8 89 76 153t157 64t147.5 -64t51.5 -153q-8 -89 -76 -152t-159 -63zM207 -31q-90 0 -147.5 63.5t-49.5 151.5q8 89 76.5 153t157.5 64t147.5 -64t50.5 -153q-8 -88 -76.5 -151.5t-158.5 -63.5z" />
    <glyph glyph-name="semicolon" unicode=";" horiz-adv-x="579" 
d="M313 582q-90 0 -147 62.5t-49 152.5q8 89 76 153t157 64t147.5 -64t51.5 -153q-8 -89 -76.5 -152t-159.5 -63zM-25 -180l144 178q-51 26 -79 79t-22 113q8 91 74 151t160 60q92 0 153 -66.5t54 -168.5q-6 -68 -40.5 -139t-84.5 -127.5t-99 -99.5t-94 -70
q-80 -53 -131 -17l-28 23q-48 36 -7 84z" />
    <glyph glyph-name="less" unicode="&#x3c;" horiz-adv-x="1228" 
d="M1098 387l-47 -252q-10 -45 -45 -58t-64 9l-811 481q-61 34 -43 140q21 105 90 139l983 481q37 22 68.5 9.5t21.5 -58.5l-49 -293q-4 -28 -24.5 -45t-57.5 -33l-483 -221l405 -221q32 -17 46.5 -33.5t9.5 -44.5z" />
    <glyph glyph-name="equal" unicode="=" horiz-adv-x="1390" 
d="M1268 799h-1039q-23 0 -34.5 14t-6.5 37l43 246q5 23 21 37t39 14h1038q21 0 33 -14t8 -37l-43 -246q-4 -23 -21 -37t-38 -14zM1178 287h-1039q-23 0 -34.5 14t-6.5 37l43 246q5 23 21 37t39 14h1038q21 0 33 -14t8 -37l-43 -246q-4 -23 -21 -37t-38 -14z" />
    <glyph glyph-name="greater" unicode="&#x3e;" horiz-adv-x="1224" 
d="M49 135l47 293q4 28 24.5 44.5t57.5 33.5l486 221l-408 221q-31 17 -45.5 33.5t-9.5 44.5l49 252q10 45 43.5 58t62.5 -9l815 -481q56 -34 39 -139q-18 -104 -90 -140l-983 -481q-36 -22 -65 -9t-23 58z" />
    <glyph glyph-name="question" unicode="?" horiz-adv-x="1083" 
d="M664 1464q112 0 200.5 -32.5t141 -86t79.5 -118t27 -133.5q0 -67 -24.5 -129.5t-62 -108.5t-82 -91t-83.5 -78t-68 -67.5t-34 -62.5l-2 -12q-8 -45 -60 -45h-258q-21 0 -33 14t-8 37l11 57q9 48 44.5 100.5t79 97t86 87t71 83.5t28.5 73q0 35 -25.5 62.5t-79.5 27.5
q-36 0 -71 -15.5t-55 -31.5t-62 -52q-63 -50 -115 -8l-116 107q-58 58 26 149q70 70 182 123t263 53zM494 -25q-90 0 -147.5 63.5t-49.5 151.5q8 90 76 154t157 64t148 -64.5t51 -153.5q-8 -88 -76.5 -151.5t-158.5 -63.5z" />
    <glyph glyph-name="at" unicode="@" horiz-adv-x="2095" 
d="M1479 -158l86 -118q10 -14 8.5 -28t-12.5 -22q-96 -63 -235 -102t-308 -39q-208 0 -386.5 71t-301 193t-191.5 289t-69 356q0 235 85.5 439t230 344t339 219.5t408.5 79.5q144 0 278 -35.5t248.5 -107.5t200 -172t134 -237.5t48.5 -295.5q0 -192 -62 -345t-180.5 -242
t-273.5 -89q-89 0 -153.5 33.5t-96.5 89.5q-116 -127 -299 -127q-171 0 -297.5 129t-126.5 317q0 126 42 234t111.5 180t158.5 113t184 41q183 0 284 -117l4 25q4 22 19 34.5t35 12.5h206q23 0 36.5 -15.5t8.5 -34.5l-92 -546q-18 -103 52 -103q29 0 59.5 22.5t60 69.5
t48 135t18.5 203q0 136 -54 248.5t-145 185t-207.5 111.5t-244.5 39q-164 0 -309 -61.5t-249.5 -168.5t-165.5 -260t-61 -329q0 -142 53 -269.5t143.5 -219.5t217.5 -145.5t270 -53.5q210 0 373 80q6 4 16.5 7t27 -0.5t26.5 -17.5zM1053 285q90 0 151.5 73.5t61.5 169.5
q0 87 -45.5 141t-128.5 54q-90 0 -151.5 -73.5t-61.5 -170.5q0 -86 47 -140t127 -54z" />
    <glyph glyph-name="A" unicode="A" horiz-adv-x="1400" 
d="M870 608l-69 514l-230 -514h299zM434 301l-115 -256q-18 -45 -57 -45h-287q-31 0 -42 23t6 61l630 1298q24 52 70 52h430q45 0 53 -52l203 -1298q7 -40 -11 -62t-50 -22h-273q-39 0 -45 45l-37 256h-475z" />
    <glyph glyph-name="B" unicode="B" horiz-adv-x="1374" 
d="M807 0h-746q-22 0 -34.5 13t-8.5 36l236 1335q5 22 20 36t39 14h617q99 0 178 -21t128 -55t81.5 -80t45.5 -92t13 -96q0 -26 -4.5 -56.5t-19.5 -72t-39 -77.5t-67.5 -69.5t-100.5 -52.5q95 -53 138.5 -134t43.5 -169q0 -55 -17.5 -114.5t-57.5 -122t-98.5 -111.5
t-148.5 -80t-198 -31zM573 1149l-49 -275h295q48 0 84.5 14t56.5 37t29.5 47.5t9.5 49.5q0 52 -37 89.5t-110 37.5h-279zM422 285h340q89 0 137.5 54.5t48.5 123.5q0 62 -45 102.5t-121 40.5h-305z" />
    <glyph glyph-name="C" unicode="C" horiz-adv-x="1474" 
d="M451 674q0 -173 103.5 -278t258.5 -105q108 0 185 50.5t139 141.5l3 6q4 6 5.5 8.5t6.5 7t10 6t13 0.5t17 -5l240 -115q8 -4 13.5 -8t7.5 -8.5t3.5 -7.5t-0.5 -8.5t-2.5 -7.5t-4 -8t-3.5 -7q-96 -178 -267.5 -274.5t-383.5 -96.5q-157 0 -291.5 54.5t-227 149t-144.5 223
t-52 274.5q0 163 60 310.5t162 254t244 169t300 62.5q262 0 449 -137t237 -364q0 -1 0.5 -7t0.5 -9.5t-2 -10t-5 -11t-10 -8.5t-17 -6l-246 -49q-45 -9 -57 31q-90 246 -330 246q-117 0 -212.5 -62.5t-149 -168.5t-53.5 -232z" />
    <glyph glyph-name="D" unicode="D" horiz-adv-x="1501" 
d="M313 1434h500q305 0 496.5 -179t191.5 -462q0 -176 -66.5 -326t-179.5 -251.5t-263 -158.5t-316 -57h-615q-23 0 -35.5 15t-7.5 36l236 1333q5 21 21 35.5t38 14.5zM430 338h240q138 0 242 63.5t155 161.5t51 211q0 138 -88.5 230t-247.5 92h-219z" />
    <glyph glyph-name="E" unicode="E" horiz-adv-x="1294" 
d="M313 1434h1037q21 0 33 -14.5t8 -37.5l-43 -235q-4 -23 -20.5 -37t-37.5 -14h-725l-39 -215h381q23 0 35 -14.5t8 -37.5l-41 -225q-5 -23 -20.5 -37t-38.5 -14h-381l-37 -215h744q23 0 34.5 -14t6.5 -37l-41 -236q-5 -23 -21 -37t-39 -14h-1055q-23 0 -35 14t-8 37
l236 1333q5 21 21 35.5t38 14.5z" />
    <glyph glyph-name="F" unicode="F" horiz-adv-x="1243" 
d="M1073 737l-39 -225q-5 -23 -20.5 -37t-38.5 -14h-522l-74 -410q-10 -51 -57 -51h-261q-23 0 -35 14t-8 37l236 1333q5 21 21 35.5t38 14.5h1006q21 0 33 -14.5t8 -37.5l-41 -235q-4 -23 -21 -37t-38 -14h-697l-53 -308h522q23 0 34.5 -14t6.5 -37z" />
    <glyph glyph-name="G" unicode="G" horiz-adv-x="1587" 
d="M1108 63l12 62q-169 -156 -403 -156q-135 0 -254 52.5t-203.5 142.5t-133 215.5t-48.5 267.5q0 131 37.5 254t109 224t167.5 177.5t220 119t260 42.5q245 0 420.5 -108t249.5 -312q16 -38 -26 -53l-240 -90q-13 -2 -20 -3.5t-13 4t-8.5 8.5t-5.5 10t-4 8
q-52 100 -132.5 155.5t-205.5 55.5q-127 0 -227.5 -66.5t-153.5 -173.5t-53 -231q0 -169 96.5 -274t265.5 -105q220 0 365 184h-349q-23 0 -35 14t-8 37l35 193q5 23 21 37t39 14h628q23 0 35 -14t8 -37l-116 -666q-4 -23 -21.5 -37t-40.5 -14h-219q-60 0 -49 63z" />
    <glyph glyph-name="H" unicode="H" horiz-adv-x="1488" 
d="M1546 1384l-233 -1333q-4 -23 -21.5 -37t-38.5 -14h-262q-21 0 -33 14t-8 37l88 502h-569l-88 -502q-5 -23 -20.5 -37t-38.5 -14h-261q-23 0 -35 14t-8 37l236 1333q5 21 21 35.5t38 14.5h260q23 0 35.5 -14.5t7.5 -35.5l-90 -503h572l88 503q5 21 21 35.5t38 14.5h260
q23 0 34.5 -14.5t6.5 -35.5z" />
    <glyph glyph-name="I" unicode="I" horiz-adv-x="557" 
d="M322 0h-261q-23 0 -35 14t-8 37l236 1333q5 21 21 35.5t38 14.5h260q23 0 34.5 -14.5t6.5 -35.5l-235 -1333q-10 -51 -57 -51z" />
    <glyph glyph-name="J" unicode="J" horiz-adv-x="1212" 
d="M1284 1384l-164 -923q-43 -244 -199 -368t-389 -124q-86 0 -166 21t-149 65.5t-116.5 107.5t-67 153t-2.5 196l12 74q5 21 21 35t38 14h252q20 0 31.5 -14.5t7.5 -34.5l-16 -92q-17 -91 31.5 -145t142.5 -54q97 0 148.5 58.5t64.5 150.5l158 880q5 21 21 35.5t38 14.5
h260q23 0 35.5 -14.5t7.5 -35.5z" />
    <glyph glyph-name="K" unicode="K" horiz-adv-x="1363" 
d="M469 553l-90 -502q-10 -51 -57 -51h-261q-23 0 -35 14t-8 37l236 1333q5 21 21 35.5t38 14.5h260q23 0 34.5 -14.5t6.5 -35.5l-88 -503h131l406 508q24 27 44 36t56 9h291q32 0 40 -20.5t-13 -45.5l-537 -631l369 -669q15 -29 2 -48.5t-39 -19.5h-279q-33 0 -48.5 7.5
t-28.5 33.5l-273 512h-178z" />
    <glyph glyph-name="L" unicode="L" horiz-adv-x="1157" 
d="M1108 287l-43 -236q-5 -23 -20.5 -37t-38.5 -14h-945q-23 0 -35.5 14.5t-7.5 34.5l236 1333q5 24 20.5 38t38.5 14h260q23 0 34.5 -14.5t6.5 -37.5l-184 -1044h635q23 0 35 -14t8 -37z" />
    <glyph glyph-name="M" unicode="M" horiz-adv-x="1763" 
d="M784 1389l140 -590l348 590q16 27 34.5 36t45.5 9h426q23 0 35.5 -14.5t7.5 -35.5l-236 -1335q-9 -49 -57 -49h-260q-23 0 -34 13t-7 36l162 914l-363 -596q-18 -31 -34.5 -40.5t-43.5 -9.5h-196q-28 0 -41.5 9.5t-20.5 40.5l-153 596l-160 -914q-9 -49 -58 -49h-260
q-23 0 -34 13t-7 36l236 1335q5 21 21 35.5t38 14.5h410q52 0 61 -45z" />
    <glyph glyph-name="N" unicode="N" horiz-adv-x="1468" 
d="M874 51l-346 862l-149 -864q-9 -49 -55 -49h-263q-24 0 -35.5 13t-7.5 36l236 1335q5 21 21 35.5t38 14.5h320q46 0 61 -41l326 -838l145 829q5 21 21.5 35.5t36.5 14.5h262q20 0 32.5 -15t8.5 -35l-236 -1335q-4 -23 -20 -36t-37 -13h-262q-77 0 -97 51z" />
    <glyph glyph-name="O" unicode="O" horiz-adv-x="1581" 
d="M856 1464q162 0 298 -56t227.5 -152.5t142.5 -226t51 -275.5q0 -214 -98 -393t-276.5 -285.5t-399.5 -106.5q-162 0 -298 56t-227.5 152.5t-142.5 226.5t-51 276q0 160 58 304t158.5 249.5t246 168t311.5 62.5zM850 1139q-167 0 -283 -134t-116 -325q0 -174 102 -279.5
t254 -105.5q168 0 283.5 134t115.5 325q0 174 -102 279.5t-254 105.5z" />
    <glyph glyph-name="P" unicode="P" horiz-adv-x="1267" 
d="M745 457h-286l-72 -408q-4 -23 -20 -36t-37 -13h-269q-23 0 -35.5 14.5t-7.5 34.5l236 1335q5 21 21 35.5t38 14.5h518q119 0 214 -35.5t154.5 -97t90.5 -140.5t31 -170q0 -108 -38.5 -204.5t-110 -170t-182 -116.5t-245.5 -43zM516 778h215q98 1 151.5 54.5t53.5 132.5
q0 65 -45 106t-115 41h-201z" />
    <glyph glyph-name="Q" unicode="Q" horiz-adv-x="1581" 
d="M807 295q81 0 156 35l-203 180q-16 15 -15 34.5t15 37.5l127 143q13 17 35 17.5t39 -13.5l202 -182q43 90 43 207q0 174 -102 279.5t-254 105.5q-167 0 -283 -134t-116 -325q0 -174 102 -279.5t254 -105.5zM1348 -8l-117 102q-189 -125 -430 -125q-162 0 -298 56
t-227.5 152.5t-142.5 226.5t-51 276q0 160 58 304t158.5 249.5t246 168t311.5 62.5q162 0 298 -56t227.5 -152.5t142.5 -226t51 -275.5q0 -251 -137 -455l110 -98q36 -36 0 -72l-127 -137q-37 -36 -73 0z" />
    <glyph glyph-name="R" unicode="R" horiz-adv-x="1374" 
d="M512 801h274q94 0 147.5 48t53.5 124q0 64 -41.5 101.5t-105.5 37.5h-273zM461 506l-80 -455q-10 -51 -57 -51h-263q-23 0 -35.5 14.5t-7.5 34.5l236 1335q5 20 20 35t39 15h600q209 0 333 -116.5t124 -293.5q0 -47 -8.5 -94t-33 -103t-63.5 -104t-105 -92t-152 -70
l274 -489q13 -25 -2 -48.5t-49 -23.5h-262q-33 0 -46 10t-32 43l-242 453h-188z" />
    <glyph glyph-name="S" unicode="S" horiz-adv-x="1280" 
d="M731 1464q105 0 199 -22t161.5 -57t113.5 -70.5t75 -71.5q23 -23 30.5 -44.5t-0.5 -39t-16.5 -28t-23.5 -23.5l-133 -109q-23 -19 -46 -19.5t-38.5 9t-36.5 29.5q-60 55 -140.5 91t-162.5 36q-83 0 -126.5 -32t-43.5 -77q0 -63 84 -92l243 -86q359 -125 359 -412
q0 -62 -18.5 -125t-63 -127t-110 -113.5t-169 -80.5t-229.5 -31q-209 0 -363 70.5t-235 171.5q-59 77 27 154l106 98q27 26 54 28t46.5 -10t44.5 -37q72 -73 147.5 -114t176.5 -41q102 0 145 36.5t43 86.5q0 41 -39.5 71t-121.5 58l-213 71q-136 46 -223 145.5t-87 225.5
q0 95 36 180t105.5 153t183.5 108t259 40z" />
    <glyph glyph-name="T" unicode="T" horiz-adv-x="1253" 
d="M135 1147l41 235q4 23 20.5 37.5t36.5 14.5h1108q23 0 35 -14.5t8 -37.5l-41 -235q-4 -23 -21 -37t-40 -14h-367l-184 -1045q-5 -23 -20.5 -37t-38.5 -14h-273q-23 0 -34.5 14t-6.5 37l185 1045h-369q-21 0 -32 14t-7 37z" />
    <glyph glyph-name="U" unicode="U" horiz-adv-x="1409" 
d="M1481 1384l-152 -858q-26 -147 -89 -255.5t-155.5 -174t-203.5 -96.5t-244 -31q-93 0 -180 21.5t-163 66.5t-128.5 109.5t-74.5 157.5t-3 202l152 858q5 21 21 35.5t38 14.5h262q23 0 35.5 -14.5t7.5 -35.5l-145 -827q-20 -114 37.5 -182t177.5 -68q123 0 195.5 66.5
t93.5 183.5l145 827q5 21 21 35.5t38 14.5h271q23 0 35.5 -14.5t7.5 -35.5z" />
    <glyph glyph-name="V" unicode="V" horiz-adv-x="1378" 
d="M793 0h-385q-46 0 -54 51l-198 1299q-6 40 11 62t48 22h295q39 0 45 -45l115 -988h4l444 988q25 45 58 45h315q31 0 40.5 -20.5t-11.5 -61.5l-656 -1301q-24 -51 -71 -51z" />
    <glyph glyph-name="W" unicode="W" horiz-adv-x="2019" 
d="M1061 827l-289 -776q-10 -27 -30.5 -39t-41.5 -12h-395q-18 0 -35 12.5t-18 38.5l-90 1299q-4 40 16.5 62t52.5 22h281q19 0 31 -15t12 -35l35 -960l364 965q10 19 13.5 25t14.5 13t28 7h311q20 0 32.5 -13t12.5 -32l64 -955l337 950q6 20 23.5 35t36.5 15h274
q75 0 41 -84l-520 -1299q-6 -18 -23 -30.5t-29.5 -16.5t-17.5 -4h-393q-47 0 -55 51z" />
    <glyph glyph-name="X" unicode="X" horiz-adv-x="1345" 
d="M676 442l-307 -401q-32 -41 -78 -41h-332q-26 0 -36.5 13t-6.5 31t18 34l529 651l-279 627q-13 29 4 53.5t48 24.5h290q28 0 39.5 -9t20.5 -30l164 -396l297 396q14 20 28 29.5t41 9.5h318q37 0 44 -25t-18 -51l-493 -625l295 -657q13 -28 -3 -52t-53 -24h-293
q-18 0 -30 7t-16 14t-11 22z" />
    <glyph glyph-name="Y" unicode="Y" horiz-adv-x="1349" 
d="M719 0h-262q-23 0 -35 14t-8 37l82 461l-328 838q-12 30 4.5 57t46.5 27h299q36 0 51 -37l168 -479h4l322 479q21 37 61 37h332q33 0 42.5 -23.5t-17.5 -60.5l-623 -838l-82 -461q-4 -23 -20 -37t-37 -14z" />
    <glyph glyph-name="Z" unicode="Z" horiz-adv-x="1245" 
d="M1077 0h-1081q-23 0 -34.5 14t-6.5 37l33 176q6 33 39 70l772 813h-570q-23 0 -35.5 14.5t-7.5 34.5l39 223q5 21 21.5 36.5t38.5 15.5h995q20 0 32 -16t7 -36l-37 -211q-6 -31 -27 -55l-743 -792h623q21 0 33 -13.5t8 -36.5l-41 -223q-4 -23 -20.5 -37t-37.5 -14z" />
    <glyph glyph-name="bracketleft" unicode="[" horiz-adv-x="745" 
d="M895 1487l-29 -160q-5 -20 -21 -33.5t-36 -13.5h-213l-217 -1235h213q21 0 33 -13.5t8 -33.5l-29 -160q-5 -21 -21 -35t-36 -14h-498q-21 0 -34 13.5t-9 33.5l291 1653q4 20 21.5 33.5t37.5 13.5h498q21 0 33 -14.5t8 -34.5z" />
    <glyph glyph-name="backslash" unicode="\" horiz-adv-x="1228" 
d="M453 1399l645 -1325q15 -25 5 -49.5t-46 -24.5h-146q-29 0 -41.5 9.5t-21.5 29.5l-637 1323q-15 29 -4.5 50.5t45.5 21.5h145q24 0 35 -6.5t21 -28.5z" />
    <glyph glyph-name="bracketright" unicode="]" horiz-adv-x="745" 
d="M-92 -162l29 160q5 20 21 33.5t36 13.5h213l217 1235h-213q-21 0 -33 13.5t-8 33.5l29 160q5 21 21 35t36 14h498q21 0 34 -13.5t9 -33.5l-291 -1653q-4 -20 -21.5 -33.5t-38.5 -13.5h-497q-21 0 -33 14.5t-8 34.5z" />
    <glyph glyph-name="asciicircum" unicode="^" horiz-adv-x="1284" 
d="M393 420h-289q-38 0 -47.5 22.5t11.5 57.5l518 884q26 50 69 50h299q43 0 54 -50l206 -884q8 -36 -8 -58t-53 -22h-260q-17 0 -28.5 4t-18 12t-9.5 15t-6 18l-94 500l-266 -500q-9 -15 -16 -23.5t-23.5 -17t-38.5 -8.5z" />
    <glyph glyph-name="underscore" unicode="_" horiz-adv-x="743" 
d="M522 -410h-622q-21 0 -33 14.5t-8 37.5l41 225q4 23 20 37t37 14h623q23 0 35 -14t8 -37l-41 -225q-5 -23 -21 -37.5t-39 -14.5z" />
    <glyph glyph-name="grave" unicode="`" horiz-adv-x="624" 
d="M207 1554h311q48 0 57 -41l72 -331q15 -76 -63 -76h-166q-39 0 -60 35l-200 334q-19 26 -5 52.5t54 26.5z" />
    <glyph glyph-name="a" unicode="a" 
d="M578 274q96 0 159.5 74.5t63.5 175.5q0 88 -52.5 146.5t-138.5 58.5q-96 0 -159.5 -74.5t-63.5 -175.5q0 -88 52.5 -146.5t138.5 -58.5zM37 444q0 133 45 247.5t119 190.5t168.5 119t195.5 43q198 0 303 -120l9 43q4 23 19 35t34 12h252q19 0 30 -14t7 -33l-162 -920
q-5 -20 -20.5 -33.5t-35.5 -13.5h-249q-20 0 -32 14t-7 33l8 41q-39 -50 -108 -84.5t-169 -34.5q-178 0 -292.5 135t-114.5 340z" />
    <glyph glyph-name="b" unicode="b" horiz-adv-x="1204" 
d="M283 1434h249q20 0 31.5 -14t7.5 -34l-79 -438q104 94 260 94q174 0 296.5 -133t122.5 -334q0 -134 -42.5 -249t-114.5 -192.5t-168 -121t-203 -43.5q-197 0 -303 121l-8 -43q-4 -23 -19 -35t-34 -12h-252q-19 0 -30 14t-7 33l237 1339q5 21 20.5 34.5t35.5 13.5z
M631 733q-96 0 -159.5 -74.5t-63.5 -175.5q0 -88 52 -146t138 -58q96 0 159.5 74t63.5 175q0 88 -52 146.5t-138 58.5z" />
    <glyph glyph-name="c" unicode="c" horiz-adv-x="1038" 
d="M961 154q-70 -85 -176 -135t-242 -50q-150 0 -267 67.5t-178 180t-61 248.5q0 165 74 298.5t200 207t277 73.5q178 0 300 -79t165 -193q7 -26 -4.5 -51t-36.5 -39l-148 -80q-54 -31 -90 29q-63 100 -176 100q-91 0 -153 -74t-62 -178q0 -81 49.5 -138.5t126.5 -57.5
q101 0 176 75q50 44 94 4l123 -110q19 -18 22.5 -46t-13.5 -52z" />
    <glyph glyph-name="d" unicode="d" 
d="M578 274q96 0 159.5 74.5t63.5 175.5q0 88 -52.5 146.5t-138.5 58.5q-96 0 -159.5 -74.5t-63.5 -175.5q0 -88 52.5 -146.5t138.5 -58.5zM713 47l8 41q-39 -50 -108 -84.5t-169 -34.5q-178 0 -292.5 135t-114.5 340q0 133 45 247.5t119 190.5t168.5 119t195.5 43
q196 0 301 -120l80 462q5 20 19.5 34t33.5 14h256q19 0 30 -14t7 -34l-235 -1339q-5 -20 -20.5 -33.5t-35.5 -13.5h-249q-20 0 -32 14t-7 33z" />
    <glyph glyph-name="e" unicode="e" horiz-adv-x="1120" 
d="M547 -31q-238 0 -375 139t-137 349q0 161 73 295t205.5 213t296.5 79q103 0 189.5 -30.5t144.5 -82t97 -117.5t53.5 -136.5t7.5 -140.5l-10 -62q-5 -26 -19 -39.5t-47 -13.5h-645v-4q0 -70 46.5 -110t115.5 -40q109 0 190 78q30 30 60 12l200 -129q17 -11 17.5 -32
t-11.5 -31q-167 -197 -452 -197zM604 772q-60 0 -114.5 -37.5t-81.5 -113.5h352q-2 42 -18 73t-40.5 47t-49 23.5t-48.5 7.5z" />
    <glyph glyph-name="f" unicode="f" horiz-adv-x="778" 
d="M160 1014h121l20 110q35 194 150 287.5t282 93.5q83 0 165.5 -29.5t127.5 -82.5q28 -36 -10 -86l-109 -148q-15 -22 -33.5 -26.5t-30.5 1t-28 17.5q-42 31 -84 31q-29 0 -53.5 -21.5t-34.5 -70.5l-14 -76h178q21 0 33 -13.5t8 -33.5l-35 -197q-5 -21 -21 -35t-36 -14
h-178l-119 -672q-5 -21 -20.5 -35t-35.5 -14h-249q-21 0 -33 14.5t-8 34.5l118 672h-125q-19 0 -29.5 14.5t-6.5 34.5l34 197q5 20 20.5 33.5t35.5 13.5z" />
    <glyph glyph-name="g" unicode="g" 
d="M582 307q97 0 161 70t64 170q0 87 -53 140.5t-140 53.5q-97 0 -159 -69.5t-62 -169.5q0 -87 51 -141t138 -54zM442 -485q-105 0 -197 27t-153.5 69.5t-102 88t-57.5 89.5q-8 21 -9 36.5t8 27.5t13 15t19 12q3 2 4 3l168 92q18 11 33 13t26.5 -6t17 -13t13.5 -16
q100 -127 242 -127q97 0 156.5 49t74.5 119l25 106q-34 -34 -99 -59t-151 -25q-181 0 -306.5 128.5t-125.5 326.5q0 128 43 237.5t115 182t165.5 113t194.5 40.5q206 0 311 -120l9 43q4 23 19 35t34 12h252q19 0 30 -14t7 -33l-179 -977q-41 -231 -197 -353t-403 -122z" />
    <glyph glyph-name="h" unicode="h" horiz-adv-x="1185" 
d="M412 465l-76 -422q-4 -18 -21 -30.5t-36 -12.5h-250q-20 0 -31.5 13.5t-7.5 33.5l237 1339q5 20 20 34t34 14h254q19 0 31.5 -12.5t8.5 -30.5l-81 -447q115 100 268 100q91 0 168 -32t131.5 -95t75.5 -156.5t0 -215.5l-88 -502q-4 -18 -20.5 -30.5t-35.5 -12.5h-252
q-20 0 -32.5 12.5t-8.5 30.5l82 465q39 211 -141 211q-87 0 -146.5 -65.5t-82.5 -188.5z" />
    <glyph glyph-name="i" unicode="i" horiz-adv-x="487" 
d="M367 1081q-82 0 -135 60t-48 143q8 82 72 142.5t145 60.5t135 -60.5t46 -142.5q-4 -82 -68.5 -142.5t-146.5 -60.5zM283 0h-254q-20 0 -31.5 14.5t-7.5 34.5l164 918q5 21 20 34t35 13h254q19 0 30 -13.5t7 -33.5l-162 -918q-5 -21 -20 -35t-35 -14z" />
    <glyph glyph-name="j" unicode="j" horiz-adv-x="487" 
d="M367 1081q-82 0 -135 60t-48 143q8 82 72 142.5t145 60.5t135 -60.5t46 -142.5q-4 -82 -68.5 -142.5t-146.5 -60.5zM-31 -70l185 1035q5 21 20 35t35 14h252q19 0 31 -14.5t8 -34.5l-189 -1069q-35 -194 -149.5 -287.5t-282.5 -93.5q-83 0 -165.5 29.5t-127.5 82.5
q-28 36 11 86l108 148q15 22 33.5 26.5t30.5 -1t28 -17.5q42 -31 84 -31q29 0 53.5 21.5t34.5 70.5z" />
    <glyph glyph-name="k" unicode="k" horiz-adv-x="1085" 
d="M399 397l-61 -350q-5 -21 -20 -34t-35 -13h-252q-21 0 -33 13.5t-8 33.5l237 1339q4 20 20.5 34t35.5 14h254q19 0 29.5 -14t6.5 -34l-124 -702h55l241 293q30 37 74 37h266q38 0 47.5 -26.5t-16.5 -57.5l-350 -398l256 -444q18 -31 1.5 -59.5t-56.5 -28.5h-242
q-29 0 -43 8.5t-25 32.5l-188 356h-70z" />
    <glyph glyph-name="l" unicode="l" horiz-adv-x="579" 
d="M410 0h-144q-145 0 -203.5 72.5t-39.5 185.5l198 1126q5 21 20.5 35.5t34.5 14.5h254q20 0 31 -15t6 -35l-184 -1050q-4 -17 5 -29t26 -12h67q45 0 37 -45l-33 -187q-11 -61 -75 -61z" />
    <glyph glyph-name="m" unicode="m" horiz-adv-x="1820" 
d="M424 535l-88 -492q-4 -18 -21 -30.5t-36 -12.5h-250q-20 0 -31.5 13.5t-7.5 33.5l164 920q5 21 19 34t34 13h254q18 0 30.5 -12.5t8.5 -30.5l-6 -37q134 110 282 110q96 0 167 -38t108 -101q159 139 344 139q110 0 194 -38t128.5 -99.5t62 -135t4.5 -150.5l-103 -578
q-4 -19 -20 -31t-35 -12h-254q-18 0 -30.5 12.5t-8.5 30.5l86 492q13 78 -21.5 130t-115.5 52q-79 0 -125 -50.5t-61 -131.5l-88 -492q-4 -18 -21 -30.5t-35 -12.5h-252q-20 0 -32.5 12.5t-8.5 30.5l89 492q14 78 -21.5 130t-116.5 52q-79 0 -125 -50.5t-61 -131.5z" />
    <glyph glyph-name="n" unicode="n" horiz-adv-x="1185" 
d="M700 43l82 465q39 211 -143 211q-86 0 -145 -65.5t-82 -188.5l-76 -422q-4 -18 -21 -30.5t-36 -12.5h-250q-20 0 -31.5 13.5t-7.5 33.5l164 920q5 21 19 34t34 13h244q18 0 30 -12.5t8 -30.5l-6 -37q38 42 113.5 76t165.5 34q91 0 168 -32t131.5 -95t75.5 -156.5
t0 -215.5l-88 -502q-4 -18 -20.5 -30.5t-35.5 -12.5h-252q-20 0 -32.5 12.5t-8.5 30.5z" />
    <glyph glyph-name="o" unicode="o" horiz-adv-x="1167" 
d="M608 1044q114 0 212 -40t166.5 -108t107.5 -161.5t39 -197.5q0 -157 -74 -287t-205.5 -205.5t-292.5 -75.5q-226 0 -375 147.5t-149 360.5q0 156 75 286.5t206.5 205.5t289.5 75zM596 733q-91 0 -152 -72t-61 -172q0 -94 56.5 -151t133.5 -57q92 0 152.5 71.5t60.5 171.5
q0 95 -56 152t-134 57z" />
    <glyph glyph-name="p" unicode="p" 
d="M633 729q-96 0 -159.5 -74.5t-63.5 -175.5q0 -88 52 -146.5t138 -58.5q96 0 159.5 74.5t63.5 175.5q0 88 -52 146.5t-138 58.5zM342 90l-86 -498q-5 -21 -20 -34t-35 -13h-250q-20 0 -31.5 13.5t-7.5 33.5l242 1375q5 21 20 34t35 13h250q20 0 31.5 -14.5t7.5 -34.5
l-9 -39q40 47 111 81.5t156 34.5q174 0 296 -133t122 -334q0 -134 -42.5 -249t-115 -192.5t-168.5 -121t-203 -43.5q-197 0 -303 121z" />
    <glyph glyph-name="q" unicode="q" 
d="M920 -455h-252q-20 0 -31.5 13.5t-7.5 33.5l88 474q-107 -97 -260 -97q-176 0 -298 136t-122 339q0 134 44 248t118 190t169 119t197 43q198 0 303 -120l9 43q4 23 19 35t34 12h252q19 0 30 -14t7 -33l-244 -1375q-5 -21 -20 -34t-35 -13zM578 274q96 0 159.5 74.5
t63.5 175.5q0 88 -52.5 146.5t-138.5 58.5q-96 0 -159.5 -74.5t-63.5 -175.5q0 -88 52.5 -146.5t138.5 -58.5z" />
    <glyph glyph-name="r" unicode="r" horiz-adv-x="745" 
d="M723 1032h39q56 0 45 -61l-45 -252q-12 -64 -74 -64h-78q-86 0 -132 -41.5t-64 -130.5l-76 -440q-4 -18 -21 -30.5t-36 -12.5h-252q-20 0 -31.5 13.5t-7.5 33.5l164 920q5 21 19 34t34 13h227q20 0 32.5 -12.5t8.5 -30.5l-18 -99q90 160 266 160z" />
    <glyph glyph-name="s" unicode="s" horiz-adv-x="993" 
d="M76 692q0 153 119 252.5t323 99.5q276 0 432 -133q56 -45 -8 -112l-84 -90q-16 -19 -34 -23.5t-35.5 2t-40.5 23.5q-112 71 -228 71q-41 0 -65.5 -14t-24.5 -35q0 -20 16.5 -34t61.5 -27l151 -45q119 -36 195 -108t76 -181q5 -163 -120.5 -266t-342.5 -103
q-117 0 -221 33t-174 82q-65 46 -72 88.5t37 85.5l86 94q42 48 119 -18q116 -96 245 -96q43 0 69 17t26 42q0 26 -22 39t-76 30q-11 3 -17 5l-156 47q-106 31 -170 100.5t-65 173.5z" />
    <glyph glyph-name="t" unicode="t" horiz-adv-x="839" 
d="M713 283l55 -131q20 -48 -35 -89q-141 -92 -305 -92q-60 0 -116 20.5t-101.5 61t-65 112.5t-2.5 165l70 391h-121q-20 0 -31.5 14.5t-7.5 34.5l35 197q5 21 20 34t35 13h123l43 250q4 20 21 33.5t37 13.5h251q20 0 31.5 -13.5t7.5 -33.5l-45 -250h240q21 0 33 -13.5
t8 -33.5l-35 -197q-5 -21 -21 -35t-36 -14h-240l-57 -324q-3 -35 -0.5 -54.5t15.5 -29t21.5 -12t18.5 -2.5q7 0 13 1t10 1.5t12 3t11.5 4t14.5 6.5t17 7q30 11 46.5 1.5t29.5 -40.5z" />
    <glyph glyph-name="u" unicode="u" horiz-adv-x="1148" 
d="M494 971l-93 -516q-17 -91 17.5 -139t120.5 -48q78 0 125 49t61 132l92 522q4 18 21 30.5t36 12.5h252q20 0 30.5 -13.5t6.5 -33.5l-162 -920q-5 -20 -19.5 -33.5t-33.5 -13.5h-248q-20 0 -32.5 12.5t-8.5 30.5l9 37q-50 -53 -114.5 -82t-166.5 -29q-183 0 -278 127.5
t-62 319.5l98 555q4 18 20.5 30.5t35.5 12.5h252q18 0 31.5 -12.5t9.5 -30.5z" />
    <glyph glyph-name="v" unicode="v" horiz-adv-x="1075" 
d="M625 0h-371q-40 0 -51 49l-115 885q-5 32 14 56t50 24h254q45 0 49 -49l47 -605l256 605q20 49 69 49h281q31 0 41.5 -24t-6.5 -56l-447 -885q-25 -49 -71 -49z" />
    <glyph glyph-name="w" unicode="w" horiz-adv-x="1585" 
d="M795 471l-174 -422q-8 -21 -27 -35t-43 -14h-283q-42 0 -53 49l-133 889q-6 37 11 56.5t50 19.5h252q45 0 49 -49l48 -533l227 537q19 45 72 45h210q49 0 52 -49l43 -533l221 533q20 49 67 49h232q32 0 42 -19t-7 -57l-420 -889q-25 -49 -70 -49h-276q-47 0 -51 49z" />
    <glyph glyph-name="x" unicode="x" horiz-adv-x="1060" 
d="M485 272l-174 -233q-28 -39 -75 -39h-277q-29 0 -35 22.5t15 45.5l383 487l-226 391q-12 24 1 46t42 22h252q51 0 72 -39l119 -207l149 207q30 39 78 39h270q29 0 34.5 -22.5t-15.5 -45.5l-357 -452l248 -426q12 -24 -1 -46t-42 -22h-264q-20 0 -34 7.5t-30 31.5z" />
    <glyph glyph-name="y" unicode="y" horiz-adv-x="1093" 
d="M199 -483q-87 0 -168.5 31t-134.5 77q-24 31 10 86l80 125q36 55 106 19q1 -1 10 -5.5l12 -6t12 -5.5l13.5 -6t13.5 -4.5t16 -4t16 -2.5t18 -1q34 0 68 18.5t55 59.5l51 102h-135q-43 0 -54 49l-106 885q-12 80 70 80h270q35 0 39 -49l41 -656l260 656q20 49 67 49h293
q67 0 29 -80l-483 -1069q-52 -113 -112 -187t-150 -117.5t-207 -43.5z" />
    <glyph glyph-name="z" unicode="z" horiz-adv-x="989" 
d="M948 737l-469 -434h391q20 0 31.5 -13.5t7.5 -33.5l-37 -209q-5 -21 -20 -34t-35 -13h-815q-20 0 -31.5 14.5t-7.5 34.5l31 172q8 35 31 55l479 435h-361q-20 0 -31.5 14.5t-7.5 34.5l35 205q5 20 21.5 34.5t36.5 14.5h774q21 0 33 -14.5t8 -34.5l-31 -172
q-7 -30 -33 -56z" />
    <glyph glyph-name="braceleft" unicode="{" horiz-adv-x="739" 
d="M514 414l-53 -303q-6 -36 7 -51t46 -15h61q21 0 33 -14.5t8 -34.5l-28 -158q-5 -20 -21.5 -34.5t-36.5 -14.5h-178q-157 0 -221.5 68.5t-36.5 224.5l66 373q10 48 -4.5 65t-57.5 17h-8q-52 0 -43 61l25 135q11 62 63 62h8q43 0 63 17t27 65l66 366q29 159 108 226t232 67
h199q21 0 33 -14.5t8 -34.5l-29 -158q-5 -21 -21 -35t-36 -14h-62q-33 0 -51 -15t-25 -51l-51 -296q-28 -142 -129 -211q-50 -32 -100 -41q45 -8 86 -41q81 -69 53 -211z" />
    <glyph glyph-name="bar" unicode="|" horiz-adv-x="604" 
d="M428 -256h-176q-20 0 -34.5 14.5t-14.5 34.5v1849q0 20 14.5 34t34.5 14h176q20 0 34.5 -14t14.5 -34v-1849q0 -20 -14.5 -34.5t-34.5 -14.5z" />
    <glyph glyph-name="braceright" unicode="}" horiz-adv-x="739" 
d="M139 111l54 303q29 146 131 211q51 33 98 41q-47 8 -84 41q-84 68 -55 211l51 296q7 36 -5.5 51t-45.5 15h-62q-21 0 -33 14.5t-8 34.5l29 158q5 21 21 35t36 14h178q157 0 221.5 -68.5t36.5 -224.5l-65 -366q-7 -49 6 -65.5t55 -16.5h9q12 0 22 -3.5t18 -18.5t3 -40
l-25 -135q-9 -61 -63 -61h-9q-42 0 -61 -16.5t-29 -65.5l-65 -373q-29 -159 -108 -226t-232 -67h-199q-21 0 -33 14.5t-8 34.5l29 158q5 21 21 35t36 14h62q33 0 50 15t23 51z" />
    <glyph glyph-name="asciitilde" unicode="~" horiz-adv-x="1271" 
d="M930 852q44 0 78.5 18.5t60 37t47.5 18.5q31 0 49 -37l66 -127q21 -44 12 -72q-16 -48 -112.5 -114t-202.5 -66q-71 0 -279 37t-233 37q-35 0 -64.5 -11.5t-45.5 -25.5t-36 -25.5t-39 -11.5q-31 0 -49 37l-65 127q-22 45 -13 71q16 48 113 114.5t203 66.5q60 0 269.5 -37
t240.5 -37z" />
    <glyph glyph-name="uni00A0" unicode="&#xa0;" horiz-adv-x="376" 
 />
    <glyph glyph-name="exclamdown" unicode="&#xa1;" horiz-adv-x="577" 
d="M358 1044q90 0 147.5 -63.5t49.5 -151.5q-8 -89 -76 -153t-157 -64t-147.5 64t-51.5 153q8 88 76.5 151.5t158.5 63.5zM-45 -371l147 834q4 23 20.5 37t37.5 14h262q21 0 33 -14t8 -37l-148 -834q-5 -21 -21 -35t-36 -14h-262q-21 0 -33 14.5t-8 34.5z" />
    <glyph glyph-name="cent" unicode="&#xa2;" horiz-adv-x="1122" 
d="M420 479q0 -115 86 -170l72 414q-72 -23 -115 -90t-43 -154zM594 -31l-25 -139q-3 -29 -37 -29h-90q-25 0 -22 29l26 154q-171 41 -271.5 173t-100.5 308q0 165 74 298.5t200 207t277 73.5h10l27 148q3 29 32 29h92q28 0 25 -29l-29 -166q117 -29 195 -97.5t113 -156.5
q7 -26 -4.5 -51t-36.5 -39l-148 -80q-54 -31 -90 29q-39 61 -86 80l-74 -422q70 12 121 69q50 44 94 4l123 -110q19 -18 22 -46t-14 -52q-143 -177 -403 -185z" />
    <glyph glyph-name="sterling" unicode="&#xa3;" horiz-adv-x="1288" 
d="M1188 297l-45 -246q-5 -23 -21 -37t-39 -14h-1042q-23 0 -35 14t-8 37l45 246q5 23 20.5 37t38.5 14h109l33 184h-109q-23 0 -35 14.5t-8 37.5l35 194q5 23 20.5 37t38.5 14h109l24 136q42 237 182 368t365 131q171 0 299.5 -82t171.5 -194q10 -27 0 -43.5t-37 -36.5
l-159 -102q-25 -17 -46 -14.5t-33 11t-18 19.5q-68 115 -174 115q-154 0 -196 -211l-17 -97h299q23 0 34.5 -14t6.5 -37l-34 -194q-5 -24 -20 -38t-38 -14h-301l-33 -184h574q23 0 35 -14t8 -37z" />
    <glyph glyph-name="currency" unicode="&#xa4;" horiz-adv-x="1796" 
d="M537 145l-148 -151q-40 -32 -72 0l-102 102q-17 13 -17 34t17 38l141 141q-139 185 -139 410q0 224 139 409l-141 142q-17 17 -17 37.5t17 33.5l102 103q32 32 72 0l148 -152q182 117 401 117t401 -117l148 152q40 32 72 0l102 -103q17 -13 17 -33.5t-17 -37.5l-141 -142
q139 -185 139 -409q0 -225 -139 -410l141 -141q17 -17 17 -37.5t-17 -34.5l-102 -102q-32 -32 -72 0l-148 151q-180 -116 -401 -116t-401 116zM938 1135q-103 0 -195 -50l195 -196l195 196q-92 50 -195 50zM764 719l-189 192q-47 -89 -47 -192q0 -104 47 -193zM1348 719
q0 101 -48 192l-188 -192l188 -193q48 91 48 193zM938 303q105 0 195 49l-195 197l-195 -197q90 -49 195 -49z" />
    <glyph glyph-name="yen" unicode="&#xa5;" horiz-adv-x="1441" 
d="M856 264l-37 -213q-4 -23 -20 -37t-37 -14h-262q-23 0 -35 14t-8 37l37 213h-312q-23 0 -35 14t-8 37l25 144q4 23 21 37t40 14h314v2l-35 90h-262q-23 0 -35 14t-8 37l26 144q5 23 21 37t39 14h123l-197 502q-12 30 4.5 57t46.5 27h299q36 0 51 -37l168 -479h4l322 479
q21 37 61 37h332q33 0 42.5 -23.5t-17.5 -60.5l-373 -502h125q23 0 35 -14t8 -37l-27 -144q-5 -23 -20.5 -37t-38.5 -14h-264l-68 -90v-2h316q23 0 34 -14t6 -37l-24 -144q-5 -23 -20.5 -37t-38.5 -14h-318z" />
    <glyph glyph-name="brokenbar" unicode="&#xa6;" horiz-adv-x="618" 
d="M489 1642v-702q0 -20 -14.5 -34.5t-34.5 -14.5h-176q-20 0 -34.5 14.5t-14.5 34.5v702q0 20 14.5 34t34.5 14h176q20 0 34.5 -14t14.5 -34zM489 496v-703q0 -20 -14.5 -34.5t-34.5 -14.5h-176q-20 0 -34.5 14.5t-14.5 34.5v703q0 20 14.5 33.5t34.5 13.5h176
q20 0 34.5 -13.5t14.5 -33.5z" />
    <glyph glyph-name="section" unicode="&#xa7;" horiz-adv-x="1675" 
d="M670 487l301 -176q85 -49 139 -112q83 36 96 118q11 70 -38.5 126.5t-151.5 117.5l-301 176q-84 46 -140 113q-82 -36 -96 -119q-11 -69 38.5 -126t152.5 -118zM1204 -150q-37 -192 -196.5 -301.5t-386.5 -89.5q-154 16 -274 85.5t-161 144.5q-46 81 19 129l153 112
q30 22 60.5 16t48.5 -34q42 -59 87.5 -91t107.5 -38q57 -4 97 22.5t46 65.5q10 53 -23.5 95.5t-117.5 92.5l-334 191q-133 78 -200.5 201.5t-39.5 277.5q11 59 36.5 114t70 110t116 101t162.5 76q0 34 6 68q38 195 187.5 305t373.5 90q155 -16 273.5 -85.5t161.5 -145.5
q45 -79 -17 -129l-133 -111q-30 -23 -60 -17t-50 34q-45 61 -88 91t-105 36q-57 4 -98 -22.5t-47 -65.5q-10 -54 24 -97t119 -92l332 -190q133 -76 201 -201t40 -279q-11 -59 -36.5 -114t-70 -110t-116 -101t-162.5 -76q0 -34 -6 -68z" />
    <glyph glyph-name="dieresis" unicode="&#xa8;" horiz-adv-x="1019" 
d="M190 1305q7 86 73 147t151 61t139.5 -61t46.5 -147t-73 -147.5t-150 -61.5t-140 61.5t-47 147.5zM666 1305q7 86 72.5 147t150.5 61t139.5 -61t46.5 -147t-73 -147.5t-150 -61.5t-139.5 61.5t-46.5 147.5z" />
    <glyph glyph-name="copyright" unicode="&#xa9;" horiz-adv-x="1982" 
d="M113 717q0 182 71.5 346t193 282.5t292 188.5t360.5 70q189 0 359 -70t292 -188.5t193.5 -282.5t71.5 -346t-71.5 -346t-193.5 -282.5t-292 -188.5t-359 -70q-190 0 -360.5 70t-292 188.5t-193 282.5t-71.5 346zM1745 717q0 195 -92.5 358t-257 257.5t-365.5 94.5
q-152 0 -285.5 -55.5t-228 -151t-149 -226.5t-54.5 -277q0 -195 92.5 -358t257.5 -258t367 -95q201 0 365.5 95t257 258t92.5 358zM471 721q0 112 42 212t115 171.5t176 113.5t220 42q153 0 273 -63t186 -165q13 -25 5 -49.5t-32 -42.5l-151 -115q-49 -35 -97 19
q-73 86 -178 86q-89 0 -146 -60.5t-57 -148.5t57 -147.5t146 -59.5q105 0 178 86q47 53 97 18l151 -114q24 -18 32 -42.5t-5 -49.5q-66 -102 -186 -165t-273 -63q-117 0 -220 41.5t-176 113t-115 171t-42 211.5z" />
    <glyph glyph-name="ordfeminine" unicode="&#xaa;" horiz-adv-x="1003" 
d="M559 1235q-60 0 -101.5 -42.5t-41.5 -102.5t41.5 -103t101.5 -43t101.5 43t41.5 103t-41.5 102.5t-101.5 42.5zM705 768v23q-23 -35 -72.5 -55.5t-112.5 -20.5q-92 0 -171.5 44t-131 132t-51.5 201q0 169 106.5 271.5t249.5 102.5q63 0 111.5 -20t71.5 -55v20q0 35 32 35
h178q33 0 33 -35v-643q0 -33 -33 -33h-178q-32 0 -32 33zM911 422h-659q-35 0 -35 35v166q0 36 35 36h659q37 0 37 -36v-166q0 -35 -37 -35z" />
    <glyph glyph-name="guillemotleft" unicode="&#xab;" horiz-adv-x="1218" 
d="M516 0h-164q-25 0 -37.5 7t-25.5 32l-238 453q-18 34 12 71l351 412q32 39 75 39h205q21 0 29 -21t-8 -47l-297 -440l143 -438q7 -25 -8.5 -46.5t-36.5 -21.5zM1028 0h-164q-25 0 -37.5 7t-25.5 32l-238 453q-18 34 12 71l351 412q32 39 75 39h205q21 0 29 -21t-8 -47
l-297 -440l143 -438q7 -25 -8.5 -46.5t-36.5 -21.5z" />
    <glyph glyph-name="logicalnot" unicode="&#xac;" horiz-adv-x="1335" 
d="M1303 1096l-134 -758q-5 -23 -20.5 -37t-38.5 -14h-260q-23 0 -34.5 14t-6.5 37l80 461h-725q-23 0 -34.5 14t-6.5 37l43 246q5 23 20.5 37t38.5 14h1037q23 0 34.5 -14t6.5 -37z" />
    <glyph glyph-name="registered" unicode="&#xae;" horiz-adv-x="1945" 
d="M113 717q0 182 70 346t189.5 282.5t286.5 188.5t353 70q185 0 351.5 -70t286 -188.5t189.5 -282.5t70 -346t-70 -346t-189.5 -282.5t-286 -188.5t-351.5 -70q-186 0 -353 70t-286.5 188.5t-189.5 282.5t-70 346zM1712 717q0 146 -53.5 277t-145.5 226.5t-222.5 151
t-278.5 55.5q-198 0 -359.5 -94.5t-252.5 -257.5t-91 -358t91 -358t252.5 -258t359.5 -95q197 0 358 95t251.5 258t90.5 358zM1204 872q0 54 -34.5 88.5t-88.5 34.5h-161v-245h161q54 2 88.5 35t34.5 87zM885 195h-217q-37 0 -37 34v975q0 14 10 24.5t27 10.5h430
q95 0 173.5 -30.5t128.5 -82t77.5 -117t27.5 -137.5q0 -99 -50 -182.5t-142 -132.5l162 -303q12 -25 4.5 -39t-31.5 -14h-236q-50 0 -67 39l-123 266h-102v-277q0 -16 -10 -25t-25 -9z" />
    <glyph glyph-name="overscore" unicode="&#xaf;" horiz-adv-x="976" 
d="M946 1137h-710q-23 0 -34.5 14t-6.5 37l32 194q5 23 22 37.5t40 14.5h710q23 0 34.5 -14.5t6.5 -37.5l-32 -194q-4 -23 -21.5 -37t-40.5 -14z" />
    <glyph glyph-name="degree" unicode="&#xb0;" horiz-adv-x="802" 
d="M150 1118q0 145 104.5 245.5t253.5 100.5t253.5 -100.5t104.5 -245.5t-104.5 -245.5t-253.5 -100.5t-253.5 100.5t-104.5 245.5zM362 1118q0 -66 41.5 -107.5t104.5 -41.5t104 41.5t41 107.5t-41 108t-104 42t-104.5 -42t-41.5 -108z" />
    <glyph glyph-name="plusminus" unicode="&#xb1;" horiz-adv-x="1280" 
d="M1073 0h-1038q-23 0 -34.5 14t-6.5 37l43 246q5 23 20.5 37t38.5 14h338l62 357h-336q-23 0 -34.5 14t-6.5 37l43 245q5 24 20.5 38t38.5 14h336l66 364q5 23 20.5 37t38.5 14h260q23 0 34.5 -14t6.5 -37l-63 -364h337q23 0 34.5 -14.5t6.5 -37.5l-43 -245
q-5 -23 -20.5 -37t-38.5 -14h-338l-63 -357h338q23 0 35 -14t8 -37l-46 -246q-4 -23 -20 -37t-37 -14z" />
    <glyph glyph-name="twosuperior" unicode="&#xb2;" horiz-adv-x="628" 
d="M653 1024h-479q-10 0 -16 7t-4 18l16 90q6 26 31 45l221 159q84 62 115.5 98.5t31.5 76.5q0 35 -23 55t-59 20q-75 0 -110 -77q-21 -47 -60 -31l-86 35q-28 12 -18 41q27 81 104.5 138.5t186.5 57.5q104 0 178 -60.5t74 -154.5q0 -88 -56.5 -158t-156.5 -137l-97 -65h234
q10 0 16 -7t4 -18l-18 -108q-1 -10 -9.5 -17.5t-19.5 -7.5z" />
    <glyph glyph-name="threesuperior" unicode="&#xb3;" horiz-adv-x="622" 
d="M426 1008q-127 0 -200 69.5t-62 173.5l2 19q3 24 35 24h114q27 0 21 -22l-2 -10q-8 -42 19 -72.5t77 -30.5q47 0 73.5 27t26.5 65q0 36 -28.5 61t-85.5 25h-33q-24 0 -21 25l11 65q3 20 20 37l133 113h-262q-11 0 -17.5 8.5t-2.5 18.5l20 112q3 25 31 25h436q24 0 21 -25
l-13 -96q-5 -28 -8.5 -38t-13.5 -17l-142 -119q65 -24 102.5 -72.5t37.5 -118.5q0 -99 -77.5 -173t-211.5 -74z" />
    <glyph glyph-name="acute" unicode="&#xb4;" horiz-adv-x="624" 
d="M356 1554h312q40 0 54.5 -28t-5.5 -51l-262 -334q-25 -35 -60 -35h-168q-38 0 -56 21t-5 55l133 331q15 41 57 41z" />
    <glyph glyph-name="mu" unicode="&#xb5;" horiz-adv-x="1257" 
d="M319 2l-51 -281q-5 -21 -20 -35t-35 -14h-193q-20 0 -31.5 14.5t-6.5 34.5l221 1250q4 19 20 31t35 12h252q18 0 31.5 -12.5t9.5 -30.5l-92 -516q-17 -91 17 -139t120 -48q78 0 125 49t61 132l92 522q4 18 21.5 30.5t36.5 12.5h252q20 0 30.5 -13.5t6.5 -33.5l-162 -920
q-5 -20 -19.5 -33.5t-33.5 -13.5h-248q-20 0 -32.5 12.5t-8.5 30.5l8 37q-104 -111 -260 -111q-84 0 -146 33z" />
    <glyph glyph-name="paragraph" unicode="&#xb6;" horiz-adv-x="1368" 
d="M719 1434h610q20 0 32.5 -15t8.5 -35l-235 -1333q-4 -23 -20.5 -37t-37.5 -14h-162q-23 0 -34.5 14t-6.5 37l207 1166h-174l-207 -1168q-9 -49 -57 -49h-164q-20 0 -31.5 13.5t-7.5 35.5l72 410h-8q-170 0 -272.5 119t-102.5 301q0 152 75 279t211 201.5t304 74.5z" />
    <glyph glyph-name="middot" unicode="&#xb7;" horiz-adv-x="561" 
d="M317 494q-92 0 -159.5 67.5t-67.5 159.5t67.5 159.5t159.5 67.5t160 -67.5t68 -159.5t-68 -159.5t-160 -67.5z" />
    <glyph glyph-name="cedilla" unicode="&#xb8;" horiz-adv-x="624" 
d="M301 61l367 -53l-228 -323q-11 -15 -22 -22t-18.5 -8t-24.5 -1h-195q-30 0 -45 19.5t-2 47.5z" />
    <glyph glyph-name="onesuperior" unicode="&#xb9;" horiz-adv-x="399" 
d="M201 1528l16 98q6 29 33 29h33q41 0 63.5 13t42.5 50q14 23 41 23h84q24 0 21 -25l-117 -665q-9 -27 -31 -27h-131q-10 0 -16 8t-4 19l79 452h-94q-23 0 -20 25z" />
    <glyph glyph-name="ordmasculine" unicode="&#xba;" horiz-adv-x="970" 
d="M553 713q-163 0 -277 108.5t-114 263.5q0 157 114 268t277 111q164 0 278.5 -111t114.5 -268q0 -155 -114.5 -263.5t-278.5 -108.5zM553 1233q-60 0 -101.5 -43t-41.5 -103t41.5 -102.5t101.5 -42.5q61 0 102 42t41 103t-41 103.5t-102 42.5zM883 422h-660q-35 0 -35 35
v166q0 36 35 36h660q37 0 37 -36v-166q0 -35 -37 -35z" />
    <glyph glyph-name="guillemotright" unicode="&#xbb;" horiz-adv-x="1196" 
d="M186 1014h164q25 0 38 -7t26 -32l237 -453q18 -34 -12 -71l-350 -412q-32 -39 -76 -39h-205q-21 0 -28.5 21t8.5 47l297 440l-144 438q-7 25 8.5 46.5t36.5 21.5zM678 1014h164q25 0 37.5 -7t25.5 -32l238 -453q17 -33 -13 -71l-350 -412q-32 -39 -75 -39h-205
q-21 0 -29 21t8 47l297 440l-143 438q-7 25 8.5 46.5t36.5 21.5z" />
    <glyph glyph-name="onequarter" unicode="&#xbc;" horiz-adv-x="1392" 
d="M1341 1360l-1148 -1321q-16 -20 -32 -29.5t-46 -9.5h-47q-37 0 -45 24.5t16 49.5l1149 1321q16 20 32 29.5t46 9.5h47q37 0 44.5 -24.5t-16.5 -49.5zM190 1221l17 98q6 29 33 29h32q42 0 64.5 13t42.5 50q14 23 41 23h84q23 0 20 -25l-116 -666q-9 -26 -31 -26h-131
q-10 0 -16.5 7.5t-4.5 18.5l80 453h-94q-24 0 -21 25zM1008 176h-289q-26 0 -23 27l19 98q1 4 3 13t3.5 14t4 12t6.5 13.5t9 13.5l295 329q15 21 39 21h178q26 0 23 -25l-66 -370h70q23 0 20 -25l-16 -94q-2 -11 -10.5 -19t-18.5 -8h-69l-27 -149q-9 -27 -33 -27h-127
q-27 0 -18 27zM881 322h151l39 219z" />
    <glyph glyph-name="onehalf" unicode="&#xbd;" horiz-adv-x="1443" 
d="M1337 1360l-1149 -1321q-16 -20 -32 -29.5t-45 -9.5h-48q-37 0 -44.5 24.5t16.5 49.5l1149 1321q16 20 32 29.5t46 9.5h47q37 0 44.5 -24.5t-16.5 -49.5zM188 1221l17 98q6 29 33 29h32q42 0 64.5 13t42.5 50q14 23 41 23h84q23 0 20 -25l-116 -666q-9 -26 -31 -26h-131
q-10 0 -16.5 7.5t-4.5 18.5l80 453h-94q-24 0 -21 25zM1276 0h-479q-10 0 -16.5 7t-4.5 18l17 90q6 27 30 45l221 159q85 62 116.5 98.5t31.5 76.5q0 35 -23 55t-59 20q-76 0 -111 -77q-21 -46 -59 -31l-86 35q-28 12 -18 41q27 81 104 138.5t186 57.5q104 0 178 -60.5
t74 -154.5q0 -88 -56.5 -158t-156.5 -137l-96 -65h234q10 0 16 -7t4 -18l-18 -108q-1 -10 -9.5 -17.5t-19.5 -7.5z" />
    <glyph glyph-name="threequarters" unicode="&#xbe;" horiz-adv-x="1517" 
d="M1466 1360l-1149 -1321q-16 -20 -32 -29.5t-45 -9.5h-47q-37 0 -45 24.5t16 49.5l1149 1321q16 20 32 29.5t46 9.5h47q37 0 44.5 -24.5t-16.5 -49.5zM401 700q-127 0 -200 70t-62 174l2 19q3 24 35 24h115q26 0 20 -22l-2 -11q-8 -42 19.5 -72t77.5 -30q47 0 73.5 27
t26.5 65q0 36 -29 61t-86 25h-33q-23 0 -20 25l10 65q3 19 21 37l133 113h-262q-11 0 -18 8t-3 18l21 113q3 25 30 25h437q23 0 20 -25l-12 -96q-8 -45 -23 -56l-141 -118q65 -24 102 -72.5t37 -118.5q0 -99 -77.5 -173.5t-211.5 -74.5zM1133 176h-289q-26 0 -23 27l19 98
q1 4 3 13t3.5 14t4 12t6.5 13.5t9 13.5l295 329q15 21 39 21h178q26 0 23 -25l-66 -370h70q23 0 20 -25l-16 -94q-2 -11 -10.5 -19t-18.5 -8h-69l-27 -149q-9 -27 -33 -27h-127q-27 0 -18 27zM1006 322h151l39 219z" />
    <glyph glyph-name="questiondown" unicode="&#xbf;" horiz-adv-x="1064" 
d="M580 1038q90 0 147 -63t49 -152t-76 -153t-157 -64t-147.5 64t-51.5 153q8 88 77 151.5t159 63.5zM410 -451q-112 0 -200.5 32.5t-141.5 86.5t-80 118.5t-27 133.5q0 67 24.5 129.5t62 108.5t82 91t83.5 78t68 67.5t34 62.5l2 12q8 45 60 45h258q21 0 33 -14t8 -37
l-10 -57q-9 -48 -44.5 -100.5t-79 -97t-86.5 -87t-71.5 -83.5t-28.5 -73q0 -35 25.5 -62.5t79.5 -27.5q36 0 70.5 15t55.5 31.5t62 51.5q64 51 115 9l117 -107q15 -11 22 -29.5t-3.5 -51.5t-45.5 -68q-71 -71 -182.5 -124t-261.5 -53z" />
    <glyph glyph-name="Agrave" unicode="&#xc0;" horiz-adv-x="1398" 
d="M555 1974h311q49 0 58 -41l71 -331q15 -76 -63 -76h-166q-38 0 -59 35l-201 333q-19 26 -5 53t54 27zM868 608l-69 514l-230 -514h299zM432 301l-115 -256q-18 -45 -57 -45h-287q-31 0 -42 23t6 61l630 1298q24 52 70 52h430q45 0 53 -52l203 -1298q7 -40 -11 -62
t-50 -22h-273q-39 0 -45 45l-37 256h-475z" />
    <glyph glyph-name="Aacute" unicode="&#xc1;" horiz-adv-x="1398" 
d="M909 1974h312q40 0 54.5 -28.5t-5.5 -51.5l-262 -333q-25 -35 -60 -35h-168q-38 0 -56 21t-5 55l133 331q15 41 57 41zM868 608l-69 514l-230 -514h299zM432 301l-115 -256q-18 -45 -57 -45h-287q-31 0 -42 23t6 61l630 1298q24 52 70 52h430q45 0 53 -52l203 -1298
q7 -40 -11 -62t-50 -22h-273q-39 0 -45 45l-37 256h-475z" />
    <glyph glyph-name="Acircumflex" unicode="&#xc2;" horiz-adv-x="1398" 
d="M750 1974h323q39 0 60 -49l133 -323q16 -33 0.5 -54.5t-43.5 -21.5h-195q-27 0 -38 8t-23 31l-82 145l-131 -145q-16 -17 -22.5 -23t-19.5 -11t-32 -5h-231q-24 0 -34.5 20.5t11.5 55.5l248 325q36 47 76 47zM868 608l-69 514l-230 -514h299zM432 301l-115 -256
q-18 -45 -57 -45h-287q-31 0 -42 23t6 61l630 1298q24 52 70 52h430q45 0 53 -52l203 -1298q7 -40 -11 -62t-50 -22h-273q-39 0 -45 45l-37 256h-475z" />
    <glyph glyph-name="Atilde" unicode="&#xc3;" horiz-adv-x="1398" 
d="M692 1937q55 0 178.5 -31.5t153.5 -31.5q40 0 73 17.5t57.5 35t45.5 17.5q30 0 45 -35l47 -121q17 -45 11 -70q-8 -53 -100.5 -111.5t-186.5 -58.5q-63 0 -185.5 32t-146.5 32q-40 0 -71.5 -17.5t-54.5 -35t-44 -17.5q-16 0 -24.5 7.5t-20.5 27.5l-57 121q-16 37 -11 67
q8 54 103.5 113t187.5 59zM868 608l-69 514l-230 -514h299zM432 301l-115 -256q-18 -45 -57 -45h-287q-31 0 -42 23t6 61l630 1298q24 52 70 52h430q45 0 53 -52l203 -1298q7 -40 -11 -62t-50 -22h-273q-39 0 -45 45l-37 256h-475z" />
    <glyph glyph-name="Adieresis" unicode="&#xc4;" horiz-adv-x="1398" 
d="M444 1724q7 86 73 147.5t151 61.5t139.5 -61.5t46.5 -147.5q-7 -86 -72.5 -147t-150.5 -61t-139.5 61t-47.5 147zM920 1724q8 86 73 147.5t150 61.5t139.5 -61.5t46.5 -147.5q-7 -86 -72.5 -147t-150.5 -61t-139.5 61t-46.5 147zM868 608l-69 514l-230 -514h299zM432 301
l-115 -256q-18 -45 -57 -45h-287q-31 0 -42 23t6 61l630 1298q24 52 70 52h430q45 0 53 -52l203 -1298q7 -40 -11 -62t-50 -22h-273q-39 0 -45 45l-37 256h-475z" />
    <glyph glyph-name="Aring" unicode="&#xc5;" horiz-adv-x="1398" 
d="M897 2179q86 0 159 -35t120 -105t47 -161q0 -151 -105 -252.5t-260 -101.5q-86 0 -159 35t-120 105t-47 161q0 151 106 252.5t259 101.5zM866 1724q58 0 95.5 43t37.5 99q0 49 -30 81.5t-82 32.5q-58 0 -95.5 -42.5t-37.5 -98.5q0 -49 30 -82t82 -33zM868 608l-69 514
l-230 -514h299zM432 301l-115 -256q-18 -45 -57 -45h-287q-31 0 -42 23t6 61l630 1298q24 52 70 52h430q45 0 53 -52l203 -1298q7 -40 -11 -62t-50 -22h-273q-39 0 -45 45l-37 256h-475z" />
    <glyph glyph-name="AE" unicode="&#xc6;" horiz-adv-x="1918" 
d="M881 618l-52 525l-239 -525h291zM449 301l-115 -252q-20 -49 -70 -49h-299q-31 0 -41 18.5t8 59.5l643 1304q21 52 70 52h1337q23 0 34.5 -14.5t6.5 -37.5l-43 -245q-5 -24 -20.5 -38t-38.5 -14h-692l28 -204h357q21 0 32 -14.5t7 -37.5l-39 -225q-4 -23 -20.5 -37
t-37.5 -14h-251l26 -205h461q23 0 34.5 -14t6.5 -37l-45 -246q-10 -51 -57 -51h-734q-51 0 -57 49l-25 252h-466z" />
    <glyph glyph-name="Ccedilla" unicode="&#xc7;" horiz-adv-x="1474" 
d="M885 -31l-199 -282q-11 -15 -22 -22t-18.5 -8t-24.5 -1h-195q-30 0 -45 20t-2 48l143 288q-203 73 -322.5 250.5t-119.5 403.5q0 163 60 310.5t162 254t244 169t300 62.5q262 0 449 -137t237 -364q0 -1 0.5 -7t0.5 -9.5t-2 -10t-5 -11t-10 -8.5t-17 -6l-246 -49
q-45 -9 -57 31q-90 246 -330 246q-117 0 -212.5 -62.5t-149 -168.5t-53.5 -232q0 -173 103.5 -278t258.5 -105q108 0 185 50.5t139 141.5l3 6q4 6 5.5 8.5t6.5 7t10 6t13 0.5t17 -5l240 -115q8 -4 13.5 -8t7.5 -8.5t3.5 -7.5t-0.5 -8.5t-2.5 -7.5t-4 -8t-3.5 -7
q-85 -158 -231.5 -252t-329.5 -115z" />
    <glyph glyph-name="Egrave" unicode="&#xc8;" horiz-adv-x="1294" 
d="M543 1974h311q48 0 57 -41l72 -331q15 -76 -63 -76h-166q-39 0 -60 35l-200 333q-19 26 -5 53t54 27zM313 1434h1037q21 0 33 -14.5t8 -37.5l-43 -235q-4 -23 -20.5 -37t-37.5 -14h-725l-39 -215h381q23 0 35 -14.5t8 -37.5l-41 -225q-5 -23 -20.5 -37t-38.5 -14h-381
l-37 -215h744q23 0 34.5 -14t6.5 -37l-41 -236q-5 -23 -21 -37t-39 -14h-1055q-23 0 -35 14t-8 37l236 1333q5 21 21 35.5t38 14.5z" />
    <glyph glyph-name="Eacute" unicode="&#xc9;" horiz-adv-x="1294" 
d="M897 1974h311q40 0 54.5 -28.5t-5.5 -51.5l-262 -333q-25 -35 -59 -35h-168q-38 0 -56 21t-5 55l133 331q15 41 57 41zM313 1434h1037q21 0 33 -14.5t8 -37.5l-43 -235q-4 -23 -20.5 -37t-37.5 -14h-725l-39 -215h381q23 0 35 -14.5t8 -37.5l-41 -225q-5 -23 -20.5 -37
t-38.5 -14h-381l-37 -215h744q23 0 34.5 -14t6.5 -37l-41 -236q-5 -23 -21 -37t-39 -14h-1055q-23 0 -35 14t-8 37l236 1333q5 21 21 35.5t38 14.5z" />
    <glyph glyph-name="Ecircumflex" unicode="&#xca;" horiz-adv-x="1294" 
d="M737 1974h324q38 0 59 -49l133 -323q16 -33 0.5 -54.5t-43.5 -21.5h-194q-27 0 -38.5 8.5t-23.5 30.5l-82 145l-131 -145q-16 -18 -22 -23.5t-19 -10.5t-32 -5h-232q-24 0 -34 20.5t12 55.5l248 325q36 47 75 47zM313 1434h1037q21 0 33 -14.5t8 -37.5l-43 -235
q-4 -23 -20.5 -37t-37.5 -14h-725l-39 -215h381q23 0 35 -14.5t8 -37.5l-41 -225q-5 -23 -20.5 -37t-38.5 -14h-381l-37 -215h744q23 0 34.5 -14t6.5 -37l-41 -236q-5 -23 -21 -37t-39 -14h-1055q-23 0 -35 14t-8 37l236 1333q5 21 21 35.5t38 14.5z" />
    <glyph glyph-name="Edieresis" unicode="&#xcb;" horiz-adv-x="1294" 
d="M432 1724q8 86 73 147.5t150 61.5t140 -61.5t47 -147.5q-7 -86 -73 -147t-151 -61t-139.5 61t-46.5 147zM907 1724q8 86 73 147.5t150 61.5t140 -61.5t47 -147.5q-7 -86 -72.5 -147t-150.5 -61t-139.5 61t-47.5 147zM313 1434h1037q21 0 33 -14.5t8 -37.5l-43 -235
q-4 -23 -20.5 -37t-37.5 -14h-725l-39 -215h381q23 0 35 -14.5t8 -37.5l-41 -225q-5 -23 -20.5 -37t-38.5 -14h-381l-37 -215h744q23 0 34.5 -14t6.5 -37l-41 -236q-5 -23 -21 -37t-39 -14h-1055q-23 0 -35 14t-8 37l236 1333q5 21 21 35.5t38 14.5z" />
    <glyph glyph-name="Igrave" unicode="&#xcc;" horiz-adv-x="557" 
d="M145 1974h312q48 0 57 -41l72 -331q15 -76 -64 -76h-166q-38 0 -59 35l-201 333q-19 26 -5 53t54 27zM322 0h-261q-23 0 -35 14t-8 37l236 1333q5 21 21 35.5t38 14.5h260q23 0 34.5 -14.5t6.5 -35.5l-235 -1333q-10 -51 -57 -51z" />
    <glyph glyph-name="Iacute" unicode="&#xcd;" horiz-adv-x="557" 
d="M500 1974h311q40 0 54.5 -28.5t-5.5 -51.5l-262 -333q-25 -35 -59 -35h-168q-38 0 -56.5 21t-5.5 55l133 331q15 41 58 41zM322 0h-261q-23 0 -35 14t-8 37l236 1333q5 21 21 35.5t38 14.5h260q23 0 34.5 -14.5t6.5 -35.5l-235 -1333q-10 -51 -57 -51z" />
    <glyph glyph-name="Icircumflex" unicode="&#xce;" horiz-adv-x="557" 
d="M340 1974h324q38 0 59 -49l133 -323q16 -33 0.5 -54.5t-43.5 -21.5h-195q-27 0 -38 8t-23 31l-82 145l-131 -145q-16 -17 -22.5 -23t-19.5 -11t-32 -5h-231q-24 0 -34.5 20.5t11.5 55.5l248 325q36 47 76 47zM322 0h-261q-23 0 -35 14t-8 37l236 1333q5 21 21 35.5
t38 14.5h260q23 0 34.5 -14.5t6.5 -35.5l-235 -1333q-10 -51 -57 -51z" />
    <glyph glyph-name="Idieresis" unicode="&#xcf;" horiz-adv-x="557" 
d="M35 1724q8 86 73 147.5t150 61.5t139.5 -61.5t46.5 -147.5q-7 -86 -72.5 -147t-150.5 -61t-139.5 61t-46.5 147zM510 1724q8 86 73 147.5t150 61.5t140 -61.5t47 -147.5q-7 -86 -73 -147t-151 -61t-139.5 61t-46.5 147zM322 0h-261q-23 0 -35 14t-8 37l236 1333
q5 21 21 35.5t38 14.5h260q23 0 34.5 -14.5t6.5 -35.5l-235 -1333q-10 -51 -57 -51z" />
    <glyph glyph-name="Eth" unicode="&#xd0;" horiz-adv-x="1554" 
d="M729 0h-614q-23 0 -35.5 15t-7.5 36l92 522h-103q-23 0 -35 14.5t-8 37.5l33 184q5 23 21 37t39 14h104l92 524q5 21 21.5 35.5t38.5 14.5h499q305 0 496.5 -179t191.5 -462q0 -176 -66.5 -326t-179.5 -251.5t-263 -158.5t-316 -57zM483 338h240q138 0 242 63.5
t155 161.5t51 211q0 138 -88 230t-247 92h-220l-41 -236h256q23 0 35 -14t8 -37l-32 -184q-5 -23 -21 -37.5t-39 -14.5h-258z" />
    <glyph glyph-name="Ntilde" unicode="&#xd1;" horiz-adv-x="1468" 
d="M739 1937q55 0 178.5 -31.5t153.5 -31.5q40 0 73 17.5t57.5 35t45.5 17.5q30 0 45 -35l47 -121q17 -45 11 -70q-8 -53 -100.5 -111.5t-186.5 -58.5q-63 0 -185.5 32t-146.5 32q-40 0 -71.5 -17.5t-54.5 -35t-44 -17.5q-16 0 -24.5 7.5t-20.5 27.5l-57 121q-15 36 -10 67
q8 55 103 113.5t187 58.5zM874 51l-346 862l-149 -864q-9 -49 -55 -49h-263q-24 0 -35.5 13t-7.5 36l236 1335q5 21 21 35.5t38 14.5h320q46 0 61 -41l326 -838l145 829q5 21 21.5 35.5t36.5 14.5h262q20 0 32.5 -15t8.5 -35l-236 -1335q-4 -23 -20 -36t-37 -13h-262
q-77 0 -97 51z" />
    <glyph glyph-name="Ograve" unicode="&#xd2;" horiz-adv-x="1581" 
d="M618 1982h312q48 0 57 -40l72 -332q15 -76 -64 -76h-166q-38 0 -59 35l-201 334q-19 26 -5 52.5t54 26.5zM856 1464q162 0 298 -56t227.5 -152.5t142.5 -226t51 -275.5q0 -214 -98 -393t-276.5 -285.5t-399.5 -106.5q-162 0 -298 56t-227.5 152.5t-142.5 226.5t-51 276
q0 160 58 304t158.5 249.5t246 168t311.5 62.5zM850 1139q-167 0 -283 -134t-116 -325q0 -174 102 -279.5t254 -105.5q168 0 283.5 134t115.5 325q0 174 -102 279.5t-254 105.5z" />
    <glyph glyph-name="Oacute" unicode="&#xd3;" horiz-adv-x="1581" 
d="M973 1982h311q40 0 54.5 -28t-5.5 -51l-262 -334q-25 -35 -59 -35h-168q-38 0 -56.5 21t-5.5 55l133 332q15 40 58 40zM856 1464q162 0 298 -56t227.5 -152.5t142.5 -226t51 -275.5q0 -214 -98 -393t-276.5 -285.5t-399.5 -106.5q-162 0 -298 56t-227.5 152.5
t-142.5 226.5t-51 276q0 160 58 304t158.5 249.5t246 168t311.5 62.5zM850 1139q-167 0 -283 -134t-116 -325q0 -174 102 -279.5t254 -105.5q168 0 283.5 134t115.5 325q0 174 -102 279.5t-254 105.5z" />
    <glyph glyph-name="Ocircumflex" unicode="&#xd4;" horiz-adv-x="1581" 
d="M813 1982h324q38 0 59 -49l133 -323q16 -33 0.5 -54.5t-43.5 -21.5h-194q-27 0 -38.5 8.5t-23.5 30.5l-82 145l-131 -145q-16 -17 -22.5 -23t-19.5 -11t-32 -5h-231q-24 0 -34.5 20.5t11.5 55.5l248 325q36 47 76 47zM856 1464q162 0 298 -56t227.5 -152.5t142.5 -226
t51 -275.5q0 -214 -98 -393t-276.5 -285.5t-399.5 -106.5q-162 0 -298 56t-227.5 152.5t-142.5 226.5t-51 276q0 160 58 304t158.5 249.5t246 168t311.5 62.5zM850 1139q-167 0 -283 -134t-116 -325q0 -174 102 -279.5t254 -105.5q168 0 283.5 134t115.5 325
q0 174 -102 279.5t-254 105.5z" />
    <glyph glyph-name="Otilde" unicode="&#xd5;" horiz-adv-x="1581" 
d="M756 1946q55 0 178 -32t153 -32q40 0 73 17.5t58 35t46 17.5q30 0 45 -35l47 -121q16 -43 10 -70q-8 -53 -100.5 -111.5t-186.5 -58.5q-63 0 -185 32t-146 32q-40 0 -71.5 -17.5t-54.5 -35t-44 -17.5q-16 0 -25 8t-21 27l-57 121q-16 36 -10 68q8 54 103.5 113t187.5 59z
M856 1464q162 0 298 -56t227.5 -152.5t142.5 -226t51 -275.5q0 -214 -98 -393t-276.5 -285.5t-399.5 -106.5q-162 0 -298 56t-227.5 152.5t-142.5 226.5t-51 276q0 160 58 304t158.5 249.5t246 168t311.5 62.5zM850 1139q-167 0 -283 -134t-116 -325q0 -174 102 -279.5
t254 -105.5q168 0 283.5 134t115.5 325q0 174 -102 279.5t-254 105.5z" />
    <glyph glyph-name="Odieresis" unicode="&#xd6;" horiz-adv-x="1581" 
d="M508 1733q8 86 73 147.5t150 61.5t140 -61.5t47 -147.5q-7 -86 -73 -147.5t-151 -61.5t-139.5 61.5t-46.5 147.5zM983 1733q8 86 73 147.5t150 61.5t140 -61.5t47 -147.5q-7 -86 -73 -147.5t-151 -61.5t-139.5 61.5t-46.5 147.5zM856 1464q162 0 298 -56t227.5 -152.5
t142.5 -226t51 -275.5q0 -214 -98 -393t-276.5 -285.5t-399.5 -106.5q-162 0 -298 56t-227.5 152.5t-142.5 226.5t-51 276q0 160 58 304t158.5 249.5t246 168t311.5 62.5zM850 1139q-167 0 -283 -134t-116 -325q0 -174 102 -279.5t254 -105.5q168 0 283.5 134t115.5 325
q0 174 -102 279.5t-254 105.5z" />
    <glyph glyph-name="multiply" unicode="&#xd7;" horiz-adv-x="1372" 
d="M1247 233l-203 -157q-17 -14 -37.5 -12.5t-33.5 18.5l-291 387l-420 -326q-19 -13 -39.5 -10.5t-32.5 19.5l-139 192q-12 17 -9.5 37t19.5 33l416 325l-291 387q-11 17 -7.5 39t20.5 35l202 158q18 13 40 12t34 -18l291 -387l418 325q17 14 39 11.5t34 -19.5l144 -192
q12 -17 8.5 -38t-20.5 -34l-420 -326l291 -387q12 -17 8 -38.5t-21 -33.5z" />
    <glyph glyph-name="Oslash" unicode="&#xd8;" horiz-adv-x="1581" 
d="M856 1464q162 0 298 -56t227.5 -152.5t142.5 -226t51 -275.5q0 -214 -98 -393t-276.5 -285.5t-399.5 -106.5q-162 0 -298 56t-227.5 152.5t-142.5 226.5t-51 276q0 160 58 304t158.5 249.5t246 168t311.5 62.5zM451 680q0 -74 22 -145l524 573q-70 31 -147 31
q-167 0 -283 -134t-116 -325zM807 295q168 0 283.5 134t115.5 325q0 80 -20 141l-518 -571q73 -29 139 -29z" />
    <glyph glyph-name="Ugrave" unicode="&#xd9;" horiz-adv-x="1409" 
d="M571 1974h312q48 0 57 -41l72 -331q15 -76 -64 -76h-166q-38 0 -59 35l-201 333q-19 26 -5 53t54 27zM1481 1384l-152 -858q-26 -147 -89 -255.5t-155.5 -174t-203.5 -96.5t-244 -31q-93 0 -180 21.5t-163 66.5t-128.5 109.5t-74.5 157.5t-3 202l152 858q5 21 21 35.5
t38 14.5h262q23 0 35.5 -14.5t7.5 -35.5l-145 -827q-20 -114 37.5 -182t177.5 -68q123 0 195.5 66.5t93.5 183.5l145 827q5 21 21 35.5t38 14.5h271q23 0 35.5 -14.5t7.5 -35.5z" />
    <glyph glyph-name="Uacute" unicode="&#xda;" horiz-adv-x="1409" 
d="M926 1974h311q40 0 54.5 -28.5t-5.5 -51.5l-262 -333q-25 -35 -59 -35h-168q-38 0 -56.5 21t-5.5 55l133 331q15 41 58 41zM1481 1384l-152 -858q-26 -147 -89 -255.5t-155.5 -174t-203.5 -96.5t-244 -31q-93 0 -180 21.5t-163 66.5t-128.5 109.5t-74.5 157.5t-3 202
l152 858q5 21 21 35.5t38 14.5h262q23 0 35.5 -14.5t7.5 -35.5l-145 -827q-20 -114 37.5 -182t177.5 -68q123 0 195.5 66.5t93.5 183.5l145 827q5 21 21 35.5t38 14.5h271q23 0 35.5 -14.5t7.5 -35.5z" />
    <glyph glyph-name="Ucircumflex" unicode="&#xdb;" horiz-adv-x="1409" 
d="M766 1974h324q38 0 59 -49l133 -323q16 -33 0.5 -54.5t-43.5 -21.5h-195q-27 0 -38 8t-23 31l-82 145l-131 -145q-16 -17 -22.5 -23t-19.5 -11t-32 -5h-231q-24 0 -34.5 20.5t11.5 55.5l248 325q36 47 76 47zM1481 1384l-152 -858q-26 -147 -89 -255.5t-155.5 -174
t-203.5 -96.5t-244 -31q-93 0 -180 21.5t-163 66.5t-128.5 109.5t-74.5 157.5t-3 202l152 858q5 21 21 35.5t38 14.5h262q23 0 35.5 -14.5t7.5 -35.5l-145 -827q-20 -114 37.5 -182t177.5 -68q123 0 195.5 66.5t93.5 183.5l145 827q5 21 21 35.5t38 14.5h271
q23 0 35.5 -14.5t7.5 -35.5z" />
    <glyph glyph-name="Udieresis" unicode="&#xdc;" horiz-adv-x="1409" 
d="M461 1724q8 86 73 147.5t150 61.5t139.5 -61.5t46.5 -147.5q-7 -86 -72.5 -147t-150.5 -61t-139.5 61t-46.5 147zM936 1724q8 86 73 147.5t150 61.5t140 -61.5t47 -147.5q-7 -86 -73 -147t-151 -61t-139.5 61t-46.5 147zM1481 1384l-152 -858q-26 -147 -89 -255.5
t-155.5 -174t-203.5 -96.5t-244 -31q-93 0 -180 21.5t-163 66.5t-128.5 109.5t-74.5 157.5t-3 202l152 858q5 21 21 35.5t38 14.5h262q23 0 35.5 -14.5t7.5 -35.5l-145 -827q-20 -114 37.5 -182t177.5 -68q123 0 195.5 66.5t93.5 183.5l145 827q5 21 21 35.5t38 14.5h271
q23 0 35.5 -14.5t7.5 -35.5z" />
    <glyph glyph-name="Yacute" unicode="&#xdd;" horiz-adv-x="1349" 
d="M893 1974h311q40 0 54.5 -28.5t-5.5 -51.5l-262 -333q-25 -35 -59 -35h-168q-38 0 -56.5 21t-5.5 55l134 331q15 41 57 41zM719 0h-262q-23 0 -35 14t-8 37l82 461l-328 838q-12 30 4.5 57t46.5 27h299q36 0 51 -37l168 -479h4l322 479q21 37 61 37h332q33 0 42.5 -23.5
t-17.5 -60.5l-623 -838l-82 -461q-4 -23 -20 -37t-37 -14z" />
    <glyph glyph-name="Thorn" unicode="&#xde;" horiz-adv-x="1271" 
d="M424 252l-37 -203q-4 -23 -20 -36t-37 -13h-269q-24 0 -35.5 13t-7.5 36l236 1335q10 50 59 50h269q21 0 33 -13.5t8 -36.5l-27 -155h199q119 0 214 -35.5t154 -97t90 -140.5t31 -170q0 -108 -38.5 -204.5t-110 -170t-181.5 -116.5t-245 -43h-285zM739 907h-200l-58 -334
h213q98 1 151.5 54.5t53.5 132.5q0 65 -45 106t-115 41z" />
    <glyph glyph-name="germandbls" unicode="&#xdf;" horiz-adv-x="1146" 
d="M-8 49l158 899q19 107 57.5 193t99.5 156t154 108.5t211 38.5q197 0 317.5 -107.5t120.5 -269.5q0 -59 -17.5 -115t-43 -96.5t-51 -75t-43 -62.5t-17.5 -46q0 -24 23 -57.5t50.5 -66t50.5 -88t23 -116.5q0 -52 -14.5 -103t-48 -100.5t-83.5 -87.5t-128 -61t-174 -23
q-73 0 -162 19l-5 2q-5 2 -6.5 2.5t-6.5 2.5t-7 3.5l-6 4.5t-5.5 6l-3.5 7t-2 8t0.5 9.5t2.5 11.5l62 209q10 29 34 29q6 0 37.5 -4.5t48.5 -4.5q55 0 77 28t22 58q0 28 -23 64.5t-50 66.5t-50 73t-23 83q0 36 21 76t50.5 75.5t59.5 71.5t51 76t21 76q0 46 -30 79.5
t-87 33.5q-61 0 -101 -49t-58 -138l-160 -899q-5 -21 -20 -35t-35 -14h-252q-20 0 -31.5 14.5t-7.5 34.5z" />
    <glyph glyph-name="agrave" unicode="&#xe0;" 
d="M397 1554h312q48 0 57 -41l72 -331q15 -76 -64 -76h-166q-38 0 -59 35l-201 334q-19 26 -5 52.5t54 26.5zM578 274q96 0 159.5 74.5t63.5 175.5q0 88 -52.5 146.5t-138.5 58.5q-96 0 -159.5 -74.5t-63.5 -175.5q0 -88 52.5 -146.5t138.5 -58.5zM37 444q0 133 45 247.5
t119 190.5t168.5 119t195.5 43q198 0 303 -120l9 43q4 23 19 35t34 12h252q19 0 30 -14t7 -33l-162 -920q-5 -20 -20.5 -33.5t-35.5 -13.5h-249q-20 0 -32 14t-7 33l8 41q-39 -50 -108 -84.5t-169 -34.5q-178 0 -292.5 135t-114.5 340z" />
    <glyph glyph-name="aacute" unicode="&#xe1;" 
d="M752 1554h311q40 0 54.5 -28t-5.5 -51l-262 -334q-25 -35 -59 -35h-168q-38 0 -56.5 21t-5.5 55l133 331q15 41 58 41zM578 274q96 0 159.5 74.5t63.5 175.5q0 88 -52.5 146.5t-138.5 58.5q-96 0 -159.5 -74.5t-63.5 -175.5q0 -88 52.5 -146.5t138.5 -58.5zM37 444
q0 133 45 247.5t119 190.5t168.5 119t195.5 43q198 0 303 -120l9 43q4 23 19 35t34 12h252q19 0 30 -14t7 -33l-162 -920q-5 -20 -20.5 -33.5t-35.5 -13.5h-249q-20 0 -32 14t-7 33l8 41q-39 -50 -108 -84.5t-169 -34.5q-178 0 -292.5 135t-114.5 340z" />
    <glyph glyph-name="acircumflex" unicode="&#xe2;" 
d="M592 1554h323q39 0 60 -49l133 -323q16 -33 0.5 -54.5t-43.5 -21.5h-195q-27 0 -38 8t-23 31l-82 145l-131 -145q-16 -17 -22.5 -23t-19.5 -11t-32 -5h-231q-24 0 -34.5 20.5t11.5 55.5l248 325q36 47 76 47zM578 274q96 0 159.5 74.5t63.5 175.5q0 88 -52.5 146.5
t-138.5 58.5q-96 0 -159.5 -74.5t-63.5 -175.5q0 -88 52.5 -146.5t138.5 -58.5zM37 444q0 133 45 247.5t119 190.5t168.5 119t195.5 43q198 0 303 -120l9 43q4 23 19 35t34 12h252q19 0 30 -14t7 -33l-162 -920q-5 -20 -20.5 -33.5t-35.5 -13.5h-249q-20 0 -32 14t-7 33
l8 41q-39 -50 -108 -84.5t-169 -34.5q-178 0 -292.5 135t-114.5 340z" />
    <glyph glyph-name="atilde" unicode="&#xe3;" 
d="M535 1518q55 0 178 -32t153 -32q40 0 73 17.5t57.5 35t45.5 17.5q30 0 45 -35l48 -121q16 -43 10 -70q-8 -53 -100.5 -111.5t-186.5 -58.5q-63 0 -185.5 32t-146.5 32q-40 0 -71.5 -17.5t-54.5 -35t-44 -17.5q-16 0 -24.5 7.5t-20.5 27.5l-57 121q-16 36 -10 68
q8 54 103.5 113t187.5 59zM578 274q96 0 159.5 74.5t63.5 175.5q0 88 -52.5 146.5t-138.5 58.5q-96 0 -159.5 -74.5t-63.5 -175.5q0 -88 52.5 -146.5t138.5 -58.5zM37 444q0 133 45 247.5t119 190.5t168.5 119t195.5 43q198 0 303 -120l9 43q4 23 19 35t34 12h252
q19 0 30 -14t7 -33l-162 -920q-5 -20 -20.5 -33.5t-35.5 -13.5h-249q-20 0 -32 14t-7 33l8 41q-39 -50 -108 -84.5t-169 -34.5q-178 0 -292.5 135t-114.5 340z" />
    <glyph glyph-name="adieresis" unicode="&#xe4;" 
d="M287 1305q7 86 72.5 147t150.5 61t139.5 -61t46.5 -147t-73 -147.5t-150 -61.5t-139.5 61.5t-46.5 147.5zM762 1305q7 86 72.5 147t150.5 61t139.5 -61t46.5 -147t-73 -147.5t-150 -61.5t-139.5 61.5t-46.5 147.5zM578 274q96 0 159.5 74.5t63.5 175.5q0 88 -52.5 146.5
t-138.5 58.5q-96 0 -159.5 -74.5t-63.5 -175.5q0 -88 52.5 -146.5t138.5 -58.5zM37 444q0 133 45 247.5t119 190.5t168.5 119t195.5 43q198 0 303 -120l9 43q4 23 19 35t34 12h252q19 0 30 -14t7 -33l-162 -920q-5 -20 -20.5 -33.5t-35.5 -13.5h-249q-20 0 -32 14t-7 33
l8 41q-39 -50 -108 -84.5t-169 -34.5q-178 0 -292.5 135t-114.5 340z" />
    <glyph glyph-name="aring" unicode="&#xe5;" 
d="M739 1759q86 0 159 -35t120 -105t47 -161q0 -151 -105 -252.5t-260 -101.5q-85 0 -158.5 35t-120 104.5t-46.5 161.5q0 151 105.5 252.5t258.5 101.5zM709 1305q58 0 95.5 42.5t37.5 98.5q0 49 -30.5 82t-82.5 33q-58 0 -95.5 -43t-37.5 -99q0 -49 30.5 -81.5t82.5 -32.5
zM578 274q96 0 159.5 74.5t63.5 175.5q0 88 -52.5 146.5t-138.5 58.5q-96 0 -159.5 -74.5t-63.5 -175.5q0 -88 52.5 -146.5t138.5 -58.5zM37 444q0 133 45 247.5t119 190.5t168.5 119t195.5 43q198 0 303 -120l9 43q4 23 19 35t34 12h252q19 0 30 -14t7 -33l-162 -920
q-5 -20 -20.5 -33.5t-35.5 -13.5h-249q-20 0 -32 14t-7 33l8 41q-39 -50 -108 -84.5t-169 -34.5q-178 0 -292.5 135t-114.5 340z" />
    <glyph glyph-name="ae" unicode="&#xe6;" horiz-adv-x="1796" 
d="M1223 -31q-215 0 -355 121q-131 -121 -325 -121q-149 0 -265 67t-177.5 180t-61.5 251q0 164 74 297t199.5 206.5t275.5 73.5q217 0 340 -120q152 120 358 120q103 0 189.5 -30.5t144.5 -82t97 -117.5t53.5 -136.5t7.5 -140.5l-11 -62q-5 -26 -18.5 -39.5t-46.5 -13.5
h-645v-4q0 -70 46.5 -110t115.5 -40q109 0 190 78q30 30 59 12l201 -129q17 -11 17.5 -32t-11.5 -31q-167 -197 -452 -197zM1280 772q-60 0 -115 -37.5t-82 -113.5h353q-2 42 -18 73t-40.5 47t-49 23.5t-48.5 7.5zM565 291q83 0 154 65q-8 39 -8 101q0 112 32 200
q-59 62 -147 62q-91 0 -151 -67t-60 -171q0 -77 49.5 -133.5t130.5 -56.5z" />
    <glyph glyph-name="ccedilla" unicode="&#xe7;" horiz-adv-x="1038" 
d="M709 -8l-211 -301q-16 -21 -29 -26t-37 -5h-194q-30 0 -45.5 20t-2.5 48l140 282q-138 56 -215.5 178t-77.5 277q0 165 74 298.5t200 207t277 73.5q178 0 300 -79t165 -193q7 -26 -4.5 -51t-36.5 -39l-148 -80q-54 -31 -90 29q-63 100 -176 100q-91 0 -153 -74t-62 -178
q0 -81 49.5 -138.5t126.5 -57.5q101 0 176 75q50 44 94 4l123 -110q19 -18 22.5 -46t-13.5 -52q-93 -117 -252 -162z" />
    <glyph glyph-name="egrave" unicode="&#xe8;" horiz-adv-x="1120" 
d="M358 1554h312q48 0 57 -41l72 -331q15 -76 -64 -76h-166q-38 0 -59 35l-201 334q-19 26 -5 52.5t54 26.5zM547 -31q-238 0 -375 139t-137 349q0 161 73 295t205.5 213t296.5 79q103 0 189.5 -30.5t144.5 -82t97 -117.5t53.5 -136.5t7.5 -140.5l-10 -62q-5 -26 -19 -39.5
t-47 -13.5h-645v-4q0 -70 46.5 -110t115.5 -40q109 0 190 78q30 30 60 12l200 -129q17 -11 17.5 -32t-11.5 -31q-167 -197 -452 -197zM604 772q-60 0 -114.5 -37.5t-81.5 -113.5h352q-2 42 -18 73t-40.5 47t-49 23.5t-48.5 7.5z" />
    <glyph glyph-name="eacute" unicode="&#xe9;" horiz-adv-x="1120" 
d="M713 1554h311q40 0 54.5 -28t-5.5 -51l-262 -334q-25 -35 -59 -35h-168q-38 0 -56.5 21t-5.5 55l133 331q15 41 58 41zM547 -31q-238 0 -375 139t-137 349q0 161 73 295t205.5 213t296.5 79q103 0 189.5 -30.5t144.5 -82t97 -117.5t53.5 -136.5t7.5 -140.5l-10 -62
q-5 -26 -19 -39.5t-47 -13.5h-645v-4q0 -70 46.5 -110t115.5 -40q109 0 190 78q30 30 60 12l200 -129q17 -11 17.5 -32t-11.5 -31q-167 -197 -452 -197zM604 772q-60 0 -114.5 -37.5t-81.5 -113.5h352q-2 42 -18 73t-40.5 47t-49 23.5t-48.5 7.5z" />
    <glyph glyph-name="ecircumflex" unicode="&#xea;" horiz-adv-x="1120" 
d="M553 1554h324q38 0 59 -49l133 -323q16 -33 0.5 -54.5t-43.5 -21.5h-195q-27 0 -38 8t-23 31l-82 145l-131 -145q-16 -17 -22.5 -23t-19.5 -11t-32 -5h-231q-24 0 -34.5 20.5t11.5 55.5l248 325q36 47 76 47zM547 -31q-238 0 -375 139t-137 349q0 161 73 295t205.5 213
t296.5 79q103 0 189.5 -30.5t144.5 -82t97 -117.5t53.5 -136.5t7.5 -140.5l-10 -62q-5 -26 -19 -39.5t-47 -13.5h-645v-4q0 -70 46.5 -110t115.5 -40q109 0 190 78q30 30 60 12l200 -129q17 -11 17.5 -32t-11.5 -31q-167 -197 -452 -197zM604 772q-60 0 -114.5 -37.5
t-81.5 -113.5h352q-2 42 -18 73t-40.5 47t-49 23.5t-48.5 7.5z" />
    <glyph glyph-name="edieresis" unicode="&#xeb;" horiz-adv-x="1120" 
d="M248 1305q7 86 72.5 147t150.5 61t139.5 -61t46.5 -147t-73 -147.5t-150 -61.5t-139.5 61.5t-46.5 147.5zM723 1305q7 86 72.5 147t150.5 61t139.5 -61t47.5 -147t-73 -147.5t-151 -61.5t-139.5 61.5t-46.5 147.5zM547 -31q-238 0 -375 139t-137 349q0 161 73 295
t205.5 213t296.5 79q103 0 189.5 -30.5t144.5 -82t97 -117.5t53.5 -136.5t7.5 -140.5l-10 -62q-5 -26 -19 -39.5t-47 -13.5h-645v-4q0 -70 46.5 -110t115.5 -40q109 0 190 78q30 30 60 12l200 -129q17 -11 17.5 -32t-11.5 -31q-167 -197 -452 -197zM604 772
q-60 0 -114.5 -37.5t-81.5 -113.5h352q-2 42 -18 73t-40.5 47t-49 23.5t-48.5 7.5z" />
    <glyph glyph-name="igrave" unicode="&#xec;" horiz-adv-x="487" 
d="M37 1554h311q49 0 58 -41l71 -331q15 -76 -63 -76h-166q-39 0 -60 35l-200 334q-19 26 -5 52.5t54 26.5zM283 0h-252q-20 0 -31.5 14.5t-7.5 34.5l162 918q5 21 20 34t35 13h254q19 0 30 -13.5t7 -33.5l-162 -918q-5 -21 -20 -35t-35 -14z" />
    <glyph glyph-name="iacute" unicode="&#xed;" horiz-adv-x="487" 
d="M391 1554h311q40 0 55 -28t-5 -51l-263 -334q-25 -35 -59 -35h-168q-38 0 -56 21t-5 55l133 331q15 41 57 41zM283 0h-252q-20 0 -31.5 14.5t-7.5 34.5l162 918q5 21 20 34t35 13h254q19 0 30 -13.5t7 -33.5l-162 -918q-5 -21 -20 -35t-35 -14z" />
    <glyph glyph-name="icircumflex" unicode="&#xee;" horiz-adv-x="487" 
d="M231 1554h324q38 0 59 -49l134 -323q16 -33 0.5 -54.5t-43.5 -21.5h-195q-27 0 -38 8t-23 31l-82 145l-131 -145q-16 -17 -22.5 -23t-19.5 -11t-32 -5h-232q-24 0 -34 20.5t12 55.5l248 325q36 47 75 47zM283 0h-252q-20 0 -31.5 14.5t-7.5 34.5l162 918q5 21 20 34
t35 13h254q19 0 30 -13.5t7 -33.5l-162 -918q-5 -21 -20 -35t-35 -14z" />
    <glyph glyph-name="idieresis" unicode="&#xef;" horiz-adv-x="487" 
d="M-74 1305q7 86 73 147t151 61t139.5 -61t46.5 -147t-73 -147.5t-150 -61.5t-140 61.5t-47 147.5zM401 1305q7 86 73 147t151 61t139.5 -61t46.5 -147t-73 -147.5t-150 -61.5t-140 61.5t-47 147.5zM283 0h-252q-20 0 -31.5 14.5t-7.5 34.5l162 918q5 21 20 34t35 13h254
q19 0 30 -13.5t7 -33.5l-162 -918q-5 -21 -20 -35t-35 -14z" />
    <glyph glyph-name="eth" unicode="&#xf0;" horiz-adv-x="1187" 
d="M580 -31q-145 0 -267 62t-198 183t-76 278q0 105 37 202t102.5 170.5t161 117.5t205.5 44q52 0 111 -15t98 -44q-63 89 -131 180l-170 -49q-49 -15 -62 30l-24 80q-15 52 34 64l105 28l-100 132q-20 23 -7 55.5t54 32.5h217q49 0 80 -35l75 -92l162 45q48 12 60 -31
l24 -80q15 -51 -35 -63l-100 -29q94 -145 156.5 -313t62.5 -332q0 -179 -72 -320t-203.5 -221t-299.5 -80zM604 733q-92 0 -154.5 -72t-62.5 -172q0 -95 57 -151.5t138 -56.5q92 0 154.5 71.5t62.5 171.5q0 95 -57 152t-138 57z" />
    <glyph glyph-name="ntilde" unicode="&#xf1;" horiz-adv-x="1185" 
d="M532 1518q55 0 178.5 -32t153.5 -32q40 0 73 17.5t57.5 35t45.5 17.5q30 0 45 -35l48 -121q16 -43 10 -70q-8 -53 -100.5 -111.5t-186.5 -58.5q-63 0 -185.5 32t-146.5 32q-40 0 -71.5 -17.5t-54.5 -35t-44 -17.5q-16 0 -24.5 7.5t-20.5 27.5l-57 121q-16 36 -10 68
q8 55 103 113.5t187 58.5zM700 43l82 465q39 211 -143 211q-86 0 -145 -65.5t-82 -188.5l-76 -422q-4 -18 -21 -30.5t-36 -12.5h-250q-20 0 -31.5 13.5t-7.5 33.5l164 920q5 21 19 34t34 13h244q18 0 30 -12.5t8 -30.5l-6 -37q38 42 113.5 76t165.5 34q91 0 168 -32
t131.5 -95t75.5 -156.5t0 -215.5l-88 -502q-4 -18 -20.5 -30.5t-35.5 -12.5h-252q-20 0 -32.5 12.5t-8.5 30.5z" />
    <glyph glyph-name="ograve" unicode="&#xf2;" horiz-adv-x="1167" 
d="M371 1554h311q48 0 57 -41l72 -331q15 -76 -63 -76h-166q-39 0 -60 35l-200 334q-19 26 -5 52.5t54 26.5zM608 1044q114 0 212 -40t166.5 -108t107.5 -161.5t39 -197.5q0 -157 -74 -287t-205.5 -205.5t-292.5 -75.5q-226 0 -375 147.5t-149 360.5q0 156 75 286.5
t206.5 205.5t289.5 75zM596 733q-91 0 -152 -72t-61 -172q0 -94 56.5 -151t133.5 -57q92 0 152.5 71.5t60.5 171.5q0 95 -56 152t-134 57z" />
    <glyph glyph-name="oacute" unicode="&#xf3;" horiz-adv-x="1167" 
d="M725 1554h311q40 0 54.5 -28t-5.5 -51l-262 -334q-25 -35 -59 -35h-168q-38 0 -56 21t-5 55l133 331q15 41 57 41zM608 1044q114 0 212 -40t166.5 -108t107.5 -161.5t39 -197.5q0 -157 -74 -287t-205.5 -205.5t-292.5 -75.5q-226 0 -375 147.5t-149 360.5q0 156 75 286.5
t206.5 205.5t289.5 75zM596 733q-91 0 -152 -72t-61 -172q0 -94 56.5 -151t133.5 -57q92 0 152.5 71.5t60.5 171.5q0 95 -56 152t-134 57z" />
    <glyph glyph-name="ocircumflex" unicode="&#xf4;" horiz-adv-x="1167" 
d="M565 1554h324q38 0 59 -49l133 -323q16 -33 0.5 -54.5t-43.5 -21.5h-194q-27 0 -38.5 8.5t-23.5 30.5l-82 145l-131 -145q-16 -18 -22 -23.5t-19 -10.5t-32 -5h-232q-24 0 -34 20.5t12 55.5l247 325q36 47 76 47zM608 1044q114 0 212 -40t166.5 -108t107.5 -161.5
t39 -197.5q0 -157 -74 -287t-205.5 -205.5t-292.5 -75.5q-226 0 -375 147.5t-149 360.5q0 156 75 286.5t206.5 205.5t289.5 75zM596 733q-91 0 -152 -72t-61 -172q0 -94 56.5 -151t133.5 -57q92 0 152.5 71.5t60.5 171.5q0 95 -56 152t-134 57z" />
    <glyph glyph-name="otilde" unicode="&#xf5;" horiz-adv-x="1167" 
d="M508 1518q55 0 178.5 -32t153.5 -32q40 0 73 17.5t57.5 35t45.5 17.5q30 0 45 -35l47 -121q16 -43 10 -70q-8 -53 -100.5 -111.5t-186.5 -58.5q-63 0 -185 32t-146 32q-40 0 -71.5 -17.5t-54.5 -35t-44 -17.5q-16 0 -24.5 7.5t-20.5 27.5l-58 121q-16 36 -10 68
q8 54 103.5 113t187.5 59zM608 1044q114 0 212 -40t166.5 -108t107.5 -161.5t39 -197.5q0 -157 -74 -287t-205.5 -205.5t-292.5 -75.5q-226 0 -375 147.5t-149 360.5q0 156 75 286.5t206.5 205.5t289.5 75zM596 733q-91 0 -152 -72t-61 -172q0 -94 56.5 -151t133.5 -57
q92 0 152.5 71.5t60.5 171.5q0 95 -56 152t-134 57z" />
    <glyph glyph-name="odieresis" unicode="&#xf6;" horiz-adv-x="1167" 
d="M260 1305q7 86 72.5 147t150.5 61t139.5 -61t47.5 -147t-73 -147.5t-151 -61.5t-139.5 61.5t-46.5 147.5zM735 1305q7 86 72.5 147t150.5 61t139.5 -61t47.5 -147q-8 -86 -73 -147.5t-150 -61.5t-140 61.5t-47 147.5zM608 1044q114 0 212 -40t166.5 -108t107.5 -161.5
t39 -197.5q0 -157 -74 -287t-205.5 -205.5t-292.5 -75.5q-226 0 -375 147.5t-149 360.5q0 156 75 286.5t206.5 205.5t289.5 75zM596 733q-91 0 -152 -72t-61 -172q0 -94 56.5 -151t133.5 -57q92 0 152.5 71.5t60.5 171.5q0 95 -56 152t-134 57z" />
    <glyph glyph-name="divide" unicode="&#xf7;" horiz-adv-x="1253" 
d="M725 954q-89 0 -152 63t-63 152q0 90 62.5 152.5t152.5 62.5q91 0 153 -62t62 -153q0 -90 -62.5 -152.5t-152.5 -62.5zM1255 840l-45 -246q-10 -51 -57 -51h-1038q-23 0 -34.5 14t-6.5 37l45 246q10 51 57 51h1038q23 0 34.5 -14t6.5 -37zM602 49q-89 0 -152 63t-63 152
q0 90 62.5 152.5t152.5 62.5q91 0 153 -62t62 -153q0 -90 -62.5 -152.5t-152.5 -62.5z" />
    <glyph glyph-name="oslash" unicode="&#xf8;" horiz-adv-x="1167" 
d="M608 1044q114 0 212 -40t166.5 -108t107.5 -161.5t39 -197.5q0 -157 -74 -287t-205.5 -205.5t-292.5 -75.5q-226 0 -375 147.5t-149 360.5q0 156 75 286.5t206.5 205.5t289.5 75zM383 489q0 -31 10 -73l279 301q-43 16 -76 16q-91 0 -152 -72t-61 -172zM573 281
q92 0 152.5 71.5t60.5 171.5q0 32 -6 56l-268 -289q38 -10 61 -10z" />
    <glyph glyph-name="ugrave" unicode="&#xf9;" horiz-adv-x="1148" 
d="M362 1554h312q48 0 57 -41l72 -331q15 -76 -64 -76h-166q-38 0 -59 35l-201 334q-19 26 -5 52.5t54 26.5zM494 971l-93 -516q-17 -91 17.5 -139t120.5 -48q78 0 125 49t61 132l92 522q4 18 21 30.5t36 12.5h252q20 0 30.5 -13.5t6.5 -33.5l-162 -920q-5 -20 -19.5 -33.5
t-33.5 -13.5h-248q-20 0 -32.5 12.5t-8.5 30.5l9 37q-50 -53 -114.5 -82t-166.5 -29q-183 0 -278 127.5t-62 319.5l98 555q4 18 20.5 30.5t35.5 12.5h252q18 0 31.5 -12.5t9.5 -30.5z" />
    <glyph glyph-name="uacute" unicode="&#xfa;" horiz-adv-x="1148" 
d="M717 1554h311q40 0 54.5 -28t-5.5 -51l-262 -334q-25 -35 -59 -35h-168q-38 0 -56.5 21t-5.5 55l133 331q15 41 58 41zM494 971l-93 -516q-17 -91 17.5 -139t120.5 -48q78 0 125 49t61 132l92 522q4 18 21 30.5t36 12.5h252q20 0 30.5 -13.5t6.5 -33.5l-162 -920
q-5 -20 -19.5 -33.5t-33.5 -13.5h-248q-20 0 -32.5 12.5t-8.5 30.5l9 37q-50 -53 -114.5 -82t-166.5 -29q-183 0 -278 127.5t-62 319.5l98 555q4 18 20.5 30.5t35.5 12.5h252q18 0 31.5 -12.5t9.5 -30.5z" />
    <glyph glyph-name="ucircumflex" unicode="&#xfb;" horiz-adv-x="1148" 
d="M557 1554h324q38 0 59 -49l133 -323q16 -33 0.5 -54.5t-43.5 -21.5h-194q-27 0 -38.5 8.5t-23.5 30.5l-82 145l-131 -145q-16 -17 -22.5 -23t-19.5 -11t-32 -5h-231q-24 0 -34.5 20.5t11.5 55.5l248 325q36 47 76 47zM494 971l-93 -516q-17 -91 17.5 -139t120.5 -48
q78 0 125 49t61 132l92 522q4 18 21 30.5t36 12.5h252q20 0 30.5 -13.5t6.5 -33.5l-162 -920q-5 -20 -19.5 -33.5t-33.5 -13.5h-248q-20 0 -32.5 12.5t-8.5 30.5l9 37q-50 -53 -114.5 -82t-166.5 -29q-183 0 -278 127.5t-62 319.5l98 555q4 18 20.5 30.5t35.5 12.5h252
q18 0 31.5 -12.5t9.5 -30.5z" />
    <glyph glyph-name="udieresis" unicode="&#xfc;" horiz-adv-x="1148" 
d="M252 1305q7 86 72.5 147t150.5 61t139.5 -61t47.5 -147t-73 -147.5t-151 -61.5t-139.5 61.5t-46.5 147.5zM727 1305q7 86 72.5 147t150.5 61t139.5 -61t47.5 -147t-73 -147.5t-151 -61.5t-139.5 61.5t-46.5 147.5zM494 971l-93 -516q-17 -91 17.5 -139t120.5 -48
q78 0 125 49t61 132l92 522q4 18 21 30.5t36 12.5h252q20 0 30.5 -13.5t6.5 -33.5l-162 -920q-5 -20 -19.5 -33.5t-33.5 -13.5h-248q-20 0 -32.5 12.5t-8.5 30.5l9 37q-50 -53 -114.5 -82t-166.5 -29q-183 0 -278 127.5t-62 319.5l98 555q4 18 20.5 30.5t35.5 12.5h252
q18 0 31.5 -12.5t9.5 -30.5z" />
    <glyph glyph-name="yacute" unicode="&#xfd;" horiz-adv-x="1093" 
d="M645 1554h311q40 0 55 -28t-5 -51l-263 -334q-25 -35 -59 -35h-168q-38 0 -56 21t-5 55l133 331q15 41 57 41zM199 -483q-87 0 -168.5 31t-134.5 77q-24 31 10 86l80 125q36 55 106 19q1 -1 10 -5.5l12 -6t12 -5.5l13.5 -6t13.5 -4.5t16 -4t16 -2.5t18 -1q34 0 68 18.5
t55 59.5l51 102h-135q-43 0 -54 49l-106 885q-12 80 70 80h270q35 0 39 -49l41 -656l260 656q20 49 67 49h293q67 0 29 -80l-483 -1069q-52 -113 -112 -187t-150 -117.5t-207 -43.5z" />
    <glyph glyph-name="thorn" unicode="&#xfe;" horiz-adv-x="1204" 
d="M631 733q-96 0 -159.5 -74.5t-63.5 -175.5q0 -88 52 -146t138 -58q96 0 159.5 74t63.5 175q0 88 -52 146.5t-138 58.5zM340 90l-86 -498q-5 -21 -20 -34t-35 -13h-250q-20 0 -31.5 13.5t-7.5 33.5l315 1794q5 21 20.5 34.5t35.5 13.5h249q19 0 31 -14t8 -34l-82 -448
q104 104 267 104q174 0 295.5 -133t121.5 -334q0 -134 -42.5 -249t-114.5 -192.5t-168 -121t-203 -43.5q-197 0 -303 121z" />
    <glyph glyph-name="ydieresis" unicode="&#xff;" horiz-adv-x="1093" 
d="M182 1305q7 86 73 147t151 61t139.5 -61t46.5 -147t-73 -147.5t-150 -61.5t-140 61.5t-47 147.5zM657 1305q7 86 73 147t151 61t139.5 -61t46.5 -147t-73 -147.5t-150 -61.5t-140 61.5t-47 147.5zM199 -483q-87 0 -168.5 31t-134.5 77q-24 31 10 86l80 125q36 55 106 19
q1 -1 10 -5.5l12 -6t12 -5.5l13.5 -6t13.5 -4.5t16 -4t16 -2.5t18 -1q34 0 68 18.5t55 59.5l51 102h-135q-43 0 -54 49l-106 885q-12 80 70 80h270q35 0 39 -49l41 -656l260 656q20 49 67 49h293q67 0 29 -80l-483 -1069q-52 -113 -112 -187t-150 -117.5t-207 -43.5z" />
    <glyph glyph-name="Amacron" unicode="&#x100;" horiz-adv-x="1398" 
d="M1223 1556h-711q-23 0 -34.5 14.5t-6.5 37.5l33 194q4 23 21 37t40 14h711q23 0 34.5 -14t6.5 -37l-33 -194q-5 -23 -21.5 -37.5t-39.5 -14.5zM868 608l-69 514l-230 -514h299zM432 301l-115 -256q-18 -45 -57 -45h-287q-31 0 -42 23t6 61l630 1298q24 52 70 52h430
q45 0 53 -52l203 -1298q7 -40 -11 -62t-50 -22h-273q-39 0 -45 45l-37 256h-475z" />
    <glyph glyph-name="amacron" unicode="&#x101;" 
d="M1065 1137h-711q-23 0 -34.5 14t-6.5 37l33 194q5 23 22 37.5t40 14.5h710q23 0 34.5 -14.5t6.5 -37.5l-33 -194q-4 -23 -21 -37t-40 -14zM578 274q96 0 159.5 74.5t63.5 175.5q0 88 -52.5 146.5t-138.5 58.5q-96 0 -159.5 -74.5t-63.5 -175.5q0 -88 52.5 -146.5
t138.5 -58.5zM37 444q0 133 45 247.5t119 190.5t168.5 119t195.5 43q198 0 303 -120l9 43q4 23 19 35t34 12h252q19 0 30 -14t7 -33l-162 -920q-5 -20 -20.5 -33.5t-35.5 -13.5h-249q-20 0 -32 14t-7 33l8 41q-39 -50 -108 -84.5t-169 -34.5q-178 0 -292.5 135t-114.5 340z
" />
    <glyph glyph-name="Abreve" unicode="&#x102;" horiz-adv-x="1398" 
d="M799 1935l-4 -26q-7 -53 18.5 -83t75.5 -30q51 0 89.5 30.5t45.5 82.5l4 26q5 19 18.5 32t30.5 13h226q17 0 26.5 -13t5.5 -32l-8 -55q-25 -167 -147 -265.5t-310 -98.5q-189 0 -290 102t-72 266l8 51q5 19 18.5 32t30.5 13h201q17 0 27 -13t6 -32zM868 608l-69 514
l-230 -514h299zM432 301l-115 -256q-18 -45 -57 -45h-287q-31 0 -42 23t6 61l630 1298q24 52 70 52h430q45 0 53 -52l203 -1298q7 -40 -11 -62t-50 -22h-273q-39 0 -45 45l-37 256h-475z" />
    <glyph glyph-name="abreve" unicode="&#x103;" 
d="M641 1516l-4 -27q-7 -53 18.5 -83t75.5 -30q51 0 89.5 30.5t45.5 82.5l4 27q5 19 19 32t31 13h225q17 0 27 -13t6 -32l-9 -56q-25 -167 -146.5 -265.5t-309.5 -98.5q-190 0 -291 102t-72 266l8 52q5 19 19 32t31 13h200q17 0 27 -13t6 -32zM578 274q96 0 159.5 74.5
t63.5 175.5q0 88 -52.5 146.5t-138.5 58.5q-96 0 -159.5 -74.5t-63.5 -175.5q0 -88 52.5 -146.5t138.5 -58.5zM37 444q0 133 45 247.5t119 190.5t168.5 119t195.5 43q198 0 303 -120l9 43q4 23 19 35t34 12h252q19 0 30 -14t7 -33l-162 -920q-5 -20 -20.5 -33.5t-35.5 -13.5
h-249q-20 0 -32 14t-7 33l8 41q-39 -50 -108 -84.5t-169 -34.5q-178 0 -292.5 135t-114.5 340z" />
    <glyph glyph-name="Aogonek" unicode="&#x104;" horiz-adv-x="1398" 
d="M868 608l-69 514l-230 -514h299zM1278 -299l-14 -88q-4 -38 -85 -62t-163 -24q-102 0 -162.5 45.5t-60.5 134.5q0 144 206 293h-10q-39 0 -45 45l-37 256h-475l-115 -256q-18 -45 -57 -45h-287q-31 0 -42 23t6 61l630 1298q24 52 70 52h430q45 0 53 -52l203 -1298
q7 -40 -11 -62t-50 -22h-68q-52 -59 -81.5 -111t-29.5 -79q0 -64 74 -64q22 0 51.5 5t34.5 5q19 0 29 -13.5t6 -41.5z" />
    <glyph glyph-name="aogonek" unicode="&#x105;" 
d="M578 274q96 0 159.5 74.5t63.5 175.5q0 88 -52.5 146.5t-138.5 58.5q-96 0 -159.5 -74.5t-63.5 -175.5q0 -88 52.5 -146.5t138.5 -58.5zM1053 -238l-15 -88q-4 -38 -84.5 -62t-162.5 -24q-102 0 -163 46t-61 135q0 123 152 247q-9 12 -6 31l8 41q-39 -50 -108 -84.5
t-169 -34.5q-178 0 -292.5 135t-114.5 340q0 133 45 247.5t119 190.5t168.5 119t195.5 43q198 0 303 -120l9 43q4 23 19 35t34 12h252q19 0 30 -14t7 -33l-162 -920q-5 -20 -20.5 -33.5t-35.5 -13.5h-81q-62 -89 -62 -129q0 -64 74 -64q22 0 51.5 5.5t34.5 5.5q19 0 29 -14
t6 -42z" />
    <glyph glyph-name="Cacute" unicode="&#x106;" horiz-adv-x="1474" 
d="M1022 1968h311q40 0 54.5 -28.5t-5.5 -51.5l-262 -334q-24 -34 -59 -34h-168q-38 0 -56.5 20.5t-5.5 54.5l134 332q15 41 57 41zM451 674q0 -173 103.5 -278t258.5 -105q108 0 185 50.5t139 141.5l3 6q4 6 5.5 8.5t6.5 7t10 6t13 0.5t17 -5l240 -115q8 -4 13.5 -8
t7.5 -8.5t3.5 -7.5t-0.5 -8.5t-2.5 -7.5t-4 -8t-3.5 -7q-96 -178 -267.5 -274.5t-383.5 -96.5q-157 0 -291.5 54.5t-227 149t-144.5 223t-52 274.5q0 163 60 310.5t162 254t244 169t300 62.5q262 0 449 -137t237 -364q0 -1 0.5 -7t0.5 -9.5t-2 -10t-5 -11t-10 -8.5t-17 -6
l-246 -49q-45 -9 -57 31q-90 246 -330 246q-117 0 -212.5 -62.5t-149 -168.5t-53.5 -232z" />
    <glyph glyph-name="cacute" unicode="&#x107;" horiz-adv-x="1038" 
d="M696 1548h312q40 0 54.5 -28.5t-5.5 -51.5l-262 -333q-25 -35 -60 -35h-168q-38 0 -56 21t-5 55l133 331q15 41 57 41zM961 154q-70 -85 -176 -135t-242 -50q-150 0 -267 67.5t-178 180t-61 248.5q0 165 74 298.5t200 207t277 73.5q178 0 300 -79t165 -193
q7 -26 -4.5 -51t-36.5 -39l-148 -80q-54 -31 -90 29q-63 100 -176 100q-91 0 -153 -74t-62 -178q0 -81 49.5 -138.5t126.5 -57.5q101 0 176 75q50 44 94 4l123 -110q19 -18 22.5 -46t-13.5 -52z" />
    <glyph glyph-name="Ccircumflex" unicode="&#x108;" horiz-adv-x="1474" 
d="M862 1968h324q38 0 59 -49l133 -324q16 -33 0.5 -54t-43.5 -21h-194q-27 0 -38.5 8.5t-23.5 30.5l-82 145l-131 -145q-16 -18 -22 -23.5t-19 -10.5t-32 -5h-232q-24 0 -34 20t12 55l247 326q36 47 76 47zM451 674q0 -173 103.5 -278t258.5 -105q108 0 185 50.5t139 141.5
l3 6q4 6 5.5 8.5t6.5 7t10 6t13 0.5t17 -5l240 -115q8 -4 13.5 -8t7.5 -8.5t3.5 -7.5t-0.5 -8.5t-2.5 -7.5t-4 -8t-3.5 -7q-96 -178 -267.5 -274.5t-383.5 -96.5q-157 0 -291.5 54.5t-227 149t-144.5 223t-52 274.5q0 163 60 310.5t162 254t244 169t300 62.5q262 0 449 -137
t237 -364q0 -1 0.5 -7t0.5 -9.5t-2 -10t-5 -11t-10 -8.5t-17 -6l-246 -49q-45 -9 -57 31q-90 246 -330 246q-117 0 -212.5 -62.5t-149 -168.5t-53.5 -232z" />
    <glyph glyph-name="ccircumflex" unicode="&#x109;" horiz-adv-x="1038" 
d="M537 1548h323q39 0 60 -49l133 -323q16 -33 0.5 -54.5t-43.5 -21.5h-195q-27 0 -38 8t-23 31l-82 145l-131 -145q-16 -17 -22.5 -23t-19.5 -11t-32 -5h-231q-24 0 -34.5 20.5t11.5 55.5l248 325q36 47 76 47zM961 154q-70 -85 -176 -135t-242 -50q-150 0 -267 67.5
t-178 180t-61 248.5q0 165 74 298.5t200 207t277 73.5q178 0 300 -79t165 -193q7 -26 -4.5 -51t-36.5 -39l-148 -80q-54 -31 -90 29q-63 100 -176 100q-91 0 -153 -74t-62 -178q0 -81 49.5 -138.5t126.5 -57.5q101 0 176 75q50 44 94 4l123 -110q19 -18 22.5 -46t-13.5 -52z
" />
    <glyph glyph-name="Cdotaccent" unicode="&#x10a;" horiz-adv-x="1474" 
d="M975 1518q-94 0 -155.5 67.5t-53.5 161.5q7 93 82 161t168 68q95 0 156 -67.5t53 -161.5t-81.5 -161.5t-168.5 -67.5zM451 674q0 -173 103.5 -278t258.5 -105q108 0 185 50.5t139 141.5l3 6q4 6 5.5 8.5t6.5 7t10 6t13 0.5t17 -5l240 -115q8 -4 13.5 -8t7.5 -8.5
t3.5 -7.5t-0.5 -8.5t-2.5 -7.5t-4 -8t-3.5 -7q-96 -178 -267.5 -274.5t-383.5 -96.5q-157 0 -291.5 54.5t-227 149t-144.5 223t-52 274.5q0 163 60 310.5t162 254t244 169t300 62.5q262 0 449 -137t237 -364q0 -1 0.5 -7t0.5 -9.5t-2 -10t-5 -11t-10 -8.5t-17 -6l-246 -49
q-45 -9 -57 31q-90 246 -330 246q-117 0 -212.5 -62.5t-149 -168.5t-53.5 -232z" />
    <glyph glyph-name="cdotaccent" unicode="&#x10b;" horiz-adv-x="1038" 
d="M649 1098q-94 0 -155.5 67.5t-53.5 161.5q7 93 82 161t168 68q95 0 156 -67.5t53 -161.5t-81.5 -161.5t-168.5 -67.5zM961 154q-70 -85 -176 -135t-242 -50q-150 0 -267 67.5t-178 180t-61 248.5q0 165 74 298.5t200 207t277 73.5q178 0 300 -79t165 -193q7 -26 -4.5 -51
t-36.5 -39l-148 -80q-54 -31 -90 29q-63 100 -176 100q-91 0 -153 -74t-62 -178q0 -81 49.5 -138.5t126.5 -57.5q101 0 176 75q50 44 94 4l123 -110q19 -18 22.5 -46t-13.5 -52z" />
    <glyph glyph-name="Ccaron" unicode="&#x10c;" horiz-adv-x="1474" 
d="M1108 1520h-324q-38 0 -59 49l-133 323q-12 32 4 54t39 22h196q27 0 38.5 -8.5t23.5 -30.5l80 -145l133 145q16 17 22.5 23t19.5 11t32 5h229q25 0 36.5 -20.5t-13.5 -55.5l-248 -323q-37 -49 -76 -49zM451 674q0 -173 103.5 -278t258.5 -105q108 0 185 50.5t139 141.5
l3 6q4 6 5.5 8.5t6.5 7t10 6t13 0.5t17 -5l240 -115q8 -4 13.5 -8t7.5 -8.5t3.5 -7.5t-0.5 -8.5t-2.5 -7.5t-4 -8t-3.5 -7q-96 -178 -267.5 -274.5t-383.5 -96.5q-157 0 -291.5 54.5t-227 149t-144.5 223t-52 274.5q0 163 60 310.5t162 254t244 169t300 62.5q262 0 449 -137
t237 -364q0 -1 0.5 -7t0.5 -9.5t-2 -10t-5 -11t-10 -8.5t-17 -6l-246 -49q-45 -9 -57 31q-90 246 -330 246q-117 0 -212.5 -62.5t-149 -168.5t-53.5 -232z" />
    <glyph glyph-name="ccaron" unicode="&#x10d;" horiz-adv-x="1038" 
d="M782 1100h-323q-39 0 -60 49l-133 324q-12 32 3.5 53.5t39.5 21.5h197q27 0 38 -8t23 -31l80 -145l133 145q16 17 22.5 23t19.5 11t32 5h229q15 0 26.5 -9t13.5 -25.5t-17 -40.5l-248 -324q-37 -49 -76 -49zM961 154q-70 -85 -176 -135t-242 -50q-150 0 -267 67.5
t-178 180t-61 248.5q0 165 74 298.5t200 207t277 73.5q178 0 300 -79t165 -193q7 -26 -4.5 -51t-36.5 -39l-148 -80q-54 -31 -90 29q-63 100 -176 100q-91 0 -153 -74t-62 -178q0 -81 49.5 -138.5t126.5 -57.5q101 0 176 75q50 44 94 4l123 -110q19 -18 22.5 -46t-13.5 -52z
" />
    <glyph glyph-name="Dcaron" unicode="&#x10e;" horiz-adv-x="1501" 
d="M1063 1526h-324q-38 0 -59 49l-133 323q-12 32 4 54t39 22h196q27 0 38.5 -8.5t23.5 -30.5l80 -145l133 145q16 17 22.5 23t19.5 11t32 5h229q25 0 36 -20.5t-14 -55.5l-247 -323q-37 -49 -76 -49zM313 1434h500q305 0 496.5 -179t191.5 -462q0 -176 -66.5 -326
t-179.5 -251.5t-263 -158.5t-316 -57h-615q-23 0 -35.5 15t-7.5 36l236 1333q5 21 21 35.5t38 14.5zM430 338h240q138 0 242 63.5t155 161.5t51 211q0 138 -88.5 230t-247.5 92h-219z" />
    <glyph glyph-name="dcaron" unicode="&#x10f;" horiz-adv-x="1447" 
d="M1315 979l88 117q-43 23 -68.5 72.5t-21.5 103.5q8 81 64 133.5t141 52.5q83 0 141 -60.5t51 -152.5q-11 -103 -83 -192.5t-163 -155.5q-72 -47 -118 -14l-27 20q-40 34 -4 76zM578 274q96 0 159.5 74.5t63.5 175.5q0 88 -52.5 146.5t-138.5 58.5q-96 0 -159.5 -74.5
t-63.5 -175.5q0 -88 52.5 -146.5t138.5 -58.5zM713 47l8 41q-39 -50 -108 -84.5t-169 -34.5q-178 0 -292.5 135t-114.5 340q0 133 45 247.5t119 190.5t168.5 119t195.5 43q196 0 301 -120l80 462q5 20 19.5 34t33.5 14h256q19 0 30 -14t7 -34l-235 -1339q-5 -20 -20.5 -33.5
t-35.5 -13.5h-249q-20 0 -32 14t-7 33z" />
    <glyph glyph-name="Dcroat" unicode="&#x110;" horiz-adv-x="1554" 
d="M729 0h-614q-23 0 -35.5 15t-7.5 36l92 522h-103q-23 0 -35 14.5t-8 37.5l33 184q5 23 21 37t39 14h104l92 524q5 21 21.5 35.5t38.5 14.5h499q305 0 496.5 -179t191.5 -462q0 -176 -66.5 -326t-179.5 -251.5t-263 -158.5t-316 -57zM483 338h240q138 0 242 63.5
t155 161.5t51 211q0 138 -88 230t-247 92h-220l-41 -236h256q23 0 35 -14t8 -37l-32 -184q-5 -23 -21 -37.5t-39 -14.5h-258z" />
    <glyph glyph-name="dslash" unicode="&#x111;" 
d="M578 274q96 0 159.5 74.5t63.5 175.5q0 88 -52.5 146.5t-138.5 58.5q-96 0 -159.5 -74.5t-63.5 -175.5q0 -88 52.5 -146.5t138.5 -58.5zM713 47l8 41q-39 -50 -108 -84.5t-169 -34.5q-178 0 -292.5 135t-114.5 340q0 133 45 247.5t119 190.5t168.5 119t195.5 43
q196 0 301 -120l31 178h-174q-23 0 -35 14t-8 37l20 119q6 23 23.5 37t40.5 14h172l10 63q5 20 19.5 34t33.5 14h256q19 0 30 -14t7 -34l-10 -63h96q23 0 34 -14t5 -37l-20 -119q-5 -23 -21 -37t-39 -14h-94l-186 -1055q-5 -20 -20.5 -33.5t-35.5 -13.5h-249q-20 0 -32 14
t-7 33z" />
    <glyph glyph-name="Emacron" unicode="&#x112;" horiz-adv-x="1294" 
d="M1210 1556h-710q-23 0 -34.5 14.5t-6.5 37.5l33 194q4 23 21 37t40 14h711q23 0 34.5 -14t6.5 -37l-33 -194q-5 -23 -22 -37.5t-40 -14.5zM313 1434h1037q21 0 33 -14.5t8 -37.5l-43 -235q-4 -23 -20.5 -37t-37.5 -14h-725l-39 -215h381q23 0 35 -14.5t8 -37.5l-41 -225
q-5 -23 -20.5 -37t-38.5 -14h-381l-37 -215h744q23 0 34.5 -14t6.5 -37l-41 -236q-5 -23 -21 -37t-39 -14h-1055q-23 0 -35 14t-8 37l236 1333q5 21 21 35.5t38 14.5z" />
    <glyph glyph-name="emacron" unicode="&#x113;" horiz-adv-x="1120" 
d="M1026 1137h-711q-23 0 -34.5 14t-6.5 37l33 194q5 23 22 37.5t40 14.5h710q23 0 34.5 -14.5t6.5 -37.5l-33 -194q-4 -23 -21 -37t-40 -14zM547 -31q-238 0 -375 139t-137 349q0 161 73 295t205.5 213t296.5 79q103 0 189.5 -30.5t144.5 -82t97 -117.5t53.5 -136.5
t7.5 -140.5l-10 -62q-5 -26 -19 -39.5t-47 -13.5h-645v-4q0 -70 46.5 -110t115.5 -40q109 0 190 78q30 30 60 12l200 -129q17 -11 17.5 -32t-11.5 -31q-167 -197 -452 -197zM604 772q-60 0 -114.5 -37.5t-81.5 -113.5h352q-2 42 -18 73t-40.5 47t-49 23.5t-48.5 7.5z" />
    <glyph glyph-name="Ebreve" unicode="&#x114;" horiz-adv-x="1294" 
d="M786 1935l-4 -26q-7 -53 19 -83t76 -30q51 0 89.5 30.5t45.5 82.5l4 26q5 19 18.5 32t30.5 13h225q17 0 27 -13t6 -32l-8 -55q-25 -167 -147 -265.5t-310 -98.5q-189 0 -290 102t-72 266l8 51q5 19 18.5 32t30.5 13h201q17 0 26.5 -13t5.5 -32zM313 1434h1037
q21 0 33 -14.5t8 -37.5l-43 -235q-4 -23 -20.5 -37t-37.5 -14h-725l-39 -215h381q23 0 35 -14.5t8 -37.5l-41 -225q-5 -23 -20.5 -37t-38.5 -14h-381l-37 -215h744q23 0 34.5 -14t6.5 -37l-41 -236q-5 -23 -21 -37t-39 -14h-1055q-23 0 -35 14t-8 37l236 1333q5 21 21 35.5
t38 14.5z" />
    <glyph glyph-name="ebreve" unicode="&#x115;" horiz-adv-x="1120" 
d="M602 1516l-4 -27q-7 -53 18.5 -83t75.5 -30q51 0 89.5 30.5t45.5 82.5l4 27q5 19 19 32t31 13h225q17 0 27 -13t6 -32l-9 -56q-25 -167 -146.5 -265.5t-309.5 -98.5q-190 0 -291 102t-72 266l8 52q5 19 19 32t31 13h200q17 0 27 -13t6 -32zM547 -31q-238 0 -375 139
t-137 349q0 161 73 295t205.5 213t296.5 79q103 0 189.5 -30.5t144.5 -82t97 -117.5t53.5 -136.5t7.5 -140.5l-10 -62q-5 -26 -19 -39.5t-47 -13.5h-645v-4q0 -70 46.5 -110t115.5 -40q109 0 190 78q30 30 60 12l200 -129q17 -11 17.5 -32t-11.5 -31q-167 -197 -452 -197z
M604 772q-60 0 -114.5 -37.5t-81.5 -113.5h352q-2 42 -18 73t-40.5 47t-49 23.5t-48.5 7.5z" />
    <glyph glyph-name="Edotaccent" unicode="&#x116;" horiz-adv-x="1294" 
d="M850 1524q-94 0 -155.5 67.5t-53.5 161.5q7 93 82 161t168 68q95 0 156 -67.5t53 -161.5t-81.5 -161.5t-168.5 -67.5zM313 1434h1037q21 0 33 -14.5t8 -37.5l-43 -235q-4 -23 -20.5 -37t-37.5 -14h-725l-39 -215h381q23 0 35 -14.5t8 -37.5l-41 -225q-5 -23 -20.5 -37
t-38.5 -14h-381l-37 -215h744q23 0 34.5 -14t6.5 -37l-41 -236q-5 -23 -21 -37t-39 -14h-1055q-23 0 -35 14t-8 37l236 1333q5 21 21 35.5t38 14.5z" />
    <glyph glyph-name="edotaccent" unicode="&#x117;" horiz-adv-x="1120" 
d="M666 1104q-94 0 -155.5 67.5t-53.5 161.5q7 93 82 161.5t168 68.5q95 0 155.5 -68t52.5 -162t-81 -161.5t-168 -67.5zM547 -31q-238 0 -375 139t-137 349q0 161 73 295t205.5 213t296.5 79q103 0 189.5 -30.5t144.5 -82t97 -117.5t53.5 -136.5t7.5 -140.5l-10 -62
q-5 -26 -19 -39.5t-47 -13.5h-645v-4q0 -70 46.5 -110t115.5 -40q109 0 190 78q30 30 60 12l200 -129q17 -11 17.5 -32t-11.5 -31q-167 -197 -452 -197zM604 772q-60 0 -114.5 -37.5t-81.5 -113.5h352q-2 42 -18 73t-40.5 47t-49 23.5t-48.5 7.5z" />
    <glyph glyph-name="Eogonek" unicode="&#x118;" horiz-adv-x="1294" 
d="M1020 -299l-14 -88q-4 -38 -85 -62t-163 -24q-102 0 -162.5 45.5t-60.5 134.5q0 144 206 293h-680q-23 0 -35 14t-8 37l236 1333q5 21 21 35.5t38 14.5h1037q21 0 33 -14.5t8 -37.5l-43 -235q-4 -23 -20.5 -37t-37.5 -14h-725l-39 -215h381q23 0 35 -14.5t8 -37.5
l-41 -225q-5 -23 -20.5 -37t-38.5 -14h-381l-37 -215h744q23 0 34.5 -14t6.5 -37l-41 -236q-5 -23 -21 -37t-39 -14h-180q-52 -59 -81.5 -111t-29.5 -79q0 -64 74 -64q22 0 51.5 5t34.5 5q19 0 29 -13.5t6 -41.5z" />
    <glyph glyph-name="eogonek" unicode="&#x119;" horiz-adv-x="1120" 
d="M604 -422q-102 0 -162.5 45.5t-60.5 134.5q0 100 113 213q-214 17 -336.5 152.5t-122.5 333.5q0 161 73 295t205.5 213t296.5 79q103 0 189.5 -30.5t144.5 -82t97 -117.5t53.5 -136.5t7.5 -140.5l-10 -62q-5 -26 -19 -39.5t-47 -13.5h-645v-4q0 -70 46.5 -110t115.5 -40
q109 0 190 78q30 30 60 12l200 -129q17 -11 17.5 -32t-11.5 -31q-104 -122 -262 -170q-65 -86 -65 -135q0 -64 73 -64q22 0 51.5 5t34.5 5q19 0 29 -13.5t6 -41.5l-14 -88q-4 -38 -85 -62t-163 -24zM604 772q-60 0 -114.5 -37.5t-81.5 -113.5h352q-2 42 -18 73t-40.5 47
t-49 23.5t-48.5 7.5z" />
    <glyph glyph-name="Ecaron" unicode="&#x11a;" horiz-adv-x="1294" 
d="M983 1526h-324q-38 0 -59 49l-133 323q-12 32 4 54t39 22h197q27 0 38 -8t23 -31l80 -145l133 145q16 17 22.5 23t19.5 11t32 5h229q25 0 36.5 -20.5t-13.5 -55.5l-248 -323q-37 -49 -76 -49zM313 1434h1037q21 0 33 -14.5t8 -37.5l-43 -235q-4 -23 -20.5 -37t-37.5 -14
h-725l-39 -215h381q23 0 35 -14.5t8 -37.5l-41 -225q-5 -23 -20.5 -37t-38.5 -14h-381l-37 -215h744q23 0 34.5 -14t6.5 -37l-41 -236q-5 -23 -21 -37t-39 -14h-1055q-23 0 -35 14t-8 37l236 1333q5 21 21 35.5t38 14.5z" />
    <glyph glyph-name="ecaron" unicode="&#x11b;" horiz-adv-x="1120" 
d="M799 1106h-324q-38 0 -59 49l-133 324q-12 32 3.5 53.5t39.5 21.5h196q28 0 39.5 -8t22.5 -30l80 -146l133 146q16 17 22.5 23t19 10.5t31.5 4.5h230q25 0 36 -20t-14 -55l-248 -324q-37 -49 -75 -49zM547 -31q-238 0 -375 139t-137 349q0 161 73 295t205.5 213t296.5 79
q103 0 189.5 -30.5t144.5 -82t97 -117.5t53.5 -136.5t7.5 -140.5l-10 -62q-5 -26 -19 -39.5t-47 -13.5h-645v-4q0 -70 46.5 -110t115.5 -40q109 0 190 78q30 30 60 12l200 -129q17 -11 17.5 -32t-11.5 -31q-167 -197 -452 -197zM604 772q-60 0 -114.5 -37.5t-81.5 -113.5
h352q-2 42 -18 73t-40.5 47t-49 23.5t-48.5 7.5z" />
    <glyph glyph-name="Gcircumflex" unicode="&#x11c;" horiz-adv-x="1587" 
d="M854 1974h324q38 0 59 -49l133 -323q16 -33 0.5 -54.5t-43.5 -21.5h-194q-27 0 -38.5 8.5t-23.5 30.5l-82 145l-131 -145q-16 -17 -22.5 -23t-19.5 -11t-32 -5h-231q-24 0 -34.5 20.5t11.5 55.5l248 325q36 47 76 47zM1108 63l12 62q-169 -156 -403 -156
q-135 0 -254 52.5t-203.5 142.5t-133 215.5t-48.5 267.5q0 131 37.5 254t109 224t167.5 177.5t220 119t260 42.5q245 0 420.5 -108t249.5 -312q16 -38 -26 -53l-240 -90q-13 -2 -20 -3.5t-13 4t-8.5 8.5t-5.5 10t-4 8q-52 100 -132.5 155.5t-205.5 55.5q-127 0 -227.5 -66.5
t-153.5 -173.5t-53 -231q0 -169 96.5 -274t265.5 -105q220 0 365 184h-349q-23 0 -35 14t-8 37l35 193q5 23 21 37t39 14h628q23 0 35 -14t8 -37l-116 -666q-4 -23 -21.5 -37t-40.5 -14h-219q-60 0 -49 63z" />
    <glyph glyph-name="gcircumflex" unicode="&#x11d;" 
d="M588 1554h323q39 0 60 -49l133 -323q16 -33 0.5 -54.5t-43.5 -21.5h-195q-27 0 -38 8t-23 31l-82 145l-131 -145q-16 -17 -22.5 -23t-19.5 -11t-32 -5h-231q-24 0 -34.5 20.5t11.5 55.5l248 325q36 47 76 47zM582 307q97 0 161 70t64 170q0 87 -53 140.5t-140 53.5
q-97 0 -159 -69.5t-62 -169.5q0 -87 51 -141t138 -54zM442 -485q-105 0 -197 27t-153.5 69.5t-102 88t-57.5 89.5q-8 21 -9 36.5t8 27.5t13 15t19 12q3 2 4 3l168 92q18 11 33 13t26.5 -6t17 -13t13.5 -16q100 -127 242 -127q97 0 156.5 49t74.5 119l25 106q-34 -34 -99 -59
t-151 -25q-181 0 -306.5 128.5t-125.5 326.5q0 128 43 237.5t115 182t165.5 113t194.5 40.5q206 0 311 -120l9 43q4 23 19 35t34 12h252q19 0 30 -14t7 -33l-179 -977q-41 -231 -197 -353t-403 -122z" />
    <glyph glyph-name="Gbreve" unicode="&#x11e;" horiz-adv-x="1587" 
d="M903 1935l-4 -26q-7 -53 18.5 -83t75.5 -30q51 0 89.5 30.5t45.5 82.5l5 26q5 19 18.5 32t30.5 13h225q17 0 27 -13t6 -32l-8 -55q-25 -167 -147 -265.5t-310 -98.5q-190 0 -291 102t-72 266l9 51q5 19 18.5 32t30.5 13h200q17 0 27 -13t6 -32zM1108 63l12 62
q-169 -156 -403 -156q-135 0 -254 52.5t-203.5 142.5t-133 215.5t-48.5 267.5q0 131 37.5 254t109 224t167.5 177.5t220 119t260 42.5q245 0 420.5 -108t249.5 -312q16 -38 -26 -53l-240 -90q-13 -2 -20 -3.5t-13 4t-8.5 8.5t-5.5 10t-4 8q-52 100 -132.5 155.5t-205.5 55.5
q-127 0 -227.5 -66.5t-153.5 -173.5t-53 -231q0 -169 96.5 -274t265.5 -105q220 0 365 184h-349q-23 0 -35 14t-8 37l35 193q5 23 21 37t39 14h628q23 0 35 -14t8 -37l-116 -666q-4 -23 -21.5 -37t-40.5 -14h-219q-60 0 -49 63z" />
    <glyph glyph-name="gbreve" unicode="&#x11f;" 
d="M637 1516l-4 -27q-7 -53 18.5 -83t75.5 -30q51 0 89.5 30.5t45.5 82.5l4 27q5 19 18.5 32t30.5 13h226q17 0 27 -13t6 -32l-9 -56q-25 -167 -146.5 -265.5t-309.5 -98.5q-190 0 -291 102t-72 266l8 52q5 19 18.5 32t30.5 13h201q17 0 27 -13t6 -32zM582 307q97 0 161 70
t64 170q0 87 -53 140.5t-140 53.5q-97 0 -159 -69.5t-62 -169.5q0 -87 51 -141t138 -54zM442 -485q-105 0 -197 27t-153.5 69.5t-102 88t-57.5 89.5q-8 21 -9 36.5t8 27.5t13 15t19 12q3 2 4 3l168 92q18 11 33 13t26.5 -6t17 -13t13.5 -16q100 -127 242 -127q97 0 156.5 49
t74.5 119l25 106q-34 -34 -99 -59t-151 -25q-181 0 -306.5 128.5t-125.5 326.5q0 128 43 237.5t115 182t165.5 113t194.5 40.5q206 0 311 -120l9 43q4 23 19 35t34 12h252q19 0 30 -14t7 -33l-179 -977q-41 -231 -197 -353t-403 -122z" />
    <glyph glyph-name="Gdotaccent" unicode="&#x120;" horiz-adv-x="1587" 
d="M967 1524q-94 0 -155.5 67.5t-53.5 161.5q7 93 82 161t168 68q95 0 156 -67.5t53 -161.5t-81.5 -161.5t-168.5 -67.5zM1108 63l12 62q-169 -156 -403 -156q-135 0 -254 52.5t-203.5 142.5t-133 215.5t-48.5 267.5q0 131 37.5 254t109 224t167.5 177.5t220 119t260 42.5
q245 0 420.5 -108t249.5 -312q16 -38 -26 -53l-240 -90q-13 -2 -20 -3.5t-13 4t-8.5 8.5t-5.5 10t-4 8q-52 100 -132.5 155.5t-205.5 55.5q-127 0 -227.5 -66.5t-153.5 -173.5t-53 -231q0 -169 96.5 -274t265.5 -105q220 0 365 184h-349q-23 0 -35 14t-8 37l35 193
q5 23 21 37t39 14h628q23 0 35 -14t8 -37l-116 -666q-4 -23 -21.5 -37t-40.5 -14h-219q-60 0 -49 63z" />
    <glyph glyph-name="gdotaccent" unicode="&#x121;" 
d="M700 1104q-93 0 -154.5 67.5t-53.5 161.5q7 93 81.5 161.5t167.5 68.5q95 0 156 -68t53 -162t-81.5 -161.5t-168.5 -67.5zM582 307q97 0 161 70t64 170q0 87 -53 140.5t-140 53.5q-97 0 -159 -69.5t-62 -169.5q0 -87 51 -141t138 -54zM442 -485q-105 0 -197 27
t-153.5 69.5t-102 88t-57.5 89.5q-8 21 -9 36.5t8 27.5t13 15t19 12q3 2 4 3l168 92q18 11 33 13t26.5 -6t17 -13t13.5 -16q100 -127 242 -127q97 0 156.5 49t74.5 119l25 106q-34 -34 -99 -59t-151 -25q-181 0 -306.5 128.5t-125.5 326.5q0 128 43 237.5t115 182t165.5 113
t194.5 40.5q206 0 311 -120l9 43q4 23 19 35t34 12h252q19 0 30 -14t7 -33l-179 -977q-41 -231 -197 -353t-403 -122z" />
    <glyph glyph-name="Gcommaaccent" unicode="&#x122;" horiz-adv-x="1587" 
d="M1108 63l12 62q-169 -156 -403 -156q-135 0 -254 52.5t-203.5 142.5t-133 215.5t-48.5 267.5q0 131 37.5 254t109 224t167.5 177.5t220 119t260 42.5q245 0 420.5 -108t249.5 -312q16 -38 -26 -53l-240 -90q-13 -2 -20 -3.5t-13 4t-8.5 8.5t-5.5 10t-4 8
q-52 100 -132.5 155.5t-205.5 55.5q-127 0 -227.5 -66.5t-153.5 -173.5t-53 -231q0 -169 96.5 -274t265.5 -105q220 0 365 184h-349q-23 0 -35 14t-8 37l35 193q5 23 21 37t39 14h628q23 0 35 -14t8 -37l-116 -666q-4 -23 -21.5 -37t-40.5 -14h-219q-60 0 -49 63zM479 -582
l96 113q-47 23 -71 69t-19 101q8 83 65 136.5t142 53.5q80 0 139 -63t52 -154q-18 -196 -254 -338q-69 -52 -119 -14l-25 19q-44 36 -6 77z" />
    <glyph glyph-name="gcommaaccent" unicode="&#x123;" 
d="M905 1647l-125 -131q51 -29 79 -83t24 -114q-11 -92 -73 -149.5t-153 -57.5q-92 0 -155 69t-56 173q5 55 28 108t52 91t72.5 76.5t73.5 60.5t69 47q80 53 129 14l29 -20q22 -18 23 -42t-17 -42zM582 307q97 0 161 70t64 170q0 87 -53 140.5t-140 53.5q-97 0 -159 -69.5
t-62 -169.5q0 -87 51 -141t138 -54zM442 -485q-105 0 -197 27t-153.5 69.5t-102 88t-57.5 89.5q-8 21 -9 36.5t8 27.5t13 15t19 12q3 2 4 3l168 92q18 11 33 13t26.5 -6t17 -13t13.5 -16q100 -127 242 -127q97 0 156.5 49t74.5 119l25 106q-34 -34 -99 -59t-151 -25
q-181 0 -306.5 128.5t-125.5 326.5q0 128 43 237.5t115 182t165.5 113t194.5 40.5q206 0 311 -120l9 43q4 23 19 35t34 12h252q19 0 30 -14t7 -33l-179 -977q-41 -231 -197 -353t-403 -122z" />
    <glyph glyph-name="Hcircumflex" unicode="&#x124;" horiz-adv-x="1488" 
d="M807 1974h323q39 0 60 -49l133 -323q16 -33 0.5 -54.5t-43.5 -21.5h-195q-27 0 -38 8t-23 31l-82 145l-131 -145q-16 -17 -22.5 -23t-19.5 -11t-32 -5h-231q-24 0 -34.5 20.5t11.5 55.5l248 325q36 47 76 47zM1546 1384l-233 -1333q-4 -23 -21.5 -37t-38.5 -14h-262
q-21 0 -33 14t-8 37l88 502h-569l-88 -502q-5 -23 -20.5 -37t-38.5 -14h-261q-23 0 -35 14t-8 37l236 1333q5 21 21 35.5t38 14.5h260q23 0 35.5 -14.5t7.5 -35.5l-90 -503h572l88 503q5 21 21 35.5t38 14.5h260q23 0 34.5 -14.5t6.5 -35.5z" />
    <glyph glyph-name="hcircumflex" unicode="&#x125;" horiz-adv-x="1185" 
d="M657 1974h324q38 0 59 -49l134 -323q16 -33 0 -54.5t-44 -21.5h-194q-27 0 -38.5 8.5t-23.5 30.5l-81 145l-131 -145q-16 -17 -22.5 -23t-19.5 -11t-32 -5h-232q-24 0 -34 20.5t12 55.5l248 325q36 47 75 47zM412 465l-76 -422q-4 -18 -21 -30.5t-36 -12.5h-250
q-20 0 -31.5 13.5t-7.5 33.5l237 1339q5 20 20 34t34 14h254q19 0 31.5 -12.5t8.5 -30.5l-81 -447q115 100 268 100q91 0 168 -32t131.5 -95t75.5 -156.5t0 -215.5l-88 -502q-4 -18 -20.5 -30.5t-35.5 -12.5h-252q-20 0 -32.5 12.5t-8.5 30.5l82 465q39 211 -141 211
q-87 0 -146.5 -65.5t-82.5 -188.5z" />
    <glyph glyph-name="Hbar" unicode="&#x126;" horiz-adv-x="1511" 
d="M539 881h571l25 143h-570zM481 553l-88 -502q-5 -23 -20.5 -37t-38.5 -14h-260q-23 0 -35 14t-8 37l172 973h-56q-23 0 -35 14t-8 37l25 150q6 23 23.5 37t40.5 14h55l18 108q5 21 21.5 35.5t38.5 14.5h260q23 0 35.5 -14.5t7.5 -35.5l-19 -108h570l18 108q5 21 21 35.5
t38 14.5h261q23 0 34.5 -14.5t6.5 -35.5l-19 -108h53q23 0 34 -14t5 -37l-24 -150q-5 -23 -21 -37t-39 -14h-53l-170 -973q-4 -23 -21 -37t-38 -14h-262q-21 0 -33 14t-8 37l88 502h-570z" />
    <glyph glyph-name="hbar" unicode="&#x127;" horiz-adv-x="1185" 
d="M412 465l-76 -422q-4 -18 -21 -30.5t-36 -12.5h-250q-20 0 -31.5 13.5t-7.5 33.5l186 1055h-78q-23 0 -35 14t-8 37l21 119q4 23 21 37t40 14h80l10 63q5 20 20 34t34 14h254q19 0 31.5 -12.5t8.5 -30.5l-12 -68h189q23 0 34.5 -14t6.5 -37l-21 -119q-5 -23 -20.5 -37
t-38.5 -14h-191l-28 -158q115 100 268 100q91 0 168 -32t131.5 -95t75.5 -156.5t0 -215.5l-88 -502q-4 -18 -20.5 -30.5t-35.5 -12.5h-252q-20 0 -32.5 12.5t-8.5 30.5l82 465q39 211 -141 211q-87 0 -146.5 -65.5t-82.5 -188.5z" />
    <glyph glyph-name="Itilde" unicode="&#x128;" horiz-adv-x="557" 
d="M283 1937q55 0 178 -31.5t153 -31.5q40 0 73 17.5t58 35t46 17.5q30 0 45 -35l47 -121q16 -43 10 -70q-8 -53 -100.5 -111.5t-186.5 -58.5q-63 0 -185.5 32t-146.5 32q-40 0 -71.5 -17.5t-54.5 -35t-44 -17.5q-16 0 -24.5 7.5t-20.5 27.5l-57 121q-15 36 -10 67
q8 54 103.5 113t187.5 59zM322 0h-261q-23 0 -35 14t-8 37l236 1333q5 21 21 35.5t38 14.5h260q23 0 34.5 -14.5t6.5 -35.5l-235 -1333q-10 -51 -57 -51z" />
    <glyph glyph-name="itilde" unicode="&#x129;" horiz-adv-x="487" 
d="M174 1518q55 0 178.5 -32t153.5 -32q40 0 73 17.5t57.5 35t45.5 17.5q30 0 45 -35l47 -121q16 -43 10 -70q-8 -53 -100 -111.5t-186 -58.5q-63 0 -185.5 32t-146.5 32q-40 0 -71.5 -17.5t-54.5 -35t-44 -17.5q-16 0 -24.5 7.5t-20.5 27.5l-57 121q-16 38 -11 68
q8 54 103.5 113t187.5 59zM283 0h-252q-20 0 -31.5 14.5t-7.5 34.5l162 918q5 21 20 34t35 13h254q19 0 30 -13.5t7 -33.5l-162 -918q-5 -21 -20 -35t-35 -14z" />
    <glyph glyph-name="Imacron" unicode="&#x12a;" horiz-adv-x="557" 
d="M813 1556h-711q-23 0 -34.5 14.5t-6.5 37.5l33 194q4 23 21.5 37t40.5 14h710q23 0 34.5 -14t6.5 -37l-33 -194q-5 -23 -21.5 -37.5t-39.5 -14.5zM322 0h-261q-23 0 -35 14t-8 37l236 1333q5 21 21 35.5t38 14.5h260q23 0 34.5 -14.5t6.5 -35.5l-235 -1333
q-10 -51 -57 -51z" />
    <glyph glyph-name="imacron" unicode="&#x12b;" horiz-adv-x="487" 
d="M705 1137h-711q-23 0 -34.5 14t-6.5 37l33 194q5 23 21.5 37.5t39.5 14.5h711q23 0 34.5 -14.5t6.5 -37.5l-33 -194q-4 -23 -21 -37t-40 -14zM283 0h-252q-20 0 -31.5 14.5t-7.5 34.5l162 918q5 21 20 34t35 13h254q19 0 30 -13.5t7 -33.5l-162 -918q-5 -21 -20 -35
t-35 -14z" />
    <glyph glyph-name="Ibreve" unicode="&#x12c;" horiz-adv-x="557" 
d="M389 1935l-4 -26q-7 -53 18.5 -83t75.5 -30q51 0 89.5 30.5t45.5 82.5l4 26q5 19 19 32t31 13h225q17 0 27 -13t6 -32l-8 -55q-25 -167 -147 -265.5t-310 -98.5q-190 0 -291 102t-72 266l8 51q5 19 19 32t31 13h200q17 0 27 -13t6 -32zM322 0h-261q-23 0 -35 14t-8 37
l236 1333q5 21 21 35.5t38 14.5h260q23 0 34.5 -14.5t6.5 -35.5l-235 -1333q-10 -51 -57 -51z" />
    <glyph glyph-name="ibreve" unicode="&#x12d;" horiz-adv-x="487" 
d="M281 1516l-5 -27q-7 -53 19 -83t76 -30q51 0 89.5 30.5t45.5 82.5l4 27q5 19 18.5 32t30.5 13h225q17 0 27 -13t6 -32l-8 -56q-25 -167 -147 -265.5t-310 -98.5q-189 0 -290 102t-72 266l8 52q5 19 18.5 32t30.5 13h201q17 0 27 -13t6 -32zM283 0h-252q-20 0 -31.5 14.5
t-7.5 34.5l162 918q5 21 20 34t35 13h254q19 0 30 -13.5t7 -33.5l-162 -918q-5 -21 -20 -35t-35 -14z" />
    <glyph glyph-name="Iogonek" unicode="&#x12e;" horiz-adv-x="557" 
d="M375 -299l-15 -88q-4 -38 -84.5 -62t-162.5 -24q-102 0 -163 45.5t-61 134.5q0 143 207 293h-35q-23 0 -35 14t-8 37l236 1333q5 21 21 35.5t38 14.5h260q23 0 34.5 -14.5t6.5 -35.5l-235 -1333q-10 -51 -57 -51h-31q-52 -59 -81.5 -111t-29.5 -79q0 -64 74 -64
q22 0 51.5 5t34.5 5q19 0 29 -13.5t6 -41.5z" />
    <glyph glyph-name="iogonek" unicode="&#x12f;" horiz-adv-x="487" 
d="M367 1081q-82 0 -135 60t-48 143q8 82 72 142.5t145 60.5t135 -60.5t46 -142.5q-4 -82 -68.5 -142.5t-146.5 -60.5zM299 -299l-14 -88q-4 -38 -85 -62t-163 -24q-102 0 -162.5 45.5t-60.5 134.5q0 147 206 293q-39 10 -30 49l164 918q5 21 20 34t35 13h254q19 0 30 -13.5
t7 -33.5l-162 -918q-5 -21 -20 -35t-35 -14h-68q-52 -59 -81.5 -111t-29.5 -79q0 -64 74 -64q22 0 51.5 5t34.5 5q19 0 29 -13.5t6 -41.5z" />
    <glyph glyph-name="Idot" unicode="&#x130;" horiz-adv-x="557" 
d="M453 1524q-94 0 -155.5 67.5t-53.5 161.5q7 93 82 161t168 68q95 0 155.5 -67.5t52.5 -161.5t-81 -161.5t-168 -67.5zM322 0h-261q-23 0 -35 14t-8 37l236 1333q5 21 21 35.5t38 14.5h260q23 0 34.5 -14.5t6.5 -35.5l-235 -1333q-10 -51 -57 -51z" />
    <glyph glyph-name="dotlessi" unicode="&#x131;" horiz-adv-x="487" 
d="M283 0h-252q-20 0 -31.5 14.5t-7.5 34.5l162 918q5 21 20 34t35 13h254q19 0 30 -13.5t7 -33.5l-162 -918q-5 -21 -20 -35t-35 -14z" />
    <glyph glyph-name="IJ" unicode="&#x132;" horiz-adv-x="1777" 
d="M322 0h-261q-23 0 -35 14t-8 37l236 1333q5 21 21 35.5t38 14.5h260q23 0 34.5 -14.5t6.5 -35.5l-235 -1333q-10 -51 -57 -51zM1847 1384l-164 -923q-43 -244 -199 -368t-388 -124q-108 0 -205.5 34.5t-172.5 99.5t-110 171.5t-14 237.5l12 74q5 21 21 35t39 14h252
q20 0 31.5 -14.5t6.5 -34.5l-16 -92q-17 -91 31.5 -145t142.5 -54q97 0 148.5 58.5t64.5 150.5l158 880q5 21 21 35.5t38 14.5h260q23 0 35.5 -14.5t7.5 -35.5z" />
    <glyph glyph-name="ij" unicode="&#x133;" horiz-adv-x="980" 
d="M860 1081q-82 0 -134.5 60t-47.5 143q8 82 72 142.5t145 60.5t134.5 -60.5t45.5 -142.5q-4 -82 -68.5 -142.5t-146.5 -60.5zM367 1081q-82 0 -135 60t-48 143q8 82 72 142.5t145 60.5t135 -60.5t46 -142.5q-4 -82 -68.5 -142.5t-146.5 -60.5zM283 0h-254
q-20 0 -31.5 14.5t-7.5 34.5l164 918q5 21 20 34t35 13h254q19 0 30 -13.5t7 -33.5l-162 -918q-5 -21 -20 -35t-35 -14zM463 -70l184 1035q5 21 20 35t35 14h252q19 0 31 -14.5t8 -34.5l-188 -1069q-35 -194 -149.5 -287.5t-282.5 -93.5q-83 0 -165.5 29.5t-127.5 82.5
q-28 36 10 86l109 148q15 22 33.5 26.5t30.5 -1t28 -17.5q42 -31 84 -31q29 0 53.5 21.5t34.5 70.5z" />
    <glyph glyph-name="Jcircumflex" unicode="&#x134;" horiz-adv-x="1212" 
d="M1010 1974h323q39 0 60 -49l133 -323q16 -33 0.5 -54.5t-43.5 -21.5h-195q-27 0 -38 8t-23 31l-82 145l-131 -145q-16 -17 -22.5 -23t-19.5 -11t-32 -5h-231q-24 0 -34.5 20.5t11.5 55.5l248 325q36 47 76 47zM1284 1384l-164 -923q-43 -244 -199 -368t-389 -124
q-86 0 -166 21t-149 65.5t-116.5 107.5t-67 153t-2.5 196l12 74q5 21 21 35t38 14h252q20 0 31.5 -14.5t7.5 -34.5l-16 -92q-17 -91 31.5 -145t142.5 -54q97 0 148.5 58.5t64.5 150.5l158 880q5 21 21 35.5t38 14.5h260q23 0 35.5 -14.5t7.5 -35.5z" />
    <glyph glyph-name="jcircumflex" unicode="&#x135;" horiz-adv-x="487" 
d="M231 1554h324q38 0 59 -49l134 -323q16 -33 0.5 -54.5t-43.5 -21.5h-195q-27 0 -38 8t-23 31l-82 145l-131 -145q-16 -17 -22.5 -23t-19.5 -11t-32 -5h-232q-24 0 -34 20.5t12 55.5l248 325q36 47 75 47zM-31 -70l185 1035q5 21 20 35t35 14h252q19 0 31 -14.5t8 -34.5
l-189 -1069q-35 -194 -149.5 -287.5t-282.5 -93.5q-83 0 -165.5 29.5t-127.5 82.5q-28 36 11 86l108 148q15 22 33.5 26.5t30.5 -1t28 -17.5q42 -31 84 -31q29 0 53.5 21.5t34.5 70.5z" />
    <glyph glyph-name="Kcommaaccent" unicode="&#x136;" horiz-adv-x="1363" 
d="M469 553l-90 -502q-10 -51 -57 -51h-261q-23 0 -35 14t-8 37l236 1333q5 21 21 35.5t38 14.5h260q23 0 34.5 -14.5t6.5 -35.5l-88 -503h131l406 508q24 27 44 36t56 9h291q32 0 40 -20.5t-13 -45.5l-537 -631l369 -669q15 -29 2 -48.5t-39 -19.5h-279q-33 0 -48.5 7.5
t-28.5 33.5l-273 512h-178zM387 -582l96 113q-47 23 -71 69t-19 101q8 83 65 136.5t142 53.5q80 0 139 -63t52 -154q-18 -196 -254 -338q-69 -52 -119 -14l-25 19q-44 36 -6 77z" />
    <glyph glyph-name="kcommaaccent" unicode="&#x137;" horiz-adv-x="1085" 
d="M399 397l-61 -350q-5 -21 -20 -34t-35 -13h-252q-21 0 -33 13.5t-8 33.5l237 1339q4 20 20.5 34t35.5 14h254q19 0 29.5 -14t6.5 -34l-124 -702h55l241 293q30 37 74 37h266q38 0 47.5 -26.5t-16.5 -57.5l-350 -398l256 -444q18 -31 1.5 -59.5t-56.5 -28.5h-242
q-29 0 -43 8.5t-25 32.5l-188 356h-70zM223 -582l96 113q-47 23 -71 69t-19 101q8 83 65 136.5t142 53.5q80 0 139 -63t52 -154q-18 -196 -254 -338q-69 -52 -119 -14l-25 19q-44 36 -6 77z" />
    <glyph glyph-name="kgreenlandic" unicode="&#x138;" horiz-adv-x="1087" 
d="M403 424l-65 -377q-5 -21 -20 -34t-35 -13h-252q-21 0 -33 13.5t-8 33.5l162 920q4 20 20 33.5t35 13.5h256q19 0 30 -13.5t7 -33.5l-54 -303h48l251 313q30 37 74 37h266q38 0 47.5 -26.5t-16.5 -57.5l-342 -393l248 -449q18 -31 1.5 -59.5t-56.5 -28.5h-242
q-29 0 -43 8.5t-25 32.5l-194 383h-60z" />
    <glyph glyph-name="Lacute" unicode="&#x139;" horiz-adv-x="1157" 
d="M502 1974h311q40 0 54.5 -28.5t-5.5 -51.5l-262 -333q-25 -35 -59 -35h-168q-38 0 -56.5 21t-5.5 55l133 331q15 41 58 41zM1108 287l-43 -236q-5 -23 -20.5 -37t-38.5 -14h-945q-23 0 -35.5 14.5t-7.5 34.5l236 1333q5 24 20.5 38t38.5 14h260q23 0 34.5 -14.5
t6.5 -37.5l-184 -1044h635q23 0 35 -14t8 -37z" />
    <glyph glyph-name="lacute" unicode="&#x13a;" horiz-adv-x="579" 
d="M457 1974h311q40 0 54.5 -28.5t-5.5 -51.5l-262 -333q-25 -35 -59 -35h-168q-38 0 -56.5 21t-5.5 55l133 331q15 41 58 41zM410 0h-144q-145 0 -203.5 72.5t-39.5 185.5l198 1126q5 21 20.5 35.5t34.5 14.5h254q20 0 31 -15t6 -35l-184 -1050q-4 -17 5 -29t26 -12h67
q45 0 37 -45l-33 -187q-11 -61 -75 -61z" />
    <glyph glyph-name="Lcommaaccent" unicode="&#x13b;" horiz-adv-x="1157" 
d="M1108 287l-43 -236q-5 -23 -20.5 -37t-38.5 -14h-945q-23 0 -35.5 14.5t-7.5 34.5l236 1333q5 24 20.5 38t38.5 14h260q23 0 34.5 -14.5t6.5 -37.5l-184 -1044h635q23 0 35 -14t8 -37zM301 -582l96 113q-47 23 -71 69t-19 101q8 83 65 136.5t142 53.5q80 0 139 -63
t52 -154q-18 -196 -254 -338q-69 -52 -119 -14l-25 19q-44 36 -6 77z" />
    <glyph glyph-name="lcommaaccent" unicode="&#x13c;" horiz-adv-x="579" 
d="M408 0h-144q-145 0 -204 72.5t-40 185.5l199 1126q5 21 20.5 35.5t34.5 14.5h254q20 0 31 -15t6 -35l-184 -1050q-4 -17 5 -29t26 -12h67q45 0 37 -45l-33 -187q-11 -61 -75 -61zM-4 -582l96 113q-47 23 -71 69t-19 101q8 83 65 136.5t142 53.5q80 0 138.5 -63t51.5 -154
q-18 -196 -254 -338q-68 -52 -118 -14l-25 19q-44 36 -6 77z" />
    <glyph glyph-name="Lcaron" unicode="&#x13d;" horiz-adv-x="1161" 
d="M748 979l88 117q-43 24 -69 73.5t-22 102.5q8 81 64 133.5t141 52.5q83 0 141.5 -60.5t51.5 -152.5q-11 -103 -83 -192.5t-163 -155.5q-72 -48 -119 -14l-26 20q-40 34 -4 76zM1108 287l-43 -236q-5 -23 -20.5 -37t-38.5 -14h-945q-23 0 -35.5 14.5t-7.5 34.5l236 1333
q5 24 20.5 38t38.5 14h260q23 0 34.5 -14.5t6.5 -37.5l-184 -1044h635q23 0 35 -14t8 -37z" />
    <glyph glyph-name="lcaron" unicode="&#x13e;" horiz-adv-x="735" 
d="M596 979l88 117q-43 23 -68.5 72.5t-21.5 103.5q8 81 64 133.5t141 52.5q83 0 141 -60.5t51 -152.5q-11 -103 -83 -192.5t-163 -155.5q-72 -47 -118 -14l-27 20q-40 34 -4 76zM410 0h-144q-145 0 -203.5 72.5t-39.5 185.5l198 1126q5 21 20.5 35.5t34.5 14.5h254
q20 0 31 -15t6 -35l-184 -1050q-4 -17 5 -29t26 -12h67q45 0 37 -45l-33 -187q-11 -61 -75 -61z" />
    <glyph glyph-name="Ldot" unicode="&#x13f;" horiz-adv-x="1177" 
d="M1108 287l-43 -236q-5 -23 -20.5 -37t-38.5 -14h-945q-23 0 -35.5 14.5t-7.5 34.5l236 1333q5 24 20.5 38t38.5 14h260q23 0 34.5 -14.5t6.5 -37.5l-184 -1044h635q23 0 35 -14t8 -37zM866 555q-93 0 -155 67t-54 160q8 92 81 160t167 68q93 0 154 -67.5t53 -160.5
t-80.5 -160t-165.5 -67z" />
    <glyph glyph-name="ldot" unicode="&#x140;" horiz-adv-x="851" 
d="M410 0h-144q-145 0 -203.5 72.5t-39.5 185.5l198 1126q5 21 20.5 35.5t34.5 14.5h254q20 0 31 -15t6 -35l-184 -1050q-4 -17 5 -29t26 -12h67q45 0 37 -45l-33 -187q-11 -61 -75 -61zM676 414q-86 0 -140.5 59t-48.5 145q7 85 73 145t151 60q86 0 140 -59.5t46 -145.5
q-4 -84 -70.5 -144t-150.5 -60z" />
    <glyph glyph-name="Lslash" unicode="&#x141;" horiz-adv-x="1216" 
d="M1065 0h-944q-23 0 -35.5 14.5t-7.5 34.5l78 434l-103 -20q-29 -6 -42 7t-7 38l33 188q6 47 47 56l123 26l106 604q5 23 21 37.5t39 14.5h260q23 0 34.5 -14.5t6.5 -37.5l-92 -526l280 59q26 6 40.5 -7t8.5 -38l-32 -188q-6 -46 -48 -55l-303 -64l-39 -225h635
q23 0 35 -14t8 -37l-43 -236q-5 -23 -20.5 -37t-38.5 -14z" />
    <glyph glyph-name="lslash" unicode="&#x142;" horiz-adv-x="614" 
d="M434 0h-143q-145 0 -204 72.5t-40 185.5l35 193l-25 -9q-59 -21 -53 35l29 158q4 22 14.5 31t32.5 16l45 16l121 686q5 21 20.5 35.5t34.5 14.5h254q20 0 31 -15t6 -35l-98 -559l57 21q29 10 43.5 0t9.5 -35l-29 -158q-4 -22 -14.5 -31t-32.5 -16l-77 -26l-43 -246
q-5 -17 4 -29t26 -12h68q45 0 37 -45l-33 -187q-11 -61 -76 -61z" />
    <glyph glyph-name="Nacute" unicode="&#x143;" horiz-adv-x="1468" 
d="M956 1974h312q40 0 54.5 -28.5t-5.5 -51.5l-262 -333q-25 -35 -60 -35h-168q-38 0 -56 21t-5 55l133 331q15 41 57 41zM874 51l-346 862l-149 -864q-9 -49 -55 -49h-263q-24 0 -35.5 13t-7.5 36l236 1335q5 21 21 35.5t38 14.5h320q46 0 61 -41l326 -838l145 829
q5 21 21.5 35.5t36.5 14.5h262q20 0 32.5 -15t8.5 -35l-236 -1335q-4 -23 -20 -36t-37 -13h-262q-77 0 -97 51z" />
    <glyph glyph-name="nacute" unicode="&#x144;" horiz-adv-x="1185" 
d="M750 1554h311q40 0 54.5 -28t-5.5 -51l-262 -334q-25 -35 -60 -35h-167q-38 0 -56.5 21t-5.5 55l133 331q15 41 58 41zM700 43l82 465q39 211 -143 211q-86 0 -145 -65.5t-82 -188.5l-76 -422q-4 -18 -21 -30.5t-36 -12.5h-250q-20 0 -31.5 13.5t-7.5 33.5l164 920
q5 21 19 34t34 13h244q18 0 30 -12.5t8 -30.5l-6 -37q38 42 113.5 76t165.5 34q91 0 168 -32t131.5 -95t75.5 -156.5t0 -215.5l-88 -502q-4 -18 -20.5 -30.5t-35.5 -12.5h-252q-20 0 -32.5 12.5t-8.5 30.5z" />
    <glyph glyph-name="Ncommaaccent" unicode="&#x145;" horiz-adv-x="1468" 
d="M874 51l-346 862l-149 -864q-9 -49 -55 -49h-263q-24 0 -35.5 13t-7.5 36l236 1335q5 21 21 35.5t38 14.5h320q46 0 61 -41l326 -838l145 829q5 21 21.5 35.5t36.5 14.5h262q20 0 32.5 -15t8.5 -35l-236 -1335q-4 -23 -20 -36t-37 -13h-262q-77 0 -97 51zM422 -582
l96 113q-47 23 -71 69t-19 101q8 83 65 136.5t142 53.5q80 0 138.5 -63t51.5 -154q-18 -196 -254 -338q-68 -52 -118 -14l-25 19q-44 36 -6 77z" />
    <glyph glyph-name="ncommaaccent" unicode="&#x146;" horiz-adv-x="1185" 
d="M700 43l82 465q39 211 -143 211q-86 0 -145 -65.5t-82 -188.5l-76 -422q-4 -18 -21 -30.5t-36 -12.5h-250q-20 0 -31.5 13.5t-7.5 33.5l164 920q5 21 19 34t34 13h244q18 0 30 -12.5t8 -30.5l-6 -37q38 42 113.5 76t165.5 34q91 0 168 -32t131.5 -95t75.5 -156.5
t0 -215.5l-88 -502q-4 -18 -20.5 -30.5t-35.5 -12.5h-252q-20 0 -32.5 12.5t-8.5 30.5zM289 -582l96 113q-47 23 -71 69t-19 101q8 83 65 136.5t142 53.5q80 0 138.5 -63t51.5 -154q-18 -196 -254 -338q-69 -52 -119 -14l-24 19q-44 36 -6 77z" />
    <glyph glyph-name="Ncaron" unicode="&#x147;" horiz-adv-x="1468" 
d="M1042 1526h-323q-39 0 -60 49l-133 323q-12 32 4 54t39 22h197q27 0 38 -8t23 -31l80 -145l133 145q16 17 22.5 23t19.5 11t32 5h229q25 0 36.5 -20.5t-13.5 -55.5l-248 -323q-37 -49 -76 -49zM874 51l-346 862l-149 -864q-9 -49 -55 -49h-263q-24 0 -35.5 13t-7.5 36
l236 1335q5 21 21 35.5t38 14.5h320q46 0 61 -41l326 -838l145 829q5 21 21.5 35.5t36.5 14.5h262q20 0 32.5 -15t8.5 -35l-236 -1335q-4 -23 -20 -36t-37 -13h-262q-77 0 -97 51z" />
    <glyph glyph-name="ncaron" unicode="&#x148;" horiz-adv-x="1185" 
d="M836 1106h-324q-38 0 -59 49l-134 324q-12 32 3.5 53.5t39.5 21.5h197q28 0 39.5 -8t22.5 -30l79 -146l134 146q16 17 22.5 23t19 10.5t31.5 4.5h230q25 0 36 -20t-14 -55l-248 -324q-37 -49 -75 -49zM700 43l82 465q39 211 -143 211q-86 0 -145 -65.5t-82 -188.5
l-76 -422q-4 -18 -21 -30.5t-36 -12.5h-250q-20 0 -31.5 13.5t-7.5 33.5l164 920q5 21 19 34t34 13h244q18 0 30 -12.5t8 -30.5l-6 -37q38 42 113.5 76t165.5 34q91 0 168 -32t131.5 -95t75.5 -156.5t0 -215.5l-88 -502q-4 -18 -20.5 -30.5t-35.5 -12.5h-252
q-20 0 -32.5 12.5t-8.5 30.5z" />
    <glyph glyph-name="napostrophe" unicode="&#x149;" horiz-adv-x="1185" 
d="M170 1284l88 117q-43 23 -68.5 72.5t-21.5 103.5q8 81 64 133.5t141 52.5q83 0 141 -60.5t51 -152.5q-11 -103 -83 -192.5t-163 -155.5q-72 -47 -118 -14l-27 20q-40 34 -4 76zM700 43l82 465q39 211 -143 211q-86 0 -145 -65.5t-82 -188.5l-76 -422q-4 -18 -21 -30.5
t-36 -12.5h-250q-20 0 -31.5 13.5t-7.5 33.5l164 920q5 21 19 34t34 13h244q18 0 30 -12.5t8 -30.5l-6 -37q38 42 113.5 76t165.5 34q91 0 168 -32t131.5 -95t75.5 -156.5t0 -215.5l-88 -502q-4 -18 -20.5 -30.5t-35.5 -12.5h-252q-20 0 -32.5 12.5t-8.5 30.5z" />
    <glyph glyph-name="Eng" unicode="&#x14a;" horiz-adv-x="1466" 
d="M844 -485q-93 0 -175.5 33t-127.5 83q-30 38 6 84l106 138q36 47 99 12q40 -27 73 -27q10 0 19.5 2.5t25.5 10.5t29.5 29t20.5 52l16 70q-44 9 -62 49l-352 821l-143 -823q-9 -49 -55 -49h-263q-24 0 -35.5 13t-7.5 36l236 1335q5 21 21 35.5t38 14.5h320q46 0 61 -41
l334 -797l137 788q5 21 21.5 35.5t36.5 14.5h262q20 0 32.5 -15t8.5 -35l-260 -1458q-75 -411 -422 -411z" />
    <glyph glyph-name="eng" unicode="&#x14b;" horiz-adv-x="1185" 
d="M680 -68l102 576q39 211 -143 211q-86 0 -145 -65.5t-82 -188.5l-76 -422q-4 -18 -21 -30.5t-36 -12.5h-250q-20 0 -31.5 13.5t-7.5 33.5l164 920q5 21 19 34t34 13h244q18 0 30 -12.5t8 -30.5l-6 -37q38 42 113.5 76t165.5 34q91 0 168 -32t131.5 -95t75.5 -156.5
t0 -215.5l-109 -619q-70 -411 -426 -411q-89 0 -173 33.5t-128 82.5q-30 38 6 84l107 138q36 47 98 12q40 -27 74 -27q10 0 20 2.5t26.5 10.5t29 29t18.5 52z" />
    <glyph glyph-name="Omacron" unicode="&#x14c;" horiz-adv-x="1581" 
d="M1286 1565h-711q-23 0 -34 14t-6 37l32 194q5 23 22 37.5t40 14.5h710q23 0 34.5 -14.5t6.5 -37.5l-32 -194q-4 -23 -21.5 -37t-40.5 -14zM856 1464q162 0 298 -56t227.5 -152.5t142.5 -226t51 -275.5q0 -214 -98 -393t-276.5 -285.5t-399.5 -106.5q-162 0 -298 56
t-227.5 152.5t-142.5 226.5t-51 276q0 160 58 304t158.5 249.5t246 168t311.5 62.5zM850 1139q-167 0 -283 -134t-116 -325q0 -174 102 -279.5t254 -105.5q168 0 283.5 134t115.5 325q0 174 -102 279.5t-254 105.5z" />
    <glyph glyph-name="omacron" unicode="&#x14d;" horiz-adv-x="1167" 
d="M1038 1137h-710q-23 0 -34.5 14t-6.5 37l32 194q5 23 22 37.5t40 14.5h711q23 0 34.5 -14.5t6.5 -37.5l-33 -194q-4 -23 -21.5 -37t-40.5 -14zM608 1044q114 0 212 -40t166.5 -108t107.5 -161.5t39 -197.5q0 -157 -74 -287t-205.5 -205.5t-292.5 -75.5q-226 0 -375 147.5
t-149 360.5q0 156 75 286.5t206.5 205.5t289.5 75zM596 733q-91 0 -152 -72t-61 -172q0 -94 56.5 -151t133.5 -57q92 0 152.5 71.5t60.5 171.5q0 95 -56 152t-134 57z" />
    <glyph glyph-name="Obreve" unicode="&#x14e;" horiz-adv-x="1581" 
d="M862 1944l-4 -27q-7 -53 18.5 -83t75.5 -30q51 0 89.5 30.5t45.5 82.5l5 27q5 19 18.5 32t30.5 13h225q17 0 27 -13t6 -32l-8 -56q-25 -167 -147 -265.5t-310 -98.5q-190 0 -291 102t-72 266l9 52q5 19 18.5 32t30.5 13h200q17 0 27 -13t6 -32zM856 1464q162 0 298 -56
t227.5 -152.5t142.5 -226t51 -275.5q0 -214 -98 -393t-276.5 -285.5t-399.5 -106.5q-162 0 -298 56t-227.5 152.5t-142.5 226.5t-51 276q0 160 58 304t158.5 249.5t246 168t311.5 62.5zM850 1139q-167 0 -283 -134t-116 -325q0 -174 102 -279.5t254 -105.5q168 0 283.5 134
t115.5 325q0 174 -102 279.5t-254 105.5z" />
    <glyph glyph-name="obreve" unicode="&#x14f;" horiz-adv-x="1167" 
d="M614 1516l-4 -27q-7 -53 19 -83t76 -30q51 0 89.5 30.5t45.5 82.5l4 27q5 19 18.5 32t30.5 13h225q17 0 27 -13t6 -32l-8 -56q-25 -167 -147 -265.5t-310 -98.5q-189 0 -290 102t-72 266l8 52q5 19 18.5 32t30.5 13h201q17 0 26.5 -13t5.5 -32zM608 1044q114 0 212 -40
t166.5 -108t107.5 -161.5t39 -197.5q0 -157 -74 -287t-205.5 -205.5t-292.5 -75.5q-226 0 -375 147.5t-149 360.5q0 156 75 286.5t206.5 205.5t289.5 75zM596 733q-91 0 -152 -72t-61 -172q0 -94 56.5 -151t133.5 -57q92 0 152.5 71.5t60.5 171.5q0 95 -56 152t-134 57z" />
    <glyph glyph-name="Ohungarumlaut" unicode="&#x150;" horiz-adv-x="1581" 
d="M711 1982h311q40 0 54.5 -27t-5.5 -52l-242 -334q-25 -35 -59 -35h-166q-38 0 -56.5 21t-6.5 55l112 332q12 40 58 40zM1212 1982h312q40 0 54.5 -27t-5.5 -52l-242 -334q-25 -35 -59 -35h-166q-38 0 -57 21t-7 55l113 332q12 40 57 40zM856 1464q162 0 298 -56
t227.5 -152.5t142.5 -226t51 -275.5q0 -214 -98 -393t-276.5 -285.5t-399.5 -106.5q-162 0 -298 56t-227.5 152.5t-142.5 226.5t-51 276q0 160 58 304t158.5 249.5t246 168t311.5 62.5zM850 1139q-167 0 -283 -134t-116 -325q0 -174 102 -279.5t254 -105.5q168 0 283.5 134
t115.5 325q0 174 -102 279.5t-254 105.5z" />
    <glyph glyph-name="ohungarumlaut" unicode="&#x151;" horiz-adv-x="1167" 
d="M463 1554h311q40 0 54.5 -27t-5.5 -52l-241 -334q-25 -35 -60 -35h-166q-38 0 -56.5 21t-6.5 55l113 331q12 41 57 41zM965 1554h311q40 0 54.5 -27t-5.5 -52l-242 -334q-25 -35 -59 -35h-166q-38 0 -56.5 21t-6.5 55l112 331q12 41 58 41zM608 1044q114 0 212 -40
t166.5 -108t107.5 -161.5t39 -197.5q0 -157 -74 -287t-205.5 -205.5t-292.5 -75.5q-226 0 -375 147.5t-149 360.5q0 156 75 286.5t206.5 205.5t289.5 75zM596 733q-91 0 -152 -72t-61 -172q0 -94 56.5 -151t133.5 -57q92 0 152.5 71.5t60.5 171.5q0 95 -56 152t-134 57z" />
    <glyph glyph-name="OE" unicode="&#x152;" horiz-adv-x="2363" 
d="M856 1139q-167 0 -283 -134t-116 -325q0 -174 102 -279.5t254 -105.5q168 0 283.5 134t115.5 325q0 174 -102 279.5t-254 105.5zM1087 51l7 33q-137 -115 -342 -115q-144 0 -270 54.5t-213 148t-137 221t-50 269.5q0 164 57 312t155.5 256t239 171t300.5 63
q149 0 275.5 -53.5t190.5 -150.5l23 124q5 21 21 35.5t38 14.5h1037q21 0 33 -14.5t8 -37.5l-43 -235q-4 -23 -20.5 -37t-37.5 -14h-725l-39 -215h381q23 0 35 -14.5t8 -37.5l-41 -225q-5 -23 -20.5 -37t-38.5 -14h-381l-37 -215h744q23 0 34.5 -14t6.5 -37l-41 -236
q-5 -23 -21 -37t-39 -14h-1055q-23 0 -35 14t-8 37z" />
    <glyph glyph-name="oe" unicode="&#x153;" horiz-adv-x="1861" 
d="M1288 -31q-239 0 -366 146q-149 -146 -373 -146q-114 0 -210.5 40t-161.5 108.5t-101.5 161.5t-36.5 198q0 158 68.5 287t195 204.5t287.5 75.5q239 0 383 -170q154 170 393 170q102 0 187 -31t141 -81.5t92.5 -117t50 -137t6.5 -140.5l-10 -62q-5 -26 -19 -39.5
t-47 -13.5h-645v-4q0 -70 46.5 -110t115.5 -40q110 0 191 78q30 30 59 12l201 -129q17 -11 17.5 -32t-11.5 -31q-167 -197 -453 -197zM1348 772q-60 0 -115 -37.5t-82 -113.5h352q-4 79 -52 115t-103 36zM604 733q-92 0 -154.5 -72t-62.5 -172q0 -95 57 -151.5t138 -56.5
q92 0 154.5 71.5t62.5 171.5q0 95 -57 152t-138 57z" />
    <glyph glyph-name="Racute" unicode="&#x154;" horiz-adv-x="1374" 
d="M870 1974h312q40 0 54.5 -28.5t-5.5 -51.5l-262 -333q-25 -35 -60 -35h-168q-38 0 -56 21t-5 55l133 331q15 41 57 41zM512 801h274q94 0 147.5 48t53.5 124q0 64 -41.5 101.5t-105.5 37.5h-273zM461 506l-80 -455q-10 -51 -57 -51h-263q-23 0 -35.5 14.5t-7.5 34.5
l236 1335q5 20 20 35t39 15h600q209 0 333 -116.5t124 -293.5q0 -47 -8.5 -94t-33 -103t-63.5 -104t-105 -92t-152 -70l274 -489q13 -25 -2 -48.5t-49 -23.5h-262q-33 0 -46 10t-32 43l-242 453h-188z" />
    <glyph glyph-name="racute" unicode="&#x155;" horiz-adv-x="745" 
d="M530 1554h312q40 0 54.5 -28t-5.5 -51l-262 -334q-25 -35 -60 -35h-168q-38 0 -56 21t-5 55l133 331q15 41 57 41zM723 1032h39q56 0 45 -61l-45 -252q-12 -64 -74 -64h-78q-86 0 -132 -41.5t-64 -130.5l-76 -440q-4 -18 -21 -30.5t-36 -12.5h-252q-20 0 -31.5 13.5
t-7.5 33.5l164 920q5 21 19 34t34 13h227q20 0 32.5 -12.5t8.5 -30.5l-18 -99q90 160 266 160z" />
    <glyph glyph-name="Rcommaaccent" unicode="&#x156;" horiz-adv-x="1374" 
d="M512 801h274q94 0 147.5 48t53.5 124q0 64 -41.5 101.5t-105.5 37.5h-273zM461 506l-80 -455q-10 -51 -57 -51h-263q-23 0 -35.5 14.5t-7.5 34.5l236 1335q5 20 20 35t39 15h600q209 0 333 -116.5t124 -293.5q0 -47 -8.5 -94t-33 -103t-63.5 -104t-105 -92t-152 -70
l274 -489q13 -25 -2 -48.5t-49 -23.5h-262q-33 0 -46 10t-32 43l-242 453h-188zM377 -582l96 113q-47 23 -71 69t-19 101q8 83 65 136.5t142 53.5q80 0 138.5 -63t51.5 -154q-18 -196 -254 -338q-68 -52 -118 -14l-25 19q-44 36 -6 77z" />
    <glyph glyph-name="rcommaaccent" unicode="&#x157;" horiz-adv-x="745" 
d="M721 1032h39q56 0 45 -61l-45 -252q-12 -64 -74 -64h-78q-86 0 -132 -41.5t-64 -130.5l-76 -440q-4 -18 -21 -30.5t-36 -12.5h-252q-20 0 -31.5 13.5t-7.5 33.5l164 920q5 21 19 34t34 13h227q20 0 32.5 -12.5t8.5 -30.5l-18 -99q90 160 266 160zM-72 -582l97 113
q-47 23 -71.5 69t-19.5 101q8 83 65 136.5t142 53.5q80 0 139 -63t52 -154q-18 -196 -254 -338q-69 -52 -119 -14l-25 19q-44 36 -6 77z" />
    <glyph glyph-name="Rcaron" unicode="&#x158;" horiz-adv-x="1374" 
d="M956 1526h-323q-39 0 -60 49l-133 323q-12 32 4 54t39 22h197q27 0 38 -8t23 -31l80 -145l133 145q16 17 22.5 23t19.5 11t32 5h229q25 0 36.5 -20.5t-13.5 -55.5l-248 -323q-37 -49 -76 -49zM512 801h274q94 0 147.5 48t53.5 124q0 64 -41.5 101.5t-105.5 37.5h-273z
M461 506l-80 -455q-10 -51 -57 -51h-263q-23 0 -35.5 14.5t-7.5 34.5l236 1335q5 20 20 35t39 15h600q209 0 333 -116.5t124 -293.5q0 -47 -8.5 -94t-33 -103t-63.5 -104t-105 -92t-152 -70l274 -489q13 -25 -2 -48.5t-49 -23.5h-262q-33 0 -46 10t-32 43l-242 453h-188z
" />
    <glyph glyph-name="rcaron" unicode="&#x159;" horiz-adv-x="745" 
d="M616 1106h-323q-39 0 -60 49l-133 324q-12 32 3.5 53.5t39.5 21.5h197q27 0 38 -8t23 -30l80 -146l133 146q21 23 34 30.5t40 7.5h230q25 0 36 -20t-14 -55l-248 -324q-37 -49 -76 -49zM723 1032h39q56 0 45 -61l-45 -252q-12 -64 -74 -64h-78q-86 0 -132 -41.5
t-64 -130.5l-76 -440q-4 -18 -21 -30.5t-36 -12.5h-252q-20 0 -31.5 13.5t-7.5 33.5l164 920q5 21 19 34t34 13h227q20 0 32.5 -12.5t8.5 -30.5l-18 -99q90 160 266 160z" />
    <glyph glyph-name="Sacute" unicode="&#x15a;" horiz-adv-x="1280" 
d="M836 1964h311q40 0 54.5 -28.5t-5.5 -51.5l-262 -334q-24 -34 -60 -34h-167q-38 0 -56.5 20.5t-5.5 54.5l133 332q15 41 58 41zM731 1464q105 0 199 -22t161.5 -57t113.5 -70.5t75 -71.5q23 -23 30.5 -44.5t-0.5 -39t-16.5 -28t-23.5 -23.5l-133 -109q-23 -19 -46 -19.5
t-38.5 9t-36.5 29.5q-60 55 -140.5 91t-162.5 36q-83 0 -126.5 -32t-43.5 -77q0 -63 84 -92l243 -86q359 -125 359 -412q0 -62 -18.5 -125t-63 -127t-110 -113.5t-169 -80.5t-229.5 -31q-209 0 -363 70.5t-235 171.5q-59 77 27 154l106 98q27 26 54 28t46.5 -10t44.5 -37
q72 -73 147.5 -114t176.5 -41q102 0 145 36.5t43 86.5q0 41 -39.5 71t-121.5 58l-213 71q-136 46 -223 145.5t-87 225.5q0 95 36 180t105.5 153t183.5 108t259 40z" />
    <glyph glyph-name="sacute" unicode="&#x15b;" horiz-adv-x="993" 
d="M627 1554h311q40 0 54.5 -28t-5.5 -51l-262 -334q-25 -35 -59 -35h-168q-38 0 -56.5 21t-5.5 55l133 331q15 41 58 41zM76 692q0 153 119 252.5t323 99.5q276 0 432 -133q56 -45 -8 -112l-84 -90q-16 -19 -34 -23.5t-35.5 2t-40.5 23.5q-112 71 -228 71q-41 0 -65.5 -14
t-24.5 -35q0 -20 16.5 -34t61.5 -27l151 -45q119 -36 195 -108t76 -181q5 -163 -120.5 -266t-342.5 -103q-117 0 -221 33t-174 82q-65 46 -72 88.5t37 85.5l86 94q42 48 119 -18q116 -96 245 -96q43 0 69 17t26 42q0 26 -22 39t-76 30q-11 3 -17 5l-156 47
q-106 31 -170 100.5t-65 173.5z" />
    <glyph glyph-name="Scircumflex" unicode="&#x15c;" horiz-adv-x="1280" 
d="M676 1964h323q39 0 60 -49l133 -324q16 -33 0.5 -54t-43.5 -21h-195q-27 0 -38 8t-23 30l-82 146l-131 -146q-21 -23 -34 -30.5t-40 -7.5h-231q-24 0 -34.5 20t11.5 55l248 326q36 47 76 47zM731 1464q105 0 199 -22t161.5 -57t113.5 -70.5t75 -71.5q23 -23 30.5 -44.5
t-0.5 -39t-16.5 -28t-23.5 -23.5l-133 -109q-23 -19 -46 -19.5t-38.5 9t-36.5 29.5q-60 55 -140.5 91t-162.5 36q-83 0 -126.5 -32t-43.5 -77q0 -63 84 -92l243 -86q359 -125 359 -412q0 -62 -18.5 -125t-63 -127t-110 -113.5t-169 -80.5t-229.5 -31q-209 0 -363 70.5
t-235 171.5q-59 77 27 154l106 98q27 26 54 28t46.5 -10t44.5 -37q72 -73 147.5 -114t176.5 -41q102 0 145 36.5t43 86.5q0 41 -39.5 71t-121.5 58l-213 71q-136 46 -223 145.5t-87 225.5q0 95 36 180t105.5 153t183.5 108t259 40z" />
    <glyph glyph-name="scircumflex" unicode="&#x15d;" horiz-adv-x="993" 
d="M467 1554h324q38 0 59 -49l133 -323q16 -33 0.5 -54.5t-43.5 -21.5h-195q-27 0 -38 8t-23 31l-82 145l-131 -145q-16 -17 -22.5 -23t-19.5 -11t-32 -5h-231q-24 0 -34.5 20.5t11.5 55.5l248 325q36 47 76 47zM76 692q0 153 119 252.5t323 99.5q276 0 432 -133
q56 -45 -8 -112l-84 -90q-16 -19 -34 -23.5t-35.5 2t-40.5 23.5q-112 71 -228 71q-41 0 -65.5 -14t-24.5 -35q0 -20 16.5 -34t61.5 -27l151 -45q119 -36 195 -108t76 -181q5 -163 -120.5 -266t-342.5 -103q-117 0 -221 33t-174 82q-65 46 -72 88.5t37 85.5l86 94
q42 48 119 -18q116 -96 245 -96q43 0 69 17t26 42q0 26 -22 39t-76 30q-11 3 -17 5l-156 47q-106 31 -170 100.5t-65 173.5z" />
    <glyph glyph-name="Scedilla" unicode="&#x15e;" horiz-adv-x="1280" 
d="M526 -338h-194q-30 0 -45 20t-2 48l131 264q-130 31 -225 88.5t-150 128.5q-59 77 27 154l106 98q27 26 54 28t46.5 -10t44.5 -37q72 -73 147.5 -114t176.5 -41q102 0 145 36.5t43 86.5q0 41 -39.5 71t-121.5 58l-213 71q-136 46 -223 145.5t-87 225.5q0 95 36 180
t105.5 153t183.5 108t259 40q105 0 199 -22t161.5 -57t113.5 -70.5t75 -71.5q23 -23 30.5 -44.5t-0.5 -39t-16.5 -28t-23.5 -23.5l-133 -109q-23 -19 -46 -19.5t-38.5 9t-36.5 29.5q-60 55 -140.5 91t-162.5 36q-83 0 -126.5 -32t-43.5 -77q0 -63 84 -92l243 -86
q359 -125 359 -412q0 -55 -14 -109.5t-46.5 -111t-81 -103.5t-124 -84t-168.5 -54l-203 -291q-16 -21 -29 -26t-37 -5z" />
    <glyph glyph-name="scedilla" unicode="&#x15f;" horiz-adv-x="993" 
d="M377 -346h-195q-30 0 -45 19.5t-2 47.5l135 275q-123 35 -198 88q-65 46 -72 88.5t37 85.5l86 94q42 48 119 -18q116 -96 245 -96q43 0 69 17t26 42q0 26 -22 39t-76 30q-11 3 -17 5l-156 47q-106 31 -170 100.5t-65 173.5q0 153 119 252.5t323 99.5q276 0 432 -133
q56 -45 -8 -112l-84 -90q-16 -19 -34 -23.5t-35.5 2t-40.5 23.5q-112 71 -228 71q-41 0 -65.5 -14t-24.5 -35q0 -20 16.5 -34t61.5 -27l151 -45q119 -36 195 -108t76 -181q4 -121 -66.5 -211t-201.5 -131l-220 -311q-11 -15 -22 -22t-18.5 -8t-24.5 -1z" />
    <glyph glyph-name="Scaron" unicode="&#x160;" horiz-adv-x="1280" 
d="M922 1516h-324q-38 0 -59 49l-133 323q-12 32 4 54t39 22h196q27 0 38.5 -8.5t23.5 -30.5l79 -145l134 145q16 18 22 23.5t19 10.5t32 5h230q25 0 36 -20.5t-14 -55.5l-248 -323q-37 -49 -75 -49zM731 1464q105 0 199 -22t161.5 -57t113.5 -70.5t75 -71.5
q23 -23 30.5 -44.5t-0.5 -39t-16.5 -28t-23.5 -23.5l-133 -109q-23 -19 -46 -19.5t-38.5 9t-36.5 29.5q-60 55 -140.5 91t-162.5 36q-83 0 -126.5 -32t-43.5 -77q0 -63 84 -92l243 -86q359 -125 359 -412q0 -62 -18.5 -125t-63 -127t-110 -113.5t-169 -80.5t-229.5 -31
q-209 0 -363 70.5t-235 171.5q-59 77 27 154l106 98q27 26 54 28t46.5 -10t44.5 -37q72 -73 147.5 -114t176.5 -41q102 0 145 36.5t43 86.5q0 41 -39.5 71t-121.5 58l-213 71q-136 46 -223 145.5t-87 225.5q0 95 36 180t105.5 153t183.5 108t259 40z" />
    <glyph glyph-name="scaron" unicode="&#x161;" horiz-adv-x="993" 
d="M713 1106h-324q-38 0 -59 49l-133 324q-12 32 3.5 53.5t39.5 21.5h196q28 0 39.5 -8t22.5 -30l80 -146l133 146q16 17 22.5 23t19 10.5t31.5 4.5h230q25 0 36 -20t-14 -55l-248 -324q-37 -49 -75 -49zM76 692q0 153 119 252.5t323 99.5q276 0 432 -133q56 -45 -8 -112
l-84 -90q-16 -19 -34 -23.5t-35.5 2t-40.5 23.5q-112 71 -228 71q-41 0 -65.5 -14t-24.5 -35q0 -20 16.5 -34t61.5 -27l151 -45q119 -36 195 -108t76 -181q5 -163 -120.5 -266t-342.5 -103q-117 0 -221 33t-174 82q-65 46 -72 88.5t37 85.5l86 94q42 48 119 -18
q116 -96 245 -96q43 0 69 17t26 42q0 26 -22 39t-76 30q-11 3 -17 5l-156 47q-106 31 -170 100.5t-65 173.5z" />
    <glyph glyph-name="Tcommaaccent" unicode="&#x162;" horiz-adv-x="1253" 
d="M135 1147l41 235q4 23 20.5 37.5t36.5 14.5h1108q23 0 35 -14.5t8 -37.5l-41 -235q-4 -23 -21 -37t-40 -14h-367l-184 -1045q-5 -23 -20.5 -37t-38.5 -14h-273q-23 0 -34.5 14t-6.5 37l185 1045h-369q-21 0 -32 14t-7 37zM293 -582l96 113q-47 23 -71 69t-19 101
q8 83 65 136.5t142 53.5q80 0 138.5 -63t51.5 -154q-18 -196 -254 -338q-68 -52 -118 -14l-25 19q-44 36 -6 77z" />
    <glyph glyph-name="tcommaaccent" unicode="&#x163;" horiz-adv-x="839" 
d="M713 283l55 -131q20 -48 -35 -89q-141 -92 -305 -92q-60 0 -116 20.5t-101.5 61t-65 112.5t-2.5 165l70 391h-121q-20 0 -31.5 14.5t-7.5 34.5l35 197q5 21 20 34t35 13h123l43 250q4 20 21 33.5t37 13.5h251q20 0 31.5 -13.5t7.5 -33.5l-45 -250h240q21 0 33 -13.5
t8 -33.5l-35 -197q-5 -21 -21 -35t-36 -14h-240l-57 -324q-3 -35 -0.5 -54.5t15.5 -29t21.5 -12t18.5 -2.5q7 0 13 1t10 1.5t12 3t11.5 4t14.5 6.5t17 7q30 11 46.5 1.5t29.5 -40.5zM129 -582l96 113q-47 23 -71 69t-19 101q8 83 65 136.5t142 53.5q80 0 138.5 -63
t51.5 -154q-18 -197 -253 -338q-69 -52 -119 -14l-25 19q-44 36 -6 77z" />
    <glyph glyph-name="Tcaron" unicode="&#x164;" horiz-adv-x="1253" 
d="M932 1526h-324q-38 0 -59 49l-133 323q-12 32 4 54t39 22h196q27 0 38.5 -8.5t23.5 -30.5l80 -145l133 145q16 17 22.5 23t19.5 11t32 5h229q25 0 36 -20.5t-14 -55.5l-247 -323q-37 -49 -76 -49zM135 1147l41 235q4 23 20.5 37.5t36.5 14.5h1108q23 0 35 -14.5t8 -37.5
l-41 -235q-4 -23 -21 -37t-40 -14h-367l-184 -1045q-5 -23 -20.5 -37t-38.5 -14h-273q-23 0 -34.5 14t-6.5 37l185 1045h-369q-21 0 -32 14t-7 37z" />
    <glyph glyph-name="tcaron" unicode="&#x165;" horiz-adv-x="839" 
d="M698 1251l88 117q-43 23 -68.5 72.5t-21.5 103.5q8 81 64 134t141 53q83 0 141.5 -60.5t51.5 -152.5q-11 -103 -83 -193t-163 -156q-72 -48 -119 -14l-27 21q-40 34 -4 75zM713 283l55 -131q20 -48 -35 -89q-141 -92 -305 -92q-60 0 -116 20.5t-101.5 61t-65 112.5
t-2.5 165l70 391h-121q-20 0 -31.5 14.5t-7.5 34.5l35 197q5 21 20 34t35 13h123l43 250q4 20 21 33.5t37 13.5h251q20 0 31.5 -13.5t7.5 -33.5l-45 -250h240q21 0 33 -13.5t8 -33.5l-35 -197q-5 -21 -21 -35t-36 -14h-240l-57 -324q-3 -35 -0.5 -54.5t15.5 -29t21.5 -12
t18.5 -2.5q7 0 13 1t10 1.5t12 3t11.5 4t14.5 6.5t17 7q30 11 46.5 1.5t29.5 -40.5z" />
    <glyph glyph-name="Tbar" unicode="&#x166;" horiz-adv-x="1273" 
d="M823 512l-82 -461q-5 -23 -20.5 -37t-38.5 -14h-272q-23 0 -34.5 14t-6.5 37l82 461h-189q-23 0 -35 14t-8 37l29 174q6 23 23 37t40 14h189l53 308h-369q-21 0 -32 14t-7 37l41 235q4 23 20.5 37.5t37.5 14.5h1108q23 0 35 -14.5t8 -37.5l-41 -235q-4 -23 -21.5 -37
t-40.5 -14h-366l-54 -308h191q23 0 34 -14t5 -37l-29 -172q-5 -24 -20.5 -38.5t-38.5 -14.5h-191z" />
    <glyph glyph-name="tbar" unicode="&#x167;" horiz-adv-x="849" 
d="M739 63q-141 -92 -305 -92q-48 0 -93 12.5t-87 39t-69 68.5t-39 101.5t4 137.5l18 108h-113q-23 0 -34.5 14t-6.5 37l17 99q10 51 57 51h117l14 82h-121q-20 0 -31.5 14.5t-7.5 34.5l35 197q5 20 20.5 33.5t35.5 13.5h122l43 250q4 20 21 33.5t37 13.5h252
q20 0 31.5 -13.5t7.5 -33.5l-46 -250h240q21 0 33 -13.5t8 -33.5l-35 -197q-5 -21 -21 -35t-36 -14h-240l-14 -82h231q21 0 32 -14t7 -37l-16 -99q-4 -23 -19.5 -37t-35.5 -14h-234l-8 -41q-3 -35 -0.5 -54.5t15.5 -29t21.5 -12t18.5 -2.5q7 0 13 1t10 1.5t12 3t11.5 4
t14.5 6.5t17 7q30 11 46.5 1.5t29.5 -40.5l55 -131q20 -48 -35 -89z" />
    <glyph glyph-name="Utilde" unicode="&#x168;" horiz-adv-x="1409" 
d="M709 1937q55 0 178 -31.5t153 -31.5q40 0 73 17.5t58 35t46 17.5q30 0 45 -35l47 -121q16 -43 10 -70q-8 -53 -100.5 -111.5t-186.5 -58.5q-63 0 -185.5 32t-146.5 32q-40 0 -71.5 -17.5t-54.5 -35t-44 -17.5q-16 0 -24.5 7.5t-20.5 27.5l-57 121q-15 36 -10 67
q8 54 103.5 113t187.5 59zM1481 1384l-152 -858q-26 -147 -89 -255.5t-155.5 -174t-203.5 -96.5t-244 -31q-93 0 -180 21.5t-163 66.5t-128.5 109.5t-74.5 157.5t-3 202l152 858q5 21 21 35.5t38 14.5h262q23 0 35.5 -14.5t7.5 -35.5l-145 -827q-20 -114 37.5 -182
t177.5 -68q123 0 195.5 66.5t93.5 183.5l145 827q5 21 21 35.5t38 14.5h271q23 0 35.5 -14.5t7.5 -35.5z" />
    <glyph glyph-name="utilde" unicode="&#x169;" horiz-adv-x="1148" 
d="M500 1518q55 0 178 -32t153 -32q40 0 73 17.5t58 35t46 17.5q30 0 45 -35l47 -121q16 -43 10 -70q-8 -53 -100.5 -111.5t-186.5 -58.5q-63 0 -185 32t-146 32q-40 0 -71.5 -17.5t-54.5 -35t-44 -17.5q-16 0 -25 8t-21 27l-57 121q-16 36 -10 68q8 54 103.5 113t187.5 59z
M494 971l-93 -516q-17 -91 17.5 -139t120.5 -48q78 0 125 49t61 132l92 522q4 18 21 30.5t36 12.5h252q20 0 30.5 -13.5t6.5 -33.5l-162 -920q-5 -20 -19.5 -33.5t-33.5 -13.5h-248q-20 0 -32.5 12.5t-8.5 30.5l9 37q-50 -53 -114.5 -82t-166.5 -29q-183 0 -278 127.5
t-62 319.5l98 555q4 18 20.5 30.5t35.5 12.5h252q18 0 31.5 -12.5t9.5 -30.5z" />
    <glyph glyph-name="Umacron" unicode="&#x16a;" horiz-adv-x="1409" 
d="M1239 1556h-711q-23 0 -34.5 14.5t-6.5 37.5l33 194q4 23 21.5 37t40.5 14h710q23 0 34.5 -14t6.5 -37l-33 -194q-5 -23 -21.5 -37.5t-39.5 -14.5zM1481 1384l-152 -858q-26 -147 -89 -255.5t-155.5 -174t-203.5 -96.5t-244 -31q-93 0 -180 21.5t-163 66.5t-128.5 109.5
t-74.5 157.5t-3 202l152 858q5 21 21 35.5t38 14.5h262q23 0 35.5 -14.5t7.5 -35.5l-145 -827q-20 -114 37.5 -182t177.5 -68q123 0 195.5 66.5t93.5 183.5l145 827q5 21 21 35.5t38 14.5h271q23 0 35.5 -14.5t7.5 -35.5z" />
    <glyph glyph-name="umacron" unicode="&#x16b;" horiz-adv-x="1148" 
d="M1030 1137h-711q-23 0 -34 14t-6 37l32 194q5 23 22 37.5t40 14.5h710q23 0 34.5 -14.5t6.5 -37.5l-32 -194q-4 -23 -21.5 -37t-40.5 -14zM494 971l-93 -516q-17 -91 17.5 -139t120.5 -48q78 0 125 49t61 132l92 522q4 18 21 30.5t36 12.5h252q20 0 30.5 -13.5t6.5 -33.5
l-162 -920q-5 -20 -19.5 -33.5t-33.5 -13.5h-248q-20 0 -32.5 12.5t-8.5 30.5l9 37q-50 -53 -114.5 -82t-166.5 -29q-183 0 -278 127.5t-62 319.5l98 555q4 18 20.5 30.5t35.5 12.5h252q18 0 31.5 -12.5t9.5 -30.5z" />
    <glyph glyph-name="Ubreve" unicode="&#x16c;" horiz-adv-x="1409" 
d="M815 1935l-4 -26q-7 -53 18.5 -83t75.5 -30q51 0 89.5 30.5t45.5 82.5l4 26q5 19 19 32t31 13h225q17 0 27 -13t6 -32l-9 -55q-25 -167 -146.5 -265.5t-309.5 -98.5q-190 0 -291 102t-72 266l8 51q5 19 19 32t31 13h200q17 0 27 -13t6 -32zM1481 1384l-152 -858
q-26 -147 -89 -255.5t-155.5 -174t-203.5 -96.5t-244 -31q-93 0 -180 21.5t-163 66.5t-128.5 109.5t-74.5 157.5t-3 202l152 858q5 21 21 35.5t38 14.5h262q23 0 35.5 -14.5t7.5 -35.5l-145 -827q-20 -114 37.5 -182t177.5 -68q123 0 195.5 66.5t93.5 183.5l145 827
q5 21 21 35.5t38 14.5h271q23 0 35.5 -14.5t7.5 -35.5z" />
    <glyph glyph-name="ubreve" unicode="&#x16d;" horiz-adv-x="1148" 
d="M606 1516l-4 -27q-7 -53 18.5 -83t75.5 -30q51 0 89.5 30.5t45.5 82.5l5 27q5 19 18.5 32t30.5 13h225q17 0 27 -13t6 -32l-8 -56q-25 -167 -147 -265.5t-310 -98.5q-190 0 -291 102t-72 266l9 52q5 19 18.5 32t30.5 13h200q17 0 27 -13t6 -32zM494 971l-93 -516
q-17 -91 17.5 -139t120.5 -48q78 0 125 49t61 132l92 522q4 18 21 30.5t36 12.5h252q20 0 30.5 -13.5t6.5 -33.5l-162 -920q-5 -20 -19.5 -33.5t-33.5 -13.5h-248q-20 0 -32.5 12.5t-8.5 30.5l9 37q-50 -53 -114.5 -82t-166.5 -29q-183 0 -278 127.5t-62 319.5l98 555
q4 18 20.5 30.5t35.5 12.5h252q18 0 31.5 -12.5t9.5 -30.5z" />
    <glyph glyph-name="Uring" unicode="&#x16e;" horiz-adv-x="1409" 
d="M913 2179q86 0 159 -35t120 -105t47 -161q0 -151 -105 -252.5t-260 -101.5q-85 0 -158.5 35t-120 104.5t-46.5 161.5q0 151 105.5 252.5t258.5 101.5zM883 1724q58 0 95.5 43t37.5 99q0 49 -30.5 81.5t-82.5 32.5q-58 0 -95.5 -42.5t-37.5 -98.5q0 -49 30.5 -82t82.5 -33
zM1481 1384l-152 -858q-26 -147 -89 -255.5t-155.5 -174t-203.5 -96.5t-244 -31q-93 0 -180 21.5t-163 66.5t-128.5 109.5t-74.5 157.5t-3 202l152 858q5 21 21 35.5t38 14.5h262q23 0 35.5 -14.5t7.5 -35.5l-145 -827q-20 -114 37.5 -182t177.5 -68q123 0 195.5 66.5
t93.5 183.5l145 827q5 21 21 35.5t38 14.5h271q23 0 35.5 -14.5t7.5 -35.5z" />
    <glyph glyph-name="uring" unicode="&#x16f;" horiz-adv-x="1148" 
d="M705 1759q85 0 158.5 -35t120 -104.5t46.5 -161.5q0 -151 -104.5 -252.5t-259.5 -101.5q-86 0 -159 35t-120 105t-47 161q0 151 106 252.5t259 101.5zM674 1305q58 0 95.5 42.5t37.5 98.5q0 49 -30.5 82t-82.5 33q-58 0 -95.5 -43t-37.5 -99q0 -49 30.5 -81.5t82.5 -32.5
zM494 971l-93 -516q-17 -91 17.5 -139t120.5 -48q78 0 125 49t61 132l92 522q4 18 21 30.5t36 12.5h252q20 0 30.5 -13.5t6.5 -33.5l-162 -920q-5 -20 -19.5 -33.5t-33.5 -13.5h-248q-20 0 -32.5 12.5t-8.5 30.5l9 37q-50 -53 -114.5 -82t-166.5 -29q-183 0 -278 127.5
t-62 319.5l98 555q4 18 20.5 30.5t35.5 12.5h252q18 0 31.5 -12.5t9.5 -30.5z" />
    <glyph glyph-name="Uhungarumlaut" unicode="&#x170;" horiz-adv-x="1409" 
d="M664 1974h311q40 0 54.5 -27.5t-5.5 -52.5l-242 -333q-25 -35 -59 -35h-166q-38 0 -56.5 21t-6.5 55l112 331q12 41 58 41zM1165 1974h312q40 0 54.5 -27.5t-5.5 -52.5l-242 -333q-25 -35 -59 -35h-166q-38 0 -57 21t-7 55l113 331q12 41 57 41zM1481 1384l-152 -858
q-26 -147 -89 -255.5t-155.5 -174t-203.5 -96.5t-244 -31q-93 0 -180 21.5t-163 66.5t-128.5 109.5t-74.5 157.5t-3 202l152 858q5 21 21 35.5t38 14.5h262q23 0 35.5 -14.5t7.5 -35.5l-145 -827q-20 -114 37.5 -182t177.5 -68q123 0 195.5 66.5t93.5 183.5l145 827
q5 21 21 35.5t38 14.5h271q23 0 35.5 -14.5t7.5 -35.5z" />
    <glyph glyph-name="uhungarumlaut" unicode="&#x171;" horiz-adv-x="1148" 
d="M455 1554h311q40 0 54.5 -27t-5.5 -52l-242 -334q-25 -35 -59 -35h-166q-38 0 -56.5 21t-6.5 55l112 331q12 41 58 41zM956 1554h312q40 0 54.5 -27t-5.5 -52l-242 -334q-25 -35 -59 -35h-166q-38 0 -57 21t-7 55l113 331q12 41 57 41zM494 971l-93 -516
q-17 -91 17.5 -139t120.5 -48q78 0 125 49t61 132l92 522q4 18 21 30.5t36 12.5h252q20 0 30.5 -13.5t6.5 -33.5l-162 -920q-5 -20 -19.5 -33.5t-33.5 -13.5h-248q-20 0 -32.5 12.5t-8.5 30.5l9 37q-50 -53 -114.5 -82t-166.5 -29q-183 0 -278 127.5t-62 319.5l98 555
q4 18 20.5 30.5t35.5 12.5h252q18 0 31.5 -12.5t9.5 -30.5z" />
    <glyph glyph-name="Uogonek" unicode="&#x172;" horiz-adv-x="1409" 
d="M713 -412q-102 0 -163 46t-61 135q0 99 103 202q-112 6 -209.5 44t-172.5 104.5t-109 172t-13 234.5l152 858q5 21 21 35.5t38 14.5h262q23 0 35.5 -14.5t7.5 -35.5l-145 -827q-20 -114 37.5 -182t177.5 -68q123 0 195.5 66.5t93.5 183.5l145 827q5 21 21 35.5t38 14.5
h271q23 0 35.5 -14.5t7.5 -35.5l-152 -858q-79 -447 -495 -538q-54 -79 -54 -117q0 -64 74 -64q22 0 51.5 5.5t34.5 5.5q19 0 29 -14t6 -42l-14 -88q-4 -38 -85 -62t-163 -24z" />
    <glyph glyph-name="uogonek" unicode="&#x173;" horiz-adv-x="1148" 
d="M975 -299l-14 -88q-4 -38 -85 -62t-163 -24q-102 0 -163 45.5t-61 134.5q0 143 207 293q-18 2 -29.5 14t-7.5 29l9 37q-50 -53 -114.5 -82t-166.5 -29q-183 0 -278 127.5t-62 319.5l98 555q4 18 20.5 30.5t35.5 12.5h252q18 0 31.5 -12.5t9.5 -30.5l-93 -516
q-17 -91 17.5 -139t120.5 -48q78 0 125 49t61 132l92 522q4 18 21 30.5t36 12.5h252q20 0 30.5 -13.5t6.5 -33.5l-162 -920q-5 -20 -19.5 -33.5t-33.5 -13.5h-57q-52 -59 -81.5 -111t-29.5 -79q0 -64 74 -64q22 0 51.5 5t34.5 5q19 0 29 -13.5t6 -41.5z" />
    <glyph glyph-name="Wcircumflex" unicode="&#x174;" horiz-adv-x="2019" 
d="M1081 1974h324q38 0 59 -49l133 -323q16 -33 0.5 -54.5t-43.5 -21.5h-194q-27 0 -38.5 8.5t-23.5 30.5l-81 145l-132 -145q-16 -18 -22 -23.5t-19 -10.5t-32 -5h-232q-24 0 -34 20.5t12 55.5l248 325q36 47 75 47zM1061 827l-289 -776q-10 -27 -30.5 -39t-41.5 -12h-395
q-18 0 -35 12.5t-18 38.5l-90 1299q-4 40 16.5 62t52.5 22h281q19 0 31 -15t12 -35l35 -960l364 965q10 19 13.5 25t14.5 13t28 7h311q20 0 32.5 -13t12.5 -32l64 -955l337 950q6 20 23.5 35t36.5 15h274q75 0 41 -84l-520 -1299q-6 -18 -23 -30.5t-29.5 -16.5t-17.5 -4
h-393q-47 0 -55 51z" />
    <glyph glyph-name="wcircumflex" unicode="&#x175;" horiz-adv-x="1585" 
d="M788 1554h324q38 0 59 -49l134 -323q16 -33 0.5 -54.5t-43.5 -21.5h-195q-27 0 -38 8t-23 31l-82 145l-131 -145q-16 -17 -22.5 -23t-19.5 -11t-32 -5h-232q-24 0 -34 20.5t12 55.5l248 325q36 47 75 47zM795 471l-174 -422q-8 -21 -27 -35t-43 -14h-283q-42 0 -53 49
l-133 889q-6 37 11 56.5t50 19.5h252q45 0 49 -49l48 -533l227 537q19 45 72 45h210q49 0 52 -49l43 -533l221 533q20 49 67 49h232q32 0 42 -19t-7 -57l-420 -889q-25 -49 -70 -49h-276q-47 0 -51 49z" />
    <glyph glyph-name="Ycircumflex" unicode="&#x176;" horiz-adv-x="1349" 
d="M733 1974h324q38 0 59 -49l133 -323q16 -33 0.5 -54.5t-43.5 -21.5h-194q-27 0 -38.5 8.5t-23.5 30.5l-82 145l-131 -145q-16 -18 -22 -23.5t-19 -10.5t-32 -5h-232q-24 0 -34 20.5t12 55.5l247 325q36 47 76 47zM719 0h-262q-23 0 -35 14t-8 37l82 461l-328 838
q-12 30 4.5 57t46.5 27h299q36 0 51 -37l168 -479h4l322 479q21 37 61 37h332q33 0 42.5 -23.5t-17.5 -60.5l-623 -838l-82 -461q-4 -23 -20 -37t-37 -14z" />
    <glyph glyph-name="ycircumflex" unicode="&#x177;" horiz-adv-x="1093" 
d="M485 1554h324q38 0 59 -49l133 -323q16 -33 0.5 -54.5t-43.5 -21.5h-194q-27 0 -38.5 8.5t-23.5 30.5l-81 145l-132 -145q-16 -18 -22 -23.5t-19 -10.5t-32 -5h-232q-24 0 -34 20.5t12 55.5l248 325q36 47 75 47zM199 -483q-87 0 -168.5 31t-134.5 77q-24 31 10 86
l80 125q36 55 106 19q1 -1 10 -5.5l12 -6t12 -5.5l13.5 -6t13.5 -4.5t16 -4t16 -2.5t18 -1q34 0 68 18.5t55 59.5l51 102h-135q-43 0 -54 49l-106 885q-12 80 70 80h270q35 0 39 -49l41 -656l260 656q20 49 67 49h293q67 0 29 -80l-483 -1069q-52 -113 -112 -187
t-150 -117.5t-207 -43.5z" />
    <glyph glyph-name="Ydieresis" unicode="&#x178;" horiz-adv-x="1349" 
d="M428 1724q8 86 73 147.5t150 61.5t140 -61.5t47 -147.5q-7 -86 -73 -147t-151 -61t-139.5 61t-46.5 147zM903 1724q8 86 73 147.5t150 61.5t140 -61.5t47 -147.5q-7 -86 -72.5 -147t-150.5 -61t-139.5 61t-47.5 147zM719 0h-262q-23 0 -35 14t-8 37l82 461l-328 838
q-12 30 4.5 57t46.5 27h299q36 0 51 -37l168 -479h4l322 479q21 37 61 37h332q33 0 42.5 -23.5t-17.5 -60.5l-623 -838l-82 -461q-4 -23 -20 -37t-37 -14z" />
    <glyph glyph-name="Zacute" unicode="&#x179;" horiz-adv-x="1245" 
d="M856 1974h311q40 0 55 -28.5t-5 -51.5l-263 -333q-25 -35 -59 -35h-168q-38 0 -56 21t-5 55l133 331q15 41 57 41zM1077 0h-1081q-23 0 -34.5 14t-6.5 37l33 176q6 33 39 70l772 813h-570q-23 0 -35.5 14.5t-7.5 34.5l39 223q5 21 21.5 36.5t38.5 15.5h995q20 0 32 -16
t7 -36l-37 -211q-6 -31 -27 -55l-743 -792h623q21 0 33 -13.5t8 -36.5l-41 -223q-4 -23 -20.5 -37t-37.5 -14z" />
    <glyph glyph-name="zacute" unicode="&#x17a;" horiz-adv-x="989" 
d="M647 1554h311q40 0 55 -28t-5 -51l-263 -334q-25 -35 -59 -35h-168q-38 0 -56 21t-5 55l133 331q15 41 57 41zM948 737l-469 -434h391q20 0 31.5 -13.5t7.5 -33.5l-37 -209q-5 -21 -20 -34t-35 -13h-815q-20 0 -31.5 14.5t-7.5 34.5l31 172q8 35 31 55l479 435h-361
q-20 0 -31.5 14.5t-7.5 34.5l35 205q5 20 21.5 34.5t36.5 14.5h774q21 0 33 -14.5t8 -34.5l-31 -172q-7 -30 -33 -56z" />
    <glyph glyph-name="Zdotaccent" unicode="&#x17b;" horiz-adv-x="1245" 
d="M809 1524q-94 0 -155.5 67.5t-53.5 161.5q7 93 82 161t168 68q95 0 156 -67.5t53 -161.5t-81.5 -161.5t-168.5 -67.5zM1077 0h-1081q-23 0 -34.5 14t-6.5 37l33 176q6 33 39 70l772 813h-570q-23 0 -35.5 14.5t-7.5 34.5l39 223q5 21 21.5 36.5t38.5 15.5h995
q20 0 32 -16t7 -36l-37 -211q-6 -31 -27 -55l-743 -792h623q21 0 33 -13.5t8 -36.5l-41 -223q-4 -23 -20.5 -37t-37.5 -14z" />
    <glyph glyph-name="zdotaccent" unicode="&#x17c;" horiz-adv-x="989" 
d="M600 1104q-94 0 -155.5 67.5t-53.5 161.5q7 93 82 161.5t168 68.5q95 0 156 -68t53 -162t-81.5 -161.5t-168.5 -67.5zM948 737l-469 -434h391q20 0 31.5 -13.5t7.5 -33.5l-37 -209q-5 -21 -20 -34t-35 -13h-815q-20 0 -31.5 14.5t-7.5 34.5l31 172q8 35 31 55l479 435
h-361q-20 0 -31.5 14.5t-7.5 34.5l35 205q5 20 21.5 34.5t36.5 14.5h774q21 0 33 -14.5t8 -34.5l-31 -172q-7 -30 -33 -56z" />
    <glyph glyph-name="Zcaron" unicode="&#x17d;" horiz-adv-x="1245" 
d="M942 1526h-324q-38 0 -59 49l-133 323q-12 32 4 54t39 22h197q27 0 38 -8t23 -31l80 -145l133 145q16 17 22.5 23t19.5 11t32 5h229q25 0 36.5 -20.5t-13.5 -55.5l-248 -323q-37 -49 -76 -49zM1077 0h-1081q-23 0 -34.5 14t-6.5 37l33 176q6 33 39 70l772 813h-570
q-23 0 -35.5 14.5t-7.5 34.5l39 223q5 21 21.5 36.5t38.5 15.5h995q20 0 32 -16t7 -36l-37 -211q-6 -31 -27 -55l-743 -792h623q21 0 33 -13.5t8 -36.5l-41 -223q-4 -23 -20.5 -37t-37.5 -14z" />
    <glyph glyph-name="zcaron" unicode="&#x17e;" horiz-adv-x="989" 
d="M733 1106h-323q-39 0 -60 49l-133 324q-12 32 3.5 53.5t39.5 21.5h197q27 0 38 -8t23 -30l80 -146l133 146q21 23 34 30.5t40 7.5h229q15 0 26.5 -9t13.5 -25.5t-17 -40.5l-248 -324q-37 -49 -76 -49zM948 737l-469 -434h391q20 0 31.5 -13.5t7.5 -33.5l-37 -209
q-5 -21 -20 -34t-35 -13h-815q-20 0 -31.5 14.5t-7.5 34.5l31 172q8 35 31 55l479 435h-361q-20 0 -31.5 14.5t-7.5 34.5l35 205q5 20 21.5 34.5t36.5 14.5h774q21 0 33 -14.5t8 -34.5l-31 -172q-7 -30 -33 -56z" />
    <glyph glyph-name="longs" unicode="&#x17f;" horiz-adv-x="628" 
d="M281 1014l20 110q35 194 150 287.5t282 93.5q83 0 165.5 -29.5t127.5 -82.5q28 -36 -10 -86l-109 -148q-15 -22 -33.5 -26.5t-30.5 1t-28 17.5q-42 31 -84 31q-29 0 -53.5 -21.5t-34.5 -70.5l-184 -1041q-5 -21 -20.5 -35t-35.5 -14h-249q-21 0 -33 14.5t-8 34.5l118 672
h-125q-19 0 -29.5 14.5t-6.5 34.5l34 197q5 20 20.5 33.5t35.5 13.5h121z" />
    <glyph glyph-name="florin" unicode="&#x192;" horiz-adv-x="1015" 
d="M94 -492q-84 0 -170 30t-131 83q-27 35 12 86l113 154q39 53 94 4q41 -33 78 -33q33 0 59.5 22t36.5 72l90 518h-155q-20 0 -31.5 15t-7.5 35l35 196q5 21 20 34t35 13h156l69 387q18 98 61.5 173t104 119.5t130 66.5t145.5 22q84 0 169 -29.5t130 -82.5q27 -34 -13 -86
l-112 -154q-15 -22 -35 -24.5t-31 3t-28 17.5q-41 33 -76 33q-33 0 -60 -22.5t-37 -72.5l-63 -350h182q21 0 33 -13.5t8 -33.5l-35 -196q-5 -21 -21 -35.5t-36 -14.5h-182l-99 -555q-35 -191 -156.5 -286t-281.5 -95z" />
    <glyph glyph-name="Scommaaccent" unicode="&#x218;" horiz-adv-x="1280" 
d="M731 1464q105 0 199 -22t161.5 -57t113.5 -70.5t75 -71.5q23 -23 30.5 -44.5t-0.5 -39t-16.5 -28t-23.5 -23.5l-133 -109q-23 -19 -46 -19.5t-38.5 9t-36.5 29.5q-60 55 -140.5 91t-162.5 36q-83 0 -126.5 -32t-43.5 -77q0 -63 84 -92l243 -86q359 -125 359 -412
q0 -62 -18.5 -125t-63 -127t-110 -113.5t-169 -80.5t-229.5 -31q-209 0 -363 70.5t-235 171.5q-59 77 27 154l106 98q27 26 54 28t46.5 -10t44.5 -37q72 -73 147.5 -114t176.5 -41q102 0 145 36.5t43 86.5q0 41 -39.5 71t-121.5 58l-213 71q-136 46 -223 145.5t-87 225.5
q0 95 36 180t105.5 153t183.5 108t259 40zM375 -573l96 112q-47 23 -71 69t-19 101q8 83 65 137t142 54q80 0 138.5 -63t51.5 -154q-18 -196 -254 -338q-69 -52 -118 -15l-25 19q-45 36 -6 78z" />
    <glyph glyph-name="scommaaccent" unicode="&#x219;" horiz-adv-x="993" 
d="M76 692q0 153 119 252.5t323 99.5q276 0 432 -133q56 -45 -8 -112l-84 -90q-16 -19 -34 -23.5t-35.5 2t-40.5 23.5q-112 71 -228 71q-41 0 -65.5 -14t-24.5 -35q0 -20 16.5 -34t61.5 -27l151 -45q119 -36 195 -108t76 -181q5 -163 -120.5 -266t-342.5 -103
q-117 0 -221 33t-174 82q-65 46 -72 88.5t37 85.5l86 94q42 48 119 -18q116 -96 245 -96q43 0 69 17t26 42q0 26 -22 39t-76 30q-11 3 -17 5l-156 47q-106 31 -170 100.5t-65 173.5zM225 -582l97 113q-47 23 -71.5 69t-19.5 101q8 83 65 136.5t142 53.5q80 0 139 -63
t52 -154q-18 -196 -254 -338q-69 -52 -119 -14l-25 19q-44 36 -6 77z" />
    <glyph glyph-name="uni021A" unicode="&#x21a;" horiz-adv-x="1253" 
d="M135 1147l41 235q4 23 20.5 37.5t36.5 14.5h1108q23 0 35 -14.5t8 -37.5l-41 -235q-4 -23 -21 -37t-40 -14h-367l-184 -1045q-5 -23 -20.5 -37t-38.5 -14h-273q-23 0 -34.5 14t-6.5 37l185 1045h-369q-21 0 -32 14t-7 37zM311 -582l97 113q-47 23 -71.5 69t-19.5 101
q8 83 65 136.5t142 53.5q80 0 139 -63t52 -154q-18 -196 -254 -338q-69 -52 -119 -14l-25 19q-44 36 -6 77z" />
    <glyph glyph-name="uni021B" unicode="&#x21b;" horiz-adv-x="839" 
d="M713 283l55 -131q20 -48 -35 -89q-141 -92 -305 -92q-60 0 -116 20.5t-101.5 61t-65 112.5t-2.5 165l70 391h-121q-20 0 -31.5 14.5t-7.5 34.5l35 197q5 21 20 34t35 13h123l43 250q4 20 21 33.5t37 13.5h251q20 0 31.5 -13.5t7.5 -33.5l-45 -250h240q21 0 33 -13.5
t8 -33.5l-35 -197q-5 -21 -21 -35t-36 -14h-240l-57 -324q-3 -35 -0.5 -54.5t15.5 -29t21.5 -12t18.5 -2.5q7 0 13 1t10 1.5t12 3t11.5 4t14.5 6.5t17 7q30 11 46.5 1.5t29.5 -40.5zM129 -582l96 113q-47 23 -71 69t-19 101q8 83 65 136.5t142 53.5q80 0 138.5 -63
t51.5 -154q-18 -197 -253 -338q-69 -52 -119 -14l-25 19q-44 36 -6 77z" />
    <glyph glyph-name="dotlessj" unicode="&#x237;" horiz-adv-x="487" 
d="M-31 -70l185 1035q5 21 20 35t35 14h252q19 0 31 -14.5t8 -34.5l-189 -1069q-35 -194 -149.5 -287.5t-282.5 -93.5q-83 0 -165.5 29.5t-127.5 82.5q-28 36 11 86l108 148q15 22 33.5 26.5t30.5 -1t28 -17.5q42 -31 84 -31q29 0 53.5 21.5t34.5 70.5z" />
    <glyph glyph-name="apostrophe" unicode="&#x2bc;" horiz-adv-x="563" 
d="M166 846l135 188q-56 30 -89.5 82.5t-33.5 114.5q0 93 66.5 160t163.5 67t166 -68.5t69 -175.5q0 -72 -30.5 -146.5t-78 -135t-94 -105.5t-90.5 -75q-81 -57 -137 -17l-33 23q-28 19 -30.5 44t16.5 44z" />
    <glyph glyph-name="circumflex" unicode="&#x2c6;" horiz-adv-x="978" 
d="M475 1554h324q38 0 59 -49l133 -323q16 -33 0.5 -54.5t-43.5 -21.5h-194q-27 0 -38.5 8.5t-23.5 30.5l-82 145l-131 -145q-16 -18 -22 -23.5t-19 -10.5t-32 -5h-232q-24 0 -34 20.5t12 55.5l247 325q36 47 76 47z" />
    <glyph glyph-name="caron" unicode="&#x2c7;" horiz-adv-x="978" 
d="M721 1106h-324q-38 0 -59 49l-133 324q-12 32 3.5 53.5t39.5 21.5h196q28 0 39.5 -8t22.5 -30l80 -146l133 146q21 23 34 30.5t40 7.5h229q25 0 36 -20t-14 -55l-247 -324q-37 -49 -76 -49z" />
    <glyph glyph-name="breve" unicode="&#x2d8;" horiz-adv-x="921" 
d="M496 1516l-4 -27q-7 -53 18.5 -83t75.5 -30q51 0 89.5 30.5t45.5 82.5l4 27q5 19 18.5 32t30.5 13h225q17 0 27 -13t6 -32l-8 -56q-25 -167 -147 -265.5t-310 -98.5q-189 0 -290 102t-72 266l8 52q5 19 18.5 32t30.5 13h201q17 0 27 -13t6 -32z" />
    <glyph glyph-name="dotaccent" unicode="&#x2d9;" horiz-adv-x="593" 
d="M395 1096q-94 0 -155.5 67.5t-53.5 161.5q7 93 82 161t168 68q95 0 156 -67.5t53 -161.5t-81.5 -161.5t-168.5 -67.5z" />
    <glyph glyph-name="ring" unicode="&#x2da;" horiz-adv-x="806" 
d="M537 1769q85 0 158.5 -35t120 -104.5t46.5 -161.5q0 -151 -104.5 -252.5t-259.5 -101.5q-86 0 -159 35t-120 105t-47 161q0 151 106 252.5t259 101.5zM506 1315q58 0 95.5 42.5t37.5 98.5q0 49 -30.5 82t-82.5 33q-58 0 -95.5 -42.5t-37.5 -98.5q0 -49 30.5 -82t82.5 -33
z" />
    <glyph glyph-name="ogonek" unicode="&#x2db;" horiz-adv-x="747" 
d="M182 -293q0 54 31 111t83 106t109 89t119 73l84 -12l10 -35q-66 -69 -105.5 -133t-39.5 -96q0 -64 74 -64q22 0 51.5 5t34.5 5q19 0 29 -13.5t6 -41.5l-15 -88q-4 -38 -84.5 -62t-162.5 -24q-102 0 -163 45.5t-61 134.5z" />
    <glyph glyph-name="tilde" unicode="&#x2dc;" horiz-adv-x="972" 
d="M420 1524q55 0 178.5 -32t153.5 -32q40 0 73 17.5t57.5 35t45.5 17.5q30 0 45 -35l47 -121q16 -43 10 -69q-8 -53 -100.5 -111.5t-186.5 -58.5q-63 0 -185 31.5t-146 31.5q-40 0 -71.5 -17.5t-54.5 -35t-44 -17.5q-16 0 -24.5 7.5t-20.5 27.5l-58 121q-16 36 -10 68
q8 54 103.5 113t187.5 59z" />
    <glyph glyph-name="hungarumlaut" unicode="&#x2dd;" horiz-adv-x="1126" 
d="M344 1554h311q40 0 55 -27t-5 -52l-242 -334q-25 -35 -60 -35h-165q-38 0 -57 21t-7 55l113 331q12 41 57 41zM846 1554h311q40 0 54.5 -27t-5.5 -52l-241 -334q-25 -35 -60 -35h-166q-38 0 -56.5 21t-6.5 55l112 331q12 41 58 41z" />
    <glyph glyph-name="pi" unicode="&#x3c0;" horiz-adv-x="1421" 
d="M764 721h-143l-195 -672q-15 -49 -64 -49h-272q-21 0 -34 14.5t-7 34.5l221 672h-151q-20 0 -31 14.5t-6 34.5l35 197q5 21 19 34t34 13h1221q21 0 33 -13.5t8 -33.5l-35 -197q-5 -20 -21.5 -34.5t-36.5 -14.5h-227l-57 -324q-6 -31 -0.5 -52t19 -29t23 -10.5t19.5 -2.5
q37 0 86 29q29 18 53.5 16t34.5 -26l62 -144q18 -45 -21 -84q-61 -58 -152 -89.5t-188 -31.5q-49 0 -96 12t-91 38.5t-72 68.5t-41 101t3 137z" />
    <glyph glyph-name="Wgrave" unicode="&#x1e80;" horiz-adv-x="2019" 
d="M887 1974h311q48 0 57 -41l72 -331q15 -76 -63 -76h-166q-39 0 -60 35l-200 333q-19 26 -5 53t54 27zM1061 827l-289 -776q-10 -27 -30.5 -39t-41.5 -12h-395q-18 0 -35 12.5t-18 38.5l-90 1299q-4 40 16.5 62t52.5 22h281q19 0 31 -15t12 -35l35 -960l364 965
q10 19 13.5 25t14.5 13t28 7h311q20 0 32.5 -13t12.5 -32l64 -955l337 950q6 20 23.5 35t36.5 15h274q75 0 41 -84l-520 -1299q-6 -18 -23 -30.5t-29.5 -16.5t-17.5 -4h-393q-47 0 -55 51z" />
    <glyph glyph-name="wgrave" unicode="&#x1e81;" horiz-adv-x="1585" 
d="M594 1554h311q49 0 58 -41l71 -331q15 -76 -63 -76h-166q-39 0 -60 35l-200 334q-19 26 -5 52.5t54 26.5zM795 471l-174 -422q-8 -21 -27 -35t-43 -14h-283q-42 0 -53 49l-133 889q-6 37 11 56.5t50 19.5h252q45 0 49 -49l48 -533l227 537q19 45 72 45h210q49 0 52 -49
l43 -533l221 533q20 49 67 49h232q32 0 42 -19t-7 -57l-420 -889q-25 -49 -70 -49h-276q-47 0 -51 49z" />
    <glyph glyph-name="Wacute" unicode="&#x1e82;" horiz-adv-x="2019" 
d="M1241 1974h311q40 0 55 -28.5t-5 -51.5l-263 -333q-25 -35 -59 -35h-168q-38 0 -56 21t-5 55l133 331q15 41 57 41zM1061 827l-289 -776q-10 -27 -30.5 -39t-41.5 -12h-395q-18 0 -35 12.5t-18 38.5l-90 1299q-4 40 16.5 62t52.5 22h281q19 0 31 -15t12 -35l35 -960
l364 965q10 19 13.5 25t14.5 13t28 7h311q20 0 32.5 -13t12.5 -32l64 -955l337 950q6 20 23.5 35t36.5 15h274q75 0 41 -84l-520 -1299q-6 -18 -23 -30.5t-29.5 -16.5t-17.5 -4h-393q-47 0 -55 51z" />
    <glyph glyph-name="wacute" unicode="&#x1e83;" horiz-adv-x="1585" 
d="M948 1554h312q40 0 54.5 -28t-5.5 -51l-262 -334q-25 -35 -60 -35h-168q-38 0 -56 21t-5 55l133 331q15 41 57 41zM795 471l-174 -422q-8 -21 -27 -35t-43 -14h-283q-42 0 -53 49l-133 889q-6 37 11 56.5t50 19.5h252q45 0 49 -49l48 -533l227 537q19 45 72 45h210
q49 0 52 -49l43 -533l221 533q20 49 67 49h232q32 0 42 -19t-7 -57l-420 -889q-25 -49 -70 -49h-276q-47 0 -51 49z" />
    <glyph glyph-name="Wdieresis" unicode="&#x1e84;" horiz-adv-x="2019" 
d="M776 1724q8 86 73 147.5t150 61.5t140 -61.5t47 -147.5q-7 -86 -72.5 -147t-150.5 -61t-139.5 61t-47.5 147zM1251 1724q7 86 73 147.5t151 61.5t139.5 -61.5t46.5 -147.5q-7 -86 -72.5 -147t-150.5 -61t-139.5 61t-47.5 147zM1061 827l-289 -776q-10 -27 -30.5 -39
t-41.5 -12h-395q-18 0 -35 12.5t-18 38.5l-90 1299q-4 40 16.5 62t52.5 22h281q19 0 31 -15t12 -35l35 -960l364 965q10 19 13.5 25t14.5 13t28 7h311q20 0 32.5 -13t12.5 -32l64 -955l337 950q6 20 23.5 35t36.5 15h274q75 0 41 -84l-520 -1299q-6 -18 -23 -30.5
t-29.5 -16.5t-17.5 -4h-393q-47 0 -55 51z" />
    <glyph glyph-name="wdieresis" unicode="&#x1e85;" horiz-adv-x="1585" 
d="M483 1305q7 86 73 147t151 61t139.5 -61t46.5 -147t-73 -147.5t-150 -61.5t-140 61.5t-47 147.5zM958 1305q7 86 73 147t151 61t139.5 -61t46.5 -147t-73 -147.5t-150 -61.5t-140 61.5t-47 147.5zM795 471l-174 -422q-8 -21 -27 -35t-43 -14h-283q-42 0 -53 49l-133 889
q-6 37 11 56.5t50 19.5h252q45 0 49 -49l48 -533l227 537q19 45 72 45h210q49 0 52 -49l43 -533l221 533q20 49 67 49h232q32 0 42 -19t-7 -57l-420 -889q-25 -49 -70 -49h-276q-47 0 -51 49z" />
    <glyph glyph-name="Ygrave" unicode="&#x1ef2;" horiz-adv-x="1349" 
d="M539 1974h311q48 0 57 -41l72 -331q15 -76 -64 -76h-165q-39 0 -60 35l-201 333q-19 26 -4.5 53t54.5 27zM719 0h-262q-23 0 -35 14t-8 37l82 461l-328 838q-12 30 4.5 57t46.5 27h299q36 0 51 -37l168 -479h4l322 479q21 37 61 37h332q33 0 42.5 -23.5t-17.5 -60.5
l-623 -838l-82 -461q-4 -23 -20 -37t-37 -14z" />
    <glyph glyph-name="ygrave" unicode="&#x1ef3;" horiz-adv-x="1093" 
d="M291 1554h311q48 0 57 -41l72 -331q15 -76 -63 -76h-166q-39 0 -60 35l-200 334q-19 26 -5 52.5t54 26.5zM199 -483q-87 0 -168.5 31t-134.5 77q-24 31 10 86l80 125q36 55 106 19q1 -1 10 -5.5l12 -6t12 -5.5l13.5 -6t13.5 -4.5t16 -4t16 -2.5t18 -1q34 0 68 18.5
t55 59.5l51 102h-135q-43 0 -54 49l-106 885q-12 80 70 80h270q35 0 39 -49l41 -656l260 656q20 49 67 49h293q67 0 29 -80l-483 -1069q-52 -113 -112 -187t-150 -117.5t-207 -43.5z" />
    <glyph glyph-name="endash" unicode="&#x2013;" horiz-adv-x="1374" 
d="M1225 440h-1098q-23 0 -34.5 14.5t-6.5 37.5l45 266q4 23 21 37t38 14h1098q23 0 35 -14t8 -37l-47 -266q-4 -23 -21 -37.5t-38 -14.5z" />
    <glyph glyph-name="emdash" unicode="&#x2014;" horiz-adv-x="1964" 
d="M1815 440h-1688q-23 0 -34.5 14.5t-6.5 37.5l45 266q4 23 21 37t38 14h1690q21 0 33 -14t8 -37l-47 -266q-5 -24 -20.5 -38t-38.5 -14z" />
    <glyph glyph-name="quoteleft" unicode="&#x2018;" horiz-adv-x="563" 
d="M604 1337l-135 -188q56 -30 89.5 -82.5t33.5 -114.5q0 -93 -66.5 -160t-163.5 -67t-166 68.5t-69 175.5q0 72 30.5 146.5t78 135t94 106t90.5 75.5q81 57 137 16l33 -23q28 -19 30.5 -44t-16.5 -44z" />
    <glyph glyph-name="quoteright" unicode="&#x2019;" horiz-adv-x="563" 
d="M168 852l135 188q-56 30 -89.5 82.5t-33.5 114.5q0 93 66.5 160t163.5 67t166 -68t69 -175q0 -72 -30.5 -146.5t-78 -135t-94 -106t-90.5 -75.5q-81 -57 -137 -17l-33 23q-28 19 -30.5 44t16.5 44z" />
    <glyph glyph-name="quotesinglbase" unicode="&#x201a;" horiz-adv-x="550" 
d="M-33 -180l144 178q-51 26 -79 78t-22 112q8 91 73.5 152t158.5 61t154.5 -67t54.5 -170q-6 -67 -40.5 -137.5t-84 -127t-99 -99.5t-94.5 -70q-80 -53 -131 -17l-29 23q-47 36 -6 84z" />
    <glyph glyph-name="quotedblleft" unicode="&#x201c;" horiz-adv-x="1093" 
d="M1135 1337l-136 -188q56 -30 89.5 -82.5t33.5 -114.5q0 -93 -66 -160t-163 -67t-166.5 68.5t-69.5 175.5q0 72 30.5 146.5t78 135t94 106t90.5 75.5q81 57 137 16l33 -23q28 -19 31 -44t-16 -44zM604 1337l-135 -188q56 -30 89.5 -82.5t33.5 -114.5q0 -93 -66.5 -160
t-163.5 -67t-166 68.5t-69 175.5q0 72 30.5 146.5t78 135t94 106t90.5 75.5q81 57 137 16l33 -23q28 -19 30.5 -44t-16.5 -44z" />
    <glyph glyph-name="quotedblright" unicode="&#x201d;" horiz-adv-x="1093" 
d="M168 852l135 188q-56 30 -89.5 82.5t-33.5 114.5q0 93 66.5 160t163.5 67t166 -68t69 -175q0 -72 -30.5 -146.5t-78 -135t-94 -106t-90.5 -75.5q-81 -57 -137 -17l-33 23q-28 19 -30.5 44t16.5 44zM698 852l136 188q-56 30 -89.5 82.5t-33.5 114.5q0 93 66 160t163 67
t166.5 -68t69.5 -175q0 -72 -30.5 -146.5t-78 -135t-94 -106t-90.5 -75.5q-82 -57 -138 -17l-32 23q-28 19 -31 44t16 44z" />
    <glyph glyph-name="quotedblbase" unicode="&#x201e;" horiz-adv-x="1110" 
d="M0 -201l135 189q-56 30 -89.5 82t-33.5 114q0 93 66.5 160.5t163.5 67.5t166 -68.5t69 -175.5q0 -72 -30.5 -146.5t-78 -135t-94 -106t-90.5 -75.5q-81 -57 -137 -16l-33 22q-28 19 -30.5 44t16.5 44zM530 -201l136 189q-56 30 -89.5 82t-33.5 114q0 94 66 161t163 67
t166.5 -68.5t69.5 -175.5q0 -72 -30.5 -146.5t-78 -135t-94 -106t-90.5 -75.5q-81 -57 -137 -16l-33 22q-28 19 -31 44t16 44z" />
    <glyph glyph-name="dagger" unicode="&#x2020;" horiz-adv-x="976" 
d="M690 819l-88 -491q-5 -18 -17.5 -29.5t-29.5 -11.5h-209q-18 0 -28.5 12t-6.5 29l88 491h-235q-18 0 -28.5 12t-6.5 29l35 197q5 18 18.5 29.5t30.5 11.5h236l51 295q5 18 17.5 29.5t29.5 11.5h209q18 0 28.5 -12t6.5 -29l-52 -295h238q19 0 28.5 -12t4.5 -29l-35 -197
q-11 -41 -47 -41h-238z" />
    <glyph glyph-name="daggerdbl" unicode="&#x2021;" horiz-adv-x="976" 
d="M604 336l-51 -295q-11 -41 -49 -41h-209q-18 0 -27.5 12t-5.5 29l51 295h-235q-17 0 -27 11.5t-8 29.5l35 196q5 18 18.5 29.5t30.5 11.5h235l37 205h-235q-18 0 -28.5 12t-6.5 29l35 197q5 18 18.5 29.5t30.5 11.5h236l51 295q5 18 17.5 29.5t29.5 11.5h209q19 0 29 -12
t6 -29l-52 -295h240q18 0 27.5 -12t5.5 -29l-35 -197q-5 -18 -17.5 -29.5t-29.5 -11.5h-240l-37 -205h240q18 0 27.5 -12t5.5 -29l-35 -196q-1 -17 -15.5 -29t-31.5 -12h-240z" />
    <glyph glyph-name="bullet" unicode="&#x2022;" horiz-adv-x="829" 
d="M451 406q-129 0 -220.5 91t-91.5 220t91.5 220t220.5 91t220 -91t91 -220t-91 -220t-220 -91z" />
    <glyph glyph-name="ellipsis" unicode="&#x2026;" horiz-adv-x="1822" 
d="M205 -31q-90 0 -147.5 63.5t-49.5 151.5q8 89 76.5 153t157.5 64t147.5 -64t50.5 -153q-8 -88 -76.5 -151.5t-158.5 -63.5zM852 -31q-89 0 -148 63.5t-51 151.5q8 90 77 153.5t159 63.5t147 -63.5t49 -153.5q-8 -88 -76 -151.5t-157 -63.5zM1497 -31q-90 0 -147.5 63.5
t-49.5 151.5q8 89 76.5 153t157.5 64q90 0 147.5 -63.5t49.5 -153.5q-8 -88 -76.5 -151.5t-157.5 -63.5z" />
    <glyph glyph-name="perthousand" unicode="&#x2030;" horiz-adv-x="2076" 
d="M156 1004q0 86 20.5 164t60.5 141.5t106 101t149 37.5q121 0 190.5 -84.5t69.5 -216.5q0 -86 -20.5 -164t-60.5 -141.5t-106 -101.5t-149 -38q-121 0 -190.5 85t-69.5 217zM1407 1360l-1151 -1321q-16 -21 -31.5 -30t-44.5 -9h-47q-36 0 -43.5 24.5t14.5 49.5l1151 1321
q16 21 31.5 30t44.5 9h47q37 0 45 -24.5t-16 -49.5zM342 989q0 -129 86 -129q57 0 97 79.5t40 221.5q0 129 -86 129q-57 0 -97 -79.5t-40 -221.5zM1403 281q0 86 20.5 164t60.5 141.5t106 101t149 37.5q121 0 190.5 -84.5t69.5 -216.5q0 -86 -20.5 -164t-60.5 -141.5
t-106 -101t-149 -37.5q-121 0 -190.5 84.5t-69.5 216.5zM756 281q0 86 20.5 164t60.5 141.5t106 101t149 37.5q121 0 190.5 -84.5t69.5 -216.5q0 -86 -20.5 -164t-60.5 -141.5t-106 -101t-149 -37.5q-121 0 -190.5 84.5t-69.5 216.5zM1589 266q0 -62 21.5 -95.5t58.5 -33.5
q63 0 103 78.5t40 222.5q0 62 -21 95.5t-58 33.5q-63 0 -103.5 -78.5t-40.5 -222.5zM942 266q0 -129 86 -129q57 0 97 79.5t40 221.5q0 129 -86 129q-57 0 -97 -79.5t-40 -221.5z" />
    <glyph glyph-name="guilsinglleft" unicode="&#x2039;" horiz-adv-x="706" 
d="M516 0h-164q-25 0 -37.5 7t-25.5 32l-238 453q-18 34 12 71l351 412q32 39 75 39h205q21 0 29 -21t-8 -47l-297 -440l143 -438q7 -25 -8.5 -46.5t-36.5 -21.5z" />
    <glyph glyph-name="guilsinglright" unicode="&#x203a;" horiz-adv-x="704" 
d="M186 1014h164q25 0 38 -7t26 -32l237 -453q18 -34 -12 -71l-350 -412q-32 -39 -76 -39h-205q-21 0 -28.5 21t8.5 47l297 440l-144 438q-7 25 8.5 46.5t36.5 21.5z" />
    <glyph glyph-name="fraction" unicode="&#x2044;" horiz-adv-x="286" 
d="M831 1360l-1148 -1321q-16 -20 -32 -29.5t-46 -9.5h-47q-37 0 -45 24.5t16 49.5l1149 1321q16 20 32 29.5t46 9.5h47q37 0 44.5 -24.5t-16.5 -49.5z" />
    <glyph glyph-name="zerosuperior" unicode="&#x2070;" horiz-adv-x="659" 
d="M526 1755q123 0 188.5 -81t65.5 -210q0 -82 -19.5 -160.5t-58.5 -146.5t-106 -109.5t-152 -41.5q-122 0 -186.5 81t-64.5 209q0 83 19 161.5t57.5 146.5t105 109.5t151.5 41.5zM455 1161q43 0 76 51t49 123t16 146q0 121 -80 121q-43 0 -76 -51.5t-49 -123t-16 -145.5
q0 -121 80 -121z" />
    <glyph glyph-name="foursuperior" unicode="&#x2074;" horiz-adv-x="643" 
d="M461 1200h-289q-25 0 -22 27l18 98q12 47 27 66l294 329q15 21 39 21h179q25 0 22 -25l-65 -370h69q24 0 21 -25l-17 -94q-2 -11 -10 -19t-18 -8h-70l-27 -149q-9 -27 -32 -27h-127q-28 0 -19 27zM334 1346h151l39 219z" />
    <glyph glyph-name="fivesuperior" unicode="&#x2075;" horiz-adv-x="632" 
d="M434 1012q-96 0 -168 38t-108 103q-6 12 -3 26t15 21l84 53q35 20 53 -10q2 -2 8 -9t9 -10t10 -9.5t12 -10.5t13 -9.5t15.5 -8.5t17 -6t20 -4.5t22.5 -1.5q51 0 84 26.5t33 69.5q0 41 -30.5 63.5t-69.5 22.5q-45 0 -86 -25q-10 -8 -27 -4l-105 35q-20 9 -14 27l78 327
q3 25 31 25h417q11 0 18.5 -6.5t6.5 -16.5l-20 -114q-9 -27 -31 -27h-305l-27 -104q56 26 115 26q98 0 165.5 -60.5t67.5 -156.5q0 -111 -82.5 -190.5t-218.5 -79.5z" />
    <glyph glyph-name="sixsuperior" unicode="&#x2076;" horiz-adv-x="645" 
d="M465 1001q-126 0 -207.5 76.5t-81.5 192.5q0 62 23 122.5t53.5 105.5t80.5 94.5t84.5 77t84.5 65.5q20 13 41 10l137 -12q13 -1 18.5 -9.5t3 -19.5t-11.5 -18l-258 -211q55 22 96 22q97 0 164.5 -61.5t67.5 -161.5q0 -113 -85 -193t-210 -80zM475 1364q-47 0 -78.5 -31
t-31.5 -78q0 -43 30 -69.5t70 -26.5q47 0 78.5 31t31.5 78q0 43 -30 69.5t-70 26.5z" />
    <glyph glyph-name="sevensuperior" unicode="&#x2077;" horiz-adv-x="569" 
d="M367 1024h-150q-17 0 -20 11t8 28l319 514h-293q-23 0 -20 27l18 112q1 10 10.5 17.5t20.5 7.5h477q10 0 16.5 -7t4.5 -18l-10 -65q-6 -32 -27 -70l-318 -539q-14 -18 -36 -18z" />
    <glyph glyph-name="eightsuperior" unicode="&#x2078;" horiz-adv-x="671" 
d="M461 1008q-133 0 -213 63.5t-80 157.5q0 79 48.5 128t107.5 64q-74 47 -74 133q0 92 76 147.5t198 55.5q117 0 189.5 -54.5t72.5 -141.5q0 -113 -112 -164q40 -22 65 -62t25 -94q0 -96 -81.5 -164.5t-221.5 -68.5zM518 1475q41 0 67.5 20t26.5 51t-26.5 50.5t-63.5 19.5
q-41 0 -67.5 -20.5t-26.5 -51.5t26.5 -50t63.5 -19zM469 1337q-48 0 -80.5 -25.5t-32.5 -66.5q0 -39 31.5 -62.5t75.5 -23.5q48 0 80 25.5t32 66.5q0 39 -31 62.5t-75 23.5z" />
    <glyph glyph-name="ninesuperior" unicode="&#x2079;" horiz-adv-x="643" 
d="M453 1028q-17 -13 -39 -10l-140 14q-19 2 -22 18.5t14 28.5l250 207q-44 -18 -88 -18q-96 0 -164.5 62t-68.5 159q0 113 85 192.5t209 79.5q127 0 208 -76t81 -192q0 -62 -22.5 -122.5t-53.5 -105.5t-80.5 -94.5t-84 -77.5t-84.5 -65zM481 1399q44 0 76.5 32t32.5 76
q0 43 -29.5 71t-71.5 28q-44 0 -76 -32.5t-32 -76.5q0 -43 29 -70.5t71 -27.5z" />
    <glyph glyph-name="zeroinferior" unicode="&#x2080;" horiz-adv-x="659" 
d="M291 424q123 0 188.5 -81t65.5 -210q0 -65 -12 -128t-38 -123.5t-64.5 -106t-95.5 -73.5t-126 -28q-122 0 -187 81.5t-65 209.5q0 65 11.5 128.5t37.5 124t64 106t95 73t126 27.5zM219 -170q43 0 76 51t49 123t16 146q0 120 -79 120q-43 0 -76.5 -51t-49.5 -123t-16 -145
q0 -121 80 -121z" />
    <glyph glyph-name="oneinferior" unicode="&#x2081;" horiz-adv-x="399" 
d="M-35 197l17 98q6 29 32 29h33q41 0 64 13t43 50q14 23 41 23h84q23 0 20 -25l-117 -666q-9 -26 -30 -26h-132q-10 0 -16 7.5t-4 18.5l80 453h-94q-24 0 -21 25z" />
    <glyph glyph-name="twoinferior" unicode="&#x2082;" horiz-adv-x="628" 
d="M420 -307h-479q-11 0 -16.5 7t-4.5 17l17 90q6 28 30 46l221 159q85 62 116.5 98t31.5 76q0 35 -23 55.5t-59 20.5q-76 0 -111 -78q-21 -45 -59 -30l-86 34q-28 12 -18 41q27 82 104 139.5t186 57.5q104 0 178 -60.5t74 -154.5q0 -88 -56.5 -158t-156.5 -137l-96 -66h233
q11 0 16.5 -7t4.5 -17l-18 -109q-1 -10 -9.5 -17t-19.5 -7z" />
    <glyph glyph-name="threeinferior" unicode="&#x2083;" horiz-adv-x="622" 
d="M193 -324q-127 0 -200.5 70t-62.5 174l2 19q3 24 35 24h115q26 0 20 -22l-2 -11q-8 -42 19.5 -72t77.5 -30q47 0 73.5 27t26.5 65q0 36 -29 61t-86 25h-32q-24 0 -21 25l10 65q3 19 21 37l133 113h-262q-11 0 -18 8t-3 18l21 113q3 25 30 25h437q23 0 20 -25l-12 -96
q-8 -45 -23 -56l-141 -118q65 -24 102 -72.5t37 -118.5q0 -99 -77.5 -173.5t-210.5 -74.5z" />
    <glyph glyph-name="fourinferior" unicode="&#x2084;" horiz-adv-x="643" 
d="M225 -131h-288q-26 0 -23 27l18 98q12 46 27 65l295 330q15 21 39 21h178q26 0 23 -25l-66 -371h70q23 0 20 -24l-16 -94q-2 -11 -10.5 -19t-18.5 -8h-70l-26 -150q-9 -26 -33 -26h-127q-27 0 -18 26zM98 14h152l39 219z" />
    <glyph glyph-name="fiveinferior" unicode="&#x2085;" horiz-adv-x="632" 
d="M199 -319q-96 0 -168.5 38t-108.5 103q-6 12 -3 26t15 21l84 53q36 21 54 -10q1 -1 10 -11.5t13 -13.5t14 -12.5t17.5 -13.5t19.5 -9.5t25 -7.5t28 -2q50 0 83 26.5t33 70.5q0 41 -30.5 63.5t-69.5 22.5q-45 0 -86 -25q-10 -8 -27 -4l-104 35q-20 9 -14 26l77 328
q3 25 31 25h418q11 0 18.5 -6.5t6.5 -16.5l-21 -115q-9 -26 -31 -26h-305l-26 -105q58 27 114 27q98 0 166 -60.5t68 -156.5q0 -111 -82.5 -190.5t-218.5 -79.5z" />
    <glyph glyph-name="sixinferior" unicode="&#x2086;" horiz-adv-x="645" 
d="M231 -330q-125 0 -206.5 76.5t-81.5 192.5q0 62 23 122.5t53 105.5t80 94t84.5 76.5t84.5 65.5q21 14 41 11l137 -13q13 -1 19 -9.5t3.5 -19.5t-11.5 -18l-258 -211q57 23 96 23q97 0 164 -61.5t67 -161.5q0 -113 -85 -193t-210 -80zM242 33q-47 0 -79 -31t-32 -78
q0 -43 30 -69.5t70 -26.5q47 0 79 31t32 78q0 43 -30 69.5t-70 26.5z" />
    <glyph glyph-name="seveninferior" unicode="&#x2087;" horiz-adv-x="569" 
d="M131 -307h-149q-17 0 -20.5 11t7.5 28l320 514h-293q-24 0 -21 26l19 113q1 10 10.5 17.5t20.5 7.5h477q10 0 16 -7t4 -18l-10 -66q-6 -30 -27 -69l-317 -539q-14 -18 -37 -18z" />
    <glyph glyph-name="eightinferior" unicode="&#x2088;" horiz-adv-x="671" 
d="M227 -324q-133 0 -213 64t-80 158q0 79 48.5 128t107.5 64q-74 47 -74 133q0 92 76.5 147.5t198.5 55.5q116 0 189 -55t73 -142q0 -112 -113 -163q40 -22 65 -62t25 -94q0 -96 -81.5 -165t-221.5 -69zM285 143q41 0 67.5 20.5t26.5 51.5t-26.5 50.5t-63.5 19.5
q-41 0 -67.5 -20.5t-26.5 -51.5t26.5 -50.5t63.5 -19.5zM236 6q-48 0 -80.5 -25.5t-32.5 -66.5q0 -39 31 -62.5t75 -23.5q48 0 80.5 25.5t32.5 66.5q0 39 -31 62.5t-75 23.5z" />
    <glyph glyph-name="nineinferior" unicode="&#x2089;" horiz-adv-x="643" 
d="M217 -303q-17 -13 -39 -10l-139 14q-19 2 -22 18.5t14 28.5l250 207q-43 -18 -88 -18q-97 0 -165.5 62t-68.5 159q0 113 85.5 192.5t209.5 79.5q127 0 208 -76t81 -192q0 -62 -23 -122.5t-53.5 -105.5t-80.5 -94.5t-84.5 -77t-84.5 -65.5zM246 68q44 0 76 32t32 76
q0 43 -29 70.5t-71 27.5q-44 0 -76.5 -32t-32.5 -76q0 -43 29.5 -70.5t71.5 -27.5z" />
    <glyph glyph-name="Euro" unicode="&#x20ac;" horiz-adv-x="1431" 
d="M805 -31q-234 0 -394 137t-180 355h-120q-21 0 -33 14t-8 37l18 102q5 23 20 37.5t35 14.5h82q1 7 7.5 44.5t11.5 57.5h-82q-21 0 -32 14t-7 37l18 103q4 23 20.5 37t37.5 14h98q69 222 239.5 356.5t417.5 134.5q155 0 280.5 -52.5t188.5 -115.5q28 -28 -8 -77l-127 -162
q-44 -58 -117 -6q-98 75 -225 75q-85 0 -152.5 -41.5t-105.5 -111.5h377q21 0 32 -14t7 -37l-19 -103q-4 -23 -20 -37t-37 -14h-401q-14 -54 -17 -102h400q21 0 33 -14.5t8 -37.5l-19 -102q-4 -23 -20 -37t-37 -14h-373q23 -74 90.5 -114t171.5 -40q121 0 256 78
q83 46 115 -23l78 -145q11 -18 9.5 -42t-17.5 -40q-62 -67 -199 -116.5t-301 -49.5z" />
    <glyph glyph-name="litre" unicode="&#x2113;" horiz-adv-x="937" 
d="M492 -14q-160 0 -243.5 98t-62.5 231l19 111l-68 -31q-35 -16 -49 19l-45 112q-15 40 29 64l174 88l76 432q30 170 122 262t248 92q151 0 238.5 -102t62.5 -256q-16 -92 -59.5 -173.5t-110.5 -148.5t-144 -121t-175 -106l-37 -209q-10 -46 10 -69t53 -23q51 0 103 55
q14 18 34.5 21t37.5 -10l120 -95q17 -13 18 -33.5t-12 -37.5q-121 -170 -339 -170zM752 1120q6 42 -11 70.5t-51 28.5q-38 0 -59.5 -31t-28.5 -78l-47 -270q167 118 197 280z" />
    <glyph glyph-name="trademark" unicode="&#x2122;" horiz-adv-x="1712" 
d="M197 1290l20 119q1 10 9.5 17.5t19.5 7.5h598q22 0 18 -25l-20 -119q-3 -24 -27 -24h-205l-92 -523q-3 -24 -29 -24h-141q-23 0 -20 24l92 523h-203q-23 0 -20 24zM1202 1407l82 -326l195 326q18 27 39 27h215q21 0 18 -25l-117 -668q-3 -22 -28 -22h-129q-20 0 -17 24
l82 461l-194 -313q-15 -25 -37 -25h-123q-12 0 -18.5 4.5t-10.5 20.5l-80 313l-82 -461q-1 -10 -9 -17t-19 -7h-129q-24 0 -21 22l117 668q3 25 31 25h209q20 0 26 -27z" />
    <glyph glyph-name="Omega" unicode="&#x2126;" horiz-adv-x="1599" 
d="M731 403l-63 -352q-5 -23 -21 -37t-39 -14h-495q-23 0 -35.5 15t-7.5 36l36 205q5 23 21 37t39 14h274l4 21q-40 16 -80.5 42t-84.5 69t-77.5 94.5t-55 122.5t-21.5 149q0 93 28.5 185t90.5 178t150.5 151.5t218 105t282.5 39.5q140 0 258 -34t198.5 -90.5t136.5 -131
t81.5 -153.5t25.5 -160q0 -101 -30 -188.5t-76 -147.5t-108.5 -108.5t-120.5 -76.5t-119 -46l-4 -21h254q23 0 35.5 -14.5t7.5 -34.5l-37 -207q-5 -23 -21 -37t-39 -14h-495q-23 0 -35.5 15t-7.5 36l63 352q7 47 18 63q16 20 46 34q142 62 214 143.5t72 212.5
q0 117 -91 193.5t-238 76.5q-167 0 -272 -100t-105 -240q0 -97 44.5 -167t149.5 -119q43 -20 31 -97z" />
    <glyph glyph-name="estimated" unicode="&#x212e;" horiz-adv-x="1761" 
d="M1720 705h-1269q-19 0 -19 -25v-352q0 -82 84.5 -150t199 -102.5t222.5 -34.5q156 0 290.5 52t231.5 153l3 3q7 8 11 11t11.5 5.5t17.5 2.5h43q10 0 13 -8t-3 -16q-111 -129 -269.5 -198t-348.5 -69q-171 0 -322 58.5t-257.5 158.5t-168 238t-61.5 291q0 151 60 286
t165.5 234t257.5 157t326 58q186 0 338.5 -56t253.5 -154.5t158 -229.5t63 -283q0 -12 -9.5 -21t-21.5 -9zM432 1069v-283q0 -18 19 -18h976q19 0 19 18v283q0 87 -42.5 152t-116 102.5t-161.5 55.5t-188 18q-75 0 -145 -11t-136.5 -36t-115.5 -62t-79 -93t-30 -126z" />
    <glyph glyph-name="onethird" unicode="&#x2153;" horiz-adv-x="1433" 
d="M1339 1360l-1149 -1321q-16 -20 -32 -29.5t-45 -9.5h-47q-37 0 -45 24.5t16 49.5l1149 1321q16 20 32 29.5t46 9.5h47q37 0 44.5 -24.5t-16.5 -49.5zM188 1221l17 98q6 29 33 29h32q42 0 64.5 13t42.5 50q14 23 41 23h84q23 0 20 -25l-116 -666q-9 -26 -31 -26h-131
q-10 0 -16.5 7.5t-4.5 18.5l80 453h-94q-24 0 -21 25zM1036 -23q-127 0 -200 70t-62 174l2 19q3 24 35 24h115q26 0 20 -22l-2 -11q-8 -42 19 -72t77 -30q47 0 74 27t27 65q0 36 -29 61t-86 25h-33q-23 0 -20 25l10 65q3 19 21 37l133 113h-263q-11 0 -17.5 8t-2.5 18
l20 113q3 25 31 25h436q24 0 21 -25l-12 -96q-8 -44 -23 -55l-141 -119q65 -24 102 -72.5t37 -118.5q0 -99 -77.5 -173.5t-211.5 -74.5z" />
    <glyph glyph-name="twothirds" unicode="&#x2154;" horiz-adv-x="1593" 
d="M629 717h-479q-11 0 -16.5 7t-4.5 17l16 90q6 27 31 46l221 159q85 62 116.5 98t31.5 76q0 35 -23 55.5t-59 20.5q-76 0 -111 -78q-21 -45 -59 -30l-86 34q-28 13 -19 41q27 81 104.5 139t186.5 58q104 0 178 -60.5t74 -154.5q0 -88 -56.5 -158t-156.5 -137l-96 -66h233
q11 0 16.5 -7t4.5 -17l-19 -109q-1 -10 -9 -17t-19 -7zM1522 1360l-1149 -1321q-16 -20 -32 -29.5t-46 -9.5h-47q-37 0 -45 24.5t16 49.5l1149 1321q16 20 32 29.5t46 9.5h47q37 0 45 -24.5t-16 -49.5zM1194 -23q-127 0 -200 70t-62 174l2 19q3 24 35 24h114q27 0 21 -22
l-2 -11q-8 -42 19 -72t77 -30q47 0 73.5 27t26.5 65q0 36 -28.5 61t-85.5 25h-33q-24 0 -21 25l11 65q3 20 20 37l133 113h-262q-11 0 -17.5 8t-2.5 18l20 113q3 25 31 25h436q24 0 21 -25l-13 -96q-5 -28 -8.5 -38t-13.5 -17l-142 -119q65 -24 102.5 -72.5t37.5 -118.5
q0 -99 -77.5 -173.5t-211.5 -74.5z" />
    <glyph glyph-name="oneeight" unicode="&#x215b;" horiz-adv-x="1398" 
d="M1303 1360l-1149 -1321q-16 -20 -32 -29.5t-46 -9.5h-47q-37 0 -45 24.5t16 49.5l1149 1321q16 20 32 29.5t46 9.5h47q37 0 45 -24.5t-16 -49.5zM213 1221l16 98q6 29 33 29h33q41 0 63.5 13t42.5 50q14 23 41 23h84q24 0 21 -25l-117 -666q-9 -26 -31 -26h-131
q-10 0 -16 7.5t-4 18.5l80 453h-95q-23 0 -20 25zM987 -23q-133 0 -213 64t-80 158q0 79 48.5 128t107.5 64q-74 47 -74 133q0 92 76.5 147.5t198.5 55.5q116 0 189 -55t73 -142q0 -112 -113 -163q40 -22 65 -62t25 -94q0 -96 -81.5 -165t-221.5 -69zM1044 444q41 0 68 20.5
t27 51.5t-26.5 50.5t-63.5 19.5q-41 0 -68 -20.5t-27 -51.5t26.5 -50.5t63.5 -19.5zM995 307q-48 0 -80 -25.5t-32 -66.5q0 -39 31 -62.5t75 -23.5q48 0 80.5 25.5t32.5 66.5q0 39 -31.5 62.5t-75.5 23.5z" />
    <glyph glyph-name="threeeights" unicode="&#x215c;" horiz-adv-x="1562" 
d="M1466 1360l-1149 -1321q-16 -20 -32 -29.5t-45 -9.5h-47q-37 0 -45 24.5t16 49.5l1149 1321q16 20 32 29.5t46 9.5h47q37 0 44.5 -24.5t-16.5 -49.5zM401 700q-127 0 -200 70t-62 174l2 19q3 24 35 24h115q26 0 20 -22l-2 -11q-8 -42 19.5 -72t77.5 -30q47 0 73.5 27
t26.5 65q0 36 -29 61t-86 25h-33q-23 0 -20 25l10 65q3 19 21 37l133 113h-262q-11 0 -18 8t-3 18l21 113q3 25 30 25h437q23 0 20 -25l-12 -96q-8 -45 -23 -56l-141 -118q65 -24 102 -72.5t37 -118.5q0 -99 -77.5 -173.5t-211.5 -74.5zM1151 -23q-133 0 -213 64t-80 158
q0 79 48.5 128t107.5 64q-74 47 -74 133q0 92 76 147.5t198 55.5q117 0 190 -55t73 -142q0 -112 -113 -163q40 -22 65 -62t25 -94q0 -96 -81.5 -165t-221.5 -69zM1208 444q41 0 68 20.5t27 51.5t-27 50.5t-64 19.5q-41 0 -67.5 -20.5t-26.5 -51.5t26.5 -50.5t63.5 -19.5z
M1159 307q-48 0 -80 -25.5t-32 -66.5q0 -39 31 -62.5t75 -23.5q48 0 80.5 25.5t32.5 66.5q0 39 -31.5 62.5t-75.5 23.5z" />
    <glyph glyph-name="fiveeights" unicode="&#x215d;" horiz-adv-x="1552" 
d="M1456 1360l-1149 -1321q-16 -20 -32 -29.5t-46 -9.5h-47q-37 0 -44.5 24.5t16.5 49.5l1149 1321q16 20 32 29.5t45 9.5h47q37 0 45 -24.5t-16 -49.5zM403 705q-96 0 -168 38t-108 103q-6 12 -3 26t15 21l84 53q35 20 53 -10q1 -1 10 -11.5t13 -13.5t14 -12.5t17.5 -13.5
t19.5 -9.5t25 -7.5t28 -2q50 0 83.5 26.5t33.5 70.5q0 41 -30.5 63.5t-69.5 22.5q-45 0 -86 -25q-10 -8 -27 -4l-104 35q-21 9 -15 26l78 328q3 25 31 25h418q11 0 18 -6.5t6 -16.5l-20 -115q-9 -26 -31 -26h-305l-27 -105q59 27 115 27q98 0 166 -60.5t68 -156.5
q0 -111 -83 -190.5t-219 -79.5zM1141 -23q-133 0 -213 64t-80 158q0 79 48.5 128t107.5 64q-74 47 -74 133q0 92 76 147.5t198 55.5q116 0 189 -55t73 -142q0 -112 -112 -163q40 -22 65 -62t25 -94q0 -96 -81.5 -165t-221.5 -69zM1198 444q41 0 67.5 20.5t26.5 51.5
t-26.5 50.5t-63.5 19.5q-41 0 -67.5 -20.5t-26.5 -51.5t26.5 -50.5t63.5 -19.5zM1149 307q-48 0 -80.5 -25.5t-32.5 -66.5q0 -39 31.5 -62.5t75.5 -23.5q48 0 80 25.5t32 66.5q0 39 -31 62.5t-75 23.5z" />
    <glyph glyph-name="seveneights" unicode="&#x215e;" horiz-adv-x="1454" 
d="M1358 1360l-1149 -1321q-16 -20 -32 -29.5t-46 -9.5h-47q-37 0 -45 24.5t16 49.5l1149 1321q16 20 32 29.5t46 9.5h47q37 0 45 -24.5t-16 -49.5zM358 717h-149q-17 0 -20 11t8 28l319 514h-293q-23 0 -20 26l18 113q1 10 10.5 17.5t20.5 7.5h477q10 0 16.5 -7t4.5 -18
l-11 -66q-6 -33 -26 -69l-318 -539q-14 -18 -37 -18zM1042 -23q-133 0 -212.5 64t-79.5 158q0 79 48 128t107 64q-74 47 -74 133q0 92 76.5 147.5t198.5 55.5q116 0 189 -55t73 -142q0 -112 -113 -163q40 -22 65.5 -62t25.5 -94q0 -96 -82 -165t-222 -69zM1100 444
q41 0 67.5 20.5t26.5 51.5t-26.5 50.5t-63.5 19.5q-41 0 -67.5 -20.5t-26.5 -51.5t26.5 -50.5t63.5 -19.5zM1051 307q-48 0 -80.5 -25.5t-32.5 -66.5q0 -39 31 -62.5t75 -23.5q48 0 80.5 25.5t32.5 66.5q0 39 -31 62.5t-75 23.5z" />
    <glyph glyph-name="arrowup" unicode="&#x2191;" horiz-adv-x="1638" 
d="M328 1204l526 371q19 13 48.5 13t49.5 -13l531 -371q35 -20 35 -80v-274q0 -27 -20.5 -35.5t-61.5 16.5l-359 246v-1186q0 -23 -14 -37t-37 -14h-246q-23 0 -37 15t-14 39v1183l-358 -246q-41 -25 -61.5 -16.5t-20.5 35.5v274q0 60 39 80z" />
    <glyph glyph-name="arrowdown" unicode="&#x2193;" horiz-adv-x="1638" 
d="M760 -145l-527 370q-38 20 -38 80v275q0 27 20 35t61 -17l359 -246v1184q0 23 14 38t37 15h246q23 0 37 -14t14 -37v-1186l358 246q41 25 61.5 17t20.5 -35v-275q0 -60 -34 -80l-531 -370q-20 -13 -49.5 -13t-48.5 13z" />
    <glyph glyph-name="arrowupleft" unicode="&#x2196;" horiz-adv-x="1802" 
d="M375 1360l633 110q45 11 84 -28l194 -195q20 -17 9.5 -39t-54.5 -32l-426 -78l836 -838q38 -38 2 -74l-174 -174q-36 -36 -72 0l-840 838l-78 -426q-10 -44 -32 -54.5t-39 9.5l-195 194q-40 40 -30 80l112 637q4 24 25 44.5t45 25.5z" />
    <glyph glyph-name="arrowupright" unicode="&#x2197;" horiz-adv-x="1802" 
d="M807 1470l633 -110q24 -5 44.5 -25.5t24.5 -44.5l113 -637q10 -39 -31 -80l-194 -194q-17 -20 -39.5 -9.5t-32.5 54.5l-78 426l-839 -838q-36 -36 -72 0l-174 174q-36 36 2 74l835 838l-426 78q-44 10 -54.5 32t9.5 39l195 195q39 39 84 28z" />
    <glyph glyph-name="arrowdownright" unicode="&#x2198;" horiz-adv-x="1802" 
d="M1511 109l-632 -111q-44 -11 -84 29l-195 194q-20 17 -9.5 39.5t54.5 32.5l426 78l-835 837q-38 38 -3 74l175 174q36 36 71 0l840 -838l78 426q10 44 32 55t39 -9l195 -195q41 -41 31 -80l-113 -637q-4 -24 -25 -44t-45 -25z" />
    <glyph glyph-name="arrowdownleft" unicode="&#x2199;" horiz-adv-x="1802" 
d="M1079 -2l-633 111q-24 5 -44.5 25t-24.5 44l-113 637q-10 39 31 80l194 195q17 20 39.5 9t32.5 -55l78 -426l840 838q35 36 71 0l174 -174q36 -36 -2 -74l-835 -837l426 -78q44 -10 54.5 -32.5t-9.5 -39.5l-195 -194q-40 -40 -84 -29z" />
    <glyph glyph-name="partialdiff" unicode="&#x2202;" horiz-adv-x="1187" 
d="M1155 590q0 -179 -72 -320t-203.5 -221t-299.5 -80q-145 0 -267 62t-198 183t-76 278q0 105 37 202t102.5 170.5t161 117.5t205.5 44q52 0 111 -15t98 -44q-187 261 -348 465q-20 23 -7 55.5t54 32.5h217q49 0 80 -35q39 -44 80 -96.5t103 -149t108 -192t80 -219.5
t34 -238zM604 733q-92 0 -154.5 -72t-62.5 -172q0 -95 57 -151.5t138 -56.5q92 0 154.5 71.5t62.5 171.5q0 95 -57 152t-138 57z" />
    <glyph glyph-name="increment" unicode="&#x2206;" horiz-adv-x="1720" 
d="M61 365l742 1017q37 52 84 52h272q50 0 68 -52l381 -1017q18 -46 10 -103l-39 -211q-5 -23 -20.5 -37t-38.5 -14h-1497q-23 0 -35 14t-8 37l38 211q9 58 43 103zM977 1051l-502 -713h752z" />
    <glyph glyph-name="product" unicode="&#x220f;" horiz-adv-x="1945" 
d="M113 717q0 182 70 346t189.5 282.5t286.5 188.5t353 70q185 0 351.5 -70t286 -188.5t189.5 -282.5t70 -346t-70 -346t-189.5 -282.5t-286 -188.5t-351.5 -70q-186 0 -353 70t-286.5 188.5t-189.5 282.5t-70 346zM1712 717q0 146 -53.5 277t-145.5 226.5t-222.5 151
t-278.5 55.5q-198 0 -359.5 -94.5t-252.5 -257.5t-91 -358t91 -358t252.5 -258t359.5 -95q197 0 358 95t251.5 258t90.5 358zM668 1239h430q95 0 173.5 -30.5t128.5 -82t77.5 -117t27.5 -137.5q0 -71 -27.5 -136t-77.5 -116.5t-128.5 -82.5t-173.5 -31h-178v-277
q0 -16 -10 -25t-25 -9h-217q-37 0 -37 34v975q0 14 10 24.5t27 10.5zM1204 872q0 54 -34.5 88.5t-88.5 34.5h-161v-245h161q54 2 88.5 35t34.5 87z" />
    <glyph glyph-name="summation" unicode="&#x2211;" horiz-adv-x="1316" 
d="M684 1096l258 -275q44 -47 36 -103.5t-67 -105.5l-336 -274h590q23 0 35 -14t8 -37l-43 -236q-5 -23 -20.5 -37t-38.5 -14h-1077q-23 0 -35 14t-8 37l37 201q8 35 30 51l527 430l-375 395q-1 1 -4 5t-4 5.5t-3.5 5.5t-3.5 6.5t-2 7t-1.5 8.5t0 9t1.5 11l33 198
q5 21 21.5 35.5t38.5 14.5h1077q23 0 35 -14.5t8 -37.5l-41 -235q-4 -23 -21.5 -37t-40.5 -14h-614z" />
    <glyph glyph-name="minus" unicode="&#x2212;" horiz-adv-x="1325" 
d="M1290 840l-43 -246q-5 -23 -20.5 -37t-38.5 -14h-1038q-21 0 -33 14t-8 37l43 246q4 23 21 37t38 14h1038q23 0 34.5 -14t6.5 -37z" />
    <glyph glyph-name="radical" unicode="&#x221a;" horiz-adv-x="1484" 
d="M805 -317h-352q-40 0 -52 49l-170 688l-145 -55q-20 -8 -38.5 -1t-22.5 27l-41 184q-4 20 6.5 40t29.5 28l398 158q50 16 80.5 3.5t38.5 -44.5l155 -690l590 1417q20 49 57 49h265q36 0 44.5 -24.5t-6.5 -53.5l-768 -1726q-25 -49 -69 -49z" />
    <glyph glyph-name="infinity" unicode="&#x221e;" horiz-adv-x="2332" 
d="M670 1339q47 0 85 -4.5t95 -24t109 -53t117 -97.5t128 -152q63 88 128 152t117 97.5t109.5 53t95.5 24t85 4.5q41 0 86.5 -7.5t100.5 -27.5t105.5 -50t98.5 -79.5t83.5 -112t57 -151t21.5 -192.5t-21.5 -192.5t-57 -151t-83.5 -111.5t-98.5 -79t-105.5 -50t-100.5 -27.5
t-86.5 -7.5q-46 0 -84.5 4.5t-96 24t-109.5 53.5t-117 98t-128 152q-63 -88 -128 -152t-117 -98t-109 -53.5t-95.5 -24t-84.5 -4.5q-41 0 -86.5 7.5t-100.5 27.5t-105.5 50t-98.5 79t-83.5 111.5t-57 151t-21.5 192.5t21.5 192.5t57 151t83.5 112t98.5 79.5t105.5 50
t100.5 27.5t86.5 7.5zM692 954q-75 0 -134.5 -59.5t-59.5 -173.5q0 -110 60.5 -172t135.5 -62q33 0 61 8t64.5 31t79.5 71.5t92 123.5q-95 138 -163 185.5t-136 47.5zM1714 487q76 0 136.5 62t60.5 172q0 113 -59.5 173t-135.5 60q-68 0 -136 -47.5t-163 -185.5
q49 -75 92 -123.5t79.5 -71.5t64.5 -31t61 -8z" />
    <glyph glyph-name="integral" unicode="&#x222b;" horiz-adv-x="1001" 
d="M223 -74l211 1198q35 191 157.5 286t282.5 95q84 0 169.5 -29.5t130.5 -82.5q27 -34 -13 -86l-112 -154q-15 -22 -35 -24.5t-31.5 3t-28.5 17.5q-41 33 -75 33q-33 0 -60 -22.5t-37 -72.5l-213 -1198q-35 -191 -156.5 -286t-281.5 -95q-84 0 -170 30t-131 83
q-27 35 12 86l113 154q39 53 94 4q41 -33 78 -33q33 0 59.5 22t36.5 72z" />
    <glyph glyph-name="approxequal" unicode="&#x2248;" horiz-adv-x="1310" 
d="M995 1102q44 0 79 18.5t60.5 37t47.5 18.5q31 0 49 -37l65 -127q22 -45 13 -72q-16 -48 -113 -114t-203 -66q-71 0 -279 37t-233 37q-45 0 -78 -18.5t-58 -37t-48 -18.5q-31 0 -49 37l-66 127q-21 44 -12 71q16 48 112.5 114.5t202.5 66.5q60 0 269.5 -37t240.5 -37z
M903 598q44 0 79 18.5t60.5 37t47.5 18.5q31 0 49 -37l65 -127q22 -45 13 -72q-16 -48 -113 -114t-203 -66q-71 0 -279 37t-233 37q-45 0 -78 -18.5t-58 -37t-48 -18.5q-31 0 -49 37l-66 127q-21 44 -12 72q16 48 112.5 114t202.5 66q60 0 269.5 -37t240.5 -37z" />
    <glyph glyph-name="notequal" unicode="&#x2260;" horiz-adv-x="1390" 
d="M838 287l-23 -131q-5 -24 -20.5 -38t-38.5 -14h-262q-21 0 -33 14.5t-8 37.5l22 131h-336q-23 0 -34.5 14t-6.5 37l43 246q5 23 21 37t39 14h336l30 164h-338q-23 0 -34.5 14t-6.5 37l43 246q5 23 21 37t39 14h338l22 129q5 23 21 37t39 14h260q23 0 34.5 -14t6.5 -37
l-23 -129h340q21 0 33 -14t8 -37l-43 -246q-4 -23 -21 -37t-38 -14h-340l-29 -164h340q21 0 33 -14t8 -37l-43 -246q-4 -23 -21 -37t-38 -14h-340z" />
    <glyph glyph-name="lessequal" unicode="&#x2264;" horiz-adv-x="1226" 
d="M1169 719l-47 -252q-10 -45 -43.5 -58t-62.5 9l-813 481q-26 14 -36.5 40.5t-10 47.5t5.5 51q17 105 88 140l985 481q36 22 65 9t23 -58l-47 -293q-4 -28 -24.5 -44.5t-57.5 -33.5l-485 -221l407 -221q30 -17 44 -33.5t9 -44.5zM1092 297l-43 -246q-5 -23 -21 -37
t-39 -14h-956q-23 0 -34.5 14t-6.5 37l43 246q5 23 20.5 37t38.5 14h957q23 0 34.5 -14t6.5 -37z" />
    </font>
</defs>
</svg>
