<?xml version="1.0" standalone="no"?>
<!DOCTYPE svg PUBLIC "-//W3C//DTD SVG 1.1//EN" "http://www.w3.org/Graphics/SVG/1.1/DTD/svg11.dtd" >
<svg xmlns="http://www.w3.org/2000/svg" xmlns:xlink="http://www.w3.org/1999/xlink" version="1.1">
<metadata>
Created by FontForge 20170731 at Sat Apr 30 16:38:21 2022
 By Aleksey,,,
Copyright (c) 2001 by Henrik Kubel, A2/SW/HK + A2-TYPE. All rights reserved.
</metadata>
<defs>
<font id="Boing-Thin" horiz-adv-x="1140" >
  <font-face 
    font-family="Boing-Thin"
    font-weight="250"
    font-stretch="normal"
    units-per-em="2048"
    panose-1="2 11 4 3 3 0 0 2 0 4"
    ascent="1536"
    descent="-512"
    x-height="934"
    cap-height="1434"
    bbox="-416.667 -524 2394 1933"
    underline-thickness="102"
    underline-position="-460"
    unicode-range="U+000D-FB04"
  />
<missing-glyph horiz-adv-x="0" 
 />
    <glyph glyph-name="f_f" unicode="ff" horiz-adv-x="1017" 
d="M754 1184v-250h217q12 0 21 -9.5t9 -21.5v-16q0 -12 -9 -21.5t-21 -9.5h-217v-825q0 -12 -9.5 -21.5t-21.5 -9.5h-29q-12 0 -21 9.5t-9 21.5v825h-369v-825q0 -12 -9.5 -21.5t-21.5 -9.5h-28q-12 0 -21.5 9.5t-9.5 21.5v825h-152q-12 0 -21 9.5t-9 21.5v16q0 12 9 21.5
t21 9.5h152v246q0 129 73 191.5t177 62.5h30q27 0 27 -27v-29q0 -22 -23 -22h-26q-86 -2 -127 -43t-41 -129v-250h369v246q0 133 77 203.5t187 70.5q106 0 180 -53q20 -15 2 -39l-14 -19q-17 -19 -47 0q-57 33 -123 33q-78 0 -125 -52t-47 -140z" />
    <glyph glyph-name="fi" unicode="fi" horiz-adv-x="905" 
d="M295 856v-825q0 -12 -9.5 -21.5t-21.5 -9.5h-28q-12 0 -21.5 9.5t-9.5 21.5v825h-152q-12 0 -21 9.5t-9 21.5v16q0 12 9 21.5t21 9.5h152v246q0 90 39 153.5t97.5 92t127.5 28.5q106 0 180 -53q20 -11 4 -39l-14 -16q-19 -22 -49 -3q-57 33 -123 33q-78 0 -125 -52
t-47 -140v-250h428q12 0 21.5 -9.5t9.5 -21.5v-872q0 -12 -9.5 -21.5t-21.5 -9.5h-29q-12 0 -21 9.5t-9 21.5v825h-369z" />
    <glyph glyph-name="fl" unicode="fl" horiz-adv-x="970" 
d="M664 934v469q0 12 9 21.5t21 9.5h29q12 0 21.5 -9.5t9.5 -21.5v-1180q0 -73 33.5 -109t107.5 -36h43q12 0 21.5 -9.5t9.5 -21.5v-16q0 -12 -9.5 -21.5t-21.5 -9.5h-55q-99 0 -159 52t-60 169v635h-369v-825q0 -12 -9.5 -21.5t-21.5 -9.5h-28q-12 0 -21.5 9.5t-9.5 21.5
v825h-152q-12 0 -21 9.5t-9 21.5v16q0 12 9 21.5t21 9.5h152v246q0 129 73 191.5t177 62.5h30q27 0 27 -27v-29q0 -22 -23 -22h-26q-86 -2 -127 -43t-41 -129v-250h369z" />
    <glyph glyph-name="f_f_i" unicode="ffi" horiz-adv-x="1363" 
d="M664 934v246q0 133 77 203.5t187 70.5q106 0 180 -53q20 -15 2 -39l-14 -19q-17 -19 -47 0q-57 33 -123 33q-78 0 -125 -52t-47 -140v-250h428q12 0 21 -9.5t9 -21.5v-872q0 -12 -9 -21.5t-21 -9.5h-29q-12 0 -21.5 9.5t-9.5 21.5v825h-368v-825q0 -12 -9.5 -21.5
t-21.5 -9.5h-29q-12 0 -21 9.5t-9 21.5v825h-369v-825q0 -12 -9.5 -21.5t-21.5 -9.5h-28q-12 0 -21.5 9.5t-9.5 21.5v825h-152q-12 0 -21 9.5t-9 21.5v16q0 12 9 21.5t21 9.5h152v246q0 129 73 191.5t177 62.5h30q27 0 27 -27v-29q0 -22 -23 -22h-26q-86 -2 -127 -43
t-41 -129v-250h369z" />
    <glyph glyph-name="f_f_l" unicode="ffl" horiz-adv-x="1429" 
d="M1122 934v469q0 12 9.5 21.5t21.5 9.5h29q12 0 21 -9.5t9 -21.5v-1180q0 -73 34 -109t108 -36h43q12 0 21 -9.5t9 -21.5v-16q0 -12 -9 -21.5t-21 -9.5h-56q-99 0 -159 52t-60 169v635h-368v-825q0 -12 -9.5 -21.5t-21.5 -9.5h-29q-12 0 -21 9.5t-9 21.5v825h-369v-825
q0 -12 -9.5 -21.5t-21.5 -9.5h-28q-12 0 -21.5 9.5t-9.5 21.5v825h-152q-12 0 -21 9.5t-9 21.5v16q0 12 9 21.5t21 9.5h152v246q0 129 73 191.5t177 62.5h30q27 0 27 -27v-29q0 -22 -23 -22h-26q-86 -2 -127 -43t-41 -129v-250h369v246q0 129 72.5 191.5t176.5 62.5h31
q27 0 27 -27v-29q0 -22 -23 -22h-26q-86 -2 -127 -43t-41 -129v-250h368z" />
    <glyph glyph-name="f_b" unicode="fb" horiz-adv-x="1687" 
d="M664 934v469q0 12 9 21.5t21 9.5h29q12 0 21.5 -9.5t9.5 -21.5v-674q48 102 150.5 165.5t230.5 63.5q198 0 334.5 -140.5t136.5 -352.5q0 -140 -63 -252.5t-170.5 -175t-237.5 -62.5q-127 0 -228.5 63.5t-152.5 166.5v-174q0 -12 -9.5 -21.5t-21.5 -9.5h-29
q-12 0 -21 9.5t-9 21.5v825h-369v-825q0 -12 -9.5 -21.5t-21.5 -9.5h-28q-12 0 -21.5 9.5t-9.5 21.5v825h-152q-12 0 -21 9.5t-9 21.5v16q0 12 9 21.5t21 9.5h152v246q0 129 73 191.5t177 62.5h30q27 0 27 -27v-29q0 -22 -23 -22h-26q-86 -2 -127 -43t-41 -129v-250h369z
M752 465q0 -173 107.5 -290.5t273.5 -117.5t273 117t107 291q0 175 -107 293.5t-273 118.5t-273.5 -118.5t-107.5 -293.5z" />
    <glyph glyph-name="f_f_b" unicode="ffb" horiz-adv-x="2146" 
d="M2064 465q0 -140 -63 -252.5t-170.5 -175t-237.5 -62.5q-127 0 -228.5 63.5t-152.5 166.5v-174q0 -12 -9 -21.5t-21 -9.5h-29q-12 0 -21.5 9.5t-9.5 21.5v825h-368v-825q0 -12 -9.5 -21.5t-21.5 -9.5h-29q-12 0 -21 9.5t-9 21.5v825h-369v-825q0 -12 -9.5 -21.5
t-21.5 -9.5h-28q-12 0 -21.5 9.5t-9.5 21.5v825h-152q-12 0 -21 9.5t-9 21.5v16q0 12 9 21.5t21 9.5h152v246q0 129 73 191.5t177 62.5h30q27 0 27 -27v-29q0 -22 -23 -22h-26q-86 -2 -127 -43t-41 -129v-250h369v246q0 129 72.5 191.5t176.5 62.5h31q27 0 27 -27v-29
q0 -22 -23 -22h-26q-86 -2 -127 -43t-41 -129v-250h368v469q0 12 9.5 21.5t21.5 9.5h29q12 0 21 -9.5t9 -21.5v-674q48 102 150.5 165.5t230.5 63.5q198 0 334.5 -140.5t136.5 -352.5zM1210 465q0 -173 107.5 -290.5t273.5 -117.5t273.5 117.5t107.5 290.5
q0 175 -107.5 293.5t-273.5 118.5t-273.5 -118.5t-107.5 -293.5z" />
    <glyph glyph-name="f_f_f" unicode="fff" horiz-adv-x="1476" 
d="M1212 1184v-250h218q12 0 21 -9.5t9 -21.5v-16q0 -12 -9 -21.5t-21 -9.5h-218v-825q0 -12 -9 -21.5t-21 -9.5h-29q-12 0 -21.5 9.5t-9.5 21.5v825h-368v-825q0 -12 -9.5 -21.5t-21.5 -9.5h-29q-12 0 -21 9.5t-9 21.5v825h-369v-825q0 -12 -9.5 -21.5t-21.5 -9.5h-28
q-12 0 -21.5 9.5t-9.5 21.5v825h-152q-12 0 -21 9.5t-9 21.5v16q0 12 9 21.5t21 9.5h152v246q0 129 73 191.5t177 62.5h30q27 0 27 -27v-29q0 -22 -23 -22h-26q-86 -2 -127 -43t-41 -129v-250h369v246q0 129 72.5 191.5t176.5 62.5h31q27 0 27 -27v-29q0 -22 -23 -22h-26
q-86 -2 -127 -43t-41 -129v-250h368v246q0 133 77 203.5t187 70.5q107 0 181 -53q20 -15 2 -39l-15 -19q-17 -19 -47 0q-57 33 -123 33q-78 0 -125 -52t-47 -140z" />
    <glyph glyph-name="f_f_h" unicode="ffh" horiz-adv-x="2111" 
d="M754 934h368v469q0 12 9.5 21.5t21.5 9.5h29q12 0 21 -9.5t9 -21.5v-655q42 96 137 153t222 57q187 0 295 -111t108 -296v-520q0 -12 -9 -21.5t-21 -9.5h-29q-12 0 -21.5 9.5t-9.5 21.5v504q0 163 -83.5 253.5t-241.5 90.5t-252.5 -95.5t-94.5 -248.5v-504
q0 -12 -9 -21.5t-21 -9.5h-29q-12 0 -21.5 9.5t-9.5 21.5v825h-368v-825q0 -12 -9.5 -21.5t-21.5 -9.5h-29q-12 0 -21 9.5t-9 21.5v825h-369v-825q0 -12 -9.5 -21.5t-21.5 -9.5h-28q-12 0 -21.5 9.5t-9.5 21.5v825h-152q-12 0 -21 9.5t-9 21.5v16q0 12 9 21.5t21 9.5h152
v246q0 129 73 191.5t177 62.5h30q27 0 27 -27v-29q0 -22 -23 -22h-26q-86 -2 -127 -43t-41 -129v-250h369v246q0 129 72.5 191.5t176.5 62.5h31q27 0 27 -27v-29q0 -22 -23 -22h-26q-86 -2 -127 -43t-41 -129v-250z" />
    <glyph glyph-name="f_f_j" unicode="ffj" horiz-adv-x="1363" 
d="M754 1184v-250h428q12 0 21 -9.5t9 -21.5v-1073q0 -74 -22 -128.5t-60.5 -85t-83 -44.5t-96.5 -14q-105 0 -180 53q-19 11 -4 37l10 16q14 26 43 10q62 -41 129 -41q174 0 174 193v1030h-368v-825q0 -12 -9.5 -21.5t-21.5 -9.5h-29q-12 0 -21 9.5t-9 21.5v825h-369v-825
q0 -12 -9.5 -21.5t-21.5 -9.5h-28q-12 0 -21.5 9.5t-9.5 21.5v825h-152q-12 0 -21 9.5t-9 21.5v16q0 12 9 21.5t21 9.5h152v246q0 129 73 191.5t177 62.5h30q27 0 27 -27v-29q0 -22 -23 -22h-26q-86 -2 -127 -43t-41 -129v-250h369v246q0 133 77 203.5t187 70.5
q106 0 180 -53q20 -15 2 -39l-14 -19q-17 -19 -47 0q-57 33 -123 33q-78 0 -125 -52t-47 -140z" />
    <glyph glyph-name="f_f_k" unicode="ffk" horiz-adv-x="1880" 
d="M295 856v-825q0 -12 -9.5 -21.5t-21.5 -9.5h-28q-12 0 -21.5 9.5t-9.5 21.5v825h-152q-12 0 -21 9.5t-9 21.5v16q0 12 9 21.5t21 9.5h152v246q0 129 73 191.5t177 62.5h30q27 0 27 -27v-29q0 -22 -23 -22h-26q-86 -2 -127 -43t-41 -129v-250h369v246q0 129 72.5 191.5
t176.5 62.5h31q27 0 27 -27v-29q0 -22 -23 -22h-26q-86 -2 -127 -43t-41 -129v-250h368v469q0 12 9.5 21.5t21.5 9.5h29q12 0 21 -9.5t9 -21.5v-838h101l387 355q17 14 29 14h77q8 0 11.5 -7.5t-2.5 -13.5l-433 -387l498 -503q6 -6 4 -14.5t-12 -8.5h-60q-30 0 -53 23
l-454 464h-93v-456q0 -12 -9 -21.5t-21 -9.5h-29q-12 0 -21.5 9.5t-9.5 21.5v825h-368v-825q0 -12 -9.5 -21.5t-21.5 -9.5h-29q-12 0 -21 9.5t-9 21.5v825h-369z" />
    <glyph glyph-name="f_f_t" unicode="fft" horiz-adv-x="1591" 
d="M1212 856v-596q0 -90 41.5 -141t124.5 -51q68 0 133 36q32 19 50 -4l12 -20q15 -20 -6 -35q-69 -55 -197 -55q-103 0 -175.5 65.5t-72.5 196.5v604h-368v-825q0 -12 -9.5 -21.5t-21.5 -9.5h-29q-12 0 -21 9.5t-9 21.5v825h-369v-825q0 -12 -9.5 -21.5t-21.5 -9.5h-28
q-12 0 -21.5 9.5t-9.5 21.5v825h-152q-12 0 -21 9.5t-9 21.5v16q0 12 9 21.5t21 9.5h152v246q0 129 73 191.5t177 62.5h30q27 0 27 -27v-29q0 -22 -23 -22h-26q-86 -2 -127 -43t-41 -129v-250h369v246q0 129 72.5 191.5t176.5 62.5h31q27 0 27 -27v-29q0 -22 -23 -22h-26
q-86 -2 -127 -43t-41 -129v-250h368v326q0 12 9.5 21t21.5 9h29q12 0 21 -9t9 -21v-326h312q12 0 21 -9.5t9 -21.5v-16q0 -12 -9 -21.5t-21 -9.5h-312z" />
    <glyph glyph-name="f_h" unicode="fh" horiz-adv-x="1652" 
d="M295 934h369v469q0 12 9 21.5t21 9.5h29q12 0 21.5 -9.5t9.5 -21.5v-655q42 96 136.5 153t221.5 57q187 0 295.5 -111t108.5 -296v-520q0 -12 -9.5 -21.5t-21.5 -9.5h-29q-12 0 -21.5 9.5t-9.5 21.5v504q0 163 -83.5 253.5t-241.5 90.5t-252 -95.5t-94 -248.5v-504
q0 -12 -9.5 -21.5t-21.5 -9.5h-29q-12 0 -21 9.5t-9 21.5v825h-369v-825q0 -12 -9.5 -21.5t-21.5 -9.5h-28q-12 0 -21.5 9.5t-9.5 21.5v825h-152q-12 0 -21 9.5t-9 21.5v16q0 12 9 21.5t21 9.5h152v246q0 129 73 191.5t177 62.5h30q27 0 27 -27v-29q0 -22 -23 -22h-26
q-86 -2 -127 -43t-41 -129v-250z" />
    <glyph glyph-name="f_j" unicode="fj" horiz-adv-x="905" 
d="M295 1184v-250h428q12 0 21.5 -9.5t9.5 -21.5v-1073q0 -74 -22 -128.5t-60.5 -85t-83 -44.5t-96.5 -14q-106 0 -181 53q-19 11 -4 37l10 16q14 26 43 10q62 -41 129 -41q175 0 175 193v1030h-369v-825q0 -12 -9.5 -21.5t-21.5 -9.5h-28q-12 0 -21.5 9.5t-9.5 21.5v825
h-152q-12 0 -21 9.5t-9 21.5v16q0 12 9 21.5t21 9.5h152v246q0 133 77 203.5t187 70.5q106 0 180 -53q20 -15 2 -39l-14 -19q-17 -19 -47 0q-57 33 -123 33q-78 0 -125 -52t-47 -140z" />
    <glyph glyph-name="f_k" unicode="fk" horiz-adv-x="1421" 
d="M295 856v-825q0 -12 -9.5 -21.5t-21.5 -9.5h-28q-12 0 -21.5 9.5t-9.5 21.5v825h-152q-12 0 -21 9.5t-9 21.5v16q0 12 9 21.5t21 9.5h152v246q0 129 73 191.5t177 62.5h30q27 0 27 -27v-29q0 -22 -23 -22h-26q-86 -2 -127 -43t-41 -129v-250h369v469q0 12 9 21.5t21 9.5
h29q12 0 21.5 -9.5t9.5 -21.5v-838h100l387 355q17 14 29 14h78q8 0 11 -7.5t-3 -13.5l-432 -387l497 -503q6 -6 4 -14.5t-12 -8.5h-59q-31 0 -54 23l-454 464h-92v-456q0 -12 -9.5 -21.5t-21.5 -9.5h-29q-12 0 -21 9.5t-9 21.5v825h-369z" />
    <glyph glyph-name="f_t" unicode="ft" horiz-adv-x="1173" 
d="M705 252v604h-410v-825q0 -12 -9.5 -21.5t-21.5 -9.5h-28q-12 0 -21.5 9.5t-9.5 21.5v825h-152q-12 0 -21 9.5t-9 21.5v16q0 12 9 21.5t21 9.5h152v246q0 129 73 191.5t177 62.5h30q27 0 27 -27v-29q0 -22 -23 -22h-26q-86 -2 -127 -43t-41 -129v-250h410v326q0 12 9 21
t21 9h29q12 0 21.5 -9t9.5 -21v-326h311q12 0 21.5 -9.5t9.5 -21.5v-16q0 -12 -9.5 -21.5t-21.5 -9.5h-311v-596q0 -90 41.5 -141t124.5 -51q68 0 133 36q17 11 28 10t21 -14l12 -20q15 -20 -6 -35q-69 -55 -197 -55q-103 0 -175 65.5t-72 196.5z" />
    <glyph glyph-name=".notdef" horiz-adv-x="0" 
 />
    <glyph glyph-name=".null" horiz-adv-x="0" 
 />
    <glyph glyph-name="nonmarkingreturn" horiz-adv-x="682" 
 />
    <glyph glyph-name="CR" unicode="&#xd;" horiz-adv-x="0" 
 />
    <glyph glyph-name="space" unicode=" " horiz-adv-x="518" 
 />
    <glyph glyph-name="exclam" unicode="!" horiz-adv-x="493" 
d="M301 1403l-12 -916q0 -12 -9.5 -21t-21.5 -9h-20q-12 0 -21.5 9t-9.5 21l-14 916q0 12 9 21.5t21 9.5h47q12 0 21.5 -9.5t9.5 -21.5zM246 -25q-47 0 -81 34t-34 81t34 81t81 34t80.5 -34t33.5 -81t-33.5 -81t-80.5 -34z" />
    <glyph glyph-name="quotedbl" unicode="&#x22;" horiz-adv-x="684" 
d="M209 924h-37q-12 0 -21.5 9t-9.5 21v449q0 12 9.5 21.5t21.5 9.5h37q12 0 21.5 -9.5t9.5 -21.5v-449q0 -12 -9.5 -21t-21.5 -9zM512 924h-37q-12 0 -21.5 9t-9.5 21v449q0 12 9.5 21.5t21.5 9.5h37q12 0 21.5 -9.5t9.5 -21.5v-449q0 -12 -9.5 -21t-21.5 -9z" />
    <glyph glyph-name="numbersign" unicode="#" horiz-adv-x="1290" 
d="M836 557v317h-381v-317h381zM455 471v-440q0 -12 -9.5 -21.5t-21.5 -9.5h-29q-12 0 -21 9.5t-9 21.5v440h-246q-12 0 -21.5 9.5t-9.5 21.5v24q0 12 9.5 21.5t21.5 9.5h246v317h-246q-12 0 -21.5 9.5t-9.5 21.5v25q0 12 9.5 21.5t21.5 9.5h246v442q0 12 9 21.5t21 9.5h29
q12 0 21.5 -9.5t9.5 -21.5v-442h381v442q0 12 9 21.5t21 9.5h29q12 0 21.5 -9.5t9.5 -21.5v-442h245q12 0 21.5 -9.5t9.5 -21.5v-25q0 -12 -9.5 -21.5t-21.5 -9.5h-245v-317h245q12 0 21.5 -9.5t9.5 -21.5v-24q0 -12 -9.5 -21.5t-21.5 -9.5h-245v-440q0 -12 -9.5 -21.5
t-21.5 -9.5h-29q-12 0 -21 9.5t-9 21.5v440h-381z" />
    <glyph glyph-name="dollar" unicode="$" horiz-adv-x="1220" 
d="M481 815l101 -27v592q-156 -8 -260.5 -87.5t-104.5 -211.5q0 -44 11 -80t39 -71.5t81.5 -64.5t132.5 -50zM782 645l-114 31v-621q92 6 165.5 35.5t118.5 73.5t68.5 95.5t23.5 105.5q0 110 -62.5 176.5t-199.5 103.5zM637 -197h-25q-12 0 -21 9.5t-9 21.5v141
q-96 4 -182 29t-147.5 63.5t-103.5 76.5t-71 77q-6 10 -4 22.5t12 18.5l25 17q25 15 45 -11q69 -87 177 -147.5t249 -67.5v647l-136 37q-321 85 -321 340q0 160 129.5 266.5t327.5 114.5v141q0 12 9 21.5t21 9.5h25q12 0 21.5 -9.5t9.5 -21.5v-143q276 -15 434 -199
q19 -22 -4 -38l-21 -17q-20 -10 -28 -7.5t-21 15.5q-144 152 -360 168v-614l143 -39q175 -47 250.5 -136t75.5 -220q0 -69 -29 -135t-85 -122t-148 -92.5t-207 -42.5v-143q0 -12 -9.5 -21.5t-21.5 -9.5z" />
    <glyph glyph-name="percent" unicode="%" horiz-adv-x="1478" 
d="M338 1448q121 0 192.5 -103t71.5 -268q0 -168 -71 -271.5t-193 -103.5q-121 0 -190.5 103t-69.5 272q0 166 69.5 268.5t190.5 102.5zM274 0h-22q-19 0 -26.5 14t7.5 37l926 1352q22 31 51 31h23q19 0 26 -14.5t-8 -37.5l-925 -1351q-22 -31 -52 -31zM166 1075
q0 -142 48 -218.5t124 -76.5t125 76.5t49 218.5q0 143 -49 218t-125 75t-124 -75t-48 -218zM1137 729q121 0 192.5 -103t71.5 -268q0 -168 -71 -271t-193 -103q-121 0 -190.5 103t-69.5 271q0 166 69.5 268.5t190.5 102.5zM965 356q0 -142 48 -218.5t124 -76.5t125 76.5
t49 218.5q0 143 -49 218t-125 75t-124 -75t-48 -218z" />
    <glyph glyph-name="ampersand" unicode="&#x26;" horiz-adv-x="1349" 
d="M328 1133q0 -79 40 -153t128 -161l67 41q130 80 189 151t59 156q0 102 -72 157.5t-164 55.5q-99 0 -173 -67t-74 -180zM539 55q123 0 227 55.5t176 147.5l-467 465l-45 -29q-134 -90 -190 -169.5t-56 -176.5q0 -112 97 -202.5t258 -90.5zM1188 12l-189 187
q-189 -224 -469 -224q-104 0 -189.5 32.5t-139 86t-82.5 118.5t-29 134q0 110 66.5 207.5t216.5 191.5l49 31q-102 101 -142 186.5t-40 167.5q0 147 98 237.5t237 90.5q144 0 234 -83t90 -208q0 -96 -66.5 -183t-218.5 -179l-65 -39l446 -442q145 234 156 479
q2 12 11.5 21.5t21.5 9.5h30q12 0 21 -9.5t8 -21.5q-7 -136 -59 -280t-129 -259l243 -241q6 -6 4 -14.5t-12 -8.5h-69q-21 0 -33 12z" />
    <glyph glyph-name="quotesingle" unicode="'" horiz-adv-x="442" 
d="M131 1071l72 164q-33 11 -54.5 41t-21.5 70q0 47 34 80.5t81 33.5t79.5 -34.5t32.5 -84.5q0 -44 -27 -103.5t-50.5 -94.5t-59.5 -84q-28 -36 -47 -27l-20 10q-29 10 -19 29z" />
    <glyph glyph-name="parenleft" unicode="(" horiz-adv-x="542" 
d="M180 649q0 -217 79.5 -416t250.5 -423q14 -19 14 -29q0 -19 -22 -19h-29q-30 0 -49 25q-161 204 -248.5 414.5t-87.5 447.5t87.5 447.5t248.5 414.5q19 25 49 25h29q22 0 22 -18q0 -10 -14 -29q-170 -220 -250 -421t-80 -419z" />
    <glyph glyph-name="parenright" unicode=")" horiz-adv-x="542" 
d="M362 649q0 218 -79.5 419t-249.5 421q-15 20 -15 29q0 18 23 18h29q30 0 49 -25q162 -201 249 -412t87 -450t-87 -450t-249 -412q-19 -25 -49 -25h-29q-23 0 -23 19q0 9 15 29q170 224 249.5 422.5t79.5 416.5z" />
    <glyph glyph-name="asterisk" unicode="*" horiz-adv-x="937" 
d="M539 745q0 -29 -20.5 -49t-49.5 -20t-49.5 20t-20.5 49q0 26 17.5 128.5t29.5 146.5q-17 -11 -113.5 -83t-115.5 -81q-26 -14 -53.5 -5.5t-40.5 34.5q-12 26 -3.5 53t32.5 41q19 10 73.5 27t119.5 35t79 22q-30 16 -146 52t-126 40q-23 14 -32 42t3 54q13 26 40.5 34.5
t53.5 -5.5q17 -8 109.5 -80t117.5 -88q-12 46 -28.5 145t-16.5 127q0 29 20.5 49.5t49.5 20.5t49.5 -20.5t20.5 -49.5q0 -28 -16.5 -127t-28.5 -145q25 16 117.5 88t109.5 80q26 14 53.5 5.5t40.5 -34.5q12 -26 3 -54t-32 -42q-10 -4 -126 -40t-146 -52q14 -4 79.5 -22
t120 -35t72.5 -27q24 -14 32.5 -41t-3.5 -53q-13 -26 -40.5 -34.5t-53.5 5.5q-19 9 -115.5 81t-113.5 83q12 -44 29.5 -146.5t17.5 -128.5z" />
    <glyph glyph-name="plus" unicode="+" horiz-adv-x="993" 
d="M481 1145h29q12 0 21.5 -9.5t9.5 -21.5v-340h342q12 0 21 -9.5t9 -21.5v-28q0 -12 -9 -21.5t-21 -9.5h-342v-342q0 -12 -9.5 -21.5t-21.5 -9.5h-29q-12 0 -21 9.5t-9 21.5v342h-340q-12 0 -21.5 9.5t-9.5 21.5v28q0 12 9.5 21.5t21.5 9.5h340v340q0 12 9 21.5t21 9.5z
" />
    <glyph glyph-name="comma" unicode="," horiz-adv-x="485" 
d="M137 -186l78 166q-38 11 -62 40.5t-24 69.5q0 49 33.5 82t81.5 33q47 0 79.5 -34.5t32.5 -84.5q0 -98 -137 -283q-28 -36 -47 -26l-16 8q-25 14 -19 29z" />
    <glyph glyph-name="hyphen" unicode="-" horiz-adv-x="686" 
d="M524 483h-362q-12 0 -21.5 9.5t-9.5 21.5v29q0 12 9.5 21t21.5 9h362q12 0 21.5 -9t9.5 -21v-29q0 -12 -9.5 -21.5t-21.5 -9.5z" />
    <glyph glyph-name="period" unicode="." horiz-adv-x="479" 
d="M240 -25q-47 0 -81 34t-34 81t34 81t81 34t80.5 -34t33.5 -81t-33.5 -81t-80.5 -34z" />
    <glyph glyph-name="slash" unicode="/" horiz-adv-x="901" 
d="M72 29l661 1376q13 29 45 29h31q11 0 16.5 -9.5t1.5 -19.5l-661 -1376q-13 -29 -43 -29h-33q-12 0 -17.5 9t-0.5 20z" />
    <glyph glyph-name="zero" unicode="0" horiz-adv-x="1212" 
d="M606 1458q152 0 266 -94t174 -261t60 -384q0 -219 -60 -387.5t-174 -262.5t-266 -94t-266 94t-174 262.5t-60 387.5q0 217 60 384t174 261t266 94zM606 51q83 0 156 42.5t130 123.5t90.5 210.5t33.5 291.5q0 161 -33.5 290t-90.5 209t-130 122t-156 42t-156 -42
t-130 -122t-90 -209t-33 -290q0 -162 33 -291.5t90 -210.5t130 -123.5t156 -42.5z" />
    <glyph glyph-name="one" unicode="1" horiz-adv-x="571" 
d="M31 1214v21q0 25 26 25h29q101 0 155 32.5t74 110.5q6 31 35 31h6q29 0 29 -29v-1374q0 -12 -9.5 -21.5t-21.5 -9.5h-22q-12 0 -21.5 9.5t-9.5 21.5v1159h-244q-26 0 -26 24z" />
    <glyph glyph-name="two" unicode="2" horiz-adv-x="1105" 
d="M1006 0h-885q-12 0 -20.5 9.5t-8.5 21.5v16q0 29 21 47l452 430q172 161 254 284t82 249q0 148 -100.5 236.5t-249.5 88.5q-157 0 -258 -97t-131 -238q-6 -32 -39 -23l-19 4q-33 6 -26 35q33 171 161 283t312 112q191 0 314.5 -112t123.5 -285q0 -55 -13 -107t-47.5 -122
t-107 -156.5t-180.5 -186.5l-436 -405h801q12 0 21 -9.5t9 -21.5v-22q0 -12 -9 -21.5t-21 -9.5z" />
    <glyph glyph-name="three" unicode="3" horiz-adv-x="1177" 
d="M541 795h51q154 0 247 88t93 211t-91.5 207.5t-250.5 84.5q-129 0 -220 -61.5t-132 -150.5q-9 -28 -41 -19l-17 6q-12 4 -17.5 16t-0.5 23q47 111 161 184.5t267 73.5q190 0 309 -102.5t119 -259.5q0 -117 -69.5 -206t-186.5 -126q139 -20 229 -126t90 -243
q0 -178 -137 -299t-362 -121q-227 0 -368.5 122t-141.5 311v22q0 19 18 19h47q19 0 19 -19v-22q0 -71 28.5 -135t80.5 -114t134.5 -80t182.5 -30q187 0 297 98t110 248q0 144 -101 235t-276 91h-71q-31 0 -31 31v12q0 31 31 31z" />
    <glyph glyph-name="four" unicode="4" horiz-adv-x="1124" 
d="M766 449h-711q-12 0 -21 9t-9 21v25q0 19 16 41l686 864q19 25 49 25h43q12 0 21.5 -9.5t9.5 -21.5v-881h211q12 0 21.5 -9t9.5 -21v-13q0 -12 -9.5 -21t-21.5 -9h-211v-418q0 -12 -9.5 -21.5t-21.5 -9.5h-22q-12 0 -21.5 9.5t-9.5 21.5v418zM119 522h647v815z" />
    <glyph glyph-name="five" unicode="5" horiz-adv-x="1134" 
d="M549 -25q-166 0 -289 74t-174 193q-5 10 -1 22.5t17 18.5l29 12q30 10 39 -16q45 -98 144.5 -163t238.5 -65q178 0 293 117.5t115 280.5q0 170 -114.5 278.5t-287.5 108.5q-174 0 -326 -123q-26 -23 -51 -17l-16 4q-30 9 -27 33l56 670q2 12 11 21.5t21 9.5h731
q12 0 21.5 -9.5t9.5 -21.5v-25q0 -12 -9.5 -21t-21.5 -9h-688l-45 -553q155 116 348 116q210 0 345 -128t135 -328q0 -204 -142.5 -342t-361.5 -138z" />
    <glyph glyph-name="six" unicode="6" horiz-adv-x="1142" 
d="M584 -25q-212 0 -353 140.5t-141 339.5q0 102 34 211t88.5 205t134.5 198t158 184t173 170q11 11 29 11h67q10 0 12 -8.5t-4 -14.5q-12 -12 -71.5 -70t-94.5 -93.5t-97.5 -103.5t-106 -123t-92 -128t-82.5 -141q141 163 376 163q122 0 228 -54.5t174.5 -163.5t68.5 -251
q0 -94 -38 -180.5t-103.5 -150.5t-159.5 -102t-200 -38zM588 842q-177 0 -292.5 -118.5t-115.5 -277.5q0 -77 30 -148.5t82 -126t129.5 -87.5t166.5 -33q176 0 291.5 118t115.5 277q0 105 -46 193.5t-140.5 145.5t-220.5 57z" />
    <glyph glyph-name="seven" unicode="7" horiz-adv-x="991" 
d="M961 1409v-29q0 -17 -11 -43l-635 -1323q-6 -14 -22 -14h-55q-11 0 -16 8.5t-1 18.5l643 1321h-809q-12 0 -21 9t-9 21v25q0 12 9 21.5t21 9.5h875q13 0 22 -7t9 -18z" />
    <glyph glyph-name="eight" unicode="8" horiz-adv-x="1228" 
d="M614 -25q-230 0 -375 114t-145 294q0 126 86 230t238 147q-120 40 -186 130t-66 202q0 162 128 264t320 102t320.5 -102t128.5 -264q0 -112 -65.5 -202t-184.5 -130q150 -43 236 -147t86 -230q0 -180 -145.5 -294t-375.5 -114zM614 797q163 0 263 86.5t100 208.5
t-100 208t-263 86t-262.5 -86t-99.5 -208t99.5 -208.5t262.5 -86.5zM614 717q-195 0 -312.5 -97t-117.5 -237t117.5 -237t312.5 -97q197 0 313.5 96.5t116.5 237.5t-116.5 237.5t-313.5 96.5z" />
    <glyph glyph-name="nine" unicode="9" horiz-adv-x="1142" 
d="M436 0h-67q-10 0 -12.5 8.5t3.5 14.5q4 4 40.5 38.5t51 48.5t54 53t61.5 62t60.5 64.5t63.5 72.5t59 74.5t59 80.5t50.5 80.5t45.5 84.5q-142 -164 -377 -164q-122 0 -228 54.5t-174.5 163.5t-68.5 251q0 126 64.5 234t180.5 172.5t257 64.5q212 0 353 -140t141 -339
q0 -428 -588 -969q-10 -10 -29 -10zM555 592q89 0 166.5 33t129.5 87.5t82 126t30 148.5t-30 148.5t-82 126t-129.5 87.5t-166.5 33q-116 0 -211 -56t-146 -146t-51 -193q0 -78 27.5 -148.5t78 -125.5t129 -88t173.5 -33z" />
    <glyph glyph-name="colon" unicode=":" horiz-adv-x="483" 
d="M242 690q-47 0 -80 33t-33 80t33 79.5t80 32.5t79.5 -32.5t32.5 -79.5t-32.5 -80t-79.5 -33zM242 -25q-47 0 -80 33t-33 80t33 80t80 33t79.5 -33t32.5 -80t-32.5 -80t-79.5 -33z" />
    <glyph glyph-name="semicolon" unicode=";" horiz-adv-x="489" 
d="M244 690q-47 0 -80 33t-33 80t33 79.5t80 32.5t80.5 -32.5t33.5 -79.5t-33.5 -80t-80.5 -33zM139 -186l78 166q-38 11 -62 40.5t-24 69.5q0 49 33.5 82t81.5 33q47 0 79.5 -34.5t32.5 -84.5q0 -98 -137 -283q-28 -36 -47 -26l-16 8q-25 14 -19 29z" />
    <glyph glyph-name="less" unicode="&#x3c;" horiz-adv-x="1103" 
d="M926 403v-38q0 -16 -9 -21.5t-20 0.5l-776 307q-37 17 -37 60q0 38 37 55l776 305q11 6 20 1t9 -21v-39q0 -23 -29 -33l-711 -270l711 -273q29 -10 29 -33z" />
    <glyph glyph-name="equal" unicode="=" horiz-adv-x="1107" 
d="M936 874h-764q-12 0 -21.5 9.5t-9.5 21.5v25q0 12 9.5 21.5t21.5 9.5h764q12 0 21.5 -9.5t9.5 -21.5v-25q0 -12 -9.5 -21.5t-21.5 -9.5zM936 471h-764q-12 0 -21.5 9.5t-9.5 21.5v24q0 12 9.5 21.5t21.5 9.5h764q12 0 21.5 -9.5t9.5 -21.5v-24q0 -12 -9.5 -21.5
t-21.5 -9.5z" />
    <glyph glyph-name="greater" unicode="&#x3e;" horiz-adv-x="1101" 
d="M178 365v38q0 23 29 33l711 273l-711 270q-29 10 -29 33v39q0 16 9 21t20 -1l776 -305q37 -17 37 -55q0 -43 -37 -60l-776 -307q-11 -6 -20 -0.5t-9 21.5z" />
    <glyph glyph-name="question" unicode="?" horiz-adv-x="944" 
d="M465 1458q165 0 274 -94t109 -244q0 -65 -19 -124.5t-49 -105.5t-66.5 -89t-73 -84t-66.5 -82t-49 -90.5t-19 -102.5v-28q0 -10 -7 -17.5t-18 -7.5h-37q-26 0 -26 27v24q0 85 35 159.5t84.5 130.5t99 110.5t84.5 125.5t35 150q0 120 -85.5 191t-205.5 71q-101 0 -187 -57
t-126 -160q-4 -12 -16.5 -16.5t-24.5 0.5l-27 10q-23 9 -14 37q47 126 152 196t243 70zM465 -27q-47 0 -81 34t-34 81t34 80t81 33t80 -33t33 -80t-33 -81t-80 -34z" />
    <glyph glyph-name="at" unicode="@" horiz-adv-x="1828" 
d="M954 -375q-245 0 -440.5 106.5t-305.5 294.5t-110 423q0 174 63 326t173.5 261t268 171.5t339.5 62.5q224 0 400.5 -96t275 -268t98.5 -388q0 -243 -90 -370.5t-215 -127.5q-91 0 -144 53.5t-61 129.5q-49 -83 -132 -133t-185 -50q-168 0 -282.5 118t-114.5 298
q0 179 115 298.5t282 119.5q100 0 181.5 -48t127.5 -126v123q0 12 9.5 21.5t21.5 9.5h26q12 0 21.5 -9.5t9.5 -21.5v-524q0 -41 5 -70.5t18.5 -57t41 -41.5t68.5 -14q89 0 150 113.5t61 314.5q0 142 -48 264t-136 212.5t-222.5 142t-299.5 51.5q-119 0 -230 -34.5
t-203 -100.5t-161 -156.5t-107.5 -208.5t-38.5 -250q0 -161 62 -301t166 -236t243.5 -151t292.5 -55q151 0 287 47q69 23 129 62q12 12 41 12h76q10 0 12.5 -8t-4.5 -13q-212 -176 -535 -176zM891 780q-137 0 -225 -97t-88 -243q0 -143 88.5 -241.5t224.5 -98.5
q135 0 223 98.5t88 241.5q0 146 -87.5 243t-223.5 97z" />
    <glyph glyph-name="A" unicode="A" horiz-adv-x="1290" 
d="M319 522h646l-324 819zM287 442l-162 -413q-10 -29 -35 -29h-43q-12 0 -17.5 9t-0.5 20l551 1376q10 29 38 29h52q29 0 39 -29l553 -1376q10 -29 -19 -29h-47q-27 0 -37 29l-164 413h-708z" />
    <glyph glyph-name="B" unicode="B" horiz-adv-x="1366" 
d="M227 1434h557q100 0 180 -29.5t129 -78.5t75 -109.5t26 -126.5q0 -126 -62.5 -208t-158.5 -118q133 -29 219 -128t86 -237q0 -171 -120 -285t-341 -114h-590q-12 0 -21 9.5t-9 21.5v1372q0 12 9 21.5t21 9.5zM1096 1081q0 131 -91 201t-233 70h-483v-553h495
q138 0 225 74.5t87 207.5zM829 717h-540v-635h542q66 0 127 19.5t112 57t81.5 100t30.5 140.5q0 102 -51.5 176t-130 108t-171.5 34z" />
    <glyph glyph-name="C" unicode="C" horiz-adv-x="1536" 
d="M807 -25q-147 0 -279 55.5t-228.5 152.5t-153 236t-56.5 298t56.5 297.5t153.5 235.5t228.5 152.5t278.5 55.5q227 0 410.5 -121.5t255.5 -328.5q4 -10 -2.5 -19.5t-18.5 -9.5h-43q-23 0 -33 29q-74 178 -220.5 273t-348.5 95q-176 0 -319 -85.5t-223.5 -236.5
t-80.5 -337t80.5 -337t223.5 -237t319 -86q202 0 348.5 95.5t220.5 273.5q10 29 33 29h43q12 0 18.5 -9.5t2.5 -19.5q-48 -138 -149.5 -241t-234.5 -156.5t-282 -53.5z" />
    <glyph glyph-name="D" unicode="D" horiz-adv-x="1488" 
d="M227 1434h394q188 0 336 -53t243.5 -149t145 -226.5t49.5 -288.5t-49.5 -288.5t-145 -226.5t-243.5 -149t-336 -53h-394q-12 0 -21 9.5t-9 21.5v1372q0 12 9 21.5t21 9.5zM289 82h340q308 0 489.5 165t181.5 470t-181.5 470t-489.5 165h-340v-1270z" />
    <glyph glyph-name="E" unicode="E" horiz-adv-x="1234" 
d="M227 1434h916q12 0 21.5 -9.5t9.5 -21.5v-25q0 -12 -9.5 -21t-21.5 -9h-854v-578h436q12 0 21.5 -9.5t9.5 -21.5v-20q0 -12 -9.5 -21.5t-21.5 -9.5h-436v-602h854q12 0 21.5 -9.5t9.5 -21.5v-24q0 -12 -9.5 -21.5t-21.5 -9.5h-916q-12 0 -21 9.5t-9 21.5v1372
q0 12 9 21.5t21 9.5z" />
    <glyph glyph-name="F" unicode="F" 
d="M899 723v-21q0 -12 -9.5 -21t-21.5 -9h-579v-641q0 -12 -9.5 -21.5t-21.5 -9.5h-31q-12 0 -21 9.5t-9 21.5v1372q0 12 9 21.5t21 9.5h852q12 0 21.5 -9.5t9.5 -21.5v-25q0 -12 -9.5 -21t-21.5 -9h-790v-594h579q12 0 21.5 -9.5t9.5 -21.5z" />
    <glyph glyph-name="G" unicode="G" horiz-adv-x="1583" 
d="M811 1458q227 0 410.5 -121.5t255.5 -328.5q4 -10 -2.5 -19.5t-18.5 -9.5h-43q-23 0 -33 29q-74 178 -220.5 273t-348.5 95q-177 0 -321 -86t-225 -237t-81 -336q0 -186 79 -337t221 -237t319 -86q129 0 238.5 44.5t179 115.5t109.5 155t42 167h-510q-12 0 -21.5 9
t-9.5 21v19q0 12 9.5 21t21.5 9h570q12 0 21 -9t9 -21v-557q0 -12 -9 -21.5t-21 -9.5h-25q-12 0 -21.5 9.5t-9.5 21.5v295q-12 -43 -42 -89t-81 -93.5t-116 -84.5t-155 -60.5t-189 -23.5q-146 0 -276 55.5t-224 153t-148.5 236t-54.5 297.5q0 158 57.5 297t155.5 236
t230 152.5t278 55.5z" />
    <glyph glyph-name="H" unicode="H" horiz-adv-x="1548" 
d="M1352 1403v-1372q0 -12 -9.5 -21.5t-21.5 -9.5h-31q-12 0 -21 9.5t-9 21.5v659h-971v-659q0 -12 -9.5 -21.5t-21.5 -9.5h-31q-12 0 -21 9.5t-9 21.5v1372q0 12 9 21.5t21 9.5h31q12 0 21.5 -9.5t9.5 -21.5v-631h971v631q0 12 9 21.5t21 9.5h31q12 0 21.5 -9.5t9.5 -21.5z
" />
    <glyph glyph-name="I" unicode="I" horiz-adv-x="485" 
d="M258 0h-31q-12 0 -21 9.5t-9 21.5v1372q0 12 9 21.5t21 9.5h31q12 0 21.5 -9.5t9.5 -21.5v-1372q0 -12 -9.5 -21.5t-21.5 -9.5z" />
    <glyph glyph-name="J" unicode="J" horiz-adv-x="1228" 
d="M1051 1403v-942q0 -209 -134.5 -347.5t-365.5 -138.5q-155 0 -269.5 64t-171.5 172.5t-57 245.5v53q0 12 9.5 21.5t21.5 9.5h29q12 0 21 -9.5t9 -21.5v-59q0 -179 112 -287.5t296 -108.5q185 0 296 112.5t111 293.5v942q0 12 9.5 21.5t21.5 9.5h31q12 0 21.5 -9.5
t9.5 -21.5z" />
    <glyph glyph-name="K" unicode="K" horiz-adv-x="1282" 
d="M1272 1411l-666 -653l654 -735q6 -6 2.5 -14.5t-13.5 -8.5h-65q-16 0 -24 5t-21 18l-613 690h-237v-682q0 -12 -9.5 -21.5t-21.5 -9.5h-31q-12 0 -21 9.5t-9 21.5v1372q0 12 9 21.5t21 9.5h31q12 0 21.5 -9.5t9.5 -21.5v-608h237l621 616q23 23 41 23h74q10 0 13 -8.5
t-3 -14.5z" />
    <glyph glyph-name="L" unicode="L" horiz-adv-x="1093" 
d="M1071 55v-24q0 -12 -9.5 -21.5t-21.5 -9.5h-813q-12 0 -21 9.5t-9 21.5v1372q0 12 9 21.5t21 9.5h31q12 0 21.5 -9.5t9.5 -21.5v-1317h751q12 0 21.5 -9.5t9.5 -21.5z" />
    <glyph glyph-name="M" unicode="M" horiz-adv-x="1810" 
d="M918 205h-25q-31 0 -45 26l-559 1110v-1310q0 -12 -9.5 -21.5t-21.5 -9.5h-31q-12 0 -21 9.5t-9 21.5v1372q0 12 9 21.5t21 9.5h88q33 0 45 -27l547 -1102l547 1102q15 27 45 27h84q12 0 21.5 -9.5t9.5 -21.5v-1372q0 -12 -9.5 -21.5t-21.5 -9.5h-31q-12 0 -21 9.5
t-9 21.5v1310l-559 -1110q-12 -26 -45 -26z" />
    <glyph glyph-name="N" unicode="N" horiz-adv-x="1474" 
d="M1153 25l-864 1275v-1269q0 -12 -9.5 -21.5t-21.5 -9.5h-31q-12 0 -21 9.5t-9 21.5v1372q0 12 9 21.5t21 9.5h45q34 0 50 -25l864 -1276v1270q0 12 9.5 21.5t21.5 9.5h30q12 0 21.5 -9.5t9.5 -21.5v-1372q0 -12 -9.5 -21.5t-21.5 -9.5h-45q-33 0 -49 25z" />
    <glyph glyph-name="O" unicode="O" horiz-adv-x="1609" 
d="M1520 717q0 -159 -56.5 -298t-153 -235.5t-228 -152.5t-277.5 -56t-277.5 56t-228 152.5t-153 235.5t-56.5 298t56.5 297.5t153 235.5t228 152.5t277.5 55.5t277.5 -55.5t228 -152.5t153 -235.5t56.5 -297.5zM1425 717q0 186 -79.5 337t-221.5 236.5t-319 85.5
t-319.5 -85.5t-222 -236.5t-79.5 -337t79.5 -337t222 -237t319.5 -86t319 86t221.5 237t79.5 337z" />
    <glyph glyph-name="P" unicode="P" horiz-adv-x="1251" 
d="M289 569v-538q0 -12 -9.5 -21.5t-21.5 -9.5h-31q-12 0 -21 9.5t-9 21.5v1372q0 12 9 21.5t21 9.5h471q125 0 222.5 -35t157 -96t90 -137.5t30.5 -164.5t-30.5 -164.5t-90 -137t-157 -95.5t-222.5 -35h-409zM289 649h420q111 0 198.5 37.5t142 118.5t54.5 196
q0 87 -31.5 155.5t-86 111t-125 64.5t-152.5 22h-420v-705z" />
    <glyph glyph-name="Q" unicode="Q" horiz-adv-x="1609" 
d="M805 57q250 0 424 166l-422 381q-25 18 -2 41l16 17q20 20 41 2l422 -379q141 180 141 432q0 186 -79.5 337t-221.5 236.5t-319 85.5t-319.5 -85.5t-222 -236.5t-79.5 -337t79.5 -337t222 -237t319.5 -86zM1483 -6l-191 172q-203 -191 -487 -191q-146 0 -277.5 56
t-228 152.5t-153 235.5t-56.5 298t56.5 297.5t153 235.5t228 152.5t277.5 55.5t277.5 -55.5t228 -152.5t153 -235.5t56.5 -297.5q0 -279 -172 -492l192 -172q25 -18 2 -41l-16 -16q-21 -21 -43 -2z" />
    <glyph glyph-name="R" unicode="R" horiz-adv-x="1378" 
d="M289 719h516q173 0 269.5 87t96.5 230t-96.5 229.5t-269.5 86.5h-516v-633zM1276 0h-47q-24 0 -39 27l-350 610h-551v-606q0 -12 -9.5 -21.5t-21.5 -9.5h-31q-12 0 -21 9.5t-9 21.5v1372q0 12 9 21.5t21 9.5h559q224 0 352 -107t128 -289q0 -57 -16 -112.5t-52 -111
t-104 -99t-162 -64.5l362 -624q5 -11 -0.5 -19t-17.5 -8z" />
    <glyph glyph-name="S" unicode="S" horiz-adv-x="1222" 
d="M614 1458q150 0 275 -51.5t211 -149.5q19 -22 -4 -38l-21 -17q-20 -10 -28 -7.5t-21 15.5q-164 170 -412 170q-109 0 -198 -33.5t-145 -103t-56 -162.5q0 -44 11 -80t39 -71.5t81.5 -64.5t132.5 -50l330 -90q175 -47 250.5 -136t75.5 -220q0 -73 -32.5 -142t-95 -126
t-165.5 -91.5t-232 -34.5q-102 0 -194 24t-157.5 63t-110.5 78.5t-72 80.5q-6 10 -4 22.5t12 18.5l25 17q25 15 45 -11q69 -92 186 -153.5t272 -61.5q204 0 317 92.5t113 219.5q0 110 -62.5 176.5t-199.5 103.5l-336 92q-321 85 -321 340q0 168 139.5 274.5t351.5 106.5z
" />
    <glyph glyph-name="T" unicode="T" horiz-adv-x="1253" 
d="M27 1378v25q0 12 9 21.5t21 9.5h1139q12 0 21.5 -9.5t9.5 -21.5v-25q0 -12 -9.5 -21t-21.5 -9h-524v-1317q0 -12 -9.5 -21.5t-21.5 -9.5h-31q-12 0 -21 9.5t-9 21.5v1317h-523q-12 0 -21 9t-9 21z" />
    <glyph glyph-name="U" unicode="U" horiz-adv-x="1437" 
d="M1260 1403v-922q0 -232 -148 -369t-393 -137t-393 135.5t-148 366.5v926q0 12 9.5 21.5t21.5 9.5h31q12 0 21 -9.5t9 -21.5v-932q0 -194 127 -305t322 -111q125 0 226 47.5t162.5 143.5t61.5 225v932q0 12 9.5 21.5t21.5 9.5h29q12 0 21.5 -9.5t9.5 -21.5z" />
    <glyph glyph-name="V" unicode="V" horiz-adv-x="1290" 
d="M672 0h-56q-28 0 -38 29l-551 1376q-10 29 18 29h47q27 0 37 -29l518 -1313l516 1313q10 29 35 29h43q12 0 18 -9t1 -20l-549 -1376q-10 -29 -39 -29z" />
    <glyph glyph-name="W" unicode="W" horiz-adv-x="2070" 
d="M2034 1405l-441 -1376q-10 -29 -41 -29h-49q-31 0 -41 29l-428 1284l-426 -1284q-10 -29 -41 -29h-49q-31 0 -41 29l-440 1376q-4 10 2.5 19.5t17.5 9.5h41q23 0 33 -29l410 -1305l432 1305q10 29 39 29h47q29 0 39 -29l432 -1299l407 1299q10 29 33 29h43
q12 0 18.5 -9.5t2.5 -19.5z" />
    <glyph glyph-name="X" unicode="X" horiz-adv-x="1210" 
d="M600 662l-469 -637q-19 -25 -41 -25h-53q-10 0 -14 9t2 16l524 702l-506 682q-5 7 0 16t16 9h52q24 0 43 -25l454 -616l455 616q19 25 41 25h51q11 0 14.5 -7t-2.5 -18l-508 -680l523 -704q6 -7 1.5 -16t-14.5 -9h-59q-22 0 -41 25z" />
    <glyph glyph-name="Y" unicode="Y" horiz-adv-x="1243" 
d="M575 31v606l-532 772q-6 11 -1.5 18t15.5 7h56q25 0 41 -25l464 -682h9l465 682q16 25 38 25h60q12 0 15 -9t-3 -16l-534 -772v-606q0 -12 -9.5 -21.5t-21.5 -9.5h-31q-12 0 -21.5 9.5t-9.5 21.5z" />
    <glyph glyph-name="Z" unicode="Z" horiz-adv-x="1198" 
d="M1128 0h-1069q-30 0 -30 31v14q0 29 26 61l946 1242h-878q-12 0 -21.5 9t-9.5 21v25q0 12 9.5 21.5t21.5 9.5h964q31 0 31 -31v-14q0 -33 -33 -72l-933 -1231h976q12 0 21.5 -9.5t9.5 -21.5v-24q0 -12 -9.5 -21.5t-21.5 -9.5z" />
    <glyph glyph-name="bracketleft" unicode="[" horiz-adv-x="598" 
d="M569 1505v-24q0 -12 -9 -21.5t-21 -9.5h-269v-1575h269q12 0 21 -9.5t9 -21.5v-24q0 -12 -9 -21.5t-21 -9.5h-328q-12 0 -21.5 9.5t-9.5 21.5v1685q0 12 9.5 21.5t21.5 9.5h328q12 0 21 -9.5t9 -21.5z" />
    <glyph glyph-name="backslash" unicode="\" horiz-adv-x="901" 
d="M168 1405l661 -1376q5 -11 -0.5 -20t-17.5 -9h-33q-30 0 -43 29l-661 1376q-4 10 1.5 19.5t16.5 9.5h31q32 0 45 -29z" />
    <glyph glyph-name="bracketright" unicode="]" horiz-adv-x="595" 
d="M27 1481v24q0 12 9 21.5t21 9.5h328q12 0 21.5 -9.5t9.5 -21.5v-1685q0 -12 -9.5 -21.5t-21.5 -9.5h-328q-12 0 -21 9.5t-9 21.5v24q0 12 9 21.5t21 9.5h269v1575h-269q-12 0 -21 9.5t-9 21.5z" />
    <glyph glyph-name="asciicircum" unicode="^" horiz-adv-x="899" 
d="M145 461h-36q-11 0 -18 9t-3 19l293 916q10 29 41 29h70q32 0 38 -29l279 -916q4 -10 -3.5 -19t-19.5 -9h-36q-30 0 -39 28l-254 871l-273 -871q-6 -28 -39 -28z" />
    <glyph glyph-name="underscore" unicode="_" horiz-adv-x="507" 
d="M467 -274h-426q-12 0 -21.5 9t-9.5 21v25q0 12 9.5 21.5t21.5 9.5h426q12 0 21.5 -9.5t9.5 -21.5v-25q0 -12 -9.5 -21t-21.5 -9z" />
    <glyph glyph-name="grave" unicode="`" horiz-adv-x="370" 
d="M100 1384h54q34 0 43 -28l114 -260q9 -25 -16 -25h-33q-22 0 -35 27l-143 260q-4 10 0.5 18t15.5 8z" />
    <glyph glyph-name="a" unicode="a" horiz-adv-x="1175" 
d="M174 465q0 -173 107.5 -290.5t273.5 -117.5t273.5 117.5t107.5 290.5q0 175 -107.5 293.5t-273.5 118.5t-273.5 -118.5t-107.5 -293.5zM82 465q0 212 136.5 352.5t334.5 140.5q128 0 230.5 -63.5t150.5 -165.5v174q0 12 9.5 21.5t21.5 9.5h28q12 0 21.5 -9.5t9.5 -21.5
v-872q0 -12 -9.5 -21.5t-21.5 -9.5h-28q-12 0 -21.5 9.5t-9.5 21.5v174q-51 -103 -152.5 -166.5t-228.5 -63.5q-130 0 -237.5 62.5t-170.5 175t-63 252.5z" />
    <glyph glyph-name="b" unicode="b" horiz-adv-x="1177" 
d="M244 1403v-674q48 102 150.5 165.5t230.5 63.5q198 0 334.5 -140.5t136.5 -352.5q0 -140 -63 -252.5t-170.5 -175t-237.5 -62.5q-127 0 -228.5 63.5t-152.5 166.5v-174q0 -12 -9.5 -21.5t-21.5 -9.5h-29q-12 0 -21 9.5t-9 21.5v1372q0 12 9 21.5t21 9.5h29
q12 0 21.5 -9.5t9.5 -21.5zM242 465q0 -173 107.5 -290.5t273.5 -117.5t273.5 117.5t107.5 290.5q0 175 -107.5 293.5t-273.5 118.5t-273.5 -118.5t-107.5 -293.5z" />
    <glyph glyph-name="c" unicode="c" horiz-adv-x="1046" 
d="M971 225q-60 -118 -169.5 -184t-244.5 -66q-131 0 -239.5 63t-172 176t-63.5 253q0 105 37.5 196.5t101 156t151 101.5t185.5 37q135 0 244.5 -65.5t169.5 -183.5q12 -29 -15 -41l-24 -11q-29 -10 -41 15q-49 95 -135 150t-199 55q-166 0 -274.5 -118.5t-108.5 -291.5
t108.5 -291.5t274.5 -118.5q113 0 199 55t135 150q12 22 41 12l26 -10q25 -11 13 -39z" />
    <glyph glyph-name="d" unicode="d" horiz-adv-x="1177" 
d="M174 465q0 -173 107.5 -290.5t273.5 -117.5t273.5 117.5t107.5 290.5q0 175 -107.5 293.5t-273.5 118.5t-273.5 -118.5t-107.5 -293.5zM82 465q0 212 136.5 352.5t334.5 140.5q128 0 230.5 -63.5t150.5 -165.5v674q0 12 9.5 21.5t21.5 9.5h28q12 0 21.5 -9.5t9.5 -21.5
v-1372q0 -12 -9.5 -21.5t-21.5 -9.5h-28q-12 0 -21.5 9.5t-9.5 21.5v174q-51 -103 -152.5 -166.5t-228.5 -63.5q-130 0 -237.5 62.5t-170.5 175t-63 252.5z" />
    <glyph glyph-name="e" unicode="e" horiz-adv-x="1087" 
d="M555 958q95 0 180 -33t148.5 -93t101 -150t37.5 -197v-16q0 -12 -8.5 -21.5t-20.5 -9.5h-819q12 -167 119.5 -274t271.5 -107q200 0 318 150q26 26 47 10l18 -12q29 -19 13 -41q-62 -89 -167 -139t-233 -50q-207 0 -343 138.5t-136 351.5q0 135 61 247.5t170 179
t242 66.5zM176 516h756q-13 165 -116.5 263t-262.5 98q-156 0 -257.5 -102t-119.5 -259z" />
    <glyph glyph-name="f" unicode="f" horiz-adv-x="559" 
d="M53 934h152v246q0 133 77 203.5t187 70.5q106 0 180 -53q20 -15 2 -39l-14 -19q-17 -19 -47 0q-57 33 -123 33q-78 0 -125 -52t-47 -140v-250h217q12 0 21.5 -9.5t9.5 -21.5v-16q0 -12 -9.5 -21.5t-21.5 -9.5h-217v-825q0 -12 -9.5 -21.5t-21.5 -9.5h-28q-12 0 -21.5 9.5
t-9.5 21.5v825h-152q-12 0 -21 9.5t-9 21.5v16q0 12 9 21.5t21 9.5z" />
    <glyph glyph-name="g" unicode="g" horiz-adv-x="1175" 
d="M172 467q0 -175 107.5 -293.5t273.5 -118.5t273.5 118.5t107.5 293.5q0 174 -108 292t-273 118t-273 -118t-108 -292zM557 -367q183 0 280 99.5t97 263.5v207q-51 -103 -152.5 -166.5t-228.5 -63.5q-202 0 -336.5 140t-134.5 354q0 140 63 253t170.5 175.5t237.5 62.5
q127 0 229.5 -64t151.5 -167v174q0 12 9.5 21.5t21.5 9.5h28q12 0 21.5 -9.5t9.5 -21.5v-911q0 -195 -123 -313.5t-344 -118.5q-186 0 -303.5 86.5t-149.5 214.5q-6 25 23 35l27 6q26 6 36 -23q37 -107 126 -175.5t241 -68.5z" />
    <glyph glyph-name="h" unicode="h" horiz-adv-x="1142" 
d="M915 31v504q0 163 -83.5 253.5t-241.5 90.5t-252 -95.5t-94 -248.5v-504q0 -12 -9.5 -21.5t-21.5 -9.5h-29q-12 0 -21 9.5t-9 21.5v1372q0 12 9 21.5t21 9.5h29q12 0 21.5 -9.5t9.5 -21.5v-655q42 96 136.5 153t221.5 57q187 0 295.5 -111t108.5 -296v-520
q0 -12 -9.5 -21.5t-21.5 -9.5h-29q-12 0 -21.5 9.5t-9.5 21.5z" />
    <glyph glyph-name="i" unicode="i" horiz-adv-x="393" 
d="M197 1184q-39 0 -67 27.5t-28 68.5q0 38 28.5 66t66.5 28t66 -28t28 -66q0 -41 -27.5 -68.5t-66.5 -27.5zM211 0h-29q-12 0 -21 9.5t-9 21.5v872q0 12 9 21.5t21 9.5h29q12 0 21.5 -9.5t9.5 -21.5v-872q0 -12 -9.5 -21.5t-21.5 -9.5z" />
    <glyph glyph-name="j" unicode="j" horiz-adv-x="393" 
d="M186 1186q-38 0 -66 28t-28 66t28 66t66 28t66.5 -28t28.5 -66t-28.5 -66t-66.5 -28zM180 934h29q12 0 21.5 -9.5t9.5 -21.5v-1073q0 -74 -22 -128.5t-60.5 -85t-83.5 -44.5t-97 -14q-105 0 -180 53q-19 11 -4 37l10 16q14 26 43 10q62 -41 129 -41q175 0 175 193v1077
q0 12 9 21.5t21 9.5z" />
    <glyph glyph-name="k" unicode="k" horiz-adv-x="911" 
d="M244 487v-456q0 -12 -9.5 -21.5t-21.5 -9.5h-29q-12 0 -21 9.5t-9 21.5v1372q0 12 9 21.5t21 9.5h29q12 0 21.5 -9.5t9.5 -21.5v-838h131l356 355q14 14 31 14h72q11 0 13.5 -9t-7.5 -16l-394 -383l465 -503q6 -6 3 -14.5t-13 -8.5h-57q-30 0 -53 23l-424 464h-123z" />
    <glyph glyph-name="l" unicode="l" horiz-adv-x="454" 
d="M422 0h-55q-100 0 -160 52t-60 169v1182q0 12 9.5 21.5t21.5 9.5h29q12 0 21.5 -9.5t9.5 -21.5v-1180q0 -73 33.5 -109t107.5 -36h43q12 0 21.5 -9.5t9.5 -21.5v-16q0 -12 -9.5 -21.5t-21.5 -9.5z" />
    <glyph glyph-name="m" unicode="m" horiz-adv-x="1820" 
d="M242 537v-506q0 -12 -9.5 -21.5t-21.5 -9.5h-29q-12 0 -21 9.5t-9 21.5v872q0 12 9 21.5t21 9.5h29q12 0 21.5 -9.5t9.5 -21.5v-153q42 96 132.5 152t211.5 56q127 0 218.5 -64.5t127.5 -172.5q50 117 145.5 177t225.5 60q178 0 279 -109.5t101 -295.5v-522
q0 -12 -9 -21.5t-21 -9.5h-29q-12 0 -21.5 9.5t-9.5 21.5v506q0 157 -78 249.5t-227 92.5q-152 0 -238.5 -93.5t-86.5 -248.5v-506q0 -12 -9.5 -21.5t-21.5 -9.5h-29q-12 0 -21.5 9.5t-9.5 21.5v506q0 157 -78 249.5t-227 92.5q-152 0 -238.5 -93.5t-86.5 -248.5z" />
    <glyph glyph-name="n" unicode="n" 
d="M913 31v504q0 163 -83.5 253.5t-241.5 90.5t-252 -95.5t-94 -248.5v-504q0 -12 -9.5 -21.5t-21.5 -9.5h-29q-12 0 -21 9.5t-9 21.5v872q0 12 9 21.5t21 9.5h29q12 0 21.5 -9.5t9.5 -21.5v-155q42 96 136.5 153t221.5 57q187 0 295.5 -111t108.5 -296v-520
q0 -12 -9.5 -21.5t-21.5 -9.5h-29q-12 0 -21.5 9.5t-9.5 21.5z" />
    <glyph glyph-name="o" unicode="o" horiz-adv-x="1110" 
d="M82 467q0 211 137 351t336 140t336 -140t137 -351q0 -140 -63.5 -253t-171.5 -176t-238 -63t-238 63t-171.5 176t-63.5 253zM174 467q0 -174 107 -292t274 -118t274 118t107 292t-107 292t-274 118t-274 -118t-107 -292z" />
    <glyph glyph-name="p" unicode="p" horiz-adv-x="1175" 
d="M240 467q0 -174 107 -292t274 -118q165 0 271.5 118t106.5 292t-106.5 292t-271.5 118q-167 0 -274 -118t-107 -292zM242 903v-174q48 102 150.5 165.5t230.5 63.5q130 0 237.5 -62.5t170.5 -175.5t63 -253q0 -213 -136 -352.5t-335 -139.5q-128 0 -230.5 64t-150.5 166
v-588q0 -12 -9.5 -21.5t-21.5 -9.5h-29q-12 0 -21 9.5t-9 21.5v1286q0 12 9 21.5t21 9.5h29q12 0 21.5 -9.5t9.5 -21.5z" />
    <glyph glyph-name="q" unicode="q" horiz-adv-x="1175" 
d="M82 467q0 140 63 253t170.5 175.5t237.5 62.5q128 0 230.5 -63.5t150.5 -165.5v174q0 12 9.5 21.5t21.5 9.5h28q12 0 21.5 -9.5t9.5 -21.5v-1286q0 -12 -9.5 -21.5t-21.5 -9.5h-28q-12 0 -21.5 9.5t-9.5 21.5v588q-51 -103 -152.5 -166.5t-228.5 -63.5q-199 0 -335 139.5
t-136 352.5zM174 467q0 -174 108 -292t273 -118t273 118t108 292t-108 292t-273 118t-273 -118t-108 -292z" />
    <glyph glyph-name="r" unicode="r" horiz-adv-x="591" 
d="M512 934h35q10 0 19 -9t9 -20v-31q0 -24 -22 -24h-29q-60 0 -109.5 -19.5t-89 -60.5t-61.5 -113.5t-22 -171.5v-454q0 -12 -9.5 -21.5t-21.5 -9.5h-29q-12 0 -21 9.5t-9 21.5v872q0 12 9 21.5t21 9.5h25q12 0 21.5 -9.5t9.5 -21.5v-162q23 75 97 134t177 59z" />
    <glyph glyph-name="s" unicode="s" horiz-adv-x="897" 
d="M440 961q200 0 340 -119q18 -18 -2 -39l-14 -17q-20 -20 -45 -2q-43 31 -74 49t-86 34t-117 16q-118 0 -185 -51t-67 -127q0 -129 179 -162l184 -33q146 -26 209 -88.5t63 -171.5q0 -47 -21.5 -93.5t-63.5 -88t-115 -67.5t-164 -26q-129 0 -226 41t-155 109q-8 10 -7 23
t11 20l22 18q26 19 48 -6q64 -64 136.5 -95.5t176.5 -31.5q120 0 193 58t73 135t-49 120t-156 62l-172 31q-132 23 -195 82.5t-63 158.5q0 115 100.5 188t241.5 73z" />
    <glyph glyph-name="t" unicode="t" horiz-adv-x="669" 
d="M201 252v604h-152q-12 0 -21.5 9.5t-9.5 21.5v16q0 12 9.5 21.5t21.5 9.5h152v326q0 12 9 21t21 9h29q12 0 21.5 -9t9.5 -21v-326h311q12 0 21.5 -9.5t9.5 -21.5v-16q0 -12 -9.5 -21.5t-21.5 -9.5h-311v-596q0 -90 41.5 -141t124.5 -51q68 0 133 36q17 11 28 10t21 -14
l12 -20q15 -20 -6 -35q-69 -55 -196 -55q-103 0 -175.5 65.5t-72.5 196.5z" />
    <glyph glyph-name="u" unicode="u" 
d="M227 903v-504q0 -163 85.5 -253.5t244.5 -90.5q157 0 249.5 95.5t92.5 248.5v504q0 12 9.5 21.5t21.5 9.5h28q12 0 21.5 -9.5t9.5 -21.5v-872q0 -12 -9.5 -21.5t-21.5 -9.5h-28q-12 0 -21.5 9.5t-9.5 21.5v155q-42 -96 -137 -153.5t-221 -57.5q-187 0 -295.5 111.5
t-108.5 296.5v520q0 12 9.5 21.5t21.5 9.5h29q12 0 21 -9.5t9 -21.5z" />
    <glyph glyph-name="v" unicode="v" horiz-adv-x="942" 
d="M496 0h-50q-30 0 -40 29l-357 876q-4 10 2 19.5t17 9.5h49q25 0 35 -23l319 -821l320 821q10 23 34 23h47q13 0 18.5 -9t0.5 -20l-352 -876q-10 -29 -43 -29z" />
    <glyph glyph-name="w" unicode="w" horiz-adv-x="1497" 
d="M748 825l-261 -796q-10 -29 -41 -29h-51q-31 0 -41 29l-307 876q-4 10 2.5 19.5t18.5 9.5h45q24 0 34 -23l275 -825l266 819q10 29 39 29h45q27 0 37 -29l266 -819l273 823q9 25 34 25h48q12 0 18.5 -9t1.5 -20l-307 -876q-10 -29 -41 -29h-53q-31 0 -41 29z" />
    <glyph glyph-name="x" unicode="x" horiz-adv-x="907" 
d="M451 414l-301 -389q-18 -25 -39 -25h-62q-10 0 -14 9t2 16l362 454l-338 430q-6 7 -1.5 16t14.5 9h59q12 0 19 -5t20 -20l287 -362l282 362q18 25 39 25h56q10 0 14 -9t-2 -16l-338 -430l358 -454q6 -7 2 -16t-14 -9h-61q-21 0 -39 25z" />
    <glyph glyph-name="y" unicode="y" horiz-adv-x="923" 
d="M186 -442q-62 0 -116 23.5t-82 56.5q-16 23 4 43l14 16q18 18 49 -10q41 -34 68 -44t67 -10q117 0 172 156l80 211h-20q-24 0 -33 20l-334 885q-4 10 2.5 19.5t18.5 9.5h45q27 0 37 -29l309 -837l307 837q10 29 37 29h45q13 0 19.5 -9t1.5 -20l-441 -1159
q-32 -85 -94 -136.5t-156 -51.5z" />
    <glyph glyph-name="z" unicode="z" horiz-adv-x="874" 
d="M780 844l-620 -766h631q12 0 21 -9.5t9 -21.5v-16q0 -12 -9 -21.5t-21 -9.5h-711q-12 0 -21.5 9.5t-9.5 21.5v20q0 24 17 41l618 764h-567q-12 0 -21.5 9.5t-9.5 21.5v16q0 12 9.5 21.5t21.5 9.5h649q12 0 21.5 -9.5t9.5 -21.5v-18q0 -24 -17 -41z" />
    <glyph glyph-name="braceleft" unicode="{" horiz-adv-x="626" 
d="M305 575v-587q0 -61 23 -87t73 -26h166q12 0 21.5 -9.5t9.5 -21.5v-24q0 -12 -9.5 -21.5t-21.5 -9.5h-182q-74 0 -124 46t-50 138v629q0 57 -55 57h-78q-12 0 -21.5 9.5t-9.5 21.5v19q0 12 9.5 21t21.5 9h78q55 0 55 58v555q0 92 50 138t124 46h182q12 0 21.5 -9.5
t9.5 -21.5v-24q0 -12 -9.5 -21.5t-21.5 -9.5h-166q-50 0 -73 -26t-23 -87v-514q0 -48 -23.5 -83t-64.5 -42q41 -7 64.5 -41t23.5 -82z" />
    <glyph glyph-name="bar" unicode="|" horiz-adv-x="454" 
d="M244 -256h-33q-12 0 -21.5 9.5t-9.5 21.5v1884q0 12 9.5 21.5t21.5 9.5h33q12 0 21 -9.5t9 -21.5v-1884q0 -12 -9 -21.5t-21 -9.5z" />
    <glyph glyph-name="braceright" unicode="}" horiz-adv-x="626" 
d="M322 -12v587q0 48 23.5 82t64.5 41q-41 7 -64.5 42t-23.5 83v514q0 61 -23.5 87t-73.5 26h-166q-12 0 -21 9.5t-9 21.5v24q0 12 9 21.5t21 9.5h183q74 0 124 -46t50 -138v-555q0 -58 55 -58h78q12 0 21.5 -9t9.5 -21v-19q0 -12 -9.5 -21.5t-21.5 -9.5h-78q-55 0 -55 -57
v-629q0 -92 -50 -138t-124 -46h-183q-12 0 -21 9.5t-9 21.5v24q0 12 9 21.5t21 9.5h166q50 0 73.5 26t23.5 87z" />
    <glyph glyph-name="asciitilde" unicode="~" horiz-adv-x="1124" 
d="M842 635q-37 -3 -273.5 34.5t-281.5 37.5q-21 0 -34 -10t-30 -40q-15 -25 -41 -16l-14 6q-11 5 -15.5 16t-0.5 21q43 104 137 104q38 0 272 -35.5t283 -35.5q21 0 33.5 9.5t29.5 39.5q16 29 41 16l15 -6q11 -5 15.5 -16t0.5 -21q-40 -96 -137 -104z" />
    <glyph glyph-name="uni00A0" unicode="&#xa0;" horiz-adv-x="518" 
 />
    <glyph glyph-name="exclamdown" unicode="&#xa1;" horiz-adv-x="440" 
d="M219 961q47 0 81 -34t34 -81t-34 -81t-81 -34t-81 34t-34 81t34 81t81 34zM262 449l12 -916q0 -12 -9 -21.5t-21 -9.5h-47q-12 0 -21.5 9.5t-9.5 21.5l14 916q0 12 9.5 21t21.5 9h20q12 0 21.5 -9t9.5 -21z" />
    <glyph glyph-name="cent" unicode="&#xa2;" horiz-adv-x="1079" 
d="M602 -25v-141q0 -12 -9.5 -21.5t-21.5 -9.5h-24q-12 0 -21.5 9.5t-9.5 21.5v146q-181 21 -299.5 156t-118.5 331t118.5 331t299.5 156v146q0 12 9.5 21t21.5 9h24q12 0 21.5 -9t9.5 -21v-142q128 -8 228 -72.5t157 -176.5q13 -29 -14 -41l-25 -11q-29 -10 -41 15
q-45 89 -124 142.5t-181 59.5v-815q102 6 180.5 60t124.5 143q12 22 41 12l27 -10q24 -11 12 -39q-57 -112 -157 -177t-228 -73zM190 467q0 -157 90.5 -271.5t235.5 -134.5v811q-146 -20 -236 -132.5t-90 -272.5z" />
    <glyph glyph-name="sterling" unicode="&#xa3;" horiz-adv-x="1163" 
d="M1067 55v-24q0 -12 -9.5 -21.5t-21.5 -9.5h-925q-12 0 -21.5 9.5t-9.5 21.5v24q0 12 9.5 21.5t21.5 9.5h155v512h-155q-12 0 -21.5 9.5t-9.5 21.5v24q0 12 9.5 21.5t21.5 9.5h155v338q0 200 117 318t299 118q252 0 381 -221q6 -10 2.5 -22.5t-16.5 -18.5l-25 -12
q-29 -16 -41 12q-60 94 -132 137t-171 43q-150 0 -234 -99.5t-84 -256.5v-336h365q12 0 21.5 -9.5t9.5 -21.5v-24q0 -12 -9.5 -21.5t-21.5 -9.5h-365v-512h674q12 0 21.5 -9.5t9.5 -21.5z" />
    <glyph glyph-name="currency" unicode="&#xa4;" horiz-adv-x="1425" 
d="M1274 715q0 -223 -139 -381l137 -144q20 -20 2 -38l-19 -19q-21 -21 -41 0l-139 146q-151 -129 -362 -129q-212 0 -363 129l-139 -146q-21 -21 -41 0l-18 19q-18 18 2 38l137 144q-139 158 -139 381t139 381l-137 143q-20 21 -2 39l18 18q20 20 41 0l139 -145
q151 129 363 129q211 0 362 -129l139 145q20 20 41 0l19 -18q18 -18 -2 -39l-137 -143q139 -158 139 -381zM713 1204q-177 0 -307 -108l307 -324l307 324q-130 108 -307 108zM236 715q0 -186 114 -322l305 322l-305 321q-114 -136 -114 -321zM1190 715q0 184 -115 321
l-305 -321l305 -322q115 137 115 322zM713 225q176 0 307 109l-307 323l-307 -323q131 -109 307 -109z" />
    <glyph glyph-name="yen" unicode="&#xa5;" horiz-adv-x="1298" 
d="M694 512v-481q0 -12 -9 -21.5t-21 -9.5h-31q-12 0 -21.5 9.5t-9.5 21.5v481h-375q-12 0 -21 9.5t-9 21.5v24q0 12 9 21.5t21 9.5h375v39l-135 197h-240q-12 0 -21 9t-9 21v25q0 12 9 21.5t21 9.5h181l-338 489q-6 11 -1.5 18t15.5 7h55q25 0 41 -25l465 -682h8l465 682
q16 25 39 25h60q11 0 15 -9t-3 -16l-338 -489h178q12 0 21.5 -9.5t9.5 -21.5v-25q0 -12 -9.5 -21t-21.5 -9h-240l-135 -197v-39h375q12 0 21.5 -9.5t9.5 -21.5v-24q0 -12 -9.5 -21.5t-21.5 -9.5h-375z" />
    <glyph glyph-name="brokenbar" unicode="&#xa6;" horiz-adv-x="471" 
d="M285 1659v-789q0 -12 -9.5 -21t-21.5 -9h-37q-12 0 -21.5 9t-9.5 21v789q0 12 9.5 21.5t21.5 9.5h37q12 0 21.5 -9.5t9.5 -21.5zM285 563v-788q0 -12 -9.5 -21.5t-21.5 -9.5h-37q-12 0 -21.5 9.5t-9.5 21.5v788q0 12 9.5 21.5t21.5 9.5h37q12 0 21.5 -9.5t9.5 -21.5z" />
    <glyph glyph-name="section" unicode="&#xa7;" horiz-adv-x="1366" 
d="M530 408l238 -107q174 -79 250 -170q91 41 138.5 102.5t47.5 135.5q0 39 -8.5 70t-31 59.5t-47.5 50t-73 48.5t-91 47.5t-117 53.5l-238 107q-174 79 -250 170q-91 -41 -138.5 -102.5t-47.5 -135.5q0 -39 8.5 -70t31 -59.5t47.5 -50t73 -48.5t91 -47.5t117 -53.5z
M637 -455q-139 0 -258.5 50t-204.5 147q-16 23 6 39l23 18q25 15 45 -8q145 -168 385 -168q159 0 262.5 82.5t103.5 202.5q0 105 -61.5 178t-212.5 141l-369 168q-157 69 -220.5 152t-63.5 186q0 97 64.5 180.5t170.5 124.5q-31 70 -31 156q0 148 127 257.5t326 109.5
q139 0 258.5 -50t204.5 -147q16 -23 -6 -39l-23 -18q-25 -15 -45 8q-145 168 -385 168q-159 0 -262.5 -82.5t-103.5 -202.5q0 -104 62.5 -177t211.5 -142l369 -168q158 -69 221 -151.5t63 -186.5q0 -97 -64.5 -180.5t-170.5 -124.5q31 -70 31 -156q0 -148 -127 -257.5
t-326 -109.5z" />
    <glyph glyph-name="dieresis" unicode="&#xa8;" horiz-adv-x="561" 
d="M37 1155q0 35 26.5 61.5t61.5 26.5t61.5 -26.5t26.5 -61.5t-26.5 -61.5t-61.5 -26.5t-61.5 26.5t-26.5 61.5zM346 1155q0 35 26.5 61.5t61.5 26.5t61.5 -26.5t26.5 -61.5t-26.5 -61.5t-61.5 -26.5t-61.5 26.5t-26.5 61.5z" />
    <glyph glyph-name="copyright" unicode="&#xa9;" horiz-adv-x="1675" 
d="M102 717q0 209 100 378t268 262t368 93q202 0 369.5 -93t266.5 -262t99 -378q0 -208 -99 -376.5t-266.5 -261.5t-369.5 -93q-150 0 -285 55t-234.5 150.5t-158 232.5t-58.5 293zM1487 717q0 188 -88 340t-236 235.5t-325 83.5t-325.5 -83.5t-236.5 -235.5t-88 -340
q0 -141 51.5 -264t139.5 -209t207.5 -135.5t251.5 -49.5q177 0 325 83.5t236 235.5t88 339zM850 1061q-145 0 -234.5 -96.5t-89.5 -247.5q0 -149 89.5 -245.5t234.5 -96.5q95 0 165.5 43.5t106.5 120.5q12 28 39 28h39q12 0 18.5 -9t2.5 -19q-43 -112 -141 -178t-226 -66
q-180 0 -300 119t-120 303q0 183 120 303.5t300 120.5q128 0 226 -66t141 -178q4 -10 -2.5 -19.5t-18.5 -9.5h-39q-26 0 -39 29q-36 77 -106.5 120.5t-165.5 43.5z" />
    <glyph glyph-name="ordfeminine" unicode="&#xaa;" horiz-adv-x="956" 
d="M465 1389q-114 0 -185 -79t-71 -198t71 -197.5t185 -78.5q110 0 183 79.5t73 196.5q0 118 -73 197.5t-183 79.5zM719 807v84q-39 -62 -105.5 -97.5t-150.5 -35.5q-143 0 -241.5 101t-98.5 253t98.5 253t241.5 101q83 0 150 -35t106 -96v82q0 11 10 21t23 10h20
q12 0 21.5 -9.5t9.5 -21.5v-610q0 -13 -10 -23t-21 -10h-20q-33 0 -33 33zM772 569h-565q-12 0 -21.5 9.5t-9.5 21.5v18q0 12 9.5 21.5t21.5 9.5h565q12 0 21.5 -9.5t9.5 -21.5v-18q0 -12 -9.5 -21.5t-21.5 -9.5z" />
    <glyph glyph-name="guillemotleft" unicode="&#xab;" horiz-adv-x="827" 
d="M381 76h-41q-31 0 -45 26l-182 361q-12 27 0 53l182 363q14 26 45 26h41q11 0 16.5 -7.5t-0.5 -18.5l-188 -390l188 -387q4 -10 -0.5 -18t-15.5 -8zM688 76h-41q-31 0 -45 26l-182 361q-12 27 0 53l182 363q14 26 45 26h41q11 0 17 -8t0 -18l-189 -390l189 -387
q4 -10 -1 -18t-16 -8z" />
    <glyph glyph-name="logicalnot" unicode="&#xac;" horiz-adv-x="1107" 
d="M956 893v-354q0 -12 -9 -21.5t-21 -9.5h-29q-12 0 -21.5 9.5t-9.5 21.5v295h-712q-12 0 -21.5 9t-9.5 21v29q0 12 9.5 21.5t21.5 9.5h772q12 0 21 -9.5t9 -21.5z" />
    <glyph glyph-name="registered" unicode="&#xae;" horiz-adv-x="1675" 
d="M102 717q0 209 100 378t268 262t368 93q202 0 369.5 -93t266.5 -262t99 -378q0 -208 -99 -376.5t-266.5 -261.5t-369.5 -93q-150 0 -285 55t-234.5 150.5t-158 232.5t-58.5 293zM1487 717q0 188 -88 340t-236 235.5t-325 83.5t-325.5 -83.5t-236.5 -235.5t-88 -340
q0 -141 51.5 -264t139.5 -209t207.5 -135.5t251.5 -49.5q177 0 325 83.5t236 235.5t88 339zM1155 262h-43q-22 0 -35 23l-184 321h-8h-230v-315q0 -10 -8.5 -18.5t-19.5 -8.5h-29q-10 0 -18.5 8t-8.5 19v842q0 10 8 18t19 8h287q152 0 236.5 -80t84.5 -196q0 -97 -58 -170
t-169 -97l195 -331q5 -8 -1 -15.5t-18 -7.5zM1122 885q0 94 -64 148t-165 54h-238v-409h238q100 0 164.5 56t64.5 151z" />
    <glyph glyph-name="overscore" unicode="&#xaf;" horiz-adv-x="1150" 
d="M780 1118h-409q-12 0 -21.5 9.5t-9.5 21.5v14q0 12 9.5 21.5t21.5 9.5h409q12 0 21.5 -9.5t9.5 -21.5v-14q0 -12 -9.5 -21.5t-21.5 -9.5z" />
    <glyph glyph-name="degree" unicode="&#xb0;" horiz-adv-x="757" 
d="M379 889q-119 0 -202 83.5t-83 201.5t83 201t202 83t202 -83t83 -201t-83 -201.5t-202 -83.5zM379 1382q-82 0 -140.5 -60.5t-58.5 -147.5q0 -88 58.5 -149.5t140.5 -61.5q80 0 140.5 62t60.5 149t-60 147.5t-141 60.5z" />
    <glyph glyph-name="plusminus" unicode="&#xb1;" horiz-adv-x="1099" 
d="M535 1145h28q12 0 21.5 -9.5t9.5 -21.5v-340h342q12 0 21.5 -9.5t9.5 -21.5v-28q0 -12 -9.5 -21.5t-21.5 -9.5h-342v-342q0 -12 -9.5 -21.5t-21.5 -9.5h-28q-12 0 -21.5 9.5t-9.5 21.5v342h-340q-12 0 -21.5 9.5t-9.5 21.5v28q0 12 9.5 21.5t21.5 9.5h340v340
q0 12 9.5 21.5t21.5 9.5zM967 55v-24q0 -12 -9.5 -21.5t-21.5 -9.5h-772q-12 0 -21.5 9.5t-9.5 21.5v24q0 12 9.5 21.5t21.5 9.5h772q12 0 21.5 -9.5t9.5 -21.5z" />
    <glyph glyph-name="twosuperior" unicode="&#xb2;" horiz-adv-x="616" 
d="M535 1020h-451q-23 0 -23 20v35q0 14 15 29l225 199q82 74 119 124.5t37 106.5q0 64 -44.5 102.5t-109.5 38.5q-68 0 -111.5 -39t-58.5 -98q-6 -28 -33 -22l-30 8q-26 7 -17 28q18 86 87.5 141.5t164.5 55.5q101 0 168.5 -58.5t67.5 -150.5q0 -64 -37.5 -128.5
t-126.5 -139.5l-201 -172h359q10 0 17 -7.5t7 -15.5v-35q0 -22 -24 -22z" />
    <glyph glyph-name="threesuperior" unicode="&#xb3;" horiz-adv-x="630" 
d="M313 1679q-101 0 -149 -90q-12 -21 -33 -12l-25 10q-23 13 -14 31q25 55 84.5 93t140.5 38q94 0 156 -52.5t62 -133.5q0 -111 -107 -160q67 -19 104 -66.5t37 -115.5q0 -94 -71.5 -155.5t-186.5 -61.5q-120 0 -192 62t-72 161v14q0 14 14 14h52q14 0 14 -14v-10
q0 -66 48.5 -111t135.5 -45q79 0 126.5 43t47.5 105t-43.5 100.5t-119.5 38.5h-23q-23 0 -23 22v23q0 25 23 25h23q59 0 95 35t36 87q0 53 -37.5 89t-102.5 36z" />
    <glyph glyph-name="acute" unicode="&#xb4;" horiz-adv-x="370" 
d="M227 1384h54q11 0 15.5 -8t0.5 -18l-143 -260q-14 -27 -35 -27h-33q-25 0 -16 25l114 260q9 28 43 28z" />
    <glyph glyph-name="mu" unicode="&#xb5;" horiz-adv-x="1204" 
d="M176 -281v1184q0 12 9.5 21.5t21.5 9.5h29q12 0 21 -9.5t9 -21.5v-504q0 -163 85.5 -253.5t244.5 -90.5q157 0 249.5 95.5t92.5 248.5v504q0 12 9.5 21.5t21.5 9.5h28q12 0 21.5 -9.5t9.5 -21.5v-872q0 -12 -9.5 -21.5t-21.5 -9.5h-28q-12 0 -21.5 9.5t-9.5 21.5v155
q-42 -96 -137 -153.5t-221 -57.5q-104 0 -190.5 42t-123.5 110v-408q0 -12 -9 -21t-21 -9h-29q-12 0 -21.5 9t-9.5 21z" />
    <glyph glyph-name="paragraph" unicode="&#xb6;" horiz-adv-x="1052" 
d="M72 1081q0 146 103 249.5t249 103.5h393q12 0 21.5 -9.5t9.5 -21.5v-1372q0 -12 -9.5 -21.5t-21.5 -9.5h-26q-12 0 -21.5 9.5t-9.5 21.5v1317h-240v-1317q0 -12 -9.5 -21.5t-21.5 -9.5h-28q-12 0 -21.5 9.5t-9.5 21.5v698h-6q-146 0 -249 103t-103 249z" />
    <glyph glyph-name="middot" unicode="&#xb7;" horiz-adv-x="491" 
d="M246 616q-47 0 -81 34t-34 81t34 81t81 34t80.5 -34t33.5 -81t-33.5 -81t-80.5 -34z" />
    <glyph glyph-name="cedilla" unicode="&#xb8;" horiz-adv-x="321" 
d="M186 0h90l-116 -264q-13 -29 -35 -29h-33q-11 0 -16 7.5t0 21.5z" />
    <glyph glyph-name="onesuperior" unicode="&#xb9;" horiz-adv-x="346" 
d="M31 1602v34q0 17 16 17h29q35 0 57 11t33 44q5 15 11 22.5t11.5 9t16.5 1.5h14q21 0 21 -19v-680q0 -22 -23 -22h-35q-22 0 -22 22v543h-113q-16 0 -16 17z" />
    <glyph glyph-name="ordmasculine" unicode="&#xba;" horiz-adv-x="935" 
d="M469 760q-144 0 -243 101t-99 253t99 253t243 101q143 0 241.5 -101t98.5 -253t-98.5 -253t-241.5 -101zM467 1391q-114 0 -185 -79t-71 -198t71 -197.5t185 -78.5t185 78.5t71 197.5t-71 198t-185 79zM739 569h-544q-12 0 -21.5 9.5t-9.5 21.5v18q0 12 9.5 21.5
t21.5 9.5h544q12 0 21.5 -9.5t9.5 -21.5v-18q0 -12 -9.5 -21.5t-21.5 -9.5z" />
    <glyph glyph-name="guillemotright" unicode="&#xbb;" horiz-adv-x="827" 
d="M713 463l-183 -361q-12 -26 -45 -26h-41q-11 0 -15.5 8t-0.5 18l188 387l-188 390q-6 11 -0.5 18.5t16.5 7.5h41q33 0 45 -26l183 -363q15 -26 0 -53zM406 463l-183 -361q-12 -26 -45 -26h-41q-11 0 -15.5 8t-0.5 18l188 387l-188 390q-6 11 -0.5 18.5t16.5 7.5h41
q33 0 45 -26l183 -363q15 -26 0 -53z" />
    <glyph glyph-name="onequarter" unicode="&#xbc;" horiz-adv-x="1363" 
d="M1137 1382l-932 -1343q-12 -20 -22.5 -29.5t-26.5 -9.5h-17q-19 0 -25 15.5t7 35.5l932 1344q12 20 22.5 29.5t26.5 9.5h16q19 0 25.5 -16t-6.5 -36zM94 1294v35q0 17 17 17h28q35 0 57 11t33 44q5 15 11 22.5t11.5 9t16.5 1.5h15q20 0 20 -19v-680q0 -22 -22 -22h-35
q-23 0 -23 22v543h-112q-17 0 -17 16zM1130 0h-30q-11 0 -18 6.5t-7 16.5v190h-340q-20 0 -20 23v20q0 23 10 37l317 407q15 21 33 21h55q10 0 17.5 -7.5t7.5 -15.5v-417h117q20 0 20 -25v-18q0 -10 -6 -17.5t-14 -7.5h-117v-190q0 -10 -7 -16.5t-18 -6.5zM799 281h276v354z
" />
    <glyph glyph-name="onehalf" unicode="&#xbd;" horiz-adv-x="1460" 
d="M1122 1382l-932 -1343q-12 -20 -22.5 -29.5t-26.5 -9.5h-16q-19 0 -25.5 15.5t6.5 35.5l932 1344q12 20 22.5 29.5t26.5 9.5h17q19 0 25 -16t-7 -36zM94 1294v35q0 17 17 17h28q35 0 57 11t33 44q5 15 11 22.5t11.5 9t16.5 1.5h15q20 0 20 -19v-680q0 -22 -22 -22h-35
q-23 0 -23 22v543h-112q-17 0 -17 16zM1360 0h-451q-22 0 -22 20v35q0 15 14 29l225 199q82 74 119 124.5t37 106.5q0 64 -44.5 102.5t-109.5 38.5q-68 0 -111.5 -39t-58.5 -98q-6 -28 -32 -22l-31 8q-25 6 -16 28q18 86 87 141.5t164 55.5q101 0 168.5 -58.5t67.5 -150.5
q0 -64 -37.5 -128.5t-126.5 -139.5l-201 -172h359q10 0 17 -7.5t7 -15.5v-34q0 -23 -24 -23z" />
    <glyph glyph-name="threequarters" unicode="&#xbe;" horiz-adv-x="1478" 
d="M1272 1382l-932 -1343q-12 -20 -22.5 -29.5t-26.5 -9.5h-17q-19 0 -25 15.5t7 35.5l932 1344q12 20 22.5 29.5t26.5 9.5h16q19 0 25.5 -16t-6.5 -36zM348 1382q-101 0 -149 -90q-12 -21 -33 -12l-25 10q-23 13 -14 31q25 55 84.5 93t140.5 38q94 0 155.5 -52.5
t61.5 -133.5q0 -112 -106 -160q67 -19 104 -66.5t37 -115.5q0 -94 -71.5 -155.5t-186.5 -61.5q-120 0 -192 62t-72 161v14q0 14 14 14h51q15 0 15 -14v-10q0 -66 48.5 -111t135.5 -45q79 0 126.5 43t47.5 105q0 61 -44 100t-120 39h-22q-23 0 -23 22v23q0 25 23 25h22
q59 0 95 35t36 87q0 53 -37 89t-102 36zM1245 0h-31q-24 0 -24 23v190h-340q-21 0 -21 23v20q0 22 11 37l317 407q15 21 33 21h55q10 0 17.5 -7.5t7.5 -15.5v-417h116q21 0 21 -25v-18q0 -10 -6.5 -17.5t-14.5 -7.5h-116v-190q0 -10 -7 -16.5t-18 -6.5zM913 281h277v354z
" />
    <glyph glyph-name="questiondown" unicode="&#xbf;" horiz-adv-x="919" 
d="M463 961q47 0 81 -34t34 -81t-34 -80t-81 -33t-80 33t-33 80t33 81t80 34zM463 -524q-165 0 -274 94t-109 244q0 65 19 124.5t49 105.5t66.5 89t73 84t66.5 82t49 90.5t19 102.5v28q0 11 7 18t17 7h37q27 0 27 -27v-24q0 -85 -35 -159.5t-84.5 -130.5t-99 -110.5
t-84.5 -125.5t-35 -150q0 -120 85.5 -191t205.5 -71q101 0 187 57t126 160q4 12 16.5 16.5t24.5 -0.5l27 -10q23 -9 14 -37q-47 -126 -152 -196t-243 -70z" />
    <glyph glyph-name="Agrave" unicode="&#xc0;" horiz-adv-x="1290" 
d="M457 1884h53q33 0 43 -29l115 -260q9 -24 -17 -24h-33q-21 0 -34 26l-144 261q-4 10 1 18t16 8zM319 522h646l-324 819zM287 442l-162 -413q-10 -29 -35 -29h-43q-12 0 -17.5 9t-0.5 20l551 1376q10 29 38 29h52q29 0 39 -29l553 -1376q10 -29 -19 -29h-47q-27 0 -37 29
l-164 413h-708z" />
    <glyph glyph-name="Aacute" unicode="&#xc1;" horiz-adv-x="1290" 
d="M788 1884h54q11 0 15.5 -8t0.5 -18l-143 -261q-13 -26 -35 -26h-33q-25 0 -16 24l114 260q10 29 43 29zM319 522h646l-324 819zM287 442l-162 -413q-10 -29 -35 -29h-43q-12 0 -17.5 9t-0.5 20l551 1376q10 29 38 29h52q29 0 39 -29l553 -1376q10 -29 -19 -29h-47
q-27 0 -37 29l-164 413h-708z" />
    <glyph glyph-name="Acircumflex" unicode="&#xc2;" horiz-adv-x="1290" 
d="M637 1884h18q18 0 26.5 -5.5t20.5 -20.5l183 -261q6 -11 1 -18.5t-16 -7.5h-34q-25 0 -39 20l-152 203l-151 -203q-17 -20 -39 -20h-35q-12 0 -16.5 7.5t2.5 18.5l182 261q8 15 17.5 20.5t31.5 5.5zM319 522h646l-324 819zM287 442l-162 -413q-10 -29 -35 -29h-43
q-12 0 -17.5 9t-0.5 20l551 1376q10 29 38 29h52q29 0 39 -29l553 -1376q10 -29 -19 -29h-47q-27 0 -37 29l-164 413h-708z" />
    <glyph glyph-name="Atilde" unicode="&#xc3;" horiz-adv-x="1290" 
d="M764 1602q-38 0 -128.5 35.5t-109.5 35.5q-21 0 -33.5 -9.5t-29.5 -39.5q-16 -29 -41 -16l-14 6q-11 5 -16 16t-1 21q43 104 137 104q38 0 128.5 -36t109.5 -36q21 0 33.5 10t29.5 40q16 29 41 16l15 -6q11 -5 15.5 -16t0.5 -21q-43 -104 -137 -104zM319 522h646
l-324 819zM287 442l-162 -413q-10 -29 -35 -29h-43q-12 0 -17.5 9t-0.5 20l551 1376q10 29 38 29h52q29 0 39 -29l553 -1376q10 -29 -19 -29h-47q-27 0 -37 29l-164 413h-708z" />
    <glyph glyph-name="Adieresis" unicode="&#xc4;" horiz-adv-x="1290" 
d="M401 1655q0 35 26.5 61.5t61.5 26.5t62 -26.5t27 -61.5t-27 -61.5t-62 -26.5t-61.5 26.5t-26.5 61.5zM711 1655q0 35 26.5 61.5t61.5 26.5t61.5 -26.5t26.5 -61.5t-26.5 -61.5t-61.5 -26.5t-61.5 26.5t-26.5 61.5zM319 522h646l-324 819zM287 442l-162 -413
q-10 -29 -35 -29h-43q-12 0 -17.5 9t-0.5 20l551 1376q10 29 38 29h52q29 0 39 -29l553 -1376q10 -29 -19 -29h-47q-27 0 -37 29l-164 413h-708z" />
    <glyph glyph-name="Aring" unicode="&#xc5;" horiz-adv-x="1290" 
d="M852 1733q-1 -87 -61 -144t-146 -57t-146 57t-61 144q1 87 61 143.5t146 56.5t146 -56.5t61 -143.5zM768 1733q0 55 -34 91t-89 36t-89 -36t-34 -91t34 -91t89 -36t89 36t34 91zM319 522h646l-324 819zM287 442l-162 -413q-10 -29 -35 -29h-43q-12 0 -17.5 9t-0.5 20
l551 1376q10 29 38 29h52q29 0 39 -29l553 -1376q10 -29 -19 -29h-47q-27 0 -37 29l-164 413h-708z" />
    <glyph glyph-name="AE" unicode="&#xc6;" horiz-adv-x="1841" 
d="M967 522l-324 821l-321 -821h645zM289 442l-162 -413q-10 -29 -41 -29h-35q-13 0 -19 9t-1 20l549 1376q10 29 43 29h1126q12 0 21.5 -9.5t9.5 -21.5v-25q0 -12 -9.5 -21t-21.5 -9h-1014l232 -578h508q12 0 21 -9.5t9 -21.5v-20q0 -12 -9 -21.5t-21 -9.5h-478l244 -602
h508q12 0 21.5 -9.5t9.5 -21.5v-24q0 -12 -9.5 -21.5t-21.5 -9.5h-545q-33 0 -43 29l-164 413h-708z" />
    <glyph glyph-name="Ccedilla" unicode="&#xc7;" horiz-adv-x="1536" 
d="M850 -23l-107 -241q-13 -29 -34 -29h-33q-11 0 -17 8t0 21l101 241q-139 9 -262.5 67.5t-213.5 154.5t-142 230.5t-52 287.5q0 159 56.5 297.5t153.5 235.5t228.5 152.5t278.5 55.5q227 0 410.5 -121.5t255.5 -328.5q4 -10 -2.5 -19.5t-18.5 -9.5h-43q-23 0 -33 29
q-74 178 -220.5 273t-348.5 95q-176 0 -319 -85.5t-223.5 -236.5t-80.5 -337t80.5 -337t223.5 -237t319 -86q202 0 348.5 95.5t220.5 273.5q10 29 33 29h43q12 0 18.5 -9.5t2.5 -19.5q-68 -197 -238 -317t-385 -132z" />
    <glyph glyph-name="Egrave" unicode="&#xc8;" horiz-adv-x="1234" 
d="M477 1884h53q33 0 43 -29l115 -260q9 -24 -16 -24h-33q-22 0 -35 26l-143 261q-4 10 0.5 18t15.5 8zM227 1434h916q12 0 21.5 -9.5t9.5 -21.5v-25q0 -12 -9.5 -21t-21.5 -9h-854v-578h436q12 0 21.5 -9.5t9.5 -21.5v-20q0 -12 -9.5 -21.5t-21.5 -9.5h-436v-602h854
q12 0 21.5 -9.5t9.5 -21.5v-24q0 -12 -9.5 -21.5t-21.5 -9.5h-916q-12 0 -21 9.5t-9 21.5v1372q0 12 9 21.5t21 9.5z" />
    <glyph glyph-name="Eacute" unicode="&#xc9;" horiz-adv-x="1234" 
d="M809 1884h53q11 0 16 -8t1 -18l-144 -261q-13 -26 -35 -26h-32q-26 0 -17 24l115 260q10 29 43 29zM227 1434h916q12 0 21.5 -9.5t9.5 -21.5v-25q0 -12 -9.5 -21t-21.5 -9h-854v-578h436q12 0 21.5 -9.5t9.5 -21.5v-20q0 -12 -9.5 -21.5t-21.5 -9.5h-436v-602h854
q12 0 21.5 -9.5t9.5 -21.5v-24q0 -12 -9.5 -21.5t-21.5 -9.5h-916q-12 0 -21 9.5t-9 21.5v1372q0 12 9 21.5t21 9.5z" />
    <glyph glyph-name="Ecircumflex" unicode="&#xca;" horiz-adv-x="1234" 
d="M657 1884h19q18 0 26.5 -5.5t20.5 -20.5l182 -261q6 -11 1.5 -18.5t-15.5 -7.5h-35q-25 0 -39 20l-151 203l-152 -203q-17 -20 -39 -20h-35q-12 0 -16.5 7.5t2.5 18.5l182 261q8 15 17.5 20.5t31.5 5.5zM227 1434h916q12 0 21.5 -9.5t9.5 -21.5v-25q0 -12 -9.5 -21
t-21.5 -9h-854v-578h436q12 0 21.5 -9.5t9.5 -21.5v-20q0 -12 -9.5 -21.5t-21.5 -9.5h-436v-602h854q12 0 21.5 -9.5t9.5 -21.5v-24q0 -12 -9.5 -21.5t-21.5 -9.5h-916q-12 0 -21 9.5t-9 21.5v1372q0 12 9 21.5t21 9.5z" />
    <glyph glyph-name="Edieresis" unicode="&#xcb;" horiz-adv-x="1234" 
d="M422 1655q0 35 26.5 61.5t61.5 26.5t61.5 -26.5t26.5 -61.5t-26.5 -61.5t-61.5 -26.5t-61.5 26.5t-26.5 61.5zM731 1655q0 35 26.5 61.5t61.5 26.5t61.5 -26.5t26.5 -61.5t-26.5 -61.5t-61.5 -26.5t-61.5 26.5t-26.5 61.5zM227 1434h916q12 0 21.5 -9.5t9.5 -21.5v-25
q0 -12 -9.5 -21t-21.5 -9h-854v-578h436q12 0 21.5 -9.5t9.5 -21.5v-20q0 -12 -9.5 -21.5t-21.5 -9.5h-436v-602h854q12 0 21.5 -9.5t9.5 -21.5v-24q0 -12 -9.5 -21.5t-21.5 -9.5h-916q-12 0 -21 9.5t-9 21.5v1372q0 12 9 21.5t21 9.5z" />
    <glyph glyph-name="Igrave" unicode="&#xcc;" horiz-adv-x="485" 
d="M53 1884h53q34 0 44 -29l114 -260q9 -24 -16 -24h-33q-22 0 -35 26l-143 261q-4 10 0.5 18t15.5 8zM258 0h-31q-12 0 -21 9.5t-9 21.5v1372q0 12 9 21.5t21 9.5h31q12 0 21.5 -9.5t9.5 -21.5v-1372q0 -12 -9.5 -21.5t-21.5 -9.5z" />
    <glyph glyph-name="Iacute" unicode="&#xcd;" horiz-adv-x="485" 
d="M385 1884h53q11 0 16 -8t1 -18l-144 -261q-13 -26 -35 -26h-32q-26 0 -17 24l115 260q10 29 43 29zM258 0h-31q-12 0 -21 9.5t-9 21.5v1372q0 12 9 21.5t21 9.5h31q12 0 21.5 -9.5t9.5 -21.5v-1372q0 -12 -9.5 -21.5t-21.5 -9.5z" />
    <glyph glyph-name="Icircumflex" unicode="&#xce;" horiz-adv-x="485" 
d="M233 1884h19q18 0 26.5 -5.5t20.5 -20.5l182 -261q6 -11 1.5 -18.5t-15.5 -7.5h-35q-25 0 -39 20l-151 203l-152 -203q-17 -20 -39 -20h-35q-12 0 -16.5 7.5t2.5 18.5l182 261q8 15 17.5 20.5t31.5 5.5zM258 0h-31q-12 0 -21 9.5t-9 21.5v1372q0 12 9 21.5t21 9.5h31
q12 0 21.5 -9.5t9.5 -21.5v-1372q0 -12 -9.5 -21.5t-21.5 -9.5z" />
    <glyph glyph-name="Idieresis" unicode="&#xcf;" horiz-adv-x="485" 
d="M-2 1655q0 35 26.5 61.5t61.5 26.5t61.5 -26.5t26.5 -61.5t-26.5 -61.5t-61.5 -26.5t-61.5 26.5t-26.5 61.5zM307 1655q0 35 26.5 61.5t61.5 26.5t61.5 -26.5t26.5 -61.5t-26.5 -61.5t-61.5 -26.5t-61.5 26.5t-26.5 61.5zM258 0h-31q-12 0 -21 9.5t-9 21.5v1372
q0 12 9 21.5t21 9.5h31q12 0 21.5 -9.5t9.5 -21.5v-1372q0 -12 -9.5 -21.5t-21.5 -9.5z" />
    <glyph glyph-name="Eth" unicode="&#xd0;" horiz-adv-x="1503" 
d="M635 0h-393q-12 0 -21.5 9.5t-9.5 21.5v657h-180q-12 0 -21.5 9.5t-9.5 21.5v20q0 12 9.5 21.5t21.5 9.5h180v633q0 12 9.5 21.5t21.5 9.5h393q188 0 336 -53t243.5 -149t145 -226.5t49.5 -288.5t-49.5 -288.5t-145 -226.5t-243.5 -149t-336 -53zM303 82h340
q308 0 490 165t182 470t-182 470t-490 165h-340v-582h465q12 0 21.5 -9.5t9.5 -21.5v-20q0 -12 -9.5 -21.5t-21.5 -9.5h-465v-606z" />
    <glyph glyph-name="Ntilde" unicode="&#xd1;" horiz-adv-x="1474" 
d="M856 1602q-38 0 -128.5 35.5t-109.5 35.5q-21 0 -33.5 -9.5t-29.5 -39.5q-16 -29 -41 -16l-14 6q-11 5 -16 16t-1 21q43 104 138 104q38 0 128 -36t109 -36q21 0 34 10t30 40q16 29 41 16l14 -6q11 -5 15.5 -16t0.5 -21q-43 -104 -137 -104zM1153 25l-864 1275v-1269
q0 -12 -9.5 -21.5t-21.5 -9.5h-31q-12 0 -21 9.5t-9 21.5v1372q0 12 9 21.5t21 9.5h45q34 0 50 -25l864 -1276v1270q0 12 9.5 21.5t21.5 9.5h30q12 0 21.5 -9.5t9.5 -21.5v-1372q0 -12 -9.5 -21.5t-21.5 -9.5h-45q-33 0 -49 25z" />
    <glyph glyph-name="Ograve" unicode="&#xd2;" horiz-adv-x="1609" 
d="M616 1884h54q33 0 43 -29l114 -260q9 -24 -16 -24h-33q-22 0 -35 26l-143 261q-4 10 0.5 18t15.5 8zM1520 717q0 -159 -56.5 -298t-153 -235.5t-228 -152.5t-277.5 -56t-277.5 56t-228 152.5t-153 235.5t-56.5 298t56.5 297.5t153 235.5t228 152.5t277.5 55.5
t277.5 -55.5t228 -152.5t153 -235.5t56.5 -297.5zM1425 717q0 186 -79.5 337t-221.5 236.5t-319 85.5t-319.5 -85.5t-222 -236.5t-79.5 -337t79.5 -337t222 -237t319.5 -86t319 86t221.5 237t79.5 337z" />
    <glyph glyph-name="Oacute" unicode="&#xd3;" horiz-adv-x="1609" 
d="M948 1884h53q11 0 16 -8t1 -18l-144 -261q-13 -26 -34 -26h-33q-25 0 -16 24l114 260q10 29 43 29zM1520 717q0 -159 -56.5 -298t-153 -235.5t-228 -152.5t-277.5 -56t-277.5 56t-228 152.5t-153 235.5t-56.5 298t56.5 297.5t153 235.5t228 152.5t277.5 55.5t277.5 -55.5
t228 -152.5t153 -235.5t56.5 -297.5zM1425 717q0 186 -79.5 337t-221.5 236.5t-319 85.5t-319.5 -85.5t-222 -236.5t-79.5 -337t79.5 -337t222 -237t319.5 -86t319 86t221.5 237t79.5 337z" />
    <glyph glyph-name="Ocircumflex" unicode="&#xd4;" horiz-adv-x="1609" 
d="M797 1884h18q18 0 26.5 -5.5t20.5 -20.5l182 -261q6 -11 1.5 -18.5t-15.5 -7.5h-35q-25 0 -39 20l-151 203l-152 -203q-17 -20 -39 -20h-34q-12 0 -17 7.5t2 18.5l183 261q8 15 17.5 20.5t31.5 5.5zM1520 717q0 -159 -56.5 -298t-153 -235.5t-228 -152.5t-277.5 -56
t-277.5 56t-228 152.5t-153 235.5t-56.5 298t56.5 297.5t153 235.5t228 152.5t277.5 55.5t277.5 -55.5t228 -152.5t153 -235.5t56.5 -297.5zM1425 717q0 186 -79.5 337t-221.5 236.5t-319 85.5t-319.5 -85.5t-222 -236.5t-79.5 -337t79.5 -337t222 -237t319.5 -86t319 86
t221.5 237t79.5 337z" />
    <glyph glyph-name="Otilde" unicode="&#xd5;" horiz-adv-x="1609" 
d="M924 1602q-38 0 -128.5 35.5t-109.5 35.5q-21 0 -33.5 -9.5t-29.5 -39.5q-16 -29 -41 -16l-15 6q-11 5 -15.5 16t-0.5 21q43 104 137 104q38 0 128.5 -36t109.5 -36q21 0 33.5 10t29.5 40q16 29 41 16l14 -6q11 -5 16 -16t1 -21q-43 -104 -137 -104zM1520 717
q0 -159 -56.5 -298t-153 -235.5t-228 -152.5t-277.5 -56t-277.5 56t-228 152.5t-153 235.5t-56.5 298t56.5 297.5t153 235.5t228 152.5t277.5 55.5t277.5 -55.5t228 -152.5t153 -235.5t56.5 -297.5zM1425 717q0 186 -79.5 337t-221.5 236.5t-319 85.5t-319.5 -85.5
t-222 -236.5t-79.5 -337t79.5 -337t222 -237t319.5 -86t319 86t221.5 237t79.5 337z" />
    <glyph glyph-name="Odieresis" unicode="&#xd6;" horiz-adv-x="1609" 
d="M561 1655q0 35 26.5 61.5t61.5 26.5t61.5 -26.5t26.5 -61.5t-26.5 -61.5t-61.5 -26.5t-61.5 26.5t-26.5 61.5zM870 1655q0 35 26.5 61.5t61.5 26.5t62 -26.5t27 -61.5t-27 -61.5t-62 -26.5t-61.5 26.5t-26.5 61.5zM1520 717q0 -159 -56.5 -298t-153 -235.5t-228 -152.5
t-277.5 -56t-277.5 56t-228 152.5t-153 235.5t-56.5 298t56.5 297.5t153 235.5t228 152.5t277.5 55.5t277.5 -55.5t228 -152.5t153 -235.5t56.5 -297.5zM1425 717q0 186 -79.5 337t-221.5 236.5t-319 85.5t-319.5 -85.5t-222 -236.5t-79.5 -337t79.5 -337t222 -237
t319.5 -86t319 86t221.5 237t79.5 337z" />
    <glyph glyph-name="multiply" unicode="&#xd7;" horiz-adv-x="1056" 
d="M528 664l-297 -297q-20 -20 -45 -2l-20 22q-10 7 -10 20t10 23l299 299l-299 297q-20 20 -2 45l22 21q8 10 20 10t23 -10l299 -299l299 299q11 10 23 10t20 -10l23 -21q18 -25 -2 -45l-297 -297l297 -299q11 -10 11 -23t-11 -20l-21 -22q-25 -18 -45 2z" />
    <glyph glyph-name="Oslash" unicode="&#xd8;" horiz-adv-x="1609" 
d="M1520 717q0 -159 -56.5 -298t-153 -235.5t-228 -152.5t-277.5 -56t-277.5 56t-228 152.5t-153 235.5t-56.5 298t56.5 297.5t153 235.5t228 152.5t277.5 55.5t277.5 -55.5t228 -152.5t153 -235.5t56.5 -297.5zM184 717q0 -271 163 -456t415 -202v1315q-166 -11 -298 -98.5
t-206 -233.5t-74 -325zM1425 717q0 271 -162.5 455.5t-414.5 201.5v-1315q252 17 414.5 202t162.5 456z" />
    <glyph glyph-name="Ugrave" unicode="&#xd9;" horiz-adv-x="1437" 
d="M530 1884h54q33 0 43 -29l114 -260q9 -24 -16 -24h-33q-22 0 -35 26l-143 261q-4 10 0.5 18t15.5 8zM1260 1403v-922q0 -232 -148 -369t-393 -137t-393 135.5t-148 366.5v926q0 12 9.5 21.5t21.5 9.5h31q12 0 21 -9.5t9 -21.5v-932q0 -194 127 -305t322 -111
q125 0 226 47.5t162.5 143.5t61.5 225v932q0 12 9.5 21.5t21.5 9.5h29q12 0 21.5 -9.5t9.5 -21.5z" />
    <glyph glyph-name="Uacute" unicode="&#xda;" horiz-adv-x="1437" 
d="M862 1884h53q11 0 16 -8t1 -18l-144 -261q-13 -26 -34 -26h-33q-25 0 -16 24l114 260q10 29 43 29zM1260 1403v-922q0 -232 -148 -369t-393 -137t-393 135.5t-148 366.5v926q0 12 9.5 21.5t21.5 9.5h31q12 0 21 -9.5t9 -21.5v-932q0 -194 127 -305t322 -111
q125 0 226 47.5t162.5 143.5t61.5 225v932q0 12 9.5 21.5t21.5 9.5h29q12 0 21.5 -9.5t9.5 -21.5z" />
    <glyph glyph-name="Ucircumflex" unicode="&#xdb;" horiz-adv-x="1437" 
d="M711 1884h18q18 0 26.5 -5.5t20.5 -20.5l182 -261q6 -11 1.5 -18.5t-15.5 -7.5h-35q-25 0 -39 20l-151 203l-152 -203q-17 -20 -39 -20h-34q-12 0 -17 7.5t2 18.5l183 261q8 15 17.5 20.5t31.5 5.5zM1260 1403v-922q0 -232 -148 -369t-393 -137t-393 135.5t-148 366.5
v926q0 12 9.5 21.5t21.5 9.5h31q12 0 21 -9.5t9 -21.5v-932q0 -194 127 -305t322 -111q125 0 226 47.5t162.5 143.5t61.5 225v932q0 12 9.5 21.5t21.5 9.5h29q12 0 21.5 -9.5t9.5 -21.5z" />
    <glyph glyph-name="Udieresis" unicode="&#xdc;" horiz-adv-x="1437" 
d="M475 1655q0 35 26.5 61.5t61.5 26.5t61.5 -26.5t26.5 -61.5t-26.5 -61.5t-61.5 -26.5t-61.5 26.5t-26.5 61.5zM784 1655q0 35 26.5 61.5t61.5 26.5t62 -26.5t27 -61.5t-27 -61.5t-62 -26.5t-61.5 26.5t-26.5 61.5zM1260 1403v-922q0 -232 -148 -369t-393 -137t-393 135.5
t-148 366.5v926q0 12 9.5 21.5t21.5 9.5h31q12 0 21 -9.5t9 -21.5v-932q0 -194 127 -305t322 -111q125 0 226 47.5t162.5 143.5t61.5 225v932q0 12 9.5 21.5t21.5 9.5h29q12 0 21.5 -9.5t9.5 -21.5z" />
    <glyph glyph-name="Yacute" unicode="&#xdd;" horiz-adv-x="1243" 
d="M764 1884h53q11 0 16 -8t1 -18l-144 -261q-13 -26 -35 -26h-32q-26 0 -17 24l115 260q10 29 43 29zM575 31v606l-532 772q-6 11 -1.5 18t15.5 7h56q25 0 41 -25l464 -682h9l465 682q16 25 38 25h60q12 0 15 -9t-3 -16l-534 -772v-606q0 -12 -9.5 -21.5t-21.5 -9.5h-31
q-12 0 -21.5 9.5t-9.5 21.5z" />
    <glyph glyph-name="Thorn" unicode="&#xde;" horiz-adv-x="1271" 
d="M258 0h-31q-12 0 -21 9.5t-9 21.5v1372q0 12 9 21.5t21 9.5h31q12 0 21.5 -9.5t9.5 -21.5v-215h409q125 0 222.5 -35t157 -95.5t90 -137t30.5 -164.5t-30.5 -164.5t-90 -137t-157 -95.5t-222.5 -35h-409v-293q0 -12 -9.5 -21.5t-21.5 -9.5zM289 403h420q82 0 152.5 22
t125 64.5t86 111t31.5 155.5q0 115 -54.5 196t-142 118.5t-198.5 37.5h-420v-705z" />
    <glyph glyph-name="germandbls" unicode="&#xdf;" horiz-adv-x="1085" 
d="M154 31v1024q0 113 34.5 201t93.5 141.5t133 80.5t158 27q89 0 160.5 -27t114.5 -70t65.5 -93.5t22.5 -102.5q0 -64 -29.5 -125.5t-71.5 -108.5t-83.5 -89t-71 -81.5t-29.5 -70.5q0 -32 40 -75t97.5 -88t114.5 -95.5t97 -113t40 -123.5q0 -128 -87.5 -198.5t-213.5 -70.5
q-111 0 -170 29q-28 12 -18 35l10 29q9 26 39 16q75 -27 139 -27q83 0 145 45.5t62 135.5q0 53 -40.5 107.5t-98 101t-114.5 91.5t-97.5 95.5t-40.5 97.5q0 39 30 85.5t72.5 91.5t85.5 92t73 101.5t30 104.5q0 39 -15.5 76.5t-47 70.5t-87 53.5t-127.5 20.5
q-152 0 -237.5 -102t-85.5 -268v-1024q0 -12 -9.5 -21.5t-21.5 -9.5h-31q-12 0 -21 9.5t-9 21.5z" />
    <glyph glyph-name="agrave" unicode="&#xe0;" horiz-adv-x="1175" 
d="M367 1384h53q34 0 43 -28l115 -260q9 -25 -17 -25h-33q-20 0 -34 27l-144 260q-4 10 1 18t16 8zM174 465q0 -173 107.5 -290.5t273.5 -117.5t273.5 117.5t107.5 290.5q0 175 -107.5 293.5t-273.5 118.5t-273.5 -118.5t-107.5 -293.5zM82 465q0 212 136.5 352.5
t334.5 140.5q128 0 230.5 -63.5t150.5 -165.5v174q0 12 9.5 21.5t21.5 9.5h28q12 0 21.5 -9.5t9.5 -21.5v-872q0 -12 -9.5 -21.5t-21.5 -9.5h-28q-12 0 -21.5 9.5t-9.5 21.5v174q-51 -103 -152.5 -166.5t-228.5 -63.5q-130 0 -237.5 62.5t-170.5 175t-63 252.5z" />
    <glyph glyph-name="aacute" unicode="&#xe1;" horiz-adv-x="1175" 
d="M698 1384h54q11 0 15.5 -8t0.5 -18l-143 -260q-13 -27 -35 -27h-33q-25 0 -16 25l114 260q9 28 43 28zM174 465q0 -173 107.5 -290.5t273.5 -117.5t273.5 117.5t107.5 290.5q0 175 -107.5 293.5t-273.5 118.5t-273.5 -118.5t-107.5 -293.5zM82 465q0 212 136.5 352.5
t334.5 140.5q128 0 230.5 -63.5t150.5 -165.5v174q0 12 9.5 21.5t21.5 9.5h28q12 0 21.5 -9.5t9.5 -21.5v-872q0 -12 -9.5 -21.5t-21.5 -9.5h-28q-12 0 -21.5 9.5t-9.5 21.5v174q-51 -103 -152.5 -166.5t-228.5 -63.5q-130 0 -237.5 62.5t-170.5 175t-63 252.5z" />
    <glyph glyph-name="acircumflex" unicode="&#xe2;" horiz-adv-x="1175" 
d="M547 1384h18q18 0 26.5 -5.5t20.5 -20.5l183 -260q6 -10 1 -18.5t-16 -8.5h-35q-23 0 -38 21l-152 202l-152 -202q-18 -21 -38 -21h-35q-12 0 -17 8.5t2 18.5l183 260q8 15 17.5 20.5t31.5 5.5zM174 465q0 -173 107.5 -290.5t273.5 -117.5t273.5 117.5t107.5 290.5
q0 175 -107.5 293.5t-273.5 118.5t-273.5 -118.5t-107.5 -293.5zM82 465q0 212 136.5 352.5t334.5 140.5q128 0 230.5 -63.5t150.5 -165.5v174q0 12 9.5 21.5t21.5 9.5h28q12 0 21.5 -9.5t9.5 -21.5v-872q0 -12 -9.5 -21.5t-21.5 -9.5h-28q-12 0 -21.5 9.5t-9.5 21.5v174
q-51 -103 -152.5 -166.5t-228.5 -63.5q-130 0 -237.5 62.5t-170.5 175t-63 252.5z" />
    <glyph glyph-name="atilde" unicode="&#xe3;" horiz-adv-x="1175" 
d="M674 1102q-38 0 -128.5 36t-109.5 36q-21 0 -33.5 -10t-29.5 -40q-16 -29 -41 -16l-15 6q-11 5 -15.5 16t-0.5 21q43 104 137 104q38 0 128.5 -35.5t109.5 -35.5q21 0 33.5 9.5t29.5 39.5q16 29 41 16l15 -6q11 -5 15.5 -16t0.5 -21q-43 -104 -137 -104zM174 465
q0 -173 107.5 -290.5t273.5 -117.5t273.5 117.5t107.5 290.5q0 175 -107.5 293.5t-273.5 118.5t-273.5 -118.5t-107.5 -293.5zM82 465q0 212 136.5 352.5t334.5 140.5q128 0 230.5 -63.5t150.5 -165.5v174q0 12 9.5 21.5t21.5 9.5h28q12 0 21.5 -9.5t9.5 -21.5v-872
q0 -12 -9.5 -21.5t-21.5 -9.5h-28q-12 0 -21.5 9.5t-9.5 21.5v174q-51 -103 -152.5 -166.5t-228.5 -63.5q-130 0 -237.5 62.5t-170.5 175t-63 252.5z" />
    <glyph glyph-name="adieresis" unicode="&#xe4;" horiz-adv-x="1175" 
d="M311 1155q0 35 26.5 61.5t61.5 26.5t61.5 -26.5t26.5 -61.5t-26.5 -61.5t-61.5 -26.5t-61.5 26.5t-26.5 61.5zM621 1155q0 35 26.5 61.5t61.5 26.5t61.5 -26.5t26.5 -61.5t-26.5 -61.5t-61.5 -26.5t-61.5 26.5t-26.5 61.5zM174 465q0 -173 107.5 -290.5t273.5 -117.5
t273.5 117.5t107.5 290.5q0 175 -107.5 293.5t-273.5 118.5t-273.5 -118.5t-107.5 -293.5zM82 465q0 212 136.5 352.5t334.5 140.5q128 0 230.5 -63.5t150.5 -165.5v174q0 12 9.5 21.5t21.5 9.5h28q12 0 21.5 -9.5t9.5 -21.5v-872q0 -12 -9.5 -21.5t-21.5 -9.5h-28
q-12 0 -21.5 9.5t-9.5 21.5v174q-51 -103 -152.5 -166.5t-228.5 -63.5q-130 0 -237.5 62.5t-170.5 175t-63 252.5z" />
    <glyph glyph-name="aring" unicode="&#xe5;" horiz-adv-x="1175" 
d="M762 1233q-1 -87 -61 -144t-146 -57t-146 57t-61 144q1 87 61 144t146 57t146 -57t61 -144zM678 1233q0 55 -34 91t-89 36t-89 -36t-34 -91t34 -91t89 -36t89 36t34 91zM174 465q0 -173 107.5 -290.5t273.5 -117.5t273.5 117.5t107.5 290.5q0 175 -107.5 293.5
t-273.5 118.5t-273.5 -118.5t-107.5 -293.5zM82 465q0 212 136.5 352.5t334.5 140.5q128 0 230.5 -63.5t150.5 -165.5v174q0 12 9.5 21.5t21.5 9.5h28q12 0 21.5 -9.5t9.5 -21.5v-872q0 -12 -9.5 -21.5t-21.5 -9.5h-28q-12 0 -21.5 9.5t-9.5 21.5v174
q-51 -103 -152.5 -166.5t-228.5 -63.5q-130 0 -237.5 62.5t-170.5 175t-63 252.5z" />
    <glyph glyph-name="ae" unicode="&#xe6;" horiz-adv-x="1845" 
d="M1319 -25q-123 0 -222.5 50.5t-166.5 142.5q-60 -91 -157.5 -142t-215.5 -51q-131 0 -239.5 63t-172 176t-63.5 253q0 105 37.5 196.5t101 156t151 101.5t185.5 37q118 0 216.5 -51t158.5 -143q64 92 162 143t219 51q95 0 180 -33t148.5 -93t101 -150t37.5 -197v-16
q0 -12 -8.5 -21.5t-20.5 -9.5h-819q12 -167 119.5 -274t271.5 -107q199 0 317 150q27 27 48 10l18 -12q28 -19 12 -41q-62 -89 -166.5 -139t-232.5 -50zM557 57q108 0 194 49.5t136 137.5q-47 103 -47 221q0 117 47 223q-48 88 -134.5 138.5t-195.5 50.5
q-166 0 -274.5 -118.5t-108.5 -291.5t108.5 -291.5t274.5 -118.5zM934 516h756q-13 165 -116.5 263t-262.5 98q-156 0 -257.5 -102t-119.5 -259z" />
    <glyph glyph-name="ccedilla" unicode="&#xe7;" horiz-adv-x="1046" 
d="M598 -23l-106 -241q-13 -29 -35 -29h-33q-11 0 -16 7.5t0 21.5l100 241q-182 17 -304 155.5t-122 334.5q0 105 37.5 196.5t101 156t151 101.5t185.5 37q135 0 244.5 -65.5t169.5 -183.5q12 -29 -15 -41l-24 -11q-29 -10 -41 15q-49 95 -135 150t-199 55
q-166 0 -274.5 -118.5t-108.5 -291.5t108.5 -291.5t274.5 -118.5q113 0 199 55t135 150q12 22 41 12l26 -10q25 -11 13 -39q-55 -109 -152 -173t-221 -75z" />
    <glyph glyph-name="egrave" unicode="&#xe8;" horiz-adv-x="1087" 
d="M356 1384h54q34 0 43 -28l114 -260q9 -25 -16 -25h-33q-22 0 -35 27l-143 260q-4 10 0.5 18t15.5 8zM555 958q95 0 180 -33t148.5 -93t101 -150t37.5 -197v-16q0 -12 -8.5 -21.5t-20.5 -9.5h-819q12 -167 119.5 -274t271.5 -107q200 0 318 150q26 26 47 10l18 -12
q29 -19 13 -41q-62 -89 -167 -139t-233 -50q-207 0 -343 138.5t-136 351.5q0 135 61 247.5t170 179t242 66.5zM176 516h756q-13 165 -116.5 263t-262.5 98q-156 0 -257.5 -102t-119.5 -259z" />
    <glyph glyph-name="eacute" unicode="&#xe9;" horiz-adv-x="1087" 
d="M688 1384h53q11 0 16 -8t1 -18l-144 -260q-14 -27 -34 -27h-33q-26 0 -17 25l115 260q9 28 43 28zM555 958q95 0 180 -33t148.5 -93t101 -150t37.5 -197v-16q0 -12 -8.5 -21.5t-20.5 -9.5h-819q12 -167 119.5 -274t271.5 -107q200 0 318 150q26 26 47 10l18 -12
q29 -19 13 -41q-62 -89 -167 -139t-233 -50q-207 0 -343 138.5t-136 351.5q0 135 61 247.5t170 179t242 66.5zM176 516h756q-13 165 -116.5 263t-262.5 98q-156 0 -257.5 -102t-119.5 -259z" />
    <glyph glyph-name="ecircumflex" unicode="&#xea;" horiz-adv-x="1087" 
d="M537 1384h18q18 0 26.5 -5.5t20.5 -20.5l182 -260q6 -10 1.5 -18.5t-15.5 -8.5h-35q-24 0 -39 21l-151 202l-152 -202q-18 -21 -39 -21h-35q-12 0 -16.5 8.5t2.5 18.5l182 260q8 15 18 20.5t32 5.5zM555 958q95 0 180 -33t148.5 -93t101 -150t37.5 -197v-16
q0 -12 -8.5 -21.5t-20.5 -9.5h-819q12 -167 119.5 -274t271.5 -107q200 0 318 150q26 26 47 10l18 -12q29 -19 13 -41q-62 -89 -167 -139t-233 -50q-207 0 -343 138.5t-136 351.5q0 135 61 247.5t170 179t242 66.5zM176 516h756q-13 165 -116.5 263t-262.5 98
q-156 0 -257.5 -102t-119.5 -259z" />
    <glyph glyph-name="edieresis" unicode="&#xeb;" horiz-adv-x="1087" 
d="M301 1155q0 35 26.5 61.5t61.5 26.5t61.5 -26.5t26.5 -61.5t-26.5 -61.5t-61.5 -26.5t-61.5 26.5t-26.5 61.5zM610 1155q0 35 26.5 61.5t61.5 26.5t61.5 -26.5t26.5 -61.5t-26.5 -61.5t-61.5 -26.5t-61.5 26.5t-26.5 61.5zM555 958q95 0 180 -33t148.5 -93t101 -150
t37.5 -197v-16q0 -12 -8.5 -21.5t-20.5 -9.5h-819q12 -167 119.5 -274t271.5 -107q200 0 318 150q26 26 47 10l18 -12q29 -19 13 -41q-62 -89 -167 -139t-233 -50q-207 0 -343 138.5t-136 351.5q0 135 61 247.5t170 179t242 66.5zM176 516h756q-13 165 -116.5 263t-262.5 98
q-156 0 -257.5 -102t-119.5 -259z" />
    <glyph glyph-name="igrave" unicode="&#xec;" horiz-adv-x="393" 
d="M8 1384h53q34 0 43 -28l115 -260q9 -25 -16 -25h-33q-22 0 -35 27l-143 260q-4 10 0.5 18t15.5 8zM211 0h-29q-12 0 -21 9.5t-9 21.5v872q0 12 9 21.5t21 9.5h29q12 0 21.5 -9.5t9.5 -21.5v-872q0 -12 -9.5 -21.5t-21.5 -9.5z" />
    <glyph glyph-name="iacute" unicode="&#xed;" horiz-adv-x="393" 
d="M340 1384h53q11 0 16 -8t1 -18l-144 -260q-14 -27 -35 -27h-32q-26 0 -17 25l115 260q9 28 43 28zM211 0h-29q-12 0 -21 9.5t-9 21.5v872q0 12 9 21.5t21 9.5h29q12 0 21.5 -9.5t9.5 -21.5v-872q0 -12 -9.5 -21.5t-21.5 -9.5z" />
    <glyph glyph-name="icircumflex" unicode="&#xee;" horiz-adv-x="393" 
d="M188 1384h19q18 0 26.5 -5.5t20.5 -20.5l182 -260q6 -10 1.5 -18.5t-15.5 -8.5h-35q-24 0 -39 21l-151 202l-152 -202q-18 -21 -39 -21h-35q-12 0 -16.5 8.5t2.5 18.5l182 260q8 15 17.5 20.5t31.5 5.5zM211 0h-29q-12 0 -21 9.5t-9 21.5v872q0 12 9 21.5t21 9.5h29
q12 0 21.5 -9.5t9.5 -21.5v-872q0 -12 -9.5 -21.5t-21.5 -9.5z" />
    <glyph glyph-name="idieresis" unicode="&#xef;" horiz-adv-x="393" 
d="M-47 1155q0 35 26.5 61.5t61.5 26.5t61.5 -26.5t26.5 -61.5t-26.5 -61.5t-61.5 -26.5t-61.5 26.5t-26.5 61.5zM262 1155q0 35 26.5 61.5t61.5 26.5t61.5 -26.5t26.5 -61.5t-26.5 -61.5t-61.5 -26.5t-61.5 26.5t-26.5 61.5zM211 0h-29q-12 0 -21 9.5t-9 21.5v872
q0 12 9 21.5t21 9.5h29q12 0 21.5 -9.5t9.5 -21.5v-872q0 -12 -9.5 -21.5t-21.5 -9.5z" />
    <glyph glyph-name="eth" unicode="&#xf0;" horiz-adv-x="1120" 
d="M555 -25q-130 0 -238 63t-171.5 176t-63.5 253q0 212 135.5 353t333.5 141q89 0 187.5 -42.5t156.5 -119.5q-94 216 -295 407l-186 -129q-10 -8 -21.5 -7t-17.5 11l-13 17q-14 25 9 39l174 118q-110 99 -236 179q-7 4 -6.5 12t8.5 8l76 6q20 0 29 -6q109 -73 196 -149
l187 127q26 15 39 -7l10 -14q12 -22 -8 -39l-172 -119q72 -68 133 -145t115 -173t85 -210.5t31 -232.5q0 -150 -63 -268.5t-171.5 -183.5t-242.5 -65zM172 467q0 -173 108.5 -291.5t274.5 -118.5q167 0 275 118t108 292q0 175 -108 293.5t-275 118.5q-166 0 -274.5 -118.5
t-108.5 -293.5z" />
    <glyph glyph-name="ntilde" unicode="&#xf1;" 
d="M676 1102q-38 0 -128.5 36t-109.5 36q-21 0 -33.5 -10t-29.5 -40q-16 -29 -41 -16l-15 6q-11 5 -15.5 16t-0.5 21q43 104 137 104q38 0 128.5 -35.5t109.5 -35.5q21 0 33.5 9.5t29.5 39.5q16 29 41 16l15 -6q11 -5 15.5 -16t0.5 -21q-43 -104 -137 -104zM913 31v504
q0 163 -83.5 253.5t-241.5 90.5t-252 -95.5t-94 -248.5v-504q0 -12 -9.5 -21.5t-21.5 -9.5h-29q-12 0 -21 9.5t-9 21.5v872q0 12 9 21.5t21 9.5h29q12 0 21.5 -9.5t9.5 -21.5v-155q42 96 136.5 153t221.5 57q187 0 295.5 -111t108.5 -296v-520q0 -12 -9.5 -21.5t-21.5 -9.5
h-29q-12 0 -21.5 9.5t-9.5 21.5z" />
    <glyph glyph-name="ograve" unicode="&#xf2;" horiz-adv-x="1110" 
d="M367 1384h53q34 0 43 -28l115 -260q9 -25 -17 -25h-33q-20 0 -34 27l-144 260q-4 10 1 18t16 8zM82 467q0 211 137 351t336 140t336 -140t137 -351q0 -140 -63.5 -253t-171.5 -176t-238 -63t-238 63t-171.5 176t-63.5 253zM174 467q0 -174 107 -292t274 -118t274 118
t107 292t-107 292t-274 118t-274 -118t-107 -292z" />
    <glyph glyph-name="oacute" unicode="&#xf3;" horiz-adv-x="1110" 
d="M698 1384h54q11 0 15.5 -8t0.5 -18l-143 -260q-13 -27 -35 -27h-33q-25 0 -16 25l114 260q9 28 43 28zM82 467q0 211 137 351t336 140t336 -140t137 -351q0 -140 -63.5 -253t-171.5 -176t-238 -63t-238 63t-171.5 176t-63.5 253zM174 467q0 -174 107 -292t274 -118
t274 118t107 292t-107 292t-274 118t-274 -118t-107 -292z" />
    <glyph glyph-name="ocircumflex" unicode="&#xf4;" horiz-adv-x="1110" 
d="M547 1384h18q18 0 26.5 -5.5t20.5 -20.5l183 -260q6 -10 1 -18.5t-16 -8.5h-35q-23 0 -38 21l-152 202l-152 -202q-18 -21 -38 -21h-35q-12 0 -17 8.5t2 18.5l183 260q8 15 17.5 20.5t31.5 5.5zM82 467q0 211 137 351t336 140t336 -140t137 -351q0 -140 -63.5 -253
t-171.5 -176t-238 -63t-238 63t-171.5 176t-63.5 253zM174 467q0 -174 107 -292t274 -118t274 118t107 292t-107 292t-274 118t-274 -118t-107 -292z" />
    <glyph glyph-name="otilde" unicode="&#xf5;" horiz-adv-x="1110" 
d="M674 1102q-38 0 -128.5 36t-109.5 36q-21 0 -33.5 -10t-29.5 -40q-16 -29 -41 -16l-15 6q-11 5 -15.5 16t-0.5 21q43 104 137 104q38 0 128.5 -35.5t109.5 -35.5q21 0 33.5 9.5t29.5 39.5q16 29 41 16l15 -6q11 -5 15.5 -16t0.5 -21q-43 -104 -137 -104zM82 467
q0 211 137 351t336 140t336 -140t137 -351q0 -140 -63.5 -253t-171.5 -176t-238 -63t-238 63t-171.5 176t-63.5 253zM174 467q0 -174 107 -292t274 -118t274 118t107 292t-107 292t-274 118t-274 -118t-107 -292z" />
    <glyph glyph-name="odieresis" unicode="&#xf6;" horiz-adv-x="1110" 
d="M311 1155q0 35 26.5 61.5t61.5 26.5t61.5 -26.5t26.5 -61.5t-26.5 -61.5t-61.5 -26.5t-61.5 26.5t-26.5 61.5zM621 1155q0 35 26.5 61.5t61.5 26.5t61.5 -26.5t26.5 -61.5t-26.5 -61.5t-61.5 -26.5t-61.5 26.5t-26.5 61.5zM82 467q0 211 137 351t336 140t336 -140
t137 -351q0 -140 -63.5 -253t-171.5 -176t-238 -63t-238 63t-171.5 176t-63.5 253zM174 467q0 -174 107 -292t274 -118t274 118t107 292t-107 292t-274 118t-274 -118t-107 -292z" />
    <glyph glyph-name="divide" unicode="&#xf7;" horiz-adv-x="1091" 
d="M545 958q-47 0 -81 34t-34 81t34 81t81 34t80.5 -34t33.5 -81t-33.5 -81t-80.5 -34zM963 743v-28q0 -12 -9.5 -21.5t-21.5 -9.5h-772q-12 0 -21.5 9.5t-9.5 21.5v28q0 12 9.5 21.5t21.5 9.5h772q12 0 21.5 -9.5t9.5 -21.5zM545 246q-47 0 -81 33.5t-34 80.5t34 81t81 34
t80.5 -34t33.5 -81t-33.5 -80.5t-80.5 -33.5z" />
    <glyph glyph-name="oslash" unicode="&#xf8;" horiz-adv-x="1110" 
d="M82 467q0 211 137 351t336 140t336 -140t137 -351q0 -140 -63.5 -253t-171.5 -176t-238 -63t-238 63t-171.5 176t-63.5 253zM936 467q0 165 -93 277.5t-245 129.5v-815q151 17 244.5 132t93.5 276zM174 467q0 -161 93.5 -276t244.5 -132v815q-152 -17 -245 -129.5
t-93 -277.5z" />
    <glyph glyph-name="ugrave" unicode="&#xf9;" 
d="M381 1384h53q34 0 43 -28l115 -260q9 -25 -17 -25h-32q-21 0 -35 27l-143 260q-4 10 0.5 18t15.5 8zM227 903v-504q0 -163 85.5 -253.5t244.5 -90.5q157 0 249.5 95.5t92.5 248.5v504q0 12 9.5 21.5t21.5 9.5h28q12 0 21.5 -9.5t9.5 -21.5v-872q0 -12 -9.5 -21.5
t-21.5 -9.5h-28q-12 0 -21.5 9.5t-9.5 21.5v155q-42 -96 -137 -153.5t-221 -57.5q-187 0 -295.5 111.5t-108.5 296.5v520q0 12 9.5 21.5t21.5 9.5h29q12 0 21 -9.5t9 -21.5z" />
    <glyph glyph-name="uacute" unicode="&#xfa;" 
d="M713 1384h53q11 0 15.5 -8t0.5 -18l-143 -260q-13 -27 -35 -27h-33q-25 0 -16 25l115 260q9 28 43 28zM227 903v-504q0 -163 85.5 -253.5t244.5 -90.5q157 0 249.5 95.5t92.5 248.5v504q0 12 9.5 21.5t21.5 9.5h28q12 0 21.5 -9.5t9.5 -21.5v-872q0 -12 -9.5 -21.5
t-21.5 -9.5h-28q-12 0 -21.5 9.5t-9.5 21.5v155q-42 -96 -137 -153.5t-221 -57.5q-187 0 -295.5 111.5t-108.5 296.5v520q0 12 9.5 21.5t21.5 9.5h29q12 0 21 -9.5t9 -21.5z" />
    <glyph glyph-name="ucircumflex" unicode="&#xfb;" 
d="M561 1384h19q18 0 26.5 -5.5t20.5 -20.5l182 -260q6 -10 1.5 -18.5t-15.5 -8.5h-35q-24 0 -39 21l-152 202l-151 -202q-18 -21 -39 -21h-35q-12 0 -16.5 8.5t2.5 18.5l182 260q8 15 17.5 20.5t31.5 5.5zM227 903v-504q0 -163 85.5 -253.5t244.5 -90.5q157 0 249.5 95.5
t92.5 248.5v504q0 12 9.5 21.5t21.5 9.5h28q12 0 21.5 -9.5t9.5 -21.5v-872q0 -12 -9.5 -21.5t-21.5 -9.5h-28q-12 0 -21.5 9.5t-9.5 21.5v155q-42 -96 -137 -153.5t-221 -57.5q-187 0 -295.5 111.5t-108.5 296.5v520q0 12 9.5 21.5t21.5 9.5h29q12 0 21 -9.5t9 -21.5z" />
    <glyph glyph-name="udieresis" unicode="&#xfc;" 
d="M326 1155q0 35 26.5 61.5t61.5 26.5t61.5 -26.5t26.5 -61.5t-26.5 -61.5t-61.5 -26.5t-61.5 26.5t-26.5 61.5zM635 1155q0 35 26.5 61.5t61.5 26.5t61.5 -26.5t26.5 -61.5t-26.5 -61.5t-61.5 -26.5t-61.5 26.5t-26.5 61.5zM227 903v-504q0 -163 85.5 -253.5t244.5 -90.5
q157 0 249.5 95.5t92.5 248.5v504q0 12 9.5 21.5t21.5 9.5h28q12 0 21.5 -9.5t9.5 -21.5v-872q0 -12 -9.5 -21.5t-21.5 -9.5h-28q-12 0 -21.5 9.5t-9.5 21.5v155q-42 -96 -137 -153.5t-221 -57.5q-187 0 -295.5 111.5t-108.5 296.5v520q0 12 9.5 21.5t21.5 9.5h29
q12 0 21 -9.5t9 -21.5z" />
    <glyph glyph-name="yacute" unicode="&#xfd;" horiz-adv-x="923" 
d="M608 1384h54q11 0 15.5 -8t0.5 -18l-143 -260q-13 -27 -35 -27h-33q-25 0 -16 25l114 260q9 28 43 28zM186 -442q-62 0 -116 23.5t-82 56.5q-16 23 4 43l14 16q18 18 49 -10q41 -34 68 -44t67 -10q117 0 172 156l80 211h-20q-24 0 -33 20l-334 885q-4 10 2.5 19.5
t18.5 9.5h45q27 0 37 -29l309 -837l307 837q10 29 37 29h45q13 0 19.5 -9t1.5 -20l-441 -1159q-32 -85 -94 -136.5t-156 -51.5z" />
    <glyph glyph-name="thorn" unicode="&#xfe;" horiz-adv-x="1177" 
d="M242 467q0 -174 107 -292t274 -118q165 0 271.5 118t106.5 292t-106.5 292t-271.5 118q-167 0 -274 -118t-107 -292zM244 1403v-674q48 102 150.5 165.5t230.5 63.5q130 0 237.5 -62.5t170.5 -175.5t63 -253q0 -213 -136 -352.5t-335 -139.5q-128 0 -230.5 64t-150.5 166
v-588q0 -12 -9.5 -21.5t-21.5 -9.5h-29q-12 0 -21 9.5t-9 21.5v1786q0 12 9 21.5t21 9.5h29q12 0 21.5 -9.5t9.5 -21.5z" />
    <glyph glyph-name="ydieresis" unicode="&#xff;" horiz-adv-x="923" 
d="M221 1155q0 35 26.5 61.5t61.5 26.5t61.5 -26.5t26.5 -61.5t-26.5 -61.5t-61.5 -26.5t-61.5 26.5t-26.5 61.5zM530 1155q0 35 26.5 61.5t61.5 26.5t62 -26.5t27 -61.5t-27 -61.5t-62 -26.5t-61.5 26.5t-26.5 61.5zM186 -442q-62 0 -116 23.5t-82 56.5q-16 23 4 43l14 16
q18 18 49 -10q41 -34 68 -44t67 -10q117 0 172 156l80 211h-20q-24 0 -33 20l-334 885q-4 10 2.5 19.5t18.5 9.5h45q27 0 37 -29l309 -837l307 837q10 29 37 29h45q13 0 19.5 -9t1.5 -20l-441 -1159q-32 -85 -94 -136.5t-156 -51.5z" />
    <glyph glyph-name="Amacron" unicode="&#x100;" horiz-adv-x="1290" 
d="M850 1618h-410q-12 0 -21 9.5t-9 21.5v14q0 12 9 21.5t21 9.5h410q12 0 21.5 -9.5t9.5 -21.5v-14q0 -12 -9.5 -21.5t-21.5 -9.5zM319 522h646l-324 819zM287 442l-162 -413q-10 -29 -35 -29h-43q-12 0 -17.5 9t-0.5 20l551 1376q10 29 38 29h52q29 0 39 -29l553 -1376
q10 -29 -19 -29h-47q-27 0 -37 29l-164 413h-708z" />
    <glyph glyph-name="amacron" unicode="&#x101;" horiz-adv-x="1175" 
d="M760 1118h-410q-12 0 -21.5 9.5t-9.5 21.5v14q0 12 9.5 21.5t21.5 9.5h410q12 0 21.5 -9.5t9.5 -21.5v-14q0 -12 -9.5 -21.5t-21.5 -9.5zM174 465q0 -173 107.5 -290.5t273.5 -117.5t273.5 117.5t107.5 290.5q0 175 -107.5 293.5t-273.5 118.5t-273.5 -118.5
t-107.5 -293.5zM82 465q0 212 136.5 352.5t334.5 140.5q128 0 230.5 -63.5t150.5 -165.5v174q0 12 9.5 21.5t21.5 9.5h28q12 0 21.5 -9.5t9.5 -21.5v-872q0 -12 -9.5 -21.5t-21.5 -9.5h-28q-12 0 -21.5 9.5t-9.5 21.5v174q-51 -103 -152.5 -166.5t-228.5 -63.5
q-130 0 -237.5 62.5t-170.5 175t-63 252.5z" />
    <glyph glyph-name="Abreve" unicode="&#x102;" horiz-adv-x="1290" 
d="M645 1561q-95 0 -152 50t-57 136v10q0 23 23 23h33q22 0 22 -23v-4q0 -58 36.5 -88.5t94.5 -30.5t94.5 30.5t36.5 88.5v4q0 23 23 23h32q23 0 23 -23v-10q0 -86 -57 -136t-152 -50zM319 522h646l-324 819zM287 442l-162 -413q-10 -29 -35 -29h-43q-12 0 -17.5 9t-0.5 20
l551 1376q10 29 38 29h52q29 0 39 -29l553 -1376q10 -29 -19 -29h-47q-27 0 -37 29l-164 413h-708z" />
    <glyph glyph-name="abreve" unicode="&#x103;" horiz-adv-x="1175" 
d="M555 1061q-95 0 -152 50t-57 136v10q0 23 23 23h32q23 0 23 -23v-4q0 -58 36.5 -88t94.5 -30t94.5 30t36.5 88v4q0 23 23 23h32q23 0 23 -23v-10q0 -86 -57 -136t-152 -50zM174 465q0 -173 107.5 -290.5t273.5 -117.5t273.5 117.5t107.5 290.5q0 175 -107.5 293.5
t-273.5 118.5t-273.5 -118.5t-107.5 -293.5zM82 465q0 212 136.5 352.5t334.5 140.5q128 0 230.5 -63.5t150.5 -165.5v174q0 12 9.5 21.5t21.5 9.5h28q12 0 21.5 -9.5t9.5 -21.5v-872q0 -12 -9.5 -21.5t-21.5 -9.5h-28q-12 0 -21.5 9.5t-9.5 21.5v174
q-51 -103 -152.5 -166.5t-228.5 -63.5q-130 0 -237.5 62.5t-170.5 175t-63 252.5z" />
    <glyph glyph-name="Aogonek" unicode="&#x104;" horiz-adv-x="1290" 
d="M1184 -377q-72 0 -112 37.5t-40 99.5q0 60 46 127.5t104 116.5q-17 7 -23 25l-164 413h-708l-162 -413q-10 -29 -35 -29h-43q-12 0 -17.5 9t-0.5 20l551 1376q10 29 38 29h52q29 0 39 -29l553 -1376q4 -11 -0.5 -20t-12.5 -7q-51 -51 -91 -120.5t-40 -112.5q0 -78 84 -78
q33 0 60 8q10 4 17 -3t5 -18l-2 -20q0 -17 -33.5 -26t-64.5 -9zM319 522h646l-324 819z" />
    <glyph glyph-name="aogonek" unicode="&#x105;" horiz-adv-x="1175" 
d="M174 465q0 -173 107.5 -290.5t273.5 -117.5t273.5 117.5t107.5 290.5q0 175 -107.5 293.5t-273.5 118.5t-273.5 -118.5t-107.5 -293.5zM1042 -301l-2 -21q0 -17 -33.5 -25.5t-64.5 -8.5q-72 0 -111.5 37.5t-39.5 99.5t43.5 126t101.5 113l-2 11v174
q-51 -103 -152.5 -166.5t-228.5 -63.5q-130 0 -237.5 62.5t-170.5 175t-63 252.5q0 212 136.5 352.5t334.5 140.5q128 0 230.5 -63.5t150.5 -165.5v174q0 12 9.5 21.5t21.5 9.5h28q12 0 21.5 -9.5t9.5 -21.5v-872q0 -12 -9.5 -21.5t-21.5 -9.5h-6q-46 -55 -78 -113.5
t-32 -97.5q0 -78 84 -78q32 0 59 8q10 4 17 -2.5t5 -17.5z" />
    <glyph glyph-name="Cacute" unicode="&#x106;" horiz-adv-x="1536" 
d="M922 1884h53q11 0 15.5 -8t0.5 -18l-143 -261q-13 -26 -35 -26h-33q-25 0 -16 24l115 260q10 29 43 29zM807 -25q-147 0 -279 55.5t-228.5 152.5t-153 236t-56.5 298t56.5 297.5t153.5 235.5t228.5 152.5t278.5 55.5q227 0 410.5 -121.5t255.5 -328.5q4 -10 -2.5 -19.5
t-18.5 -9.5h-43q-23 0 -33 29q-74 178 -220.5 273t-348.5 95q-176 0 -319 -85.5t-223.5 -236.5t-80.5 -337t80.5 -337t223.5 -237t319 -86q202 0 348.5 95.5t220.5 273.5q10 29 33 29h43q12 0 18.5 -9.5t2.5 -19.5q-48 -138 -149.5 -241t-234.5 -156.5t-282 -53.5z" />
    <glyph glyph-name="cacute" unicode="&#x107;" horiz-adv-x="1046" 
d="M670 1384h53q11 0 15.5 -8t0.5 -18l-143 -260q-14 -27 -35 -27h-33q-25 0 -16 25l115 260q9 28 43 28zM971 225q-60 -118 -169.5 -184t-244.5 -66q-131 0 -239.5 63t-172 176t-63.5 253q0 105 37.5 196.5t101 156t151 101.5t185.5 37q135 0 244.5 -65.5t169.5 -183.5
q12 -29 -15 -41l-24 -11q-29 -10 -41 15q-49 95 -135 150t-199 55q-166 0 -274.5 -118.5t-108.5 -291.5t108.5 -291.5t274.5 -118.5q113 0 199 55t135 150q12 22 41 12l26 -10q25 -11 13 -39z" />
    <glyph glyph-name="Ccircumflex" unicode="&#x108;" horiz-adv-x="1536" 
d="M770 1884h18q28 0 48 -26l182 -261q6 -11 1.5 -18.5t-15.5 -7.5h-35q-25 0 -39 20l-152 203l-151 -203q-17 -20 -39 -20h-35q-12 0 -16.5 7.5t2.5 18.5l182 261q8 15 17.5 20.5t31.5 5.5zM807 -25q-147 0 -279 55.5t-228.5 152.5t-153 236t-56.5 298t56.5 297.5
t153.5 235.5t228.5 152.5t278.5 55.5q227 0 410.5 -121.5t255.5 -328.5q4 -10 -2.5 -19.5t-18.5 -9.5h-43q-23 0 -33 29q-74 178 -220.5 273t-348.5 95q-176 0 -319 -85.5t-223.5 -236.5t-80.5 -337t80.5 -337t223.5 -237t319 -86q202 0 348.5 95.5t220.5 273.5q10 29 33 29
h43q12 0 18.5 -9.5t2.5 -19.5q-48 -138 -149.5 -241t-234.5 -156.5t-282 -53.5z" />
    <glyph glyph-name="ccircumflex" unicode="&#x109;" horiz-adv-x="1046" 
d="M518 1384h19q18 0 26.5 -5.5t20.5 -20.5l182 -260q6 -10 1.5 -18.5t-15.5 -8.5h-35q-24 0 -39 21l-152 202l-151 -202q-18 -21 -39 -21h-35q-12 0 -16.5 8.5t2.5 18.5l182 260q8 15 17.5 20.5t31.5 5.5zM971 225q-60 -118 -169.5 -184t-244.5 -66q-131 0 -239.5 63
t-172 176t-63.5 253q0 105 37.5 196.5t101 156t151 101.5t185.5 37q135 0 244.5 -65.5t169.5 -183.5q12 -29 -15 -41l-24 -11q-29 -10 -41 15q-49 95 -135 150t-199 55q-166 0 -274.5 -118.5t-108.5 -291.5t108.5 -291.5t274.5 -118.5q113 0 199 55t135 150q12 22 41 12
l26 -10q25 -11 13 -39z" />
    <glyph glyph-name="Cdotaccent" unicode="&#x10a;" horiz-adv-x="1536" 
d="M778 1597q-39 0 -66.5 28t-27.5 69q0 38 28 66t66 28t66 -28t28 -66q0 -41 -27.5 -69t-66.5 -28zM807 -25q-147 0 -279 55.5t-228.5 152.5t-153 236t-56.5 298t56.5 297.5t153.5 235.5t228.5 152.5t278.5 55.5q227 0 410.5 -121.5t255.5 -328.5q4 -10 -2.5 -19.5
t-18.5 -9.5h-43q-23 0 -33 29q-74 178 -220.5 273t-348.5 95q-176 0 -319 -85.5t-223.5 -236.5t-80.5 -337t80.5 -337t223.5 -237t319 -86q202 0 348.5 95.5t220.5 273.5q10 29 33 29h43q12 0 18.5 -9.5t2.5 -19.5q-48 -138 -149.5 -241t-234.5 -156.5t-282 -53.5z" />
    <glyph glyph-name="cdotaccent" unicode="&#x10b;" horiz-adv-x="1046" 
d="M526 1098q-39 0 -66.5 27.5t-27.5 68.5q0 38 28 66t66 28t66.5 -28t28.5 -66q0 -41 -28 -68.5t-67 -27.5zM971 225q-60 -118 -169.5 -184t-244.5 -66q-131 0 -239.5 63t-172 176t-63.5 253q0 105 37.5 196.5t101 156t151 101.5t185.5 37q135 0 244.5 -65.5t169.5 -183.5
q12 -29 -15 -41l-24 -11q-29 -10 -41 15q-49 95 -135 150t-199 55q-166 0 -274.5 -118.5t-108.5 -291.5t108.5 -291.5t274.5 -118.5q113 0 199 55t135 150q12 22 41 12l26 -10q25 -11 13 -39z" />
    <glyph glyph-name="Ccaron" unicode="&#x10c;" horiz-adv-x="1536" 
d="M788 1571h-18q-22 0 -31.5 5.5t-17.5 20.5l-182 261q-7 10 -2.5 18t16.5 8h35q22 0 39 -20l151 -203l152 203q14 20 39 20h35q11 0 15.5 -8t-1.5 -18l-182 -261q-20 -26 -48 -26zM807 -25q-147 0 -279 55.5t-228.5 152.5t-153 236t-56.5 298t56.5 297.5t153.5 235.5
t228.5 152.5t278.5 55.5q227 0 410.5 -121.5t255.5 -328.5q4 -10 -2.5 -19.5t-18.5 -9.5h-43q-23 0 -33 29q-74 178 -220.5 273t-348.5 95q-176 0 -319 -85.5t-223.5 -236.5t-80.5 -337t80.5 -337t223.5 -237t319 -86q202 0 348.5 95.5t220.5 273.5q10 29 33 29h43
q12 0 18.5 -9.5t2.5 -19.5q-48 -138 -149.5 -241t-234.5 -156.5t-282 -53.5z" />
    <glyph glyph-name="ccaron" unicode="&#x10d;" horiz-adv-x="1046" 
d="M537 1071h-19q-22 0 -31.5 6t-17.5 21l-182 260q-7 10 -2.5 18t16.5 8h35q22 0 39 -20l151 -203l152 203q14 20 39 20h35q11 0 15.5 -8t-1.5 -18l-182 -260q-12 -15 -21 -21t-26 -6zM971 225q-60 -118 -169.5 -184t-244.5 -66q-131 0 -239.5 63t-172 176t-63.5 253
q0 105 37.5 196.5t101 156t151 101.5t185.5 37q135 0 244.5 -65.5t169.5 -183.5q12 -29 -15 -41l-24 -11q-29 -10 -41 15q-49 95 -135 150t-199 55q-166 0 -274.5 -118.5t-108.5 -291.5t108.5 -291.5t274.5 -118.5q113 0 199 55t135 150q12 22 41 12l26 -10q25 -11 13 -39z
" />
    <glyph glyph-name="Dcaron" unicode="&#x10e;" horiz-adv-x="1488" 
d="M760 1571h-19q-22 0 -31.5 5.5t-17.5 20.5l-182 261q-7 10 -2.5 18t16.5 8h35q22 0 39 -20l152 -203l151 203q14 20 39 20h35q11 0 15.5 -8t-1.5 -18l-182 -261q-12 -15 -20.5 -20.5t-26.5 -5.5zM227 1434h394q188 0 336 -53t243.5 -149t145 -226.5t49.5 -288.5
t-49.5 -288.5t-145 -226.5t-243.5 -149t-336 -53h-394q-12 0 -21 9.5t-9 21.5v1372q0 12 9 21.5t21 9.5zM289 82h340q308 0 489.5 165t181.5 470t-181.5 470t-489.5 165h-340v-1270z" />
    <glyph glyph-name="dcaron" unicode="&#x10f;" horiz-adv-x="1202" 
d="M1155 1081l72 150q-35 11 -56.5 38t-21.5 62q0 44 29.5 73.5t72.5 29.5q42 0 72.5 -31.5t30.5 -75.5q0 -16 -4 -34t-9 -32.5t-16 -36t-17 -33t-21 -34.5t-19.5 -30t-21 -30t-17.5 -24q-1 -2 -4.5 -5.5l-5 -5t-4 -4.5t-4 -4.5t-4 -3t-4.5 -2.5t-4.5 -1t-5 0.5t-5.5 1.5
l-17 8q-19 8 -16 24zM174 465q0 -173 107.5 -290.5t273.5 -117.5t273.5 117.5t107.5 290.5q0 175 -107.5 293.5t-273.5 118.5t-273.5 -118.5t-107.5 -293.5zM82 465q0 212 136.5 352.5t334.5 140.5q128 0 230.5 -63.5t150.5 -165.5v674q0 12 9.5 21.5t21.5 9.5h28
q12 0 21.5 -9.5t9.5 -21.5v-1372q0 -12 -9.5 -21.5t-21.5 -9.5h-28q-12 0 -21.5 9.5t-9.5 21.5v174q-51 -103 -152.5 -166.5t-228.5 -63.5q-130 0 -237.5 62.5t-170.5 175t-63 252.5z" />
    <glyph glyph-name="Dcroat" unicode="&#x110;" horiz-adv-x="1503" 
d="M635 0h-393q-12 0 -21.5 9.5t-9.5 21.5v657h-180q-12 0 -21.5 9.5t-9.5 21.5v20q0 12 9.5 21.5t21.5 9.5h180v633q0 12 9.5 21.5t21.5 9.5h393q188 0 336 -53t243.5 -149t145 -226.5t49.5 -288.5t-49.5 -288.5t-145 -226.5t-243.5 -149t-336 -53zM303 82h340
q308 0 490 165t182 470t-182 470t-490 165h-340v-582h465q12 0 21.5 -9.5t9.5 -21.5v-20q0 -12 -9.5 -21.5t-21.5 -9.5h-465v-606z" />
    <glyph glyph-name="dslash" unicode="&#x111;" horiz-adv-x="1177" 
d="M174 465q0 -173 107.5 -290.5t273.5 -117.5t273.5 117.5t107.5 290.5q0 175 -107.5 293.5t-273.5 118.5t-273.5 -118.5t-107.5 -293.5zM934 31v174q-51 -103 -152.5 -166.5t-228.5 -63.5q-130 0 -237.5 62.5t-170.5 175t-63 252.5q0 212 136.5 352.5t334.5 140.5
q128 0 230.5 -63.5t150.5 -165.5v393h-309q-12 0 -21.5 9.5t-9.5 21.5v16q0 12 9.5 21.5t21.5 9.5h309v203q0 12 9.5 21.5t21.5 9.5h28q12 0 21.5 -9.5t9.5 -21.5v-203h133q12 0 21.5 -9.5t9.5 -21.5v-16q0 -12 -9.5 -21.5t-21.5 -9.5h-133v-1091q0 -12 -9.5 -21.5
t-21.5 -9.5h-28q-12 0 -21.5 9.5t-9.5 21.5z" />
    <glyph glyph-name="Emacron" unicode="&#x112;" horiz-adv-x="1234" 
d="M870 1618h-409q-12 0 -21.5 9.5t-9.5 21.5v14q0 12 9.5 21.5t21.5 9.5h409q12 0 21.5 -9.5t9.5 -21.5v-14q0 -12 -9.5 -21.5t-21.5 -9.5zM227 1434h916q12 0 21.5 -9.5t9.5 -21.5v-25q0 -12 -9.5 -21t-21.5 -9h-854v-578h436q12 0 21.5 -9.5t9.5 -21.5v-20
q0 -12 -9.5 -21.5t-21.5 -9.5h-436v-602h854q12 0 21.5 -9.5t9.5 -21.5v-24q0 -12 -9.5 -21.5t-21.5 -9.5h-916q-12 0 -21 9.5t-9 21.5v1372q0 12 9 21.5t21 9.5z" />
    <glyph glyph-name="emacron" unicode="&#x113;" horiz-adv-x="1087" 
d="M750 1118h-410q-12 0 -21.5 9.5t-9.5 21.5v14q0 12 9.5 21.5t21.5 9.5h410q12 0 21 -9.5t9 -21.5v-14q0 -12 -9 -21.5t-21 -9.5zM555 958q95 0 180 -33t148.5 -93t101 -150t37.5 -197v-16q0 -12 -8.5 -21.5t-20.5 -9.5h-819q12 -167 119.5 -274t271.5 -107q200 0 318 150
q26 26 47 10l18 -12q29 -19 13 -41q-62 -89 -167 -139t-233 -50q-207 0 -343 138.5t-136 351.5q0 135 61 247.5t170 179t242 66.5zM176 516h756q-13 165 -116.5 263t-262.5 98q-156 0 -257.5 -102t-119.5 -259z" />
    <glyph glyph-name="Ebreve" unicode="&#x114;" horiz-adv-x="1234" 
d="M666 1561q-95 0 -152 50t-57 136v10q0 23 22 23h33q23 0 23 -23v-4q0 -58 36.5 -88.5t94.5 -30.5t94.5 30.5t36.5 88.5v4q0 23 22 23h33q22 0 22 -23v-10q0 -86 -57 -136t-151 -50zM227 1434h916q12 0 21.5 -9.5t9.5 -21.5v-25q0 -12 -9.5 -21t-21.5 -9h-854v-578h436
q12 0 21.5 -9.5t9.5 -21.5v-20q0 -12 -9.5 -21.5t-21.5 -9.5h-436v-602h854q12 0 21.5 -9.5t9.5 -21.5v-24q0 -12 -9.5 -21.5t-21.5 -9.5h-916q-12 0 -21 9.5t-9 21.5v1372q0 12 9 21.5t21 9.5z" />
    <glyph glyph-name="ebreve" unicode="&#x115;" horiz-adv-x="1087" 
d="M545 1061q-95 0 -152 50t-57 136v10q0 23 22 23h33q23 0 23 -23v-4q0 -58 36.5 -88t94.5 -30t94.5 30t36.5 88v4q0 23 22 23h33q23 0 23 -23v-10q0 -86 -57 -136t-152 -50zM555 958q95 0 180 -33t148.5 -93t101 -150t37.5 -197v-16q0 -12 -8.5 -21.5t-20.5 -9.5h-819
q12 -167 119.5 -274t271.5 -107q200 0 318 150q26 26 47 10l18 -12q29 -19 13 -41q-62 -89 -167 -139t-233 -50q-207 0 -343 138.5t-136 351.5q0 135 61 247.5t170 179t242 66.5zM176 516h756q-13 165 -116.5 263t-262.5 98q-156 0 -257.5 -102t-119.5 -259z" />
    <glyph glyph-name="Edotaccent" unicode="&#x116;" horiz-adv-x="1234" 
d="M666 1597q-39 0 -67 28t-28 69q0 38 28.5 66t66.5 28t66 -28t28 -66q0 -41 -27.5 -69t-66.5 -28zM227 1434h916q12 0 21.5 -9.5t9.5 -21.5v-25q0 -12 -9.5 -21t-21.5 -9h-854v-578h436q12 0 21.5 -9.5t9.5 -21.5v-20q0 -12 -9.5 -21.5t-21.5 -9.5h-436v-602h854
q12 0 21.5 -9.5t9.5 -21.5v-24q0 -12 -9.5 -21.5t-21.5 -9.5h-916q-12 0 -21 9.5t-9 21.5v1372q0 12 9 21.5t21 9.5z" />
    <glyph glyph-name="edotaccent" unicode="&#x117;" horiz-adv-x="1087" 
d="M545 1098q-39 0 -66.5 27.5t-27.5 68.5q0 38 28 66t66 28t66 -28t28 -66q0 -41 -27.5 -68.5t-66.5 -27.5zM555 958q95 0 180 -33t148.5 -93t101 -150t37.5 -197v-16q0 -12 -8.5 -21.5t-20.5 -9.5h-819q12 -167 119.5 -274t271.5 -107q200 0 318 150q26 26 47 10l18 -12
q29 -19 13 -41q-62 -89 -167 -139t-233 -50q-207 0 -343 138.5t-136 351.5q0 135 61 247.5t170 179t242 66.5zM176 516h756q-13 165 -116.5 263t-262.5 98q-156 0 -257.5 -102t-119.5 -259z" />
    <glyph glyph-name="Eogonek" unicode="&#x118;" horiz-adv-x="1234" 
d="M1075 -322l-2 -20q0 -17 -33.5 -26t-64.5 -9q-72 0 -112 37.5t-40 99.5t43.5 126.5t102.5 113.5h-742q-12 0 -21 9.5t-9 21.5v1372q0 12 9 21.5t21 9.5h916q12 0 21.5 -9.5t9.5 -21.5v-25q0 -12 -9.5 -21t-21.5 -9h-854v-578h436q12 0 21.5 -9.5t9.5 -21.5v-20
q0 -12 -9.5 -21.5t-21.5 -9.5h-436v-602h854q12 0 21.5 -9.5t9.5 -21.5v-24q0 -12 -9.5 -21.5t-21.5 -9.5h-105q-49 -49 -89 -118.5t-40 -112.5q0 -78 84 -78q33 0 60 8q10 4 17 -3t5 -18z" />
    <glyph glyph-name="eogonek" unicode="&#x119;" horiz-adv-x="1087" 
d="M670 -336q-72 0 -112 37.5t-40 99.5q0 80 82 176q-14 -2 -39 -2q-207 0 -343 138.5t-136 351.5q0 135 61 247.5t170 179t242 66.5q95 0 180 -33t148.5 -93t101 -150t37.5 -197v-16q0 -12 -8.5 -21.5t-20.5 -9.5h-819q12 -167 119.5 -274t271.5 -107q200 0 318 150
q26 26 47 10l18 -12q29 -19 13 -41q-96 -134 -271 -174q-86 -115 -86 -180q0 -78 84 -78q33 0 60 8q10 4 17 -3t5 -18l-2 -20q0 -17 -33.5 -26t-64.5 -9zM176 516h756q-13 165 -116.5 263t-262.5 98q-156 0 -257.5 -102t-119.5 -259z" />
    <glyph glyph-name="Ecaron" unicode="&#x11a;" horiz-adv-x="1234" 
d="M676 1571h-19q-22 0 -31.5 5.5t-17.5 20.5l-182 261q-7 10 -2.5 18t16.5 8h35q22 0 39 -20l152 -203l151 203q14 20 39 20h35q11 0 15.5 -8t-1.5 -18l-182 -261q-12 -15 -20.5 -20.5t-26.5 -5.5zM227 1434h916q12 0 21.5 -9.5t9.5 -21.5v-25q0 -12 -9.5 -21t-21.5 -9
h-854v-578h436q12 0 21.5 -9.5t9.5 -21.5v-20q0 -12 -9.5 -21.5t-21.5 -9.5h-436v-602h854q12 0 21.5 -9.5t9.5 -21.5v-24q0 -12 -9.5 -21.5t-21.5 -9.5h-916q-12 0 -21 9.5t-9 21.5v1372q0 12 9 21.5t21 9.5z" />
    <glyph glyph-name="ecaron" unicode="&#x11b;" horiz-adv-x="1087" 
d="M555 1071h-18q-22 0 -32 6t-18 21l-182 260q-7 10 -2.5 18t16.5 8h35q22 0 39 -20l152 -203l151 203q14 20 39 20h35q11 0 15.5 -8t-1.5 -18l-182 -260q-12 -15 -21 -21t-26 -6zM555 958q95 0 180 -33t148.5 -93t101 -150t37.5 -197v-16q0 -12 -8.5 -21.5t-20.5 -9.5
h-819q12 -167 119.5 -274t271.5 -107q200 0 318 150q26 26 47 10l18 -12q29 -19 13 -41q-62 -89 -167 -139t-233 -50q-207 0 -343 138.5t-136 351.5q0 135 61 247.5t170 179t242 66.5zM176 516h756q-13 165 -116.5 263t-262.5 98q-156 0 -257.5 -102t-119.5 -259z" />
    <glyph glyph-name="Gcircumflex" unicode="&#x11c;" horiz-adv-x="1583" 
d="M797 1884h18q18 0 26.5 -5.5t20.5 -20.5l182 -261q6 -11 1.5 -18.5t-15.5 -7.5h-35q-25 0 -39 20l-151 203l-152 -203q-17 -20 -39 -20h-34q-12 0 -17 7.5t2 18.5l183 261q8 15 17.5 20.5t31.5 5.5zM811 1458q227 0 410.5 -121.5t255.5 -328.5q4 -10 -2.5 -19.5
t-18.5 -9.5h-43q-23 0 -33 29q-74 178 -220.5 273t-348.5 95q-177 0 -321 -86t-225 -237t-81 -336q0 -186 79 -337t221 -237t319 -86q129 0 238.5 44.5t179 115.5t109.5 155t42 167h-510q-12 0 -21.5 9t-9.5 21v19q0 12 9.5 21t21.5 9h570q12 0 21 -9t9 -21v-557
q0 -12 -9 -21.5t-21 -9.5h-25q-12 0 -21.5 9.5t-9.5 21.5v295q-12 -43 -42 -89t-81 -93.5t-116 -84.5t-155 -60.5t-189 -23.5q-146 0 -276 55.5t-224 153t-148.5 236t-54.5 297.5q0 158 57.5 297t155.5 236t230 152.5t278 55.5z" />
    <glyph glyph-name="gcircumflex" unicode="&#x11d;" horiz-adv-x="1175" 
d="M543 1384h18q18 0 26.5 -5.5t20.5 -20.5l183 -260q6 -10 1 -18.5t-16 -8.5h-35q-24 0 -39 21l-151 202l-152 -202q-18 -21 -39 -21h-34q-12 0 -17 8.5t2 18.5l183 260q8 15 17.5 20.5t31.5 5.5zM172 467q0 -175 107.5 -293.5t273.5 -118.5t273.5 118.5t107.5 293.5
q0 174 -108 292t-273 118t-273 -118t-108 -292zM557 -367q183 0 280 99.5t97 263.5v207q-51 -103 -152.5 -166.5t-228.5 -63.5q-202 0 -336.5 140t-134.5 354q0 140 63 253t170.5 175.5t237.5 62.5q127 0 229.5 -64t151.5 -167v174q0 12 9.5 21.5t21.5 9.5h28
q12 0 21.5 -9.5t9.5 -21.5v-911q0 -195 -123 -313.5t-344 -118.5q-186 0 -303.5 86.5t-149.5 214.5q-6 25 23 35l27 6q26 6 36 -23q37 -107 126 -175.5t241 -68.5z" />
    <glyph glyph-name="Gbreve" unicode="&#x11e;" horiz-adv-x="1583" 
d="M805 1561q-95 0 -152 50t-57 136v10q0 23 22 23h33q23 0 23 -23v-4q0 -58 36.5 -88.5t94.5 -30.5t94.5 30.5t36.5 88.5v4q0 23 22 23h33q23 0 23 -23v-10q0 -86 -57 -136t-152 -50zM811 1458q227 0 410.5 -121.5t255.5 -328.5q4 -10 -2.5 -19.5t-18.5 -9.5h-43
q-23 0 -33 29q-74 178 -220.5 273t-348.5 95q-177 0 -321 -86t-225 -237t-81 -336q0 -186 79 -337t221 -237t319 -86q129 0 238.5 44.5t179 115.5t109.5 155t42 167h-510q-12 0 -21.5 9t-9.5 21v19q0 12 9.5 21t21.5 9h570q12 0 21 -9t9 -21v-557q0 -12 -9 -21.5t-21 -9.5
h-25q-12 0 -21.5 9.5t-9.5 21.5v295q-12 -43 -42 -89t-81 -93.5t-116 -84.5t-155 -60.5t-189 -23.5q-146 0 -276 55.5t-224 153t-148.5 236t-54.5 297.5q0 158 57.5 297t155.5 236t230 152.5t278 55.5z" />
    <glyph glyph-name="gbreve" unicode="&#x11f;" horiz-adv-x="1175" 
d="M551 1061q-95 0 -152 50t-57 136v10q0 23 23 23h32q23 0 23 -23v-4q0 -58 36.5 -88t94.5 -30t94.5 30t36.5 88v4q0 23 23 23h32q23 0 23 -23v-10q0 -86 -57 -136t-152 -50zM172 467q0 -175 107.5 -293.5t273.5 -118.5t273.5 118.5t107.5 293.5q0 174 -108 292t-273 118
t-273 -118t-108 -292zM557 -367q183 0 280 99.5t97 263.5v207q-51 -103 -152.5 -166.5t-228.5 -63.5q-202 0 -336.5 140t-134.5 354q0 140 63 253t170.5 175.5t237.5 62.5q127 0 229.5 -64t151.5 -167v174q0 12 9.5 21.5t21.5 9.5h28q12 0 21.5 -9.5t9.5 -21.5v-911
q0 -195 -123 -313.5t-344 -118.5q-186 0 -303.5 86.5t-149.5 214.5q-6 25 23 35l27 6q26 6 36 -23q37 -107 126 -175.5t241 -68.5z" />
    <glyph glyph-name="Gdotaccent" unicode="&#x120;" horiz-adv-x="1583" 
d="M805 1597q-39 0 -66.5 28t-27.5 69q0 38 28 66t66 28t66 -28t28 -66q0 -41 -27.5 -69t-66.5 -28zM811 1458q227 0 410.5 -121.5t255.5 -328.5q4 -10 -2.5 -19.5t-18.5 -9.5h-43q-23 0 -33 29q-74 178 -220.5 273t-348.5 95q-177 0 -321 -86t-225 -237t-81 -336
q0 -186 79 -337t221 -237t319 -86q129 0 238.5 44.5t179 115.5t109.5 155t42 167h-510q-12 0 -21.5 9t-9.5 21v19q0 12 9.5 21t21.5 9h570q12 0 21 -9t9 -21v-557q0 -12 -9 -21.5t-21 -9.5h-25q-12 0 -21.5 9.5t-9.5 21.5v295q-12 -43 -42 -89t-81 -93.5t-116 -84.5
t-155 -60.5t-189 -23.5q-146 0 -276 55.5t-224 153t-148.5 236t-54.5 297.5q0 158 57.5 297t155.5 236t230 152.5t278 55.5z" />
    <glyph glyph-name="gdotaccent" unicode="&#x121;" horiz-adv-x="1175" 
d="M553 1098q-39 0 -66.5 27.5t-27.5 68.5q0 38 28 66t66 28t66 -28t28 -66q0 -41 -27.5 -68.5t-66.5 -27.5zM172 467q0 -175 107.5 -293.5t273.5 -118.5t273.5 118.5t107.5 293.5q0 174 -108 292t-273 118t-273 -118t-108 -292zM557 -367q183 0 280 99.5t97 263.5v207
q-51 -103 -152.5 -166.5t-228.5 -63.5q-202 0 -336.5 140t-134.5 354q0 140 63 253t170.5 175.5t237.5 62.5q127 0 229.5 -64t151.5 -167v174q0 12 9.5 21.5t21.5 9.5h28q12 0 21.5 -9.5t9.5 -21.5v-911q0 -195 -123 -313.5t-344 -118.5q-186 0 -303.5 86.5t-149.5 214.5
q-6 25 23 35l27 6q26 6 36 -23q37 -107 126 -175.5t241 -68.5z" />
    <glyph glyph-name="Gcommaaccent" unicode="&#x122;" horiz-adv-x="1583" 
d="M811 1458q227 0 410.5 -121.5t255.5 -328.5q4 -10 -2.5 -19.5t-18.5 -9.5h-43q-23 0 -33 29q-74 178 -220.5 273t-348.5 95q-177 0 -321 -86t-225 -237t-81 -336q0 -186 79 -337t221 -237t319 -86q129 0 238.5 44.5t179 115.5t109.5 155t42 167h-510q-12 0 -21.5 9
t-9.5 21v19q0 12 9.5 21t21.5 9h570q12 0 21 -9t9 -21v-557q0 -12 -9 -21.5t-21 -9.5h-25q-12 0 -21.5 9.5t-9.5 21.5v295q-12 -43 -42 -89t-81 -93.5t-116 -84.5t-155 -60.5t-189 -23.5q-146 0 -276 55.5t-224 153t-148.5 236t-54.5 297.5q0 158 57.5 297t155.5 236
t230 152.5t278 55.5zM709 -455l71 150q-35 11 -56.5 38t-21.5 62q0 44 30 73.5t73 29.5q41 0 71.5 -31.5t30.5 -75.5q0 -16 -4 -34t-9 -32.5t-16 -36t-17 -33t-21 -34.5t-19.5 -30t-21 -30t-17.5 -24q-1 -2 -4.5 -5.5l-5 -5t-4 -4.5t-4 -4.5t-4 -3t-4.5 -2.5t-4.5 -1t-5 0.5
t-5.5 1.5l-16 8q-19 8 -16 24z" />
    <glyph glyph-name="gcommaaccent" unicode="&#x123;" horiz-adv-x="1175" 
d="M678 1481l-78 -166q38 -11 62 -41t24 -70q0 -49 -33.5 -81.5t-81.5 -32.5q-47 0 -79.5 34t-32.5 84q0 98 137 283q9 12 14 17t15.5 11t17.5 -1l16 -9q25 -14 19 -28zM172 467q0 -175 107.5 -293.5t273.5 -118.5t273.5 118.5t107.5 293.5q0 174 -108 292t-273 118
t-273 -118t-108 -292zM557 -367q183 0 280 99.5t97 263.5v207q-51 -103 -152.5 -166.5t-228.5 -63.5q-202 0 -336.5 140t-134.5 354q0 140 63 253t170.5 175.5t237.5 62.5q127 0 229.5 -64t151.5 -167v174q0 12 9.5 21.5t21.5 9.5h28q12 0 21.5 -9.5t9.5 -21.5v-911
q0 -195 -123 -313.5t-344 -118.5q-186 0 -303.5 86.5t-149.5 214.5q-6 25 23 35l27 6q26 6 36 -23q37 -107 126 -175.5t241 -68.5z" />
    <glyph glyph-name="Hcircumflex" unicode="&#x124;" horiz-adv-x="1548" 
d="M766 1884h18q18 0 26.5 -5.5t20.5 -20.5l183 -261q6 -11 1 -18.5t-16 -7.5h-34q-25 0 -39 20l-152 203l-151 -203q-17 -20 -39 -20h-35q-12 0 -16.5 7.5t2.5 18.5l182 261q8 15 17.5 20.5t31.5 5.5zM1352 1403v-1372q0 -12 -9.5 -21.5t-21.5 -9.5h-31q-12 0 -21 9.5
t-9 21.5v659h-971v-659q0 -12 -9.5 -21.5t-21.5 -9.5h-31q-12 0 -21 9.5t-9 21.5v1372q0 12 9 21.5t21 9.5h31q12 0 21.5 -9.5t9.5 -21.5v-631h971v631q0 12 9 21.5t21 9.5h31q12 0 21.5 -9.5t9.5 -21.5z" />
    <glyph glyph-name="hcircumflex" unicode="&#x125;" horiz-adv-x="1142" 
d="M563 1884h19q18 0 26.5 -5.5t20.5 -20.5l182 -261q6 -11 1.5 -18.5t-15.5 -7.5h-35q-25 0 -39 20l-152 203l-151 -203q-17 -20 -39 -20h-35q-12 0 -16.5 7.5t2.5 18.5l182 261q8 15 17.5 20.5t31.5 5.5zM915 31v504q0 163 -83.5 253.5t-241.5 90.5t-252 -95.5t-94 -248.5
v-504q0 -12 -9.5 -21.5t-21.5 -9.5h-29q-12 0 -21 9.5t-9 21.5v1372q0 12 9 21.5t21 9.5h29q12 0 21.5 -9.5t9.5 -21.5v-655q42 96 136.5 153t221.5 57q187 0 295.5 -111t108.5 -296v-520q0 -12 -9.5 -21.5t-21.5 -9.5h-29q-12 0 -21.5 9.5t-9.5 21.5z" />
    <glyph glyph-name="Hbar" unicode="&#x126;" horiz-adv-x="1548" 
d="M289 772h971v287h-971v-287zM289 690v-659q0 -12 -9.5 -21.5t-21.5 -9.5h-31q-12 0 -21 9.5t-9 21.5v1028h-123q-12 0 -21.5 9.5t-9.5 21.5v20q0 12 9.5 21.5t21.5 9.5h123v262q0 12 9 21.5t21 9.5h31q12 0 21.5 -9.5t9.5 -21.5v-262h971v262q0 12 9 21.5t21 9.5h31
q12 0 21.5 -9.5t9.5 -21.5v-262h123q12 0 21 -9.5t9 -21.5v-20q0 -12 -9 -21.5t-21 -9.5h-123v-1028q0 -12 -9.5 -21.5t-21.5 -9.5h-31q-12 0 -21 9.5t-9 21.5v659h-971z" />
    <glyph glyph-name="hbar" unicode="&#x127;" horiz-adv-x="1142" 
d="M244 535v-504q0 -12 -9.5 -21.5t-21.5 -9.5h-29q-12 0 -21 9.5t-9 21.5v1091h-127q-12 0 -21.5 9.5t-9.5 21.5v16q0 12 9.5 21.5t21.5 9.5h127v203q0 12 9 21.5t21 9.5h29q12 0 21.5 -9.5t9.5 -21.5v-203h315q12 0 21.5 -9.5t9.5 -21.5v-16q0 -12 -9.5 -21.5t-21.5 -9.5
h-315v-374q42 96 136.5 153t221.5 57q187 0 295.5 -111t108.5 -296v-520q0 -12 -9.5 -21.5t-21.5 -9.5h-29q-12 0 -21.5 9.5t-9.5 21.5v504q0 163 -83.5 253.5t-241.5 90.5t-252 -95.5t-94 -248.5z" />
    <glyph glyph-name="Itilde" unicode="&#x128;" horiz-adv-x="485" 
d="M360 1602q-38 0 -128 35.5t-109 35.5q-21 0 -34 -9.5t-30 -39.5q-16 -29 -41 -16l-14 6q-11 5 -15.5 16t-0.5 21q43 104 137 104q38 0 128 -36t109 -36q21 0 34 10t30 40q16 29 41 16l14 -6q11 -5 16 -16t1 -21q-43 -104 -138 -104zM258 0h-31q-12 0 -21 9.5t-9 21.5
v1372q0 12 9 21.5t21 9.5h31q12 0 21.5 -9.5t9.5 -21.5v-1372q0 -12 -9.5 -21.5t-21.5 -9.5z" />
    <glyph glyph-name="itilde" unicode="&#x129;" horiz-adv-x="393" 
d="M303 1102q-38 0 -128 36t-109 36q-21 0 -34 -10t-30 -40q-16 -29 -41 -16l-14 6q-11 5 -16 16t-1 21q43 104 138 104q38 0 128 -35.5t109 -35.5q21 0 34 9.5t30 39.5q16 29 41 16l14 -6q11 -5 15.5 -16t0.5 -21q-43 -104 -137 -104zM211 0h-29q-12 0 -21 9.5t-9 21.5v872
q0 12 9 21.5t21 9.5h29q12 0 21.5 -9.5t9.5 -21.5v-872q0 -12 -9.5 -21.5t-21.5 -9.5z" />
    <glyph glyph-name="Imacron" unicode="&#x12a;" horiz-adv-x="485" 
d="M446 1618h-409q-12 0 -21.5 9.5t-9.5 21.5v14q0 12 9.5 21.5t21.5 9.5h409q12 0 21.5 -9.5t9.5 -21.5v-14q0 -12 -9.5 -21.5t-21.5 -9.5zM258 0h-31q-12 0 -21 9.5t-9 21.5v1372q0 12 9 21.5t21 9.5h31q12 0 21.5 -9.5t9.5 -21.5v-1372q0 -12 -9.5 -21.5t-21.5 -9.5z" />
    <glyph glyph-name="imacron" unicode="&#x12b;" horiz-adv-x="393" 
d="M401 1118h-409q-12 0 -21.5 9.5t-9.5 21.5v14q0 12 9.5 21.5t21.5 9.5h409q12 0 21.5 -9.5t9.5 -21.5v-14q0 -12 -9.5 -21.5t-21.5 -9.5zM211 0h-29q-12 0 -21 9.5t-9 21.5v872q0 12 9 21.5t21 9.5h29q12 0 21.5 -9.5t9.5 -21.5v-872q0 -12 -9.5 -21.5t-21.5 -9.5z" />
    <glyph glyph-name="Ibreve" unicode="&#x12c;" horiz-adv-x="485" 
d="M242 1561q-95 0 -152 50t-57 136v10q0 23 22 23h33q23 0 23 -23v-4q0 -58 36.5 -88.5t94.5 -30.5t94.5 30.5t36.5 88.5v4q0 23 22 23h33q23 0 23 -23v-10q0 -86 -57 -136t-152 -50zM258 0h-31q-12 0 -21 9.5t-9 21.5v1372q0 12 9 21.5t21 9.5h31q12 0 21.5 -9.5
t9.5 -21.5v-1372q0 -12 -9.5 -21.5t-21.5 -9.5z" />
    <glyph glyph-name="ibreve" unicode="&#x12d;" horiz-adv-x="393" 
d="M197 1061q-95 0 -152 50t-57 136v10q0 23 22 23h33q23 0 23 -23v-4q0 -58 36.5 -88t94.5 -30t94.5 30t36.5 88v4q0 23 22 23h33q23 0 23 -23v-10q0 -86 -57 -136t-152 -50zM211 0h-29q-12 0 -21 9.5t-9 21.5v872q0 12 9 21.5t21 9.5h29q12 0 21.5 -9.5t9.5 -21.5v-872
q0 -12 -9.5 -21.5t-21.5 -9.5z" />
    <glyph glyph-name="Iogonek" unicode="&#x12e;" horiz-adv-x="485" 
d="M203 -377q-72 0 -112 37.5t-40 99.5q0 64 47 130.5t109 117.5q-10 10 -10 23v1372q0 12 9 21.5t21 9.5h31q12 0 21.5 -9.5t9.5 -21.5v-1372q0 -11 -8 -21t-13 -8q-51 -51 -91 -120.5t-40 -112.5q0 -78 84 -78q33 0 60 8q10 4 17 -3t5 -18l-2 -20q0 -17 -33.5 -26
t-64.5 -9z" />
    <glyph glyph-name="iogonek" unicode="&#x12f;" horiz-adv-x="393" 
d="M197 1184q-39 0 -67 27.5t-28 68.5q0 38 28.5 66t66.5 28t66 -28t28 -66q0 -41 -27.5 -68.5t-66.5 -27.5zM156 -377q-72 0 -112 37.5t-40 99.5q0 64 48 133t108 117q-8 8 -8 21v872q0 12 9 21.5t21 9.5h29q12 0 21.5 -9.5t9.5 -21.5v-872q0 -11 -8 -21t-13 -8
q-51 -51 -91 -120.5t-40 -112.5q0 -78 84 -78q32 0 59 8q10 4 17.5 -3t5.5 -18l-2 -20q0 -17 -33.5 -26t-64.5 -9z" />
    <glyph glyph-name="Idot" unicode="&#x130;" horiz-adv-x="485" 
d="M242 1597q-39 0 -67 28t-28 69q0 38 28.5 66t66.5 28t66 -28t28 -66q0 -41 -27.5 -69t-66.5 -28zM258 0h-31q-12 0 -21 9.5t-9 21.5v1372q0 12 9 21.5t21 9.5h31q12 0 21.5 -9.5t9.5 -21.5v-1372q0 -12 -9.5 -21.5t-21.5 -9.5z" />
    <glyph glyph-name="dotlessi" unicode="&#x131;" horiz-adv-x="393" 
d="M211 0h-29q-12 0 -21 9.5t-9 21.5v872q0 12 9 21.5t21 9.5h29q12 0 21.5 -9.5t9.5 -21.5v-872q0 -12 -9.5 -21.5t-21.5 -9.5z" />
    <glyph glyph-name="IJ" unicode="&#x132;" horiz-adv-x="1714" 
d="M258 0h-31q-12 0 -21 9.5t-9 21.5v1372q0 12 9 21.5t21 9.5h31q12 0 21.5 -9.5t9.5 -21.5v-1372q0 -12 -9.5 -21.5t-21.5 -9.5zM1536 1403v-942q0 -209 -134.5 -347.5t-365.5 -138.5q-117 0 -212 37t-157 102t-95 153t-33 190v53q0 12 9 21.5t21 9.5h29q12 0 21.5 -9.5
t9.5 -21.5v-59q0 -179 111.5 -287.5t295.5 -108.5q186 0 297 113t111 293v942q0 12 9.5 21.5t21.5 9.5h30q12 0 21.5 -9.5t9.5 -21.5z" />
    <glyph glyph-name="ij" unicode="&#x133;" horiz-adv-x="784" 
d="M580 1186q-38 0 -66.5 28t-28.5 66t28.5 66t66.5 28t66 -28t28 -66t-28 -66t-66 -28zM197 1184q-39 0 -67 27.5t-28 68.5q0 38 28.5 66t66.5 28t66 -28t28 -66q0 -41 -27.5 -68.5t-66.5 -27.5zM211 0h-29q-12 0 -21 9.5t-9 21.5v872q0 12 9 21.5t21 9.5h29
q12 0 21.5 -9.5t9.5 -21.5v-872q0 -12 -9.5 -21.5t-21.5 -9.5zM573 934h29q12 0 21.5 -9.5t9.5 -21.5v-1073q0 -74 -22 -128.5t-60.5 -85t-83 -44.5t-96.5 -14q-106 0 -181 53q-19 11 -4 37l11 16q14 26 43 10q62 -41 129 -41q174 0 174 193v1077q0 12 9 21.5t21 9.5z" />
    <glyph glyph-name="Jcircumflex" unicode="&#x134;" horiz-adv-x="1228" 
d="M999 1884h19q18 0 26.5 -5.5t20.5 -20.5l182 -261q6 -11 1.5 -18.5t-15.5 -7.5h-35q-25 0 -39 20l-151 203l-152 -203q-17 -20 -39 -20h-35q-12 0 -16.5 7.5t2.5 18.5l182 261q8 15 17.5 20.5t31.5 5.5zM1051 1403v-942q0 -209 -134.5 -347.5t-365.5 -138.5
q-155 0 -269.5 64t-171.5 172.5t-57 245.5v53q0 12 9.5 21.5t21.5 9.5h29q12 0 21 -9.5t9 -21.5v-59q0 -179 112 -287.5t296 -108.5q185 0 296 112.5t111 293.5v942q0 12 9.5 21.5t21.5 9.5h31q12 0 21.5 -9.5t9.5 -21.5z" />
    <glyph glyph-name="jcircumflex" unicode="&#x135;" horiz-adv-x="393" 
d="M186 1384h19q18 0 26.5 -5.5t20.5 -20.5l182 -260q6 -10 1.5 -18.5t-15.5 -8.5h-35q-24 0 -39 21l-151 202l-152 -202q-18 -21 -39 -21h-35q-12 0 -16.5 8.5t2.5 18.5l182 260q8 15 17.5 20.5t31.5 5.5zM180 934h29q12 0 21.5 -9.5t9.5 -21.5v-1073q0 -74 -22 -128.5
t-60.5 -85t-83.5 -44.5t-97 -14q-105 0 -180 53q-19 11 -4 37l10 16q14 26 43 10q62 -41 129 -41q175 0 175 193v1077q0 12 9 21.5t21 9.5z" />
    <glyph glyph-name="Kcommaaccent" unicode="&#x136;" horiz-adv-x="1282" 
d="M1272 1411l-666 -653l654 -735q6 -6 2.5 -14.5t-13.5 -8.5h-65q-16 0 -24 5t-21 18l-613 690h-237v-682q0 -12 -9.5 -21.5t-21.5 -9.5h-31q-12 0 -21 9.5t-9 21.5v1372q0 12 9 21.5t21 9.5h31q12 0 21.5 -9.5t9.5 -21.5v-608h237l621 616q23 23 41 23h74q10 0 13 -8.5
t-3 -14.5zM545 -455l71 150q-35 10 -56 37.5t-21 62.5q0 44 29.5 73.5t72.5 29.5q41 0 71.5 -31.5t30.5 -75.5q0 -16 -4 -34t-9 -32.5t-16 -36t-17 -33t-21 -34.5t-19.5 -30t-21 -30t-17.5 -24q-2 -2 -6 -6.5t-5.5 -6.5t-5 -5.5t-5.5 -4.5t-5.5 -2.5t-6.5 -1t-6 2.5l-17 8
q-19 8 -16 24z" />
    <glyph glyph-name="kcommaaccent" unicode="&#x137;" horiz-adv-x="911" 
d="M244 487v-456q0 -12 -9.5 -21.5t-21.5 -9.5h-29q-12 0 -21 9.5t-9 21.5v1372q0 12 9 21.5t21 9.5h29q12 0 21.5 -9.5t9.5 -21.5v-838h131l356 355q14 14 31 14h72q11 0 13.5 -9t-7.5 -16l-394 -383l465 -503q6 -6 3 -14.5t-13 -8.5h-57q-30 0 -53 23l-424 464h-123z
M352 -455l72 150q-35 11 -56.5 38t-21.5 62q0 44 30 73.5t73 29.5q41 0 71.5 -31.5t30.5 -75.5q0 -16 -4 -34t-9 -32.5t-16 -36t-17 -33t-21 -34.5t-19.5 -30t-21 -30t-17.5 -24q-1 -2 -4.5 -5.5l-5 -5t-4 -4.5t-4 -4.5t-4 -3t-4.5 -2.5t-4.5 -1t-5 0.5t-5.5 1.5l-16 8
q-20 9 -17 24z" />
    <glyph glyph-name="kgreenlandic" unicode="&#x138;" horiz-adv-x="909" 
d="M242 487v-456q0 -12 -9.5 -21.5t-21.5 -9.5h-29q-12 0 -21 9.5t-9 21.5v872q0 12 9 21.5t21 9.5h29q12 0 21.5 -9.5t9.5 -21.5v-338h131l356 355q14 14 31 14h71q11 0 14 -9t-7 -16l-394 -383l465 -503q6 -6 3 -14.5t-13 -8.5h-57q-31 0 -54 23l-423 464h-123z" />
    <glyph glyph-name="Lacute" unicode="&#x139;" horiz-adv-x="1093" 
d="M377 1884h53q11 0 15.5 -8t0.5 -18l-143 -261q-13 -26 -35 -26h-32q-26 0 -17 24l115 260q10 29 43 29zM1071 55v-24q0 -12 -9.5 -21.5t-21.5 -9.5h-813q-12 0 -21 9.5t-9 21.5v1372q0 12 9 21.5t21 9.5h31q12 0 21.5 -9.5t9.5 -21.5v-1317h751q12 0 21.5 -9.5t9.5 -21.5
z" />
    <glyph glyph-name="lacute" unicode="&#x13a;" horiz-adv-x="454" 
d="M338 1884h53q11 0 16 -8t1 -18l-144 -261q-13 -26 -35 -26h-32q-26 0 -17 24l115 260q10 29 43 29zM422 0h-55q-100 0 -160 52t-60 169v1182q0 12 9.5 21.5t21.5 9.5h29q12 0 21.5 -9.5t9.5 -21.5v-1180q0 -73 33.5 -109t107.5 -36h43q12 0 21.5 -9.5t9.5 -21.5v-16
q0 -12 -9.5 -21.5t-21.5 -9.5z" />
    <glyph glyph-name="Lcommaaccent" unicode="&#x13b;" horiz-adv-x="1093" 
d="M1071 55v-24q0 -12 -9.5 -21.5t-21.5 -9.5h-813q-12 0 -21 9.5t-9 21.5v1372q0 12 9 21.5t21 9.5h31q12 0 21.5 -9.5t9.5 -21.5v-1317h751q12 0 21.5 -9.5t9.5 -21.5zM524 -455l72 150q-35 11 -56.5 38t-21.5 62q0 44 30 73.5t73 29.5q41 0 71.5 -31.5t30.5 -75.5
q0 -16 -4 -34t-9 -32.5t-16 -36t-17 -33t-21 -34.5t-19.5 -30t-21 -30t-17.5 -24q-1 -2 -4.5 -5.5l-5 -5t-4 -4.5t-4 -4.5t-4 -3t-4.5 -2.5t-4.5 -1t-5 0.5t-5.5 1.5l-16 8q-20 9 -17 24z" />
    <glyph glyph-name="lcommaaccent" unicode="&#x13c;" horiz-adv-x="454" 
d="M422 0h-55q-100 0 -160 52t-60 169v1182q0 12 9.5 21.5t21.5 9.5h29q12 0 21.5 -9.5t9.5 -21.5v-1180q0 -73 33.5 -109t107.5 -36h43q12 0 21.5 -9.5t9.5 -21.5v-16q0 -12 -9.5 -21.5t-21.5 -9.5zM156 -455l71 150q-35 10 -56 37.5t-21 62.5q0 44 29.5 73.5t72.5 29.5
q41 0 71.5 -31.5t30.5 -75.5q0 -16 -4 -34t-9 -32.5t-16 -36t-17 -33t-21 -34.5t-19.5 -30t-21 -30t-17.5 -24q-1 -2 -4.5 -5.5l-5 -5t-4 -4.5t-4 -4.5t-4 -3t-4.5 -2.5t-4.5 -1t-5 0.5t-5.5 1.5l-16 8q-19 8 -16 24z" />
    <glyph glyph-name="Lcaron" unicode="&#x13d;" horiz-adv-x="1099" 
d="M1071 55v-24q0 -12 -9.5 -21.5t-21.5 -9.5h-813q-12 0 -21 9.5t-9 21.5v1372q0 12 9 21.5t21 9.5h31q12 0 21.5 -9.5t9.5 -21.5v-1317h751q12 0 21.5 -9.5t9.5 -21.5zM711 1081l71 150q-35 10 -56 37.5t-21 62.5q0 44 29.5 73.5t72.5 29.5q41 0 71.5 -31.5t30.5 -75.5
q0 -16 -4 -34t-9 -32.5t-16 -36t-17 -33t-21 -34.5t-19.5 -30t-21 -30t-17.5 -24q-1 -2 -4.5 -5.5l-5 -5t-4 -4.5t-4 -4.5t-4 -3t-4.5 -2.5t-4.5 -1t-5 0.5t-5.5 1.5l-16 8q-19 8 -16 24z" />
    <glyph glyph-name="lcaron" unicode="&#x13e;" horiz-adv-x="479" 
d="M403 1081l72 150q-35 11 -56.5 38t-21.5 62q0 44 30 73.5t73 29.5q41 0 71.5 -31.5t30.5 -75.5q0 -16 -4 -34t-9 -32.5t-16 -36t-17 -33t-21 -34.5t-19.5 -30t-21 -30t-17.5 -24q-1 -2 -4.5 -5.5l-5 -5t-4 -4.5t-4 -4.5t-4 -3t-4.5 -2.5t-4.5 -1t-5 0.5t-5.5 1.5l-16 8
q-20 9 -17 24zM422 0h-55q-100 0 -160 52t-60 169v1182q0 12 9.5 21.5t21.5 9.5h29q12 0 21.5 -9.5t9.5 -21.5v-1180q0 -73 33.5 -109t107.5 -36h43q12 0 21.5 -9.5t9.5 -21.5v-16q0 -12 -9.5 -21.5t-21.5 -9.5z" />
    <glyph glyph-name="Ldot" unicode="&#x13f;" horiz-adv-x="1095" 
d="M1071 55v-24q0 -12 -9.5 -21.5t-21.5 -9.5h-813q-12 0 -21 9.5t-9 21.5v1372q0 12 9 21.5t21 9.5h31q12 0 21.5 -9.5t9.5 -21.5v-1317h751q12 0 21.5 -9.5t9.5 -21.5zM717 616q-47 0 -81 34t-34 81t34 81t81 34t80.5 -34t33.5 -81t-33.5 -81t-80.5 -34z" />
    <glyph glyph-name="ldot" unicode="&#x140;" horiz-adv-x="655" 
d="M422 0h-55q-100 0 -160 52t-60 169v1182q0 12 9.5 21.5t21.5 9.5h29q12 0 21.5 -9.5t9.5 -21.5v-1180q0 -73 33.5 -109t107.5 -36h43q12 0 21.5 -9.5t9.5 -21.5v-16q0 -12 -9.5 -21.5t-21.5 -9.5zM506 412q-47 0 -81 33.5t-34 80.5t34 81t81 34t81 -34t34 -81t-34 -80.5
t-81 -33.5z" />
    <glyph glyph-name="Lslash" unicode="&#x141;" horiz-adv-x="1095" 
d="M1040 0h-813q-12 0 -21 9.5t-9 21.5v532l-86 -31q-13 -4 -21 3t-8 18v18q0 31 29 41l86 31v760q0 12 9 21.5t21 9.5h31q12 0 21.5 -9.5t9.5 -21.5v-727l463 168q10 4 19 -2t9 -17v-26q0 -28 -28 -37l-463 -166v-510h751q12 0 21.5 -9.5t9.5 -21.5v-24q0 -12 -9.5 -21.5
t-21.5 -9.5z" />
    <glyph glyph-name="lslash" unicode="&#x142;" horiz-adv-x="471" 
d="M430 0h-55q-99 0 -159 52t-60 169v381l-72 -43q-10 -6 -18.5 -1.5t-8.5 15.5v39q0 20 27 37l72 41v713q0 12 9 21.5t21 9.5h29q12 0 21.5 -9.5t9.5 -21.5v-660l139 82q11 6 19 1.5t8 -15.5v-37q0 -20 -27 -37l-139 -82v-432q0 -73 33.5 -109t107.5 -36h43q12 0 21.5 -9.5
t9.5 -21.5v-16q0 -12 -9.5 -21.5t-21.5 -9.5z" />
    <glyph glyph-name="Nacute" unicode="&#x143;" horiz-adv-x="1474" 
d="M881 1884h53q11 0 15.5 -8t0.5 -18l-143 -261q-13 -26 -35 -26h-33q-25 0 -16 24l115 260q10 29 43 29zM1153 25l-864 1275v-1269q0 -12 -9.5 -21.5t-21.5 -9.5h-31q-12 0 -21 9.5t-9 21.5v1372q0 12 9 21.5t21 9.5h45q34 0 50 -25l864 -1276v1270q0 12 9.5 21.5
t21.5 9.5h30q12 0 21.5 -9.5t9.5 -21.5v-1372q0 -12 -9.5 -21.5t-21.5 -9.5h-45q-33 0 -49 25z" />
    <glyph glyph-name="nacute" unicode="&#x144;" 
d="M715 1384h53q11 0 15.5 -8t0.5 -18l-143 -260q-13 -27 -35 -27h-33q-25 0 -16 25l115 260q9 28 43 28zM913 31v504q0 163 -83.5 253.5t-241.5 90.5t-252 -95.5t-94 -248.5v-504q0 -12 -9.5 -21.5t-21.5 -9.5h-29q-12 0 -21 9.5t-9 21.5v872q0 12 9 21.5t21 9.5h29
q12 0 21.5 -9.5t9.5 -21.5v-155q42 96 136.5 153t221.5 57q187 0 295.5 -111t108.5 -296v-520q0 -12 -9.5 -21.5t-21.5 -9.5h-29q-12 0 -21.5 9.5t-9.5 21.5z" />
    <glyph glyph-name="Ncommaaccent" unicode="&#x145;" horiz-adv-x="1474" 
d="M1153 25l-864 1275v-1269q0 -12 -9.5 -21.5t-21.5 -9.5h-31q-12 0 -21 9.5t-9 21.5v1372q0 12 9 21.5t21 9.5h45q34 0 50 -25l864 -1276v1270q0 12 9.5 21.5t21.5 9.5h30q12 0 21.5 -9.5t9.5 -21.5v-1372q0 -12 -9.5 -21.5t-21.5 -9.5h-45q-33 0 -49 25zM641 -455l72 150
q-35 11 -56.5 38t-21.5 62q0 44 29.5 73.5t72.5 29.5q42 0 72.5 -31.5t30.5 -75.5q0 -16 -4 -34t-9 -32.5t-16 -36t-17 -33t-21 -34.5t-19.5 -30t-21 -30t-17.5 -24q-1 -2 -4.5 -5.5l-5 -5t-4 -4.5t-4 -4.5t-4 -3t-4.5 -2.5t-4.5 -1t-5 0.5t-5.5 1.5l-17 8q-19 8 -16 24z
" />
    <glyph glyph-name="ncommaaccent" unicode="&#x146;" 
d="M913 31v504q0 163 -83.5 253.5t-241.5 90.5t-252 -95.5t-94 -248.5v-504q0 -12 -9.5 -21.5t-21.5 -9.5h-29q-12 0 -21 9.5t-9 21.5v872q0 12 9 21.5t21 9.5h29q12 0 21.5 -9.5t9.5 -21.5v-155q42 96 136.5 153t221.5 57q187 0 295.5 -111t108.5 -296v-520
q0 -12 -9.5 -21.5t-21.5 -9.5h-29q-12 0 -21.5 9.5t-9.5 21.5zM475 -455l72 150q-35 11 -56.5 38t-21.5 62q0 44 29.5 73.5t72.5 29.5q42 0 72.5 -31.5t30.5 -75.5q0 -16 -4 -34t-9 -32.5t-16 -36t-17 -33t-21 -34.5t-19.5 -30t-21 -30t-17.5 -24q-1 -2 -4.5 -5.5l-5 -5
t-4 -4.5t-4 -4.5t-4 -3t-4.5 -2.5t-4.5 -1t-5 0.5t-5.5 1.5l-16 8q-20 9 -17 24z" />
    <glyph glyph-name="Ncaron" unicode="&#x147;" horiz-adv-x="1474" 
d="M748 1571h-19q-22 0 -31.5 5.5t-17.5 20.5l-182 261q-7 10 -2.5 18t16.5 8h35q22 0 39 -20l151 -203l152 203q14 20 39 20h35q11 0 15.5 -8t-1.5 -18l-182 -261q-12 -15 -20.5 -20.5t-26.5 -5.5zM1153 25l-864 1275v-1269q0 -12 -9.5 -21.5t-21.5 -9.5h-31q-12 0 -21 9.5
t-9 21.5v1372q0 12 9 21.5t21 9.5h45q34 0 50 -25l864 -1276v1270q0 12 9.5 21.5t21.5 9.5h30q12 0 21.5 -9.5t9.5 -21.5v-1372q0 -12 -9.5 -21.5t-21.5 -9.5h-45q-33 0 -49 25z" />
    <glyph glyph-name="ncaron" unicode="&#x148;" 
d="M580 1071h-19q-22 0 -31.5 6t-17.5 21l-182 260q-7 10 -2.5 18t16.5 8h35q22 0 39 -20l151 -203l152 203q14 20 39 20h35q11 0 15.5 -8t-1.5 -18l-182 -260q-12 -15 -21 -21t-26 -6zM913 31v504q0 163 -83.5 253.5t-241.5 90.5t-252 -95.5t-94 -248.5v-504
q0 -12 -9.5 -21.5t-21.5 -9.5h-29q-12 0 -21 9.5t-9 21.5v872q0 12 9 21.5t21 9.5h29q12 0 21.5 -9.5t9.5 -21.5v-155q42 96 136.5 153t221.5 57q187 0 295.5 -111t108.5 -296v-520q0 -12 -9.5 -21.5t-21.5 -9.5h-29q-12 0 -21.5 9.5t-9.5 21.5z" />
    <glyph glyph-name="napostrophe" unicode="&#x149;" 
d="M143 1102l72 149q-35 11 -56.5 38.5t-21.5 62.5q0 44 30 73t73 29q42 0 72 -31t30 -75q0 -16 -4 -34t-9 -32.5t-16 -36t-17 -33t-21 -34.5t-19.5 -30t-21 -30t-17.5 -24q-2 -2 -6 -6.5t-5.5 -6.5t-5 -5.5t-6 -5t-5.5 -3t-6.5 -1t-6.5 2.5l-16 8q-20 9 -17 25zM913 31v504
q0 163 -83.5 253.5t-241.5 90.5t-252 -95.5t-94 -248.5v-504q0 -12 -9.5 -21.5t-21.5 -9.5h-29q-12 0 -21 9.5t-9 21.5v872q0 12 9 21.5t21 9.5h29q12 0 21.5 -9.5t9.5 -21.5v-155q42 96 136.5 153t221.5 57q187 0 295.5 -111t108.5 -296v-520q0 -12 -9.5 -21.5t-21.5 -9.5
h-29q-12 0 -21.5 9.5t-9.5 21.5z" />
    <glyph glyph-name="Eng" unicode="&#x14a;" horiz-adv-x="1474" 
d="M1016 -442q-105 0 -180 53q-20 11 -5 37l11 16q14 26 43 10q62 -41 129 -41q174 0 174 193v174q-24 3 -35 23l-864 1277v-1269q0 -12 -9.5 -21.5t-21.5 -9.5h-31q-12 0 -21 9.5t-9 21.5v1372q0 12 9 21.5t21 9.5h45q34 0 50 -25l864 -1276v1270q0 12 9.5 21.5t21.5 9.5
h30q12 0 21.5 -9.5t9.5 -21.5v-1573q0 -74 -22 -128.5t-60.5 -85t-83 -44.5t-96.5 -14z" />
    <glyph glyph-name="eng" unicode="&#x14b;" 
d="M741 -442q-105 0 -180 53q-19 11 -4 37l10 16q14 26 43 10q62 -41 129 -41q174 0 174 193v709q0 163 -83.5 253.5t-241.5 90.5t-252 -95.5t-94 -248.5v-504q0 -12 -9.5 -21.5t-21.5 -9.5h-29q-12 0 -21 9.5t-9 21.5v872q0 12 9 21.5t21 9.5h29q12 0 21.5 -9.5t9.5 -21.5
v-155q42 96 136.5 153t221.5 57q187 0 295.5 -111t108.5 -296v-721q0 -74 -22 -128.5t-60.5 -85t-83.5 -44.5t-97 -14z" />
    <glyph glyph-name="Omacron" unicode="&#x14c;" horiz-adv-x="1609" 
d="M1010 1618h-410q-12 0 -21.5 9.5t-9.5 21.5v14q0 12 9.5 21.5t21.5 9.5h410q12 0 21 -9.5t9 -21.5v-14q0 -12 -9 -21.5t-21 -9.5zM1520 717q0 -159 -56.5 -298t-153 -235.5t-228 -152.5t-277.5 -56t-277.5 56t-228 152.5t-153 235.5t-56.5 298t56.5 297.5t153 235.5
t228 152.5t277.5 55.5t277.5 -55.5t228 -152.5t153 -235.5t56.5 -297.5zM1425 717q0 186 -79.5 337t-221.5 236.5t-319 85.5t-319.5 -85.5t-222 -236.5t-79.5 -337t79.5 -337t222 -237t319.5 -86t319 86t221.5 237t79.5 337z" />
    <glyph glyph-name="omacron" unicode="&#x14d;" horiz-adv-x="1110" 
d="M760 1118h-410q-12 0 -21.5 9.5t-9.5 21.5v14q0 12 9.5 21.5t21.5 9.5h410q12 0 21.5 -9.5t9.5 -21.5v-14q0 -12 -9.5 -21.5t-21.5 -9.5zM82 467q0 211 137 351t336 140t336 -140t137 -351q0 -140 -63.5 -253t-171.5 -176t-238 -63t-238 63t-171.5 176t-63.5 253z
M174 467q0 -174 107 -292t274 -118t274 118t107 292t-107 292t-274 118t-274 -118t-107 -292z" />
    <glyph glyph-name="Obreve" unicode="&#x14e;" horiz-adv-x="1609" 
d="M805 1561q-95 0 -152 50t-57 136v10q0 23 22 23h33q23 0 23 -23v-4q0 -58 36.5 -88.5t94.5 -30.5t94.5 30.5t36.5 88.5v4q0 23 22 23h33q23 0 23 -23v-10q0 -86 -57 -136t-152 -50zM1520 717q0 -159 -56.5 -298t-153 -235.5t-228 -152.5t-277.5 -56t-277.5 56t-228 152.5
t-153 235.5t-56.5 298t56.5 297.5t153 235.5t228 152.5t277.5 55.5t277.5 -55.5t228 -152.5t153 -235.5t56.5 -297.5zM1425 717q0 186 -79.5 337t-221.5 236.5t-319 85.5t-319.5 -85.5t-222 -236.5t-79.5 -337t79.5 -337t222 -237t319.5 -86t319 86t221.5 237t79.5 337z" />
    <glyph glyph-name="obreve" unicode="&#x14f;" horiz-adv-x="1110" 
d="M555 1061q-95 0 -152 50t-57 136v10q0 23 23 23h32q23 0 23 -23v-4q0 -58 36.5 -88t94.5 -30t94.5 30t36.5 88v4q0 23 23 23h32q23 0 23 -23v-10q0 -86 -57 -136t-152 -50zM82 467q0 211 137 351t336 140t336 -140t137 -351q0 -140 -63.5 -253t-171.5 -176t-238 -63
t-238 63t-171.5 176t-63.5 253zM174 467q0 -174 107 -292t274 -118t274 118t107 292t-107 292t-274 118t-274 -118t-107 -292z" />
    <glyph glyph-name="Ohungarumlaut" unicode="&#x150;" horiz-adv-x="1609" 
d="M809 1884h53q11 0 16 -8t1 -18l-144 -261q-13 -26 -35 -26h-32q-26 0 -17 24l115 260q10 29 43 29zM1087 1884h54q11 0 15.5 -8t0.5 -18l-143 -261q-13 -26 -35 -26h-33q-25 0 -16 24l114 260q10 29 43 29zM1520 717q0 -159 -56.5 -298t-153 -235.5t-228 -152.5
t-277.5 -56t-277.5 56t-228 152.5t-153 235.5t-56.5 298t56.5 297.5t153 235.5t228 152.5t277.5 55.5t277.5 -55.5t228 -152.5t153 -235.5t56.5 -297.5zM1425 717q0 186 -79.5 337t-221.5 236.5t-319 85.5t-319.5 -85.5t-222 -236.5t-79.5 -337t79.5 -337t222 -237
t319.5 -86t319 86t221.5 237t79.5 337z" />
    <glyph glyph-name="ohungarumlaut" unicode="&#x151;" horiz-adv-x="1110" 
d="M559 1384h53q11 0 16 -8t1 -18l-144 -260q-13 -27 -34 -27h-33q-26 0 -17 25l115 260q9 28 43 28zM838 1384h53q11 0 15.5 -8t0.5 -18l-143 -260q-14 -27 -35 -27h-33q-25 0 -16 25l115 260q9 28 43 28zM82 467q0 211 137 351t336 140t336 -140t137 -351
q0 -140 -63.5 -253t-171.5 -176t-238 -63t-238 63t-171.5 176t-63.5 253zM174 467q0 -174 107 -292t274 -118t274 118t107 292t-107 292t-274 118t-274 -118t-107 -292z" />
    <glyph glyph-name="OE" unicode="&#x152;" horiz-adv-x="2455" 
d="M1425 717q0 186 -79.5 337t-221.5 236.5t-319 85.5t-319.5 -85.5t-222 -236.5t-79.5 -337t79.5 -337t222 -237t319.5 -86t319 86t221.5 237t79.5 337zM1417 31v321q-87 -175 -248.5 -276t-363.5 -101q-146 0 -277.5 56t-228 152.5t-153 235.5t-56.5 298t56.5 297.5
t153 235.5t228 152.5t277.5 55.5q202 0 363.5 -101t248.5 -276v322q0 12 9.5 21.5t21.5 9.5h915q12 0 21.5 -9.5t9.5 -21.5v-25q0 -12 -9.5 -21t-21.5 -9h-854v-578h437q12 0 21 -9.5t9 -21.5v-20q0 -12 -9 -21.5t-21 -9.5h-437v-602h854q12 0 21.5 -9.5t9.5 -21.5v-24
q0 -12 -9.5 -21.5t-21.5 -9.5h-915q-12 0 -21.5 9.5t-9.5 21.5z" />
    <glyph glyph-name="oe" unicode="&#x153;" horiz-adv-x="1941" 
d="M1415 -25q-148 0 -263 73.5t-171 199.5q-57 -125 -171.5 -199t-254.5 -74q-130 0 -238 63t-171.5 176t-63.5 253q0 211 137 351t336 140q140 0 255.5 -74.5t172.5 -199.5q57 126 169 200t257 74q95 0 180 -33t148.5 -93t101 -150t37.5 -197v-16q0 -12 -8.5 -21.5
t-20.5 -9.5h-819q12 -167 119.5 -274t271.5 -107q200 0 318 150q26 26 47 10l18 -12q29 -19 13 -41q-62 -89 -167 -139t-233 -50zM174 467q0 -174 107 -292t274 -118t274 118t107 292t-107 292t-274 118t-274 -118t-107 -292zM1030 516h756q-13 165 -116.5 263t-262.5 98
q-156 0 -257.5 -102t-119.5 -259z" />
    <glyph glyph-name="Racute" unicode="&#x154;" horiz-adv-x="1378" 
d="M836 1884h53q11 0 15.5 -8t0.5 -18l-143 -261q-13 -26 -35 -26h-33q-25 0 -16 24l115 260q10 29 43 29zM289 719h516q173 0 269.5 87t96.5 230t-96.5 229.5t-269.5 86.5h-516v-633zM1276 0h-47q-24 0 -39 27l-350 610h-551v-606q0 -12 -9.5 -21.5t-21.5 -9.5h-31
q-12 0 -21 9.5t-9 21.5v1372q0 12 9 21.5t21 9.5h559q224 0 352 -107t128 -289q0 -57 -16 -112.5t-52 -111t-104 -99t-162 -64.5l362 -624q5 -11 -0.5 -19t-17.5 -8z" />
    <glyph glyph-name="racute" unicode="&#x155;" horiz-adv-x="591" 
d="M485 1384h54q11 0 15.5 -8t0.5 -18l-143 -260q-14 -27 -35 -27h-33q-25 0 -16 25l114 260q9 28 43 28zM512 934h35q10 0 19 -9t9 -20v-31q0 -24 -22 -24h-29q-60 0 -109.5 -19.5t-89 -60.5t-61.5 -113.5t-22 -171.5v-454q0 -12 -9.5 -21.5t-21.5 -9.5h-29q-12 0 -21 9.5
t-9 21.5v872q0 12 9 21.5t21 9.5h25q12 0 21.5 -9.5t9.5 -21.5v-162q23 75 97 134t177 59z" />
    <glyph glyph-name="Rcommaaccent" unicode="&#x156;" horiz-adv-x="1378" 
d="M289 719h516q173 0 269.5 87t96.5 230t-96.5 229.5t-269.5 86.5h-516v-633zM1276 0h-47q-24 0 -39 27l-350 610h-551v-606q0 -12 -9.5 -21.5t-21.5 -9.5h-31q-12 0 -21 9.5t-9 21.5v1372q0 12 9 21.5t21 9.5h559q224 0 352 -107t128 -289q0 -57 -16 -112.5t-52 -111
t-104 -99t-162 -64.5l362 -624q5 -11 -0.5 -19t-17.5 -8zM596 -455l72 150q-35 11 -56.5 38t-21.5 62q0 44 29.5 73.5t72.5 29.5q42 0 72.5 -31.5t30.5 -75.5q0 -16 -4 -34t-9 -32.5t-16 -36t-17 -33t-21 -34.5t-19.5 -30t-21 -30t-17.5 -24q-1 -2 -4.5 -5.5l-5 -5t-4 -4.5
t-4 -4.5t-4 -3t-4.5 -2.5t-4.5 -1t-5 0.5t-5.5 1.5l-17 8q-19 8 -16 24z" />
    <glyph glyph-name="rcommaaccent" unicode="&#x157;" horiz-adv-x="591" 
d="M512 934h35q10 0 19 -9t9 -20v-31q0 -24 -22 -24h-29q-60 0 -109.5 -19.5t-89 -60.5t-61.5 -113.5t-22 -171.5v-454q0 -12 -9.5 -21.5t-21.5 -9.5h-29q-12 0 -21 9.5t-9 21.5v872q0 12 9 21.5t21 9.5h25q12 0 21.5 -9.5t9.5 -21.5v-162q23 75 97 134t177 59zM100 -455
l72 150q-35 11 -56.5 38t-21.5 62q0 44 30 73.5t73 29.5q41 0 71.5 -31.5t30.5 -75.5q0 -16 -4 -34t-9 -32.5t-16 -36t-17 -33t-21 -34.5t-19.5 -30t-21 -30t-17.5 -24q-1 -2 -4.5 -5.5l-5 -5t-4 -4.5t-4 -4.5t-4 -3t-4.5 -2.5t-4.5 -1t-5 0.5t-5.5 1.5l-16 8q-20 9 -17 24z
" />
    <glyph glyph-name="Rcaron" unicode="&#x158;" horiz-adv-x="1378" 
d="M702 1571h-18q-22 0 -31.5 5.5t-17.5 20.5l-182 261q-7 10 -2.5 18t16.5 8h35q22 0 39 -20l151 -203l152 203q14 20 39 20h35q11 0 15.5 -8t-1.5 -18l-182 -261q-20 -26 -48 -26zM289 719h516q173 0 269.5 87t96.5 230t-96.5 229.5t-269.5 86.5h-516v-633zM1276 0h-47
q-24 0 -39 27l-350 610h-551v-606q0 -12 -9.5 -21.5t-21.5 -9.5h-31q-12 0 -21 9.5t-9 21.5v1372q0 12 9 21.5t21 9.5h559q224 0 352 -107t128 -289q0 -57 -16 -112.5t-52 -111t-104 -99t-162 -64.5l362 -624q5 -11 -0.5 -19t-17.5 -8z" />
    <glyph glyph-name="rcaron" unicode="&#x159;" horiz-adv-x="591" 
d="M350 1071h-18q-22 0 -31.5 6t-17.5 21l-183 260q-7 10 -2 18t17 8h35q21 0 38 -20l152 -203l152 203q14 20 38 20h35q11 0 16 -8t-1 -18l-183 -260q-12 -15 -21 -21t-26 -6zM512 934h35q10 0 19 -9t9 -20v-31q0 -24 -22 -24h-29q-60 0 -109.5 -19.5t-89 -60.5
t-61.5 -113.5t-22 -171.5v-454q0 -12 -9.5 -21.5t-21.5 -9.5h-29q-12 0 -21 9.5t-9 21.5v872q0 12 9 21.5t21 9.5h25q12 0 21.5 -9.5t9.5 -21.5v-162q23 75 97 134t177 59z" />
    <glyph glyph-name="Sacute" unicode="&#x15a;" horiz-adv-x="1222" 
d="M750 1884h53q11 0 15.5 -8t0.5 -18l-143 -261q-13 -26 -35 -26h-33q-25 0 -16 24l115 260q10 29 43 29zM614 1458q150 0 275 -51.5t211 -149.5q19 -22 -4 -38l-21 -17q-20 -10 -28 -7.5t-21 15.5q-164 170 -412 170q-109 0 -198 -33.5t-145 -103t-56 -162.5q0 -44 11 -80
t39 -71.5t81.5 -64.5t132.5 -50l330 -90q175 -47 250.5 -136t75.5 -220q0 -73 -32.5 -142t-95 -126t-165.5 -91.5t-232 -34.5q-102 0 -194 24t-157.5 63t-110.5 78.5t-72 80.5q-6 10 -4 22.5t12 18.5l25 17q25 15 45 -11q69 -92 186 -153.5t272 -61.5q204 0 317 92.5
t113 219.5q0 110 -62.5 176.5t-199.5 103.5l-336 92q-321 85 -321 340q0 168 139.5 274.5t351.5 106.5z" />
    <glyph glyph-name="sacute" unicode="&#x15b;" horiz-adv-x="897" 
d="M602 1384h53q11 0 16 -8t1 -18l-144 -260q-14 -27 -34 -27h-33q-26 0 -17 25l115 260q9 28 43 28zM440 961q200 0 340 -119q18 -18 -2 -39l-14 -17q-20 -20 -45 -2q-43 31 -74 49t-86 34t-117 16q-118 0 -185 -51t-67 -127q0 -129 179 -162l184 -33q146 -26 209 -88.5
t63 -171.5q0 -47 -21.5 -93.5t-63.5 -88t-115 -67.5t-164 -26q-129 0 -226 41t-155 109q-8 10 -7 23t11 20l22 18q26 19 48 -6q64 -64 136.5 -95.5t176.5 -31.5q120 0 193 58t73 135t-49 120t-156 62l-172 31q-132 23 -195 82.5t-63 158.5q0 115 100.5 188t241.5 73z" />
    <glyph glyph-name="Scircumflex" unicode="&#x15c;" horiz-adv-x="1222" 
d="M598 1884h18q28 0 48 -26l182 -261q6 -11 1 -18.5t-16 -7.5h-34q-25 0 -39 20l-152 203l-151 -203q-17 -20 -39 -20h-35q-12 0 -16.5 7.5t2.5 18.5l182 261q8 15 17.5 20.5t31.5 5.5zM614 1458q150 0 275 -51.5t211 -149.5q19 -22 -4 -38l-21 -17q-20 -10 -28 -7.5
t-21 15.5q-164 170 -412 170q-109 0 -198 -33.5t-145 -103t-56 -162.5q0 -44 11 -80t39 -71.5t81.5 -64.5t132.5 -50l330 -90q175 -47 250.5 -136t75.5 -220q0 -73 -32.5 -142t-95 -126t-165.5 -91.5t-232 -34.5q-102 0 -194 24t-157.5 63t-110.5 78.5t-72 80.5
q-6 10 -4 22.5t12 18.5l25 17q25 15 45 -11q69 -92 186 -153.5t272 -61.5q204 0 317 92.5t113 219.5q0 110 -62.5 176.5t-199.5 103.5l-336 92q-321 85 -321 340q0 168 139.5 274.5t351.5 106.5z" />
    <glyph glyph-name="scircumflex" unicode="&#x15d;" horiz-adv-x="897" 
d="M451 1384h18q18 0 26.5 -5.5t20.5 -20.5l182 -260q6 -10 1.5 -18.5t-15.5 -8.5h-35q-24 0 -39 21l-151 202l-152 -202q-18 -21 -39 -21h-35q-12 0 -16.5 8.5t2.5 18.5l182 260q8 15 18 20.5t32 5.5zM440 961q200 0 340 -119q18 -18 -2 -39l-14 -17q-20 -20 -45 -2
q-43 31 -74 49t-86 34t-117 16q-118 0 -185 -51t-67 -127q0 -129 179 -162l184 -33q146 -26 209 -88.5t63 -171.5q0 -47 -21.5 -93.5t-63.5 -88t-115 -67.5t-164 -26q-129 0 -226 41t-155 109q-8 10 -7 23t11 20l22 18q26 19 48 -6q64 -64 136.5 -95.5t176.5 -31.5
q120 0 193 58t73 135t-49 120t-156 62l-172 31q-132 23 -195 82.5t-63 158.5q0 115 100.5 188t241.5 73z" />
    <glyph glyph-name="Scedilla" unicode="&#x15e;" horiz-adv-x="1222" 
d="M502 -293h-33q-11 0 -16 7.5t0 21.5l100 241q-90 6 -171.5 31.5t-140 63t-99 75t-66.5 74.5q-6 10 -4 22.5t12 18.5l25 17q25 15 45 -11q69 -92 186 -153.5t272 -61.5q204 0 317 92.5t113 219.5q0 110 -62.5 176.5t-199.5 103.5l-336 92q-321 85 -321 340
q0 168 139.5 274.5t351.5 106.5q150 0 275 -51.5t211 -149.5q19 -22 -4 -38l-21 -17q-20 -10 -28 -7.5t-21 15.5q-164 170 -412 170q-109 0 -198 -33.5t-145 -103t-56 -162.5q0 -44 11 -80t39 -71.5t81.5 -64.5t132.5 -50l330 -90q175 -47 250.5 -136t75.5 -220
q0 -72 -30.5 -139t-89 -123.5t-155 -92t-217.5 -39.5l-106 -239q-13 -29 -35 -29z" />
    <glyph glyph-name="scedilla" unicode="&#x15f;" horiz-adv-x="897" 
d="M354 -293h-32q-11 0 -17 8t0 21l101 241q-220 20 -326 148q-8 10 -7 23t11 20l22 18q26 19 48 -6q64 -64 136.5 -95.5t176.5 -31.5q120 0 193 58t73 135t-49 120t-156 62l-172 31q-132 23 -195 82.5t-63 158.5q0 115 100.5 188t241.5 73q200 0 340 -119q18 -18 -2 -39
l-14 -17q-20 -20 -45 -2q-43 31 -74 49t-86 34t-117 16q-118 0 -185 -51t-67 -127q0 -129 179 -162l184 -33q146 -26 209 -88.5t63 -171.5q0 -45 -20 -89.5t-58 -84.5t-103.5 -67.5t-147.5 -33.5l-107 -239q-13 -29 -35 -29z" />
    <glyph glyph-name="Scaron" unicode="&#x160;" horiz-adv-x="1222" 
d="M616 1571h-18q-22 0 -31.5 5.5t-17.5 20.5l-182 261q-7 10 -2.5 18t16.5 8h35q22 0 39 -20l151 -203l152 203q14 20 39 20h34q11 0 16 -8t-1 -18l-182 -261q-20 -26 -48 -26zM614 1458q150 0 275 -51.5t211 -149.5q19 -22 -4 -38l-21 -17q-20 -10 -28 -7.5t-21 15.5
q-164 170 -412 170q-109 0 -198 -33.5t-145 -103t-56 -162.5q0 -44 11 -80t39 -71.5t81.5 -64.5t132.5 -50l330 -90q175 -47 250.5 -136t75.5 -220q0 -73 -32.5 -142t-95 -126t-165.5 -91.5t-232 -34.5q-102 0 -194 24t-157.5 63t-110.5 78.5t-72 80.5q-6 10 -4 22.5
t12 18.5l25 17q25 15 45 -11q69 -92 186 -153.5t272 -61.5q204 0 317 92.5t113 219.5q0 110 -62.5 176.5t-199.5 103.5l-336 92q-321 85 -321 340q0 168 139.5 274.5t351.5 106.5z" />
    <glyph glyph-name="scaron" unicode="&#x161;" horiz-adv-x="897" 
d="M469 1071h-18q-22 0 -32 6t-18 21l-182 260q-7 10 -2.5 18t16.5 8h35q22 0 39 -20l152 -203l151 203q14 20 39 20h35q11 0 15.5 -8t-1.5 -18l-182 -260q-12 -15 -21 -21t-26 -6zM440 961q200 0 340 -119q18 -18 -2 -39l-14 -17q-20 -20 -45 -2q-43 31 -74 49t-86 34
t-117 16q-118 0 -185 -51t-67 -127q0 -129 179 -162l184 -33q146 -26 209 -88.5t63 -171.5q0 -47 -21.5 -93.5t-63.5 -88t-115 -67.5t-164 -26q-129 0 -226 41t-155 109q-8 10 -7 23t11 20l22 18q26 19 48 -6q64 -64 136.5 -95.5t176.5 -31.5q120 0 193 58t73 135t-49 120
t-156 62l-172 31q-132 23 -195 82.5t-63 158.5q0 115 100.5 188t241.5 73z" />
    <glyph glyph-name="Tcommaaccent" unicode="&#x162;" horiz-adv-x="1253" 
d="M27 1378v25q0 12 9 21.5t21 9.5h1139q12 0 21.5 -9.5t9.5 -21.5v-25q0 -12 -9.5 -21t-21.5 -9h-524v-1317q0 -12 -9.5 -21.5t-21.5 -9.5h-31q-12 0 -21 9.5t-9 21.5v1317h-523q-12 0 -21 9t-9 21zM530 -455l72 150q-35 11 -56.5 38t-21.5 62q0 44 30 73.5t73 29.5
q41 0 71.5 -31.5t30.5 -75.5q0 -16 -4 -34t-9 -32.5t-16 -36t-17 -33t-21 -34.5t-19.5 -30t-21 -30t-17.5 -24q-1 -2 -4.5 -5.5l-5 -5t-4 -4.5t-4 -4.5t-4 -3t-4.5 -2.5t-4.5 -1t-5 0.5t-5.5 1.5l-16 8q-20 9 -17 24z" />
    <glyph glyph-name="tcommaaccent" unicode="&#x163;" horiz-adv-x="669" 
d="M201 252v604h-152q-12 0 -21.5 9.5t-9.5 21.5v16q0 12 9.5 21.5t21.5 9.5h152v326q0 12 9 21t21 9h29q12 0 21.5 -9t9.5 -21v-326h311q12 0 21.5 -9.5t9.5 -21.5v-16q0 -12 -9.5 -21.5t-21.5 -9.5h-311v-596q0 -90 41.5 -141t124.5 -51q68 0 133 36q17 11 28 10t21 -14
l12 -20q15 -20 -6 -35q-69 -55 -196 -55q-103 0 -175.5 65.5t-72.5 196.5zM303 -455l72 150q-35 11 -56.5 38t-21.5 62q0 44 29.5 73.5t72.5 29.5q42 0 72.5 -31.5t30.5 -75.5q0 -16 -4 -34t-9 -32.5t-16 -36t-17 -33t-21 -34.5t-19.5 -30t-21 -30t-17.5 -24
q-1 -2 -4.5 -5.5l-5 -5t-4 -4.5t-4 -4.5t-4 -3t-4.5 -2.5t-4.5 -1t-5 0.5t-5.5 1.5l-17 8q-19 8 -16 24z" />
    <glyph glyph-name="Tcaron" unicode="&#x164;" horiz-adv-x="1253" 
d="M639 1571h-18q-22 0 -32 5.5t-18 20.5l-182 261q-7 10 -2.5 18t16.5 8h35q22 0 39 -20l152 -203l151 203q14 20 39 20h35q11 0 15.5 -8t-1.5 -18l-182 -261q-12 -15 -20.5 -20.5t-26.5 -5.5zM27 1378v25q0 12 9 21.5t21 9.5h1139q12 0 21.5 -9.5t9.5 -21.5v-25
q0 -12 -9.5 -21t-21.5 -9h-524v-1317q0 -12 -9.5 -21.5t-21.5 -9.5h-31q-12 0 -21 9.5t-9 21.5v1317h-523q-12 0 -21 9t-9 21z" />
    <glyph glyph-name="tcaron" unicode="&#x165;" horiz-adv-x="669" 
d="M504 1235l71 149q-35 10 -56 38t-21 63q0 44 29.5 73t72.5 29q42 0 72 -31t30 -75q0 -14 -2.5 -28.5t-8.5 -31.5t-11 -30t-16 -32t-16 -28.5t-19 -30t-17.5 -26t-18.5 -26.5l-15 -21q-2 -2 -6 -6.5t-5.5 -6.5t-5 -5.5t-6 -5t-5.5 -3t-6.5 -1t-6.5 2.5l-17 8q-19 8 -16 25
zM201 252v604h-152q-12 0 -21.5 9.5t-9.5 21.5v16q0 12 9.5 21.5t21.5 9.5h152v326q0 12 9 21t21 9h29q12 0 21.5 -9t9.5 -21v-326h311q12 0 21.5 -9.5t9.5 -21.5v-16q0 -12 -9.5 -21.5t-21.5 -9.5h-311v-596q0 -90 41.5 -141t124.5 -51q68 0 133 36q17 11 28 10t21 -14
l12 -20q15 -20 -6 -35q-69 -55 -196 -55q-103 0 -175.5 65.5t-72.5 196.5z" />
    <glyph glyph-name="Tbar" unicode="&#x166;" horiz-adv-x="1269" 
d="M680 733v-702q0 -12 -9.5 -21.5t-21.5 -9.5h-31q-12 0 -21 9.5t-9 21.5v702h-256q-12 0 -21.5 9.5t-9.5 21.5v24q0 12 9.5 21.5t21.5 9.5h256v529h-522q-12 0 -21.5 9t-9.5 21v25q0 12 9.5 21.5t21.5 9.5h1138q12 0 21.5 -9.5t9.5 -21.5v-25q0 -12 -9.5 -21t-21.5 -9
h-524v-529h258q12 0 21.5 -9.5t9.5 -21.5v-24q0 -12 -9.5 -21.5t-21.5 -9.5h-258z" />
    <glyph glyph-name="tbar" unicode="&#x167;" horiz-adv-x="686" 
d="M657 43q-74 -53 -188 -53q-108 0 -182 66.5t-74 197.5v295h-152q-12 0 -21 9.5t-9 21.5v16q0 12 9 21.5t21 9.5h152v229h-152q-12 0 -21 9.5t-9 21.5v16q0 12 9 21.5t21 9.5h152v326q0 12 9.5 21t21.5 9h28q12 0 21.5 -9t9.5 -21v-326h311q12 0 21.5 -9.5t9.5 -21.5v-16
q0 -12 -9.5 -21.5t-21.5 -9.5h-311v-229h311q12 0 21.5 -9.5t9.5 -21.5v-16q0 -12 -9.5 -21.5t-21.5 -9.5h-311v-289q0 -87 48 -139.5t126 -52.5q68 0 123 32q32 20 51 -2l13 -18q15 -21 -7 -37z" />
    <glyph glyph-name="Utilde" unicode="&#x168;" horiz-adv-x="1437" 
d="M838 1602q-38 0 -128.5 35.5t-109.5 35.5q-21 0 -33.5 -9.5t-29.5 -39.5q-16 -29 -41 -16l-15 6q-11 5 -15.5 16t-0.5 21q43 104 137 104q38 0 128.5 -36t109.5 -36q21 0 33.5 10t29.5 40q16 29 41 16l14 -6q11 -5 16 -16t1 -21q-43 -104 -137 -104zM1260 1403v-922
q0 -232 -148 -369t-393 -137t-393 135.5t-148 366.5v926q0 12 9.5 21.5t21.5 9.5h31q12 0 21 -9.5t9 -21.5v-932q0 -194 127 -305t322 -111q125 0 226 47.5t162.5 143.5t61.5 225v932q0 12 9.5 21.5t21.5 9.5h29q12 0 21.5 -9.5t9.5 -21.5z" />
    <glyph glyph-name="utilde" unicode="&#x169;" 
d="M688 1102q-38 0 -128 36t-109 36q-21 0 -34 -10t-30 -40q-16 -29 -41 -16l-14 6q-11 5 -16 16t-1 21q43 104 138 104q38 0 128 -35.5t109 -35.5q21 0 34 9.5t30 39.5q16 29 41 16l14 -6q11 -5 15.5 -16t0.5 -21q-43 -104 -137 -104zM227 903v-504q0 -163 85.5 -253.5
t244.5 -90.5q157 0 249.5 95.5t92.5 248.5v504q0 12 9.5 21.5t21.5 9.5h28q12 0 21.5 -9.5t9.5 -21.5v-872q0 -12 -9.5 -21.5t-21.5 -9.5h-28q-12 0 -21.5 9.5t-9.5 21.5v155q-42 -96 -137 -153.5t-221 -57.5q-187 0 -295.5 111.5t-108.5 296.5v520q0 12 9.5 21.5t21.5 9.5
h29q12 0 21 -9.5t9 -21.5z" />
    <glyph glyph-name="Umacron" unicode="&#x16a;" horiz-adv-x="1437" 
d="M924 1618h-410q-12 0 -21.5 9.5t-9.5 21.5v14q0 12 9.5 21.5t21.5 9.5h410q12 0 21 -9.5t9 -21.5v-14q0 -12 -9 -21.5t-21 -9.5zM1260 1403v-922q0 -232 -148 -369t-393 -137t-393 135.5t-148 366.5v926q0 12 9.5 21.5t21.5 9.5h31q12 0 21 -9.5t9 -21.5v-932
q0 -194 127 -305t322 -111q125 0 226 47.5t162.5 143.5t61.5 225v932q0 12 9.5 21.5t21.5 9.5h29q12 0 21.5 -9.5t9.5 -21.5z" />
    <glyph glyph-name="umacron" unicode="&#x16b;" 
d="M774 1118h-409q-12 0 -21.5 9.5t-9.5 21.5v14q0 12 9.5 21.5t21.5 9.5h409q12 0 21.5 -9.5t9.5 -21.5v-14q0 -12 -9.5 -21.5t-21.5 -9.5zM227 903v-504q0 -163 85.5 -253.5t244.5 -90.5q157 0 249.5 95.5t92.5 248.5v504q0 12 9.5 21.5t21.5 9.5h28q12 0 21.5 -9.5
t9.5 -21.5v-872q0 -12 -9.5 -21.5t-21.5 -9.5h-28q-12 0 -21.5 9.5t-9.5 21.5v155q-42 -96 -137 -153.5t-221 -57.5q-187 0 -295.5 111.5t-108.5 296.5v520q0 12 9.5 21.5t21.5 9.5h29q12 0 21 -9.5t9 -21.5z" />
    <glyph glyph-name="Ubreve" unicode="&#x16c;" horiz-adv-x="1437" 
d="M719 1561q-95 0 -152 50t-57 136v10q0 23 22 23h33q23 0 23 -23v-4q0 -58 36.5 -88.5t94.5 -30.5t94.5 30.5t36.5 88.5v4q0 23 22 23h33q23 0 23 -23v-10q0 -86 -57 -136t-152 -50zM1260 1403v-922q0 -232 -148 -369t-393 -137t-393 135.5t-148 366.5v926q0 12 9.5 21.5
t21.5 9.5h31q12 0 21 -9.5t9 -21.5v-932q0 -194 127 -305t322 -111q125 0 226 47.5t162.5 143.5t61.5 225v932q0 12 9.5 21.5t21.5 9.5h29q12 0 21.5 -9.5t9.5 -21.5z" />
    <glyph glyph-name="ubreve" unicode="&#x16d;" 
d="M569 1061q-95 0 -152 50t-57 136v10q0 23 23 23h33q22 0 22 -23v-4q0 -58 36.5 -88t94.5 -30t94.5 30t36.5 88v4q0 23 23 23h33q22 0 22 -23v-10q0 -86 -57 -136t-152 -50zM227 903v-504q0 -163 85.5 -253.5t244.5 -90.5q157 0 249.5 95.5t92.5 248.5v504q0 12 9.5 21.5
t21.5 9.5h28q12 0 21.5 -9.5t9.5 -21.5v-872q0 -12 -9.5 -21.5t-21.5 -9.5h-28q-12 0 -21.5 9.5t-9.5 21.5v155q-42 -96 -137 -153.5t-221 -57.5q-187 0 -295.5 111.5t-108.5 296.5v520q0 12 9.5 21.5t21.5 9.5h29q12 0 21 -9.5t9 -21.5z" />
    <glyph glyph-name="Uring" unicode="&#x16e;" horiz-adv-x="1437" 
d="M926 1733q-1 -87 -61 -144t-146 -57t-146 57t-61 144q1 87 61 143.5t146 56.5t146 -56.5t61 -143.5zM842 1733q0 55 -34 91t-89 36t-89 -36t-34 -91t34 -91t89 -36t89 36t34 91zM1260 1403v-922q0 -232 -148 -369t-393 -137t-393 135.5t-148 366.5v926q0 12 9.5 21.5
t21.5 9.5h31q12 0 21 -9.5t9 -21.5v-932q0 -194 127 -305t322 -111q125 0 226 47.5t162.5 143.5t61.5 225v932q0 12 9.5 21.5t21.5 9.5h29q12 0 21.5 -9.5t9.5 -21.5z" />
    <glyph glyph-name="uring" unicode="&#x16f;" 
d="M776 1233q-1 -87 -61 -144t-146 -57t-146 57t-61 144q1 87 61 144t146 57t146 -57t61 -144zM692 1233q0 55 -34 91t-89 36t-89 -36t-34 -91t34 -91t89 -36t89 36t34 91zM227 903v-504q0 -163 85.5 -253.5t244.5 -90.5q157 0 249.5 95.5t92.5 248.5v504q0 12 9.5 21.5
t21.5 9.5h28q12 0 21.5 -9.5t9.5 -21.5v-872q0 -12 -9.5 -21.5t-21.5 -9.5h-28q-12 0 -21.5 9.5t-9.5 21.5v155q-42 -96 -137 -153.5t-221 -57.5q-187 0 -295.5 111.5t-108.5 296.5v520q0 12 9.5 21.5t21.5 9.5h29q12 0 21 -9.5t9 -21.5z" />
    <glyph glyph-name="Uhungarumlaut" unicode="&#x170;" horiz-adv-x="1437" 
d="M723 1884h53q11 0 16 -8t1 -18l-144 -261q-13 -26 -35 -26h-32q-26 0 -17 24l115 260q10 29 43 29zM1001 1884h54q11 0 15.5 -8t0.5 -18l-143 -261q-13 -26 -35 -26h-33q-25 0 -16 24l114 260q10 29 43 29zM1260 1403v-922q0 -232 -148 -369t-393 -137t-393 135.5
t-148 366.5v926q0 12 9.5 21.5t21.5 9.5h31q12 0 21 -9.5t9 -21.5v-932q0 -194 127 -305t322 -111q125 0 226 47.5t162.5 143.5t61.5 225v932q0 12 9.5 21.5t21.5 9.5h29q12 0 21.5 -9.5t9.5 -21.5z" />
    <glyph glyph-name="uhungarumlaut" unicode="&#x171;" 
d="M573 1384h54q11 0 15.5 -8t0.5 -18l-143 -260q-14 -27 -35 -27h-33q-25 0 -16 25l114 260q9 28 43 28zM852 1384h53q11 0 16 -8t1 -18l-144 -260q-14 -27 -35 -27h-32q-26 0 -17 25l115 260q9 28 43 28zM227 903v-504q0 -163 85.5 -253.5t244.5 -90.5q157 0 249.5 95.5
t92.5 248.5v504q0 12 9.5 21.5t21.5 9.5h28q12 0 21.5 -9.5t9.5 -21.5v-872q0 -12 -9.5 -21.5t-21.5 -9.5h-28q-12 0 -21.5 9.5t-9.5 21.5v155q-42 -96 -137 -153.5t-221 -57.5q-187 0 -295.5 111.5t-108.5 296.5v520q0 12 9.5 21.5t21.5 9.5h29q12 0 21 -9.5t9 -21.5z" />
    <glyph glyph-name="Uogonek" unicode="&#x172;" horiz-adv-x="1437" 
d="M905 -336q-72 0 -111.5 37.5t-39.5 99.5q0 82 88 185q-72 -11 -123 -11q-245 0 -393 135.5t-148 366.5v926q0 12 9.5 21.5t21.5 9.5h31q12 0 21 -9.5t9 -21.5v-932q0 -194 127 -305t322 -111q125 0 226 47.5t162.5 143.5t61.5 225v932q0 12 9.5 21.5t21.5 9.5h29
q12 0 21.5 -9.5t9.5 -21.5v-922q0 -171 -83 -292.5t-233 -176.5q-104 -125 -104 -202q0 -78 84 -78q32 0 59 8q10 4 17.5 -3t5.5 -18l-2 -20q0 -17 -34 -26t-65 -9z" />
    <glyph glyph-name="uogonek" unicode="&#x173;" 
d="M895 -377q-72 0 -112 37.5t-40 99.5q0 65 49.5 133t112.5 121q-6 6 -6 17v155q-42 -96 -137 -153.5t-221 -57.5q-187 0 -295.5 111.5t-108.5 296.5v520q0 12 9.5 21.5t21.5 9.5h29q12 0 21 -9.5t9 -21.5v-504q0 -163 85.5 -253.5t244.5 -90.5q157 0 249.5 95.5
t92.5 248.5v504q0 12 9.5 21.5t21.5 9.5h28q12 0 21.5 -9.5t9.5 -21.5v-872q0 -12 -9.5 -21.5t-21.5 -9.5q-49 -49 -89 -118.5t-40 -112.5q0 -78 84 -78q33 0 60 8q10 4 17 -3t5 -18l-2 -20q0 -17 -33.5 -26t-64.5 -9z" />
    <glyph glyph-name="Wcircumflex" unicode="&#x174;" horiz-adv-x="2070" 
d="M1026 1884h18q28 0 48 -26l182 -261q6 -11 1.5 -18.5t-15.5 -7.5h-35q-25 0 -39 20l-152 203l-151 -203q-17 -20 -39 -20h-35q-12 0 -16.5 7.5t2.5 18.5l182 261q8 15 17.5 20.5t31.5 5.5zM2034 1405l-441 -1376q-10 -29 -41 -29h-49q-31 0 -41 29l-428 1284l-426 -1284
q-10 -29 -41 -29h-49q-31 0 -41 29l-440 1376q-4 10 2.5 19.5t17.5 9.5h41q23 0 33 -29l410 -1305l432 1305q10 29 39 29h47q29 0 39 -29l432 -1299l407 1299q10 29 33 29h43q12 0 18.5 -9.5t2.5 -19.5z" />
    <glyph glyph-name="wcircumflex" unicode="&#x175;" horiz-adv-x="1497" 
d="M739 1384h19q18 0 26.5 -5.5t20.5 -20.5l182 -260q6 -10 1.5 -18.5t-15.5 -8.5h-35q-24 0 -39 21l-151 202l-152 -202q-18 -21 -39 -21h-35q-12 0 -16.5 8.5t2.5 18.5l182 260q8 15 17.5 20.5t31.5 5.5zM748 825l-261 -796q-10 -29 -41 -29h-51q-31 0 -41 29l-307 876
q-4 10 2.5 19.5t18.5 9.5h45q24 0 34 -23l275 -825l266 819q10 29 39 29h45q27 0 37 -29l266 -819l273 823q9 25 34 25h48q12 0 18.5 -9t1.5 -20l-307 -876q-10 -29 -41 -29h-53q-31 0 -41 29z" />
    <glyph glyph-name="Ycircumflex" unicode="&#x176;" horiz-adv-x="1243" 
d="M612 1884h19q18 0 26.5 -5.5t20.5 -20.5l182 -261q6 -11 1.5 -18.5t-15.5 -7.5h-35q-25 0 -39 20l-151 203l-152 -203q-17 -20 -39 -20h-35q-12 0 -16.5 7.5t2.5 18.5l182 261q8 15 17.5 20.5t31.5 5.5zM575 31v606l-532 772q-6 11 -1.5 18t15.5 7h56q25 0 41 -25
l464 -682h9l465 682q16 25 38 25h60q12 0 15 -9t-3 -16l-534 -772v-606q0 -12 -9.5 -21.5t-21.5 -9.5h-31q-12 0 -21.5 9.5t-9.5 21.5z" />
    <glyph glyph-name="ycircumflex" unicode="&#x177;" horiz-adv-x="923" 
d="M457 1384h18q18 0 26.5 -5.5t20.5 -20.5l183 -260q6 -10 1 -18.5t-16 -8.5h-35q-24 0 -39 21l-151 202l-152 -202q-18 -21 -39 -21h-34q-12 0 -17 8.5t2 18.5l183 260q8 15 17.5 20.5t31.5 5.5zM186 -442q-62 0 -116 23.5t-82 56.5q-16 23 4 43l14 16q18 18 49 -10
q41 -34 68 -44t67 -10q117 0 172 156l80 211h-20q-24 0 -33 20l-334 885q-4 10 2.5 19.5t18.5 9.5h45q27 0 37 -29l309 -837l307 837q10 29 37 29h45q13 0 19.5 -9t1.5 -20l-441 -1159q-32 -85 -94 -136.5t-156 -51.5z" />
    <glyph glyph-name="Ydieresis" unicode="&#x178;" horiz-adv-x="1243" 
d="M377 1655q0 35 26.5 61.5t61.5 26.5t61.5 -26.5t26.5 -61.5t-26.5 -61.5t-61.5 -26.5t-61.5 26.5t-26.5 61.5zM686 1655q0 35 26.5 61.5t61.5 26.5t61.5 -26.5t26.5 -61.5t-26.5 -61.5t-61.5 -26.5t-61.5 26.5t-26.5 61.5zM575 31v606l-532 772q-6 11 -1.5 18t15.5 7h56
q25 0 41 -25l464 -682h9l465 682q16 25 38 25h60q12 0 15 -9t-3 -16l-534 -772v-606q0 -12 -9.5 -21.5t-21.5 -9.5h-31q-12 0 -21.5 9.5t-9.5 21.5z" />
    <glyph glyph-name="Zacute" unicode="&#x179;" horiz-adv-x="1198" 
d="M762 1884h53q11 0 15.5 -8t0.5 -18l-143 -261q-13 -26 -35 -26h-32q-26 0 -17 24l115 260q10 29 43 29zM1128 0h-1069q-30 0 -30 31v14q0 29 26 61l946 1242h-878q-12 0 -21.5 9t-9.5 21v25q0 12 9.5 21.5t21.5 9.5h964q31 0 31 -31v-14q0 -33 -33 -72l-933 -1231h976
q12 0 21.5 -9.5t9.5 -21.5v-24q0 -12 -9.5 -21.5t-21.5 -9.5z" />
    <glyph glyph-name="zacute" unicode="&#x17a;" horiz-adv-x="874" 
d="M575 1384h54q11 0 15.5 -8t0.5 -18l-143 -260q-14 -27 -35 -27h-33q-25 0 -16 25l114 260q9 28 43 28zM780 844l-620 -766h631q12 0 21 -9.5t9 -21.5v-16q0 -12 -9 -21.5t-21 -9.5h-711q-12 0 -21.5 9.5t-9.5 21.5v20q0 24 17 41l618 764h-567q-12 0 -21.5 9.5t-9.5 21.5
v16q0 12 9.5 21.5t21.5 9.5h649q12 0 21.5 -9.5t9.5 -21.5v-18q0 -24 -17 -41z" />
    <glyph glyph-name="Zdotaccent" unicode="&#x17b;" horiz-adv-x="1198" 
d="M618 1597q-39 0 -66.5 28t-27.5 69q0 38 28 66t66 28t66.5 -28t28.5 -66q0 -41 -28 -69t-67 -28zM1128 0h-1069q-30 0 -30 31v14q0 29 26 61l946 1242h-878q-12 0 -21.5 9t-9.5 21v25q0 12 9.5 21.5t21.5 9.5h964q31 0 31 -31v-14q0 -33 -33 -72l-933 -1231h976
q12 0 21.5 -9.5t9.5 -21.5v-24q0 -12 -9.5 -21.5t-21.5 -9.5z" />
    <glyph glyph-name="zdotaccent" unicode="&#x17c;" horiz-adv-x="874" 
d="M432 1098q-39 0 -66.5 27.5t-27.5 68.5q0 38 28 66t66 28t66 -28t28 -66q0 -41 -27.5 -68.5t-66.5 -27.5zM780 844l-620 -766h631q12 0 21 -9.5t9 -21.5v-16q0 -12 -9 -21.5t-21 -9.5h-711q-12 0 -21.5 9.5t-9.5 21.5v20q0 24 17 41l618 764h-567q-12 0 -21.5 9.5
t-9.5 21.5v16q0 12 9.5 21.5t21.5 9.5h649q12 0 21.5 -9.5t9.5 -21.5v-18q0 -24 -17 -41z" />
    <glyph glyph-name="Zcaron" unicode="&#x17d;" horiz-adv-x="1198" 
d="M629 1571h-19q-22 0 -31.5 5.5t-17.5 20.5l-182 261q-7 10 -2.5 18t16.5 8h35q22 0 39 -20l151 -203l152 203q14 20 39 20h35q11 0 15.5 -8t-1.5 -18l-182 -261q-12 -15 -20.5 -20.5t-26.5 -5.5zM1128 0h-1069q-30 0 -30 31v14q0 29 26 61l946 1242h-878q-12 0 -21.5 9
t-9.5 21v25q0 12 9.5 21.5t21.5 9.5h964q31 0 31 -31v-14q0 -33 -33 -72l-933 -1231h976q12 0 21.5 -9.5t9.5 -21.5v-24q0 -12 -9.5 -21.5t-21.5 -9.5z" />
    <glyph glyph-name="zcaron" unicode="&#x17e;" horiz-adv-x="874" 
d="M442 1071h-18q-22 0 -31.5 6t-17.5 21l-182 260q-7 10 -2.5 18t16.5 8h35q22 0 39 -20l151 -203l152 203q14 20 39 20h34q11 0 16 -8t-1 -18l-183 -260q-12 -15 -21 -21t-26 -6zM780 844l-620 -766h631q12 0 21 -9.5t9 -21.5v-16q0 -12 -9 -21.5t-21 -9.5h-711
q-12 0 -21.5 9.5t-9.5 21.5v20q0 24 17 41l618 764h-567q-12 0 -21.5 9.5t-9.5 21.5v16q0 12 9.5 21.5t21.5 9.5h649q12 0 21.5 -9.5t9.5 -21.5v-18q0 -24 -17 -41z" />
    <glyph glyph-name="longs" unicode="&#x17f;" horiz-adv-x="468" 
d="M295 1184v-1153q0 -12 -9.5 -21.5t-21.5 -9.5h-28q-12 0 -21.5 9.5t-9.5 21.5v825h-152q-12 0 -21 9.5t-9 21.5v16q0 12 9 21.5t21 9.5h152v246q0 133 77 203.5t187 70.5q106 0 180 -53q20 -15 2 -39l-14 -19q-17 -19 -47 0q-57 33 -123 33q-78 0 -125 -52t-47 -140z" />
    <glyph glyph-name="florin" unicode="&#x192;" horiz-adv-x="837" 
d="M332 729v451q0 90 39 153.5t97.5 92t127.5 28.5q106 0 180 -53q10 -6 11 -19t-7 -20l-14 -16q-21 -21 -49 -3q-57 33 -123 33q-78 0 -125 -52t-47 -140v-455h217q12 0 21.5 -9.5t9.5 -21.5v-16q0 -12 -9.5 -21.5t-21.5 -9.5h-217v-735q0 -90 -39 -153.5t-97.5 -92
t-127.5 -28.5q-107 0 -181 53q-10 6 -11 19t7 20l15 16q21 21 49 2q57 -33 123 -33q78 0 125 52.5t47 140.5v739h-182q-12 0 -21.5 9.5t-9.5 21.5v16q0 12 9.5 21.5t21.5 9.5h182z" />
    <glyph glyph-name="Scommaaccent" unicode="&#x218;" horiz-adv-x="1222" 
d="M614 1458q150 0 275 -51.5t211 -149.5q19 -22 -4 -38l-21 -17q-20 -10 -28 -7.5t-21 15.5q-164 170 -412 170q-109 0 -198 -33.5t-145 -103t-56 -162.5q0 -44 11 -80t39 -71.5t81.5 -64.5t132.5 -50l330 -90q175 -47 250.5 -136t75.5 -220q0 -73 -32.5 -142t-95 -126
t-165.5 -91.5t-232 -34.5q-102 0 -194 24t-157.5 63t-110.5 78.5t-72 80.5q-6 10 -4 22.5t12 18.5l25 17q25 15 45 -11q69 -92 186 -153.5t272 -61.5q204 0 317 92.5t113 219.5q0 110 -62.5 176.5t-199.5 103.5l-336 92q-321 85 -321 340q0 168 139.5 274.5t351.5 106.5z
M510 -455l72 150q-35 11 -56.5 38t-21.5 62q0 44 29.5 73.5t72.5 29.5q42 0 72.5 -31.5t30.5 -75.5q0 -16 -4 -34t-9 -32.5t-16 -36t-17 -33t-21 -34.5t-19.5 -30t-21 -30t-17.5 -24q-1 -2 -4.5 -5.5l-5 -5t-4 -4.5t-4 -4.5t-4 -3t-4.5 -2.5t-4.5 -1t-5 0.5t-5.5 1.5l-17 8
q-19 8 -16 24z" />
    <glyph glyph-name="scommaaccent" unicode="&#x219;" horiz-adv-x="897" 
d="M440 961q200 0 340 -119q18 -18 -2 -39l-14 -17q-20 -20 -45 -2q-43 31 -74 49t-86 34t-117 16q-118 0 -185 -51t-67 -127q0 -129 179 -162l184 -33q146 -26 209 -88.5t63 -171.5q0 -47 -21.5 -93.5t-63.5 -88t-115 -67.5t-164 -26q-129 0 -226 41t-155 109q-8 10 -7 23
t11 20l22 18q26 19 48 -6q64 -64 136.5 -95.5t176.5 -31.5q120 0 193 58t73 135t-49 120t-156 62l-172 31q-132 23 -195 82.5t-63 158.5q0 115 100.5 188t241.5 73zM362 -455l72 150q-35 11 -56.5 38t-21.5 62q0 44 30 73.5t73 29.5q41 0 71.5 -31.5t30.5 -75.5
q0 -16 -4 -34t-9 -32.5t-16 -36t-17 -33t-21 -34.5t-19.5 -30t-21 -30t-17.5 -24q-1 -2 -4.5 -5.5l-5 -5t-4 -4.5t-4 -4.5t-4 -3t-4.5 -2.5t-4.5 -1t-5 0.5t-5.5 1.5l-16 8q-20 9 -17 24z" />
    <glyph glyph-name="uni021A" unicode="&#x21a;" horiz-adv-x="1253" 
d="M27 1378v25q0 12 9 21.5t21 9.5h1139q12 0 21.5 -9.5t9.5 -21.5v-25q0 -12 -9.5 -21t-21.5 -9h-524v-1317q0 -12 -9.5 -21.5t-21.5 -9.5h-31q-12 0 -21 9.5t-9 21.5v1317h-523q-12 0 -21 9t-9 21zM532 -455l72 150q-35 11 -56.5 38t-21.5 62q0 44 30 73.5t73 29.5
q41 0 71.5 -31.5t30.5 -75.5q0 -16 -4 -34t-9 -32.5t-16 -36t-17 -33t-21 -34.5t-19.5 -30t-21 -30t-17.5 -24q-1 -2 -4.5 -5.5l-5 -5t-4 -4.5t-4 -4.5t-4 -3t-4.5 -2.5t-4.5 -1t-5 0.5t-5.5 1.5l-16 8q-20 9 -17 24z" />
    <glyph glyph-name="uni021B" unicode="&#x21b;" horiz-adv-x="669" 
d="M201 252v604h-152q-12 0 -21.5 9.5t-9.5 21.5v16q0 12 9.5 21.5t21.5 9.5h152v326q0 12 9 21t21 9h29q12 0 21.5 -9t9.5 -21v-326h311q12 0 21.5 -9.5t9.5 -21.5v-16q0 -12 -9.5 -21.5t-21.5 -9.5h-311v-596q0 -90 41.5 -141t124.5 -51q68 0 133 36q17 11 28 10t21 -14
l12 -20q15 -20 -6 -35q-69 -55 -196 -55q-103 0 -175.5 65.5t-72.5 196.5zM303 -455l72 150q-35 11 -56.5 38t-21.5 62q0 44 29.5 73.5t72.5 29.5q42 0 72.5 -31.5t30.5 -75.5q0 -16 -4 -34t-9 -32.5t-16 -36t-17 -33t-21 -34.5t-19.5 -30t-21 -30t-17.5 -24
q-1 -2 -4.5 -5.5l-5 -5t-4 -4.5t-4 -4.5t-4 -3t-4.5 -2.5t-4.5 -1t-5 0.5t-5.5 1.5l-17 8q-19 8 -16 24z" />
    <glyph glyph-name="dotlessj" unicode="&#x237;" horiz-adv-x="393" 
d="M180 934h29q12 0 21.5 -9.5t9.5 -21.5v-1073q0 -74 -22 -128.5t-60.5 -85t-83.5 -44.5t-97 -14q-105 0 -180 53q-19 11 -4 37l10 16q14 26 43 10q62 -41 129 -41q175 0 175 193v1077q0 12 9 21.5t21 9.5z" />
    <glyph glyph-name="circumflex" unicode="&#x2c6;" horiz-adv-x="595" 
d="M289 1384h18q18 0 26.5 -5.5t20.5 -20.5l183 -260q6 -10 1 -18.5t-16 -8.5h-35q-23 0 -38 21l-152 202l-152 -202q-18 -21 -39 -21h-34q-12 0 -17 8.5t2 18.5l183 260q8 15 17.5 20.5t31.5 5.5z" />
    <glyph glyph-name="caron" unicode="&#x2c7;" horiz-adv-x="595" 
d="M307 1071h-18q-22 0 -31.5 6t-17.5 21l-183 260q-7 10 -2 18t17 8h34q22 0 39 -20l152 -203l152 203q14 20 38 20h35q11 0 16 -8t-1 -18l-183 -260q-12 -15 -21 -21t-26 -6z" />
    <glyph glyph-name="breve" unicode="&#x2d8;" horiz-adv-x="538" 
d="M268 1061q-95 0 -152 50t-57 136v10q0 23 23 23h33q22 0 22 -23v-4q0 -58 36.5 -88t94.5 -30t94.5 30t36.5 88v4q0 23 23 23h33q22 0 22 -23v-10q0 -86 -57 -136t-152 -50z" />
    <glyph glyph-name="dotaccent" unicode="&#x2d9;" horiz-adv-x="278" 
d="M139 1098q-39 0 -66.5 27.5t-27.5 68.5q0 38 28 66t66 28t66 -28t28 -66q0 -41 -27.5 -68.5t-66.5 -27.5z" />
    <glyph glyph-name="ring" unicode="&#x2da;" horiz-adv-x="532" 
d="M473 1233q-1 -87 -61 -144t-146 -57t-146 57t-61 144q1 87 61 144t146 57t146 -57t61 -144zM389 1233q0 55 -34 91t-89 36t-89 -36t-34 -91t34 -91t89 -36t89 36t34 91z" />
    <glyph glyph-name="ogonek" unicode="&#x2db;" horiz-adv-x="458" 
d="M100 -240q0 71 55.5 144t120.5 121l35 -5l6 -18q-51 -51 -91 -120.5t-40 -112.5q0 -78 84 -78q33 0 60 8q10 4 17 -3t5 -18l-2 -20q0 -17 -33.5 -26t-64.5 -9q-72 0 -112 37.5t-40 99.5z" />
    <glyph glyph-name="tilde" unicode="&#x2dc;" horiz-adv-x="610" 
d="M422 1102q-38 0 -128.5 36t-109.5 36q-21 0 -33.5 -10t-29.5 -40q-16 -29 -41 -16l-14 6q-11 5 -16 16t-1 21q43 104 137 104q38 0 128.5 -35.5t109.5 -35.5q21 0 33.5 9.5t29.5 39.5q16 29 41 16l15 -6q11 -5 15.5 -16t0.5 -21q-43 -104 -137 -104z" />
    <glyph glyph-name="hungarumlaut" unicode="&#x2dd;" horiz-adv-x="618" 
d="M252 1384h53q11 0 16 -8t1 -18l-144 -260q-14 -27 -35 -27h-32q-26 0 -17 25l115 260q9 28 43 28zM530 1384h54q11 0 15.5 -8t0.5 -18l-143 -260q-13 -27 -35 -27h-33q-25 0 -16 25l114 260q9 28 43 28z" />
    <glyph glyph-name="pi" unicode="&#x3c0;" horiz-adv-x="1329" 
d="M817 252v604h-522v-825q0 -12 -9.5 -21.5t-21.5 -9.5h-28q-12 0 -21.5 9.5t-9.5 21.5v825h-154q-12 0 -21.5 9.5t-9.5 21.5v16q0 12 9.5 21.5t21.5 9.5h1168q12 0 21 -9.5t9 -21.5v-16q0 -12 -9 -21.5t-21 -9.5h-312v-596q0 -90 41.5 -141t124.5 -51q68 0 133 36
q17 11 28 10t21 -14l13 -20q15 -20 -6 -35q-69 -55 -197 -55q-103 0 -175.5 65.5t-72.5 196.5z" />
    <glyph glyph-name="Wgrave" unicode="&#x1e80;" horiz-adv-x="2070" 
d="M846 1884h53q33 0 43 -29l115 -260q9 -24 -17 -24h-32q-22 0 -35 26l-144 261q-4 10 1 18t16 8zM2034 1405l-441 -1376q-10 -29 -41 -29h-49q-31 0 -41 29l-428 1284l-426 -1284q-10 -29 -41 -29h-49q-31 0 -41 29l-440 1376q-4 10 2.5 19.5t17.5 9.5h41q23 0 33 -29
l410 -1305l432 1305q10 29 39 29h47q29 0 39 -29l432 -1299l407 1299q10 29 33 29h43q12 0 18.5 -9.5t2.5 -19.5z" />
    <glyph glyph-name="wgrave" unicode="&#x1e81;" horiz-adv-x="1497" 
d="M561 1384h53q34 0 43 -28l115 -260q9 -25 -16 -25h-33q-21 0 -35 27l-143 260q-4 10 0.5 18t15.5 8zM748 825l-261 -796q-10 -29 -41 -29h-51q-31 0 -41 29l-307 876q-4 10 2.5 19.5t18.5 9.5h45q24 0 34 -23l275 -825l266 819q10 29 39 29h45q27 0 37 -29l266 -819
l273 823q9 25 34 25h48q12 0 18.5 -9t1.5 -20l-307 -876q-10 -29 -41 -29h-53q-31 0 -41 29z" />
    <glyph glyph-name="Wacute" unicode="&#x1e82;" horiz-adv-x="2070" 
d="M1178 1884h53q11 0 15.5 -8t0.5 -18l-143 -261q-13 -26 -35 -26h-33q-25 0 -16 24l115 260q10 29 43 29zM2034 1405l-441 -1376q-10 -29 -41 -29h-49q-31 0 -41 29l-428 1284l-426 -1284q-10 -29 -41 -29h-49q-31 0 -41 29l-440 1376q-4 10 2.5 19.5t17.5 9.5h41
q23 0 33 -29l410 -1305l432 1305q10 29 39 29h47q29 0 39 -29l432 -1299l407 1299q10 29 33 29h43q12 0 18.5 -9.5t2.5 -19.5z" />
    <glyph glyph-name="wacute" unicode="&#x1e83;" horiz-adv-x="1497" 
d="M893 1384h53q11 0 16 -8t1 -18l-144 -260q-13 -27 -35 -27h-32q-26 0 -17 25l115 260q9 28 43 28zM748 825l-261 -796q-10 -29 -41 -29h-51q-31 0 -41 29l-307 876q-4 10 2.5 19.5t18.5 9.5h45q24 0 34 -23l275 -825l266 819q10 29 39 29h45q27 0 37 -29l266 -819
l273 823q9 25 34 25h48q12 0 18.5 -9t1.5 -20l-307 -876q-10 -29 -41 -29h-53q-31 0 -41 29z" />
    <glyph glyph-name="Wdieresis" unicode="&#x1e84;" horiz-adv-x="2070" 
d="M791 1655q0 35 26.5 61.5t61.5 26.5t61.5 -26.5t26.5 -61.5t-26.5 -61.5t-61.5 -26.5t-61.5 26.5t-26.5 61.5zM1100 1655q0 35 26.5 61.5t61.5 26.5t61.5 -26.5t26.5 -61.5t-26.5 -61.5t-61.5 -26.5t-61.5 26.5t-26.5 61.5zM2034 1405l-441 -1376q-10 -29 -41 -29h-49
q-31 0 -41 29l-428 1284l-426 -1284q-10 -29 -41 -29h-49q-31 0 -41 29l-440 1376q-4 10 2.5 19.5t17.5 9.5h41q23 0 33 -29l410 -1305l432 1305q10 29 39 29h47q29 0 39 -29l432 -1299l407 1299q10 29 33 29h43q12 0 18.5 -9.5t2.5 -19.5z" />
    <glyph glyph-name="wdieresis" unicode="&#x1e85;" horiz-adv-x="1497" 
d="M506 1155q0 35 26.5 61.5t61.5 26.5t61.5 -26.5t26.5 -61.5t-26.5 -61.5t-61.5 -26.5t-61.5 26.5t-26.5 61.5zM815 1155q0 35 26.5 61.5t61.5 26.5t61.5 -26.5t26.5 -61.5t-26.5 -61.5t-61.5 -26.5t-61.5 26.5t-26.5 61.5zM748 825l-261 -796q-10 -29 -41 -29h-51
q-31 0 -41 29l-307 876q-4 10 2.5 19.5t18.5 9.5h45q24 0 34 -23l275 -825l266 819q10 29 39 29h45q27 0 37 -29l266 -819l273 823q9 25 34 25h48q12 0 18.5 -9t1.5 -20l-307 -876q-10 -29 -41 -29h-53q-31 0 -41 29z" />
    <glyph glyph-name="Ygrave" unicode="&#x1ef2;" horiz-adv-x="1243" 
d="M432 1884h53q33 0 43 -29l115 -260q9 -24 -16 -24h-33q-22 0 -35 26l-143 261q-4 10 0.5 18t15.5 8zM575 31v606l-532 772q-6 11 -1.5 18t15.5 7h56q25 0 41 -25l464 -682h9l465 682q16 25 38 25h60q12 0 15 -9t-3 -16l-534 -772v-606q0 -12 -9.5 -21.5t-21.5 -9.5h-31
q-12 0 -21.5 9.5t-9.5 21.5z" />
    <glyph glyph-name="ygrave" unicode="&#x1ef3;" horiz-adv-x="923" 
d="M276 1384h54q34 0 43 -28l114 -260q9 -25 -16 -25h-33q-22 0 -35 27l-143 260q-4 10 0.5 18t15.5 8zM186 -442q-62 0 -116 23.5t-82 56.5q-16 23 4 43l14 16q18 18 49 -10q41 -34 68 -44t67 -10q117 0 172 156l80 211h-20q-24 0 -33 20l-334 885q-4 10 2.5 19.5t18.5 9.5
h45q27 0 37 -29l309 -837l307 837q10 29 37 29h45q13 0 19.5 -9t1.5 -20l-441 -1159q-32 -85 -94 -136.5t-156 -51.5z" />
    <glyph glyph-name="endash" unicode="&#x2013;" horiz-adv-x="1136" 
d="M975 483h-813q-12 0 -21.5 9.5t-9.5 21.5v29q0 12 9.5 21t21.5 9h813q12 0 21.5 -9t9.5 -21v-29q0 -12 -9.5 -21.5t-21.5 -9.5z" />
    <glyph glyph-name="emdash" unicode="&#x2014;" horiz-adv-x="2099" 
d="M1937 483h-1775q-12 0 -21.5 9.5t-9.5 21.5v29q0 12 9.5 21t21.5 9h1775q12 0 21.5 -9t9.5 -21v-29q0 -12 -9.5 -21.5t-21.5 -9.5z" />
    <glyph glyph-name="quoteleft" unicode="&#x2018;" horiz-adv-x="446" 
d="M322 1421l-78 -166q38 -11 62 -40.5t24 -69.5q0 -49 -33.5 -82t-81.5 -33q-47 0 -80 34.5t-33 84.5q0 97 138 283q28 36 47 26l16 -8q25 -14 19 -29z" />
    <glyph glyph-name="quoteright" unicode="&#x2019;" horiz-adv-x="440" 
d="M133 1069l78 166q-38 11 -62 41t-24 70q0 49 33.5 81.5t81.5 32.5q47 0 79.5 -34.5t32.5 -84.5q0 -44 -27 -103.5t-50.5 -94.5t-59.5 -84q-9 -12 -14 -17t-15.5 -11t-17.5 1l-16 8q-25 14 -19 29z" />
    <glyph glyph-name="quotesinglbase" unicode="&#x201a;" horiz-adv-x="485" 
d="M137 -186l78 166q-38 11 -62 40.5t-24 69.5q0 49 33.5 82t81.5 33q47 0 79.5 -34.5t32.5 -84.5q0 -98 -137 -283q-28 -36 -47 -26l-16 8q-25 14 -19 29z" />
    <glyph glyph-name="quotedblleft" unicode="&#x201c;" horiz-adv-x="743" 
d="M618 1421l-77 -166q38 -11 62 -40.5t24 -69.5q0 -49 -33.5 -82t-81.5 -33q-47 0 -80 34.5t-33 84.5q0 97 138 283q28 36 47 26l16 -8q24 -14 18 -29zM322 1421l-78 -166q38 -11 62 -40.5t24 -69.5q0 -49 -33.5 -82t-81.5 -33q-47 0 -80 34.5t-33 84.5q0 97 138 283
q28 36 47 26l16 -8q25 -14 19 -29z" />
    <glyph glyph-name="quotedblright" unicode="&#x201d;" horiz-adv-x="737" 
d="M133 1069l78 166q-38 11 -62 41t-24 70q0 49 33.5 81.5t81.5 32.5q47 0 79.5 -34.5t32.5 -84.5q0 -44 -27 -103.5t-50.5 -94.5t-59.5 -84q-9 -12 -14 -17t-15.5 -11t-17.5 1l-16 8q-25 14 -19 29zM430 1069l78 166q-38 11 -62 41t-24 70q0 49 33.5 81.5t81.5 32.5
q47 0 79.5 -34.5t32.5 -84.5q0 -44 -27 -103.5t-50.5 -94.5t-59.5 -84q-9 -12 -14 -17t-15.5 -11t-17.5 1l-16 8q-25 14 -19 29z" />
    <glyph glyph-name="quotedblbase" unicode="&#x201e;" horiz-adv-x="782" 
d="M137 -186l78 166q-38 11 -62 40.5t-24 69.5q0 49 33.5 82t81.5 33q47 0 79.5 -34.5t32.5 -84.5q0 -98 -137 -283q-28 -36 -47 -26l-16 8q-25 14 -19 29zM434 -186l78 166q-38 11 -62 40.5t-24 69.5q0 49 33.5 82t81.5 33q47 0 79.5 -34.5t32.5 -84.5q0 -98 -137 -283
q-28 -36 -47 -26l-16 8q-25 14 -19 29z" />
    <glyph glyph-name="dagger" unicode="&#x2020;" horiz-adv-x="841" 
d="M465 1010v-672q0 -12 -9.5 -21.5t-21.5 -9.5h-26q-12 0 -21.5 9.5t-9.5 21.5v672h-254q-12 0 -21.5 9t-9.5 21v23q0 12 9.5 21.5t21.5 9.5h254v309q0 12 9.5 21.5t21.5 9.5h26q12 0 21.5 -9.5t9.5 -21.5v-309h254q12 0 21.5 -9.5t9.5 -21.5v-23q0 -12 -9.5 -21t-21.5 -9
h-254z" />
    <glyph glyph-name="daggerdbl" unicode="&#x2021;" horiz-adv-x="841" 
d="M465 442v-411q0 -12 -9.5 -21.5t-21.5 -9.5h-26q-12 0 -21.5 9.5t-9.5 21.5v411h-254q-12 0 -21.5 9.5t-9.5 21.5v23q0 12 9.5 21t21.5 9h254v381h-254q-12 0 -21.5 9.5t-9.5 21.5v23q0 12 9.5 21t21.5 9h254v412q0 12 9.5 21.5t21.5 9.5h26q12 0 21.5 -9.5t9.5 -21.5
v-412h254q12 0 21.5 -9t9.5 -21v-23q0 -12 -9.5 -21.5t-21.5 -9.5h-254v-381h254q12 0 21.5 -9t9.5 -21v-23q0 -12 -9.5 -21.5t-21.5 -9.5h-254z" />
    <glyph glyph-name="bullet" unicode="&#x2022;" horiz-adv-x="677" 
d="M340 578q-66 0 -112 45.5t-46 111.5q0 63 46 109.5t112 46.5q63 0 109.5 -46.5t46.5 -109.5q0 -65 -46 -111t-110 -46z" />
    <glyph glyph-name="ellipsis" unicode="&#x2026;" horiz-adv-x="1470" 
d="M240 -25q-47 0 -81 34t-34 81t34 81t81 34t80.5 -34t33.5 -81t-33.5 -81t-80.5 -34zM735 -25q-47 0 -80.5 34t-33.5 81t33.5 81t80.5 34t81 -34t34 -81t-34 -81t-81 -34zM1231 -25q-47 0 -81 34t-34 81t34 81t81 34t81 -34t34 -81t-34 -81t-81 -34z" />
    <glyph glyph-name="perthousand" unicode="&#x2030;" horiz-adv-x="2127" 
d="M338 1448q121 0 192.5 -103t71.5 -268q0 -168 -71 -271.5t-193 -103.5q-121 0 -190.5 103t-69.5 272q0 166 69.5 268.5t190.5 102.5zM274 0h-22q-19 0 -26.5 14t7.5 37l926 1352q22 31 51 31h23q19 0 26 -14.5t-8 -37.5l-925 -1351q-22 -31 -52 -31zM166 1075
q0 -142 48 -218.5t124 -76.5t125 76.5t49 218.5q0 143 -49 218t-125 75t-124 -75t-48 -218zM1792 729q121 0 192.5 -103t71.5 -268q0 -168 -71 -271t-193 -103q-121 0 -190.5 103t-69.5 271q0 166 69.5 268.5t190.5 102.5zM1137 729q121 0 192.5 -103t71.5 -268
q0 -168 -71 -271t-193 -103q-121 0 -190.5 103t-69.5 271q0 166 69.5 268.5t190.5 102.5zM1620 356q0 -142 48 -218.5t124 -76.5t125 76.5t49 218.5q0 143 -49 218t-125 75t-124 -75t-48 -218zM965 356q0 -142 48 -218.5t124 -76.5t125 76.5t49 218.5q0 143 -49 218t-125 75
t-124 -75t-48 -218z" />
    <glyph glyph-name="guilsinglleft" unicode="&#x2039;" horiz-adv-x="520" 
d="M381 76h-41q-31 0 -45 26l-182 361q-12 27 0 53l182 363q14 26 45 26h41q11 0 16.5 -7.5t-0.5 -18.5l-188 -390l188 -387q4 -10 -0.5 -18t-15.5 -8z" />
    <glyph glyph-name="guilsinglright" unicode="&#x203a;" horiz-adv-x="520" 
d="M406 463l-183 -361q-12 -26 -45 -26h-41q-11 0 -15.5 8t-0.5 18l188 387l-188 390q-6 11 -0.5 18.5t16.5 7.5h41q33 0 45 -26l183 -363q15 -26 0 -53z" />
    <glyph glyph-name="fraction" unicode="&#x2044;" horiz-adv-x="204" 
d="M608 1382l-932 -1343q-12 -20 -22.5 -29.5t-26.5 -9.5h-16q-19 0 -25.5 15.5t6.5 35.5l932 1344q12 20 22.5 29.5t26.5 9.5h17q19 0 25 -16t-7 -36z" />
    <glyph glyph-name="zerosuperior" unicode="&#x2070;" horiz-adv-x="655" 
d="M68 1376q0 167 69.5 270t190.5 103t190.5 -103t69.5 -270q0 -168 -69.5 -270t-190.5 -102t-190.5 102t-69.5 270zM156 1376q0 -142 48.5 -219.5t123.5 -77.5t123.5 77.5t48.5 219.5q0 143 -48 220t-124 77t-124 -77t-48 -220z" />
    <glyph glyph-name="foursuperior" unicode="&#x2074;" horiz-adv-x="638" 
d="M446 1020h-30q-25 0 -25 22v191h-340q-20 0 -20 22v21q0 23 10 37l317 407q15 21 33 21h55q10 0 17.5 -7.5t7.5 -15.5v-418h117q20 0 20 -24v-19q0 -10 -6 -17t-14 -7h-117v-191q0 -22 -25 -22zM115 1300h276v355z" />
    <glyph glyph-name="fivesuperior" unicode="&#x2075;" horiz-adv-x="618" 
d="M303 1008q-84 0 -148 34t-96 91q-12 19 9 32l30 21q24 15 35 -10q57 -93 170 -93q76 0 125 49t49 117q0 73 -49 118.5t-123 45.5q-76 0 -135 -47q-22 -16 -39 -10l-35 8q-14 6 -14 22l24 334q3 21 25 21h377q22 0 22 -23v-32q0 -23 -22 -23h-332l-16 -227q71 51 164 51
q104 0 172.5 -65.5t68.5 -168.5q0 -106 -72.5 -175.5t-189.5 -69.5z" />
    <glyph glyph-name="sixsuperior" unicode="&#x2076;" horiz-adv-x="622" 
d="M582 1251q0 -106 -75.5 -173.5t-187.5 -67.5q-116 0 -188 69.5t-72 184.5q0 66 23 131t66.5 125.5t88.5 109t105 103.5q8 8 25 8h55q10 0 13 -8.5t-3 -14.5l-32 -32l-47 -47t-46 -48t-51 -56.5t-41 -52t-35 -52.5q65 53 162 53q94 0 167 -63t73 -169zM145 1249
q0 -74 49 -121t125 -47q78 0 127.5 46.5t49.5 121.5q0 73 -49.5 119.5t-127.5 46.5q-75 0 -124.5 -46.5t-49.5 -119.5z" />
    <glyph glyph-name="sevensuperior" unicode="&#x2077;" horiz-adv-x="550" 
d="M190 1020h-53q-10 0 -14 7t2 15l307 621h-385q-22 0 -22 25v30q0 8 6 15.5t16 7.5h457q20 0 20 -21v-24q0 -18 -8 -37l-299 -619q-9 -20 -27 -20z" />
    <glyph glyph-name="eightsuperior" unicode="&#x2078;" horiz-adv-x="663" 
d="M332 1004q-123 0 -197 59.5t-74 153.5q0 66 42 116.5t110 67.5q-55 19 -87 60.5t-32 97.5q0 85 67 137.5t171 52.5t170.5 -52.5t66.5 -137.5q0 -56 -32.5 -97.5t-87.5 -60.5q68 -17 110.5 -67.5t42.5 -116.5q0 -93 -74 -153t-196 -60zM332 1681q-71 0 -113.5 -35
t-42.5 -90q0 -52 43 -88t113 -36t112.5 35.5t42.5 88.5q0 55 -42 90t-113 35zM332 1362q-84 0 -134.5 -40.5t-50.5 -102.5t50.5 -103t134.5 -41t134 41t50 103t-50 102.5t-134 40.5z" />
    <glyph glyph-name="ninesuperior" unicode="&#x2079;" horiz-adv-x="622" 
d="M41 1509q0 106 75 174t187 68q116 0 188 -69.5t72 -184.5q0 -66 -23 -131t-66.5 -125.5t-88 -109t-104.5 -103.5q-8 -8 -25 -8h-55q-10 0 -13.5 8t2.5 14l27.5 27.5l37.5 37.5t39 40t44 47.5t38.5 45t38 48.5t27.5 43q-65 -53 -161 -53q-94 0 -167 62.5t-73 168.5z
M477 1511q0 74 -49 121t-125 47q-78 0 -127 -46.5t-49 -121.5q0 -73 49 -119t127 -46q76 0 125 46t49 119z" />
    <glyph glyph-name="zeroinferior" unicode="&#x2080;" horiz-adv-x="655" 
d="M68 49q0 167 69.5 270t190.5 103t190.5 -103t69.5 -270q0 -168 -69.5 -270.5t-190.5 -102.5t-190.5 102.5t-69.5 270.5zM156 49q0 -142 48.5 -219.5t123.5 -77.5t123.5 77.5t48.5 219.5q0 143 -48 220t-124 77t-124 -77t-48 -220z" />
    <glyph glyph-name="oneinferior" unicode="&#x2081;" horiz-adv-x="346" 
d="M31 274v35q0 17 16 17h29q35 0 57 11t33 44q5 15 11 22.5t11.5 9t16.5 1.5h14q21 0 21 -19v-680q0 -22 -23 -22h-35q-22 0 -22 22v543h-113q-16 0 -16 16z" />
    <glyph glyph-name="twoinferior" unicode="&#x2082;" horiz-adv-x="616" 
d="M535 -307h-451q-23 0 -23 20v35q0 14 15 29l225 198q82 74 119 125t37 107q0 64 -44.5 102.5t-109.5 38.5q-68 0 -111.5 -39t-58.5 -98q-6 -29 -33 -23l-30 9q-26 7 -17 28q18 86 87.5 141.5t164.5 55.5q101 0 168.5 -58.5t67.5 -150.5q0 -65 -37.5 -129t-126.5 -139
l-201 -172h359q10 0 17 -7.5t7 -15.5v-35q0 -22 -24 -22z" />
    <glyph glyph-name="threeinferior" unicode="&#x2083;" horiz-adv-x="630" 
d="M313 352q-101 0 -149 -90q-12 -21 -33 -12l-25 10q-23 13 -14 31q25 55 84.5 93t140.5 38q94 0 156 -52.5t62 -133.5q0 -111 -107 -160q67 -19 104 -66.5t37 -115.5q0 -94 -71.5 -156t-186.5 -62q-120 0 -192 62.5t-72 161.5v14q0 14 14 14h52q14 0 14 -14v-10
q0 -66 48.5 -111t135.5 -45q79 0 126.5 43t47.5 105t-43.5 100.5t-119.5 38.5h-23q-23 0 -23 22v23q0 24 23 24h23q59 0 95 35.5t36 87.5q0 53 -37.5 89t-102.5 36z" />
    <glyph glyph-name="fourinferior" unicode="&#x2084;" horiz-adv-x="638" 
d="M446 -307h-30q-25 0 -25 22v191h-340q-20 0 -20 22v21q0 23 10 37l317 407q15 21 33 21h55q10 0 17.5 -7.5t7.5 -15.5v-418h117q20 0 20 -24v-19q0 -10 -6 -17t-14 -7h-117v-191q0 -22 -25 -22zM115 -27h276v355z" />
    <glyph glyph-name="fiveinferior" unicode="&#x2085;" horiz-adv-x="618" 
d="M303 -319q-84 0 -148 33.5t-96 90.5q-13 20 9 33l30 21q24 15 35 -11q56 -92 170 -92q76 0 125 49t49 117q0 73 -49 118.5t-123 45.5q-76 0 -135 -47q-22 -16 -39 -10l-35 8q-14 6 -14 22l24 334q3 21 25 21h377q22 0 22 -23v-33q0 -22 -22 -22h-332l-16 -227
q71 51 164 51q104 0 172.5 -65.5t68.5 -168.5q0 -106 -72.5 -175.5t-189.5 -69.5z" />
    <glyph glyph-name="sixinferior" unicode="&#x2086;" horiz-adv-x="622" 
d="M582 -76q0 -106 -75.5 -173.5t-187.5 -67.5q-116 0 -188 69.5t-72 184.5q0 66 23 131t66.5 125.5t88.5 109t105 103.5q8 8 25 8h55q10 0 13 -8.5t-3 -14.5l-27.5 -27.5l-37.5 -37.5t-39 -40t-44 -47.5t-38.5 -45t-38 -48.5t-27.5 -43q66 54 162 54q94 0 167 -63t73 -169z
M145 -78q0 -74 49 -121t125 -47q78 0 127.5 46.5t49.5 121.5q0 73 -49.5 119.5t-127.5 46.5q-75 0 -124.5 -46.5t-49.5 -119.5z" />
    <glyph glyph-name="seveninferior" unicode="&#x2087;" horiz-adv-x="550" 
d="M190 -307h-53q-10 0 -14 7.5t2 14.5l307 621h-385q-22 0 -22 24v31q0 8 6 15.5t16 7.5h457q20 0 20 -21v-24q0 -18 -8 -37l-299 -619q-9 -20 -27 -20z" />
    <glyph glyph-name="eightinferior" unicode="&#x2088;" horiz-adv-x="663" 
d="M332 -324q-123 0 -197 59.5t-74 153.5q0 66 42 117t110 68q-55 19 -87 60t-32 97q0 85 67 138t171 53t170.5 -53t66.5 -138q0 -56 -32.5 -97t-87.5 -60q68 -17 110.5 -68t42.5 -117q0 -93 -74 -153t-196 -60zM332 354q-71 0 -113.5 -35t-42.5 -90q0 -53 43 -89t113 -36
t112.5 36t42.5 89q0 55 -42 90t-113 35zM332 35q-84 0 -134.5 -41t-50.5 -103t50.5 -102.5t134.5 -40.5t134 40.5t50 102.5t-50 103t-134 41z" />
    <glyph glyph-name="nineinferior" unicode="&#x2089;" horiz-adv-x="622" 
d="M41 182q0 106 75 174t187 68q116 0 188 -69.5t72 -184.5q0 -66 -23 -131t-66.5 -125.5t-88 -109t-104.5 -103.5q-8 -8 -25 -8h-55q-10 0 -13.5 8t2.5 14l27.5 27.5l37.5 37.5t39 40t44 47.5t38.5 45t38 48.5t27.5 43q-65 -53 -161 -53q-94 0 -167 62.5t-73 168.5z
M477 184q0 74 -49 121t-125 47q-78 0 -127 -46.5t-49 -121.5q0 -74 49 -120t127 -46q75 0 124.5 46.5t49.5 119.5z" />
    <glyph glyph-name="Euro" unicode="&#x20ac;" horiz-adv-x="1374" 
d="M801 -25q-221 0 -367.5 145t-197.5 392h-130q-12 0 -21 9.5t-9 21.5v24q0 12 9 21.5t21 9.5h117q-6 55 -6 119q0 59 6 117h-117q-12 0 -21 9t-9 21v25q0 12 9 21.5t21 9.5h130q51 249 196.5 393.5t370.5 144.5q305 0 461 -246q14 -25 -11 -41l-20 -12q-26 -16 -43 10
q-132 209 -387 209q-369 0 -469 -458h536q12 0 21.5 -9.5t9.5 -21.5v-25q0 -12 -9.5 -21t-21.5 -9h-551q-6 -58 -6 -117q0 -64 6 -119h551q12 0 21.5 -9.5t9.5 -21.5v-24q0 -12 -9.5 -21.5t-21.5 -9.5h-536q48 -211 167 -334t300 -123q257 0 389 209q17 26 43 10l20 -12
q25 -16 11 -41q-156 -246 -463 -246z" />
    <glyph glyph-name="litre" unicode="&#x2113;" horiz-adv-x="821" 
d="M498 -29q-130 0 -207.5 82t-77.5 219v260q-23 -14 -52 -32t-34 -21q-26 -14 -41 10l-10 19q-7 11 -4 23t14 20q23 14 72 45t55 35v522q0 150 71.5 228.5t192.5 78.5q110 0 179 -78.5t69 -201.5q0 -155 -93.5 -293t-326.5 -299v-303q0 -112 51 -173t144 -61q67 0 114.5 33
t63.5 102q7 26 31 23l26 -4q36 -9 25 -39q-22 -97 -94.5 -146t-167.5 -49zM633 1165q0 102 -44 156.5t-120 54.5q-74 0 -119 -56t-45 -157v-479q168 126 248 240.5t80 240.5z" />
    <glyph glyph-name="trademark" unicode="&#x2122;" horiz-adv-x="1810" 
d="M72 1384v19q0 12 9 21.5t21 9.5h623q12 0 21.5 -9.5t9.5 -21.5v-19q0 -12 -9.5 -21t-21.5 -9h-266v-588q0 -12 -9.5 -21.5t-21.5 -9.5h-29q-12 0 -21 9.5t-9 21.5v588h-267q-12 0 -21 9t-9 21zM1055 1405l213 -414l211 414q16 29 43 29h86q12 0 21 -9.5t9 -21.5v-637
q0 -12 -9 -21.5t-21 -9.5h-33q-12 0 -21.5 9.5t-9.5 21.5v575l-221 -426q-16 -28 -43 -28h-31q-27 0 -43 28l-223 426v-575q0 -12 -9.5 -21.5t-21.5 -9.5h-26q-12 0 -21.5 9.5t-9.5 21.5v637q0 12 9.5 21.5t21.5 9.5h86q27 0 43 -29z" />
    <glyph glyph-name="Omega" unicode="&#x2126;" horiz-adv-x="1376" 
d="M688 1458q164 0 296 -65t211 -191t79 -293q0 -93 -23.5 -172t-59.5 -133t-86 -98t-97 -69.5t-99 -43.5v-305h265q12 0 21 -9.5t9 -21.5v-26q0 -12 -9 -21.5t-21 -9.5h-324q-12 0 -21.5 9.5t-9.5 21.5v370q0 31 29 41q340 122 340 465q0 115 -43.5 207.5t-115.5 148.5
t-159.5 85.5t-181.5 29.5t-181.5 -29.5t-159.5 -85.5t-115.5 -148.5t-43.5 -207.5q0 -343 340 -465q29 -10 29 -41v-370q0 -12 -9.5 -21.5t-21.5 -9.5h-323q-12 0 -21.5 9.5t-9.5 21.5v26q0 12 9.5 21.5t21.5 9.5h264v305q-52 18 -99 43.5t-97 69.5t-86 98t-59.5 133
t-23.5 172q0 167 79 293t211 191t296 65z" />
    <glyph glyph-name="estimated" unicode="&#x212e;" horiz-adv-x="1800" 
d="M1698 705h-1270q-18 0 -18 -25v-352q0 -82 84 -150t198.5 -102.5t222.5 -34.5q156 0 291 52t232 153l3 3q7 8 11 11t11.5 5.5t17.5 2.5h43q10 0 13 -8t-3 -16q-111 -129 -270 -198t-349 -69q-171 0 -322 58.5t-257.5 158.5t-168 238t-61.5 291q0 151 60 286t165.5 234
t257.5 157t326 58q186 0 338.5 -56t253.5 -154.5t158.5 -229.5t63.5 -283q0 -12 -9.5 -21t-21.5 -9zM410 1069v-283q0 -18 18 -18h977q18 0 18 18v283q0 87 -42.5 152t-116 102.5t-161.5 55.5t-188 18q-75 0 -145 -11t-136 -36t-115.5 -62t-79 -93t-29.5 -126z" />
    <glyph glyph-name="onethird" unicode="&#x2153;" horiz-adv-x="1417" 
d="M1122 1382l-932 -1343q-12 -20 -22.5 -29.5t-26.5 -9.5h-16q-19 0 -25.5 15.5t6.5 35.5l932 1344q12 20 22.5 29.5t26.5 9.5h17q19 0 25 -16t-7 -36zM94 1294v35q0 17 17 17h28q35 0 57 11t33 44q5 15 11 22.5t11.5 9t16.5 1.5h15q20 0 20 -19v-680q0 -22 -22 -22h-35
q-23 0 -23 22v543h-112q-17 0 -17 16zM1085 655q-101 0 -149 -90q-12 -21 -33 -12l-24 10q-24 14 -15 31q25 55 85 93t141 38q94 0 155.5 -52.5t61.5 -133.5q0 -111 -107 -160q67 -19 104 -66.5t37 -115.5q0 -94 -71.5 -155.5t-186.5 -61.5q-120 0 -192 62t-72 161v14
q0 14 15 14h51q14 0 14 -14v-10q0 -66 48.5 -111t135.5 -45q79 0 126.5 43t47.5 105t-43.5 100.5t-119.5 38.5h-23q-22 0 -22 22v23q0 25 22 25h23q59 0 95 35t36 87q0 53 -37.5 89t-102.5 36z" />
    <glyph glyph-name="twothirds" unicode="&#x2154;" horiz-adv-x="1587" 
d="M571 717h-450q-23 0 -23 20v35q0 14 15 29l225 198q82 74 119 125t37 107q0 64 -44.5 102.5t-109.5 38.5q-68 0 -111.5 -39t-58.5 -98q-6 -29 -33 -23l-31 9q-25 6 -16 28q18 86 87.5 141.5t164.5 55.5q101 0 168.5 -58.5t67.5 -150.5q0 -65 -37.5 -129t-126.5 -139
l-201 -172h358q10 0 17.5 -7.5t7.5 -15.5v-35q0 -22 -25 -22zM1290 1382l-932 -1343q-12 -20 -22.5 -29.5t-26.5 -9.5h-16q-19 0 -25.5 15.5t6.5 35.5l932 1344q12 20 22.5 29.5t26.5 9.5h17q19 0 25 -16t-7 -36zM1253 655q-101 0 -149 -90q-12 -21 -33 -12l-24 10
q-24 14 -15 31q25 55 84.5 93t140.5 38q94 0 156 -52.5t62 -133.5q0 -111 -107 -160q67 -19 104 -66.5t37 -115.5q0 -94 -71.5 -155.5t-186.5 -61.5q-120 0 -192 62t-72 161v14q0 14 14 14h52q14 0 14 -14v-10q0 -66 48.5 -111t135.5 -45q79 0 126.5 43t47.5 105
t-43.5 100.5t-119.5 38.5h-23q-22 0 -22 22v23q0 25 22 25h23q59 0 95 35t36 87q0 53 -37.5 89t-102.5 36z" />
    <glyph glyph-name="oneeight" unicode="&#x215b;" horiz-adv-x="1507" 
d="M1133 1382l-932 -1343q-12 -20 -22.5 -29.5t-26.5 -9.5h-17q-19 0 -25 15.5t7 35.5l932 1344q12 20 22.5 29.5t26.5 9.5h16q19 0 25.5 -16t-6.5 -36zM90 1294v35q0 17 16 17h29q35 0 57 11t33 44q5 15 11 22.5t11.5 9t16.5 1.5h15q20 0 20 -19v-680q0 -22 -23 -22h-34
q-23 0 -23 22v543h-113q-16 0 -16 16zM1163 -16q-123 0 -196.5 59.5t-73.5 153.5q0 66 41.5 116.5t109.5 67.5q-55 19 -86.5 60.5t-31.5 97.5q0 85 66.5 137.5t170.5 52.5t171 -52.5t67 -137.5q0 -56 -33 -97.5t-88 -60.5q68 -17 111 -68t43 -116q0 -93 -74.5 -153
t-196.5 -60zM1163 662q-71 0 -113 -35t-42 -90q0 -53 42.5 -89t112.5 -36t113 36t43 89q0 55 -42.5 90t-113.5 35zM1163 342q-84 0 -134 -40.5t-50 -102.5t50 -103t134 -41t134.5 41t50.5 103t-50.5 102.5t-134.5 40.5z" />
    <glyph glyph-name="threeeights" unicode="&#x215c;" horiz-adv-x="1521" 
d="M1229 1382l-932 -1343q-12 -20 -22.5 -29.5t-26.5 -9.5h-17q-19 0 -25 15.5t7 35.5l932 1344q12 20 22.5 29.5t26.5 9.5h16q19 0 25.5 -16t-6.5 -36zM346 1382q-101 0 -149 -90q-12 -21 -33 -12l-25 10q-23 13 -14 31q25 55 84.5 93t140.5 38q94 0 155.5 -52.5
t61.5 -133.5q0 -112 -106 -160q67 -19 104 -66.5t37 -115.5q0 -94 -71.5 -155.5t-186.5 -61.5q-120 0 -192 62t-72 161v14q0 14 14 14h51q15 0 15 -14v-10q0 -66 48.5 -111t135.5 -45q79 0 126.5 43t47.5 105q0 61 -44 100t-120 39h-22q-23 0 -23 22v23q0 25 23 25h22
q59 0 95 35t36 87q0 53 -37 89t-102 36zM1176 -16q-123 0 -197 59.5t-74 153.5q0 66 42 116.5t110 67.5q-55 19 -87 60.5t-32 97.5q0 85 67 137.5t171 52.5t170.5 -52.5t66.5 -137.5q0 -56 -33 -97.5t-88 -60.5q68 -17 111 -68t43 -116q0 -93 -74 -153t-196 -60zM1176 662
q-71 0 -113.5 -35t-42.5 -90q0 -53 43 -89t113 -36t112.5 36t42.5 89q0 55 -42 90t-113 35zM1176 342q-84 0 -134.5 -40.5t-50.5 -102.5t50.5 -103t134.5 -41t134 41t50 103t-50 102.5t-134 40.5z" />
    <glyph glyph-name="fiveeights" unicode="&#x215d;" horiz-adv-x="1521" 
d="M1229 1380l-932 -1343q-12 -20 -22.5 -29.5t-26.5 -9.5h-17q-19 0 -25 15.5t7 35.5l932 1344q12 20 22.5 29.5t26.5 9.5h16q19 0 25.5 -16t-6.5 -36zM336 700q-84 0 -148 34t-96 91q-13 21 8 33l31 21q24 15 35 -11q56 -92 170 -92q76 0 125 49t49 117q0 73 -49 118.5
t-123 45.5q-76 0 -135 -47q-22 -16 -39 -10l-35 8q-14 6 -14 22l24 334q3 21 25 21h377q22 0 22 -23v-33q0 -22 -22 -22h-332l-16 -228q73 52 163 52q104 0 173 -65.5t69 -168.5q0 -106 -72.5 -176t-189.5 -70zM1176 -16q-123 0 -197 59.5t-74 153.5q0 66 42 116.5t110 67.5
q-55 19 -87 60.5t-32 97.5q0 85 67 137.5t171 52.5t170.5 -52.5t66.5 -137.5q0 -56 -33 -97.5t-88 -60.5q68 -17 111 -68t43 -116q0 -93 -74 -153t-196 -60zM1176 662q-71 0 -113.5 -35t-42.5 -90q0 -53 43 -89t113 -36t112.5 36t42.5 89q0 55 -42 90t-113 35zM1176 342
q-84 0 -134.5 -40.5t-50.5 -102.5t50.5 -103t134.5 -41t134 41t50 103t-50 102.5t-134 40.5z" />
    <glyph glyph-name="seveneights" unicode="&#x215e;" horiz-adv-x="1427" 
d="M1135 1382l-932 -1343q-12 -20 -22.5 -29.5t-26.5 -9.5h-17q-19 0 -25 15.5t7 35.5l932 1344q12 20 22.5 29.5t26.5 9.5h16q19 0 25.5 -16t-6.5 -36zM248 713h-53q-10 0 -14.5 7.5t1.5 14.5l307 621h-385q-22 0 -22 24v31q0 8 6 15.5t16 7.5h457q21 0 21 -21v-24
q0 -16 -9 -37l-299 -619q-9 -20 -26 -20zM1081 -16q-123 0 -196.5 59.5t-73.5 153.5q0 66 42 116.5t110 67.5q-55 19 -87 60.5t-32 97.5q0 85 66.5 137.5t170.5 52.5t171 -52.5t67 -137.5q0 -56 -33 -97.5t-88 -60.5q68 -17 111 -68t43 -116q0 -93 -74.5 -153t-196.5 -60z
M1081 662q-71 0 -113 -35t-42 -90q0 -53 42.5 -89t112.5 -36t113 36t43 89q0 55 -42.5 90t-113.5 35zM1081 342q-84 0 -134 -40.5t-50 -102.5t50 -103t134 -41t134.5 41t50.5 103t-50.5 102.5t-134.5 40.5z" />
    <glyph glyph-name="arrowup" unicode="&#x2191;" horiz-adv-x="1638" 
d="M322 1018l487 469q9 9 18 0l490 -469q22 -22 22 -41v-70q0 -10 -8 -13t-14 3l-455 438v-1360q0 -12 -9.5 -21t-21.5 -9h-24q-12 0 -21.5 9t-9.5 21v1360l-454 -436q-6 -6 -14.5 -3t-8.5 13v68q0 18 23 41z" />
    <glyph glyph-name="arrowdown" unicode="&#x2193;" horiz-adv-x="1638" 
d="M809 -51l-487 469q-23 23 -23 41v67q0 10 8.5 13.5t14.5 -2.5l454 -437v1360q0 12 9.5 21.5t21.5 9.5h24q12 0 21.5 -9.5t9.5 -21.5v-1360l455 439q6 6 14 2.5t8 -13.5v-69q0 -19 -22 -41l-490 -469q-9 -9 -18 0z" />
    <glyph glyph-name="arrowupleft" unicode="&#x2196;" horiz-adv-x="1802" 
d="M377 1399l676 14q31 0 45 -14l47 -47q6 -6 4 -14.5t-12 -8.5l-631 -14l1022 -1020q22 -23 0 -45l-17 -17q-23 -23 -45 0l-1020 1022l-12 -632q0 -8 -8 -11.5t-14 2.5l-50 50q-14 14 -14 45l14 675q0 15 15 15z" />
    <glyph glyph-name="arrowupright" unicode="&#x2197;" horiz-adv-x="1802" 
d="M748 1413l675 -14q15 0 15 -15l14 -675q0 -31 -14 -45l-49 -50q-6 -6 -14.5 -2.5t-8.5 11.5l-12 632l-1020 -1022q-22 -23 -45 0l-17 17q-22 22 0 45l1022 1020l-630 14q-10 0 -12.5 8.5t3.5 14.5l47 47q14 14 46 14z" />
    <glyph glyph-name="arrowdownright" unicode="&#x2198;" horiz-adv-x="1802" 
d="M1409 238l-676 -15q-30 0 -45 15l-47 47q-6 6 -4 14t12 8l631 15l-1022 1019q-22 23 0 45l16 17q22 23 45 0l1020 -1022l13 633q0 8 8 11t14 -3l49 -49q15 -15 15 -45l-15 -676q0 -14 -14 -14z" />
    <glyph glyph-name="arrowdownleft" unicode="&#x2199;" horiz-adv-x="1802" 
d="M1067 223l-676 15q-14 0 -14 14l-15 676q0 30 15 45l49 49q6 6 14.5 3t8.5 -11l12 -633l1020 1022q23 23 45 0l16 -17q22 -22 0 -45l-1022 -1019l631 -15q10 0 12 -8t-4 -14l-47 -47q-15 -15 -45 -15z" />
    <glyph glyph-name="partialdiff" unicode="&#x2202;" horiz-adv-x="1120" 
d="M555 -25q-130 0 -238 63t-171.5 176t-63.5 253q0 212 135.5 353t333.5 141q89 0 187.5 -42.5t156.5 -119.5q-56 130 -160 258.5t-210 218.5t-216 158q-7 4 -6.5 12t8.5 8l76 6q20 0 29 -6q45 -30 89.5 -62.5t108.5 -88.5t118.5 -114.5t111.5 -139t97 -163t65.5 -185.5
t25.5 -209q0 -150 -63 -268.5t-171.5 -183.5t-242.5 -65zM172 467q0 -173 108.5 -291.5t274.5 -118.5q167 0 275 118t108 292q0 175 -108 293.5t-275 118.5q-166 0 -274.5 -118.5t-108.5 -293.5z" />
    <glyph glyph-name="increment" unicode="&#x2206;" horiz-adv-x="1228" 
d="M76 88l471 1317q10 29 41 29h51q31 0 41 -29l473 -1317q8 -19 8 -39v-18q0 -12 -9.5 -21.5t-21.5 -9.5h-1032q-12 0 -21 9.5t-9 21.5v18q0 20 8 39zM614 1352l-444 -1266h889z" />
    <glyph glyph-name="product" unicode="&#x220f;" horiz-adv-x="1675" 
d="M102 717q0 209 100 378t268 262t368 93q202 0 369.5 -93t266.5 -262t99 -378q0 -208 -99 -376.5t-266.5 -261.5t-369.5 -93q-150 0 -285 55t-234.5 150.5t-158 232.5t-58.5 293zM1487 717q0 188 -88 340t-236 235.5t-325 83.5t-325.5 -83.5t-236.5 -235.5t-88 -340
q0 -141 51.5 -264t139.5 -209t207.5 -135.5t251.5 -49.5q177 0 325 83.5t236 235.5t88 339zM598 1159h287q152 0 236.5 -80t84.5 -196t-84.5 -196.5t-236.5 -80.5h-230v-315q0 -10 -8.5 -18.5t-19.5 -8.5h-29q-10 0 -18.5 8t-8.5 19v842q0 10 8 18t19 8zM1122 885
q0 94 -64 148t-165 54h-238v-409h238q100 0 164.5 56t64.5 151z" />
    <glyph glyph-name="summation" unicode="&#x2211;" horiz-adv-x="1120" 
d="M182 1348l426 -605q10 -17 10 -26q0 -10 -10 -27l-428 -604h821q12 0 21.5 -9.5t9.5 -21.5v-24q0 -12 -9.5 -21.5t-21.5 -9.5h-892q-12 0 -21.5 9.5t-9.5 21.5v24q0 26 12 41l434 621l-434 620q-12 15 -12 41v25q0 12 9.5 21.5t21.5 9.5h892q12 0 21.5 -9.5t9.5 -21.5
v-25q0 -12 -9.5 -21t-21.5 -9h-819z" />
    <glyph glyph-name="minus" unicode="&#x2212;" horiz-adv-x="1116" 
d="M975 743v-28q0 -12 -9.5 -21.5t-21.5 -9.5h-772q-12 0 -21.5 9.5t-9.5 21.5v28q0 12 9.5 21.5t21.5 9.5h772q12 0 21.5 -9.5t9.5 -21.5z" />
    <glyph glyph-name="radical" unicode="&#x221a;" horiz-adv-x="1298" 
d="M684 -225h-45q-32 0 -41 28l-324 772l-211 -102q-12 -6 -23.5 -1.5t-16.5 15.5l-13 27q-5 10 -1 22.5t16 18.5l268 125q12 6 25.5 3t17.5 -15l326 -795l520 1624q10 29 41 29h37q11 0 17.5 -9.5t2.5 -19.5l-555 -1694q-9 -28 -41 -28z" />
    <glyph glyph-name="infinity" unicode="&#x221e;" horiz-adv-x="1818" 
d="M506 1128q141 0 245 -83.5t158 -241.5q54 158 158.5 241.5t245.5 83.5q73 0 140.5 -28t121 -79t85.5 -130t32 -174t-32 -174.5t-85.5 -130.5t-121 -79t-140.5 -28q-141 0 -245.5 84t-158.5 242q-54 -158 -158 -242t-245 -84q-73 0 -140.5 28t-121 79t-85.5 130.5
t-32 174.5t32 174t85.5 130t121 79t140.5 28zM502 1042q-37 0 -74 -10t-75.5 -34t-68 -60t-48.5 -93t-19 -128t19 -128t48.5 -93t68 -60.5t75.5 -34.5t74 -10q58 0 104 13.5t93.5 48.5t90 100.5t80.5 163.5q-38 98 -80.5 163.5t-90 100t-93.5 48t-104 13.5zM1317 391
q37 0 74 10t75.5 34.5t68 60.5t48.5 93t19 128t-19 128t-48.5 93t-68 60t-75.5 34t-74 10q-58 0 -104.5 -13.5t-94 -48t-90 -100t-80.5 -163.5q38 -98 80.5 -163.5t90 -100.5t94 -48.5t104.5 -13.5z" />
    <glyph glyph-name="integral" unicode="&#x222b;" horiz-adv-x="804" 
d="M356 -88v1268q0 68 22.5 121.5t60.5 86t84.5 49.5t97.5 17q106 0 180 -53q20 -11 4 -39l-14 -19q-18 -20 -50 0q-57 33 -123 33q-78 0 -125 -52t-47 -140v-1268q0 -90 -39 -153.5t-97.5 -92t-127.5 -28.5q-106 0 -180 53q-20 11 -4 39l14 18q17 20 49 0q57 -33 123 -33
q78 0 125 52.5t47 140.5z" />
    <glyph glyph-name="approxequal" unicode="&#x2248;" horiz-adv-x="1124" 
d="M842 840q-37 -3 -273.5 34t-281.5 37q-21 0 -34 -9.5t-30 -39.5q-15 -25 -41 -16l-14 6q-11 5 -15.5 16t-0.5 21q43 104 137 104q38 0 272 -35.5t283 -35.5q21 0 33.5 9.5t29.5 39.5q16 29 41 16l15 -6q11 -5 15.5 -16t0.5 -21q-40 -96 -137 -104zM842 436
q-37 -3 -273.5 34.5t-281.5 37.5q-21 0 -34 -9.5t-30 -39.5q-16 -25 -41 -17l-14 7q-11 5 -15.5 15.5t-0.5 20.5q44 105 137 105q38 0 272 -36t283 -36q21 0 33.5 9.5t29.5 39.5q16 29 41 17l15 -6q11 -5 15.5 -16t0.5 -21q-41 -97 -137 -105z" />
    <glyph glyph-name="notequal" unicode="&#x2260;" horiz-adv-x="1107" 
d="M602 471v-164q0 -12 -9.5 -21.5t-21.5 -9.5h-34q-12 0 -21.5 9.5t-9.5 21.5v164h-334q-12 0 -21.5 9.5t-9.5 21.5v24q0 12 9.5 21.5t21.5 9.5h334v317h-334q-12 0 -21.5 9.5t-9.5 21.5v25q0 12 9.5 21.5t21.5 9.5h334v163q0 12 9.5 21.5t21.5 9.5h34q12 0 21.5 -9.5
t9.5 -21.5v-163h334q12 0 21.5 -9.5t9.5 -21.5v-25q0 -12 -9.5 -21.5t-21.5 -9.5h-334v-317h334q12 0 21.5 -9.5t9.5 -21.5v-24q0 -12 -9.5 -21.5t-21.5 -9.5h-334z" />
    <glyph glyph-name="lessequal" unicode="&#x2264;" horiz-adv-x="1157" 
d="M977 403v-38q0 -16 -9.5 -21.5t-19.5 0.5l-776 307q-37 17 -37 60q0 38 37 55l776 305q10 6 19.5 1t9.5 -21v-39q0 -23 -29 -33l-710 -270l710 -273q29 -10 29 -33zM975 55v-24q0 -12 -9.5 -21.5t-21.5 -9.5h-772q-12 0 -21.5 9.5t-9.5 21.5v24q0 12 9.5 21.5t21.5 9.5
h772q12 0 21.5 -9.5t9.5 -21.5z" />
    <glyph glyph-name="greaterequal" unicode="&#x2265;" horiz-adv-x="1157" 
d="M180 365v38q0 23 29 33l711 273l-711 270q-29 10 -29 33v39q0 16 9 21t20 -1l776 -305q37 -17 37 -55q0 -43 -37 -60l-776 -307q-11 -6 -20 -0.5t-9 21.5zM985 0h-772q-12 0 -21.5 9.5t-9.5 21.5v24q0 12 9.5 21.5t21.5 9.5h772q12 0 21.5 -9.5t9.5 -21.5v-24
q0 -12 -9.5 -21.5t-21.5 -9.5z" />
    <glyph glyph-name="filledbox" unicode="&#x25a0;" horiz-adv-x="1802" 
d="M1587 0h-1372q-12 0 -21.5 9.5t-9.5 21.5v1372q0 12 9.5 21.5t21.5 9.5h1372q12 0 21.5 -9.5t9.5 -21.5v-1372q0 -12 -9.5 -21.5t-21.5 -9.5z" />
    <glyph glyph-name="triagup" unicode="&#x25b2;" horiz-adv-x="1802" 
d="M1710 0h-1618q-11 0 -15.5 8t1.5 19l807 1380q6 11 16.5 11t16.5 -11l806 -1380q6 -11 1.5 -19t-15.5 -8z" />
    <glyph glyph-name="uni25B6" unicode="&#x25b6;" horiz-adv-x="1802" 
d="M231 -92v1618q0 11 8.5 15.5t18.5 -1.5l1380 -807q10 -6 10 -16.5t-10 -16.5l-1380 -806q-10 -6 -18.5 -1.5t-8.5 15.5z" />
    <glyph glyph-name="triagdn" unicode="&#x25bc;" horiz-adv-x="1802" 
d="M885 27l-807 1380q-6 11 -1.5 19t15.5 8h1618q11 0 15.5 -8t-1.5 -19l-806 -1380q-6 -11 -16.5 -11t-16.5 11z" />
    <glyph glyph-name="uni25C0" unicode="&#x25c0;" horiz-adv-x="1802" 
d="M162 733l1380 807q10 6 18.5 1.5t8.5 -15.5v-1618q0 -11 -8.5 -15.5t-18.5 1.5l-1380 806q-10 6 -10 16.5t10 16.5z" />
    <glyph glyph-name="lozenge" unicode="&#x25ca;" horiz-adv-x="1966" 
d="M1872 694l-866 -868q-22 -22 -45 0l-869 868q-22 22 0 45l869 869q23 22 45 0l866 -869q22 -23 0 -45z" />
    <glyph glyph-name="uni2B24" unicode="&#x2b24;" horiz-adv-x="1802" 
d="M1618 717q0 -145 -57 -278t-153 -229t-229 -153t-278 -57t-278 57t-229 153t-153 229t-57 278t57 278t153 229t229 153t278 57t278 -57t229 -153t153 -229t57 -278z" />
    <glyph glyph-name="logo.01" unicode="&#xe00f;" horiz-adv-x="2476" 
d="M1171 -332q-158 71 -307.5 166.5t-289 223t-243.5 267.5t-166.5 309t-62.5 339q0 153 55 292.5t154 243.5q185 191 482 191q249 0 454 -176q193 172 445 172q139 0 261.5 -49t213.5 -144q98 -103 152.5 -242.5t54.5 -291.5q0 -146 -45.5 -289.5t-125.5 -267t-184 -237
t-226.5 -207.5t-245.5 -168.5t-249 -131.5q-37 -17 -63.5 -17t-63.5 17z" />
    <glyph glyph-name="commaaccent" unicode="&#xf6c3;" horiz-adv-x="477" 
d="M150 -455l71 150q-35 11 -56.5 38t-21.5 62q0 44 30 73.5t73 29.5q41 0 71.5 -31.5t30.5 -75.5q0 -16 -4 -34t-9 -32.5t-16 -36t-17 -33t-21 -34.5t-19.5 -30t-21 -30t-17.5 -24q-1 -2 -4.5 -5.5l-5 -5t-4 -4.5t-4 -4.5t-4 -3t-4.5 -2.5t-4.5 -1t-5 0.5t-5.5 1.5l-16 8
q-19 8 -16 24z" />
    <glyph glyph-name="NULL" horiz-adv-x="0" 
 />
    <glyph glyph-name="apostrophe" horiz-adv-x="493" 
d="M137 1071l72 164q-33 11 -54.5 41t-21.5 70q0 47 34 80.5t81 33.5t79.5 -34.5t32.5 -84.5q0 -44 -27 -103.5t-50.5 -94.5t-59.5 -84q-28 -36 -47 -27l-20 10q-29 10 -19 29z" />
    <glyph glyph-name="apostrophemod" horiz-adv-x="419" 
d="M131 1081l72 150q-35 11 -56.5 38t-21.5 62q0 44 29.5 73.5t72.5 29.5q42 0 72.5 -31.5t30.5 -75.5q0 -16 -4 -34t-9 -32.5t-16 -36t-17 -33t-21 -34.5t-19.5 -30t-21 -30t-17.5 -24q-1 -2 -4.5 -5.5l-5 -5t-4 -4.5t-4 -4.5t-4 -3t-4.5 -2.5t-4.5 -1t-5 0.5t-5.5 1.5
l-17 8q-19 8 -16 24z" />
    <glyph glyph-name="eight.dnom" horiz-adv-x="663" 
d="M332 -16q-123 0 -197 59.5t-74 153.5q0 66 42 116.5t110 67.5q-55 19 -87 60.5t-32 97.5q0 85 67 137.5t171 52.5t170.5 -52.5t66.5 -137.5q0 -56 -32.5 -97.5t-87.5 -60.5q68 -17 110.5 -67.5t42.5 -116.5q0 -93 -74 -153t-196 -60zM332 662q-71 0 -113.5 -35t-42.5 -90
q0 -53 43 -89t113 -36t112.5 36t42.5 89q0 55 -42 90t-113 35zM332 342q-84 0 -134.5 -40.5t-50.5 -102.5t50.5 -103t134.5 -41t134 41t50 103t-50 102.5t-134 40.5z" />
    <glyph glyph-name="eight.numr" horiz-adv-x="663" 
d="M332 696q-123 0 -197 59.5t-74 153.5q0 66 42 117t110 68q-55 19 -87 60t-32 97q0 85 67 138t171 53t170.5 -53t66.5 -138q0 -56 -32.5 -97t-87.5 -60q68 -17 110.5 -68t42.5 -117q0 -93 -74 -153t-196 -60zM332 1374q-71 0 -113.5 -35t-42.5 -90q0 -53 43 -89t113 -36
t112.5 36t42.5 89q0 55 -42 90t-113 35zM332 1055q-84 0 -134.5 -41t-50.5 -103t50.5 -102.5t134.5 -40.5t134 40.5t50 102.5t-50 103t-134 41z" />
    <glyph glyph-name="eight.onum" horiz-adv-x="1216" 
d="M608 -25q-230 0 -375 114t-145 294q0 126 86 230t238 147q-120 40 -186 130t-66 202q0 162 128 264t320 102t320.5 -102t128.5 -264q0 -112 -65.5 -202t-184.5 -130q150 -43 235.5 -147t85.5 -230q0 -180 -145 -294t-375 -114zM608 797q163 0 263 86.5t100 208.5
t-100 208t-263 86t-262.5 -86t-99.5 -208t99.5 -208.5t262.5 -86.5zM608 717q-195 0 -312.5 -97t-117.5 -237t117.5 -237t312.5 -97q197 0 313.5 96.5t116.5 237.5t-116.5 237.5t-313.5 96.5z" />
    <glyph glyph-name="eight.tnum" horiz-adv-x="1216" 
d="M608 -25q-230 0 -375 114t-145 294q0 126 86 230t238 147q-120 40 -186 130t-66 202q0 162 128 264t320 102t320.5 -102t128.5 -264q0 -112 -65.5 -202t-184.5 -130q150 -43 235.5 -147t85.5 -230q0 -180 -145 -294t-375 -114zM608 797q163 0 263 86.5t100 208.5
t-100 208t-263 86t-262.5 -86t-99.5 -208t99.5 -208.5t262.5 -86.5zM608 717q-195 0 -312.5 -97t-117.5 -237t117.5 -237t312.5 -97q197 0 313.5 96.5t116.5 237.5t-116.5 237.5t-313.5 96.5z" />
    <glyph glyph-name="emdash.alt" horiz-adv-x="2142" 
d="M1960 483h-1776q-12 0 -21 9.5t-9 21.5v29q0 12 9 21t21 9h1776q12 0 21.5 -9t9.5 -21v-29q0 -12 -9.5 -21.5t-21.5 -9.5z" />
    <glyph glyph-name="endash.alt" horiz-adv-x="1179" 
d="M997 483h-813q-12 0 -21 9.5t-9 21.5v29q0 12 9 21t21 9h813q12 0 21.5 -9t9.5 -21v-29q0 -12 -9.5 -21.5t-21.5 -9.5z" />
    <glyph glyph-name="exclamdown.alt" horiz-adv-x="528" 
d="M264 1460q47 0 81 -33.5t34 -80.5t-34 -81t-81 -34t-80.5 34t-33.5 81t33.5 80.5t80.5 33.5zM307 948l12 -915q0 -12 -9 -21.5t-21 -9.5h-47q-12 0 -21.5 9.5t-9.5 21.5l14 915q0 12 9.5 21.5t21.5 9.5h20q12 0 21.5 -9.5t9.5 -21.5z" />
    <glyph glyph-name="five.dnom" horiz-adv-x="618" 
d="M303 -12q-84 0 -148 34t-96 91q-12 19 9 32l30 21q24 15 35 -10q57 -93 170 -93q76 0 125 49t49 117q0 73 -49 118.5t-123 45.5q-76 0 -135 -47q-22 -16 -39 -10l-35 8q-14 6 -14 23l24 333q3 21 25 21h377q22 0 22 -23v-32q0 -23 -22 -23h-332l-16 -227q71 51 164 51
q104 0 172.5 -65.5t68.5 -168.5q0 -106 -72.5 -175.5t-189.5 -69.5z" />
    <glyph glyph-name="five.numr" horiz-adv-x="618" 
d="M303 700q-84 0 -148 34t-96 91q-13 20 9 33l30 21q24 15 35 -11q56 -92 170 -92q76 0 125 49t49 117q0 73 -49 118.5t-123 45.5q-76 0 -135 -47q-22 -16 -39 -10l-35 8q-14 6 -14 22l24 334q3 21 25 21h377q22 0 22 -23v-33q0 -22 -22 -22h-332l-16 -228q73 52 164 52
q104 0 172.5 -65.5t68.5 -168.5q0 -106 -72.5 -176t-189.5 -70z" />
    <glyph glyph-name="five.onum" horiz-adv-x="1138" 
d="M545 -377q-166 0 -289 73.5t-174 192.5q-5 10 -1 22.5t17 18.5l29 13q30 10 39 -17q45 -98 144 -162.5t239 -64.5q178 0 292.5 117t114.5 280q0 170 -114 278.5t-287 108.5q-174 0 -326 -123q-25 -22 -51 -16l-16 4q-30 9 -27 33l55 670q2 12 11.5 21t21.5 9h731
q12 0 21.5 -9t9.5 -21v-25q0 -12 -9.5 -21.5t-21.5 -9.5h-688l-45 -553q156 117 348 117q210 0 345 -128t135 -329q0 -204 -142.5 -341.5t-361.5 -137.5z" />
    <glyph glyph-name="five.tnum" horiz-adv-x="1216" 
d="M590 -25q-166 0 -289 74t-174 193q-5 10 -1 22.5t17 18.5l29 12q30 10 39 -16q45 -98 144.5 -163t238.5 -65q178 0 292.5 117.5t114.5 280.5q0 170 -114 278.5t-287 108.5q-174 0 -326 -123q-26 -23 -51 -17l-16 4q-30 9 -27 33l56 670q2 12 11 21.5t21 9.5h731
q12 0 21.5 -9.5t9.5 -21.5v-25q0 -12 -9.5 -21t-21.5 -9h-688l-45 -553q155 116 348 116q210 0 345 -128t135 -328q0 -204 -142.5 -342t-361.5 -138z" />
    <glyph glyph-name="four.dnom" horiz-adv-x="638" 
d="M446 0h-30q-11 0 -18 6.5t-7 16.5v190h-340q-20 0 -20 23v20q0 23 10 37l317 407q15 21 33 21h55q10 0 17.5 -7.5t7.5 -15.5v-417h117q20 0 20 -25v-18q0 -10 -6 -17.5t-14 -7.5h-117v-190q0 -10 -7 -16.5t-18 -6.5zM115 281h276v354z" />
    <glyph glyph-name="four.numr" horiz-adv-x="638" 
d="M446 713h-30q-25 0 -25 22v191h-340q-20 0 -20 22v21q0 23 10 37l317 407q15 21 33 21h55q10 0 17.5 -7.5t7.5 -15.5v-418h117q20 0 20 -24v-19q0 -10 -6 -17t-14 -7h-117v-191q0 -22 -25 -22zM115 993h276v355z" />
    <glyph glyph-name="four.onum" horiz-adv-x="1150" 
d="M780 90h-710q-12 0 -21.5 9.5t-9.5 21.5v31q0 19 16 41l686 864q18 24 50 24h47q12 0 21 -9t9 -21v-881h207q12 0 21.5 -9.5t9.5 -21.5v-18q0 -12 -9.5 -21.5t-21.5 -9.5h-207v-412q0 -12 -9 -21t-21 -9h-27q-12 0 -21.5 9t-9.5 21v412zM137 170h643v811z" />
    <glyph glyph-name="four.tnum" horiz-adv-x="1216" 
d="M821 449h-710q-12 0 -21.5 9t-9.5 21v25q0 19 16 41l686 864q19 25 49 25h43q12 0 21.5 -9.5t9.5 -21.5v-881h211q12 0 21.5 -9t9.5 -21v-13q0 -12 -9.5 -21t-21.5 -9h-211v-418q0 -12 -9.5 -21.5t-21.5 -9.5h-22q-12 0 -21.5 9.5t-9.5 21.5v418zM174 522h647v815z" />
    <glyph glyph-name="greater.alt" horiz-adv-x="1966" 
d="M1300 1219l469 -488q9 -9 0 -18l-469 -490q-22 -22 -40 -22h-70q-10 0 -13 8t3 14l438 455h-1360q-12 0 -21.5 9.5t-9.5 21.5v24q0 12 9.5 21.5t21.5 9.5h1360l-436 455q-6 6 -3 14t13 8h68q18 0 40 -22z" />
    <glyph glyph-name="guillemotleft.alt" horiz-adv-x="897" 
d="M406 281h-41q-32 0 -46 26l-182 361q-12 26 0 53l182 362q15 27 46 27h41q11 0 16.5 -8t-0.5 -19l-189 -389l189 -387q4 -10 -0.5 -18t-15.5 -8zM713 281h-41q-31 0 -45 26l-183 361q-12 26 0 53l183 362q15 27 45 27h41q11 0 16.5 -8t-0.5 -19l-188 -389l188 -387
q4 -10 -0.5 -18t-15.5 -8z" />
    <glyph glyph-name="guillemotright.alt" horiz-adv-x="897" 
d="M758 668l-183 -361q-12 -26 -45 -26h-41q-11 0 -15.5 8t-0.5 18l189 387l-189 389q-6 11 -0.5 19t16.5 8h41q33 0 45 -27l183 -362q15 -27 0 -53zM451 668l-183 -361q-12 -26 -45 -26h-41q-11 0 -15.5 8t-0.5 18l188 387l-188 389q-6 11 -0.5 19t16.5 8h41q33 0 45 -27
l183 -362q15 -27 0 -53z" />
    <glyph glyph-name="guilsinglleft.alt" horiz-adv-x="589" 
d="M406 281h-41q-32 0 -46 26l-182 361q-12 26 0 53l182 362q15 27 46 27h41q11 0 16.5 -8t-0.5 -19l-189 -389l189 -387q4 -10 -0.5 -18t-15.5 -8z" />
    <glyph glyph-name="guilsinglright.alt" horiz-adv-x="589" 
d="M451 668l-183 -361q-12 -26 -45 -26h-41q-11 0 -15.5 8t-0.5 18l188 387l-188 389q-6 11 -0.5 19t16.5 8h41q33 0 45 -27l183 -362q15 -27 0 -53z" />
    <glyph glyph-name="hyphen.alt" horiz-adv-x="710" 
d="M537 606h-363q-12 0 -21.5 9.5t-9.5 21.5v29q0 12 9.5 21t21.5 9h363q12 0 21 -9t9 -21v-29q0 -12 -9 -21.5t-21 -9.5z" />
    <glyph glyph-name="i.TRK" horiz-adv-x="393" 
d="M197 1184q-39 0 -67 27.5t-28 68.5q0 38 28.5 66t66.5 28t66 -28t28 -66q0 -41 -27.5 -68.5t-66.5 -27.5zM211 0h-29q-12 0 -21 9.5t-9 21.5v872q0 12 9 21.5t21 9.5h29q12 0 21.5 -9.5t9.5 -21.5v-872q0 -12 -9.5 -21.5t-21.5 -9.5z" />
    <glyph glyph-name="less.alt" horiz-adv-x="1966" 
d="M195 731l469 488q22 22 41 22h67q10 0 13 -8t-3 -14l-436 -455h1360q12 0 21.5 -9.5t9.5 -21.5v-24q0 -12 -9.5 -21.5t-21.5 -9.5h-1360l438 -455q6 -6 3 -14t-13 -8h-69q-19 0 -41 22l-469 490q-9 9 0 18z" />
    </font>
</defs>
</svg>
