<?xml version="1.0" standalone="no"?>
<!DOCTYPE svg PUBLIC "-//W3C//DTD SVG 1.1//EN" "http://www.w3.org/Graphics/SVG/1.1/DTD/svg11.dtd" >
<svg xmlns="http://www.w3.org/2000/svg" xmlns:xlink="http://www.w3.org/1999/xlink" version="1.1">
<metadata>
Created by FontForge 20170731 at Sat Apr 30 16:38:20 2022
 By Aleksey,,,
Copyright (c) 2001 by Henrik Kubel, A2/SW/HK + A2-TYPE. All rights reserved.
</metadata>
<defs>
<font id="Boing-Light" horiz-adv-x="1183" >
  <font-face 
    font-family="Boing-Light"
    font-weight="300"
    font-stretch="normal"
    units-per-em="2048"
    panose-1="2 11 3 3 3 0 0 2 0 4"
    ascent="1536"
    descent="-512"
    x-height="950"
    cap-height="1434"
    bbox="-415.333 -529.542 2388 1980"
    underline-thickness="102"
    underline-position="-460"
    unicode-range="U+000D-FB04"
  />
<missing-glyph horiz-adv-x="0" 
 />
    <glyph glyph-name="f_f" unicode="ff" horiz-adv-x="1077" 
d="M817 1165v-215h207q14 0 24.5 -11t10.5 -24v-51q0 -14 -10.5 -24.5t-24.5 -10.5h-207v-794q0 -13 -10.5 -24t-24.5 -11h-71q-13 0 -24 11t-11 24v794h-330v-794q0 -14 -10 -24.5t-23 -10.5h-73q-14 0 -24.5 11t-10.5 24v794h-148q-13 0 -22.5 10.5t-9.5 24.5v51
q0 14 9.5 24.5t22.5 10.5h148v217q0 70 22 123.5t59 83.5t81 45t92 15h45q39 0 39 -37v-60q0 -30 -31 -30h-23q-143 -3 -143 -146v-211h330v219q0 143 85.5 219t205.5 76q124 0 207 -65q11 -8 12.5 -22t-8.5 -25l-33 -43q-16 -27 -58 -4q-52 32 -114 32q-69 0 -112.5 -47
t-43.5 -125z" />
    <glyph glyph-name="fi" unicode="fi" horiz-adv-x="954" 
d="M346 829v-794q0 -14 -10 -24.5t-23 -10.5h-73q-14 0 -24.5 11t-10.5 24v794h-148q-32 0 -32 33v53q0 14 9.5 24.5t22.5 10.5h148v219q0 143 85 219t204 76q125 0 208 -65q10 -7 11.5 -22t-6.5 -25l-33 -43q-19 -27 -60 -4q-52 32 -114 32q-67 0 -110.5 -47t-43.5 -125
v-215h438q14 0 24.5 -11t10.5 -24v-880q0 -13 -10.5 -24t-24.5 -11h-73q-13 0 -24 11t-11 24v794h-330z" />
    <glyph glyph-name="fl" unicode="fl" horiz-adv-x="1026" 
d="M676 950v449q0 13 11 24t24 11h73q14 0 24.5 -11t10.5 -24v-1153q0 -62 28.5 -93.5t92.5 -31.5h49q13 0 23 -9.5t10 -25.5v-49q0 -17 -11.5 -27t-25.5 -10h-78q-231 0 -231 229v600h-330v-794q0 -14 -10 -24.5t-23 -10.5h-73q-14 0 -24.5 11t-10.5 24v794h-148
q-13 0 -22.5 10.5t-9.5 24.5v51q0 14 9.5 24.5t22.5 10.5h148v217q0 70 22 123.5t59 83.5t81 45t92 15h45q39 0 39 -37v-60q0 -30 -31 -30h-23q-143 -3 -143 -146v-211h330z" />
    <glyph glyph-name="f_f_i" unicode="ffi" horiz-adv-x="1425" 
d="M676 950v219q0 143 85.5 219t205.5 76q124 0 207 -65q11 -8 12.5 -22t-8.5 -25l-33 -43q-22 -24 -58 -4q-52 32 -114 32q-69 0 -112.5 -47t-43.5 -125v-215h440q13 0 23 -10.5t10 -24.5v-880q0 -14 -10 -24.5t-23 -10.5h-73q-14 0 -24.5 11t-10.5 24v794h-332v-794
q0 -13 -10.5 -24t-24.5 -11h-71q-13 0 -24 11t-11 24v794h-330v-794q0 -14 -10 -24.5t-23 -10.5h-73q-14 0 -24.5 11t-10.5 24v794h-148q-13 0 -22.5 10.5t-9.5 24.5v51q0 14 9.5 24.5t22.5 10.5h148v217q0 70 22 123.5t59 83.5t81 45t92 15h45q39 0 39 -37v-60
q0 -30 -31 -30h-23q-143 -3 -143 -146v-211h330z" />
    <glyph glyph-name="f_f_l" unicode="ffl" horiz-adv-x="1499" 
d="M1149 950v449q0 13 10.5 24t24.5 11h73q13 0 23 -10.5t10 -24.5v-1153q0 -125 123 -125h47q14 0 24.5 -9.5t10.5 -25.5v-49q0 -17 -12 -27t-27 -10h-78q-108 0 -168.5 55.5t-60.5 173.5v600h-332v-794q0 -13 -10.5 -24t-24.5 -11h-71q-13 0 -24 11t-11 24v794h-330v-794
q0 -14 -10 -24.5t-23 -10.5h-73q-14 0 -24.5 11t-10.5 24v794h-148q-13 0 -22.5 10.5t-9.5 24.5v51q0 14 9.5 24.5t22.5 10.5h148v217q0 70 22 123.5t59 83.5t81 45t92 15h45q39 0 39 -37v-60q0 -30 -31 -30h-23q-143 -3 -143 -146v-211h330v217q0 70 22 123.5t59 83.5
t81 45t92 15h47q37 0 37 -37v-60q0 -30 -29 -30h-24q-144 -3 -144 -146v-211h332z" />
    <glyph glyph-name="f_b" unicode="fb" horiz-adv-x="1724" 
d="M676 950v449q0 13 11 24t24 11h73q13 0 23 -10.5t10 -24.5v-627q48 92 144 147.5t217 55.5q201 0 338 -142t137 -360q0 -217 -137 -358.5t-338 -141.5q-120 0 -216.5 55.5t-144.5 147.5v-141q0 -14 -10 -24.5t-23 -10.5h-73q-13 0 -24 11t-11 24v794h-330v-794
q0 -14 -10 -24.5t-23 -10.5h-73q-14 0 -24.5 11t-10.5 24v794h-148q-13 0 -22.5 10.5t-9.5 24.5v51q0 14 9.5 24.5t22.5 10.5h148v217q0 70 22 123.5t59 83.5t81 45t92 15h45q39 0 39 -37v-60q0 -30 -31 -30h-23q-143 -3 -143 -146v-211h330zM817 473q0 -157 97.5 -263
t248.5 -106t248.5 106t97.5 263q0 158 -97.5 265.5t-248.5 107.5t-248.5 -107.5t-97.5 -265.5z" />
    <glyph glyph-name="f_f_b" unicode="ffb" horiz-adv-x="2199" 
d="M2126 473q0 -108 -38 -201.5t-102.5 -158.5t-152 -102.5t-184.5 -37.5q-117 0 -214 55.5t-145 147.5v-141q0 -13 -11 -24t-24 -11h-71q-14 0 -24.5 11t-10.5 24v794h-332v-794q0 -13 -10.5 -24t-24.5 -11h-71q-13 0 -24 11t-11 24v794h-330v-794q0 -14 -10 -24.5
t-23 -10.5h-73q-14 0 -24.5 11t-10.5 24v794h-148q-13 0 -22.5 10.5t-9.5 24.5v51q0 14 9.5 24.5t22.5 10.5h148v217q0 70 22 123.5t59 83.5t81 45t92 15h45q39 0 39 -37v-60q0 -30 -31 -30h-23q-143 -3 -143 -146v-211h330v217q0 70 22 123.5t59 83.5t81 45t92 15h47
q37 0 37 -37v-60q0 -30 -29 -30h-24q-144 -3 -144 -146v-211h332v449q0 13 10.5 24t24.5 11h71q13 0 24 -11t11 -24v-627q48 93 143 148t216 55q97 0 184.5 -37.5t152 -102.5t102.5 -159.5t38 -202.5zM1288 473q0 -157 98 -263t250 -106q151 0 248.5 106t97.5 263
q0 158 -97.5 265.5t-248.5 107.5q-152 0 -250 -107t-98 -266z" />
    <glyph glyph-name="f_f_f" unicode="fff" horiz-adv-x="1554" 
d="M1290 1165v-215h211q13 0 24 -11t11 -24v-51q0 -14 -11 -24.5t-24 -10.5h-211v-794q0 -14 -10 -24.5t-23 -10.5h-73q-14 0 -24.5 11t-10.5 24v794h-332v-794q0 -13 -10.5 -24t-24.5 -11h-71q-13 0 -24 11t-11 24v794h-330v-794q0 -14 -10 -24.5t-23 -10.5h-73
q-14 0 -24.5 11t-10.5 24v794h-148q-13 0 -22.5 10.5t-9.5 24.5v51q0 14 9.5 24.5t22.5 10.5h148v217q0 70 22 123.5t59 83.5t81 45t92 15h45q39 0 39 -37v-60q0 -30 -31 -30h-23q-143 -3 -143 -146v-211h330v217q0 70 22 123.5t59 83.5t81 45t92 15h47q37 0 37 -37v-60
q0 -30 -29 -30h-24q-144 -3 -144 -146v-211h332v219q0 143 85.5 219t205.5 76q124 0 207 -65q10 -7 11 -22t-7 -25l-33 -43q-19 -28 -57 -4q-55 32 -115 32q-69 0 -112.5 -47t-43.5 -125z" />
    <glyph glyph-name="f_f_h" unicode="ffh" horiz-adv-x="2172" 
d="M817 950h332v449q0 13 10.5 24t24.5 11h73q12 0 22.5 -10t10.5 -23v-617q42 88 134 139.5t214 51.5q196 0 304 -116.5t108 -309.5v-516q0 -13 -10.5 -23t-24.5 -10h-71q-14 0 -24.5 10t-10.5 23v495q0 151 -77.5 235.5t-223.5 84.5t-232 -88.5t-86 -231.5v-495
q0 -13 -10.5 -23t-22.5 -10h-73q-14 0 -24.5 11t-10.5 24v794h-332v-794q0 -13 -10.5 -24t-24.5 -11h-71q-13 0 -24 11t-11 24v794h-330v-794q0 -14 -10 -24.5t-23 -10.5h-73q-14 0 -24.5 11t-10.5 24v794h-148q-13 0 -22.5 10.5t-9.5 24.5v51q0 14 9.5 24.5t22.5 10.5h148
v217q0 70 22 123.5t59 83.5t81 45t92 15h45q39 0 39 -37v-60q0 -30 -31 -30h-23q-143 -3 -143 -146v-211h330v217q0 70 22 123.5t59 83.5t81 45t92 15h47q37 0 37 -37v-60q0 -30 -29 -30h-24q-144 -3 -144 -146v-211z" />
    <glyph glyph-name="f_f_j" unicode="ffj" horiz-adv-x="1425" 
d="M819 1165v-215h438q13 0 23 -10.5t10 -24.5v-1065q0 -100 -42.5 -170t-105.5 -100.5t-138 -30.5q-132 0 -207 66q-11 8 -12.5 21t8.5 24l28 41q22 32 53 10q58 -37 119 -37q69 0 112.5 45.5t43.5 128.5v981h-330v-794q0 -13 -10.5 -24t-24.5 -11h-71q-13 0 -24 11t-11 24
v794h-332v-794q0 -14 -10 -24.5t-23 -10.5h-73q-14 0 -24.5 11t-10.5 24v794h-148q-13 0 -22.5 10.5t-9.5 24.5v51q0 14 9.5 24.5t22.5 10.5h148v217q0 70 22 123.5t60.5 83.5t84 45t97.5 15h35q39 0 39 -37v-60q0 -30 -31 -30h-23q-143 -3 -143 -146v-211h332v219
q0 143 85 219t204 76q124 0 207 -65q11 -8 12.5 -22t-8.5 -25l-33 -43q-16 -27 -58 -4q-52 32 -114 32q-68 0 -111 -46.5t-43 -125.5z" />
    <glyph glyph-name="f_f_k" unicode="ffk" horiz-adv-x="1957" 
d="M346 829v-794q0 -14 -10 -24.5t-23 -10.5h-73q-14 0 -24.5 11t-10.5 24v794h-148q-13 0 -22.5 10.5t-9.5 24.5v51q0 14 9.5 24.5t22.5 10.5h148v217q0 70 22 123.5t59 83.5t81 45t92 15h45q39 0 39 -37v-60q0 -30 -31 -30h-23q-143 -3 -143 -146v-211h330v217
q0 70 22 123.5t59 83.5t81 45t92 15h47q37 0 37 -37v-60q0 -30 -29 -30h-24q-142 -3 -142 -146v-211h330v449q0 13 10.5 24t24.5 11h73q13 0 23 -10.5t10 -24.5v-815h92l349 346q20 20 36 20h115q14 0 18 -11t-6 -21l-397 -383l459 -500q11 -11 7 -23t-21 -12h-105
q-34 0 -55 27l-410 448h-82v-440q0 -14 -10 -24.5t-23 -10.5h-73q-14 0 -24.5 11t-10.5 24v794h-330v-794q0 -13 -10.5 -24t-24.5 -11h-73q-13 0 -24 11t-11 24v794h-330z" />
    <glyph glyph-name="f_f_t" unicode="fft" horiz-adv-x="1669" 
d="M1290 829v-542q0 -83 43.5 -127.5t112.5 -44.5q61 0 117 30q39 26 57 -4l29 -41q8 -12 5.5 -26t-12.5 -21q-82 -67 -215 -67q-116 0 -197 70.5t-81 207.5v565h-330v-794q0 -13 -10.5 -24t-24.5 -11h-73q-13 0 -24 11t-11 24v794h-330v-794q0 -14 -10 -24.5t-23 -10.5h-73
q-14 0 -24.5 11t-10.5 24v794h-148q-13 0 -22.5 10.5t-9.5 24.5v51q0 14 9.5 24.5t22.5 10.5h148v217q0 70 22 123.5t59 83.5t81 45t92 15h45q39 0 39 -37v-60q0 -30 -31 -30h-23q-143 -3 -143 -146v-211h330v217q0 70 22 123.5t59 83.5t81 45t92 15h47q37 0 37 -37v-60
q0 -30 -29 -30h-24q-142 -3 -142 -146v-211h330v310q0 13 10.5 23.5t24.5 10.5h73q13 0 23 -10t10 -24v-310h305q13 0 24 -11t11 -24v-51q0 -14 -11 -24.5t-24 -10.5h-305z" />
    <glyph glyph-name="f_h" unicode="fh" horiz-adv-x="1699" 
d="M346 950h330v449q0 13 11 24t24 11h73q14 0 24.5 -10t10.5 -23v-617q42 88 134 139.5t214 51.5q194 0 302 -117t108 -309v-516q0 -13 -10.5 -23t-22.5 -10h-74q-14 0 -24 10t-10 23v495q0 151 -76.5 235.5t-222.5 84.5t-232 -88.5t-86 -231.5v-495q0 -13 -10.5 -23
t-24.5 -10h-73q-13 0 -24 11t-11 24v794h-330v-794q0 -14 -10 -24.5t-23 -10.5h-73q-14 0 -24.5 11t-10.5 24v794h-148q-13 0 -22.5 10.5t-9.5 24.5v51q0 14 9.5 24.5t22.5 10.5h148v217q0 70 22 123.5t60.5 83.5t84 45t97.5 15h35q39 0 39 -37v-60q0 -30 -31 -30h-23
q-143 -3 -143 -146v-211z" />
    <glyph glyph-name="f_j" unicode="fj" horiz-adv-x="952" 
d="M346 1165v-215h436q14 0 24.5 -11t10.5 -24v-1065q0 -75 -24.5 -134.5t-65.5 -95t-91.5 -53.5t-105.5 -18q-131 0 -206 66q-11 8 -13 21t8 24l29 41q22 32 53 10q58 -37 119 -37q69 0 112.5 45.5t43.5 128.5v981h-330v-794q0 -14 -10 -24.5t-23 -10.5h-73q-14 0 -24.5 11
t-10.5 24v794h-148q-13 0 -22.5 10.5t-9.5 24.5v51q0 14 9.5 24.5t22.5 10.5h148v219q0 143 85 219t204 76q125 0 208 -65q10 -7 11.5 -22t-6.5 -25l-33 -43q-19 -27 -60 -4q-52 32 -114 32q-67 0 -110.5 -47t-43.5 -125z" />
    <glyph glyph-name="f_k" unicode="fk" horiz-adv-x="1484" 
d="M346 829v-794q0 -14 -10 -24.5t-23 -10.5h-73q-14 0 -24.5 11t-10.5 24v794h-148q-13 0 -22.5 10.5t-9.5 24.5v51q0 14 9.5 24.5t22.5 10.5h148v217q0 70 22 123.5t59 83.5t81 45t92 15h45q39 0 39 -37v-60q0 -30 -31 -30h-23q-143 -3 -143 -146v-211h330v449q0 13 11 24
t24 11h73q14 0 24.5 -11t10.5 -24v-815h90l348 346q20 20 37 20h115q14 0 19 -11t-5 -21l-399 -383l459 -500q11 -11 6.5 -23t-21.5 -12h-104q-34 0 -55 27l-410 448h-80v-440q0 -13 -10.5 -24t-24.5 -11h-73q-13 0 -24 11t-11 24v794h-330z" />
    <glyph glyph-name="f_t" unicode="ft" horiz-adv-x="1228" 
d="M711 264v565h-365v-794q0 -14 -10 -24.5t-23 -10.5h-73q-14 0 -24.5 11t-10.5 24v794h-148q-13 0 -22.5 10.5t-9.5 24.5v51q0 14 9.5 24.5t22.5 10.5h148v217q0 70 22 123.5t60.5 83.5t84 45t97.5 15h35q39 0 39 -37v-60q0 -30 -31 -30h-23q-143 -3 -143 -146v-211h365
v310q0 14 10.5 24t23.5 10h72q14 0 24.5 -10.5t10.5 -23.5v-310h305q13 0 23 -10.5t10 -24.5v-51q0 -14 -10 -24.5t-23 -10.5h-305v-542q0 -83 43.5 -127.5t112.5 -44.5q61 0 114 30q39 26 60 -4l26 -41q8 -12 6 -26t-12 -21q-82 -67 -215 -67q-54 0 -102 16.5t-87.5 49
t-63 87.5t-23.5 125z" />
    <glyph glyph-name=".notdef" horiz-adv-x="0" 
 />
    <glyph glyph-name=".null" horiz-adv-x="0" 
 />
    <glyph glyph-name="nonmarkingreturn" horiz-adv-x="682" 
 />
    <glyph glyph-name="CR" unicode="&#xd;" horiz-adv-x="0" 
 />
    <glyph glyph-name="space" unicode=" " horiz-adv-x="493" 
 />
    <glyph glyph-name="exclam" unicode="!" horiz-adv-x="514" 
d="M336 1399l-10 -899q0 -14 -11 -24.5t-24 -10.5h-68q-16 0 -25.5 10.5t-9.5 24.5l-12 899q0 13 11 24t24 11h90q13 0 24 -11t11 -24zM254 -27q-55 0 -94 40t-39 96t39 95.5t94 39.5q57 0 96 -39.5t39 -95.5t-39 -96t-96 -40z" />
    <glyph glyph-name="quotedbl" unicode="&#x22;" horiz-adv-x="741" 
d="M244 891h-78q-14 0 -24.5 10t-10.5 23v475q0 13 10.5 24t24.5 11h78q14 0 24.5 -11t10.5 -24v-475q0 -13 -10.5 -23t-24.5 -10zM575 891h-79q-33 0 -33 33v475q0 14 10 24.5t23 10.5h79q13 0 24 -11t11 -24v-475q0 -13 -10.5 -23t-24.5 -10z" />
    <glyph glyph-name="numbersign" unicode="#" horiz-adv-x="1286" 
d="M819 565v301h-352v-301h352zM467 457v-422q0 -13 -10.5 -24t-24.5 -11h-45q-13 0 -24 11t-11 24v422h-237q-13 0 -24 10.5t-11 24.5v38q0 14 11 24.5t24 10.5h237v301h-237q-13 0 -24 11t-11 24v41q0 13 10.5 23t24.5 10h237v424q0 13 11 24t24 11h45q14 0 24.5 -11
t10.5 -24v-424h352v424q0 13 10.5 24t24.5 11h45q13 0 24 -11t11 -24v-424h237q14 0 24.5 -10t10.5 -23v-41q0 -13 -11 -24t-24 -11h-237v-301h237q13 0 24 -10.5t11 -24.5v-38q0 -14 -11 -24.5t-24 -10.5h-237v-422q0 -13 -11 -24t-24 -11h-45q-14 0 -24.5 11t-10.5 24v422
h-352z" />
    <glyph glyph-name="dollar" unicode="$" horiz-adv-x="1241" 
d="M506 840l63 -17v508q-128 -13 -213.5 -82t-85.5 -176q0 -82 51 -140.5t185 -92.5zM762 625l-66 18v-537q101 11 174 52t106.5 96.5t33.5 118.5q0 98 -59 157.5t-189 94.5zM647 -197h-29q-20 0 -34.5 15t-14.5 35v122q-177 11 -301 79t-186 159q-13 13 -12 31t18 28l51 39
q36 22 62 -12q140 -174 368 -195v572l-123 33q-327 86 -327 356q0 162 125 268.5t325 124.5v125q0 20 14.5 33.5t34.5 13.5h29q20 0 34.5 -13.5t14.5 -33.5v-125q264 -24 420 -192q30 -30 -2 -58l-43 -37q-28 -25 -59 3q-138 135 -316 155v-541l125 -34q177 -47 259.5 -138
t82.5 -233q0 -72 -29 -139t-84.5 -124.5t-147 -96t-206.5 -48.5v-122q0 -20 -14.5 -35t-34.5 -15z" />
    <glyph glyph-name="percent" unicode="%" horiz-adv-x="1468" 
d="M340 1448q125 0 197.5 -103t72.5 -268q0 -167 -72.5 -271t-197.5 -104q-126 0 -196 103t-70 272q0 166 70 268.5t196 102.5zM276 0h-30q-23 0 -30 16t7 39l920 1346q20 33 55 33h31q23 0 29.5 -16.5t-7.5 -39.5l-919 -1345q-20 -33 -56 -33zM182 1075q0 -136 44 -207
t114 -71t115 71t45 207q0 139 -44.5 209t-115.5 70q-70 0 -114 -70t-44 -209zM1126 729q125 0 198 -103.5t73 -267.5q0 -168 -72.5 -271t-198.5 -103q-125 0 -195.5 102.5t-70.5 271.5q0 166 70 268.5t196 102.5zM969 354q0 -137 43.5 -207.5t113.5 -70.5t115 71t45 207
q0 139 -44.5 209t-115.5 70q-70 0 -113.5 -69.5t-43.5 -209.5z" />
    <glyph glyph-name="ampersand" unicode="&#x26;" horiz-adv-x="1376" 
d="M371 1124q0 -67 34.5 -131.5t112.5 -142.5l60 39q114 74 164.5 135t50.5 131q0 92 -61 141.5t-142 49.5q-86 0 -152.5 -61t-66.5 -161zM551 98q102 0 195 46t163 124l-426 428l-39 -26q-116 -80 -165.5 -151t-49.5 -157q0 -104 88 -184t234 -80zM1161 16l-162 164
q-198 -207 -464 -207q-104 0 -190.5 32t-143.5 86t-88 123t-31 144q0 114 63 211t205 185l49 28q-166 166 -166 340q0 150 102.5 244t254.5 94q154 0 246 -85.5t92 -215.5q0 -99 -63 -185t-206 -175l-55 -35l387 -387q120 202 131 426q3 33 37 33h74q14 0 24.5 -9.5
t10.5 -25.5q-4 -112 -55.5 -255.5t-125.5 -264.5l250 -248q10 -11 5.5 -22t-15.5 -11h-125q-25 0 -41 16z" />
    <glyph glyph-name="quotesingle" unicode="'" horiz-adv-x="466" 
d="M119 1028l84 168q-38 18 -62 52t-24 77q0 56 40 95.5t97 39.5t97 -41t40 -102q0 -131 -168 -318q-14 -14 -21.5 -19.5t-20 -9.5t-21.5 5l-23 12q-31 15 -18 41z" />
    <glyph glyph-name="parenleft" unicode="(" horiz-adv-x="563" 
d="M229 645q0 -211 81 -428.5t216 -404.5q17 -23 17 -35q0 -7 -7.5 -15t-19.5 -8h-51q-34 0 -57 29q-328 407 -328 862t328 862q23 29 57 29h51q12 0 19.5 -8t7.5 -15q0 -11 -17 -34q-134 -187 -215.5 -405t-81.5 -429z" />
    <glyph glyph-name="parenright" unicode=")" horiz-adv-x="563" 
d="M334 645q0 211 -81.5 429t-215.5 405q-17 23 -17 34q0 7 7.5 15t19.5 8h51q35 0 58 -29q327 -406 327 -862t-327 -862q-23 -29 -58 -29h-51q-12 0 -19.5 8t-7.5 15q0 12 17 35q135 187 216 404.5t81 428.5z" />
    <glyph glyph-name="asterisk" unicode="*" horiz-adv-x="966" 
d="M563 705q0 -35 -22.5 -56.5t-57.5 -21.5q-33 0 -55 21.5t-22 56.5q0 25 19.5 134t31.5 154q-19 -13 -73.5 -55.5t-102.5 -78t-64 -42.5q-30 -17 -59 -8t-47 39q-12 31 -3 61t35 47q19 10 76.5 27.5t127 36t83.5 22.5q-29 15 -148 49.5t-139 45.5q-26 17 -35 48t3 60
q18 30 47 39t59 -8q17 -9 113.5 -85t124.5 -93q-49 249 -49 286q0 32 22.5 55t54.5 23q35 0 57.5 -22.5t22.5 -55.5q0 -27 -19 -132t-32 -154q28 17 125 93.5t113 84.5q30 17 59 8t47 -39q14 -29 5 -60t-38 -48q-20 -12 -140 -47t-146 -48q9 -3 83 -22.5t129.5 -36.5
t73.5 -27q29 -17 38 -47t-5 -61q-18 -30 -47 -39t-59 8q-19 9 -121.5 87t-118.5 89q13 -47 33 -155t20 -133z" />
    <glyph glyph-name="plus" unicode="+" horiz-adv-x="1044" 
d="M483 1176h76q14 0 24.5 -10t10.5 -23v-346h342q14 0 24.5 -10.5t10.5 -24.5v-72q0 -14 -10.5 -24.5t-24.5 -10.5h-342v-346q0 -13 -11 -24t-24 -11h-76q-13 0 -23.5 10.5t-10.5 24.5v346h-340q-13 0 -24 10.5t-11 24.5v72q0 14 11 24.5t24 10.5h340v346q0 13 10 23t24 10
z" />
    <glyph glyph-name="comma" unicode="," horiz-adv-x="489" 
d="M115 -184l88 168q-42 14 -67 47.5t-25 77.5q0 57 39 96t96 39q55 0 94 -41.5t39 -100.5q0 -130 -164 -313q-14 -14 -21.5 -19.5t-20 -10t-21.5 4.5l-21 11q-26 17 -16 41z" />
    <glyph glyph-name="hyphen" unicode="-" horiz-adv-x="712" 
d="M555 475h-397q-14 0 -24.5 10.5t-10.5 24.5v76q0 14 10.5 24.5t24.5 10.5h397q13 0 24 -10.5t11 -24.5v-76q0 -14 -11 -24.5t-24 -10.5z" />
    <glyph glyph-name="period" unicode="." horiz-adv-x="481" 
d="M240 -27q-55 0 -94.5 40t-39.5 96t39.5 95.5t94.5 39.5q57 0 96 -39.5t39 -95.5t-39 -96t-96 -40z" />
    <glyph glyph-name="slash" unicode="/" horiz-adv-x="905" 
d="M61 37l660 1366q12 31 39 31h59q17 0 23.5 -12t-0.5 -25l-656 -1366q-9 -31 -39 -31h-63q-16 0 -23 12.5t0 24.5z" />
    <glyph glyph-name="zero" unicode="0" horiz-adv-x="1224" 
d="M612 1460q159 0 276 -94.5t177.5 -261.5t60.5 -385q0 -221 -60.5 -389t-177.5 -262.5t-276 -94.5q-238 0 -376 205t-138 541q0 218 60.5 385t178 261.5t275.5 94.5zM612 94q76 0 142 39t117 113.5t80.5 195.5t29.5 275t-29.5 275t-80.5 195.5t-117 113t-142 38.5
q-159 0 -263.5 -159.5t-104.5 -462.5q0 -124 19 -226.5t53 -175.5t80.5 -123t101 -74t114.5 -24z" />
    <glyph glyph-name="one" unicode="1" horiz-adv-x="600" 
d="M31 1174v55q0 31 32 31h29q93 0 145.5 33t75.5 108q11 33 43 33h37q33 0 33 -33v-1366q0 -13 -11 -24t-24 -11h-67q-14 0 -24.5 11t-10.5 24v1110h-226q-32 0 -32 29z" />
    <glyph glyph-name="two" unicode="2" horiz-adv-x="1126" 
d="M1022 0h-897q-13 0 -24 11t-11 24v55q0 28 27 55l440 410q109 100 173.5 174t103 153.5t38.5 159.5q0 132 -90.5 212.5t-224.5 80.5q-139 0 -228 -87t-122 -212q-9 -39 -51 -30l-58 12q-29 10 -26 45q33 172 165.5 284.5t321.5 112.5q202 0 329.5 -113.5t127.5 -297.5
q0 -129 -73.5 -256.5t-270.5 -305.5l-393 -358h743q13 0 23 -10.5t10 -24.5v-59q0 -14 -10 -24.5t-23 -10.5z" />
    <glyph glyph-name="three" unicode="3" horiz-adv-x="1185" 
d="M541 813h49q135 0 220 81t85 191q0 109 -81.5 182.5t-223.5 73.5q-114 0 -195.5 -57t-124.5 -139q-15 -34 -47 -21l-53 23q-17 6 -23 20t0 27q49 114 164.5 190t286.5 76q193 0 312.5 -102.5t119.5 -263.5q0 -111 -66 -199t-176 -123q136 -25 223 -126.5t87 -239.5
q0 -187 -142 -310t-372 -123q-232 0 -377.5 125t-145.5 320v24q0 10 7.5 17.5t17.5 7.5h88q11 0 19 -7.5t8 -17.5v-20q0 -135 102.5 -231.5t280.5 -96.5q168 0 267 89t99 223q0 132 -90.5 212t-251.5 80h-67q-13 0 -24 11t-11 24v45q0 16 10.5 25.5t24.5 9.5z" />
    <glyph glyph-name="four" unicode="4" horiz-adv-x="1146" 
d="M748 430h-687q-13 0 -23.5 10.5t-10.5 24.5v57q0 36 18 60l647 823q19 29 53 29h107q14 0 24.5 -11t10.5 -24v-852h192q13 0 24 -10.5t11 -24.5v-47q0 -13 -11 -24t-24 -11h-192v-395q0 -13 -10.5 -24t-24.5 -11h-70q-13 0 -23.5 10.5t-10.5 24.5v395zM166 547h582v741z
" />
    <glyph glyph-name="five" unicode="5" horiz-adv-x="1150" 
d="M557 -27q-173 0 -299 72.5t-184 190.5q-6 14 -1 29.5t17 21.5l55 28q18 9 32 4.5t22 -18.5q119 -203 360 -203q162 0 266.5 105t104.5 252q0 155 -101.5 250.5t-257.5 95.5q-164 0 -301 -111q-25 -22 -51 -16l-59 14q-30 9 -27 35l53 676q2 15 11.5 25t25.5 10h750
q16 0 25.5 -10.5t9.5 -24.5v-64q0 -14 -9.5 -24.5t-25.5 -10.5h-670l-41 -487q144 109 334 109q207 0 344 -128t137 -331q0 -206 -147.5 -348t-372.5 -142z" />
    <glyph glyph-name="six" unicode="6" horiz-adv-x="1163" 
d="M598 -27q-147 0 -265.5 68t-183.5 182.5t-65 249.5q0 105 34.5 215t87 202.5t132.5 192.5t151.5 175t163.5 161q15 15 39 15h111q14 0 18 -13t-6 -24q-6 -6 -62 -61t-89.5 -88.5t-95 -100t-104 -118t-89 -117t-76.5 -121.5q135 135 340 135q127 0 234.5 -56t174 -164.5
t66.5 -248.5q0 -130 -66 -241t-185 -177t-265 -66zM600 813q-160 0 -264.5 -107t-104.5 -251q0 -145 104.5 -252t264.5 -107t264.5 107t104.5 252q0 95 -42 175.5t-127.5 131.5t-199.5 51z" />
    <glyph glyph-name="seven" unicode="7" horiz-adv-x="1024" 
d="M991 1403v-47q0 -34 -14 -58l-610 -1280q-9 -18 -31 -18h-103q-16 0 -22.5 12.5t0.5 24.5l623 1263h-773q-13 0 -23.5 10.5t-10.5 24.5v64q0 14 10.5 24.5t23.5 10.5h895q35 0 35 -31z" />
    <glyph glyph-name="eight" unicode="8" horiz-adv-x="1243" 
d="M623 -27q-240 0 -388.5 118t-148.5 300q0 128 82.5 229t222.5 144q-109 41 -171 127t-62 196q0 163 133.5 268t331.5 105t331 -105t133 -268q0 -110 -63 -196t-172 -127q141 -42 223 -143.5t82 -229.5q0 -182 -147.5 -300t-386.5 -118zM623 817q147 0 237 78t90 188
t-90 187.5t-237 77.5t-237.5 -77.5t-90.5 -187.5t90.5 -188t237.5 -78zM623 698q-176 0 -283 -88.5t-107 -214.5q0 -127 107 -215t283 -88t282.5 88t106.5 215q0 126 -106.5 214.5t-282.5 88.5z" />
    <glyph glyph-name="nine" unicode="9" horiz-adv-x="1163" 
d="M471 0h-111q-14 0 -18 13t6 24q10 10 63 61.5t89.5 88.5t96.5 101.5t104 117t90 118t75 121.5q-140 -137 -342 -137q-127 0 -234.5 56t-174 164.5t-66.5 248.5q0 130 66 240.5t185 176.5t265 66q147 0 265.5 -68t183.5 -182t65 -249q0 -104 -34 -213t-87 -203.5
t-131 -193.5t-152.5 -176.5t-164.5 -160.5q-14 -14 -39 -14zM563 621q160 0 264.5 107t104.5 251q0 145 -104.5 251.5t-264.5 106.5t-264 -106.5t-104 -251.5q0 -148 99.5 -253t268.5 -105z" />
    <glyph glyph-name="colon" unicode=":" horiz-adv-x="507" 
d="M254 670q-56 0 -94.5 38t-38.5 93q0 57 38.5 95t94.5 38q55 0 94 -38.5t39 -94.5q0 -55 -39 -93t-94 -38zM254 -27q-55 0 -94 39.5t-39 93.5q0 57 38.5 95.5t94.5 38.5q55 0 94 -39t39 -95q0 -54 -39.5 -93.5t-93.5 -39.5z" />
    <glyph glyph-name="semicolon" unicode=";" horiz-adv-x="516" 
d="M256 670q-55 0 -94 38t-39 93q0 56 39 94.5t94 38.5q56 0 95.5 -38.5t39.5 -94.5q0 -55 -39.5 -93t-95.5 -38zM127 -184l88 168q-42 14 -67 47.5t-25 77.5q0 57 39 96t96 39q55 0 95 -41.5t40 -100.5q0 -127 -166 -313q-14 -14 -21.5 -19.5t-20 -10t-21.5 4.5l-19 11
q-15 12 -19 19t1 22z" />
    <glyph glyph-name="less" unicode="&#x3c;" horiz-adv-x="1120" 
d="M963 403v-84q0 -21 -14.5 -27.5t-28.5 1.5l-803 342q-18 8 -28 20.5t-12.5 25t-2.5 30.5q0 53 43 71l803 340q14 8 28.5 1.5t14.5 -27.5v-86q0 -28 -37 -41l-660 -260l660 -263q37 -13 37 -43z" />
    <glyph glyph-name="equal" unicode="=" horiz-adv-x="1153" 
d="M987 860h-821q-14 0 -24.5 11t-10.5 24v68q0 13 10.5 23.5t24.5 10.5h821q14 0 24.5 -10.5t10.5 -23.5v-68q0 -13 -11 -24t-24 -11zM987 434h-821q-14 0 -24.5 11t-10.5 24v68q0 16 10 25t25 9h821q15 0 25 -9t10 -25v-68q0 -13 -11 -24t-24 -11z" />
    <glyph glyph-name="greater" unicode="&#x3e;" horiz-adv-x="1118" 
d="M158 319v84q0 31 35 43l661 263l-661 260q-35 12 -35 41v86q0 21 14 27.5t27 -1.5l805 -340q43 -20 43 -71q0 -56 -43 -76l-805 -342q-13 -8 -27 -1.5t-14 27.5z" />
    <glyph glyph-name="question" unicode="?" horiz-adv-x="974" 
d="M481 1460q177 0 289.5 -101t112.5 -251q0 -85 -34 -161t-82.5 -133t-97 -110t-82.5 -114.5t-34 -124.5v-25q0 -12 -9 -20t-20 -8h-78q-12 0 -21 9t-9 21v33q0 77 32.5 147.5t79 125t93.5 107.5t79.5 116t32.5 129q0 103 -74.5 167t-181.5 64q-193 0 -289 -194
q-6 -13 -24 -17.5t-31 2.5l-51 23q-32 16 -14 57q53 114 163.5 186t249.5 72zM489 -27q-57 0 -96 38.5t-39 94.5t39 95t96 39q54 0 94 -39.5t40 -94.5t-40 -94t-94 -39z" />
    <glyph glyph-name="at" unicode="@" horiz-adv-x="1875" 
d="M973 -395q-188 0 -353 65.5t-282 179.5t-184.5 273t-67.5 340q0 246 114.5 442.5t315.5 306t449 109.5q173 0 323 -57.5t257.5 -159.5t169 -249t61.5 -318q0 -247 -95.5 -384t-238.5 -137q-93 0 -149.5 52t-69.5 127q-46 -81 -129.5 -130t-186.5 -49q-174 0 -294.5 124
t-120.5 311t120.5 310.5t294.5 123.5q96 0 176 -45t129 -119v104q0 13 11 24t24 11h58q16 0 26 -10.5t10 -24.5v-528q0 -79 25 -122.5t94 -43.5q80 0 137.5 108.5t57.5 305.5q0 143 -50.5 266.5t-141 211.5t-222.5 138.5t-289 50.5q-148 0 -282.5 -54t-236 -150t-162 -238.5
t-60.5 -308.5q0 -212 105.5 -385t280 -268t378.5 -95q158 0 289 49q61 19 125 60q17 17 47 10l86 -20q10 -4 12 -12.5t-4 -12.5q-213 -182 -557 -182zM918 768q-127 0 -209 -88.5t-82 -224.5q0 -132 82.5 -223t208.5 -91t207 90.5t81 223.5q0 136 -80.5 224.5t-207.5 88.5z
" />
    <glyph glyph-name="A" unicode="A" horiz-adv-x="1318" 
d="M365 539h581l-291 764zM317 414l-145 -381q-9 -33 -37 -33h-86q-17 0 -23.5 11t-0.5 28l530 1362q11 33 43 33h123q32 0 43 -33l530 -1362q7 -16 -0.5 -27.5t-21.5 -11.5h-92q-30 0 -41 33l-146 381h-676z" />
    <glyph glyph-name="B" unicode="B" horiz-adv-x="1372" 
d="M211 1434h575q106 0 190.5 -30.5t135 -81.5t76.5 -112.5t26 -128.5q0 -116 -59 -196.5t-154 -118.5q136 -35 214.5 -132t78.5 -231q0 -82 -29.5 -154t-86 -128t-147 -88.5t-204.5 -32.5h-616q-13 0 -24 11t-11 24v1364q0 13 11 24t24 11zM1061 1063q0 119 -76 182.5
t-207 63.5h-454v-494h454q128 0 205.5 64t77.5 184zM823 694h-499v-569h501q129 0 223.5 75.5t94.5 209.5q0 133 -93.5 208.5t-226.5 75.5z" />
    <glyph glyph-name="C" unicode="C" horiz-adv-x="1529" 
d="M807 -27q-150 0 -284.5 57t-231.5 155t-154 236.5t-57 295.5t57.5 295.5t155.5 236.5t232 154.5t282 56.5q228 0 411.5 -120.5t260.5 -327.5q5 -12 -1 -23t-22 -12l-90 -14q-27 -2 -37 28q-69 157 -204.5 246.5t-317.5 89.5q-164 0 -296.5 -80.5t-206 -220t-73.5 -309.5
q0 -127 43.5 -240t119 -194.5t183 -129t230.5 -47.5q182 0 317.5 89.5t204.5 246.5q10 31 37 29l90 -14q16 -1 22 -12t1 -23q-77 -207 -260.5 -328t-411.5 -121z" />
    <glyph glyph-name="D" unicode="D" horiz-adv-x="1492" 
d="M211 1434h436q184 0 329 -52t240 -147t145 -226.5t50 -291.5t-50 -291.5t-145 -226.5t-240 -147t-329 -52h-436q-13 0 -24 11t-11 24v1364q0 13 11 24t24 11zM324 135h344q268 0 430 154.5t162 427.5t-162 427t-430 154h-344v-1163z" />
    <glyph glyph-name="E" unicode="E" horiz-adv-x="1251" 
d="M211 1434h944q13 0 24 -11t11 -24v-66q0 -13 -11 -24t-24 -11h-831v-505h426q34 0 34 -35v-64q0 -15 -9 -25t-25 -10h-426v-524h835q13 0 24 -10.5t11 -24.5v-65q0 -13 -11 -24t-24 -11h-948q-13 0 -24 11t-11 24v1364q0 13 11 24t24 11z" />
    <glyph glyph-name="F" unicode="F" horiz-adv-x="1163" 
d="M928 725v-63q0 -14 -9.5 -24.5t-25.5 -10.5h-569v-592q0 -13 -11 -24t-24 -11h-78q-13 0 -24 11t-11 24v1364q0 13 11 24t24 11h887q14 0 24.5 -11t10.5 -24v-66q0 -13 -10.5 -24t-24.5 -11h-774v-538h569q35 0 35 -35z" />
    <glyph glyph-name="G" unicode="G" horiz-adv-x="1587" 
d="M813 1460q231 0 417.5 -121t258.5 -327q6 -10 0.5 -22t-21.5 -13l-88 -14q-27 -2 -37 28q-70 158 -206.5 247t-323.5 89q-164 0 -298 -80.5t-209 -220.5t-75 -311q0 -172 74 -311t206.5 -218.5t297.5 -79.5q112 0 209 37t161.5 98t105 134.5t50.5 150.5h-477
q-14 0 -24.5 11t-10.5 24v51q0 16 10.5 25.5t24.5 9.5h584q35 0 35 -35v-577q0 -14 -9.5 -24.5t-25.5 -10.5h-66q-14 0 -24.5 11t-10.5 24v252q-22 -53 -66 -105t-110 -100.5t-163.5 -78.5t-208.5 -30q-149 0 -281 57t-227 155t-150 236.5t-55 295.5t58 295.5t156 236.5
t233.5 154.5t285.5 56.5z" />
    <glyph glyph-name="H" unicode="H" horiz-adv-x="1540" 
d="M1364 1399v-1364q0 -13 -11 -24t-24 -11h-76q-16 0 -25 10t-9 25v624h-895v-624q0 -13 -11 -24t-24 -11h-78q-13 0 -24 11t-11 24v1364q0 13 11 24t24 11h78q13 0 24 -11t11 -24v-606h895v606q0 15 9 25t25 10h76q13 0 24 -11t11 -24z" />
    <glyph glyph-name="I" unicode="I" horiz-adv-x="499" 
d="M289 0h-78q-13 0 -24 11t-11 24v1364q0 13 11 24t24 11h78q13 0 24 -11t11 -24v-1364q0 -13 -11 -24t-24 -11z" />
    <glyph glyph-name="J" unicode="J" horiz-adv-x="1234" 
d="M1073 1399v-953q0 -206 -141 -339.5t-371 -133.5q-232 0 -372 131.5t-140 339.5v80q0 14 10.5 24.5t24.5 10.5h76q14 0 24.5 -10.5t10.5 -24.5v-78q0 -149 96 -245.5t270 -96.5q173 0 270 100.5t97 250.5v944q0 13 11 24t24 11h75q16 0 25.5 -10.5t9.5 -24.5z" />
    <glyph glyph-name="K" unicode="K" horiz-adv-x="1302" 
d="M1292 1403l-626 -647l616 -725q7 -11 2.5 -21t-16.5 -10h-115q-32 0 -53 27l-553 655h-223v-647q0 -13 -11 -24t-24 -11h-78q-13 0 -24 11t-11 24v1364q0 13 11 24t24 11h78q13 0 24 -11t11 -24v-588h221l565 594q14 16 24 22.5t27 6.5h119q13 0 16.5 -10t-4.5 -21z" />
    <glyph glyph-name="L" unicode="L" horiz-adv-x="1107" 
d="M1090 100v-65q0 -13 -11 -24t-24 -11h-844q-13 0 -24 11t-11 24v1364q0 13 11 24t24 11h78q13 0 24 -11t11 -24v-1264h731q13 0 24 -10.5t11 -24.5z" />
    <glyph glyph-name="M" unicode="M" horiz-adv-x="1804" 
d="M930 227h-58q-36 0 -51 31l-499 1010v-1233q0 -14 -10 -24.5t-23 -10.5h-78q-13 0 -24 11t-11 24v1364q0 13 11 24t24 11h158q33 0 49 -31l485 -987l486 987q15 31 51 31h153q13 0 24 -11t11 -24v-1364q0 -13 -11 -24t-24 -11h-75q-16 0 -25.5 10.5t-9.5 24.5v1233
l-504 -1010q-15 -31 -49 -31z" />
    <glyph glyph-name="N" unicode="N" horiz-adv-x="1476" 
d="M1118 31l-794 1171v-1167q0 -13 -11 -24t-24 -11h-78q-13 0 -24 11t-11 24v1364q0 13 11 24t24 11h100q31 0 54 -29l790 -1167v1161q0 14 10 24.5t23 10.5h78q13 0 23.5 -10.5t10.5 -24.5v-1364q0 -14 -10.5 -24.5t-23.5 -10.5h-88q-38 0 -60 31z" />
    <glyph glyph-name="O" unicode="O" horiz-adv-x="1611" 
d="M1532 717q0 -157 -57.5 -295.5t-155.5 -236.5t-232 -155t-282 -57t-281.5 57t-231 155t-155 236.5t-57.5 295.5t57.5 295.5t155 236.5t231 154.5t281.5 56.5t282 -56.5t232 -154.5t155.5 -236.5t57.5 -295.5zM1380 717q0 171 -73 310t-205 219.5t-297 80.5
q-164 0 -296 -80.5t-205 -220t-73 -309.5q0 -127 43 -240t118.5 -194.5t182.5 -129t230 -47.5q165 0 297 80.5t205 220t73 310.5z" />
    <glyph glyph-name="P" unicode="P" horiz-adv-x="1251" 
d="M324 541v-506q0 -13 -11 -24t-24 -11h-78q-13 0 -24 11t-11 24v1364q0 13 11 24t24 11h498q122 0 218.5 -35.5t156.5 -97t91 -140.5t31 -170q0 -92 -31 -172t-91 -142.5t-156.5 -99t-218.5 -36.5h-385zM324 672h381q152 0 252 83.5t100 235.5q0 149 -100 230.5t-252 81.5
h-381v-631z" />
    <glyph glyph-name="Q" unicode="Q" horiz-adv-x="1611" 
d="M805 106q221 0 377 140l-379 340q-25 26 -2 49l37 39q8 11 23 11.5t26 -9.5l377 -340q116 163 116 381q0 171 -73 310t-205 219.5t-297 80.5q-164 0 -296 -80.5t-205 -220t-73 -309.5q0 -127 43 -240t118.5 -194.5t182.5 -129t230 -47.5zM1460 -6l-176 158
q-201 -179 -479 -179q-148 0 -281.5 57t-231 155t-155 236.5t-57.5 295.5t57.5 295.5t155 236.5t231 154.5t281.5 56.5t282 -56.5t232 -154.5t155.5 -236.5t57.5 -295.5q0 -266 -162 -475l176 -160q11 -11 11.5 -24.5t-9.5 -24.5l-39 -37q-11 -11 -24.5 -11.5t-24.5 9.5z
" />
    <glyph glyph-name="R" unicode="R" horiz-adv-x="1378" 
d="M324 735h473q152 0 239.5 79t87.5 208q0 126 -87.5 203.5t-239.5 77.5h-473v-568zM1284 0h-94q-18 0 -28 7.5t-21 25.5l-336 577h-481v-575q0 -13 -11 -24t-24 -11h-78q-13 0 -24 11t-11 24v1364q0 13 11 24t24 11h582q222 0 352.5 -112t130.5 -294q0 -58 -15.5 -112.5
t-50 -110t-101 -100t-157.5 -68.5l355 -602q8 -11 1 -23t-24 -12z" />
    <glyph glyph-name="S" unicode="S" horiz-adv-x="1226" 
d="M616 1460q156 0 282 -52t208 -142q30 -30 -2 -58l-43 -37q-29 -25 -60 3q-162 159 -387 159q-148 0 -251 -70t-103 -190q0 -82 51 -140.5t185 -92.5l315 -86q177 -47 259.5 -138t82.5 -233q0 -78 -33 -149.5t-97 -130.5t-170 -94.5t-239 -35.5q-196 0 -335 71.5
t-207 168.5q-13 13 -12 31t18 28l51 39q35 21 61 -12q70 -85 179 -141t252 -56q180 0 279 80.5t99 190.5q0 98 -58.5 157.5t-188.5 94.5l-316 84q-327 86 -327 356q0 175 144 285t363 110z" />
    <glyph glyph-name="T" unicode="T" horiz-adv-x="1255" 
d="M25 1333v66q0 15 9 25t25 10h1137q14 0 24.5 -11t10.5 -24v-66q0 -13 -10.5 -24t-24.5 -11h-496v-1263q0 -14 -10.5 -24.5t-23.5 -10.5h-80q-14 0 -24.5 11t-10.5 24v1263h-492q-16 0 -25 10t-9 25z" />
    <glyph glyph-name="U" unicode="U" horiz-adv-x="1435" 
d="M1274 1399v-910q0 -161 -72.5 -279t-197 -177.5t-285.5 -59.5q-246 0 -401.5 136.5t-155.5 377.5v912q0 13 11 24t24 11h75q16 0 25.5 -10.5t9.5 -24.5v-912q0 -178 116 -280.5t296 -102.5q178 0 294.5 102.5t116.5 280.5v912q0 14 9.5 24.5t25.5 10.5h74q13 0 24 -11
t11 -24z" />
    <glyph glyph-name="V" unicode="V" horiz-adv-x="1329" 
d="M725 0h-121q-36 0 -47 33l-532 1362q-7 16 0.5 27.5t21.5 11.5h98q23 0 39 -31l482 -1253h8l477 1253q15 31 39 31h90q17 0 24 -11t1 -28l-533 -1362q-11 -33 -47 -33z" />
    <glyph glyph-name="W" unicode="W" horiz-adv-x="2066" 
d="M2034 1395l-412 -1362q-4 -16 -17.5 -24.5t-27.5 -8.5h-117q-36 0 -45 33l-381 1190l-379 -1190q-9 -33 -45 -33h-121q-36 0 -45 33l-411 1362q-5 17 3 28t25 11h91q27 0 36 -33l365 -1235l393 1235q9 33 41 33h96q32 0 41 -33l394 -1227l362 1227q9 33 37 33h88
q38 0 29 -39z" />
    <glyph glyph-name="X" unicode="X" horiz-adv-x="1239" 
d="M614 616l-424 -587q-19 -29 -51 -29h-100q-17 0 -22 12t6 23l501 694l-483 670q-7 11 0 23t20 12h101q32 0 51 -27l414 -571l409 571q19 27 51 27h95q16 0 21 -12t-3 -23l-483 -670l500 -694q10 -11 3.5 -23t-20.5 -12h-106q-29 0 -52 29z" />
    <glyph glyph-name="Y" unicode="Y" horiz-adv-x="1265" 
d="M559 35v577l-522 785q-10 12 -3.5 24.5t19.5 12.5h111q24 0 45 -27l422 -641h8l422 641q1 1 6 7t6.5 7.5t5.5 5t7 4.5t7.5 2t10.5 1h110q13 0 19.5 -12t-2.5 -25l-524 -785v-577q0 -13 -10.5 -24t-24.5 -11h-78q-14 0 -24.5 11t-10.5 24z" />
    <glyph glyph-name="Z" unicode="Z" horiz-adv-x="1214" 
d="M1143 0h-1077q-16 0 -25.5 10.5t-9.5 24.5v51q0 29 28 57l885 1157h-819q-13 0 -24 11t-11 24v64q0 13 11 24t24 11h975q33 0 33 -35v-56q0 -32 -29 -65l-873 -1145h912q13 0 23 -10.5t10 -24.5v-63q0 -14 -10 -24.5t-23 -10.5z" />
    <glyph glyph-name="bracketleft" unicode="[" horiz-adv-x="628" 
d="M600 1501v-51q0 -33 -33 -33h-258v-1509h258q13 0 23 -10.5t10 -24.5v-51q0 -33 -33 -33h-362q-14 0 -24.5 10t-10.5 23v1679q0 13 11 24t24 11h362q13 0 23 -10.5t10 -24.5z" />
    <glyph glyph-name="backslash" unicode="\" horiz-adv-x="907" 
d="M186 1403l660 -1366q7 -12 0 -24.5t-23 -12.5h-57q-32 0 -47 31l-656 1366q-6 14 1 25.5t24 11.5h53q33 0 45 -31z" />
    <glyph glyph-name="bracketright" unicode="]" horiz-adv-x="628" 
d="M29 1450v51q0 14 9.5 24.5t22.5 10.5h363q14 0 24.5 -11t10.5 -24v-1679q0 -13 -10.5 -23t-24.5 -10h-363q-32 0 -32 33v51q0 14 9.5 24.5t22.5 10.5h258v1509h-258q-32 0 -32 33z" />
    <glyph glyph-name="asciicircum" unicode="^" horiz-adv-x="960" 
d="M186 453h-82q-17 0 -24.5 11t-1.5 28l307 909q9 33 43 33h115q36 0 45 -33l295 -909q4 -17 -4 -28t-25 -11h-84q-37 0 -45 32l-240 799l-254 -799q-8 -32 -45 -32z" />
    <glyph glyph-name="underscore" unicode="_" horiz-adv-x="557" 
d="M512 -301h-467q-13 0 -24 10.5t-11 24.5v63q0 13 11 24t24 11h467q14 0 24.5 -11t10.5 -24v-63q0 -14 -10.5 -24.5t-24.5 -10.5z" />
    <glyph glyph-name="grave" unicode="`" horiz-adv-x="419" 
d="M106 1417h101q36 0 45 -31l106 -274q9 -35 -26 -35h-56q-16 0 -22.5 6t-15.5 23l-156 274q-6 13 0.5 25t23.5 12z" />
    <glyph glyph-name="a" unicode="a" 
d="M217 475q0 -157 97.5 -264t248.5 -107t248.5 107t97.5 264t-97.5 264t-248.5 107t-248.5 -107t-97.5 -264zM72 475q0 108 38 202.5t103 159.5t153 102.5t185 37.5q120 0 215.5 -57t140.5 -150v145q0 13 10.5 24t24.5 11h74q13 0 23 -10.5t10 -24.5v-880q0 -14 -10 -24.5
t-23 -10.5h-74q-14 0 -24.5 11t-10.5 24v145q-49 -94 -142.5 -150.5t-213.5 -56.5q-97 0 -185 37.5t-153 102.5t-103 159.5t-38 202.5z" />
    <glyph glyph-name="b" unicode="b" horiz-adv-x="1185" 
d="M279 1399v-627q48 93 143.5 148t216.5 55q201 0 338 -142t137 -360q0 -108 -38 -201.5t-102.5 -158.5t-152 -102.5t-184.5 -37.5q-117 0 -213.5 55.5t-144.5 147.5v-141q0 -13 -10.5 -24t-24.5 -11h-72q-14 0 -24.5 11t-10.5 24v1364q0 13 10.5 24t24.5 11h74
q13 0 23 -10.5t10 -24.5zM276 473q0 -157 98.5 -263t250.5 -106q151 0 248.5 106t97.5 263q0 158 -97.5 265.5t-248.5 107.5q-152 0 -250.5 -107t-98.5 -266z" />
    <glyph glyph-name="c" unicode="c" horiz-adv-x="1052" 
d="M985 217q-56 -113 -168.5 -178.5t-253.5 -65.5q-207 0 -349 143.5t-142 358.5t142 358.5t349 143.5q141 0 253.5 -65.5t168.5 -178.5q19 -34 -14 -51l-53 -27q-34 -18 -54 15q-101 176 -301 176q-151 0 -248.5 -107t-97.5 -264t97.5 -264t248.5 -107q199 0 301 177
q19 32 54 14l53 -27q33 -17 14 -51z" />
    <glyph glyph-name="d" unicode="d" horiz-adv-x="1185" 
d="M217 473q0 -157 97.5 -263t248.5 -106t248.5 106t97.5 263q0 158 -97.5 265.5t-248.5 107.5t-248.5 -107.5t-97.5 -265.5zM72 473q0 108 38 202.5t103 159.5t152 102.5t184 37.5q122 0 217.5 -56t140.5 -149v629q0 13 10.5 24t24.5 11h74q13 0 23 -10.5t10 -24.5v-1364
q0 -14 -10 -24.5t-23 -10.5h-74q-14 0 -24.5 11t-10.5 24v145q-49 -94 -142.5 -150.5t-213.5 -56.5q-200 0 -339.5 142t-139.5 358z" />
    <glyph glyph-name="e" unicode="e" horiz-adv-x="1091" 
d="M559 977q205 0 341 -134t136 -345v-27q0 -35 -32 -35h-787q12 -147 109 -242.5t243 -95.5q167 0 289 140q21 27 49 8l60 -37q23 -18 8 -43q-62 -90 -168 -141.5t-242 -51.5q-215 0 -354 142t-139 358q0 213 138.5 358.5t348.5 145.5zM221 541h676q-17 146 -109 230.5
t-229 84.5t-228.5 -88.5t-109.5 -226.5z" />
    <glyph glyph-name="f" unicode="f" horiz-adv-x="610" 
d="M57 950h148v219q0 143 85 219t204 76q125 0 208 -65q10 -7 11.5 -22t-6.5 -25l-35 -45q-17 -25 -58 -2q-52 32 -114 32q-67 0 -110.5 -47t-43.5 -125v-215h211q13 0 24 -11t11 -24v-51q0 -14 -11 -24.5t-24 -10.5h-211v-794q0 -14 -10 -24.5t-23 -10.5h-73
q-14 0 -24.5 11t-10.5 24v794h-148q-13 0 -22.5 10.5t-9.5 24.5v51q0 14 9.5 24.5t22.5 10.5z" />
    <glyph glyph-name="g" unicode="g" 
d="M215 477q0 -157 97.5 -264t248.5 -107t248.5 107t97.5 264t-97.5 263t-248.5 106t-248.5 -106t-97.5 -263zM563 -330q168 0 256 88.5t88 235.5v188q-45 -90 -140.5 -146t-215.5 -56q-132 0 -241.5 62t-173.5 176.5t-64 258.5q0 216 138.5 357t338.5 141q121 0 217 -57
t141 -150v147q0 13 10.5 24t24.5 11h74q13 0 23 -10.5t10 -24.5v-923q0 -198 -129 -320.5t-361 -122.5q-188 0 -306.5 83.5t-152.5 220.5q-4 12 3.5 22t19.5 12l74 21q35 6 41 -23q23 -91 105 -153t220 -62z" />
    <glyph glyph-name="h" unicode="h" horiz-adv-x="1161" 
d="M897 33v495q0 151 -77.5 235.5t-223.5 84.5t-231.5 -88.5t-85.5 -231.5v-495q0 -13 -10.5 -23t-22.5 -10h-74q-14 0 -24.5 11t-10.5 24v1364q0 13 10.5 24t24.5 11h74q12 0 22.5 -10t10.5 -23v-617q42 87 135 139t215 52q189 0 299 -114t110 -300v-528q0 -13 -10 -23
t-24 -10h-72q-14 0 -24.5 10t-10.5 23z" />
    <glyph glyph-name="i" unicode="i" horiz-adv-x="411" 
d="M207 1163q-47 0 -81 35t-34 82t34 82t81 35t81 -35t34 -82t-34 -82t-81 -35zM244 0h-74q-14 0 -24.5 11t-10.5 24v880q0 13 10.5 24t24.5 11h74q13 0 22.5 -10.5t9.5 -24.5v-880q0 -14 -9.5 -24.5t-22.5 -10.5z" />
    <glyph glyph-name="j" unicode="j" horiz-adv-x="411" 
d="M199 1165q-47 0 -82 34t-35 81t35 82t82 35t80.5 -34.5t33.5 -82.5q0 -47 -33.5 -81t-80.5 -34zM168 950h72q13 0 23.5 -10.5t10.5 -24.5v-1065q0 -100 -42.5 -170t-105.5 -100.5t-138 -30.5q-132 0 -207 66q-11 8 -12.5 21t8.5 24l28 41q22 32 54 10q58 -37 118 -37
q69 0 112.5 45.5t43.5 128.5v1067q0 13 10.5 24t24.5 11z" />
    <glyph glyph-name="k" unicode="k" horiz-adv-x="946" 
d="M279 471v-436q0 -14 -10 -24.5t-23 -10.5h-74q-14 0 -24.5 11t-10.5 24v1364q0 13 10.5 24t24.5 11h74q13 0 23 -10.5t10 -24.5v-807h124l316 338q17 20 37 20h114q14 0 18.5 -11t-5.5 -21l-371 -386l432 -497q11 -11 7 -23t-21 -12h-105q-34 0 -55 27l-381 444h-110z
" />
    <glyph glyph-name="l" unicode="l" horiz-adv-x="483" 
d="M440 0h-78q-108 0 -168.5 55.5t-60.5 173.5v1170q0 13 10.5 24t24.5 11h74q13 0 22.5 -10.5t9.5 -24.5v-1153q0 -125 123 -125h47q14 0 24.5 -9.5t10.5 -25.5v-49q0 -17 -12 -27t-27 -10z" />
    <glyph glyph-name="m" unicode="m" horiz-adv-x="1828" 
d="M276 537v-504q0 -13 -10 -23t-22 -10h-74q-14 0 -24.5 11t-10.5 24v880q0 13 10.5 24t24.5 11h74q12 0 22 -11t10 -24v-129q42 86 130.5 137.5t203.5 51.5q122 0 210.5 -58.5t127.5 -158.5q54 108 149 162.5t216 54.5q186 0 289.5 -114t103.5 -296v-532q0 -13 -10.5 -23
t-24.5 -10h-72q-14 0 -24 10t-10 23v504q0 141 -71.5 226t-207.5 85q-137 0 -216 -86.5t-79 -224.5v-504q0 -13 -10.5 -23t-24.5 -10h-71q-14 0 -24.5 10t-10.5 23v504q0 140 -71 225.5t-206 85.5q-138 0 -217.5 -86.5t-79.5 -224.5z" />
    <glyph glyph-name="n" unicode="n" horiz-adv-x="1159" 
d="M895 33v495q0 151 -77.5 235.5t-223.5 84.5t-232 -88.5t-86 -231.5v-495q0 -13 -10 -23t-22 -10h-74q-14 0 -24.5 11t-10.5 24v880q0 13 10.5 24t24.5 11h74q12 0 22 -11t10 -24v-131q42 87 135.5 139t215.5 52q189 0 299 -114t110 -300v-528q0 -13 -10.5 -23t-24.5 -10
h-71q-14 0 -24.5 10t-10.5 23z" />
    <glyph glyph-name="o" unicode="o" horiz-adv-x="1124" 
d="M72 475q0 105 39 198.5t105 159.5t156.5 104t190.5 38q204 0 347 -143.5t143 -356.5q0 -142 -66 -257.5t-178 -180t-246 -64.5q-100 0 -190.5 38t-156.5 104t-105 160t-39 200zM215 475q0 -157 98 -264t250 -107q151 0 248.5 107t97.5 264t-97.5 264t-248.5 107
q-152 0 -250 -107t-98 -264z" />
    <glyph glyph-name="p" unicode="p" 
d="M274 475q0 -157 98.5 -264t250.5 -107q149 0 246.5 107t97.5 264t-97.5 264t-246.5 107q-152 0 -250.5 -107t-98.5 -264zM276 915v-145q45 92 142.5 148.5t218.5 56.5q198 0 336.5 -142t138.5 -358q0 -108 -38 -202.5t-102.5 -159.5t-152 -102.5t-184.5 -37.5
q-117 0 -214 55.5t-145 147.5v-563q0 -14 -10.5 -24.5t-23.5 -10.5h-72q-14 0 -24.5 11t-10.5 24v1302q0 13 10.5 24t24.5 11h72q13 0 23.5 -10.5t10.5 -24.5z" />
    <glyph glyph-name="q" unicode="q" 
d="M72 475q0 216 139.5 358t337.5 142q122 0 217.5 -56t140.5 -149v145q0 13 10.5 24t24.5 11h74q13 0 23 -10.5t10 -24.5v-1302q0 -14 -10 -24.5t-23 -10.5h-74q-14 0 -24.5 11t-10.5 24v567q-49 -94 -142.5 -150.5t-213.5 -56.5q-97 0 -185 37.5t-153 102.5t-103 159.5
t-38 202.5zM217 475q0 -157 97.5 -264t248.5 -107t248.5 107t97.5 264t-97.5 264t-248.5 107t-248.5 -107t-97.5 -264z" />
    <glyph glyph-name="r" unicode="r" horiz-adv-x="620" 
d="M537 952h32q13 0 23 -9t10 -25v-74q0 -16 -9.5 -24.5t-21.5 -8.5h-34q-118 0 -189.5 -78t-71.5 -248v-452q0 -13 -10 -23t-22 -10h-74q-14 0 -24.5 11t-10.5 24v880q0 13 10.5 24t24.5 11h68q12 0 22 -11t10 -24v-141q29 74 99.5 126t167.5 52z" />
    <glyph glyph-name="s" unicode="s" horiz-adv-x="913" 
d="M457 977q108 0 198.5 -33t147.5 -86q12 -11 13 -26.5t-11 -26.5l-35 -35q-28 -25 -59 0q-122 90 -265 90q-101 0 -159 -43.5t-58 -109.5q0 -55 37.5 -88t122.5 -50l178 -34q146 -30 215.5 -93.5t69.5 -177.5q0 -52 -24 -102.5t-69.5 -93.5t-122.5 -69t-173 -26
q-228 0 -375 136q-46 46 -8 75l35 31q26 21 57 -6q132 -119 297 -119q111 0 174.5 49t63.5 115t-47.5 104.5t-147.5 57.5l-166 30q-262 47 -262 254q0 123 106.5 200t266.5 77z" />
    <glyph glyph-name="t" unicode="t" horiz-adv-x="716" 
d="M199 264v565h-148q-13 0 -23 10.5t-10 24.5v51q0 14 10 24.5t23 10.5h148v310q0 14 10.5 24t23.5 10h74q13 0 23 -10t10 -24v-310h305q13 0 23 -10.5t10 -24.5v-51q0 -14 -10 -24.5t-23 -10.5h-305v-542q0 -83 43.5 -127.5t112.5 -44.5q61 0 114 30q39 26 60 -4l26 -41
q10 -12 7.5 -25.5t-13.5 -21.5q-82 -67 -215 -67q-54 0 -102 16.5t-87.5 49t-63 87.5t-23.5 125z" />
    <glyph glyph-name="u" unicode="u" horiz-adv-x="1146" 
d="M264 915v-505q0 -149 76 -231.5t221 -82.5q143 0 226 87.5t83 226.5v505q0 13 11 24t24 11h72q13 0 24 -11t11 -24v-880q0 -13 -11 -24t-24 -11h-72q-14 0 -24.5 10t-10.5 23v133q-42 -89 -132 -141t-212 -52q-187 0 -295 112.5t-108 299.5v530q0 13 10.5 24t22.5 11h73
q13 0 24 -11t11 -24z" />
    <glyph glyph-name="v" unicode="v" horiz-adv-x="974" 
d="M543 0h-111q-36 0 -45 33l-346 878q-5 14 3.5 26.5t21.5 12.5h90q30 0 39 -28l294 -783l291 783q9 28 39 28h86q17 0 25 -12.5t2 -26.5l-342 -878q-14 -33 -47 -33z" />
    <glyph glyph-name="w" unicode="w" horiz-adv-x="1525" 
d="M764 774l-232 -741q-9 -33 -45 -33h-106q-36 0 -45 33l-297 878q-6 17 2 28t25 11h88q32 0 41 -28l241 -766l240 762q8 32 39 32h102q31 0 39 -32l240 -762l241 764q9 30 41 30h84q14 0 22.5 -11.5t2.5 -27.5l-295 -878q-9 -33 -45 -33h-109q-36 0 -45 33z" />
    <glyph glyph-name="x" unicode="x" horiz-adv-x="950" 
d="M463 383l-264 -356q-18 -27 -45 -27h-103q-13 0 -18.5 11t2.5 22l350 452l-336 433q-7 10 -1 21t18 11h114q16 0 24.5 -6t20.5 -22l264 -338l250 338q19 28 45 28h95q14 0 20 -11t-4 -21l-326 -437l351 -448q10 -11 3.5 -22t-20.5 -11h-115q-23 0 -47 27z" />
    <glyph glyph-name="y" unicode="y" horiz-adv-x="964" 
d="M217 -451q-142 0 -225 89q-23 23 2 51l33 37q23 30 57 0q63 -54 133 -54q108 0 162 142l70 186h-39q-30 0 -39 27l-324 884q-5 14 2.5 26.5t24.5 12.5h94q27 0 39 -32l285 -801l276 801q12 32 41 32h90q17 0 24 -11t1 -28l-414 -1140q-81 -222 -293 -222z" />
    <glyph glyph-name="z" unicode="z" horiz-adv-x="905" 
d="M811 823l-578 -700h586q13 0 23 -10.5t10 -24.5v-53q0 -14 -10 -24.5t-23 -10.5h-735q-14 0 -24.5 11t-10.5 24v49q0 26 19 45l577 698h-528q-13 0 -24 10.5t-11 24.5v53q0 13 11 24t24 11h678q13 0 23.5 -10.5t10.5 -24.5v-49q0 -25 -18 -43z" />
    <glyph glyph-name="braceleft" unicode="{" horiz-adv-x="649" 
d="M350 549v-539q0 -56 21 -79t69 -23h146q13 0 22.5 -10.5t9.5 -24.5v-51q0 -33 -32 -33h-187q-88 0 -142 50t-54 155v586q0 61 -60 61h-63q-13 0 -24 10.5t-11 26.5v41q0 17 11 27t24 10h63q60 0 60 63v510q0 105 54 156t142 51h187q13 0 22.5 -10.5t9.5 -24.5v-51
q0 -33 -32 -33h-146q-48 0 -69 -24t-21 -80v-465q0 -65 -33.5 -104t-72.5 -46q39 -7 72.5 -45.5t33.5 -103.5z" />
    <glyph glyph-name="bar" unicode="|" horiz-adv-x="454" 
d="M250 -256h-45q-13 0 -24 11t-11 24v1876q0 13 11 24t24 11h45q14 0 24.5 -11t10.5 -24v-1876q0 -13 -10.5 -24t-24.5 -11z" />
    <glyph glyph-name="braceright" unicode="}" horiz-adv-x="649" 
d="M299 10v539q0 65 33.5 103.5t73.5 45.5q-39 7 -73 46t-34 104v465q0 56 -21 80t-69 24h-146q-32 0 -32 33v51q0 14 9.5 24.5t22.5 10.5h187q88 0 142 -51t54 -156v-510q0 -63 60 -63h63q13 0 24 -10t11 -27v-41q0 -16 -11 -26.5t-24 -10.5h-63q-60 0 -60 -61v-586
q0 -105 -54 -155t-142 -50h-187q-32 0 -32 33v51q0 14 9.5 24.5t22.5 10.5h146q48 0 69 23t21 79z" />
    <glyph glyph-name="asciitilde" unicode="~" horiz-adv-x="1165" 
d="M866 612q-43 -3 -276 33.5t-275 36.5q-10 0 -18.5 -2t-14 -4t-13.5 -9t-11 -9.5t-13.5 -14t-13.5 -14.5q-21 -21 -45 -6l-28 30q-25 16 -19 43q13 45 60 82t106 37q43 0 275 -35t278 -35q9 0 16 1t14 4.5t11 5t11.5 8.5t10 9.5t11.5 12.5t12 13q18 21 43 6l27 -31
q27 -18 18 -43q-13 -45 -58.5 -81.5t-107.5 -37.5z" />
    <glyph glyph-name="uni00A0" unicode="&#xa0;" horiz-adv-x="489" 
 />
    <glyph glyph-name="exclamdown" unicode="&#xa1;" horiz-adv-x="473" 
d="M236 971q57 0 96 -39.5t39 -95.5t-39 -96t-96 -40q-55 0 -94.5 40t-39.5 96t39.5 95.5t94.5 39.5zM307 444l10 -899q0 -13 -10.5 -23.5t-23.5 -10.5h-90q-14 0 -24.5 10.5t-10.5 23.5l12 899q0 14 9.5 24.5t25.5 10.5h67q14 0 24.5 -10.5t10.5 -24.5z" />
    <glyph glyph-name="cent" unicode="&#xa2;" horiz-adv-x="1085" 
d="M625 -25v-122q0 -20 -15 -35t-35 -15h-28q-20 0 -34.5 15t-14.5 35v127q-179 30 -294.5 166t-115.5 329t115.5 329.5t294.5 166.5v135q0 20 14.5 33.5t34.5 13.5h28q21 0 35.5 -13.5t14.5 -33.5v-131q127 -10 226 -74t150 -168q19 -34 -14 -51l-53 -27q-33 -17 -53 15
q-87 153 -256 174v-738q168 20 256 175q19 32 53 14l53 -27q33 -17 14 -51q-51 -104 -150 -168t-226 -74zM233 475q0 -134 73 -232.5t192 -127.5v721q-119 -29 -192 -128t-73 -233z" />
    <glyph glyph-name="sterling" unicode="&#xa3;" horiz-adv-x="1189" 
d="M1102 102v-67q0 -13 -11 -24t-24 -11h-952q-13 0 -24 11t-11 24v67q0 14 11 24.5t24 10.5h147v449h-147q-13 0 -24 11t-11 24v57q0 14 11 24.5t24 10.5h147v301q0 203 123.5 324.5t312.5 121.5q137 0 243 -60.5t161 -172.5q6 -14 0.5 -27.5t-17.5 -19.5l-53 -27
q-18 -9 -32 -4t-21 18q-91 164 -281 164q-136 0 -211 -92t-75 -233v-293h352q14 0 24.5 -10.5t10.5 -24.5v-57q0 -13 -10.5 -24t-24.5 -11h-352v-449h655q13 0 24 -10.5t11 -24.5z" />
    <glyph glyph-name="currency" unicode="&#xa4;" horiz-adv-x="1454" 
d="M727 1190q-161 0 -285 -96l285 -301l285 301q-130 96 -285 96zM262 715q0 -172 103 -297l282 297l-282 297q-103 -125 -103 -297zM1190 715q0 176 -100 297l-285 -297l285 -297q100 121 100 297zM727 240q155 0 285 96l-285 301l-285 -301q124 -96 285 -96zM1319 715
q0 -223 -139 -387l133 -142q11 -11 12 -25.5t-10 -25.5l-35 -29q-25 -22 -47 0l-137 144q-150 -125 -369 -125q-218 0 -371 125l-135 -144q-25 -24 -49 0l-33 29q-10 11 -9.5 25.5t11.5 25.5l133 142q-139 164 -139 387t139 387l-133 141q-11 11 -11.5 25.5t9.5 25.5l33 29
q24 25 49 0l135 -143q153 125 371 125q219 0 369 -125l137 143q22 22 47 0l35 -29q11 -11 10 -25.5t-12 -25.5l-133 -141q139 -164 139 -387z" />
    <glyph glyph-name="yen" unicode="&#xa5;" horiz-adv-x="1333" 
d="M739 463v-428q0 -14 -10.5 -24.5t-23.5 -10.5h-78q-13 0 -23 10.5t-10 24.5v428h-365q-13 0 -23.5 10.5t-10.5 24.5v49q0 14 10.5 24.5t23.5 10.5h365v30l-117 176h-248q-13 0 -23.5 10.5t-10.5 24.5v47q0 14 10.5 24.5t23.5 10.5h168l-327 492q-10 12 -3 24.5t21 12.5
h109q24 0 45 -27l424 -641h6l424 641q15 27 41 27h110q13 0 19.5 -12t-2.5 -25l-328 -492h166q14 0 24.5 -10.5t10.5 -24.5v-47q0 -13 -10.5 -24t-24.5 -11h-246l-117 -176v-30h363q14 0 24.5 -11t10.5 -24v-49q0 -14 -10.5 -24.5t-24.5 -10.5h-363z" />
    <glyph glyph-name="brokenbar" unicode="&#xa6;" horiz-adv-x="464" 
d="M291 1655v-770q0 -14 -10 -24.5t-23 -10.5h-49q-13 0 -24 11t-11 24v770q0 13 11 24t24 11h49q13 0 23 -10.5t10 -24.5zM291 551v-772q0 -14 -10 -24.5t-23 -10.5h-49q-13 0 -24 11t-11 24v772q0 13 10.5 23t24.5 10h49q33 0 33 -33z" />
    <glyph glyph-name="section" unicode="&#xa7;" horiz-adv-x="1419" 
d="M555 420l256 -113q166 -78 233 -155q79 37 120.5 92t41.5 121q0 43 -14.5 78.5t-38 62.5t-70.5 56.5t-93.5 52.5t-125.5 59l-256 112q-164 77 -233 156q-79 -37 -120.5 -92t-41.5 -121q0 -43 14.5 -78.5t38 -62.5t70.5 -56.5t93.5 -52.5t125.5 -59zM662 -477
q-141 0 -263 52t-200 144q-24 35 4 60l45 35q14 10 31 7.5t28 -14.5q134 -155 352 -155q139 0 229.5 72t90.5 176q0 97 -57.5 163t-196.5 127l-369 164q-154 70 -222 159t-68 204q0 107 66 197.5t181 132.5q-24 61 -24 141q0 158 131 270.5t338 112.5q140 0 262.5 -52
t200.5 -145q24 -34 -4 -59l-46 -35q-14 -10 -31 -8t-28 14q-135 156 -352 156q-139 0 -229.5 -72t-90.5 -176q0 -97 57.5 -163.5t196.5 -127.5l369 -164q155 -70 223 -158.5t68 -203.5q0 -106 -66.5 -197t-181.5 -133q24 -61 24 -141q0 -77 -34 -146.5t-93.5 -122
t-148.5 -83.5t-192 -31z" />
    <glyph glyph-name="dieresis" unicode="&#xa8;" horiz-adv-x="651" 
d="M41 1184q0 45 33 78.5t80 33.5q44 0 77 -34t33 -78t-33 -77.5t-77 -33.5q-47 0 -80 33t-33 78zM385 1184q0 44 33.5 78t77.5 34q47 0 79.5 -33.5t32.5 -78.5t-32.5 -78t-79.5 -33q-44 0 -77.5 33.5t-33.5 77.5z" />
    <glyph glyph-name="copyright" unicode="&#xa9;" horiz-adv-x="1722" 
d="M90 717q0 216 103.5 391.5t280 274t388.5 98.5q158 0 300 -58t245.5 -158.5t164 -243t60.5 -304.5q0 -129 -39 -247t-110 -211t-166 -161.5t-212 -105.5t-243 -37q-158 0 -300.5 58t-246 158t-164.5 242.5t-61 303.5zM1524 717q0 141 -52 265t-141 211t-211 137t-258 50
q-183 0 -334.5 -85t-240 -237.5t-88.5 -340.5q0 -140 52 -263.5t141 -210.5t211 -137.5t259 -50.5q136 0 258 50.5t211 137.5t141 210.5t52 263.5zM870 1034q-132 0 -215.5 -89.5t-83.5 -227.5t83.5 -228t215.5 -90q166 0 258 154q18 34 58 16l47 -22q29 -15 20 -43
q-42 -104 -146 -169t-237 -65q-189 0 -315.5 127.5t-126.5 319.5t126.5 319t315.5 127q133 0 237 -64.5t146 -168.5q9 -28 -20 -43l-47 -23q-40 -18 -58 17q-91 153 -258 153z" />
    <glyph glyph-name="ordfeminine" unicode="&#xaa;" horiz-adv-x="952" 
d="M461 1358q-103 0 -168.5 -71.5t-65.5 -178.5t66 -179.5t168 -72.5t167.5 72.5t65.5 179.5q0 106 -66 178t-167 72zM694 799v71q-38 -56 -100.5 -88t-142.5 -32q-144 0 -243 100.5t-99 257.5q0 156 100 257t244 101q77 0 140 -32.5t101 -87.5v69q0 12 10 22.5t23 10.5h51
q12 0 21.5 -10t9.5 -23v-616q0 -13 -10 -23t-21 -10h-51q-33 0 -33 33zM776 541h-583q-12 0 -21.5 9t-9.5 21v47q0 13 9.5 23t21.5 10h583q33 0 33 -33v-47q0 -12 -10 -21t-23 -9z" />
    <glyph glyph-name="guillemotleft" unicode="&#xab;" horiz-adv-x="907" 
d="M430 61h-80q-35 0 -51 29l-195 375q-15 27 0 57l195 375q13 29 51 29h80q14 0 21 -11t0 -24l-195 -397l195 -398q6 -12 -1 -23.5t-20 -11.5zM778 61h-82q-33 0 -49 29l-196 375q-15 27 0 57l196 375q13 29 49 29h82q13 0 19.5 -11t-0.5 -24l-195 -397l195 -398
q6 -12 -0.5 -23.5t-18.5 -11.5z" />
    <glyph glyph-name="logicalnot" unicode="&#xac;" horiz-adv-x="1122" 
d="M983 932v-432q0 -14 -10.5 -24.5t-24.5 -10.5h-74q-16 0 -25 10t-9 25v327h-719q-14 0 -24.5 9.5t-10.5 25.5v70q0 16 10.5 25.5t24.5 9.5h827q14 0 24.5 -9.5t10.5 -25.5z" />
    <glyph glyph-name="registered" unicode="&#xae;" horiz-adv-x="1714" 
d="M90 717q0 162 60.5 304.5t163.5 243t244.5 158.5t299.5 58q157 0 298 -58t244 -158.5t163.5 -243t60.5 -304.5q0 -161 -60.5 -303.5t-163.5 -242.5t-244 -158t-298 -58q-158 0 -299.5 58t-244.5 158t-163.5 242.5t-60.5 303.5zM1516 717q0 142 -51.5 267t-139.5 213
t-209.5 138.5t-257.5 50.5t-258 -50.5t-210.5 -138.5t-140.5 -213t-52 -267q0 -189 88.5 -342.5t239.5 -239.5t333 -86q136 0 257.5 50.5t209.5 138.5t139.5 212.5t51.5 266.5zM1124 883q0 86 -58 136t-151 50h-223v-377h223q92 0 150.5 52t58.5 139zM664 250h-66
q-10 0 -19.5 9t-9.5 20v868q0 11 9.5 20t19.5 9h313q160 0 250 -86t90 -209q0 -96 -56 -171.5t-159 -105.5l191 -325q5 -8 -1 -18.5t-16 -10.5h-77q-28 0 -43 26l-179 310h-219v-307q0 -11 -9 -20t-19 -9z" />
    <glyph glyph-name="overscore" unicode="&#xaf;" horiz-adv-x="1095" 
d="M782 1122h-469q-13 0 -23.5 10.5t-10.5 24.5v49q0 14 10.5 24.5t23.5 10.5h469q14 0 24.5 -10.5t10.5 -24.5v-49q0 -13 -10.5 -24t-24.5 -11z" />
    <glyph glyph-name="degree" unicode="&#xb0;" horiz-adv-x="761" 
d="M381 866q-124 0 -211.5 87t-87.5 210t87.5 210t211.5 87t211.5 -87t87.5 -210t-87.5 -210t-211.5 -87zM381 1360q-79 0 -133.5 -56.5t-54.5 -140.5t54.5 -141t133.5 -57t134.5 57t55.5 141t-55.5 140.5t-134.5 56.5z" />
    <glyph glyph-name="plusminus" unicode="&#xb1;" horiz-adv-x="1126" 
d="M524 1208h76q14 0 24.5 -10.5t10.5 -23.5v-345h342q16 0 25.5 -10t9.5 -24v-72q0 -14 -9.5 -24.5t-25.5 -10.5h-342v-346q0 -16 -10.5 -25.5t-24.5 -9.5h-76q-14 0 -24.5 9.5t-10.5 25.5v346h-339q-14 0 -24.5 11t-10.5 24v72q0 13 10.5 23.5t24.5 10.5h339v345
q0 13 10.5 23.5t24.5 10.5zM1012 102v-67q0 -14 -9.5 -24.5t-25.5 -10.5h-827q-14 0 -24.5 11t-10.5 24v67q0 14 10.5 24.5t24.5 10.5h827q16 0 25.5 -10.5t9.5 -24.5z" />
    <glyph glyph-name="twosuperior" unicode="&#xb2;" horiz-adv-x="622" 
d="M545 1020h-463q-23 0 -23 20v56q0 15 15 30l215 185q86 72 124 118t38 101q0 58 -40.5 92.5t-99.5 34.5q-114 0 -161 -125q-9 -25 -37 -16l-45 12q-20 6 -17 28q18 82 88.5 137.5t171.5 55.5q105 0 174.5 -59.5t69.5 -155.5q0 -69 -38 -128t-126 -132l-190 -158h344
q10 0 17 -7t7 -15v-52q0 -22 -24 -22z" />
    <glyph glyph-name="threesuperior" unicode="&#xb3;" horiz-adv-x="634" 
d="M315 1669q-97 0 -139 -86q-9 -22 -33 -12l-43 16q-22 9 -10 33q26 57 85.5 96t146.5 39q97 0 158 -52t61 -134q0 -54 -28 -96t-77 -62q64 -18 103 -65t39 -113q0 -98 -74 -160.5t-191 -62.5q-122 0 -196 63t-74 162v16q0 17 16 17h70q16 0 16 -17v-16q0 -53 43.5 -96
t122.5 -43q72 0 117 40.5t45 96.5t-41 91.5t-113 35.5h-22q-23 0 -23 22v37q0 25 23 25h22q55 0 89 31t34 79q0 49 -34.5 82t-92.5 33z" />
    <glyph glyph-name="acute" unicode="&#xb4;" horiz-adv-x="419" 
d="M223 1417h101q17 0 23.5 -12.5t-1.5 -24.5l-153 -274q-16 -29 -41 -29h-56q-36 0 -24 35l106 274q9 31 45 31z" />
    <glyph glyph-name="mu" unicode="&#xb5;" horiz-adv-x="1216" 
d="M164 -281v1196q0 13 11 24t24 11h73q14 0 24.5 -11t10.5 -24v-505q0 -149 76 -231.5t221 -82.5q143 0 225 87t82 227v505q0 13 10.5 24t24.5 11h74q13 0 23 -10.5t10 -24.5v-880q0 -14 -10 -24.5t-23 -10.5h-74q-14 0 -24.5 10t-10.5 23v133q-42 -88 -130 -140.5
t-203 -52.5q-94 0 -171 34.5t-112 94.5v-383q0 -13 -10.5 -23.5t-24.5 -10.5h-61q-14 0 -24.5 10.5t-10.5 23.5z" />
    <glyph glyph-name="paragraph" unicode="&#xb6;" horiz-adv-x="1116" 
d="M68 1053q0 158 109 269.5t269 111.5h441q16 0 25.5 -10.5t9.5 -24.5v-1364q0 -14 -9.5 -24.5t-25.5 -10.5h-53q-14 0 -24.5 11t-10.5 24v1286h-228v-1286q0 -14 -9.5 -24.5t-22.5 -10.5h-58q-13 0 -22.5 10.5t-9.5 24.5v641h-9q-159 0 -265.5 110t-106.5 267z" />
    <glyph glyph-name="middot" unicode="&#xb7;" horiz-adv-x="507" 
d="M254 592q-57 0 -97 40t-40 97t40 97t97 40t97 -40t40 -97t-40 -97t-97 -40z" />
    <glyph glyph-name="cedilla" unicode="&#xb8;" horiz-adv-x="380" 
d="M193 12l139 -10l-125 -276q-13 -29 -39 -29h-64q-14 0 -21 9.5t-1 27.5z" />
    <glyph glyph-name="onesuperior" unicode="&#xb9;" horiz-adv-x="358" 
d="M31 1587v45q0 21 18 21h31q33 0 51 11.5t35 45.5q7 15 14 22t12.5 8t16.5 1h27q22 0 22 -21v-678q0 -22 -25 -22h-53q-22 0 -22 22v527h-109q-18 0 -18 18z" />
    <glyph glyph-name="ordmasculine" unicode="&#xba;" horiz-adv-x="929" 
d="M467 750q-148 0 -250 102t-102 256q0 153 102.5 256.5t249.5 103.5t248.5 -103.5t101.5 -256.5q0 -154 -101 -256t-249 -102zM465 1360q-102 0 -168 -72.5t-66 -179.5q0 -106 66 -178t168 -72q103 0 169 72t66 178q0 107 -66 179.5t-169 72.5zM750 541h-568
q-13 0 -22.5 9t-9.5 21v47q0 33 32 33h568q12 0 21 -10t9 -23v-47q0 -12 -9 -21t-21 -9z" />
    <glyph glyph-name="guillemotright" unicode="&#xbb;" horiz-adv-x="905" 
d="M803 465l-197 -375q-16 -29 -49 -29h-82q-12 0 -18 11.5t0 23.5l194 398l-194 397q-7 13 -1 24t19 11h82q33 0 49 -29l197 -375q15 -30 0 -57zM457 465l-197 -375q-13 -29 -51 -29h-80q-12 0 -19 11.5t-1 23.5l194 398l-194 397q-6 13 1 24t19 11h80q38 0 51 -29
l197 -375q15 -30 0 -57z" />
    <glyph glyph-name="onequarter" unicode="&#xbc;" horiz-adv-x="1363" 
d="M1145 1378l-930 -1339q-12 -20 -23 -29.5t-30 -9.5h-23q-23 0 -29.5 17.5t7.5 37.5l930 1340q12 20 23 29.5t30 9.5h22q23 0 30 -18t-7 -38zM86 1280v45q0 21 18 21h31q33 0 51 11.5t35 45.5q7 15 14 22t12.5 8t16.5 1h27q22 0 22 -21v-678q0 -22 -24 -22h-53
q-23 0 -23 22v527h-109q-18 0 -18 18zM1141 0h-51q-11 0 -18 6.5t-7 16.5v180h-336q-20 0 -20 22v35q0 29 10 43l305 397q15 21 35 21h82q10 0 17 -7t7 -18v-409h111q20 0 20 -25v-35q0 -10 -6 -17t-14 -7h-111v-180q0 -23 -24 -23zM813 287h252v329z" />
    <glyph glyph-name="onehalf" unicode="&#xbd;" horiz-adv-x="1454" 
d="M1130 1378l-929 -1339q-24 -39 -54 -39h-22q-23 0 -30 17.5t7 37.5l930 1340q12 20 23 29.5t30 9.5h23q23 0 29.5 -18t-7.5 -38zM86 1280v45q0 21 18 21h31q33 0 51 11.5t35 45.5q7 15 14 22t12.5 8t16.5 1h27q22 0 22 -21v-678q0 -22 -24 -22h-53q-23 0 -23 22v527h-109
q-18 0 -18 18zM1358 0h-463q-23 0 -23 20v56q0 15 15 30l215 185q86 72 124 118t38 101q0 58 -40.5 92.5t-99.5 34.5q-114 0 -161 -125q-9 -25 -37 -16l-45 12q-20 6 -17 29q18 81 88.5 136.5t171.5 55.5q105 0 174.5 -59.5t69.5 -155.5q0 -69 -38 -128t-126 -132l-190 -158
h344q10 0 17 -7t7 -15v-51q0 -23 -24 -23z" />
    <glyph glyph-name="threequarters" unicode="&#xbe;" horiz-adv-x="1486" 
d="M1286 1378l-930 -1339q-12 -20 -23 -29.5t-30 -9.5h-22q-23 0 -30 17.5t7 37.5l930 1340q12 20 23 29.5t30 9.5h23q23 0 29.5 -18t-7.5 -38zM348 1366q-97 0 -139 -86q-9 -22 -33 -12l-43 16q-22 9 -10 33q26 57 85 96t146 39q97 0 158 -52t61 -134q0 -54 -27.5 -96
t-76.5 -62q64 -18 102.5 -65t38.5 -113q0 -98 -73.5 -160.5t-190.5 -62.5q-122 0 -196 63t-74 162v16q0 17 16 17h70q16 0 16 -17v-16q0 -53 43.5 -96t122.5 -43q72 0 117 40.5t45 96.5t-41 91.5t-113 35.5h-22q-23 0 -23 22v37q0 25 23 25h22q55 0 89 31t34 79
q0 49 -34.5 82t-92.5 33zM1262 0h-52q-24 0 -24 23v180h-336q-21 0 -21 22v35q0 28 11 43l305 397q15 21 35 21h82q10 0 17 -7t7 -18v-409h111q20 0 20 -25v-35q0 -10 -6 -17t-14 -7h-111v-180q0 -23 -24 -23zM934 287h252v329z" />
    <glyph glyph-name="questiondown" unicode="&#xbf;" horiz-adv-x="950" 
d="M467 971q57 0 96 -38.5t39 -94.5t-39 -94.5t-96 -38.5q-54 0 -93.5 39t-39.5 94t39.5 94t93.5 39zM475 -516q-177 0 -289 101t-112 251q0 85 34 161t82 133t96.5 110t82.5 114.5t34 124.5v25q0 12 9 20t20 8h78q12 0 21.5 -9t9.5 -21v-33q0 -77 -33 -147.5t-79.5 -125
t-93 -107.5t-79.5 -116t-33 -129q0 -103 74.5 -167t181.5 -64q193 0 289 194q6 13 24 17.5t31 -2.5l51 -23q33 -17 15 -57q-53 -114 -164 -186t-250 -72z" />
    <glyph glyph-name="Agrave" unicode="&#xc0;" horiz-adv-x="1318" 
d="M453 1901h100q36 0 45 -31l107 -275q9 -34 -27 -34h-55q-16 0 -23 6t-16 22l-156 275q-6 13 1 25t24 12zM365 539h581l-291 764zM317 414l-145 -381q-9 -33 -37 -33h-86q-17 0 -23.5 11t-0.5 28l530 1362q11 33 43 33h123q32 0 43 -33l530 -1362q7 -16 -0.5 -27.5
t-21.5 -11.5h-92q-30 0 -41 33l-146 381h-676z" />
    <glyph glyph-name="Aacute" unicode="&#xc1;" horiz-adv-x="1318" 
d="M774 1901h100q17 0 24 -12.5t-1 -24.5l-154 -275q-16 -28 -41 -28h-55q-36 0 -24 34l106 275q9 31 45 31zM365 539h581l-291 764zM317 414l-145 -381q-9 -33 -37 -33h-86q-17 0 -23.5 11t-0.5 28l530 1362q11 33 43 33h123q32 0 43 -33l530 -1362q7 -16 -0.5 -27.5
t-21.5 -11.5h-92q-30 0 -41 33l-146 381h-676z" />
    <glyph glyph-name="Acircumflex" unicode="&#xc2;" horiz-adv-x="1318" 
d="M623 1901h77q30 0 52 -31l184 -273q9 -13 2 -24.5t-20 -11.5h-70q-24 0 -45 24l-144 193l-141 -193q-21 -24 -45 -24h-70q-14 0 -21 11.5t3 24.5l184 273q11 18 21.5 24.5t32.5 6.5zM365 539h581l-291 764zM317 414l-145 -381q-9 -33 -37 -33h-86q-17 0 -23.5 11t-0.5 28
l530 1362q11 33 43 33h123q32 0 43 -33l530 -1362q7 -16 -0.5 -27.5t-21.5 -11.5h-92q-30 0 -41 33l-146 381h-676z" />
    <glyph glyph-name="Atilde" unicode="&#xc3;" horiz-adv-x="1318" 
d="M795 1591q-43 0 -144 35t-121 35q-28 0 -43 -11t-34 -40q-14 -24 -47 -4l-27 18q-17 10 -17 29q0 43 48.5 90t115.5 47q41 0 142.5 -35t122.5 -35q28 0 41.5 10t35.5 42q18 27 47 4l27 -19q16 -10 16 -28q0 -44 -48 -91t-115 -47zM365 539h581l-291 764zM317 414
l-145 -381q-9 -33 -37 -33h-86q-17 0 -23.5 11t-0.5 28l530 1362q11 33 43 33h123q32 0 43 -33l530 -1362q7 -16 -0.5 -27.5t-21.5 -11.5h-92q-30 0 -41 33l-146 381h-676z" />
    <glyph glyph-name="Adieresis" unicode="&#xc4;" horiz-adv-x="1318" 
d="M375 1667q0 45 33 79t79 34q44 0 77.5 -34.5t33.5 -78.5t-33.5 -77.5t-77.5 -33.5q-47 0 -79.5 33t-32.5 78zM719 1667q0 45 33 79t77 34q47 0 80 -34t33 -79t-33 -78t-80 -33q-44 0 -77 33.5t-33 77.5zM365 539h581l-291 764zM317 414l-145 -381q-9 -33 -37 -33h-86
q-17 0 -23.5 11t-0.5 28l530 1362q11 33 43 33h123q32 0 43 -33l530 -1362q7 -16 -0.5 -27.5t-21.5 -11.5h-92q-30 0 -41 33l-146 381h-676z" />
    <glyph glyph-name="Aring" unicode="&#xc5;" horiz-adv-x="1318" 
d="M895 1755q0 -97 -69.5 -161t-166.5 -64t-165 64t-68 161t68 161t165 64t166.5 -64t69.5 -161zM782 1755q0 55 -34 91t-89 36t-88.5 -36t-33.5 -91t33.5 -91t88.5 -36t89 36t34 91zM365 539h581l-291 764zM317 414l-145 -381q-9 -33 -37 -33h-86q-17 0 -23.5 11t-0.5 28
l530 1362q11 33 43 33h123q32 0 43 -33l530 -1362q7 -16 -0.5 -27.5t-21.5 -11.5h-92q-30 0 -41 33l-146 381h-676z" />
    <glyph glyph-name="AE" unicode="&#xc6;" horiz-adv-x="1861" 
d="M952 539l-293 776l-294 -776h587zM315 414l-143 -381q-9 -33 -45 -33h-78q-14 0 -22 11t-2 28l530 1362q11 33 47 33h1167q13 0 24 -11t11 -24v-68q0 -13 -11 -24t-24 -11h-958l195 -503h487q35 0 35 -35v-64q0 -14 -9.5 -24.5t-25.5 -10.5h-440l202 -522h514
q13 0 24 -10.5t11 -24.5v-67q0 -13 -11 -24t-24 -11h-581q-36 0 -47 33l-148 381h-678z" />
    <glyph glyph-name="Ccedilla" unicode="&#xc7;" horiz-adv-x="1529" 
d="M844 -27l-113 -247q-13 -29 -39 -29h-63q-15 0 -22 9.5t-1 27.5l99 246q-132 18 -247.5 81t-198.5 158.5t-131 224.5t-48 273q0 157 57.5 295.5t155.5 236.5t232 154.5t282 56.5q228 0 411.5 -120.5t260.5 -327.5q5 -12 -1 -23t-22 -12l-90 -14q-27 -2 -37 28
q-69 157 -204.5 246.5t-317.5 89.5q-164 0 -296.5 -80.5t-206 -220t-73.5 -309.5q0 -127 43.5 -240t119 -194.5t183 -129t230.5 -47.5q182 0 317.5 89.5t204.5 246.5q10 31 37 29l90 -14q16 -1 22 -12t1 -23q-72 -198 -245.5 -317.5t-389.5 -131.5z" />
    <glyph glyph-name="Egrave" unicode="&#xc8;" horiz-adv-x="1251" 
d="M463 1901h100q36 0 45 -31l107 -275q9 -34 -27 -34h-55q-16 0 -23 6t-16 22l-156 275q-6 13 1 25t24 12zM211 1434h944q13 0 24 -11t11 -24v-66q0 -13 -11 -24t-24 -11h-831v-505h426q34 0 34 -35v-64q0 -15 -9 -25t-25 -10h-426v-524h835q13 0 24 -10.5t11 -24.5v-65
q0 -13 -11 -24t-24 -11h-948q-13 0 -24 11t-11 24v1364q0 13 11 24t24 11z" />
    <glyph glyph-name="Eacute" unicode="&#xc9;" horiz-adv-x="1251" 
d="M784 1901h101q17 0 23.5 -12.5t-1.5 -24.5l-153 -275q-16 -28 -41 -28h-56q-36 0 -24 34l106 275q9 31 45 31zM211 1434h944q13 0 24 -11t11 -24v-66q0 -13 -11 -24t-24 -11h-831v-505h426q34 0 34 -35v-64q0 -15 -9 -25t-25 -10h-426v-524h835q13 0 24 -10.5t11 -24.5
v-65q0 -13 -11 -24t-24 -11h-948q-13 0 -24 11t-11 24v1364q0 13 11 24t24 11z" />
    <glyph glyph-name="Ecircumflex" unicode="&#xca;" horiz-adv-x="1251" 
d="M631 1901h78q29 0 51 -31l184 -273q9 -13 2 -24.5t-20 -11.5h-70q-24 0 -45 24l-143 193l-142 -193q-21 -24 -45 -24h-69q-14 0 -21.5 11.5t2.5 24.5l185 273q11 18 21 24.5t32 6.5zM211 1434h944q13 0 24 -11t11 -24v-66q0 -13 -11 -24t-24 -11h-831v-505h426
q34 0 34 -35v-64q0 -15 -9 -25t-25 -10h-426v-524h835q13 0 24 -10.5t11 -24.5v-65q0 -13 -11 -24t-24 -11h-948q-13 0 -24 11t-11 24v1364q0 13 11 24t24 11z" />
    <glyph glyph-name="Edieresis" unicode="&#xcb;" horiz-adv-x="1251" 
d="M385 1667q0 45 33 79t80 34q44 0 77 -34t33 -79q0 -44 -33 -77.5t-77 -33.5q-47 0 -80 33t-33 78zM729 1667q0 44 33.5 78.5t77.5 34.5q46 0 79 -34t33 -79t-32.5 -78t-79.5 -33q-44 0 -77.5 33.5t-33.5 77.5zM211 1434h944q13 0 24 -11t11 -24v-66q0 -13 -11 -24
t-24 -11h-831v-505h426q34 0 34 -35v-64q0 -15 -9 -25t-25 -10h-426v-524h835q13 0 24 -10.5t11 -24.5v-65q0 -13 -11 -24t-24 -11h-948q-13 0 -24 11t-11 24v1364q0 13 11 24t24 11z" />
    <glyph glyph-name="Igrave" unicode="&#xcc;" horiz-adv-x="499" 
d="M43 1901h100q36 0 45 -31l107 -275q9 -34 -27 -34h-55q-16 0 -23 6t-16 22l-156 275q-6 13 1 25t24 12zM289 0h-78q-13 0 -24 11t-11 24v1364q0 13 11 24t24 11h78q13 0 24 -11t11 -24v-1364q0 -13 -11 -24t-24 -11z" />
    <glyph glyph-name="Iacute" unicode="&#xcd;" horiz-adv-x="499" 
d="M365 1901h100q17 0 23.5 -12.5t-1.5 -24.5l-153 -275q-16 -28 -41 -28h-55q-37 0 -25 34l106 275q9 31 46 31zM289 0h-78q-13 0 -24 11t-11 24v1364q0 13 11 24t24 11h78q13 0 24 -11t11 -24v-1364q0 -13 -11 -24t-24 -11z" />
    <glyph glyph-name="Icircumflex" unicode="&#xce;" horiz-adv-x="499" 
d="M211 1901h78q29 0 51 -31l184 -273q9 -13 2 -24.5t-20 -11.5h-70q-24 0 -45 24l-143 193l-142 -193q-21 -24 -45 -24h-69q-14 0 -21.5 11.5t2.5 24.5l185 273q11 18 21 24.5t32 6.5zM289 0h-78q-13 0 -24 11t-11 24v1364q0 13 11 24t24 11h78q13 0 24 -11t11 -24v-1364
q0 -13 -11 -24t-24 -11z" />
    <glyph glyph-name="Idieresis" unicode="&#xcf;" horiz-adv-x="499" 
d="M-35 1667q0 45 33 79t80 34q44 0 77 -34t33 -79q0 -44 -33 -77.5t-77 -33.5q-47 0 -80 33t-33 78zM309 1667q0 44 33.5 78.5t77.5 34.5q46 0 79 -34t33 -79t-32.5 -78t-79.5 -33q-44 0 -77.5 33.5t-33.5 77.5zM289 0h-78q-13 0 -24 11t-11 24v1364q0 13 11 24t24 11h78
q13 0 24 -11t11 -24v-1364q0 -13 -11 -24t-24 -11z" />
    <glyph glyph-name="Eth" unicode="&#xd0;" horiz-adv-x="1517" 
d="M672 0h-436q-14 0 -24.5 11t-10.5 24v631h-164q-14 0 -24.5 10.5t-10.5 23.5v54q0 13 10.5 23.5t24.5 10.5h164v611q0 13 10.5 24t24.5 11h436q363 0 563.5 -195.5t200.5 -521.5t-200.5 -521.5t-563.5 -195.5zM348 135h344q268 0 430 154.5t162 427.5t-162 427t-430 154
h-344v-510h426q16 0 25.5 -10t9.5 -24v-54q0 -14 -9.5 -24t-25.5 -10h-426v-531z" />
    <glyph glyph-name="Ntilde" unicode="&#xd1;" horiz-adv-x="1476" 
d="M874 1591q-43 0 -143.5 35t-120.5 35q-28 0 -43.5 -11.5t-34.5 -39.5q-14 -24 -47 -4l-26 18q-17 10 -17 29q0 43 48.5 90t115.5 47q41 0 142 -35t122 -35q28 0 42 10.5t36 41.5q18 27 47 4l27 -19q16 -10 16 -28q0 -44 -48.5 -91t-115.5 -47zM1118 31l-794 1171v-1167
q0 -13 -11 -24t-24 -11h-78q-13 0 -24 11t-11 24v1364q0 13 11 24t24 11h100q31 0 54 -29l790 -1167v1161q0 14 10 24.5t23 10.5h78q13 0 23.5 -10.5t10.5 -24.5v-1364q0 -14 -10.5 -24.5t-23.5 -10.5h-88q-38 0 -60 31z" />
    <glyph glyph-name="Ograve" unicode="&#xd2;" horiz-adv-x="1611" 
d="M598 1901h100q36 0 45 -31l107 -275q9 -34 -27 -34h-55q-16 0 -23 6t-16 22l-156 275q-6 13 1 25t24 12zM1532 717q0 -157 -57.5 -295.5t-155.5 -236.5t-232 -155t-282 -57t-281.5 57t-231 155t-155 236.5t-57.5 295.5t57.5 295.5t155 236.5t231 154.5t281.5 56.5
t282 -56.5t232 -154.5t155.5 -236.5t57.5 -295.5zM1380 717q0 171 -73 310t-205 219.5t-297 80.5q-164 0 -296 -80.5t-205 -220t-73 -309.5q0 -127 43 -240t118.5 -194.5t182.5 -129t230 -47.5q165 0 297 80.5t205 220t73 310.5z" />
    <glyph glyph-name="Oacute" unicode="&#xd3;" horiz-adv-x="1611" 
d="M920 1901h100q17 0 23.5 -12.5t-1.5 -24.5l-153 -275q-16 -28 -41 -28h-55q-37 0 -25 34l106 275q9 31 46 31zM1532 717q0 -157 -57.5 -295.5t-155.5 -236.5t-232 -155t-282 -57t-281.5 57t-231 155t-155 236.5t-57.5 295.5t57.5 295.5t155 236.5t231 154.5t281.5 56.5
t282 -56.5t232 -154.5t155.5 -236.5t57.5 -295.5zM1380 717q0 171 -73 310t-205 219.5t-297 80.5q-164 0 -296 -80.5t-205 -220t-73 -309.5q0 -127 43 -240t118.5 -194.5t182.5 -129t230 -47.5q165 0 297 80.5t205 220t73 310.5z" />
    <glyph glyph-name="Ocircumflex" unicode="&#xd4;" horiz-adv-x="1611" 
d="M768 1901h78q29 0 51 -31l184 -273q9 -13 2 -24.5t-20 -11.5h-70q-24 0 -45 24l-143 193l-141 -193q-21 -24 -46 -24h-69q-14 0 -21.5 11.5t2.5 24.5l185 273q11 18 21 24.5t32 6.5zM1532 717q0 -157 -57.5 -295.5t-155.5 -236.5t-232 -155t-282 -57t-281.5 57t-231 155
t-155 236.5t-57.5 295.5t57.5 295.5t155 236.5t231 154.5t281.5 56.5t282 -56.5t232 -154.5t155.5 -236.5t57.5 -295.5zM1380 717q0 171 -73 310t-205 219.5t-297 80.5q-164 0 -296 -80.5t-205 -220t-73 -309.5q0 -127 43 -240t118.5 -194.5t182.5 -129t230 -47.5
q165 0 297 80.5t205 220t73 310.5z" />
    <glyph glyph-name="Otilde" unicode="&#xd5;" horiz-adv-x="1611" 
d="M940 1591q-43 0 -143.5 35t-120.5 35q-28 0 -43.5 -11.5t-34.5 -39.5q-14 -24 -47 -4l-27 18q-16 10 -16 29q0 43 48.5 90t115.5 47q41 0 142 -35t122 -35q28 0 42 10.5t36 41.5q18 27 47 4l26 -19q17 -10 17 -28q0 -44 -48.5 -91t-115.5 -47zM1532 717
q0 -157 -57.5 -295.5t-155.5 -236.5t-232 -155t-282 -57t-281.5 57t-231 155t-155 236.5t-57.5 295.5t57.5 295.5t155 236.5t231 154.5t281.5 56.5t282 -56.5t232 -154.5t155.5 -236.5t57.5 -295.5zM1380 717q0 171 -73 310t-205 219.5t-297 80.5q-164 0 -296 -80.5
t-205 -220t-73 -309.5q0 -127 43 -240t118.5 -194.5t182.5 -129t230 -47.5q165 0 297 80.5t205 220t73 310.5z" />
    <glyph glyph-name="Odieresis" unicode="&#xd6;" horiz-adv-x="1611" 
d="M520 1667q0 45 33 79t80 34q44 0 77 -34t33 -79q0 -44 -33 -77.5t-77 -33.5q-47 0 -80 33t-33 78zM864 1667q0 44 33.5 78.5t77.5 34.5q46 0 79 -34t33 -79t-32.5 -78t-79.5 -33q-44 0 -77.5 33.5t-33.5 77.5zM1532 717q0 -157 -57.5 -295.5t-155.5 -236.5t-232 -155
t-282 -57t-281.5 57t-231 155t-155 236.5t-57.5 295.5t57.5 295.5t155 236.5t231 154.5t281.5 56.5t282 -56.5t232 -154.5t155.5 -236.5t57.5 -295.5zM1380 717q0 171 -73 310t-205 219.5t-297 80.5q-164 0 -296 -80.5t-205 -220t-73 -309.5q0 -127 43 -240t118.5 -194.5
t182.5 -129t230 -47.5q165 0 297 80.5t205 220t73 310.5z" />
    <glyph glyph-name="multiply" unicode="&#xd7;" horiz-adv-x="1101" 
d="M551 627l-309 -310q-11 -11 -26 -11.5t-26 9.5l-49 52q-11 11 -11 25t11 24l312 311l-312 309q-25 26 -2 49l51 52q10 11 25 11t25 -11l311 -312l311 312q10 11 24 11t25 -11l52 -52q23 -23 -2 -49l-310 -309l310 -311q11 -10 11 -24t-11 -25l-50 -52q-11 -10 -25.5 -9.5
t-25.5 11.5z" />
    <glyph glyph-name="Oslash" unicode="&#xd8;" horiz-adv-x="1611" 
d="M1532 717q0 -157 -57.5 -295.5t-155.5 -236.5t-232 -155t-282 -57t-281.5 57t-231 155t-155 236.5t-57.5 295.5t57.5 295.5t155 236.5t231 154.5t281.5 56.5t282 -56.5t232 -154.5t155.5 -236.5t57.5 -295.5zM231 717q0 -242 140.5 -411.5t365.5 -194.5v1212
q-225 -25 -365.5 -194.5t-140.5 -411.5zM1380 717q0 242 -141.5 411.5t-366.5 194.5v-1212q225 25 366.5 194.5t141.5 411.5z" />
    <glyph glyph-name="Ugrave" unicode="&#xd9;" horiz-adv-x="1435" 
d="M512 1901h100q36 0 45 -31l107 -275q9 -34 -27 -34h-55q-16 0 -23 6t-16 22l-156 275q-6 13 1 25t24 12zM1274 1399v-910q0 -161 -72.5 -279t-197 -177.5t-285.5 -59.5q-246 0 -401.5 136.5t-155.5 377.5v912q0 13 11 24t24 11h75q16 0 25.5 -10.5t9.5 -24.5v-912
q0 -178 116 -280.5t296 -102.5q178 0 294.5 102.5t116.5 280.5v912q0 14 9.5 24.5t25.5 10.5h74q13 0 24 -11t11 -24z" />
    <glyph glyph-name="Uacute" unicode="&#xda;" horiz-adv-x="1435" 
d="M834 1901h100q17 0 23.5 -12.5t-1.5 -24.5l-153 -275q-16 -28 -41 -28h-55q-37 0 -25 34l106 275q9 31 46 31zM1274 1399v-910q0 -161 -72.5 -279t-197 -177.5t-285.5 -59.5q-246 0 -401.5 136.5t-155.5 377.5v912q0 13 11 24t24 11h75q16 0 25.5 -10.5t9.5 -24.5v-912
q0 -178 116 -280.5t296 -102.5q178 0 294.5 102.5t116.5 280.5v912q0 14 9.5 24.5t25.5 10.5h74q13 0 24 -11t11 -24z" />
    <glyph glyph-name="Ucircumflex" unicode="&#xdb;" horiz-adv-x="1435" 
d="M682 1901h78q29 0 51 -31l184 -273q9 -13 2 -24.5t-20 -11.5h-70q-24 0 -45 24l-143 193l-141 -193q-21 -24 -46 -24h-69q-14 0 -21.5 11.5t2.5 24.5l185 273q11 18 21 24.5t32 6.5zM1274 1399v-910q0 -161 -72.5 -279t-197 -177.5t-285.5 -59.5q-246 0 -401.5 136.5
t-155.5 377.5v912q0 13 11 24t24 11h75q16 0 25.5 -10.5t9.5 -24.5v-912q0 -178 116 -280.5t296 -102.5q178 0 294.5 102.5t116.5 280.5v912q0 14 9.5 24.5t25.5 10.5h74q13 0 24 -11t11 -24z" />
    <glyph glyph-name="Udieresis" unicode="&#xdc;" horiz-adv-x="1435" 
d="M434 1667q0 45 33 79t80 34q44 0 77 -34t33 -79q0 -44 -33 -77.5t-77 -33.5q-47 0 -80 33t-33 78zM778 1667q0 44 33.5 78.5t77.5 34.5q46 0 79 -34t33 -79t-32.5 -78t-79.5 -33q-44 0 -77.5 33.5t-33.5 77.5zM1274 1399v-910q0 -161 -72.5 -279t-197 -177.5
t-285.5 -59.5q-246 0 -401.5 136.5t-155.5 377.5v912q0 13 11 24t24 11h75q16 0 25.5 -10.5t9.5 -24.5v-912q0 -178 116 -280.5t296 -102.5q178 0 294.5 102.5t116.5 280.5v912q0 14 9.5 24.5t25.5 10.5h74q13 0 24 -11t11 -24z" />
    <glyph glyph-name="Yacute" unicode="&#xdd;" horiz-adv-x="1265" 
d="M748 1901h100q17 0 23.5 -12.5t-1.5 -24.5l-153 -275q-16 -28 -41 -28h-55q-37 0 -25 34l106 275q9 31 46 31zM559 35v577l-522 785q-10 12 -3.5 24.5t19.5 12.5h111q24 0 45 -27l422 -641h8l422 641q1 1 6 7t6.5 7.5t5.5 5t7 4.5t7.5 2t10.5 1h110q13 0 19.5 -12
t-2.5 -25l-524 -785v-577q0 -13 -10.5 -24t-24.5 -11h-78q-14 0 -24.5 11t-10.5 24z" />
    <glyph glyph-name="Thorn" unicode="&#xde;" horiz-adv-x="1271" 
d="M287 0h-76q-13 0 -24 11t-11 24v1364q0 13 11 24t24 11h76q13 0 24 -11t11 -24v-203h387q123 0 219 -34.5t156 -95.5t91 -140.5t31 -173.5q0 -93 -31 -173.5t-91 -142.5t-156.5 -97.5t-218.5 -35.5h-387v-268q0 -13 -11 -24t-24 -11zM322 434h383q152 0 252 84t100 236
q0 149 -100 230t-252 81h-383v-631z" />
    <glyph glyph-name="germandbls" unicode="&#xdf;" horiz-adv-x="1097" 
d="M137 35v979q0 212 119.5 330t310.5 118q94 0 169 -29t118.5 -75.5t65.5 -99.5t22 -107q0 -58 -24.5 -118t-59 -107.5t-69.5 -90t-59.5 -78t-24.5 -57.5q0 -28 36.5 -63.5t88 -73.5t103 -82.5t88 -104.5t36.5 -124q0 -127 -91 -204t-225 -77q-96 0 -182 27q-35 12 -27 41
l23 63q10 30 37 21q87 -25 135 -25q78 0 129 38t51 112q0 45 -37 90.5t-89.5 85l-105 79t-89.5 86t-37 91.5q0 32 25.5 78.5t62.5 95.5t74 98.5t62.5 99.5t25.5 87q0 82 -63 140t-171 58q-132 0 -208 -88.5t-76 -230.5v-983q0 -14 -10 -24.5t-23 -10.5h-76q-14 0 -24.5 11
t-10.5 24z" />
    <glyph glyph-name="agrave" unicode="&#xe0;" 
d="M358 1417h101q36 0 45 -31l106 -274q9 -35 -26 -35h-56q-16 0 -23 6.5t-16 22.5l-155 274q-6 13 0.5 25t23.5 12zM217 475q0 -157 97.5 -264t248.5 -107t248.5 107t97.5 264t-97.5 264t-248.5 107t-248.5 -107t-97.5 -264zM72 475q0 108 38 202.5t103 159.5t153 102.5
t185 37.5q120 0 215.5 -57t140.5 -150v145q0 13 10.5 24t24.5 11h74q13 0 23 -10.5t10 -24.5v-880q0 -14 -10 -24.5t-23 -10.5h-74q-14 0 -24.5 11t-10.5 24v145q-49 -94 -142.5 -150.5t-213.5 -56.5q-97 0 -185 37.5t-153 102.5t-103 159.5t-38 202.5z" />
    <glyph glyph-name="aacute" unicode="&#xe1;" 
d="M680 1417h100q17 0 24 -12.5t-1 -24.5l-154 -274q-16 -29 -41 -29h-55q-37 0 -25 35l107 274q9 31 45 31zM217 475q0 -157 97.5 -264t248.5 -107t248.5 107t97.5 264t-97.5 264t-248.5 107t-248.5 -107t-97.5 -264zM72 475q0 108 38 202.5t103 159.5t153 102.5t185 37.5
q120 0 215.5 -57t140.5 -150v145q0 13 10.5 24t24.5 11h74q13 0 23 -10.5t10 -24.5v-880q0 -14 -10 -24.5t-23 -10.5h-74q-14 0 -24.5 11t-10.5 24v145q-49 -94 -142.5 -150.5t-213.5 -56.5q-97 0 -185 37.5t-153 102.5t-103 159.5t-38 202.5z" />
    <glyph glyph-name="acircumflex" unicode="&#xe2;" 
d="M528 1417h78q29 0 51 -31l185 -272q9 -14 1.5 -25.5t-20.5 -11.5h-69q-16 0 -24.5 5.5t-20.5 19.5l-144 192l-141 -192q-12 -14 -20.5 -19.5t-24.5 -5.5h-70q-14 0 -21 11.5t3 25.5l184 272q11 18 21 24.5t32 6.5zM217 475q0 -157 97.5 -264t248.5 -107t248.5 107
t97.5 264t-97.5 264t-248.5 107t-248.5 -107t-97.5 -264zM72 475q0 108 38 202.5t103 159.5t153 102.5t185 37.5q120 0 215.5 -57t140.5 -150v145q0 13 10.5 24t24.5 11h74q13 0 23 -10.5t10 -24.5v-880q0 -14 -10 -24.5t-23 -10.5h-74q-14 0 -24.5 11t-10.5 24v145
q-49 -94 -142.5 -150.5t-213.5 -56.5q-97 0 -185 37.5t-153 102.5t-103 159.5t-38 202.5z" />
    <glyph glyph-name="atilde" unicode="&#xe3;" 
d="M700 1108q-43 0 -143.5 35t-120.5 35q-27 0 -43 -11.5t-35 -40.5q-14 -24 -47 -4l-26 19q-17 10 -17 28q0 44 48.5 91t115.5 47q41 0 142 -35t122 -35q28 0 42.5 10t35.5 41q18 27 47 4l27 -18q16 -10 16 -29q0 -43 -48.5 -90t-115.5 -47zM217 475q0 -157 97.5 -264
t248.5 -107t248.5 107t97.5 264t-97.5 264t-248.5 107t-248.5 -107t-97.5 -264zM72 475q0 108 38 202.5t103 159.5t153 102.5t185 37.5q120 0 215.5 -57t140.5 -150v145q0 13 10.5 24t24.5 11h74q13 0 23 -10.5t10 -24.5v-880q0 -14 -10 -24.5t-23 -10.5h-74q-14 0 -24.5 11
t-10.5 24v145q-49 -94 -142.5 -150.5t-213.5 -56.5q-97 0 -185 37.5t-153 102.5t-103 159.5t-38 202.5z" />
    <glyph glyph-name="adieresis" unicode="&#xe4;" 
d="M281 1184q0 45 32.5 78.5t79.5 33.5q44 0 77.5 -34t33.5 -78t-33.5 -77.5t-77.5 -33.5q-47 0 -79.5 33t-32.5 78zM625 1184q0 44 33 78t77 34q47 0 80 -33.5t33 -78.5t-33 -78t-80 -33q-44 0 -77 33.5t-33 77.5zM217 475q0 -157 97.5 -264t248.5 -107t248.5 107t97.5 264
t-97.5 264t-248.5 107t-248.5 -107t-97.5 -264zM72 475q0 108 38 202.5t103 159.5t153 102.5t185 37.5q120 0 215.5 -57t140.5 -150v145q0 13 10.5 24t24.5 11h74q13 0 23 -10.5t10 -24.5v-880q0 -14 -10 -24.5t-23 -10.5h-74q-14 0 -24.5 11t-10.5 24v145
q-49 -94 -142.5 -150.5t-213.5 -56.5q-97 0 -185 37.5t-153 102.5t-103 159.5t-38 202.5z" />
    <glyph glyph-name="aring" unicode="&#xe5;" 
d="M801 1272q0 -97 -69.5 -161t-166.5 -64t-165 64t-68 161t68 161t165 64t166.5 -64t69.5 -161zM688 1272q0 55 -34 91t-89 36t-89 -36t-34 -91t34 -91t89 -36t89 36t34 91zM217 475q0 -157 97.5 -264t248.5 -107t248.5 107t97.5 264t-97.5 264t-248.5 107t-248.5 -107
t-97.5 -264zM72 475q0 108 38 202.5t103 159.5t153 102.5t185 37.5q120 0 215.5 -57t140.5 -150v145q0 13 10.5 24t24.5 11h74q13 0 23 -10.5t10 -24.5v-880q0 -14 -10 -24.5t-23 -10.5h-74q-14 0 -24.5 11t-10.5 24v145q-49 -94 -142.5 -150.5t-213.5 -56.5
q-97 0 -185 37.5t-153 102.5t-103 159.5t-38 202.5z" />
    <glyph glyph-name="ae" unicode="&#xe6;" horiz-adv-x="1835" 
d="M1309 -27q-116 0 -215 45.5t-166 126.5q-62 -82 -156 -127t-209 -45q-100 0 -190.5 38t-156.5 104t-105 160t-39 200q0 213 143.5 357.5t347.5 144.5q111 0 207 -45.5t160 -126.5q68 81 163.5 126.5t209.5 45.5q205 0 341 -134t136 -345v-27q0 -15 -8.5 -25t-24.5 -10
h-786q12 -147 109 -242.5t243 -95.5q167 0 289 140q21 27 49 8l59 -37q23 -18 8 -43q-62 -90 -167.5 -141.5t-241.5 -51.5zM965 541h675q-17 146 -109 230.5t-228 84.5q-137 0 -228.5 -88.5t-109.5 -226.5zM563 104q94 0 169 42t124 116q-41 100 -41 211q0 118 43 211
q-49 76 -124.5 119t-170.5 43q-152 0 -250 -107t-98 -264t98 -264t250 -107z" />
    <glyph glyph-name="ccedilla" unicode="&#xe7;" horiz-adv-x="1052" 
d="M596 -27l-113 -247q-13 -29 -39 -29h-63q-15 0 -22 9.5t-1 27.5l101 250q-170 37 -278.5 171t-108.5 320q0 215 142 358.5t349 143.5q141 0 253.5 -65.5t168.5 -178.5q19 -34 -14 -51l-53 -27q-34 -18 -54 15q-101 176 -301 176q-151 0 -248.5 -107t-97.5 -264t97.5 -264
t248.5 -107q199 0 301 177q19 32 54 14l53 -27q33 -17 14 -51q-54 -106 -157.5 -171.5t-231.5 -72.5z" />
    <glyph glyph-name="egrave" unicode="&#xe8;" horiz-adv-x="1091" 
d="M342 1417h100q36 0 45 -31l107 -274q9 -35 -27 -35h-55q-16 0 -23 6.5t-16 22.5l-156 274q-6 13 1 25t24 12zM559 977q205 0 341 -134t136 -345v-27q0 -35 -32 -35h-787q12 -147 109 -242.5t243 -95.5q167 0 289 140q21 27 49 8l60 -37q23 -18 8 -43q-62 -90 -168 -141.5
t-242 -51.5q-215 0 -354 142t-139 358q0 213 138.5 358.5t348.5 145.5zM221 541h676q-17 146 -109 230.5t-229 84.5t-228.5 -88.5t-109.5 -226.5z" />
    <glyph glyph-name="eacute" unicode="&#xe9;" horiz-adv-x="1091" 
d="M664 1417h100q17 0 23.5 -12.5t-1.5 -24.5l-153 -274q-16 -29 -41 -29h-55q-37 0 -25 35l106 274q9 31 46 31zM559 977q205 0 341 -134t136 -345v-27q0 -35 -32 -35h-787q12 -147 109 -242.5t243 -95.5q167 0 289 140q21 27 49 8l60 -37q23 -18 8 -43
q-62 -90 -168 -141.5t-242 -51.5q-215 0 -354 142t-139 358q0 213 138.5 358.5t348.5 145.5zM221 541h676q-17 146 -109 230.5t-229 84.5t-228.5 -88.5t-109.5 -226.5z" />
    <glyph glyph-name="ecircumflex" unicode="&#xea;" horiz-adv-x="1091" 
d="M512 1417h78q29 0 51 -31l184 -272q9 -14 2 -25.5t-20 -11.5h-70q-16 0 -24.5 5.5t-20.5 19.5l-143 192l-141 -192q-22 -25 -46 -25h-69q-14 0 -21.5 11.5t2.5 25.5l185 272q11 18 21 24.5t32 6.5zM559 977q205 0 341 -134t136 -345v-27q0 -35 -32 -35h-787
q12 -147 109 -242.5t243 -95.5q167 0 289 140q21 27 49 8l60 -37q23 -18 8 -43q-62 -90 -168 -141.5t-242 -51.5q-215 0 -354 142t-139 358q0 213 138.5 358.5t348.5 145.5zM221 541h676q-17 146 -109 230.5t-229 84.5t-228.5 -88.5t-109.5 -226.5z" />
    <glyph glyph-name="edieresis" unicode="&#xeb;" horiz-adv-x="1091" 
d="M264 1184q0 45 33 78.5t80 33.5q44 0 77 -34t33 -78t-33 -77.5t-77 -33.5q-47 0 -80 33t-33 78zM608 1184q0 44 33.5 78t77.5 34q47 0 79.5 -33.5t32.5 -78.5t-32.5 -78t-79.5 -33q-44 0 -77.5 33.5t-33.5 77.5zM559 977q205 0 341 -134t136 -345v-27q0 -35 -32 -35h-787
q12 -147 109 -242.5t243 -95.5q167 0 289 140q21 27 49 8l60 -37q23 -18 8 -43q-62 -90 -168 -141.5t-242 -51.5q-215 0 -354 142t-139 358q0 213 138.5 358.5t348.5 145.5zM221 541h676q-17 146 -109 230.5t-229 84.5t-228.5 -88.5t-109.5 -226.5z" />
    <glyph glyph-name="igrave" unicode="&#xec;" horiz-adv-x="411" 
d="M0 1417h100q36 0 45 -31l107 -274q9 -35 -27 -35h-55q-16 0 -23 6.5t-16 22.5l-156 274q-6 13 1 25t24 12zM244 0h-74q-14 0 -24.5 11t-10.5 24v880q0 13 10.5 24t24.5 11h74q13 0 22.5 -10.5t9.5 -24.5v-880q0 -14 -9.5 -24.5t-22.5 -10.5z" />
    <glyph glyph-name="iacute" unicode="&#xed;" horiz-adv-x="411" 
d="M322 1417h100q17 0 23.5 -12.5t-1.5 -24.5l-153 -274q-16 -29 -41 -29h-55q-37 0 -25 35l106 274q9 31 46 31zM244 0h-74q-14 0 -24.5 11t-10.5 24v880q0 13 10.5 24t24.5 11h74q13 0 22.5 -10.5t9.5 -24.5v-880q0 -14 -9.5 -24.5t-22.5 -10.5z" />
    <glyph glyph-name="icircumflex" unicode="&#xee;" horiz-adv-x="411" 
d="M168 1417h78q29 0 51 -31l184 -272q9 -14 2 -25.5t-20 -11.5h-70q-16 0 -24.5 5.5t-20.5 19.5l-143 192l-142 -192q-12 -14 -20.5 -19.5t-24.5 -5.5h-69q-14 0 -21.5 11.5t2.5 25.5l185 272q11 18 21 24.5t32 6.5zM244 0h-74q-14 0 -24.5 11t-10.5 24v880q0 13 10.5 24
t24.5 11h74q13 0 22.5 -10.5t9.5 -24.5v-880q0 -14 -9.5 -24.5t-22.5 -10.5z" />
    <glyph glyph-name="idieresis" unicode="&#xef;" horiz-adv-x="411" 
d="M-78 1184q0 45 33 78.5t80 33.5q44 0 77 -34t33 -78t-33 -77.5t-77 -33.5q-47 0 -80 33t-33 78zM266 1184q0 44 33.5 78t77.5 34q47 0 79.5 -33.5t32.5 -78.5t-32.5 -78t-79.5 -33q-44 0 -77.5 33.5t-33.5 77.5zM244 0h-74q-14 0 -24.5 11t-10.5 24v880q0 13 10.5 24
t24.5 11h74q13 0 22.5 -10.5t9.5 -24.5v-880q0 -14 -9.5 -24.5t-22.5 -10.5z" />
    <glyph glyph-name="eth" unicode="&#xf0;" horiz-adv-x="1142" 
d="M567 -27q-208 0 -351.5 144.5t-143.5 359.5q0 211 137 353.5t338 142.5q84 0 172 -36t143 -103q-84 174 -264 358l-188 -111q-10 -7 -25.5 -4.5t-22.5 15.5l-20 34q-16 29 12 45l164 97q-97 89 -207 164q-13 8 -9.5 20t20.5 12l112 6q25 4 39 -10q80 -58 160 -125
l186 109q10 7 25 5t22 -15l21 -35q16 -29 -13 -45l-161 -94q71 -71 129.5 -148t111 -172t82 -206t29.5 -226q0 -233 -141 -384t-357 -151zM215 475q0 -157 99 -264t251 -107t250 107t98 264t-98 264t-250 107t-251 -107t-99 -264z" />
    <glyph glyph-name="ntilde" unicode="&#xf1;" horiz-adv-x="1159" 
d="M694 1108q-43 0 -143.5 35t-120.5 35q-27 0 -43 -11.5t-35 -40.5q-14 -24 -47 -4l-26 19q-17 10 -17 28q0 44 48.5 91t115.5 47q41 0 142 -35t122 -35q28 0 42.5 10t35.5 41q18 27 47 4l27 -18q16 -10 16 -29q0 -43 -48.5 -90t-115.5 -47zM895 33v495q0 151 -77.5 235.5
t-223.5 84.5t-232 -88.5t-86 -231.5v-495q0 -13 -10 -23t-22 -10h-74q-14 0 -24.5 11t-10.5 24v880q0 13 10.5 24t24.5 11h74q12 0 22 -11t10 -24v-131q42 87 135.5 139t215.5 52q189 0 299 -114t110 -300v-528q0 -13 -10.5 -23t-24.5 -10h-71q-14 0 -24.5 10t-10.5 23z" />
    <glyph glyph-name="ograve" unicode="&#xf2;" horiz-adv-x="1124" 
d="M356 1417h101q36 0 45 -31l106 -274q9 -35 -26 -35h-56q-16 0 -23 6.5t-16 22.5l-155 274q-6 13 0.5 25t23.5 12zM72 475q0 105 39 198.5t105 159.5t156.5 104t190.5 38q204 0 347 -143.5t143 -356.5q0 -142 -66 -257.5t-178 -180t-246 -64.5q-100 0 -190.5 38
t-156.5 104t-105 160t-39 200zM215 475q0 -157 98 -264t250 -107q151 0 248.5 107t97.5 264t-97.5 264t-248.5 107q-152 0 -250 -107t-98 -264z" />
    <glyph glyph-name="oacute" unicode="&#xf3;" horiz-adv-x="1124" 
d="M678 1417h100q17 0 24 -12.5t-1 -24.5l-154 -274q-16 -29 -41 -29h-55q-37 0 -25 35l107 274q9 31 45 31zM72 475q0 105 39 198.5t105 159.5t156.5 104t190.5 38q204 0 347 -143.5t143 -356.5q0 -142 -66 -257.5t-178 -180t-246 -64.5q-100 0 -190.5 38t-156.5 104
t-105 160t-39 200zM215 475q0 -157 98 -264t250 -107q151 0 248.5 107t97.5 264t-97.5 264t-248.5 107q-152 0 -250 -107t-98 -264z" />
    <glyph glyph-name="ocircumflex" unicode="&#xf4;" horiz-adv-x="1124" 
d="M526 1417h78q29 0 51 -31l185 -272q9 -14 1.5 -25.5t-20.5 -11.5h-69q-16 0 -24.5 5.5t-20.5 19.5l-144 192l-141 -192q-12 -14 -20.5 -19.5t-24.5 -5.5h-70q-14 0 -21 11.5t3 25.5l184 272q11 18 21 24.5t32 6.5zM72 475q0 105 39 198.5t105 159.5t156.5 104t190.5 38
q204 0 347 -143.5t143 -356.5q0 -142 -66 -257.5t-178 -180t-246 -64.5q-100 0 -190.5 38t-156.5 104t-105 160t-39 200zM215 475q0 -157 98 -264t250 -107q151 0 248.5 107t97.5 264t-97.5 264t-248.5 107q-152 0 -250 -107t-98 -264z" />
    <glyph glyph-name="otilde" unicode="&#xf5;" horiz-adv-x="1124" 
d="M698 1108q-43 0 -143.5 35t-120.5 35q-27 0 -43 -11.5t-35 -40.5q-14 -24 -47 -4l-26 19q-17 10 -17 28q0 44 48.5 91t115.5 47q41 0 142 -35t122 -35q28 0 42.5 10t35.5 41q18 27 47 4l27 -18q16 -10 16 -29q0 -43 -48.5 -90t-115.5 -47zM72 475q0 105 39 198.5
t105 159.5t156.5 104t190.5 38q204 0 347 -143.5t143 -356.5q0 -142 -66 -257.5t-178 -180t-246 -64.5q-100 0 -190.5 38t-156.5 104t-105 160t-39 200zM215 475q0 -157 98 -264t250 -107q151 0 248.5 107t97.5 264t-97.5 264t-248.5 107q-152 0 -250 -107t-98 -264z" />
    <glyph glyph-name="odieresis" unicode="&#xf6;" horiz-adv-x="1124" 
d="M279 1184q0 45 32.5 78.5t79.5 33.5q44 0 77.5 -34t33.5 -78t-33.5 -77.5t-77.5 -33.5q-47 0 -79.5 33t-32.5 78zM623 1184q0 44 33 78t77 34q47 0 80 -33.5t33 -78.5t-33 -78t-80 -33q-44 0 -77 33.5t-33 77.5zM72 475q0 105 39 198.5t105 159.5t156.5 104t190.5 38
q204 0 347 -143.5t143 -356.5q0 -142 -66 -257.5t-178 -180t-246 -64.5q-100 0 -190.5 38t-156.5 104t-105 160t-39 200zM215 475q0 -157 98 -264t250 -107q151 0 248.5 107t97.5 264t-97.5 264t-248.5 107q-152 0 -250 -107t-98 -264z" />
    <glyph glyph-name="divide" unicode="&#xf7;" horiz-adv-x="1091" 
d="M545 958q-56 0 -95.5 39.5t-39.5 94.5q0 57 39.5 96t95.5 39t94.5 -39t38.5 -96q0 -56 -39 -95t-94 -39zM995 762v-72q0 -14 -10.5 -24.5t-23.5 -10.5h-830q-13 0 -24 10.5t-11 24.5v72q0 14 11 24.5t24 10.5h830q13 0 23.5 -10.5t10.5 -24.5zM545 207q-56 0 -95.5 39
t-39.5 96q0 55 39.5 94t95.5 39q55 0 94 -38.5t39 -94.5q0 -57 -38.5 -96t-94.5 -39z" />
    <glyph glyph-name="oslash" unicode="&#xf8;" horiz-adv-x="1124" 
d="M72 475q0 105 39 198.5t105 159.5t156.5 104t190.5 38q204 0 347 -143.5t143 -356.5q0 -142 -66 -257.5t-178 -180t-246 -64.5q-100 0 -190.5 38t-156.5 104t-105 160t-39 200zM909 475q0 141 -76.5 241.5t-203.5 123.5v-729q126 25 203 125t77 239zM215 475
q0 -137 77.5 -238t203.5 -126v729q-126 -25 -203.5 -125.5t-77.5 -239.5z" />
    <glyph glyph-name="ugrave" unicode="&#xf9;" horiz-adv-x="1146" 
d="M362 1417h101q36 0 45 -31l106 -274q9 -35 -26 -35h-56q-16 0 -22.5 6t-15.5 23l-156 274q-6 13 0.5 25t23.5 12zM264 915v-505q0 -149 76 -231.5t221 -82.5q143 0 226 87.5t83 226.5v505q0 13 11 24t24 11h72q13 0 24 -11t11 -24v-880q0 -13 -11 -24t-24 -11h-72
q-14 0 -24.5 10t-10.5 23v133q-42 -89 -132 -141t-212 -52q-187 0 -295 112.5t-108 299.5v530q0 13 10.5 24t22.5 11h73q13 0 24 -11t11 -24z" />
    <glyph glyph-name="uacute" unicode="&#xfa;" horiz-adv-x="1146" 
d="M684 1417h100q17 0 24 -12.5t-1 -24.5l-154 -274q-16 -29 -41 -29h-55q-37 0 -25 35l107 274q9 31 45 31zM264 915v-505q0 -149 76 -231.5t221 -82.5q143 0 226 87.5t83 226.5v505q0 13 11 24t24 11h72q13 0 24 -11t11 -24v-880q0 -13 -11 -24t-24 -11h-72
q-14 0 -24.5 10t-10.5 23v133q-42 -89 -132 -141t-212 -52q-187 0 -295 112.5t-108 299.5v530q0 13 10.5 24t22.5 11h73q13 0 24 -11t11 -24z" />
    <glyph glyph-name="ucircumflex" unicode="&#xfb;" horiz-adv-x="1146" 
d="M532 1417h78q30 0 52 -31l184 -272q9 -14 1.5 -25.5t-20.5 -11.5h-69q-16 0 -24.5 5.5t-20.5 19.5l-144 192l-141 -192q-12 -14 -20.5 -19.5t-24.5 -5.5h-70q-14 0 -21 11.5t3 25.5l184 272q11 18 21 24.5t32 6.5zM264 915v-505q0 -149 76 -231.5t221 -82.5
q143 0 226 87.5t83 226.5v505q0 13 11 24t24 11h72q13 0 24 -11t11 -24v-880q0 -13 -11 -24t-24 -11h-72q-14 0 -24.5 10t-10.5 23v133q-42 -89 -132 -141t-212 -52q-187 0 -295 112.5t-108 299.5v530q0 13 10.5 24t22.5 11h73q13 0 24 -11t11 -24z" />
    <glyph glyph-name="udieresis" unicode="&#xfc;" horiz-adv-x="1146" 
d="M285 1184q0 45 32.5 78.5t79.5 33.5q44 0 77.5 -34t33.5 -78t-33.5 -77.5t-77.5 -33.5q-47 0 -79.5 33t-32.5 78zM629 1184q0 44 33 78t77 34q47 0 80 -33.5t33 -78.5t-33 -78t-80 -33q-44 0 -77 33.5t-33 77.5zM264 915v-505q0 -149 76 -231.5t221 -82.5q143 0 226 87.5
t83 226.5v505q0 13 11 24t24 11h72q13 0 24 -11t11 -24v-880q0 -13 -11 -24t-24 -11h-72q-14 0 -24.5 10t-10.5 23v133q-42 -89 -132 -141t-212 -52q-187 0 -295 112.5t-108 299.5v530q0 13 10.5 24t22.5 11h73q13 0 24 -11t11 -24z" />
    <glyph glyph-name="yacute" unicode="&#xfd;" horiz-adv-x="964" 
d="M598 1417h100q17 0 24 -12.5t-1 -24.5l-154 -274q-16 -29 -41 -29h-55q-37 0 -25 35l107 274q9 31 45 31zM217 -451q-142 0 -225 89q-23 23 2 51l33 37q23 30 57 0q63 -54 133 -54q108 0 162 142l70 186h-39q-30 0 -39 27l-324 884q-5 14 2.5 26.5t24.5 12.5h94
q27 0 39 -32l285 -801l276 801q12 32 41 32h90q17 0 24 -11t1 -28l-414 -1140q-81 -222 -293 -222z" />
    <glyph glyph-name="thorn" unicode="&#xfe;" horiz-adv-x="1187" 
d="M279 475q0 -157 97.5 -264t248.5 -107t248.5 107t97.5 264t-97.5 264t-248.5 107t-248.5 -107t-97.5 -264zM281 1399v-629q45 92 141 148.5t217 56.5q97 0 184.5 -37.5t152 -102.5t102.5 -158.5t38 -201.5t-38 -202.5t-102.5 -159.5t-152 -102.5t-184.5 -37.5
q-117 0 -213.5 55.5t-144.5 147.5v-563q0 -13 -10.5 -24t-24.5 -11h-74q-14 0 -24.5 11t-10.5 24v1786q0 13 10.5 24t24.5 11h74q14 0 24.5 -11t10.5 -24z" />
    <glyph glyph-name="ydieresis" unicode="&#xff;" horiz-adv-x="964" 
d="M201 1184q0 45 32.5 78.5t79.5 33.5q44 0 77.5 -34t33.5 -78t-33.5 -77.5t-77.5 -33.5q-47 0 -79.5 33t-32.5 78zM545 1184q0 44 33 78t77 34q47 0 80 -33.5t33 -78.5t-33 -78t-80 -33q-44 0 -77 33.5t-33 77.5zM217 -451q-142 0 -225 89q-23 23 2 51l33 37q23 30 57 0
q63 -54 133 -54q108 0 162 142l70 186h-39q-30 0 -39 27l-324 884q-5 14 2.5 26.5t24.5 12.5h94q27 0 39 -32l285 -801l276 801q12 32 41 32h90q17 0 24 -11t1 -28l-414 -1140q-81 -222 -293 -222z" />
    <glyph glyph-name="Amacron" unicode="&#x100;" horiz-adv-x="1318" 
d="M893 1606h-469q-14 0 -24.5 10.5t-10.5 23.5v50q0 13 10.5 23.5t24.5 10.5h469q14 0 24.5 -10.5t10.5 -23.5v-50q0 -13 -10.5 -23.5t-24.5 -10.5zM365 539h581l-291 764zM317 414l-145 -381q-9 -33 -37 -33h-86q-17 0 -23.5 11t-0.5 28l530 1362q11 33 43 33h123
q32 0 43 -33l530 -1362q7 -16 -0.5 -27.5t-21.5 -11.5h-92q-30 0 -41 33l-146 381h-676z" />
    <glyph glyph-name="amacron" unicode="&#x101;" 
d="M799 1122h-469q-14 0 -24.5 11t-10.5 24v49q0 14 10.5 24.5t24.5 10.5h469q13 0 24 -10.5t11 -24.5v-49q0 -13 -11 -24t-24 -11zM217 475q0 -157 97.5 -264t248.5 -107t248.5 107t97.5 264t-97.5 264t-248.5 107t-248.5 -107t-97.5 -264zM72 475q0 108 38 202.5
t103 159.5t153 102.5t185 37.5q120 0 215.5 -57t140.5 -150v145q0 13 10.5 24t24.5 11h74q13 0 23 -10.5t10 -24.5v-880q0 -14 -10 -24.5t-23 -10.5h-74q-14 0 -24.5 11t-10.5 24v145q-49 -94 -142.5 -150.5t-213.5 -56.5q-97 0 -185 37.5t-153 102.5t-103 159.5t-38 202.5z
" />
    <glyph glyph-name="Abreve" unicode="&#x102;" horiz-adv-x="1318" 
d="M659 1550q-115 0 -180 60.5t-65 163.5v24q0 21 20 21h84q6 0 11.5 -6t5.5 -11v-18q0 -58 34 -88.5t90 -30.5q58 0 93.5 30.5t35.5 88.5v18q0 5 6 11t13 6h82q20 0 20 -21v-24q0 -103 -67 -163.5t-183 -60.5zM365 539h581l-291 764zM317 414l-145 -381q-9 -33 -37 -33h-86
q-17 0 -23.5 11t-0.5 28l530 1362q11 33 43 33h123q32 0 43 -33l530 -1362q7 -16 -0.5 -27.5t-21.5 -11.5h-92q-30 0 -41 33l-146 381h-676z" />
    <glyph glyph-name="abreve" unicode="&#x103;" 
d="M565 1067q-115 0 -180.5 60t-65.5 163v25q0 20 21 20h84q6 0 11 -5.5t5 -10.5v-19q0 -58 34.5 -88t90.5 -30q58 0 93.5 30t35.5 88v19q0 5 6 10.5t13 5.5h82q20 0 20 -20v-25q0 -103 -66.5 -163t-183.5 -60zM217 475q0 -157 97.5 -264t248.5 -107t248.5 107t97.5 264
t-97.5 264t-248.5 107t-248.5 -107t-97.5 -264zM72 475q0 108 38 202.5t103 159.5t153 102.5t185 37.5q120 0 215.5 -57t140.5 -150v145q0 13 10.5 24t24.5 11h74q13 0 23 -10.5t10 -24.5v-880q0 -14 -10 -24.5t-23 -10.5h-74q-14 0 -24.5 11t-10.5 24v145
q-49 -94 -142.5 -150.5t-213.5 -56.5q-97 0 -185 37.5t-153 102.5t-103 159.5t-38 202.5z" />
    <glyph glyph-name="Aogonek" unicode="&#x104;" horiz-adv-x="1318" 
d="M365 539h581l-291 764zM1317 -328l-4 -34q0 -24 -38.5 -35t-82.5 -11q-85 0 -132.5 42t-47.5 112t48.5 136.5t115.5 117.5q-22 3 -37 33l-146 381h-676l-145 -381q-9 -33 -37 -33h-86q-17 0 -23.5 11t-0.5 28l530 1362q11 33 43 33h123q32 0 43 -33l530 -1362
q7 -16 -0.5 -27.5t-21.5 -11.5h-4q-52 -60 -87.5 -124t-35.5 -105q0 -76 86 -76q27 0 61 6q13 5 21 -3.5t4 -25.5z" />
    <glyph glyph-name="aogonek" unicode="&#x105;" 
d="M217 475q0 -157 97.5 -264t248.5 -107t248.5 107t97.5 264t-97.5 264t-248.5 107t-248.5 -107t-97.5 -264zM1073 -299l-4 -35q0 -24 -38 -34.5t-83 -10.5q-85 0 -132.5 42t-47.5 112q0 117 145 239q-6 9 -6 21v145q-49 -94 -142.5 -150.5t-213.5 -56.5q-97 0 -185 37.5
t-153 102.5t-103 159.5t-38 202.5t38 202.5t103 159.5t153 102.5t185 37.5q120 0 215.5 -57t140.5 -150v145q0 13 10.5 24t24.5 11h74q13 0 23 -10.5t10 -24.5v-880q0 -14 -10 -24.5t-23 -10.5h-15q-100 -131 -100 -201q0 -75 86 -75q27 0 62 6q13 5 20.5 -3.5t3.5 -25.5z
" />
    <glyph glyph-name="Cacute" unicode="&#x106;" horiz-adv-x="1529" 
d="M899 1901h100q17 0 24 -12.5t-1 -24.5l-154 -275q-16 -28 -41 -28h-55q-36 0 -24 34l106 275q9 31 45 31zM807 -27q-150 0 -284.5 57t-231.5 155t-154 236.5t-57 295.5t57.5 295.5t155.5 236.5t232 154.5t282 56.5q228 0 411.5 -120.5t260.5 -327.5q5 -12 -1 -23t-22 -12
l-90 -14q-27 -2 -37 28q-69 157 -204.5 246.5t-317.5 89.5q-164 0 -296.5 -80.5t-206 -220t-73.5 -309.5q0 -127 43.5 -240t119 -194.5t183 -129t230.5 -47.5q182 0 317.5 89.5t204.5 246.5q10 31 37 29l90 -14q16 -1 22 -12t1 -23q-77 -207 -260.5 -328t-411.5 -121z" />
    <glyph glyph-name="cacute" unicode="&#x107;" horiz-adv-x="1052" 
d="M647 1417h101q17 0 23.5 -12.5t-1.5 -24.5l-154 -274q-16 -29 -41 -29h-55q-36 0 -24 35l106 274q9 31 45 31zM985 217q-56 -113 -168.5 -178.5t-253.5 -65.5q-207 0 -349 143.5t-142 358.5t142 358.5t349 143.5q141 0 253.5 -65.5t168.5 -178.5q19 -34 -14 -51l-53 -27
q-34 -18 -54 15q-101 176 -301 176q-151 0 -248.5 -107t-97.5 -264t97.5 -264t248.5 -107q199 0 301 177q19 32 54 14l53 -27q33 -17 14 -51z" />
    <glyph glyph-name="Ccircumflex" unicode="&#x108;" horiz-adv-x="1529" 
d="M748 1901h77q30 0 52 -31l184 -273q9 -13 1.5 -24.5t-20.5 -11.5h-69q-24 0 -45 24l-144 193l-141 -193q-21 -24 -45 -24h-70q-14 0 -21 11.5t3 24.5l184 273q11 18 21.5 24.5t32.5 6.5zM807 -27q-150 0 -284.5 57t-231.5 155t-154 236.5t-57 295.5t57.5 295.5
t155.5 236.5t232 154.5t282 56.5q228 0 411.5 -120.5t260.5 -327.5q5 -12 -1 -23t-22 -12l-90 -14q-27 -2 -37 28q-69 157 -204.5 246.5t-317.5 89.5q-164 0 -296.5 -80.5t-206 -220t-73.5 -309.5q0 -127 43.5 -240t119 -194.5t183 -129t230.5 -47.5q182 0 317.5 89.5
t204.5 246.5q10 31 37 29l90 -14q16 -1 22 -12t1 -23q-77 -207 -260.5 -328t-411.5 -121z" />
    <glyph glyph-name="ccircumflex" unicode="&#x109;" horiz-adv-x="1052" 
d="M496 1417h77q30 0 52 -31l184 -272q9 -14 2 -25.5t-20 -11.5h-70q-16 0 -24.5 5.5t-20.5 19.5l-144 192l-141 -192q-12 -14 -20.5 -19.5t-24.5 -5.5h-70q-14 0 -21 11.5t3 25.5l184 272q11 18 21.5 24.5t32.5 6.5zM985 217q-56 -113 -168.5 -178.5t-253.5 -65.5
q-207 0 -349 143.5t-142 358.5t142 358.5t349 143.5q141 0 253.5 -65.5t168.5 -178.5q19 -34 -14 -51l-53 -27q-34 -18 -54 15q-101 176 -301 176q-151 0 -248.5 -107t-97.5 -264t97.5 -264t248.5 -107q199 0 301 177q19 32 54 14l53 -27q33 -17 14 -51z" />
    <glyph glyph-name="Cdotaccent" unicode="&#x10a;" horiz-adv-x="1529" 
d="M784 1583q-50 0 -85 36t-35 87q0 49 35 84t85 35t85.5 -35t35.5 -84q0 -51 -35.5 -87t-85.5 -36zM807 -27q-150 0 -284.5 57t-231.5 155t-154 236.5t-57 295.5t57.5 295.5t155.5 236.5t232 154.5t282 56.5q228 0 411.5 -120.5t260.5 -327.5q5 -12 -1 -23t-22 -12l-90 -14
q-27 -2 -37 28q-69 157 -204.5 246.5t-317.5 89.5q-164 0 -296.5 -80.5t-206 -220t-73.5 -309.5q0 -127 43.5 -240t119 -194.5t183 -129t230.5 -47.5q182 0 317.5 89.5t204.5 246.5q10 31 37 29l90 -14q16 -1 22 -12t1 -23q-77 -207 -260.5 -328t-411.5 -121z" />
    <glyph glyph-name="cdotaccent" unicode="&#x10b;" horiz-adv-x="1052" 
d="M532 1100q-50 0 -85 36t-35 87q0 49 35 83.5t85 34.5t85.5 -34.5t35.5 -83.5q0 -51 -35.5 -87t-85.5 -36zM985 217q-56 -113 -168.5 -178.5t-253.5 -65.5q-207 0 -349 143.5t-142 358.5t142 358.5t349 143.5q141 0 253.5 -65.5t168.5 -178.5q19 -34 -14 -51l-53 -27
q-34 -18 -54 15q-101 176 -301 176q-151 0 -248.5 -107t-97.5 -264t97.5 -264t248.5 -107q199 0 301 177q19 32 54 14l53 -27q33 -17 14 -51z" />
    <glyph glyph-name="Ccaron" unicode="&#x10c;" horiz-adv-x="1529" 
d="M825 1561h-77q-23 0 -33 6t-21 24l-184 275q-10 14 -3 24.5t21 10.5h70q22 0 45 -23l141 -192l144 192q16 23 45 23h69q13 0 20.5 -10.5t-1.5 -24.5l-184 -275q-18 -30 -52 -30zM807 -27q-150 0 -284.5 57t-231.5 155t-154 236.5t-57 295.5t57.5 295.5t155.5 236.5
t232 154.5t282 56.5q228 0 411.5 -120.5t260.5 -327.5q5 -12 -1 -23t-22 -12l-90 -14q-27 -2 -37 28q-69 157 -204.5 246.5t-317.5 89.5q-164 0 -296.5 -80.5t-206 -220t-73.5 -309.5q0 -127 43.5 -240t119 -194.5t183 -129t230.5 -47.5q182 0 317.5 89.5t204.5 246.5
q10 31 37 29l90 -14q16 -1 22 -12t1 -23q-77 -207 -260.5 -328t-411.5 -121z" />
    <glyph glyph-name="ccaron" unicode="&#x10d;" horiz-adv-x="1052" 
d="M573 1077h-77q-22 0 -32.5 6.5t-21.5 24.5l-184 274q-10 14 -3 24.5t21 10.5h70q23 0 45 -22l141 -193l144 193q16 22 45 22h70q13 0 20 -10.5t-2 -24.5l-184 -274q-19 -31 -52 -31zM985 217q-56 -113 -168.5 -178.5t-253.5 -65.5q-207 0 -349 143.5t-142 358.5
t142 358.5t349 143.5q141 0 253.5 -65.5t168.5 -178.5q19 -34 -14 -51l-53 -27q-34 -18 -54 15q-101 176 -301 176q-151 0 -248.5 -107t-97.5 -264t97.5 -264t248.5 -107q199 0 301 177q19 32 54 14l53 -27q33 -17 14 -51z" />
    <glyph glyph-name="Dcaron" unicode="&#x10e;" horiz-adv-x="1492" 
d="M793 1561h-78q-22 0 -32 6t-21 24l-185 275q-10 14 -2.5 24.5t21.5 10.5h69q22 0 45 -23l142 -192l143 192q16 23 45 23h70q13 0 20 -10.5t-2 -24.5l-184 -275q-18 -30 -51 -30zM211 1434h436q184 0 329 -52t240 -147t145 -226.5t50 -291.5t-50 -291.5t-145 -226.5
t-240 -147t-329 -52h-436q-13 0 -24 11t-11 24v1364q0 13 11 24t24 11zM324 135h344q268 0 430 154.5t162 427.5t-162 427t-430 154h-344v-1163z" />
    <glyph glyph-name="dcaron" unicode="&#x10f;" horiz-adv-x="1210" 
d="M1171 1063l74 141q-37 14 -59.5 44.5t-22.5 70.5q0 51 35 85t86 34q50 0 85.5 -36t35.5 -89q0 -114 -143 -273q-25 -25 -37 -27q-10 0 -19 5l-18 10q-28 16 -17 35zM217 473q0 -157 97.5 -263t248.5 -106t248.5 106t97.5 263q0 158 -97.5 265.5t-248.5 107.5
t-248.5 -107.5t-97.5 -265.5zM72 473q0 108 38 202.5t103 159.5t152 102.5t184 37.5q122 0 217.5 -56t140.5 -149v629q0 13 10.5 24t24.5 11h74q13 0 23 -10.5t10 -24.5v-1364q0 -14 -10 -24.5t-23 -10.5h-74q-14 0 -24.5 11t-10.5 24v145q-49 -94 -142.5 -150.5
t-213.5 -56.5q-200 0 -339.5 142t-139.5 358z" />
    <glyph glyph-name="Dcroat" unicode="&#x110;" horiz-adv-x="1517" 
d="M672 0h-436q-14 0 -24.5 11t-10.5 24v631h-164q-14 0 -24.5 10.5t-10.5 23.5v54q0 13 10.5 23.5t24.5 10.5h164v611q0 13 10.5 24t24.5 11h436q363 0 563.5 -195.5t200.5 -521.5t-200.5 -521.5t-563.5 -195.5zM348 135h344q268 0 430 154.5t162 427.5t-162 427t-430 154
h-344v-510h426q16 0 25.5 -10t9.5 -24v-54q0 -14 -9.5 -24t-25.5 -10h-426v-531z" />
    <glyph glyph-name="dslash" unicode="&#x111;" horiz-adv-x="1185" 
d="M217 473q0 -157 97.5 -263t248.5 -106t248.5 106t97.5 263q0 158 -97.5 265.5t-248.5 107.5t-248.5 -107.5t-97.5 -265.5zM907 35v145q-49 -94 -142.5 -150.5t-213.5 -56.5q-200 0 -339.5 142t-139.5 358q0 108 38 202.5t103 159.5t152 102.5t184 37.5q122 0 217.5 -56
t140.5 -149v348h-284q-16 0 -25.5 10.5t-9.5 24.5v37q0 14 9.5 24.5t25.5 10.5h284v174q0 13 10.5 24t24.5 11h74q13 0 23 -10.5t10 -24.5v-174h120q16 0 25.5 -10.5t9.5 -24.5v-37q0 -14 -9.5 -24.5t-25.5 -10.5h-120v-1083q0 -14 -10 -24.5t-23 -10.5h-74q-14 0 -24.5 11
t-10.5 24z" />
    <glyph glyph-name="Emacron" unicode="&#x112;" horiz-adv-x="1251" 
d="M903 1606h-469q-14 0 -24.5 10.5t-10.5 23.5v50q0 13 10.5 23.5t24.5 10.5h469q14 0 24.5 -10.5t10.5 -23.5v-50q0 -13 -10.5 -23.5t-24.5 -10.5zM211 1434h944q13 0 24 -11t11 -24v-66q0 -13 -11 -24t-24 -11h-831v-505h426q34 0 34 -35v-64q0 -15 -9 -25t-25 -10h-426
v-524h835q13 0 24 -10.5t11 -24.5v-65q0 -13 -11 -24t-24 -11h-948q-13 0 -24 11t-11 24v1364q0 13 11 24t24 11z" />
    <glyph glyph-name="emacron" unicode="&#x113;" horiz-adv-x="1091" 
d="M782 1122h-469q-13 0 -23.5 10.5t-10.5 24.5v49q0 14 10.5 24.5t23.5 10.5h469q14 0 24.5 -10.5t10.5 -24.5v-49q0 -13 -10.5 -24t-24.5 -11zM559 977q205 0 341 -134t136 -345v-27q0 -35 -32 -35h-787q12 -147 109 -242.5t243 -95.5q167 0 289 140q21 27 49 8l60 -37
q23 -18 8 -43q-62 -90 -168 -141.5t-242 -51.5q-215 0 -354 142t-139 358q0 213 138.5 358.5t348.5 145.5zM221 541h676q-17 146 -109 230.5t-229 84.5t-228.5 -88.5t-109.5 -226.5z" />
    <glyph glyph-name="Ebreve" unicode="&#x114;" horiz-adv-x="1251" 
d="M668 1550q-115 0 -180.5 60.5t-65.5 163.5v24q0 21 20 21h84q6 0 11.5 -6t5.5 -11v-18q0 -58 34.5 -88.5t90.5 -30.5q58 0 93.5 30.5t35.5 88.5v18q0 5 5.5 11t12.5 6h82q21 0 21 -21v-24q0 -103 -67 -163.5t-183 -60.5zM211 1434h944q13 0 24 -11t11 -24v-66
q0 -13 -11 -24t-24 -11h-831v-505h426q34 0 34 -35v-64q0 -15 -9 -25t-25 -10h-426v-524h835q13 0 24 -10.5t11 -24.5v-65q0 -13 -11 -24t-24 -11h-948q-13 0 -24 11t-11 24v1364q0 13 11 24t24 11z" />
    <glyph glyph-name="ebreve" unicode="&#x115;" horiz-adv-x="1091" 
d="M549 1067q-115 0 -180.5 60t-65.5 163v25q0 20 21 20h84q6 0 11 -5.5t5 -10.5v-19q0 -58 34.5 -88t90.5 -30q58 0 93.5 30t35.5 88v19q0 5 5.5 10.5t12.5 5.5h82q21 0 21 -20v-25q0 -103 -66.5 -163t-183.5 -60zM559 977q205 0 341 -134t136 -345v-27q0 -35 -32 -35h-787
q12 -147 109 -242.5t243 -95.5q167 0 289 140q21 27 49 8l60 -37q23 -18 8 -43q-62 -90 -168 -141.5t-242 -51.5q-215 0 -354 142t-139 358q0 213 138.5 358.5t348.5 145.5zM221 541h676q-17 146 -109 230.5t-229 84.5t-228.5 -88.5t-109.5 -226.5z" />
    <glyph glyph-name="Edotaccent" unicode="&#x116;" horiz-adv-x="1251" 
d="M670 1583q-50 0 -85.5 36t-35.5 87q0 49 35.5 84t85.5 35t85.5 -35t35.5 -84q0 -51 -35.5 -87t-85.5 -36zM211 1434h944q13 0 24 -11t11 -24v-66q0 -13 -11 -24t-24 -11h-831v-505h426q34 0 34 -35v-64q0 -15 -9 -25t-25 -10h-426v-524h835q13 0 24 -10.5t11 -24.5v-65
q0 -13 -11 -24t-24 -11h-948q-13 0 -24 11t-11 24v1364q0 13 11 24t24 11z" />
    <glyph glyph-name="edotaccent" unicode="&#x117;" horiz-adv-x="1091" 
d="M549 1100q-50 0 -85.5 36t-35.5 87q0 49 35.5 83.5t85.5 34.5t85.5 -34.5t35.5 -83.5q0 -51 -35.5 -87t-85.5 -36zM559 977q205 0 341 -134t136 -345v-27q0 -35 -32 -35h-787q12 -147 109 -242.5t243 -95.5q167 0 289 140q21 27 49 8l60 -37q23 -18 8 -43
q-62 -90 -168 -141.5t-242 -51.5q-215 0 -354 142t-139 358q0 213 138.5 358.5t348.5 145.5zM221 541h676q-17 146 -109 230.5t-229 84.5t-228.5 -88.5t-109.5 -226.5z" />
    <glyph glyph-name="Eogonek" unicode="&#x118;" horiz-adv-x="1251" 
d="M1096 -328l-4 -34q0 -24 -38.5 -35t-82.5 -11q-85 0 -132.5 42t-47.5 112t48.5 136.5t114.5 117.5h-743q-13 0 -24 11t-11 24v1364q0 13 11 24t24 11h944q13 0 24 -11t11 -24v-66q0 -13 -11 -24t-24 -11h-831v-505h426q34 0 34 -35v-64q0 -15 -9 -25t-25 -10h-426v-524
h835q13 0 24 -10.5t11 -24.5v-65q0 -13 -11 -24t-24 -11h-112q-52 -60 -87.5 -124t-35.5 -105q0 -76 86 -76q26 0 61 6q13 5 21 -3.5t4 -25.5z" />
    <glyph glyph-name="eogonek" unicode="&#x119;" horiz-adv-x="1091" 
d="M682 -365q-85 0 -132.5 42t-47.5 112q0 89 88 184h-25q-215 0 -354 142t-139 358q0 213 138.5 358.5t348.5 145.5q205 0 341 -134t136 -345v-27q0 -35 -32 -35h-787q12 -147 109 -242.5t243 -95.5q167 0 289 140q21 27 49 8l60 -37q23 -18 8 -43q-87 -128 -256 -174
q-84 -113 -84 -178q0 -76 86 -76q27 0 61 6q13 5 21 -3.5t4 -25.5l-4 -34q0 -24 -38.5 -35t-82.5 -11zM221 541h676q-17 146 -109 230.5t-229 84.5t-228.5 -88.5t-109.5 -226.5z" />
    <glyph glyph-name="Ecaron" unicode="&#x11a;" horiz-adv-x="1251" 
d="M709 1561h-78q-22 0 -32 6t-21 24l-185 275q-10 14 -2.5 24.5t21.5 10.5h69q22 0 45 -23l142 -192l143 192q16 23 45 23h70q13 0 20 -10.5t-2 -24.5l-184 -275q-18 -30 -51 -30zM211 1434h944q13 0 24 -11t11 -24v-66q0 -13 -11 -24t-24 -11h-831v-505h426q34 0 34 -35
v-64q0 -15 -9 -25t-25 -10h-426v-524h835q13 0 24 -10.5t11 -24.5v-65q0 -13 -11 -24t-24 -11h-948q-13 0 -24 11t-11 24v1364q0 13 11 24t24 11z" />
    <glyph glyph-name="ecaron" unicode="&#x11b;" horiz-adv-x="1091" 
d="M590 1077h-78q-22 0 -32 6.5t-21 24.5l-185 274q-10 14 -2.5 24.5t21.5 10.5h69q24 0 46 -22l141 -193l143 193q16 22 45 22h70q13 0 20 -10.5t-2 -24.5l-184 -274q-19 -31 -51 -31zM559 977q205 0 341 -134t136 -345v-27q0 -35 -32 -35h-787q12 -147 109 -242.5
t243 -95.5q167 0 289 140q21 27 49 8l60 -37q23 -18 8 -43q-62 -90 -168 -141.5t-242 -51.5q-215 0 -354 142t-139 358q0 213 138.5 358.5t348.5 145.5zM221 541h676q-17 146 -109 230.5t-229 84.5t-228.5 -88.5t-109.5 -226.5z" />
    <glyph glyph-name="Gcircumflex" unicode="&#x11c;" horiz-adv-x="1587" 
d="M766 1901h78q29 0 51 -31l184 -273q9 -13 2 -24.5t-20 -11.5h-70q-24 0 -45 24l-143 193l-141 -193q-21 -24 -46 -24h-69q-14 0 -21.5 11.5t2.5 24.5l185 273q11 18 21 24.5t32 6.5zM813 1460q231 0 417.5 -121t258.5 -327q6 -10 0.5 -22t-21.5 -13l-88 -14
q-27 -2 -37 28q-70 158 -206.5 247t-323.5 89q-164 0 -298 -80.5t-209 -220.5t-75 -311q0 -172 74 -311t206.5 -218.5t297.5 -79.5q112 0 209 37t161.5 98t105 134.5t50.5 150.5h-477q-14 0 -24.5 11t-10.5 24v51q0 16 10.5 25.5t24.5 9.5h584q35 0 35 -35v-577
q0 -14 -9.5 -24.5t-25.5 -10.5h-66q-14 0 -24.5 11t-10.5 24v252q-22 -53 -66 -105t-110 -100.5t-163.5 -78.5t-208.5 -30q-149 0 -281 57t-227 155t-150 236.5t-55 295.5t58 295.5t156 236.5t233.5 154.5t285.5 56.5z" />
    <glyph glyph-name="gcircumflex" unicode="&#x11d;" 
d="M524 1417h78q29 0 51 -31l185 -272q9 -14 1.5 -25.5t-20.5 -11.5h-69q-16 0 -24.5 5.5t-20.5 19.5l-144 192l-141 -192q-12 -14 -20.5 -19.5t-24.5 -5.5h-70q-14 0 -21 11.5t3 25.5l184 272q11 18 21 24.5t32 6.5zM215 477q0 -157 97.5 -264t248.5 -107t248.5 107
t97.5 264t-97.5 263t-248.5 106t-248.5 -106t-97.5 -263zM563 -330q168 0 256 88.5t88 235.5v188q-45 -90 -140.5 -146t-215.5 -56q-132 0 -241.5 62t-173.5 176.5t-64 258.5q0 216 138.5 357t338.5 141q121 0 217 -57t141 -150v147q0 13 10.5 24t24.5 11h74q13 0 23 -10.5
t10 -24.5v-923q0 -198 -129 -320.5t-361 -122.5q-188 0 -306.5 83.5t-152.5 220.5q-4 12 3.5 22t19.5 12l74 21q35 6 41 -23q23 -91 105 -153t220 -62z" />
    <glyph glyph-name="Gbreve" unicode="&#x11e;" horiz-adv-x="1587" 
d="M803 1550q-115 0 -180.5 60.5t-65.5 163.5v24q0 21 21 21h84q6 0 11 -6t5 -11v-18q0 -58 34.5 -88.5t90.5 -30.5q58 0 93.5 30.5t35.5 88.5v18q0 5 5.5 11t12.5 6h82q21 0 21 -21v-24q0 -103 -67 -163.5t-183 -60.5zM813 1460q231 0 417.5 -121t258.5 -327q6 -10 0.5 -22
t-21.5 -13l-88 -14q-27 -2 -37 28q-70 158 -206.5 247t-323.5 89q-164 0 -298 -80.5t-209 -220.5t-75 -311q0 -172 74 -311t206.5 -218.5t297.5 -79.5q112 0 209 37t161.5 98t105 134.5t50.5 150.5h-477q-14 0 -24.5 11t-10.5 24v51q0 16 10.5 25.5t24.5 9.5h584
q35 0 35 -35v-577q0 -14 -9.5 -24.5t-25.5 -10.5h-66q-14 0 -24.5 11t-10.5 24v252q-22 -53 -66 -105t-110 -100.5t-163.5 -78.5t-208.5 -30q-149 0 -281 57t-227 155t-150 236.5t-55 295.5t58 295.5t156 236.5t233.5 154.5t285.5 56.5z" />
    <glyph glyph-name="gbreve" unicode="&#x11f;" 
d="M561 1067q-115 0 -180.5 60t-65.5 163v25q0 20 21 20h84q6 0 11 -5.5t5 -10.5v-19q0 -58 34.5 -88t90.5 -30q58 0 93.5 30t35.5 88v19q0 5 6 10.5t13 5.5h82q20 0 20 -20v-25q0 -103 -66.5 -163t-183.5 -60zM215 477q0 -157 97.5 -264t248.5 -107t248.5 107t97.5 264
t-97.5 263t-248.5 106t-248.5 -106t-97.5 -263zM563 -330q168 0 256 88.5t88 235.5v188q-45 -90 -140.5 -146t-215.5 -56q-132 0 -241.5 62t-173.5 176.5t-64 258.5q0 216 138.5 357t338.5 141q121 0 217 -57t141 -150v147q0 13 10.5 24t24.5 11h74q13 0 23 -10.5t10 -24.5
v-923q0 -198 -129 -320.5t-361 -122.5q-188 0 -306.5 83.5t-152.5 220.5q-4 12 3.5 22t19.5 12l74 21q35 6 41 -23q23 -91 105 -153t220 -62z" />
    <glyph glyph-name="Gdotaccent" unicode="&#x120;" horiz-adv-x="1587" 
d="M805 1583q-50 0 -85.5 36t-35.5 87q0 49 35.5 84t85.5 35t85.5 -35t35.5 -84q0 -51 -35.5 -87t-85.5 -36zM813 1460q231 0 417.5 -121t258.5 -327q6 -10 0.5 -22t-21.5 -13l-88 -14q-27 -2 -37 28q-70 158 -206.5 247t-323.5 89q-164 0 -298 -80.5t-209 -220.5t-75 -311
q0 -172 74 -311t206.5 -218.5t297.5 -79.5q112 0 209 37t161.5 98t105 134.5t50.5 150.5h-477q-14 0 -24.5 11t-10.5 24v51q0 16 10.5 25.5t24.5 9.5h584q35 0 35 -35v-577q0 -14 -9.5 -24.5t-25.5 -10.5h-66q-14 0 -24.5 11t-10.5 24v252q-22 -53 -66 -105t-110 -100.5
t-163.5 -78.5t-208.5 -30q-149 0 -281 57t-227 155t-150 236.5t-55 295.5t58 295.5t156 236.5t233.5 154.5t285.5 56.5z" />
    <glyph glyph-name="gdotaccent" unicode="&#x121;" 
d="M559 1100q-50 0 -85.5 36t-35.5 87q0 49 35.5 83.5t85.5 34.5t85.5 -34.5t35.5 -83.5q0 -51 -35.5 -87t-85.5 -36zM215 477q0 -157 97.5 -264t248.5 -107t248.5 107t97.5 264t-97.5 263t-248.5 106t-248.5 -106t-97.5 -263zM563 -330q168 0 256 88.5t88 235.5v188
q-45 -90 -140.5 -146t-215.5 -56q-132 0 -241.5 62t-173.5 176.5t-64 258.5q0 216 138.5 357t338.5 141q121 0 217 -57t141 -150v147q0 13 10.5 24t24.5 11h74q13 0 23 -10.5t10 -24.5v-923q0 -198 -129 -320.5t-361 -122.5q-188 0 -306.5 83.5t-152.5 220.5q-4 12 3.5 22
t19.5 12l74 21q35 6 41 -23q23 -91 105 -153t220 -62z" />
    <glyph glyph-name="Gcommaaccent" unicode="&#x122;" horiz-adv-x="1587" 
d="M813 1460q231 0 417.5 -121t258.5 -327q6 -10 0.5 -22t-21.5 -13l-88 -14q-27 -2 -37 28q-70 158 -206.5 247t-323.5 89q-164 0 -298 -80.5t-209 -220.5t-75 -311q0 -172 74 -311t206.5 -218.5t297.5 -79.5q112 0 209 37t161.5 98t105 134.5t50.5 150.5h-477
q-14 0 -24.5 11t-10.5 24v51q0 16 10.5 25.5t24.5 9.5h584q35 0 35 -35v-577q0 -14 -9.5 -24.5t-25.5 -10.5h-66q-14 0 -24.5 11t-10.5 24v252q-22 -53 -66 -105t-110 -100.5t-163.5 -78.5t-208.5 -30q-149 0 -281 57t-227 155t-150 236.5t-55 295.5t58 295.5t156 236.5
t233.5 154.5t285.5 56.5zM692 -479l74 141q-38 14 -60 44.5t-22 70.5q0 51 34 85t87 34q48 0 84.5 -36t36.5 -89q0 -113 -144 -273q-10 -10 -14 -13.5t-12 -9t-15.5 -5t-15.5 5.5l-18 10q-25 15 -15 35z" />
    <glyph glyph-name="gcommaaccent" unicode="&#x123;" 
d="M700 1516l-84 -160q41 -14 67 -48t26 -77q0 -57 -39.5 -96t-96.5 -39q-56 0 -95.5 40.5t-39.5 100.5q0 21 5 44.5t12 42.5t20.5 43t22.5 39t27 39.5t26 34.5t27 33t22 27q14 14 22 20t20.5 10t21.5 -5l20 -11q27 -18 16 -38zM215 477q0 -157 97.5 -264t248.5 -107
t248.5 107t97.5 264t-97.5 263t-248.5 106t-248.5 -106t-97.5 -263zM563 -330q168 0 256 88.5t88 235.5v188q-45 -90 -140.5 -146t-215.5 -56q-132 0 -241.5 62t-173.5 176.5t-64 258.5q0 216 138.5 357t338.5 141q121 0 217 -57t141 -150v147q0 13 10.5 24t24.5 11h74
q13 0 23 -10.5t10 -24.5v-923q0 -198 -129 -320.5t-361 -122.5q-188 0 -306.5 83.5t-152.5 220.5q-4 12 3.5 22t19.5 12l74 21q35 6 41 -23q23 -91 105 -153t220 -62z" />
    <glyph glyph-name="Hcircumflex" unicode="&#x124;" horiz-adv-x="1540" 
d="M733 1901h78q29 0 51 -31l185 -273q9 -13 1.5 -24.5t-20.5 -11.5h-70q-24 0 -45 24l-143 193l-141 -193q-21 -24 -45 -24h-70q-14 0 -21 11.5t3 24.5l184 273q11 18 21 24.5t32 6.5zM1364 1399v-1364q0 -13 -11 -24t-24 -11h-76q-16 0 -25 10t-9 25v624h-895v-624
q0 -13 -11 -24t-24 -11h-78q-13 0 -24 11t-11 24v1364q0 13 11 24t24 11h78q13 0 24 -11t11 -24v-606h895v606q0 15 9 25t25 10h76q13 0 24 -11t11 -24z" />
    <glyph glyph-name="hcircumflex" unicode="&#x125;" horiz-adv-x="1161" 
d="M543 1901h78q29 0 51 -31l184 -273q9 -13 2 -24.5t-20 -11.5h-70q-24 0 -45 24l-143 193l-142 -193q-21 -24 -45 -24h-69q-14 0 -21.5 11.5t2.5 24.5l184 273q11 18 21.5 24.5t32.5 6.5zM897 33v495q0 151 -77.5 235.5t-223.5 84.5t-231.5 -88.5t-85.5 -231.5v-495
q0 -13 -10.5 -23t-22.5 -10h-74q-14 0 -24.5 11t-10.5 24v1364q0 13 10.5 24t24.5 11h74q12 0 22.5 -10t10.5 -23v-617q42 87 135 139t215 52q189 0 299 -114t110 -300v-528q0 -13 -10 -23t-24 -10h-72q-14 0 -24.5 10t-10.5 23z" />
    <glyph glyph-name="Hbar" unicode="&#x126;" horiz-adv-x="1546" 
d="M326 793h895v256h-895v-256zM326 659v-624q0 -13 -11 -24t-24 -11h-78q-13 0 -24 11t-11 24v1014h-104q-16 0 -25.5 10t-9.5 24v50q0 14 9.5 24t25.5 10h104v232q0 13 11 24t24 11h78q13 0 24 -11t11 -24v-232h895v232q0 15 9 25t25 10h76q13 0 24 -11t11 -24v-232h109
q13 0 23.5 -10.5t10.5 -23.5v-50q0 -13 -10.5 -23.5t-23.5 -10.5h-109v-1014q0 -13 -11 -24t-24 -11h-76q-16 0 -25 10t-9 25v624h-895z" />
    <glyph glyph-name="hbar" unicode="&#x127;" horiz-adv-x="1161" 
d="M279 528v-495q0 -13 -10.5 -23t-22.5 -10h-74q-14 0 -24.5 11t-10.5 24v1083h-117q-13 0 -23.5 10.5t-10.5 24.5v37q0 14 10.5 24.5t23.5 10.5h117v174q0 13 10.5 24t24.5 11h74q12 0 22.5 -10t10.5 -23v-176h290q13 0 24 -10.5t11 -24.5v-37q0 -13 -11 -24t-24 -11h-290
v-334q42 87 135 139t215 52q189 0 299 -114t110 -300v-528q0 -13 -10 -23t-24 -10h-72q-14 0 -24.5 10t-10.5 23v495q0 151 -77.5 235.5t-223.5 84.5t-231.5 -88.5t-85.5 -231.5z" />
    <glyph glyph-name="Itilde" unicode="&#x128;" horiz-adv-x="499" 
d="M385 1591q-43 0 -143.5 35t-120.5 35q-28 0 -43.5 -11.5t-34.5 -39.5q-14 -24 -47 -4l-27 18q-16 10 -16 29q0 43 48.5 90t115.5 47q41 0 142 -35t122 -35q28 0 42 10.5t36 41.5q18 27 47 4l26 -19q17 -10 17 -28q0 -44 -48.5 -91t-115.5 -47zM289 0h-78q-13 0 -24 11
t-11 24v1364q0 13 11 24t24 11h78q13 0 24 -11t11 -24v-1364q0 -13 -11 -24t-24 -11z" />
    <glyph glyph-name="itilde" unicode="&#x129;" horiz-adv-x="411" 
d="M332 1108q-43 0 -143.5 35t-120.5 35q-27 0 -43 -11.5t-35 -40.5q-14 -24 -47 -4l-27 19q-16 10 -16 28q0 44 48 91t115 47q41 0 142.5 -35t122.5 -35q28 0 42.5 10t35.5 41q18 27 47 4l26 -18q17 -10 17 -29q0 -43 -48.5 -90t-115.5 -47zM244 0h-74q-14 0 -24.5 11
t-10.5 24v880q0 13 10.5 24t24.5 11h74q13 0 22.5 -10.5t9.5 -24.5v-880q0 -14 -9.5 -24.5t-22.5 -10.5z" />
    <glyph glyph-name="Imacron" unicode="&#x12a;" horiz-adv-x="499" 
d="M483 1606h-469q-14 0 -24 10t-10 24v50q0 14 10 24t24 10h469q14 0 24.5 -10.5t10.5 -23.5v-50q0 -13 -10.5 -23.5t-24.5 -10.5zM289 0h-78q-13 0 -24 11t-11 24v1364q0 13 11 24t24 11h78q13 0 24 -11t11 -24v-1364q0 -13 -11 -24t-24 -11z" />
    <glyph glyph-name="imacron" unicode="&#x12b;" horiz-adv-x="411" 
d="M440 1122h-469q-13 0 -23.5 10.5t-10.5 24.5v49q0 14 10.5 24.5t23.5 10.5h469q14 0 24.5 -10.5t10.5 -24.5v-49q0 -13 -10.5 -24t-24.5 -11zM244 0h-74q-14 0 -24.5 11t-10.5 24v880q0 13 10.5 24t24.5 11h74q13 0 22.5 -10.5t9.5 -24.5v-880q0 -14 -9.5 -24.5
t-22.5 -10.5z" />
    <glyph glyph-name="Ibreve" unicode="&#x12c;" horiz-adv-x="499" 
d="M248 1550q-115 0 -180.5 60.5t-65.5 163.5v24q0 21 21 21h83q6 0 11.5 -6t5.5 -11v-18q0 -58 34.5 -88.5t90.5 -30.5q58 0 93.5 30.5t35.5 88.5v18q0 5 5.5 11t12.5 6h82q21 0 21 -21v-24q0 -103 -67 -163.5t-183 -60.5zM289 0h-78q-13 0 -24 11t-11 24v1364q0 13 11 24
t24 11h78q13 0 24 -11t11 -24v-1364q0 -13 -11 -24t-24 -11z" />
    <glyph glyph-name="ibreve" unicode="&#x12d;" horiz-adv-x="411" 
d="M205 1067q-115 0 -180.5 60t-65.5 163v25q0 20 21 20h83q6 0 11.5 -5.5t5.5 -10.5v-19q0 -58 34.5 -88t90.5 -30q58 0 93.5 30t35.5 88v19q0 5 5.5 10.5t12.5 5.5h82q21 0 21 -20v-25q0 -103 -66.5 -163t-183.5 -60zM244 0h-74q-14 0 -24.5 11t-10.5 24v880q0 13 10.5 24
t24.5 11h74q13 0 22.5 -10.5t9.5 -24.5v-880q0 -14 -9.5 -24.5t-22.5 -10.5z" />
    <glyph glyph-name="Iogonek" unicode="&#x12e;" horiz-adv-x="499" 
d="M217 -408q-85 0 -132.5 42t-47.5 112t50 138.5t116 117.5q-27 9 -27 33v1364q0 13 11 24t24 11h78q13 0 24 -11t11 -24v-1364q0 -13 -9 -24t-20 -11q-53 -61 -89 -124.5t-36 -104.5q0 -76 86 -76q26 0 61 6q13 5 21 -3.5t4 -25.5l-4 -34q0 -24 -38.5 -35t-82.5 -11z" />
    <glyph glyph-name="iogonek" unicode="&#x12f;" horiz-adv-x="411" 
d="M207 1163q-47 0 -81 35t-34 82t34 82t81 35t81 -35t34 -82t-34 -82t-81 -35zM174 -408q-85 0 -132.5 42t-47.5 112t50 138.5t116 117.5q-25 6 -25 33v880q0 13 10.5 24t24.5 11h74q13 0 22.5 -10.5t9.5 -24.5v-880q0 -13 -8 -24t-16 -9q-125 -152 -125 -231q0 -76 86 -76
q27 0 61 6q13 5 21 -3.5t4 -25.5l-4 -34q0 -24 -38.5 -35t-82.5 -11z" />
    <glyph glyph-name="Idot" unicode="&#x130;" horiz-adv-x="499" 
d="M250 1583q-50 0 -85.5 36t-35.5 87q0 49 35.5 84t85.5 35t85.5 -35t35.5 -84q0 -51 -35.5 -87t-85.5 -36zM289 0h-78q-13 0 -24 11t-11 24v1364q0 13 11 24t24 11h78q13 0 24 -11t11 -24v-1364q0 -13 -11 -24t-24 -11z" />
    <glyph glyph-name="dotlessi" unicode="&#x131;" horiz-adv-x="411" 
d="M244 0h-74q-14 0 -24.5 11t-10.5 24v880q0 13 10.5 24t24.5 11h74q13 0 22.5 -10.5t9.5 -24.5v-880q0 -14 -9.5 -24.5t-22.5 -10.5z" />
    <glyph glyph-name="IJ" unicode="&#x132;" horiz-adv-x="1734" 
d="M289 0h-78q-13 0 -24 11t-11 24v1364q0 13 11 24t24 11h78q13 0 24 -11t11 -24v-1364q0 -13 -11 -24t-24 -11zM1573 1399v-953q0 -206 -141 -339.5t-371 -133.5q-232 0 -372 131.5t-140 339.5v80q0 14 10.5 24.5t24.5 10.5h75q13 0 24 -10.5t11 -24.5v-78
q0 -149 96.5 -245.5t270.5 -96.5q173 0 269.5 100.5t96.5 250.5v944q0 13 10.5 24t24.5 11h76q16 0 25.5 -10.5t9.5 -24.5z" />
    <glyph glyph-name="ij" unicode="&#x133;" horiz-adv-x="823" 
d="M612 1165q-47 0 -81.5 34t-34.5 81t34.5 82t81.5 35t81 -35t34 -82t-34 -81t-81 -34zM207 1163q-47 0 -81 35t-34 82t34 82t81 35t81 -35t34 -82t-34 -82t-81 -35zM244 0h-74q-14 0 -24.5 11t-10.5 24v880q0 13 10.5 24t24.5 11h74q13 0 22.5 -10.5t9.5 -24.5v-880
q0 -14 -9.5 -24.5t-22.5 -10.5zM582 950h71q13 0 24 -11t11 -24v-1065q0 -75 -24.5 -134.5t-65.5 -95t-91.5 -53.5t-105.5 -18q-131 0 -206 66q-11 8 -13 21t8 24l29 41q22 32 53 10q58 -37 119 -37q69 0 112.5 45.5t43.5 128.5v1067q0 13 10.5 24t24.5 11z" />
    <glyph glyph-name="Jcircumflex" unicode="&#x134;" horiz-adv-x="1234" 
d="M965 1901h77q30 0 52 -31l184 -273q9 -13 2 -24.5t-20 -11.5h-70q-24 0 -45 24l-144 193l-141 -193q-21 -24 -45 -24h-70q-14 0 -21 11.5t3 24.5l184 273q11 18 21.5 24.5t32.5 6.5zM1073 1399v-953q0 -206 -141 -339.5t-371 -133.5q-232 0 -372 131.5t-140 339.5v80
q0 14 10.5 24.5t24.5 10.5h76q14 0 24.5 -10.5t10.5 -24.5v-78q0 -149 96 -245.5t270 -96.5q173 0 270 100.5t97 250.5v944q0 13 11 24t24 11h75q16 0 25.5 -10.5t9.5 -24.5z" />
    <glyph glyph-name="jcircumflex" unicode="&#x135;" horiz-adv-x="411" 
d="M168 1417h78q29 0 51 -31l184 -272q9 -14 2 -25.5t-20 -11.5h-70q-16 0 -24.5 5.5t-20.5 19.5l-143 192l-142 -192q-12 -14 -20.5 -19.5t-24.5 -5.5h-69q-14 0 -21.5 11.5t2.5 25.5l185 272q11 18 21 24.5t32 6.5zM168 950h72q13 0 23.5 -10.5t10.5 -24.5v-1065
q0 -100 -42.5 -170t-105.5 -100.5t-138 -30.5q-132 0 -207 66q-11 8 -12.5 21t8.5 24l28 41q22 32 54 10q58 -37 118 -37q69 0 112.5 45.5t43.5 128.5v1067q0 13 10.5 24t24.5 11z" />
    <glyph glyph-name="Kcommaaccent" unicode="&#x136;" horiz-adv-x="1302" 
d="M1292 1403l-626 -647l616 -725q7 -11 2.5 -21t-16.5 -10h-115q-32 0 -53 27l-553 655h-223v-647q0 -13 -11 -24t-24 -11h-78q-13 0 -24 11t-11 24v1364q0 13 11 24t24 11h78q13 0 24 -11t11 -24v-588h221l565 594q14 16 24 22.5t27 6.5h119q13 0 16.5 -10t-4.5 -21z
M543 -479l73 141q-37 14 -59 44t-22 71q0 52 33.5 85.5t86.5 33.5q48 0 84.5 -36t36.5 -89q0 -114 -143 -273q-10 -10 -14 -13.5t-12.5 -9t-16 -5t-15.5 5.5l-18 10q-24 15 -14 35z" />
    <glyph glyph-name="kcommaaccent" unicode="&#x137;" horiz-adv-x="946" 
d="M279 471v-436q0 -14 -10 -24.5t-23 -10.5h-74q-14 0 -24.5 11t-10.5 24v1364q0 13 10.5 24t24.5 11h74q13 0 23 -10.5t10 -24.5v-807h124l316 338q17 20 37 20h114q14 0 18.5 -11t-5.5 -21l-371 -386l432 -497q11 -11 7 -23t-21 -12h-105q-34 0 -55 27l-381 444h-110z
M350 -479l74 141q-38 14 -60 44.5t-22 70.5q0 51 34 85t87 34q48 0 84.5 -36t36.5 -89q0 -113 -144 -273q-10 -10 -14 -13.5t-12 -9t-15.5 -5t-15.5 5.5l-18 10q-25 15 -15 35z" />
    <glyph glyph-name="kgreenlandic" unicode="&#x138;" horiz-adv-x="944" 
d="M276 428v-393q0 -14 -9.5 -24.5t-22.5 -10.5h-74q-14 0 -24.5 11t-10.5 24v880q0 13 10.5 24t24.5 11h74q13 0 22.5 -10.5t9.5 -24.5v-366h105l336 381q20 20 37 20h114q14 0 18.5 -11t-5.5 -21l-381 -420l442 -463q11 -11 7 -23t-21 -12h-105q-28 0 -55 27l-387 401
h-105z" />
    <glyph glyph-name="Lacute" unicode="&#x139;" horiz-adv-x="1107" 
d="M367 1901h100q17 0 23.5 -12.5t-1.5 -24.5l-153 -275q-16 -28 -41 -28h-55q-37 0 -25 34l107 275q9 31 45 31zM1090 100v-65q0 -13 -11 -24t-24 -11h-844q-13 0 -24 11t-11 24v1364q0 13 11 24t24 11h78q13 0 24 -11t11 -24v-1264h731q13 0 24 -10.5t11 -24.5z" />
    <glyph glyph-name="lacute" unicode="&#x13a;" horiz-adv-x="483" 
d="M319 1901h101q17 0 23.5 -12.5t-1.5 -24.5l-153 -275q-16 -28 -41 -28h-55q-37 0 -25 34l106 275q9 31 45 31zM440 0h-78q-108 0 -168.5 55.5t-60.5 173.5v1170q0 13 10.5 24t24.5 11h74q13 0 22.5 -10.5t9.5 -24.5v-1153q0 -125 123 -125h47q14 0 24.5 -9.5t10.5 -25.5
v-49q0 -17 -12 -27t-27 -10z" />
    <glyph glyph-name="Lcommaaccent" unicode="&#x13b;" horiz-adv-x="1107" 
d="M1090 100v-65q0 -13 -11 -24t-24 -11h-844q-13 0 -24 11t-11 24v1364q0 13 11 24t24 11h78q13 0 24 -11t11 -24v-1264h731q13 0 24 -10.5t11 -24.5zM510 -479l74 141q-38 14 -60 44.5t-22 70.5q0 51 34 85t87 34q48 0 84 -36t36 -89q0 -114 -143 -273q-10 -10 -14 -13.5
t-12 -9t-15.5 -5t-15.5 5.5l-19 10q-24 15 -14 35z" />
    <glyph glyph-name="lcommaaccent" unicode="&#x13c;" horiz-adv-x="483" 
d="M440 0h-78q-108 0 -168.5 55.5t-60.5 173.5v1170q0 13 10.5 24t24.5 11h74q13 0 22.5 -10.5t9.5 -24.5v-1153q0 -125 123 -125h47q14 0 24.5 -9.5t10.5 -25.5v-49q0 -17 -12 -27t-27 -10zM150 -479l73 141q-38 14 -60 44.5t-22 70.5q0 51 33.5 85t87.5 34q48 0 84.5 -36
t36.5 -89q0 -114 -143 -273q-10 -10 -14 -13.5t-12.5 -9t-16 -5t-15.5 5.5l-18 10q-24 15 -14 35z" />
    <glyph glyph-name="Lcaron" unicode="&#x13d;" horiz-adv-x="1114" 
d="M709 1063l73 141q-37 14 -59.5 44.5t-22.5 70.5q0 51 35 85t86 34q50 0 85.5 -36t35.5 -89q0 -114 -143 -273q-25 -25 -37 -27q-9 -1 -19 5l-18 10q-27 15 -16 35zM1090 100v-65q0 -13 -11 -24t-24 -11h-844q-13 0 -24 11t-11 24v1364q0 13 11 24t24 11h78q13 0 24 -11
t11 -24v-1264h731q13 0 24 -10.5t11 -24.5z" />
    <glyph glyph-name="lcaron" unicode="&#x13e;" horiz-adv-x="507" 
d="M424 1063l74 141q-37 14 -59.5 44.5t-22.5 70.5q0 51 35 85t86 34q50 0 85 -36t35 -89q0 -114 -143 -273l-5.5 -5.5l-6 -6t-5.5 -5t-6 -4.5t-5.5 -3.5t-6 -2.5h-6t-7 1.5t-7.5 3.5l-19 10q-27 15 -16 35zM440 0h-78q-108 0 -168.5 55.5t-60.5 173.5v1170q0 13 10.5 24
t24.5 11h74q13 0 22.5 -10.5t9.5 -24.5v-1153q0 -125 123 -125h47q14 0 24.5 -9.5t10.5 -25.5v-49q0 -17 -12 -27t-27 -10z" />
    <glyph glyph-name="Ldot" unicode="&#x13f;" horiz-adv-x="1114" 
d="M1090 100v-65q0 -13 -11 -24t-24 -11h-844q-13 0 -24 11t-11 24v1364q0 13 11 24t24 11h78q13 0 24 -11t11 -24v-1264h731q13 0 24 -10.5t11 -24.5zM745 604q-57 0 -97 40t-40 97t40 97.5t97 40.5t97.5 -40.5t40.5 -97.5t-40.5 -97t-97.5 -40z" />
    <glyph glyph-name="ldot" unicode="&#x140;" horiz-adv-x="684" 
d="M440 0h-78q-108 0 -168.5 55.5t-60.5 173.5v1170q0 13 10.5 24t24.5 11h74q13 0 22.5 -10.5t9.5 -24.5v-1153q0 -125 123 -125h47q14 0 24.5 -9.5t10.5 -25.5v-49q0 -17 -12 -27t-27 -10zM539 401q-57 0 -97.5 40.5t-40.5 97.5t40.5 97t97.5 40t97 -40t40 -97t-40 -97.5
t-97 -40.5z" />
    <glyph glyph-name="Lslash" unicode="&#x141;" horiz-adv-x="1112" 
d="M1057 0h-844q-13 0 -24 11t-11 24v510l-82 -27q-13 -4 -24 4.5t-11 22.5v51q0 34 31 43l86 29v731q0 13 11 24t24 11h78q13 0 24 -11t11 -24v-682l428 141q13 4 23.5 -4t10.5 -20v-56q0 -34 -30 -43l-432 -141v-459h731q13 0 24 -10.5t11 -24.5v-65q0 -13 -11 -24
t-24 -11z" />
    <glyph glyph-name="lslash" unicode="&#x142;" horiz-adv-x="501" 
d="M451 0h-78q-108 0 -169 55.5t-61 173.5v342l-67 -34q-12 -6 -22.5 -0.5t-10.5 18.5v61q0 16 6.5 23t22.5 16l71 37v707q0 13 10.5 24t24.5 11h74q13 0 23 -10.5t10 -24.5v-637l135 67q12 6 22.5 0.5t10.5 -18.5v-61q0 -16 -6.5 -23t-22.5 -16l-139 -70v-395
q0 -125 123 -125h47q14 0 24 -9.5t10 -25.5v-49q0 -18 -11.5 -27.5t-26.5 -9.5z" />
    <glyph glyph-name="Nacute" unicode="&#x143;" horiz-adv-x="1476" 
d="M854 1901h100q17 0 24 -12.5t-1 -24.5l-154 -275q-16 -28 -41 -28h-55q-37 0 -25 34l107 275q9 31 45 31zM1118 31l-794 1171v-1167q0 -13 -11 -24t-24 -11h-78q-13 0 -24 11t-11 24v1364q0 13 11 24t24 11h100q31 0 54 -29l790 -1167v1161q0 14 10 24.5t23 10.5h78
q13 0 23.5 -10.5t10.5 -24.5v-1364q0 -14 -10.5 -24.5t-23.5 -10.5h-88q-38 0 -60 31z" />
    <glyph glyph-name="nacute" unicode="&#x144;" horiz-adv-x="1159" 
d="M694 1417h101q17 0 23.5 -12.5t-1.5 -24.5l-153 -274q-16 -29 -41 -29h-56q-36 0 -24 35l106 274q9 31 45 31zM895 33v495q0 151 -77.5 235.5t-223.5 84.5t-232 -88.5t-86 -231.5v-495q0 -13 -10 -23t-22 -10h-74q-14 0 -24.5 11t-10.5 24v880q0 13 10.5 24t24.5 11h74
q12 0 22 -11t10 -24v-131q42 87 135.5 139t215.5 52q189 0 299 -114t110 -300v-528q0 -13 -10.5 -23t-24.5 -10h-71q-14 0 -24.5 10t-10.5 23z" />
    <glyph glyph-name="Ncommaaccent" unicode="&#x145;" horiz-adv-x="1476" 
d="M1118 31l-794 1171v-1167q0 -13 -11 -24t-24 -11h-78q-13 0 -24 11t-11 24v1364q0 13 11 24t24 11h100q31 0 54 -29l790 -1167v1161q0 14 10 24.5t23 10.5h78q13 0 23.5 -10.5t10.5 -24.5v-1364q0 -14 -10.5 -24.5t-23.5 -10.5h-88q-38 0 -60 31zM627 -479l73 141
q-38 14 -60 44.5t-22 70.5q0 51 34 85t87 34q48 0 84.5 -36t36.5 -89q0 -114 -143 -273q-10 -10 -14 -13.5t-12.5 -9t-16 -5t-15.5 5.5l-18 10q-24 15 -14 35z" />
    <glyph glyph-name="ncommaaccent" unicode="&#x146;" horiz-adv-x="1159" 
d="M895 33v495q0 151 -77.5 235.5t-223.5 84.5t-232 -88.5t-86 -231.5v-495q0 -13 -10 -23t-22 -10h-74q-14 0 -24.5 11t-10.5 24v880q0 13 10.5 24t24.5 11h74q12 0 22 -11t10 -24v-131q42 87 135.5 139t215.5 52q189 0 299 -114t110 -300v-528q0 -13 -10.5 -23t-24.5 -10
h-71q-14 0 -24.5 10t-10.5 23zM461 -479l74 141q-38 14 -60 44.5t-22 70.5q0 52 33.5 85.5t86.5 33.5q48 0 84.5 -36t36.5 -89q0 -114 -143 -273q-10 -10 -14 -13.5t-12 -9t-15.5 -5t-15.5 5.5l-19 10q-24 15 -14 35z" />
    <glyph glyph-name="Ncaron" unicode="&#x147;" horiz-adv-x="1476" 
d="M778 1561h-78q-22 0 -32 6t-21 24l-184 275q-10 14 -3 24.5t21 10.5h70q22 0 45 -23l141 -192l144 192q16 23 45 23h69q13 0 20.5 -10.5t-1.5 -24.5l-185 -275q-18 -30 -51 -30zM1118 31l-794 1171v-1167q0 -13 -11 -24t-24 -11h-78q-13 0 -24 11t-11 24v1364q0 13 11 24
t24 11h100q31 0 54 -29l790 -1167v1161q0 14 10 24.5t23 10.5h78q13 0 23.5 -10.5t10.5 -24.5v-1364q0 -14 -10.5 -24.5t-23.5 -10.5h-88q-38 0 -60 31z" />
    <glyph glyph-name="ncaron" unicode="&#x148;" horiz-adv-x="1159" 
d="M618 1077h-77q-22 0 -32.5 6.5t-21.5 24.5l-184 274q-10 14 -2.5 24.5t21.5 10.5h69q23 0 45 -22l142 -193l143 193q16 22 45 22h70q13 0 20 -10.5t-2 -24.5l-184 -274q-19 -31 -52 -31zM895 33v495q0 151 -77.5 235.5t-223.5 84.5t-232 -88.5t-86 -231.5v-495
q0 -13 -10 -23t-22 -10h-74q-14 0 -24.5 11t-10.5 24v880q0 13 10.5 24t24.5 11h74q12 0 22 -11t10 -24v-131q42 87 135.5 139t215.5 52q189 0 299 -114t110 -300v-528q0 -13 -10.5 -23t-24.5 -10h-71q-14 0 -24.5 10t-10.5 23z" />
    <glyph glyph-name="napostrophe" unicode="&#x149;" horiz-adv-x="1159" 
d="M127 1139l74 141q-37 14 -59.5 44.5t-22.5 70.5q0 51 35 84.5t86 33.5q50 0 85 -35.5t35 -88.5q0 -114 -143 -273l-5.5 -5.5l-6 -6t-5.5 -5t-6 -4.5t-5.5 -3.5t-6 -2.5h-6t-7 1.5t-7.5 3.5l-19 10q-27 15 -16 35zM895 33v495q0 151 -77.5 235.5t-223.5 84.5t-232 -88.5
t-86 -231.5v-495q0 -13 -10 -23t-22 -10h-74q-14 0 -24.5 11t-10.5 24v880q0 13 10.5 24t24.5 11h74q12 0 22 -11t10 -24v-131q42 87 135.5 139t215.5 52q189 0 299 -114t110 -300v-528q0 -13 -10.5 -23t-24.5 -10h-71q-14 0 -24.5 10t-10.5 23z" />
    <glyph glyph-name="Eng" unicode="&#x14a;" horiz-adv-x="1476" 
d="M1014 -451q-132 0 -207 66q-23 16 -4 45l28 41q22 32 54 10q58 -37 119 -37q69 0 112 45.5t43 128.5v152q-19 0 -31 18l-804 1184v-1167q0 -13 -11 -24t-24 -11h-78q-13 0 -24 11t-11 24v1364q0 13 11 24t24 11h100q38 0 54 -29l790 -1167v1161q0 14 10 24.5t23 10.5h78
q13 0 23.5 -10.5t10.5 -24.5v-1549q0 -100 -42.5 -170t-105.5 -100.5t-138 -30.5z" />
    <glyph glyph-name="eng" unicode="&#x14b;" horiz-adv-x="1159" 
d="M750 -465q-129 0 -209 64q-22 19 -4 47l28 43q19 31 56 10q61 -39 118 -39q69 0 112.5 46t43.5 130v692q0 151 -77.5 235.5t-223.5 84.5t-232 -88.5t-86 -231.5v-495q0 -13 -10 -23t-22 -10h-74q-14 0 -24.5 11t-10.5 24v880q0 13 10.5 24t24.5 11h74q12 0 22 -11t10 -24
v-131q42 88 134 139.5t215 51.5q196 0 303.5 -116.5t107.5 -309.5v-713q0 -75 -24.5 -134.5t-66 -95t-91 -53.5t-104.5 -18z" />
    <glyph glyph-name="Omacron" unicode="&#x14c;" horiz-adv-x="1611" 
d="M1040 1606h-469q-13 0 -23.5 10t-10.5 24v50q0 14 10.5 24t23.5 10h469q14 0 24.5 -10.5t10.5 -23.5v-50q0 -13 -10.5 -23.5t-24.5 -10.5zM1532 717q0 -157 -57.5 -295.5t-155.5 -236.5t-232 -155t-282 -57t-281.5 57t-231 155t-155 236.5t-57.5 295.5t57.5 295.5
t155 236.5t231 154.5t281.5 56.5t282 -56.5t232 -154.5t155.5 -236.5t57.5 -295.5zM1380 717q0 171 -73 310t-205 219.5t-297 80.5q-164 0 -296 -80.5t-205 -220t-73 -309.5q0 -127 43 -240t118.5 -194.5t182.5 -129t230 -47.5q165 0 297 80.5t205 220t73 310.5z" />
    <glyph glyph-name="omacron" unicode="&#x14d;" horiz-adv-x="1124" 
d="M797 1122h-469q-14 0 -24.5 11t-10.5 24v49q0 14 10.5 24.5t24.5 10.5h469q13 0 23.5 -10.5t10.5 -24.5v-49q0 -14 -10.5 -24.5t-23.5 -10.5zM72 475q0 105 39 198.5t105 159.5t156.5 104t190.5 38q204 0 347 -143.5t143 -356.5q0 -142 -66 -257.5t-178 -180t-246 -64.5
q-100 0 -190.5 38t-156.5 104t-105 160t-39 200zM215 475q0 -157 98 -264t250 -107q151 0 248.5 107t97.5 264t-97.5 264t-248.5 107q-152 0 -250 -107t-98 -264z" />
    <glyph glyph-name="Obreve" unicode="&#x14e;" horiz-adv-x="1611" 
d="M805 1550q-115 0 -180.5 60.5t-65.5 163.5v24q0 21 21 21h84q6 0 11 -6t5 -11v-18q0 -58 34.5 -88.5t90.5 -30.5q58 0 93.5 30.5t35.5 88.5v18q0 5 5.5 11t12.5 6h82q21 0 21 -21v-24q0 -103 -67 -163.5t-183 -60.5zM1532 717q0 -157 -57.5 -295.5t-155.5 -236.5
t-232 -155t-282 -57t-281.5 57t-231 155t-155 236.5t-57.5 295.5t57.5 295.5t155 236.5t231 154.5t281.5 56.5t282 -56.5t232 -154.5t155.5 -236.5t57.5 -295.5zM1380 717q0 171 -73 310t-205 219.5t-297 80.5q-164 0 -296 -80.5t-205 -220t-73 -309.5q0 -127 43 -240
t118.5 -194.5t182.5 -129t230 -47.5q165 0 297 80.5t205 220t73 310.5z" />
    <glyph glyph-name="obreve" unicode="&#x14f;" horiz-adv-x="1124" 
d="M563 1067q-115 0 -180.5 60t-65.5 163v25q0 20 21 20h84q6 0 11 -5.5t5 -10.5v-19q0 -58 34.5 -88t90.5 -30q58 0 93.5 30t35.5 88v19q0 5 6 10.5t13 5.5h82q20 0 20 -20v-25q0 -103 -66.5 -163t-183.5 -60zM72 475q0 105 39 198.5t105 159.5t156.5 104t190.5 38
q204 0 347 -143.5t143 -356.5q0 -142 -66 -257.5t-178 -180t-246 -64.5q-100 0 -190.5 38t-156.5 104t-105 160t-39 200zM215 475q0 -157 98 -264t250 -107q151 0 248.5 107t97.5 264t-97.5 264t-248.5 107q-152 0 -250 -107t-98 -264z" />
    <glyph glyph-name="Ohungarumlaut" unicode="&#x150;" horiz-adv-x="1611" 
d="M754 1901h100q17 0 24 -12t1 -25l-156 -275q-6 -11 -9.5 -16t-11 -8.5t-18.5 -3.5h-55q-36 0 -27 34l107 275q9 31 45 31zM1085 1901h101q16 0 22.5 -12.5t-0.5 -24.5l-155 -275q-12 -28 -39 -28h-56q-35 0 -26 34l106 275q9 31 47 31zM1532 717q0 -157 -57.5 -295.5
t-155.5 -236.5t-232 -155t-282 -57t-281.5 57t-231 155t-155 236.5t-57.5 295.5t57.5 295.5t155 236.5t231 154.5t281.5 56.5t282 -56.5t232 -154.5t155.5 -236.5t57.5 -295.5zM1380 717q0 171 -73 310t-205 219.5t-297 80.5q-164 0 -296 -80.5t-205 -220t-73 -309.5
q0 -127 43 -240t118.5 -194.5t182.5 -129t230 -47.5q165 0 297 80.5t205 220t73 310.5z" />
    <glyph glyph-name="ohungarumlaut" unicode="&#x151;" horiz-adv-x="1124" 
d="M512 1417h100q17 0 24 -12t1 -25l-156 -274q-6 -11 -9.5 -16t-11 -9t-18.5 -4h-55q-36 0 -27 35l107 274q9 31 45 31zM844 1417h100q16 0 23 -12.5t0 -24.5l-156 -274q-13 -29 -39 -29h-55q-36 0 -27 35l107 274q9 31 47 31zM72 475q0 105 39 198.5t105 159.5t156.5 104
t190.5 38q204 0 347 -143.5t143 -356.5q0 -142 -66 -257.5t-178 -180t-246 -64.5q-100 0 -190.5 38t-156.5 104t-105 160t-39 200zM215 475q0 -157 98 -264t250 -107q151 0 248.5 107t97.5 264t-97.5 264t-248.5 107q-152 0 -250 -107t-98 -264z" />
    <glyph glyph-name="OE" unicode="&#x152;" horiz-adv-x="2447" 
d="M1380 717q0 170 -73 309.5t-204.5 220t-295.5 80.5t-296.5 -80.5t-206 -220t-73.5 -309.5q0 -127 43.5 -240t119 -194.5t183 -129t230.5 -47.5q164 0 295.5 80.5t204.5 220.5t73 310zM1370 35v270q-80 -155 -230.5 -243.5t-338.5 -88.5q-148 0 -281 57t-229.5 155
t-153.5 236.5t-57 295.5t56.5 295.5t153 236.5t229 154.5t280.5 56.5q189 0 340 -88.5t231 -243.5v271q0 13 11 24t24 11h948q13 0 24 -11t11 -24v-66q0 -13 -11 -24t-24 -11h-835v-505h426q34 0 34 -35v-64q0 -15 -9 -25t-25 -10h-426v-524h835q13 0 24 -10.5t11 -24.5v-65
q0 -13 -11 -24t-24 -11h-948q-13 0 -24 11t-11 24z" />
    <glyph glyph-name="oe" unicode="&#x153;" horiz-adv-x="1929" 
d="M1403 -27q-139 0 -249.5 62t-174.5 172q-67 -110 -175.5 -172t-240.5 -62q-100 0 -190.5 38t-156.5 104t-105 160t-39 200q0 105 39 198.5t105 159.5t156.5 104t190.5 38q132 0 241.5 -62t176.5 -172q63 108 172.5 172t243.5 64q205 0 341 -134t136 -345v-27
q0 -15 -8.5 -25t-24.5 -10h-786q12 -147 109 -242.5t243 -95.5q167 0 289 140q21 27 49 8l59 -37q23 -18 8 -43q-62 -90 -167.5 -141.5t-241.5 -51.5zM1059 541h676q-17 146 -109 230.5t-229 84.5t-228.5 -88.5t-109.5 -226.5zM215 475q0 -157 98 -264t250 -107
q151 0 248.5 107t97.5 264t-97.5 264t-248.5 107q-152 0 -250 -107t-98 -264z" />
    <glyph glyph-name="Racute" unicode="&#x154;" horiz-adv-x="1378" 
d="M809 1901h100q17 0 24 -12.5t-1 -24.5l-154 -275q-16 -28 -41 -28h-55q-37 0 -25 34l107 275q9 31 45 31zM324 735h473q152 0 239.5 79t87.5 208q0 126 -87.5 203.5t-239.5 77.5h-473v-568zM1284 0h-94q-18 0 -28 7.5t-21 25.5l-336 577h-481v-575q0 -13 -11 -24t-24 -11
h-78q-13 0 -24 11t-11 24v1364q0 13 11 24t24 11h582q222 0 352.5 -112t130.5 -294q0 -58 -15.5 -112.5t-50 -110t-101 -100t-157.5 -68.5l355 -602q8 -11 1 -23t-24 -12z" />
    <glyph glyph-name="racute" unicode="&#x155;" horiz-adv-x="620" 
d="M465 1417h100q17 0 24 -12.5t-1 -24.5l-154 -274q-16 -29 -41 -29h-55q-37 0 -25 35l107 274q9 31 45 31zM537 952h32q13 0 23 -9t10 -25v-74q0 -16 -9.5 -24.5t-21.5 -8.5h-34q-118 0 -189.5 -78t-71.5 -248v-452q0 -13 -10 -23t-22 -10h-74q-14 0 -24.5 11t-10.5 24
v880q0 13 10.5 24t24.5 11h68q12 0 22 -11t10 -24v-141q29 74 99.5 126t167.5 52z" />
    <glyph glyph-name="Rcommaaccent" unicode="&#x156;" horiz-adv-x="1378" 
d="M324 735h473q152 0 239.5 79t87.5 208q0 126 -87.5 203.5t-239.5 77.5h-473v-568zM1284 0h-94q-18 0 -28 7.5t-21 25.5l-336 577h-481v-575q0 -13 -11 -24t-24 -11h-78q-13 0 -24 11t-11 24v1364q0 13 11 24t24 11h582q222 0 352.5 -112t130.5 -294q0 -58 -15.5 -112.5
t-50 -110t-101 -100t-157.5 -68.5l355 -602q8 -11 1 -23t-24 -12zM582 -479l73 141q-38 14 -60 44.5t-22 70.5q0 51 33.5 85t87.5 34q48 0 84.5 -36t36.5 -89q0 -114 -143 -273q-10 -10 -14 -13.5t-12.5 -9t-16 -5t-15.5 5.5l-18 10q-24 15 -14 35z" />
    <glyph glyph-name="rcommaaccent" unicode="&#x157;" horiz-adv-x="620" 
d="M537 952h32q13 0 23 -9t10 -25v-74q0 -16 -9.5 -24.5t-21.5 -8.5h-34q-118 0 -189.5 -78t-71.5 -248v-452q0 -13 -10 -23t-22 -10h-74q-14 0 -24.5 11t-10.5 24v880q0 13 10.5 24t24.5 11h68q12 0 22 -11t10 -24v-141q29 74 99.5 126t167.5 52zM94 -479l74 141
q-38 14 -60 44.5t-22 70.5q0 51 34 85t87 34q48 0 84.5 -36t36.5 -89q0 -113 -144 -273q-10 -10 -14 -13.5t-12 -9t-15.5 -5t-15.5 5.5l-18 10q-25 15 -15 35z" />
    <glyph glyph-name="Rcaron" unicode="&#x158;" horiz-adv-x="1378" 
d="M733 1561h-78q-22 0 -32 6t-21 24l-184 275q-10 14 -3 24.5t21 10.5h70q22 0 45 -23l141 -192l144 192q16 23 45 23h69q13 0 20.5 -10.5t-1.5 -24.5l-185 -275q-18 -30 -51 -30zM324 735h473q152 0 239.5 79t87.5 208q0 126 -87.5 203.5t-239.5 77.5h-473v-568zM1284 0
h-94q-18 0 -28 7.5t-21 25.5l-336 577h-481v-575q0 -13 -11 -24t-24 -11h-78q-13 0 -24 11t-11 24v1364q0 13 11 24t24 11h582q222 0 352.5 -112t130.5 -294q0 -58 -15.5 -112.5t-50 -110t-101 -100t-157.5 -68.5l355 -602q8 -11 1 -23t-24 -12z" />
    <glyph glyph-name="rcaron" unicode="&#x159;" horiz-adv-x="620" 
d="M389 1077h-78q-22 0 -32 6.5t-21 24.5l-184 274q-10 14 -3 24.5t21 10.5h70q23 0 45 -22l141 -193l144 193q16 22 45 22h69q13 0 20.5 -10.5t-1.5 -24.5l-185 -274q-19 -31 -51 -31zM537 952h32q13 0 23 -9t10 -25v-74q0 -16 -9.5 -24.5t-21.5 -8.5h-34
q-118 0 -189.5 -78t-71.5 -248v-452q0 -13 -10 -23t-22 -10h-74q-14 0 -24.5 11t-10.5 24v880q0 13 10.5 24t24.5 11h68q12 0 22 -11t10 -24v-141q29 74 99.5 126t167.5 52z" />
    <glyph glyph-name="Sacute" unicode="&#x15a;" horiz-adv-x="1226" 
d="M725 1901h100q17 0 24 -12.5t-1 -24.5l-154 -275q-16 -28 -41 -28h-55q-37 0 -25 34l107 275q9 31 45 31zM616 1460q156 0 282 -52t208 -142q30 -30 -2 -58l-43 -37q-29 -25 -60 3q-162 159 -387 159q-148 0 -251 -70t-103 -190q0 -82 51 -140.5t185 -92.5l315 -86
q177 -47 259.5 -138t82.5 -233q0 -78 -33 -149.5t-97 -130.5t-170 -94.5t-239 -35.5q-196 0 -335 71.5t-207 168.5q-13 13 -12 31t18 28l51 39q35 21 61 -12q70 -85 179 -141t252 -56q180 0 279 80.5t99 190.5q0 98 -58.5 157.5t-188.5 94.5l-316 84q-327 86 -327 356
q0 175 144 285t363 110z" />
    <glyph glyph-name="sacute" unicode="&#x15b;" horiz-adv-x="913" 
d="M582 1417h100q17 0 24 -12.5t-1 -24.5l-154 -274q-16 -29 -41 -29h-55q-37 0 -25 35l107 274q9 31 45 31zM457 977q108 0 198.5 -33t147.5 -86q12 -11 13 -26.5t-11 -26.5l-35 -35q-28 -25 -59 0q-122 90 -265 90q-101 0 -159 -43.5t-58 -109.5q0 -55 37.5 -88t122.5 -50
l178 -34q146 -30 215.5 -93.5t69.5 -177.5q0 -52 -24 -102.5t-69.5 -93.5t-122.5 -69t-173 -26q-228 0 -375 136q-46 46 -8 75l35 31q26 21 57 -6q132 -119 297 -119q111 0 174.5 49t63.5 115t-47.5 104.5t-147.5 57.5l-166 30q-262 47 -262 254q0 123 106.5 200t266.5 77z
" />
    <glyph glyph-name="Scircumflex" unicode="&#x15c;" horiz-adv-x="1226" 
d="M573 1901h78q29 0 51 -31l185 -273q9 -13 1.5 -24.5t-20.5 -11.5h-69q-24 0 -45 24l-144 193l-141 -193q-21 -24 -45 -24h-70q-14 0 -21 11.5t3 24.5l184 273q11 18 21 24.5t32 6.5zM616 1460q156 0 282 -52t208 -142q30 -30 -2 -58l-43 -37q-29 -25 -60 3
q-162 159 -387 159q-148 0 -251 -70t-103 -190q0 -82 51 -140.5t185 -92.5l315 -86q177 -47 259.5 -138t82.5 -233q0 -78 -33 -149.5t-97 -130.5t-170 -94.5t-239 -35.5q-196 0 -335 71.5t-207 168.5q-13 13 -12 31t18 28l51 39q35 21 61 -12q70 -85 179 -141t252 -56
q180 0 279 80.5t99 190.5q0 98 -58.5 157.5t-188.5 94.5l-316 84q-327 86 -327 356q0 175 144 285t363 110z" />
    <glyph glyph-name="scircumflex" unicode="&#x15d;" horiz-adv-x="913" 
d="M430 1417h78q29 0 51 -31l184 -272q9 -14 2 -25.5t-20 -11.5h-70q-16 0 -24.5 5.5t-20.5 19.5l-143 192l-141 -192q-12 -14 -20.5 -19.5t-24.5 -5.5h-70q-14 0 -21 11.5t3 25.5l184 272q11 18 21 24.5t32 6.5zM457 977q108 0 198.5 -33t147.5 -86q12 -11 13 -26.5
t-11 -26.5l-35 -35q-28 -25 -59 0q-122 90 -265 90q-101 0 -159 -43.5t-58 -109.5q0 -55 37.5 -88t122.5 -50l178 -34q146 -30 215.5 -93.5t69.5 -177.5q0 -52 -24 -102.5t-69.5 -93.5t-122.5 -69t-173 -26q-228 0 -375 136q-46 46 -8 75l35 31q26 21 57 -6
q132 -119 297 -119q111 0 174.5 49t63.5 115t-47.5 104.5t-147.5 57.5l-166 30q-262 47 -262 254q0 123 106.5 200t266.5 77z" />
    <glyph glyph-name="Scedilla" unicode="&#x15e;" horiz-adv-x="1226" 
d="M516 -303h-63q-15 0 -22 9.5t-1 27.5l96 243q-161 16 -280.5 85t-173.5 151q-13 13 -12 31t18 28l51 39q35 21 61 -12q70 -85 179 -141t252 -56q180 0 279 80.5t99 190.5q0 98 -58.5 157.5t-188.5 94.5l-316 84q-327 86 -327 356q0 175 144 285t363 110q156 0 282 -52
t208 -142q30 -30 -2 -58l-43 -37q-29 -25 -60 3q-162 159 -387 159q-148 0 -251 -70t-103 -190q0 -82 51 -140.5t185 -92.5l315 -86q177 -47 259.5 -138t82.5 -233q0 -73 -29.5 -141.5t-87 -126.5t-153 -96t-215.5 -44l-113 -249q-13 -29 -39 -29z" />
    <glyph glyph-name="scedilla" unicode="&#x15f;" horiz-adv-x="913" 
d="M379 -303h-64q-14 0 -21 9.5t-1 27.5l96 243q-183 19 -301 132q-46 46 -8 75l35 31q26 21 57 -6q132 -119 297 -119q111 0 174.5 49t63.5 115t-47.5 104.5t-147.5 57.5l-166 30q-262 47 -262 254q0 123 106.5 200t266.5 77q108 0 198.5 -33t147.5 -86q12 -11 13 -26.5
t-11 -26.5l-35 -35q-28 -25 -59 0q-122 90 -265 90q-101 0 -159 -43.5t-58 -109.5q0 -55 37.5 -88t122.5 -50l178 -34q146 -30 215.5 -93.5t69.5 -177.5q0 -100 -84 -185.5t-238 -101.5l-112 -251q-13 -29 -39 -29z" />
    <glyph glyph-name="Scaron" unicode="&#x160;" horiz-adv-x="1226" 
d="M651 1561h-78q-22 0 -32 6t-21 24l-184 275q-10 14 -3 24.5t21 10.5h70q22 0 45 -23l141 -192l144 192q16 23 45 23h69q13 0 20.5 -10.5t-1.5 -24.5l-185 -275q-18 -30 -51 -30zM616 1460q156 0 282 -52t208 -142q30 -30 -2 -58l-43 -37q-29 -25 -60 3q-162 159 -387 159
q-148 0 -251 -70t-103 -190q0 -82 51 -140.5t185 -92.5l315 -86q177 -47 259.5 -138t82.5 -233q0 -78 -33 -149.5t-97 -130.5t-170 -94.5t-239 -35.5q-196 0 -335 71.5t-207 168.5q-13 13 -12 31t18 28l51 39q35 21 61 -12q70 -85 179 -141t252 -56q180 0 279 80.5t99 190.5
q0 98 -58.5 157.5t-188.5 94.5l-316 84q-327 86 -327 356q0 175 144 285t363 110z" />
    <glyph glyph-name="scaron" unicode="&#x161;" horiz-adv-x="913" 
d="M508 1077h-78q-22 0 -32 6.5t-21 24.5l-184 274q-10 14 -3 24.5t21 10.5h70q23 0 45 -22l141 -193l143 193q16 22 45 22h70q13 0 20 -10.5t-2 -24.5l-184 -274q-19 -31 -51 -31zM457 977q108 0 198.5 -33t147.5 -86q12 -11 13 -26.5t-11 -26.5l-35 -35q-28 -25 -59 0
q-122 90 -265 90q-101 0 -159 -43.5t-58 -109.5q0 -55 37.5 -88t122.5 -50l178 -34q146 -30 215.5 -93.5t69.5 -177.5q0 -52 -24 -102.5t-69.5 -93.5t-122.5 -69t-173 -26q-228 0 -375 136q-46 46 -8 75l35 31q26 21 57 -6q132 -119 297 -119q111 0 174.5 49t63.5 115
t-47.5 104.5t-147.5 57.5l-166 30q-262 47 -262 254q0 123 106.5 200t266.5 77z" />
    <glyph glyph-name="Tcommaaccent" unicode="&#x162;" horiz-adv-x="1255" 
d="M25 1333v66q0 15 9 25t25 10h1137q14 0 24.5 -11t10.5 -24v-66q0 -13 -10.5 -24t-24.5 -11h-496v-1263q0 -14 -10.5 -24.5t-23.5 -10.5h-80q-14 0 -24.5 11t-10.5 24v1263h-492q-16 0 -25 10t-9 25zM514 -479l74 141q-38 14 -60 44.5t-22 70.5q0 51 34 85t87 34
q48 0 84.5 -36t36.5 -89q0 -113 -144 -273q-10 -10 -14 -13.5t-12 -9t-15.5 -5t-15.5 5.5l-19 10q-24 15 -14 35z" />
    <glyph glyph-name="tcommaaccent" unicode="&#x163;" horiz-adv-x="716" 
d="M199 264v565h-148q-13 0 -23 10.5t-10 24.5v51q0 14 10 24.5t23 10.5h148v310q0 14 10.5 24t23.5 10h74q13 0 23 -10t10 -24v-310h305q13 0 23 -10.5t10 -24.5v-51q0 -14 -10 -24.5t-23 -10.5h-305v-542q0 -83 43.5 -127.5t112.5 -44.5q61 0 114 30q39 26 60 -4l26 -41
q10 -12 7.5 -25.5t-13.5 -21.5q-82 -67 -215 -67q-54 0 -102 16.5t-87.5 49t-63 87.5t-23.5 125zM293 -479l74 141q-38 14 -60 44.5t-22 70.5q0 51 33.5 85t87.5 34q48 0 84 -36t36 -89q0 -114 -143 -273q-10 -10 -14 -13.5t-12 -9t-15.5 -5t-15.5 5.5l-19 10q-24 15 -14 35
z" />
    <glyph glyph-name="Tcaron" unicode="&#x164;" horiz-adv-x="1255" 
d="M670 1561h-78q-22 0 -32 6t-21 24l-185 275q-10 14 -2.5 24.5t21.5 10.5h69q22 0 45 -23l142 -192l143 192q16 23 45 23h70q13 0 20 -10.5t-2 -24.5l-184 -275q-18 -30 -51 -30zM25 1333v66q0 15 9 25t25 10h1137q14 0 24.5 -11t10.5 -24v-66q0 -13 -10.5 -24t-24.5 -11
h-496v-1263q0 -14 -10.5 -24.5t-23.5 -10.5h-80q-14 0 -24.5 11t-10.5 24v1263h-492q-16 0 -25 10t-9 25z" />
    <glyph glyph-name="tcaron" unicode="&#x165;" horiz-adv-x="716" 
d="M526 1247l74 142q-37 14 -59.5 44t-22.5 70q0 51 35 85t86 34q50 0 85.5 -36t35.5 -89q0 -112 -144 -272q-1 -1 -7 -7.5t-8 -8t-7 -5.5t-7.5 -4.5t-7.5 -2t-9 0t-9 4.5l-18 10q-28 16 -17 35zM199 264v565h-148q-13 0 -23 10.5t-10 24.5v51q0 14 10 24.5t23 10.5h148v310
q0 14 10.5 24t23.5 10h74q13 0 23 -10t10 -24v-310h305q13 0 23 -10.5t10 -24.5v-51q0 -14 -10 -24.5t-23 -10.5h-305v-542q0 -83 43.5 -127.5t112.5 -44.5q61 0 114 30q39 26 60 -4l26 -41q10 -12 7.5 -25.5t-13.5 -21.5q-82 -67 -215 -67q-54 0 -102 16.5t-87.5 49
t-63 87.5t-23.5 125z" />
    <glyph glyph-name="Tbar" unicode="&#x166;" horiz-adv-x="1271" 
d="M709 690v-655q0 -13 -10.5 -24t-24.5 -11h-80q-14 0 -24.5 11t-10.5 24v655h-242q-13 0 -23.5 10.5t-10.5 24.5v53q0 14 10.5 24.5t23.5 10.5h242v485h-491q-16 0 -25.5 10.5t-9.5 24.5v66q0 14 9.5 24.5t25.5 10.5h1136q14 0 24.5 -11t10.5 -24v-66q0 -13 -10.5 -24
t-24.5 -11h-495v-485h243q14 0 24.5 -10.5t10.5 -24.5v-53q0 -13 -10.5 -24t-24.5 -11h-243z" />
    <glyph glyph-name="tbar" unicode="&#x167;" horiz-adv-x="731" 
d="M700 53q-82 -67 -215 -67q-54 0 -102.5 16.5t-88.5 49t-63.5 87.5t-23.5 125v262h-146q-13 0 -23.5 10.5t-10.5 24.5v33q0 14 10.5 24.5t23.5 10.5h146v200h-146q-13 0 -23.5 10.5t-10.5 24.5v51q0 14 10.5 24.5t23.5 10.5h146v310q0 13 10.5 23.5t24.5 10.5h73
q14 0 24.5 -10.5t10.5 -23.5v-310h303q13 0 24 -11t11 -24v-51q0 -14 -11 -24.5t-24 -10.5h-303v-200h303q13 0 24 -10.5t11 -24.5v-33q0 -13 -11 -24t-24 -11h-303v-239q0 -83 43.5 -127.5t112.5 -44.5q62 0 115 30q38 26 59 -4l27 -41q8 -12 5.5 -26t-12.5 -21z" />
    <glyph glyph-name="Utilde" unicode="&#x168;" horiz-adv-x="1435" 
d="M854 1591q-43 0 -143.5 35t-120.5 35q-28 0 -43.5 -11.5t-34.5 -39.5q-14 -24 -47 -4l-27 18q-16 10 -16 29q0 43 48.5 90t115.5 47q41 0 142 -35t122 -35q28 0 42 10.5t36 41.5q18 27 47 4l26 -19q17 -10 17 -28q0 -44 -48.5 -91t-115.5 -47zM1274 1399v-910
q0 -161 -72.5 -279t-197 -177.5t-285.5 -59.5q-246 0 -401.5 136.5t-155.5 377.5v912q0 13 11 24t24 11h75q16 0 25.5 -10.5t9.5 -24.5v-912q0 -178 116 -280.5t296 -102.5q178 0 294.5 102.5t116.5 280.5v912q0 14 9.5 24.5t25.5 10.5h74q13 0 24 -11t11 -24z" />
    <glyph glyph-name="utilde" unicode="&#x169;" horiz-adv-x="1146" 
d="M705 1108q-43 0 -144 35t-121 35q-27 0 -43 -11.5t-35 -40.5q-14 -24 -47 -4l-26 19q-17 10 -17 28q0 44 48.5 91t115.5 47q41 0 142 -35t122 -35q28 0 42.5 10t35.5 41q18 27 47 4l27 -18q16 -10 16 -29q0 -44 -48 -90.5t-115 -46.5zM264 915v-505q0 -149 76 -231.5
t221 -82.5q143 0 226 87.5t83 226.5v505q0 13 11 24t24 11h72q13 0 24 -11t11 -24v-880q0 -13 -11 -24t-24 -11h-72q-14 0 -24.5 10t-10.5 23v133q-42 -89 -132 -141t-212 -52q-187 0 -295 112.5t-108 299.5v530q0 13 10.5 24t22.5 11h73q13 0 24 -11t11 -24z" />
    <glyph glyph-name="Umacron" unicode="&#x16a;" horiz-adv-x="1435" 
d="M952 1606h-469q-13 0 -23.5 10t-10.5 24v50q0 14 10.5 24t23.5 10h469q14 0 24.5 -10.5t10.5 -23.5v-50q0 -13 -10.5 -23.5t-24.5 -10.5zM1274 1399v-910q0 -161 -72.5 -279t-197 -177.5t-285.5 -59.5q-246 0 -401.5 136.5t-155.5 377.5v912q0 13 11 24t24 11h75
q16 0 25.5 -10.5t9.5 -24.5v-912q0 -178 116 -280.5t296 -102.5q178 0 294.5 102.5t116.5 280.5v912q0 14 9.5 24.5t25.5 10.5h74q13 0 24 -11t11 -24z" />
    <glyph glyph-name="umacron" unicode="&#x16b;" horiz-adv-x="1146" 
d="M803 1122h-469q-14 0 -24.5 11t-10.5 24v49q0 14 10.5 24.5t24.5 10.5h469q13 0 24 -10.5t11 -24.5v-49q0 -13 -11 -24t-24 -11zM264 915v-505q0 -149 76 -231.5t221 -82.5q143 0 226 87.5t83 226.5v505q0 13 11 24t24 11h72q13 0 24 -11t11 -24v-880q0 -13 -11 -24
t-24 -11h-72q-14 0 -24.5 10t-10.5 23v133q-42 -89 -132 -141t-212 -52q-187 0 -295 112.5t-108 299.5v530q0 13 10.5 24t22.5 11h73q13 0 24 -11t11 -24z" />
    <glyph glyph-name="Ubreve" unicode="&#x16c;" horiz-adv-x="1435" 
d="M719 1550q-115 0 -180.5 60.5t-65.5 163.5v24q0 21 21 21h84q6 0 11 -6t5 -11v-18q0 -58 34.5 -88.5t90.5 -30.5q58 0 93.5 30.5t35.5 88.5v18q0 5 5.5 11t12.5 6h82q21 0 21 -21v-24q0 -103 -67 -163.5t-183 -60.5zM1274 1399v-910q0 -161 -72.5 -279t-197 -177.5
t-285.5 -59.5q-246 0 -401.5 136.5t-155.5 377.5v912q0 13 11 24t24 11h75q16 0 25.5 -10.5t9.5 -24.5v-912q0 -178 116 -280.5t296 -102.5q178 0 294.5 102.5t116.5 280.5v912q0 14 9.5 24.5t25.5 10.5h74q13 0 24 -11t11 -24z" />
    <glyph glyph-name="ubreve" unicode="&#x16d;" horiz-adv-x="1146" 
d="M569 1067q-115 0 -180 60t-65 163v25q0 20 20 20h84q6 0 11 -5.5t5 -10.5v-19q0 -58 34.5 -88t90.5 -30q58 0 93.5 30t35.5 88v19q0 5 6 10.5t13 5.5h82q20 0 20 -20v-25q0 -103 -66.5 -163t-183.5 -60zM264 915v-505q0 -149 76 -231.5t221 -82.5q143 0 226 87.5
t83 226.5v505q0 13 11 24t24 11h72q13 0 24 -11t11 -24v-880q0 -13 -11 -24t-24 -11h-72q-14 0 -24.5 10t-10.5 23v133q-42 -89 -132 -141t-212 -52q-187 0 -295 112.5t-108 299.5v530q0 13 10.5 24t22.5 11h73q13 0 24 -11t11 -24z" />
    <glyph glyph-name="Uring" unicode="&#x16e;" horiz-adv-x="1435" 
d="M954 1755q0 -97 -69 -161t-166 -64t-165.5 64t-68.5 161t68.5 161t165.5 64t166 -64t69 -161zM842 1755q0 55 -34 91t-89 36t-89 -36t-34 -91t34 -91t89 -36t89 36t34 91zM1274 1399v-910q0 -161 -72.5 -279t-197 -177.5t-285.5 -59.5q-246 0 -401.5 136.5t-155.5 377.5
v912q0 13 11 24t24 11h75q16 0 25.5 -10.5t9.5 -24.5v-912q0 -178 116 -280.5t296 -102.5q178 0 294.5 102.5t116.5 280.5v912q0 14 9.5 24.5t25.5 10.5h74q13 0 24 -11t11 -24z" />
    <glyph glyph-name="uring" unicode="&#x16f;" horiz-adv-x="1146" 
d="M805 1272q0 -97 -69.5 -161t-166.5 -64t-165 64t-68 161t68 161t165 64t166.5 -64t69.5 -161zM692 1272q0 55 -34 91t-89 36t-89 -36t-34 -91t34 -91t89 -36t89 36t34 91zM264 915v-505q0 -149 76 -231.5t221 -82.5q143 0 226 87.5t83 226.5v505q0 13 11 24t24 11h72
q13 0 24 -11t11 -24v-880q0 -13 -11 -24t-24 -11h-72q-14 0 -24.5 10t-10.5 23v133q-42 -89 -132 -141t-212 -52q-187 0 -295 112.5t-108 299.5v530q0 13 10.5 24t22.5 11h73q13 0 24 -11t11 -24z" />
    <glyph glyph-name="Uhungarumlaut" unicode="&#x170;" horiz-adv-x="1435" 
d="M668 1901h100q17 0 24 -12t1 -25l-156 -275q-6 -11 -9.5 -16t-11 -8.5t-18.5 -3.5h-55q-36 0 -27 34l107 275q9 31 45 31zM999 1901h101q16 0 22.5 -12.5t-0.5 -24.5l-155 -275q-12 -28 -39 -28h-56q-35 0 -26 34l106 275q9 31 47 31zM1274 1399v-910q0 -161 -72.5 -279
t-197 -177.5t-285.5 -59.5q-246 0 -401.5 136.5t-155.5 377.5v912q0 13 11 24t24 11h75q16 0 25.5 -10.5t9.5 -24.5v-912q0 -178 116 -280.5t296 -102.5q178 0 294.5 102.5t116.5 280.5v912q0 14 9.5 24.5t25.5 10.5h74q13 0 24 -11t11 -24z" />
    <glyph glyph-name="uhungarumlaut" unicode="&#x171;" horiz-adv-x="1146" 
d="M518 1417h100q17 0 24 -12t1 -25l-156 -274q-7 -12 -9.5 -16.5t-10 -8.5t-18.5 -4h-56q-35 0 -26 35l106 274q9 31 45 31zM850 1417h100q16 0 23 -12.5t0 -24.5l-156 -274q-13 -29 -39 -29h-55q-36 0 -27 35l107 274q9 31 47 31zM264 915v-505q0 -149 76 -231.5
t221 -82.5q143 0 226 87.5t83 226.5v505q0 13 11 24t24 11h72q13 0 24 -11t11 -24v-880q0 -13 -11 -24t-24 -11h-72q-14 0 -24.5 10t-10.5 23v133q-42 -89 -132 -141t-212 -52q-187 0 -295 112.5t-108 299.5v530q0 13 10.5 24t22.5 11h73q13 0 24 -11t11 -24z" />
    <glyph glyph-name="Uogonek" unicode="&#x172;" horiz-adv-x="1435" 
d="M903 -362q-85 0 -132.5 41.5t-47.5 111.5q0 86 92 189q-54 -7 -96 -7q-246 0 -401.5 136.5t-155.5 377.5v912q0 13 11 24t24 11h75q16 0 25.5 -10.5t9.5 -24.5v-912q0 -178 116 -280.5t296 -102.5q178 0 294.5 102.5t116.5 280.5v912q0 14 9.5 24.5t25.5 10.5h74
q13 0 24 -11t11 -24v-910q0 -179 -85 -300.5t-237 -176.5q-96 -126 -96 -196q0 -76 86 -76q28 0 62 6q13 5 20.5 -3.5t3.5 -25.5l-4 -34q0 -24 -38 -34.5t-83 -10.5z" />
    <glyph glyph-name="uogonek" unicode="&#x173;" horiz-adv-x="1146" 
d="M907 -408q-85 0 -132.5 42t-47.5 112q0 68 51 137.5t115 118.5q-23 10 -23 31v133q-42 -89 -132 -141t-212 -52q-187 0 -295 112.5t-108 299.5v530q0 13 10.5 24t22.5 11h73q13 0 24 -11t11 -24v-505q0 -149 76 -231.5t221 -82.5q143 0 226 87.5t83 226.5v505q0 13 11 24
t24 11h72q13 0 24 -11t11 -24v-880q0 -13 -9.5 -24t-17.5 -9q-125 -152 -125 -231q0 -76 86 -76q27 0 62 6q13 5 20.5 -3.5t3.5 -25.5l-4 -34q0 -24 -38.5 -35t-82.5 -11z" />
    <glyph glyph-name="Wcircumflex" unicode="&#x174;" horiz-adv-x="2066" 
d="M997 1901h78q29 0 51 -31l185 -273q9 -13 1.5 -24.5t-20.5 -11.5h-69q-24 0 -45 24l-144 193l-141 -193q-21 -24 -45 -24h-70q-14 0 -21 11.5t3 24.5l184 273q11 18 21 24.5t32 6.5zM2034 1395l-412 -1362q-4 -16 -17.5 -24.5t-27.5 -8.5h-117q-36 0 -45 33l-381 1190
l-379 -1190q-9 -33 -45 -33h-121q-36 0 -45 33l-411 1362q-5 17 3 28t25 11h91q27 0 36 -33l365 -1235l393 1235q9 33 41 33h96q32 0 41 -33l394 -1227l362 1227q9 33 37 33h88q38 0 29 -39z" />
    <glyph glyph-name="wcircumflex" unicode="&#x175;" horiz-adv-x="1525" 
d="M727 1417h78q29 0 51 -31l184 -272q9 -14 2 -25.5t-20 -11.5h-70q-16 0 -24.5 5.5t-20.5 19.5l-143 192l-141 -192q-12 -14 -20.5 -19.5t-24.5 -5.5h-70q-14 0 -21.5 11.5t2.5 25.5l185 272q11 18 21 24.5t32 6.5zM764 774l-232 -741q-9 -33 -45 -33h-106q-36 0 -45 33
l-297 878q-6 17 2 28t25 11h88q32 0 41 -28l241 -766l240 762q8 32 39 32h102q31 0 39 -32l240 -762l241 764q9 30 41 30h84q14 0 22.5 -11.5t2.5 -27.5l-295 -878q-9 -33 -45 -33h-109q-36 0 -45 33z" />
    <glyph glyph-name="Ycircumflex" unicode="&#x176;" horiz-adv-x="1265" 
d="M594 1901h78q29 0 51 -31l184 -273q9 -13 2 -24.5t-20 -11.5h-70q-24 0 -45 24l-143 193l-142 -193q-21 -24 -45 -24h-69q-14 0 -21.5 11.5t2.5 24.5l185 273q11 18 21 24.5t32 6.5zM559 35v577l-522 785q-10 12 -3.5 24.5t19.5 12.5h111q24 0 45 -27l422 -641h8l422 641
q1 1 6 7t6.5 7.5t5.5 5t7 4.5t7.5 2t10.5 1h110q13 0 19.5 -12t-2.5 -25l-524 -785v-577q0 -13 -10.5 -24t-24.5 -11h-78q-14 0 -24.5 11t-10.5 24z" />
    <glyph glyph-name="ycircumflex" unicode="&#x177;" horiz-adv-x="964" 
d="M446 1417h78q29 0 51 -31l185 -272q9 -14 1.5 -25.5t-20.5 -11.5h-69q-16 0 -24.5 5.5t-20.5 19.5l-144 192l-141 -192q-12 -14 -20.5 -19.5t-24.5 -5.5h-70q-14 0 -21 11.5t3 25.5l184 272q11 18 21 24.5t32 6.5zM217 -451q-142 0 -225 89q-23 23 2 51l33 37q23 30 57 0
q63 -54 133 -54q108 0 162 142l70 186h-39q-30 0 -39 27l-324 884q-5 14 2.5 26.5t24.5 12.5h94q27 0 39 -32l285 -801l276 801q12 32 41 32h90q17 0 24 -11t1 -28l-414 -1140q-81 -222 -293 -222z" />
    <glyph glyph-name="Ydieresis" unicode="&#x178;" horiz-adv-x="1265" 
d="M348 1667q0 45 33 79t80 34q44 0 77 -34t33 -79q0 -44 -33 -77.5t-77 -33.5q-47 0 -80 33t-33 78zM692 1667q0 44 33.5 78.5t77.5 34.5q46 0 79 -34t33 -79t-32.5 -78t-79.5 -33q-44 0 -77.5 33.5t-33.5 77.5zM559 35v577l-522 785q-10 12 -3.5 24.5t19.5 12.5h111
q24 0 45 -27l422 -641h8l422 641q1 1 6 7t6.5 7.5t5.5 5t7 4.5t7.5 2t10.5 1h110q13 0 19.5 -12t-2.5 -25l-524 -785v-577q0 -13 -10.5 -24t-24.5 -11h-78q-14 0 -24.5 11t-10.5 24z" />
    <glyph glyph-name="Zacute" unicode="&#x179;" horiz-adv-x="1214" 
d="M735 1901h101q17 0 23.5 -12.5t-1.5 -24.5l-153 -275q-16 -28 -41 -28h-56q-36 0 -24 34l106 275q9 31 45 31zM1143 0h-1077q-16 0 -25.5 10.5t-9.5 24.5v51q0 29 28 57l885 1157h-819q-13 0 -24 11t-11 24v64q0 13 11 24t24 11h975q33 0 33 -35v-56q0 -32 -29 -65
l-873 -1145h912q13 0 23 -10.5t10 -24.5v-63q0 -14 -10 -24.5t-23 -10.5z" />
    <glyph glyph-name="zacute" unicode="&#x17a;" horiz-adv-x="905" 
d="M563 1417h101q17 0 23.5 -12.5t-1.5 -24.5l-154 -274q-16 -29 -40 -29h-56q-36 0 -24 35l106 274q9 31 45 31zM811 823l-578 -700h586q13 0 23 -10.5t10 -24.5v-53q0 -14 -10 -24.5t-23 -10.5h-735q-14 0 -24.5 11t-10.5 24v49q0 26 19 45l577 698h-528q-13 0 -24 10.5
t-11 24.5v53q0 13 11 24t24 11h678q13 0 23.5 -10.5t10.5 -24.5v-49q0 -25 -18 -43z" />
    <glyph glyph-name="Zdotaccent" unicode="&#x17b;" horiz-adv-x="1214" 
d="M621 1583q-50 0 -85.5 36t-35.5 87q0 49 35.5 84t85.5 35t85 -35t35 -84q0 -51 -35 -87t-85 -36zM1143 0h-1077q-16 0 -25.5 10.5t-9.5 24.5v51q0 29 28 57l885 1157h-819q-13 0 -24 11t-11 24v64q0 13 11 24t24 11h975q33 0 33 -35v-56q0 -32 -29 -65l-873 -1145h912
q13 0 23 -10.5t10 -24.5v-63q0 -14 -10 -24.5t-23 -10.5z" />
    <glyph glyph-name="zdotaccent" unicode="&#x17c;" horiz-adv-x="905" 
d="M455 1098q-50 0 -85.5 36t-35.5 87q0 49 35.5 83.5t85.5 34.5t85 -34.5t35 -83.5q0 -51 -35 -87t-85 -36zM811 823l-578 -700h586q13 0 23 -10.5t10 -24.5v-53q0 -14 -10 -24.5t-23 -10.5h-735q-14 0 -24.5 11t-10.5 24v49q0 26 19 45l577 698h-528q-13 0 -24 10.5
t-11 24.5v53q0 13 11 24t24 11h678q13 0 23.5 -10.5t10.5 -24.5v-49q0 -25 -18 -43z" />
    <glyph glyph-name="Zcaron" unicode="&#x17d;" horiz-adv-x="1214" 
d="M662 1561h-78q-23 0 -33 6t-21 24l-184 275q-10 14 -2.5 24.5t21.5 10.5h69q22 0 45 -23l142 -192l143 192q16 23 45 23h70q13 0 20 -10.5t-2 -24.5l-184 -275q-18 -30 -51 -30zM1143 0h-1077q-16 0 -25.5 10.5t-9.5 24.5v51q0 29 28 57l885 1157h-819q-13 0 -24 11
t-11 24v64q0 13 11 24t24 11h975q33 0 33 -35v-56q0 -32 -29 -65l-873 -1145h912q13 0 23 -10.5t10 -24.5v-63q0 -14 -10 -24.5t-23 -10.5z" />
    <glyph glyph-name="zcaron" unicode="&#x17e;" horiz-adv-x="905" 
d="M489 1077h-77q-22 0 -32.5 6.5t-21.5 24.5l-184 274q-10 14 -2.5 24.5t21.5 10.5h69q23 0 45 -22l142 -193l143 193q16 22 45 22h70q13 0 20 -10.5t-2 -24.5l-184 -274q-19 -31 -52 -31zM811 823l-578 -700h586q13 0 23 -10.5t10 -24.5v-53q0 -14 -10 -24.5t-23 -10.5
h-735q-14 0 -24.5 11t-10.5 24v49q0 26 19 45l577 698h-528q-13 0 -24 10.5t-11 24.5v53q0 13 11 24t24 11h678q13 0 23.5 -10.5t10.5 -24.5v-49q0 -25 -18 -43z" />
    <glyph glyph-name="longs" unicode="&#x17f;" horiz-adv-x="503" 
d="M346 1165v-1130q0 -14 -10 -24.5t-23 -10.5h-73q-14 0 -24.5 11t-10.5 24v794h-148q-13 0 -22.5 10.5t-9.5 24.5v51q0 14 9.5 24.5t22.5 10.5h148v219q0 143 85 219t204 76q125 0 208 -65q11 -8 13 -22t-8 -25l-33 -43q-24 -24 -60 -4q-52 32 -114 32q-67 0 -110.5 -47
t-43.5 -125z" />
    <glyph glyph-name="florin" unicode="&#x192;" horiz-adv-x="874" 
d="M324 731v438q0 143 84.5 219t203.5 76q124 0 207 -65q11 -8 12.5 -22t-8.5 -25l-30 -43q-20 -26 -60 -4q-52 32 -115 32q-68 0 -110.5 -46.5t-42.5 -125.5v-434h211q13 0 23 -10.5t10 -24.5v-51q0 -14 -10 -24.5t-23 -10.5h-211v-700q0 -73 -25 -131t-66.5 -93t-92 -53
t-105.5 -18q-125 0 -209 66q-11 8 -12.5 22t8.5 25l33 45q23 23 57 2q57 -33 115 -33q69 0 112.5 47t43.5 125v696h-179q-13 0 -22.5 10.5t-9.5 24.5v51q0 14 9.5 24.5t22.5 10.5h179z" />
    <glyph glyph-name="Scommaaccent" unicode="&#x218;" horiz-adv-x="1226" 
d="M616 1460q156 0 282 -52t208 -142q30 -30 -2 -58l-43 -37q-29 -25 -60 3q-162 159 -387 159q-148 0 -251 -70t-103 -190q0 -82 51 -140.5t185 -92.5l315 -86q177 -47 259.5 -138t82.5 -233q0 -78 -33 -149.5t-97 -130.5t-170 -94.5t-239 -35.5q-196 0 -335 71.5
t-207 168.5q-13 13 -12 31t18 28l51 39q35 21 61 -12q70 -85 179 -141t252 -56q180 0 279 80.5t99 190.5q0 98 -58.5 157.5t-188.5 94.5l-316 84q-327 86 -327 356q0 175 144 285t363 110zM494 -479l73 141q-38 14 -60 44.5t-22 70.5q0 51 33.5 85t87.5 34q48 0 84.5 -36
t36.5 -89q0 -114 -143 -273q-10 -10 -14 -13.5t-12.5 -9t-16 -5t-15.5 5.5l-18 10q-24 15 -14 35z" />
    <glyph glyph-name="scommaaccent" unicode="&#x219;" horiz-adv-x="913" 
d="M457 977q108 0 198.5 -33t147.5 -86q12 -11 13 -26.5t-11 -26.5l-35 -35q-28 -25 -59 0q-122 90 -265 90q-101 0 -159 -43.5t-58 -109.5q0 -55 37.5 -88t122.5 -50l178 -34q146 -30 215.5 -93.5t69.5 -177.5q0 -52 -24 -102.5t-69.5 -93.5t-122.5 -69t-173 -26
q-228 0 -375 136q-46 46 -8 75l35 31q26 21 57 -6q132 -119 297 -119q111 0 174.5 49t63.5 115t-47.5 104.5t-147.5 57.5l-166 30q-262 47 -262 254q0 123 106.5 200t266.5 77zM356 -479l74 141q-38 14 -60 44.5t-22 70.5q0 51 34 85t87 34q48 0 84.5 -36t36.5 -89
q0 -113 -144 -273q-10 -10 -14 -13.5t-12 -9t-15.5 -5t-15.5 5.5l-18 10q-25 15 -15 35z" />
    <glyph glyph-name="uni021A" unicode="&#x21a;" horiz-adv-x="1255" 
d="M25 1333v66q0 15 9 25t25 10h1137q14 0 24.5 -11t10.5 -24v-66q0 -13 -10.5 -24t-24.5 -11h-496v-1263q0 -14 -10.5 -24.5t-23.5 -10.5h-80q-14 0 -24.5 11t-10.5 24v1263h-492q-16 0 -25 10t-9 25zM518 -479l74 141q-38 14 -60 44.5t-22 70.5q0 51 34 85t87 34
q48 0 84.5 -36t36.5 -89q0 -113 -144 -273q-10 -10 -14 -13.5t-12 -9t-15.5 -5t-15.5 5.5l-19 10q-24 15 -14 35z" />
    <glyph glyph-name="uni021B" unicode="&#x21b;" horiz-adv-x="716" 
d="M199 264v565h-148q-13 0 -23 10.5t-10 24.5v51q0 14 10 24.5t23 10.5h148v310q0 14 10.5 24t23.5 10h74q13 0 23 -10t10 -24v-310h305q13 0 23 -10.5t10 -24.5v-51q0 -14 -10 -24.5t-23 -10.5h-305v-542q0 -83 43.5 -127.5t112.5 -44.5q61 0 114 30q39 26 60 -4l26 -41
q10 -12 7.5 -25.5t-13.5 -21.5q-82 -67 -215 -67q-54 0 -102 16.5t-87.5 49t-63 87.5t-23.5 125zM293 -479l74 141q-38 14 -60 44.5t-22 70.5q0 51 33.5 85t87.5 34q48 0 84 -36t36 -89q0 -114 -143 -273q-10 -10 -14 -13.5t-12 -9t-15.5 -5t-15.5 5.5l-19 10q-24 15 -14 35
z" />
    <glyph glyph-name="dotlessj" unicode="&#x237;" horiz-adv-x="411" 
d="M168 950h72q13 0 23.5 -10.5t10.5 -24.5v-1065q0 -100 -42.5 -170t-105.5 -100.5t-138 -30.5q-132 0 -207 66q-11 8 -12.5 21t8.5 24l28 41q22 32 54 10q58 -37 118 -37q69 0 112.5 45.5t43.5 128.5v1067q0 13 10.5 24t24.5 11z" />
    <glyph glyph-name="apostrophe" unicode="&#x2bc;" horiz-adv-x="464" 
d="M117 1026l84 170q-37 14 -60.5 48.5t-23.5 78.5q0 57 39 97t98 40q56 0 95.5 -41t39.5 -102q0 -78 -51.5 -164t-114.5 -154q-40 -40 -65 -24l-23 12q-28 16 -18 39z" />
    <glyph glyph-name="circumflex" unicode="&#x2c6;" horiz-adv-x="671" 
d="M297 1417h78q29 0 51 -31l184 -272q9 -14 2 -25.5t-20 -11.5h-70q-16 0 -24.5 5.5t-20.5 19.5l-143 192l-141 -192q-22 -25 -46 -25h-69q-14 0 -21.5 11.5t2.5 25.5l185 272q11 18 21 24.5t32 6.5z" />
    <glyph glyph-name="caron" unicode="&#x2c7;" horiz-adv-x="671" 
d="M375 1077h-78q-22 0 -32 6.5t-21 24.5l-185 274q-10 14 -2.5 24.5t21.5 10.5h69q24 0 46 -22l141 -193l143 193q16 22 45 22h70q13 0 20 -10.5t-2 -24.5l-184 -274q-19 -31 -51 -31z" />
    <glyph glyph-name="breve" unicode="&#x2d8;" horiz-adv-x="614" 
d="M305 1067q-115 0 -180.5 60t-65.5 163v25q0 20 21 20h84q6 0 11 -5.5t5 -10.5v-19q0 -58 34.5 -88t90.5 -30q58 0 93.5 30t35.5 88v19q0 5 6 10.5t13 5.5h82q20 0 20 -20v-25q0 -103 -66.5 -163t-183.5 -60z" />
    <glyph glyph-name="dotaccent" unicode="&#x2d9;" horiz-adv-x="339" 
d="M170 1098q-50 0 -85.5 36t-35.5 87q0 49 35.5 83.5t85.5 34.5t85.5 -34.5t35.5 -83.5q0 -51 -35.5 -87t-85.5 -36z" />
    <glyph glyph-name="ring" unicode="&#x2da;" horiz-adv-x="585" 
d="M528 1274q0 -97 -69 -161t-166 -64t-165.5 64t-68.5 161t68.5 161t165.5 64t166 -64t69 -161zM416 1274q0 55 -34 91t-89 36t-89 -36t-34 -91t34 -91t89 -36t89 36t34 91z" />
    <glyph glyph-name="ogonek" unicode="&#x2db;" horiz-adv-x="516" 
d="M102 -254q0 45 22 91t57 83.5t66 64t62 46.5l47 -4l9 -21q-129 -152 -129 -235q0 -76 86 -76q26 0 61 6q13 5 21 -3.5t4 -25.5l-5 -34q0 -24 -38 -35t-82 -11q-85 0 -133 42t-48 112z" />
    <glyph glyph-name="tilde" unicode="&#x2dc;" horiz-adv-x="681" 
d="M475 1108q-43 0 -143.5 35t-120.5 35q-27 0 -43 -11.5t-35 -40.5q-14 -24 -47 -4l-27 19q-16 10 -16 28q0 44 48.5 91t115.5 47q41 0 142 -35t122 -35q28 0 42.5 10t35.5 41q18 27 47 4l27 -18q16 -10 16 -29q0 -43 -48.5 -90t-115.5 -47z" />
    <glyph glyph-name="hungarumlaut" unicode="&#x2dd;" horiz-adv-x="718" 
d="M238 1417h100q17 0 23.5 -12t0.5 -25l-155 -274q-6 -11 -9.5 -16t-11 -9t-18.5 -4h-55q-36 0 -27 35l107 274q9 31 45 31zM569 1417h101q16 0 22.5 -12.5t-0.5 -24.5l-155 -274q-13 -29 -39 -29h-56q-35 0 -26 35l106 274q9 31 47 31z" />
    <glyph glyph-name="pi" unicode="&#x3c0;" horiz-adv-x="1349" 
d="M797 264v565h-451v-794q0 -14 -10 -24.5t-23 -10.5h-73q-14 0 -24.5 11t-10.5 24v794h-146q-13 0 -23.5 10.5t-10.5 24.5v51q0 14 10.5 24.5t23.5 10.5h1182q13 0 24 -11t11 -24v-51q0 -14 -11 -24.5t-24 -10.5h-303v-542q0 -83 43.5 -127.5t112.5 -44.5q61 0 114 30
q39 26 60 -4l26 -41q8 -12 6 -26t-12 -21q-82 -67 -215 -67q-54 0 -102 16.5t-87.5 49t-63 87.5t-23.5 125z" />
    <glyph glyph-name="Wgrave" unicode="&#x1e80;" horiz-adv-x="2066" 
d="M827 1901h101q36 0 45 -31l106 -275q9 -34 -26 -34h-56q-16 0 -23 6t-16 22l-155 275q-6 13 0.5 25t23.5 12zM2034 1395l-412 -1362q-4 -16 -17.5 -24.5t-27.5 -8.5h-117q-36 0 -45 33l-381 1190l-379 -1190q-9 -33 -45 -33h-121q-36 0 -45 33l-411 1362q-5 17 3 28
t25 11h91q27 0 36 -33l365 -1235l393 1235q9 33 41 33h96q32 0 41 -33l394 -1227l362 1227q9 33 37 33h88q38 0 29 -39z" />
    <glyph glyph-name="wgrave" unicode="&#x1e81;" horiz-adv-x="1525" 
d="M559 1417h100q37 0 46 -31l106 -274q9 -35 -27 -35h-55q-16 0 -23 6.5t-16 22.5l-155 274q-6 13 0.5 25t23.5 12zM764 774l-232 -741q-9 -33 -45 -33h-106q-36 0 -45 33l-297 878q-6 17 2 28t25 11h88q32 0 41 -28l241 -766l240 762q8 32 39 32h102q31 0 39 -32l240 -762
l241 764q9 30 41 30h84q14 0 22.5 -11.5t2.5 -27.5l-295 -878q-9 -33 -45 -33h-109q-36 0 -45 33z" />
    <glyph glyph-name="Wacute" unicode="&#x1e82;" horiz-adv-x="2066" 
d="M1149 1901h100q17 0 24 -12.5t-1 -24.5l-154 -275q-16 -28 -41 -28h-55q-37 0 -25 34l107 275q9 31 45 31zM2034 1395l-412 -1362q-4 -16 -17.5 -24.5t-27.5 -8.5h-117q-36 0 -45 33l-381 1190l-379 -1190q-9 -33 -45 -33h-121q-36 0 -45 33l-411 1362q-5 17 3 28t25 11
h91q27 0 36 -33l365 -1235l393 1235q9 33 41 33h96q32 0 41 -33l394 -1227l362 1227q9 33 37 33h88q38 0 29 -39z" />
    <glyph glyph-name="wacute" unicode="&#x1e83;" horiz-adv-x="1525" 
d="M881 1417h100q17 0 24 -12.5t-1 -24.5l-154 -274q-16 -29 -41 -29h-55q-37 0 -25 35l107 274q9 31 45 31zM764 774l-232 -741q-9 -33 -45 -33h-106q-36 0 -45 33l-297 878q-6 17 2 28t25 11h88q32 0 41 -28l241 -766l240 762q8 32 39 32h102q31 0 39 -32l240 -762
l241 764q9 30 41 30h84q14 0 22.5 -11.5t2.5 -27.5l-295 -878q-9 -33 -45 -33h-109q-36 0 -45 33z" />
    <glyph glyph-name="Wdieresis" unicode="&#x1e84;" horiz-adv-x="2066" 
d="M750 1667q0 45 33 79t79 34q44 0 77.5 -34.5t33.5 -78.5t-33.5 -77.5t-77.5 -33.5q-47 0 -79.5 33t-32.5 78zM1094 1667q0 45 33 79t77 34q47 0 80 -34t33 -79t-33 -78t-80 -33q-44 0 -77 33.5t-33 77.5zM2034 1395l-412 -1362q-4 -16 -17.5 -24.5t-27.5 -8.5h-117
q-36 0 -45 33l-381 1190l-379 -1190q-9 -33 -45 -33h-121q-36 0 -45 33l-411 1362q-5 17 3 28t25 11h91q27 0 36 -33l365 -1235l393 1235q9 33 41 33h96q32 0 41 -33l394 -1227l362 1227q9 33 37 33h88q38 0 29 -39z" />
    <glyph glyph-name="wdieresis" unicode="&#x1e85;" horiz-adv-x="1525" 
d="M483 1184q0 45 33 78.5t80 33.5q44 0 77.5 -34t33.5 -78t-33.5 -77.5t-77.5 -33.5q-47 0 -80 33t-33 78zM827 1184q0 44 33.5 78t77.5 34q47 0 80 -33.5t33 -78.5t-33 -78t-80 -33q-44 0 -77.5 33.5t-33.5 77.5zM764 774l-232 -741q-9 -33 -45 -33h-106q-36 0 -45 33
l-297 878q-6 17 2 28t25 11h88q32 0 41 -28l241 -766l240 762q8 32 39 32h102q31 0 39 -32l240 -762l241 764q9 30 41 30h84q14 0 22.5 -11.5t2.5 -27.5l-295 -878q-9 -33 -45 -33h-109q-36 0 -45 33z" />
    <glyph glyph-name="Ygrave" unicode="&#x1ef2;" horiz-adv-x="1265" 
d="M426 1901h100q36 0 45 -31l107 -275q9 -34 -27 -34h-55q-16 0 -23 6t-16 22l-156 275q-6 13 1 25t24 12zM559 35v577l-522 785q-10 12 -3.5 24.5t19.5 12.5h111q24 0 45 -27l422 -641h8l422 641q1 1 6 7t6.5 7.5t5.5 5t7 4.5t7.5 2t10.5 1h110q13 0 19.5 -12t-2.5 -25
l-524 -785v-577q0 -13 -10.5 -24t-24.5 -11h-78q-14 0 -24.5 11t-10.5 24z" />
    <glyph glyph-name="ygrave" unicode="&#x1ef3;" horiz-adv-x="964" 
d="M276 1417h101q36 0 45 -31l106 -274q9 -35 -26 -35h-56q-16 0 -22.5 6t-15.5 23l-156 274q-6 13 0.5 25t23.5 12zM217 -451q-142 0 -225 89q-23 23 2 51l33 37q23 30 57 0q63 -54 133 -54q108 0 162 142l70 186h-39q-30 0 -39 27l-324 884q-5 14 2.5 26.5t24.5 12.5h94
q27 0 39 -32l285 -801l276 801q12 32 41 32h90q17 0 24 -11t1 -28l-414 -1140q-81 -222 -293 -222z" />
    <glyph glyph-name="endash" unicode="&#x2013;" horiz-adv-x="1189" 
d="M1032 475h-874q-14 0 -24.5 10.5t-10.5 24.5v76q0 14 10.5 24.5t24.5 10.5h874q14 0 24.5 -10.5t10.5 -24.5v-76q0 -14 -10.5 -24.5t-24.5 -10.5z" />
    <glyph glyph-name="emdash" unicode="&#x2014;" horiz-adv-x="2080" 
d="M1923 475h-1765q-14 0 -24.5 10.5t-10.5 24.5v76q0 14 10.5 24.5t24.5 10.5h1765q16 0 25.5 -10.5t9.5 -24.5v-76q0 -14 -9.5 -24.5t-25.5 -10.5z" />
    <glyph glyph-name="quoteleft" unicode="&#x2018;" horiz-adv-x="468" 
d="M358 1405l-90 -170q42 -14 68 -48.5t26 -78.5q0 -59 -39.5 -98t-97.5 -39q-56 0 -96.5 41t-40.5 102q0 77 52 163t116 155q14 14 21.5 19.5t20 9.5t21.5 -5l21 -10q28 -18 18 -41z" />
    <glyph glyph-name="quoteright" unicode="&#x2019;" horiz-adv-x="464" 
d="M119 1026l88 170q-42 18 -67 52t-25 77q0 57 38.5 96t98.5 39q56 0 96.5 -41t40.5 -102q0 -77 -52 -163t-116 -155q-40 -40 -65 -24l-19 12q-30 15 -18 39z" />
    <glyph glyph-name="quotesinglbase" unicode="&#x201a;" horiz-adv-x="493" 
d="M115 -188l88 170q-41 14 -66.5 48.5t-25.5 78.5q0 60 38.5 98.5t98.5 38.5q56 0 95.5 -41.5t39.5 -102.5q0 -78 -51.5 -163.5t-114.5 -153.5q-14 -14 -22 -20t-21 -10t-22 5l-21 11q-15 12 -18.5 19t2.5 22z" />
    <glyph glyph-name="quotedblleft" unicode="&#x201c;" horiz-adv-x="811" 
d="M700 1405l-90 -170q42 -14 68.5 -48.5t26.5 -78.5q0 -59 -40 -98t-98 -39q-56 0 -96.5 41t-40.5 102q0 77 52 163t116 155q14 14 22 20t21 9.5t23 -5.5l18 -10q31 -19 18 -41zM358 1405l-90 -170q42 -14 68 -48.5t26 -78.5q0 -59 -39.5 -98t-97.5 -39q-56 0 -96.5 41
t-40.5 102q0 77 52 163t116 155q14 14 21.5 19.5t20 9.5t21.5 -5l21 -10q28 -18 18 -41z" />
    <glyph glyph-name="quotedblright" unicode="&#x201d;" horiz-adv-x="806" 
d="M119 1026l88 170q-42 18 -67 52t-25 77q0 57 38.5 96t98.5 39q56 0 96.5 -41t40.5 -102q0 -77 -52 -163t-116 -155q-40 -40 -65 -24l-19 12q-30 15 -18 39zM461 1026l90 170q-43 18 -68.5 52t-25.5 77q0 57 40 96t97 39q56 0 96.5 -41t40.5 -102q0 -77 -52 -163
t-116 -155q-14 -14 -21.5 -19.5t-20.5 -9.5t-23 5l-19 12q-28 16 -18 39z" />
    <glyph glyph-name="quotedblbase" unicode="&#x201e;" horiz-adv-x="837" 
d="M115 -188l88 170q-41 14 -66.5 48.5t-25.5 78.5q0 60 38.5 98.5t98.5 38.5q56 0 96.5 -41.5t40.5 -102.5q0 -135 -168 -317q-14 -14 -21.5 -19.5t-20.5 -10t-23 4.5l-19 11q-28 15 -18 41zM457 -188l90 170q-42 14 -68 48.5t-26 78.5q0 59 39.5 98t97.5 39
q56 0 96.5 -41.5t40.5 -102.5q0 -135 -168 -317q-14 -14 -21.5 -19.5t-20 -10t-21.5 4.5l-21 11q-15 12 -19 19t1 22z" />
    <glyph glyph-name="dagger" unicode="&#x2020;" horiz-adv-x="872" 
d="M500 973v-637q0 -33 -33 -33h-64q-12 0 -22 10t-10 23v637h-250q-33 0 -33 33v55q0 33 33 33h250v307q0 13 10 23t22 10h64q33 0 33 -33v-307h252q32 0 32 -33v-55q0 -33 -32 -33h-252z" />
    <glyph glyph-name="daggerdbl" unicode="&#x2021;" horiz-adv-x="872" 
d="M500 422v-389q0 -33 -33 -33h-64q-12 0 -22 10t-10 23v389h-252q-12 0 -22.5 10t-10.5 23v55q0 13 10.5 23t22.5 10h252v348h-252q-12 0 -22.5 10t-10.5 23v55q0 13 10.5 23t22.5 10h252v389q0 13 10 23t22 10h64q33 0 33 -33v-389h252q32 0 32 -33v-55q0 -33 -32 -33
h-252v-348h252q32 0 32 -33v-55q0 -33 -32 -33h-252z" />
    <glyph glyph-name="bullet" unicode="&#x2022;" horiz-adv-x="694" 
d="M348 545q-78 0 -133 54t-55 132t55 132.5t133 54.5q75 0 131 -55t56 -132t-56 -131.5t-131 -54.5z" />
    <glyph glyph-name="ellipsis" unicode="&#x2026;" horiz-adv-x="1531" 
d="M240 -27q-55 0 -94.5 40t-39.5 96t39.5 95.5t94.5 39.5q57 0 96 -39.5t39 -95.5t-39 -96t-96 -40zM766 -27q-55 0 -95 40t-40 96q0 55 39.5 95t95.5 40q55 0 94 -39.5t39 -95.5t-39 -96t-94 -40zM1290 -27q-55 0 -94 40t-39 96t39 95.5t94 39.5q56 0 95.5 -40t39.5 -95
q0 -56 -40 -96t-95 -40z" />
    <glyph glyph-name="perthousand" unicode="&#x2030;" horiz-adv-x="2123" 
d="M340 1448q125 0 197.5 -103t72.5 -268q0 -167 -72.5 -271t-197.5 -104q-126 0 -196 103t-70 272q0 166 70 268.5t196 102.5zM276 0h-30q-23 0 -30 16t7 39l920 1346q20 33 55 33h31q23 0 29.5 -16.5t-7.5 -39.5l-919 -1345q-20 -33 -56 -33zM182 1075q0 -136 44 -207
t114 -71t115 71t45 207q0 139 -44.5 209t-115.5 70q-70 0 -114 -70t-44 -209zM1784 729q125 0 197.5 -103t72.5 -268q0 -168 -72 -271t-198 -103q-123 0 -194.5 103t-71.5 271q0 165 71 268t195 103zM1126 729q125 0 198 -103.5t73 -267.5q0 -168 -72.5 -271t-198.5 -103
q-125 0 -195.5 102.5t-70.5 271.5q0 166 70 268.5t196 102.5zM1626 354q0 -136 44 -207t114 -71q71 0 116.5 71t45.5 207q0 139 -45 209t-117 70q-70 0 -114 -70t-44 -209zM969 354q0 -137 43.5 -207.5t113.5 -70.5t115 71t45 207q0 139 -44.5 209t-115.5 70
q-70 0 -113.5 -69.5t-43.5 -209.5z" />
    <glyph glyph-name="guilsinglleft" unicode="&#x2039;" horiz-adv-x="561" 
d="M430 61h-80q-35 0 -51 29l-195 375q-15 27 0 57l195 375q13 29 51 29h80q14 0 21 -11t0 -24l-195 -397l195 -398q6 -12 -1 -23.5t-20 -11.5z" />
    <glyph glyph-name="guilsinglright" unicode="&#x203a;" horiz-adv-x="559" 
d="M457 465l-197 -375q-13 -29 -51 -29h-80q-12 0 -19 11.5t-1 23.5l194 398l-194 397q-6 13 1 24t19 11h80q38 0 51 -29l197 -375q15 -30 0 -57z" />
    <glyph glyph-name="fraction" unicode="&#x2044;" horiz-adv-x="221" 
d="M623 1378l-930 -1339q-12 -20 -23 -29.5t-30 -9.5h-23q-23 0 -30 17.5t7 37.5l930 1340q24 39 54 39h22q23 0 30 -18t-7 -38z" />
    <glyph glyph-name="zerosuperior" unicode="&#x2070;" horiz-adv-x="657" 
d="M61 1382q0 165 72 269t197 104q126 0 196 -103.5t70 -269.5q0 -168 -70.5 -270t-195.5 -102t-197 102.5t-72 269.5zM170 1380q0 -136 45 -208t115 -72t113.5 71.5t43.5 208.5q0 140 -43.5 211.5t-113.5 71.5t-115 -72t-45 -211z" />
    <glyph glyph-name="foursuperior" unicode="&#x2074;" horiz-adv-x="645" 
d="M461 1020h-51q-25 0 -25 22v181h-336q-20 0 -20 22v35q0 29 10 43l305 397q15 21 35 21h82q10 0 17 -7t7 -18v-409h111q20 0 20 -25v-35q0 -10 -6 -17t-14 -7h-111v-181q0 -22 -24 -22zM133 1307h252v329z" />
    <glyph glyph-name="fivesuperior" unicode="&#x2075;" horiz-adv-x="624" 
d="M305 1008q-87 0 -153 34.5t-101 87.5q-15 21 10 37l39 29q23 18 39 -10q26 -36 69.5 -61t96.5 -25q71 0 117.5 45t46.5 108q0 67 -45.5 107.5t-114.5 40.5q-68 0 -129 -45q-15 -15 -33 -8l-51 12q-14 6 -14 22l24 336q3 23 25 23h385q23 0 23 -25v-47q0 -24 -23 -24h-326
l-16 -203q71 47 160 47q102 0 171.5 -64t69.5 -168q0 -106 -75 -177.5t-195 -71.5z" />
    <glyph glyph-name="sixsuperior" unicode="&#x2076;" horiz-adv-x="626" 
d="M590 1255q0 -106 -76 -175.5t-192 -69.5q-118 0 -192.5 72t-74.5 188q0 34 7.5 69t22 69t30 64t39 61.5t40.5 54t42 49.5t37 39.5t33 33t22 21.5q10 10 28 10h68q13 0 16.5 -10.5t-4.5 -18.5l-21 -21l-27 -27t-28.5 -29t-32 -33.5t-30.5 -33t-31.5 -36t-26.5 -33
t-24.5 -33t-17.5 -28.5q61 49 151 49q98 0 170 -63.5t72 -168.5zM160 1251q0 -68 46 -111.5t116 -43.5q72 0 116.5 43t44.5 112q0 68 -44.5 111t-116.5 43q-69 0 -115.5 -43.5t-46.5 -110.5z" />
    <glyph glyph-name="sevensuperior" unicode="&#x2077;" horiz-adv-x="559" 
d="M209 1020h-72q-11 0 -15.5 8t1.5 19l295 598h-369q-24 0 -24 26v45q0 11 7 18t17 7h461q10 0 16 -7.5t6 -15.5v-32q0 -18 -10 -41l-286 -605q-9 -20 -27 -20z" />
    <glyph glyph-name="eightsuperior" unicode="&#x2078;" horiz-adv-x="667" 
d="M334 1010q-127 0 -202 60.5t-75 154.5q0 65 41 114.5t105 67.5q-50 20 -81.5 60.5t-31.5 95.5q0 85 69 138.5t175 53.5t175 -53.5t69 -138.5q0 -55 -31 -96t-82 -60q64 -18 104.5 -67.5t40.5 -114.5q0 -94 -75.5 -154.5t-200.5 -60.5zM334 1673q-65 0 -104.5 -33
t-39.5 -81q0 -49 40 -82t104 -33t103.5 33t39.5 82t-39.5 81.5t-103.5 32.5zM334 1360q-76 0 -123 -38t-47 -93q0 -57 47 -95t123 -38t123 38t47 95q0 55 -47 93t-123 38z" />
    <glyph glyph-name="ninesuperior" unicode="&#x2079;" horiz-adv-x="626" 
d="M37 1511q0 106 76.5 176t191.5 70q118 0 192 -72t74 -188q0 -34 -7 -69t-22 -69t-30 -64t-38.5 -61.5t-40 -54t-42.5 -50t-37.5 -39.5t-33.5 -33l-21 -21q-10 -10 -29 -10h-67q-13 0 -17 11t4 18q3 3 24 23.5t31.5 31.5t33 34t36.5 38.5t34 38t33.5 39.5t26.5 35.5
t21 33.5q-61 -49 -151 -49q-98 0 -170 63t-72 168zM467 1516q0 68 -46 111.5t-116 43.5q-72 0 -117 -43t-45 -112q0 -68 45 -111t117 -43q69 0 115.5 43.5t46.5 110.5z" />
    <glyph glyph-name="zeroinferior" unicode="&#x2080;" horiz-adv-x="657" 
d="M61 55q0 165 72 269t197 104q126 0 196 -103.5t70 -269.5q0 -168 -70.5 -270t-195.5 -102t-197 102.5t-72 269.5zM170 53q0 -136 45 -208t115 -72t113.5 71.5t43.5 208.5q0 140 -43.5 211.5t-113.5 71.5t-115 -72t-45 -211z" />
    <glyph glyph-name="oneinferior" unicode="&#x2081;" horiz-adv-x="358" 
d="M31 260v45q0 21 18 21h31q33 0 51 11.5t35 45.5q7 15 14 22t12.5 8t16.5 1h27q22 0 22 -21v-678q0 -22 -25 -22h-53q-22 0 -22 22v527h-109q-18 0 -18 18z" />
    <glyph glyph-name="twoinferior" unicode="&#x2082;" horiz-adv-x="622" 
d="M545 -307h-463q-23 0 -23 20v56q0 15 15 30l215 185q86 72 124 118t38 101q0 58 -40.5 92.5t-99.5 34.5q-114 0 -161 -125q-10 -26 -37 -17l-45 13q-20 6 -17 28q18 82 88.5 137.5t171.5 55.5q105 0 174.5 -59.5t69.5 -155.5q0 -69 -38 -128t-126 -132l-190 -158h344
q10 0 17 -7t7 -15v-52q0 -22 -24 -22z" />
    <glyph glyph-name="threeinferior" unicode="&#x2083;" horiz-adv-x="634" 
d="M315 342q-97 0 -139 -86q-9 -22 -33 -12l-43 16q-22 9 -10 33q26 57 85.5 96t146.5 39q97 0 158 -52t61 -134q0 -54 -28 -96t-77 -62q64 -18 103 -65t39 -113q0 -98 -74 -160.5t-191 -62.5q-122 0 -196 63t-74 162v16q0 17 16 17h70q16 0 16 -17v-16q0 -53 43.5 -96
t122.5 -43q72 0 117 40.5t45 96.5t-41 91.5t-113 35.5h-22q-23 0 -23 22v37q0 25 23 25h22q55 0 89 31t34 79q0 49 -34.5 82t-92.5 33z" />
    <glyph glyph-name="fourinferior" unicode="&#x2084;" horiz-adv-x="645" 
d="M461 -307h-51q-25 0 -25 22v181h-336q-20 0 -20 22v35q0 29 10 43l305 397q15 21 35 21h82q10 0 17 -7t7 -18v-409h111q20 0 20 -25v-35q0 -10 -6 -17t-14 -7h-111v-181q0 -22 -24 -22zM133 -20h252v329z" />
    <glyph glyph-name="fiveinferior" unicode="&#x2085;" horiz-adv-x="624" 
d="M305 -319q-87 0 -153 34.5t-101 87.5q-15 21 10 37l39 29q23 18 39 -10q26 -36 69.5 -61t96.5 -25q71 0 117.5 45t46.5 108q0 67 -45.5 107.5t-114.5 40.5q-68 0 -129 -45q-16 -16 -33 -9l-51 13q-14 6 -14 22l24 336q3 23 25 23h385q23 0 23 -25v-47q0 -11 -6.5 -18
t-16.5 -7h-326l-16 -202q71 47 160 47q102 0 171.5 -64t69.5 -168q0 -106 -75 -177.5t-195 -71.5z" />
    <glyph glyph-name="sixinferior" unicode="&#x2086;" horiz-adv-x="626" 
d="M590 -72q0 -106 -76 -175.5t-192 -69.5q-118 0 -192.5 72t-74.5 188q0 34 7.5 69t22 69t30 64t38.5 61t40.5 54t42.5 49.5t37.5 39.5t32.5 32.5t22 21.5q11 11 28 11h68q13 0 16.5 -11t-4.5 -18l-21 -21l-27 -27t-28.5 -29t-32 -33.5t-30.5 -33t-31.5 -36t-26.5 -33
t-24.5 -33t-17.5 -28.5q61 49 151 49q98 0 170 -63.5t72 -168.5zM160 -76q0 -68 46 -111.5t116 -43.5q72 0 116.5 43t44.5 112q0 68 -44.5 111t-116.5 43q-69 0 -115.5 -43.5t-46.5 -110.5z" />
    <glyph glyph-name="seveninferior" unicode="&#x2087;" horiz-adv-x="559" 
d="M209 -307h-72q-11 0 -15.5 7.5t1.5 18.5l295 598h-369q-24 0 -24 27v45q0 11 7 18t17 7h461q10 0 16 -7.5t6 -15.5v-33q0 -18 -10 -41l-286 -604q-9 -20 -27 -20z" />
    <glyph glyph-name="eightinferior" unicode="&#x2088;" horiz-adv-x="667" 
d="M334 -317q-127 0 -202 60.5t-75 154.5q0 65 41 114.5t105 67.5q-50 20 -81.5 60.5t-31.5 95.5q0 85 69 138.5t175 53.5t175 -53.5t69 -138.5q0 -55 -31 -96t-82 -60q64 -18 104.5 -67.5t40.5 -114.5q0 -94 -75.5 -154.5t-200.5 -60.5zM334 346q-64 0 -104 -33t-40 -82
q0 -48 39.5 -81t104.5 -33q64 0 103.5 32.5t39.5 81.5t-39.5 82t-103.5 33zM334 33q-76 0 -123 -38t-47 -93q0 -57 47 -95t123 -38t123 38t47 95q0 55 -47 93t-123 38z" />
    <glyph glyph-name="nineinferior" unicode="&#x2089;" horiz-adv-x="626" 
d="M37 184q0 106 76.5 176t191.5 70q118 0 192 -72t74 -188q0 -34 -7 -69t-22 -69t-30 -64t-38.5 -61.5t-40 -54t-42.5 -50t-37.5 -39.5t-33.5 -33l-21 -21q-10 -10 -29 -10h-67q-13 0 -17 10.5t4 18.5q3 3 24 23.5t31.5 31.5t33 34t36.5 38.5t34 38t33.5 39.5t26.5 35.5
t21 33.5q-61 -49 -151 -49q-98 0 -170 63t-72 168zM467 188q0 68 -46 112t-116 44q-72 0 -117 -43.5t-45 -112.5q0 -68 45 -110.5t117 -42.5q70 0 116 43t46 110z" />
    <glyph glyph-name="Euro" unicode="&#x20ac;" horiz-adv-x="1386" 
d="M819 -27q-235 0 -388 144t-204 387h-121q-13 0 -23.5 10.5t-10.5 24.5v39q0 14 10 24t24 10h103q-4 23 -4 105q0 81 4 104h-103q-13 0 -23.5 10.5t-10.5 24.5v39q0 14 10.5 24.5t23.5 10.5h121q51 243 204 386.5t388 143.5q156 0 279 -59.5t190 -169.5q7 -12 3 -27.5
t-15 -23.5l-43 -33q-40 -25 -59 6q-135 176 -353 176q-335 0 -434 -399h504q13 0 24 -11t11 -24v-39q0 -14 -11 -24.5t-24 -10.5h-529q-6 -53 -6 -104q0 -53 6 -105h529q14 0 24.5 -10.5t10.5 -23.5v-39q0 -13 -11 -24t-24 -11h-504q103 -400 434 -400q218 0 353 177
q19 31 59 6l43 -33q11 -8 15 -23.5t-3 -27.5q-67 -110 -190 -170t-279 -60z" />
    <glyph glyph-name="litre" unicode="&#x2113;" horiz-adv-x="843" 
d="M508 -27q-135 0 -215 83.5t-80 219.5v236l-82 -49q-28 -15 -43 12l-20 37q-15 26 12 47q38 20 133 82v504q0 151 75.5 233t205.5 82q118 0 190 -77t72 -207q0 -159 -94.5 -299.5t-319.5 -294.5v-285q0 -98 46.5 -151.5t125.5 -53.5q116 0 162 119q5 14 18.5 20t26.5 0
l47 -18q33 -15 25 -45q-28 -95 -105.5 -145t-179.5 -50zM633 1157q0 91 -39 140t-107 49q-67 0 -106 -51.5t-39 -141.5v-438q151 117 221 221.5t70 220.5z" />
    <glyph glyph-name="trademark" unicode="&#x2122;" horiz-adv-x="1789" 
d="M70 1366v39q0 11 8 20t20 9h617q10 0 19 -9t9 -20v-39q0 -12 -8.5 -20.5t-19.5 -8.5h-254v-575q0 -12 -9 -21.5t-20 -9.5h-51q-12 0 -21.5 9.5t-9.5 21.5v575h-252q-28 0 -28 29zM1053 1405l198 -395l197 395q16 29 41 29h110q12 0 21.5 -9t9.5 -20v-643
q0 -12 -9.5 -21.5t-21.5 -9.5h-53q-11 0 -19.5 9.5t-8.5 21.5v553l-205 -404q-12 -28 -41 -28h-49q-29 0 -41 28l-205 404v-553q0 -12 -9.5 -21.5t-21.5 -9.5h-49q-11 0 -20 9.5t-9 21.5v643q0 11 9 20t20 9h115q25 0 41 -29z" />
    <glyph glyph-name="Omega" unicode="&#x2126;" horiz-adv-x="1433" 
d="M717 1460q178 0 320.5 -73.5t223 -203t80.5 -290.5q0 -90 -24.5 -168.5t-62.5 -132.5t-90 -98t-100 -70t-99 -43v-250h262q16 0 25.5 -10.5t9.5 -24.5v-61q0 -14 -9.5 -24.5t-25.5 -10.5h-357q-13 0 -23.5 10.5t-10.5 24.5v387q0 37 32 51q56 23 97 44t87.5 57t75.5 78
t48.5 104t19.5 137q0 104 -41.5 189.5t-110 138.5t-153 81.5t-174.5 28.5t-174.5 -28.5t-153 -81.5t-110 -138.5t-41.5 -189.5q0 -75 19.5 -137t48.5 -104t75 -78t87 -57t97 -44q33 -14 33 -51v-387q0 -13 -11 -24t-24 -11h-356q-16 0 -25.5 10.5t-9.5 24.5v61
q0 14 9.5 24.5t25.5 10.5h262v250q-52 18 -99.5 43.5t-100 69.5t-90.5 97.5t-62.5 132t-24.5 169.5q0 161 80.5 290.5t223.5 203t321 73.5z" />
    <glyph glyph-name="estimated" unicode="&#x212e;" horiz-adv-x="1787" 
d="M1690 705h-1270q-19 0 -19 -25v-352q0 -82 84.5 -150t199 -102.5t222.5 -34.5q156 0 291 52t232 153l3 3q7 8 11 11t11.5 5.5t17.5 2.5h43q10 0 13 -8t-3 -16q-111 -129 -270 -198t-349 -69q-171 0 -322 58.5t-257.5 158.5t-168 238t-61.5 291q0 151 60 286t165.5 234
t257.5 157t326 58q186 0 338.5 -56t253.5 -154.5t158 -229.5t63 -283q0 -12 -9 -21t-21 -9zM401 1069v-283q0 -18 19 -18h977q18 0 18 18v283q0 87 -42.5 152t-116 102.5t-161.5 55.5t-188 18q-75 0 -145 -11t-136.5 -36t-115.5 -62t-79 -93t-30 -126z" />
    <glyph glyph-name="onethird" unicode="&#x2153;" horiz-adv-x="1415" 
d="M1133 1378l-930 -1339q-12 -20 -23 -29.5t-30 -9.5h-23q-23 0 -30 17.5t7 37.5l930 1340q12 20 23 29.5t30 9.5h23q23 0 30 -18t-7 -38zM88 1280v45q0 21 18 21h31q33 0 51 11.5t35 45.5q7 15 14 22t12.5 8t16.5 1h27q22 0 22 -21v-678q0 -22 -24 -22h-53q-23 0 -23 22
v527h-109q-18 0 -18 18zM1081 639q-97 0 -139 -86q-9 -22 -33 -12l-43 16q-22 9 -10 33q26 57 85 96t146 39q97 0 158.5 -52t61.5 -134q0 -54 -28 -96t-77 -62q64 -18 102.5 -65t38.5 -113q0 -98 -73.5 -160.5t-190.5 -62.5q-122 0 -196 63t-74 162v16q0 17 16 17h70
q16 0 16 -17v-16q0 -53 43.5 -96t122.5 -43q72 0 117 40.5t45 96.5t-41 91.5t-113 35.5h-22q-23 0 -23 22v37q0 25 23 25h22q55 0 89 31t34 79q0 49 -34.5 82t-92.5 33z" />
    <glyph glyph-name="twothirds" unicode="&#x2154;" horiz-adv-x="1589" 
d="M578 717h-463q-23 0 -23 20v56q0 16 14 30l216 185q85 71 123 117.5t38 101.5q0 58 -40 92.5t-99 34.5q-115 0 -162 -125q-10 -26 -37 -17l-45 13q-19 5 -16 28q18 82 88.5 137.5t171.5 55.5q105 0 174.5 -59.5t69.5 -155.5q0 -69 -38 -128t-126 -132l-191 -158h345
q10 0 17 -7t7 -15v-52q0 -22 -24 -22zM1307 1378l-930 -1339q-12 -20 -23 -29.5t-30 -9.5h-23q-23 0 -29.5 17.5t7.5 37.5l929 1340q24 39 54 39h22q23 0 30 -18t-7 -38zM1255 639q-97 0 -139 -86q-9 -22 -33 -12l-43 16q-22 9 -10 33q26 57 85.5 96t146.5 39q97 0 158 -52
t61 -134q0 -54 -28 -96t-77 -62q64 -18 103 -65t39 -113q0 -98 -74 -160.5t-191 -62.5q-122 0 -196 63t-74 162v16q0 17 16 17h70q16 0 16 -17v-16q0 -53 43.5 -96t122.5 -43q72 0 117 40.5t45 96.5t-40.5 91.5t-112.5 35.5h-23q-23 0 -23 22v37q0 25 23 25h23q55 0 88.5 31
t33.5 79q0 49 -34.5 82t-92.5 33z" />
    <glyph glyph-name="oneeight" unicode="&#x215b;" horiz-adv-x="1503" 
d="M1141 1378l-930 -1339q-12 -20 -23 -29.5t-30 -9.5h-23q-23 0 -29.5 17.5t7.5 37.5l929 1340q24 39 54 39h22q23 0 30 -18t-7 -38zM82 1280v45q0 21 18 21h31q33 0 51 11.5t35 45.5q7 15 14 22t12.5 8t16.5 1h27q22 0 22 -21v-678q0 -22 -24 -22h-54q-22 0 -22 22v527
h-109q-18 0 -18 18zM1157 -16q-127 0 -201.5 60.5t-74.5 154.5q0 65 40.5 114.5t104.5 67.5q-50 20 -81.5 60.5t-31.5 95.5q0 85 69 138.5t175 53.5t175 -53.5t69 -138.5q0 -55 -31 -96t-82 -60q64 -18 105 -67.5t41 -114.5q0 -94 -76 -154.5t-201 -60.5zM1157 647
q-64 0 -103.5 -33t-39.5 -82t39.5 -81.5t103.5 -32.5t103.5 32.5t39.5 81.5t-39.5 82t-103.5 33zM1157 334q-76 0 -123 -38t-47 -93q0 -57 47 -95t123 -38t123 38t47 95q0 55 -47 93t-123 38z" />
    <glyph glyph-name="threeeights" unicode="&#x215c;" horiz-adv-x="1525" 
d="M1245 1378l-930 -1339q-12 -20 -23 -29.5t-30 -9.5h-22q-23 0 -30 17.5t7 37.5l930 1340q12 20 23 29.5t30 9.5h23q23 0 29.5 -18t-7.5 -38zM348 1366q-97 0 -139 -86q-9 -22 -33 -12l-43 16q-22 9 -10 33q26 57 85 96t146 39q97 0 158 -52t61 -134q0 -54 -27.5 -96
t-76.5 -62q64 -18 102.5 -65t38.5 -113q0 -98 -73.5 -160.5t-190.5 -62.5q-122 0 -196 63t-74 162v16q0 17 16 17h70q16 0 16 -17v-16q0 -53 43.5 -96t122.5 -43q72 0 117 40.5t45 96.5t-41 91.5t-113 35.5h-22q-23 0 -23 22v37q0 25 23 25h22q55 0 89 31t34 79
q0 49 -34.5 82t-92.5 33zM1178 -16q-127 0 -202 60.5t-75 154.5q0 65 41 114.5t105 67.5q-50 20 -81.5 60.5t-31.5 95.5q0 85 69 138.5t175 53.5q105 0 174 -53.5t69 -138.5q0 -55 -30.5 -96t-81.5 -60q64 -18 104.5 -67.5t40.5 -114.5q0 -94 -75.5 -154.5t-200.5 -60.5z
M1178 647q-64 0 -104 -33t-40 -82q0 -48 39.5 -81t104.5 -33q64 0 103.5 32.5t39.5 81.5t-39.5 82t-103.5 33zM1178 334q-76 0 -123 -38t-47 -93q0 -57 47 -95t123 -38t123 38t47 95q0 55 -47 93t-123 38z" />
    <glyph glyph-name="fiveeights" unicode="&#x215d;" horiz-adv-x="1525" 
d="M1245 1376l-930 -1339q-12 -20 -23 -29.5t-30 -9.5h-22q-23 0 -30 17.5t7 37.5l930 1340q12 20 23 29.5t30 9.5h23q23 0 29.5 -18t-7.5 -38zM336 700q-87 0 -153 34.5t-101 88.5q-15 21 10 37l39 29q23 18 39 -10q26 -36 69.5 -61t96.5 -25q71 0 117.5 45t46.5 108
q0 67 -45.5 107.5t-114.5 40.5q-68 0 -129 -45q-16 -16 -33 -9l-51 13q-14 6 -14 22l24 336q3 23 25 23h385q22 0 22 -25v-47q0 -25 -22 -25h-326l-16 -202q71 47 160 47q102 0 171.5 -64t69.5 -168q0 -106 -75.5 -178t-194.5 -72zM1178 -16q-127 0 -202 60.5t-75 154.5
q0 65 41 114.5t105 67.5q-50 20 -81.5 60.5t-31.5 95.5q0 85 69 138.5t175 53.5q105 0 174 -53.5t69 -138.5q0 -55 -30.5 -96t-81.5 -60q64 -18 104.5 -67.5t40.5 -114.5q0 -94 -75.5 -154.5t-200.5 -60.5zM1178 647q-64 0 -104 -33t-40 -82q0 -48 39.5 -81t104.5 -33
q64 0 103.5 32.5t39.5 81.5t-39.5 82t-103.5 33zM1178 334q-76 0 -123 -38t-47 -93q0 -57 47 -95t123 -38t123 38t47 95q0 55 -47 93t-123 38z" />
    <glyph glyph-name="seveneights" unicode="&#x215e;" horiz-adv-x="1427" 
d="M1147 1378l-930 -1339q-12 -20 -23 -29.5t-30 -9.5h-23q-23 0 -29.5 17.5t7.5 37.5l930 1340q12 20 23 29.5t30 9.5h22q23 0 30 -18t-7 -38zM262 713h-72q-11 0 -15.5 7.5t1.5 18.5l295 598h-369q-24 0 -24 27v45q0 11 7 18t17 7h461q10 0 16.5 -7.5t6.5 -15.5v-33
q0 -15 -11 -41l-286 -604q-9 -20 -27 -20zM1079 -16q-127 0 -201.5 60.5t-74.5 154.5q0 65 40.5 114.5t104.5 67.5q-50 20 -81 60.5t-31 95.5q0 85 69 138.5t174 53.5q106 0 175 -53.5t69 -138.5q0 -55 -31 -96t-82 -60q64 -18 105 -67.5t41 -114.5q0 -94 -76 -154.5
t-201 -60.5zM1079 647q-64 0 -103.5 -33t-39.5 -82t39.5 -81.5t103.5 -32.5q65 0 104.5 33t39.5 81q0 49 -40 82t-104 33zM1079 334q-76 0 -123 -38t-47 -93q0 -57 47 -95t123 -38t123 38t47 95q0 55 -47 93t-123 38z" />
    <glyph glyph-name="arrowup" unicode="&#x2191;" horiz-adv-x="1638" 
d="M307 1055l494 448q19 16 35 0l497 -448q25 -22 25 -49v-109q0 -13 -11 -17.5t-24 5.5l-434 399v-1325q0 -13 -10.5 -24t-24.5 -11h-70q-13 0 -23.5 10.5t-10.5 24.5v1325l-435 -397q-13 -10 -23.5 -5.5t-10.5 15.5v109q0 29 26 49z" />
    <glyph glyph-name="arrowdown" unicode="&#x2193;" horiz-adv-x="1638" 
d="M801 -70l-494 451q-26 17 -26 47v109q0 13 10.5 17.5t23.5 -5.5l435 -399v1325q0 13 10 23.5t24 10.5h70q15 0 25 -9t10 -25v-1325l434 401q13 9 24 4.5t11 -16.5v-111q0 -28 -25 -47l-497 -451q-16 -10 -35 0z" />
    <glyph glyph-name="arrowupleft" unicode="&#x2196;" horiz-adv-x="1802" 
d="M377 1391l667 32q38 3 52 -16l78 -76q9 -7 6 -20t-19 -13l-594 -26l985 -983q27 -24 0 -51l-47 -48q-11 -10 -26 -10t-25 10l-983 986l-27 -596q0 -16 -11 -19t-19 6l-78 78q-22 19 -19 53l35 670q0 10 7 16.5t18 6.5z" />
    <glyph glyph-name="arrowupright" unicode="&#x2197;" horiz-adv-x="1802" 
d="M758 1423l667 -32q11 0 18 -6.5t7 -16.5l35 -670q3 -34 -19 -53l-77 -78q-7 -9 -19 -6t-12 19l-27 596l-983 -986q-10 -10 -25 -10t-26 10l-47 48q-10 10 -10 25t10 26l985 983l-594 26q-16 0 -18.5 13t6.5 20l78 76q14 19 51 16z" />
    <glyph glyph-name="arrowdownright" unicode="&#x2198;" horiz-adv-x="1802" 
d="M1417 211l-667 -33q-32 -3 -52 17l-77 75q-9 8 -6.5 20.5t18.5 12.5l594 27l-985 983q-10 11 -10 26t10 25l47 47q27 27 51 0l983 -985l27 596q0 16 11 18.5t19 -6.5l78 -78q22 -22 19 -53l-35 -670q0 -22 -25 -22z" />
    <glyph glyph-name="arrowdownleft" unicode="&#x2199;" horiz-adv-x="1802" 
d="M1053 178l-668 33q-25 0 -25 22l-34 670q-3 32 18 53l78 78q8 9 19.5 6.5t11.5 -18.5l26 -596l983 985q27 27 51 0l48 -47q27 -24 0 -51l-986 -983l594 -27q16 0 19 -12.5t-6 -20.5l-78 -75q-17 -17 -51 -17z" />
    <glyph glyph-name="partialdiff" unicode="&#x2202;" horiz-adv-x="1142" 
d="M567 -27q-208 0 -351.5 144.5t-143.5 359.5q0 211 137 353.5t338 142.5q84 0 172 -36t143 -103q-82 172 -238.5 333t-312.5 265q-13 8 -9.5 20t20.5 12l112 6q25 4 39 -10q42 -30 84.5 -63.5t104 -89.5t114 -115t107.5 -139t94 -161.5t63.5 -182t24.5 -201.5
q0 -233 -141 -384t-357 -151zM215 475q0 -157 99 -264t251 -107t250 107t98 264t-98 264t-250 107t-251 -107t-99 -264z" />
    <glyph glyph-name="increment" unicode="&#x2206;" horiz-adv-x="1323" 
d="M78 141l487 1260q14 33 49 33h95q36 0 47 -33l491 -1260q10 -30 10 -51v-55q0 -15 -9 -25t-25 -10h-1123q-13 0 -23.5 10.5t-10.5 24.5v55q0 27 12 51zM659 1292l-430 -1157h863z" />
    <glyph glyph-name="product" unicode="&#x220f;" horiz-adv-x="1714" 
d="M90 717q0 162 60.5 304.5t163.5 243t244.5 158.5t299.5 58q157 0 298 -58t244 -158.5t163.5 -243t60.5 -304.5q0 -161 -60.5 -303.5t-163.5 -242.5t-244 -158t-298 -58q-158 0 -299.5 58t-244.5 158t-163.5 242.5t-60.5 303.5zM1516 717q0 142 -51.5 267t-139.5 213
t-209.5 138.5t-257.5 50.5t-258 -50.5t-210.5 -138.5t-140.5 -213t-52 -267q0 -189 88.5 -342.5t239.5 -239.5t333 -86q136 0 257.5 50.5t209.5 138.5t139.5 212.5t51.5 266.5zM598 1176h313q160 0 250 -86t90 -209t-90 -209t-250 -86h-219v-307q0 -11 -9 -20t-19 -9h-66
q-10 0 -19.5 9t-9.5 20v868q0 11 9.5 20t19.5 9zM1124 883q0 86 -58 136t-151 50h-223v-377h223q92 0 150.5 52t58.5 139z" />
    <glyph glyph-name="summation" unicode="&#x2211;" horiz-adv-x="1159" 
d="M268 1298l398 -540q16 -22 16 -41t-16 -41l-400 -541h774q14 0 24.5 -10.5t10.5 -24.5v-65q0 -13 -10.5 -24t-24.5 -11h-929q-13 0 -24 11t-11 24v59q0 24 14 41l428 582l-428 581q-14 17 -14 41v60q0 13 11 24t24 11h929q14 0 24.5 -11t10.5 -24v-66q0 -13 -10.5 -24
t-24.5 -11h-772z" />
    <glyph glyph-name="minus" unicode="&#x2212;" horiz-adv-x="1159" 
d="M1028 762v-72q0 -14 -11 -24.5t-24 -10.5h-827q-14 0 -24.5 10.5t-10.5 24.5v72q0 14 10.5 24.5t24.5 10.5h827q13 0 24 -10.5t11 -24.5z" />
    <glyph glyph-name="radical" unicode="&#x221a;" horiz-adv-x="1341" 
d="M739 -244h-108q-31 0 -45 33l-318 756l-196 -92q-14 -7 -27 -2t-18 18l-27 57q-5 13 0 26t18 19l289 134q19 8 36.5 3t23.5 -22l317 -774l485 1583q9 33 43 33h84q17 0 24.5 -11t2.5 -28l-539 -1700q-14 -33 -45 -33z" />
    <glyph glyph-name="infinity" unicode="&#x221e;" horiz-adv-x="1908" 
d="M524 1169q136 0 245.5 -79.5t182.5 -245.5q72 166 183 245.5t247 79.5q73 0 144.5 -27.5t132.5 -81t99 -142.5t38 -201t-38 -201.5t-99 -142.5t-132.5 -81t-144.5 -28q-136 0 -246.5 81t-183.5 247q-73 -167 -183 -247.5t-245 -80.5q-74 0 -145 28t-132 81t-98.5 142.5
t-37.5 201.5t37.5 201t98.5 142.5t132 81t145 27.5zM524 1026q-34 0 -68.5 -9.5t-70.5 -33t-64 -57.5t-45.5 -88.5t-17.5 -120.5q0 -81 26 -143.5t67.5 -96.5t86 -50.5t88.5 -16.5q52 0 95 13t88.5 45t88.5 94.5t83 154.5q-40 93 -82.5 155.5t-88.5 95t-89.5 45.5t-96.5 13z
M1380 410q44 0 88.5 16.5t86.5 50.5t68 96.5t26 143.5q0 66 -17.5 120.5t-45.5 88.5t-64.5 57.5t-71.5 33t-70 9.5q-53 0 -96 -12.5t-88.5 -45.5t-87.5 -95.5t-82 -155.5q40 -93 82 -155t87.5 -94.5t88.5 -45t96 -12.5z" />
    <glyph glyph-name="integral" unicode="&#x222b;" horiz-adv-x="849" 
d="M354 -86v1255q0 143 85.5 219t205.5 76q124 0 207 -65q10 -7 11 -22t-7 -25l-33 -45q-15 -25 -57 -2q-52 32 -115 32q-68 0 -110.5 -46.5t-42.5 -125.5v-1255q0 -143 -85.5 -219t-205.5 -76q-123 0 -207 66q-10 7 -11 22t7 25l33 45q18 26 57 2q54 -33 115 -33
q68 0 110.5 46.5t42.5 125.5z" />
    <glyph glyph-name="approxequal" unicode="&#x2248;" horiz-adv-x="1163" 
d="M866 825q-40 0 -273 36t-278 36q-13 0 -22 -1.5t-19 -9t-13 -10t-16 -17t-16 -17.5q-16 -19 -45 -6l-28 30q-11 6 -17 19.5t-2 23.5q13 46 59.5 83.5t108.5 37.5q42 0 273 -36t278 -36q9 0 16 1t14 4.5t11 5t11.5 8.5t10 9.5t11.5 12.5t12 13q18 24 43 6l29 -29
q26 -19 16 -45q-13 -42 -59 -78.5t-105 -40.5zM866 401q-44 -3 -277.5 33.5t-273.5 36.5q-11 0 -20 -2t-14 -3.5t-14 -9t-11 -9.5t-13 -14t-14 -15q-16 -19 -45 -6l-28 30q-25 16 -19 43q13 46 59.5 82.5t108.5 36.5q42 0 273 -34.5t278 -34.5q8 0 14.5 1t11.5 2t11.5 5
t9 5.5t9.5 8t9 9t10.5 11t10.5 11.5q18 21 43 6l29 -31q26 -17 16 -43q-13 -45 -59 -81.5t-105 -37.5z" />
    <glyph glyph-name="notequal" unicode="&#x2260;" horiz-adv-x="1153" 
d="M651 434v-158q0 -13 -10.5 -22.5t-24.5 -9.5h-79q-14 0 -24.5 9.5t-10.5 22.5v158h-336q-14 0 -24.5 11t-10.5 24v68q0 16 10 25t25 9h336v289h-336q-14 0 -24.5 11t-10.5 24v68q0 13 10.5 23.5t24.5 10.5h336v158q0 13 10.5 23t24.5 10h79q14 0 24.5 -10t10.5 -23v-158
h336q14 0 24.5 -10.5t10.5 -23.5v-68q0 -13 -11 -24t-24 -11h-336v-289h336q15 0 25 -9t10 -25v-68q0 -13 -11 -24t-24 -11h-336z" />
    <glyph glyph-name="lessequal" unicode="&#x2264;" horiz-adv-x="1159" 
d="M1004 469v-84q0 -21 -15 -28t-28 1l-803 342q-43 15 -43 74q0 57 43 72l803 340q13 8 28 2t15 -27v-86q0 -28 -37 -41l-660 -260l660 -264q37 -13 37 -41zM1001 102v-67q0 -14 -10.5 -24.5t-23.5 -10.5h-811q-14 0 -24.5 11t-10.5 24v67q0 14 10.5 24.5t24.5 10.5h811
q13 0 23.5 -10.5t10.5 -24.5z" />
    <glyph glyph-name="greaterequal" unicode="&#x2265;" horiz-adv-x="1159" 
d="M156 385v84q0 28 37 41l659 264l-659 260q-37 13 -37 41v86q0 40 43 25l802 -340q43 -15 43 -72q0 -59 -43 -74l-802 -342q-43 -15 -43 27zM1004 0h-811q-16 0 -25.5 10.5t-9.5 24.5v67q0 14 9.5 24.5t25.5 10.5h811q13 0 23.5 -10.5t10.5 -24.5v-67q0 -14 -10.5 -24.5
t-23.5 -10.5z" />
    <glyph glyph-name="filledbox" unicode="&#x25a0;" horiz-adv-x="1802" 
d="M1587 0h-1372q-12 0 -21.5 9.5t-9.5 21.5v1372q0 12 9.5 21.5t21.5 9.5h1372q12 0 21.5 -9.5t9.5 -21.5v-1372q0 -12 -9.5 -21.5t-21.5 -9.5z" />
    <glyph glyph-name="triagup" unicode="&#x25b2;" horiz-adv-x="1802" 
d="M1710 0h-1618q-11 0 -15.5 8t1.5 19l807 1380q6 11 16.5 11t16.5 -11l806 -1380q6 -11 1.5 -19t-15.5 -8z" />
    <glyph glyph-name="uni25B6" unicode="&#x25b6;" horiz-adv-x="1802" 
d="M229 -92v1618q0 11 8.5 15.5t18.5 -1.5l1380 -807q10 -6 10 -16.5t-10 -16.5l-1380 -806q-10 -6 -18.5 -1.5t-8.5 15.5z" />
    <glyph glyph-name="triagdn" unicode="&#x25bc;" horiz-adv-x="1802" 
d="M885 27l-807 1380q-6 11 -1.5 19t15.5 8h1618q11 0 15.5 -8t-1.5 -19l-806 -1380q-6 -11 -16.5 -11t-16.5 11z" />
    <glyph glyph-name="uni25C0" unicode="&#x25c0;" horiz-adv-x="1802" 
d="M164 733l1380 807q10 6 18.5 1.5t8.5 -15.5v-1618q0 -11 -8.5 -15.5t-18.5 1.5l-1380 806q-10 6 -10 16.5t10 16.5z" />
    <glyph glyph-name="lozenge" unicode="&#x25ca;" horiz-adv-x="1966" 
d="M1874 694l-866 -868q-22 -22 -45 0l-869 868q-22 22 0 45l869 869q23 22 45 0l866 -869q22 -23 0 -45z" />
    <glyph glyph-name="uni2B24" unicode="&#x2b24;" horiz-adv-x="1802" 
d="M1618 717q0 -145 -57 -278t-153 -229t-229 -153t-278 -57t-278 57t-229 153t-153 229t-57 278t57 278t153 229t229 153t278 57t278 -57t229 -153t153 -229t57 -278z" />
    <glyph glyph-name="logo.01" unicode="&#xe00f;" horiz-adv-x="2476" 
d="M1171 -332q-158 71 -307.5 166.5t-289 223t-243.5 267.5t-166.5 309t-62.5 339q0 153 55 292.5t154 243.5q185 191 482 191q249 0 454 -176q193 172 445 172q139 0 261.5 -49t213.5 -144q98 -103 152.5 -242.5t54.5 -291.5q0 -146 -45.5 -289.5t-125.5 -267t-184 -237
t-226.5 -207.5t-245.5 -168.5t-249 -131.5q-37 -17 -63.5 -17t-63.5 17z" />
    <glyph glyph-name="commaaccent" unicode="&#xf6c3;" horiz-adv-x="489" 
d="M141 -479l74 141q-38 14 -60 44.5t-22 70.5q0 51 33.5 85t87.5 34q48 0 84.5 -36t36.5 -89q0 -113 -144 -273q-10 -10 -14 -13.5t-12 -9t-15.5 -5t-15.5 5.5l-18 10q-25 15 -15 35z" />
    <glyph glyph-name="NULL" horiz-adv-x="0" 
 />
    <glyph glyph-name="apostrophemod" horiz-adv-x="1030" 
d="M420 1063l74 141q-37 14 -59.5 44.5t-22.5 70.5q0 51 34.5 85t85.5 34q50 0 85.5 -36t35.5 -89q0 -114 -143 -273l-5.5 -5.5l-6 -6t-5.5 -5t-6 -4.5t-5.5 -3.5t-6 -2.5h-6t-7 1.5t-7.5 3.5l-19 10q-27 15 -16 35z" />
    <glyph glyph-name="eight.dnom" horiz-adv-x="667" 
d="M334 -16q-127 0 -202 60.5t-75 154.5q0 65 41 114.5t105 67.5q-50 20 -81.5 60.5t-31.5 95.5q0 85 69 138.5t175 53.5t175 -53.5t69 -138.5q0 -55 -31 -96t-82 -60q64 -18 104.5 -67.5t40.5 -114.5q0 -94 -75.5 -154.5t-200.5 -60.5zM334 647q-64 0 -104 -33t-40 -82
q0 -48 39.5 -81t104.5 -33q64 0 103.5 32.5t39.5 81.5t-39.5 82t-103.5 33zM334 334q-76 0 -123 -38t-47 -93q0 -57 47 -95t123 -38t123 38t47 95q0 55 -47 93t-123 38z" />
    <glyph glyph-name="eight.numr" horiz-adv-x="667" 
d="M334 696q-127 0 -202 60.5t-75 154.5q0 65 41 115t105 68q-50 20 -81.5 60.5t-31.5 94.5q0 85 69.5 139t174.5 54t174.5 -54t69.5 -139q0 -55 -31 -95t-82 -60q64 -17 104.5 -67.5t40.5 -115.5q0 -94 -75.5 -154.5t-200.5 -60.5zM334 1360q-64 0 -104 -33t-40 -82t40 -82
t104 -33t103.5 33t39.5 82t-39.5 82t-103.5 33zM334 1047q-76 0 -123 -38t-47 -94q0 -57 47 -95t123 -38t123 38t47 95q0 56 -47 94t-123 38z" />
    <glyph glyph-name="eight.onum" horiz-adv-x="1230" 
d="M616 -27q-240 0 -388 118t-148 300q0 128 82.5 229t222.5 144q-109 41 -171 127t-62 196q0 163 133 268t331 105t331.5 -105t133.5 -268q0 -110 -63 -196t-172 -127q141 -42 223 -143.5t82 -229.5q0 -182 -148 -300t-387 -118zM616 817q147 0 237.5 78t90.5 188
t-90.5 187.5t-237.5 77.5t-237 -77.5t-90 -187.5t90 -188t237 -78zM616 698q-176 0 -282.5 -88.5t-106.5 -214.5q0 -127 106.5 -215t282.5 -88t283 88t107 215q0 126 -107 214.5t-283 88.5z" />
    <glyph glyph-name="eight.tnum" horiz-adv-x="1216" 
d="M608 -27q-240 0 -388 118t-148 300q0 128 82.5 229t222.5 144q-109 41 -171.5 127t-62.5 196q0 163 133.5 268t331.5 105t331.5 -105t133.5 -268q0 -110 -63 -196t-172 -127q141 -42 223 -143.5t82 -229.5q0 -182 -148 -300t-387 -118zM608 817q147 0 237.5 78t90.5 188
t-90.5 187.5t-237.5 77.5t-237 -77.5t-90 -187.5t90 -188t237 -78zM608 698q-176 0 -282.5 -88.5t-106.5 -214.5q0 -127 106.5 -215t282.5 -88t282.5 88t106.5 215q0 126 -106.5 214.5t-282.5 88.5z" />
    <glyph glyph-name="emdash.alt" horiz-adv-x="2105" 
d="M1935 475h-1765q-14 0 -24.5 10.5t-10.5 24.5v76q0 14 10.5 24.5t24.5 10.5h1765q16 0 25.5 -10.5t9.5 -24.5v-76q0 -14 -9.5 -24.5t-25.5 -10.5z" />
    <glyph glyph-name="endash.alt" horiz-adv-x="1214" 
d="M1044 475h-874q-14 0 -24.5 10.5t-10.5 24.5v76q0 14 10.5 24.5t24.5 10.5h874q14 0 24.5 -10.5t10.5 -24.5v-76q0 -14 -10.5 -24.5t-24.5 -10.5z" />
    <glyph glyph-name="exclamdown.alt" horiz-adv-x="542" 
d="M270 1460q57 0 96.5 -39.5t39.5 -95.5t-39.5 -95.5t-96.5 -39.5q-55 0 -94 39.5t-39 95.5t39 95.5t94 39.5zM342 934l10 -899q0 -13 -11 -24t-24 -11h-90q-13 0 -23.5 10.5t-10.5 24.5l12 899q0 14 9.5 24.5t25.5 10.5h67q13 0 24 -10.5t11 -24.5z" />
    <glyph glyph-name="five.dnom" horiz-adv-x="624" 
d="M305 -12q-87 0 -153 34.5t-101 88.5q-15 21 10 36l39 29q23 18 39 -10q26 -36 69.5 -61t96.5 -25q71 0 117.5 45t46.5 108q0 67 -45.5 107.5t-114.5 40.5q-68 0 -129 -45q-15 -15 -33 -8l-51 12q-14 6 -14 22l24 336q3 23 25 23h385q23 0 23 -25v-47q0 -24 -23 -24h-326
l-16 -203q71 47 160 47q102 0 171.5 -64t69.5 -167q0 -106 -75.5 -178t-194.5 -72z" />
    <glyph glyph-name="five.numr" horiz-adv-x="624" 
d="M305 700q-87 0 -153 34.5t-101 88.5q-15 21 10 37l39 29q23 18 39 -10q26 -36 69.5 -61t96.5 -25q71 0 117.5 45t46.5 108q0 67 -45.5 107.5t-114.5 40.5q-68 0 -129 -45q-16 -16 -33 -9l-51 13q-14 6 -14 22l24 336q3 23 25 23h385q23 0 23 -25v-47q0 -11 -6.5 -18
t-16.5 -7h-326l-16 -202q71 47 160 47q102 0 171.5 -64t69.5 -168q0 -106 -75.5 -178t-194.5 -72z" />
    <glyph glyph-name="five.onum" horiz-adv-x="1148" 
d="M553 -379q-173 0 -299 72t-184 190q-6 14 -1 29.5t17 21.5l55 29q18 9 32 4.5t22 -18.5q119 -203 360 -203q162 0 266.5 105t104.5 251q0 155 -101.5 251t-257.5 96q-164 0 -301 -111q-25 -22 -51 -16l-59 14q-30 9 -27 35l53 676q4 34 37 34h750q16 0 25.5 -10t9.5 -24
v-64q0 -14 -9.5 -24.5t-25.5 -10.5h-670l-41 -487q143 108 334 108q207 0 344 -127.5t137 -330.5q0 -206 -147.5 -348t-372.5 -142z" />
    <glyph glyph-name="five.tnum" horiz-adv-x="1216" 
d="M590 -27q-173 0 -299.5 72.5t-184.5 190.5q-6 14 -0.5 29.5t17.5 21.5l55 28q18 9 31.5 4.5t21.5 -18.5q119 -203 361 -203q162 0 266.5 105t104.5 252q0 155 -101.5 250.5t-257.5 95.5q-164 0 -301 -111q-25 -22 -51 -16l-59 14q-30 9 -27 35l53 676q2 15 11.5 25
t25.5 10h750q16 0 25 -10t9 -25v-64q0 -15 -9 -25t-25 -10h-670l-41 -487q144 109 334 109q207 0 344 -128t137 -331q0 -206 -147.5 -348t-372.5 -142z" />
    <glyph glyph-name="four.dnom" horiz-adv-x="645" 
d="M461 0h-51q-11 0 -18 6.5t-7 16.5v180h-336q-20 0 -20 22v35q0 29 10 43l305 397q15 21 35 21h82q10 0 17 -7t7 -18v-409h111q20 0 20 -25v-35q0 -10 -6 -17t-14 -7h-111v-180q0 -23 -24 -23zM133 287h252v329z" />
    <glyph glyph-name="four.numr" horiz-adv-x="645" 
d="M461 713h-51q-25 0 -25 22v180h-336q-20 0 -20 23v35q0 29 10 43l305 397q15 21 35 21h82q10 0 17 -7t7 -18v-410h111q20 0 20 -24v-35q0 -10 -6 -17.5t-14 -7.5h-111v-180q0 -22 -24 -22zM133 999h252v330z" />
    <glyph glyph-name="four.onum" horiz-adv-x="1169" 
d="M760 72h-686q-14 0 -24.5 10.5t-10.5 23.5v64q0 35 18 59l648 824q19 28 53 28h108q17 0 27 -10t10 -24v-852h189q13 0 23.5 -10.5t10.5 -24.5v-54q0 -14 -10 -24t-24 -10h-189v-389q0 -14 -10 -24.5t-27 -10.5h-71q-13 0 -24 11t-11 24v389zM180 195h580v737z" />
    <glyph glyph-name="four.tnum" horiz-adv-x="1216" 
d="M791 430h-687q-13 0 -23.5 10.5t-10.5 24.5v57q0 36 18 60l647 823q19 29 53 29h107q13 0 24 -11t11 -24v-852h192q14 0 24.5 -10.5t10.5 -24.5v-47q0 -13 -10.5 -24t-24.5 -11h-192v-395q0 -13 -11 -24t-24 -11h-70q-13 0 -23.5 10.5t-10.5 24.5v395zM209 547h582v741z
" />
    <glyph glyph-name="greater.alt" horiz-adv-x="1966" 
d="M1331 1233l449 -496q15 -15 0 -32l-449 -498q-19 -25 -49 -25h-108q-13 0 -18 10.5t5 22.5l400 436h-1325q-14 0 -24.5 10.5t-10.5 24.5v68q0 13 10.5 23.5t24.5 10.5h1325l-398 437q-10 12 -5 23.5t16 11.5h108q28 0 49 -27z" />
    <glyph glyph-name="guillemotleft.alt" horiz-adv-x="966" 
d="M451 266h-80q-36 0 -52 29l-194 375q-15 27 0 57l194 375q12 28 52 28h80q14 0 20.5 -10t-0.5 -24l-195 -398l195 -397q6 -12 -0.5 -23.5t-19.5 -11.5zM799 266h-82q-33 0 -49 29l-197 375q-15 27 0 57l197 375q12 28 49 28h82q13 0 19 -10t-1 -24l-194 -398l194 -397
q6 -12 0 -23.5t-18 -11.5z" />
    <glyph glyph-name="guillemotright.alt" horiz-adv-x="962" 
d="M840 670l-197 -375q-16 -29 -49 -29h-82q-12 0 -18 11.5t0 23.5l194 397l-194 398q-7 14 -1 24t19 10h82q33 0 49 -28l197 -375q15 -30 0 -57zM494 670l-197 -375q-13 -29 -51 -29h-80q-12 0 -19.5 11.5t-1.5 23.5l195 397l-195 398q-6 13 1 23.5t20 10.5h80q39 0 51 -28
l197 -375q15 -30 0 -57z" />
    <glyph glyph-name="guilsinglleft.alt" horiz-adv-x="620" 
d="M451 266h-80q-36 0 -52 29l-194 375q-15 27 0 57l194 375q12 28 52 28h80q14 0 20.5 -10t-0.5 -24l-195 -398l195 -397q6 -12 -0.5 -23.5t-19.5 -11.5z" />
    <glyph glyph-name="guilsinglright.alt" horiz-adv-x="616" 
d="M494 670l-197 -375q-13 -29 -51 -29h-80q-12 0 -19.5 11.5t-1.5 23.5l195 397l-195 398q-6 13 1 23.5t20 10.5h80q39 0 51 -28l197 -375q15 -30 0 -57z" />
    <glyph glyph-name="hyphen.alt" horiz-adv-x="729" 
d="M563 598h-397q-14 0 -24.5 11t-10.5 24v76q0 13 10.5 23.5t24.5 10.5h397q14 0 24.5 -10.5t10.5 -23.5v-76q0 -13 -11 -24t-24 -11z" />
    <glyph glyph-name="i.TRK" horiz-adv-x="411" 
d="M207 1163q-47 0 -81 35t-34 82t34 82t81 35t81 -35t34 -82t-34 -82t-81 -35zM244 0h-74q-14 0 -24.5 11t-10.5 24v880q0 13 10.5 24t24.5 11h74q13 0 22.5 -10.5t9.5 -24.5v-880q0 -14 -9.5 -24.5t-22.5 -10.5z" />
    <glyph glyph-name="less.alt" horiz-adv-x="1966" 
d="M184 737l449 496q21 27 49 27h109q11 0 15.5 -11.5t-5.5 -23.5l-398 -437h1326q13 0 23.5 -10t10.5 -24v-68q0 -14 -10.5 -24.5t-23.5 -10.5h-1326l400 -436q10 -12 5.5 -22.5t-17.5 -10.5h-109q-30 0 -49 25l-449 498q-15 17 0 32z" />
    </font>
</defs>
</svg>
