<svg xmlns="http://www.w3.org/2000/svg" width="104.04" height="81.429" viewBox="0 0 104.04 81.429">
  <g id="Group_5564" data-name="Group 5564" transform="translate(0 0)">
    <path id="Path_5648" data-name="Path 5648" d="M82.924,75.026c-.307,1.44-.569,2.725-.856,4a2.645,2.645,0,0,1-2.939,2.382q-3.821.021-7.643,0c-1.788-.012-2.58-.676-2.989-2.46-.238-1.041-.4-2.105-.718-3.118a1.328,1.328,0,0,0-.944-.772q-3.325-.1-6.654,0a1.333,1.333,0,0,0-.933.8c-.338,1.138-.5,2.326-.785,3.482A2.457,2.457,0,0,1,55.915,81.4q-4.129.051-8.259,0a2.467,2.467,0,0,1-2.564-2.044c-.272-1.074-.522-2.158-.7-3.251-.122-.773-.4-1.129-1.256-1.1-2.094.06-4.191.039-6.286.007-.684-.01-1.047.161-1.157.911-.161,1.094-.432,2.174-.689,3.252a2.541,2.541,0,0,1-2.68,2.228q-4.067.046-8.136,0a2.561,2.561,0,0,1-2.678-2.242c-.308-1.317-.568-2.645-.886-4.14-.692,0-1.374,0-2.056,0-3.521.008-5.6-2.034-5.612-5.569-.018-5.424-.024-10.848.013-16.271.006-.907-.166-1.318-1.168-1.566A15.258,15.258,0,0,1,.014,36.535a41.915,41.915,0,0,1,.171-5.658A15.113,15.113,0,0,1,11.823,18.008c.9-.215,1.17-.548,1.156-1.46-.055-3.656-.039-7.314-.019-10.971C12.978,2.072,15.078,0,18.577,0Q51.8,0,85.02,0c3.427,0,5.546,2.075,5.571,5.5.026,3.616.006,7.232.006,10.848v1a48.15,48.15,0,0,1,5.68,2.332,14.546,14.546,0,0,1,7.688,12.549,29.626,29.626,0,0,1-.415,7.836c-1.4,6.33-5.539,10.174-11.817,11.664-.922.219-1.159.557-1.153,1.447.037,5.3.021,10.6.017,15.9,0,4.043-1.934,5.967-5.969,5.955-.53,0-1.061,0-1.7,0M90.7,23.1V46.524a9.888,9.888,0,0,0,8.016-9.29c.091-1.555.072-3.121.019-4.678a9.774,9.774,0,0,0-3.449-7.231A8.865,8.865,0,0,0,90.7,23.1M12.84,46.365V23.231A9.645,9.645,0,0,0,5.468,31.2a36.111,36.111,0,0,0-.025,7.11,9.592,9.592,0,0,0,7.4,8.054M58.681,61.02a7.575,7.575,0,0,0-2.562-9.061,7.8,7.8,0,0,0-9.572.338c-2.547,2.186-3.5,5.954-2.151,8.489,4.368-5.038,10.759-4.271,14.285.234m-37.6-45.445a8.77,8.77,0,0,1,14.31-.036,7.616,7.616,0,0,0-2.349-8.865,7.743,7.743,0,0,0-9.379-.151,7.652,7.652,0,0,0-2.582,9.052m47.03-.16c5.881-4.86,8.758-4.861,14.358-.006a7.4,7.4,0,0,0-2.223-8.6,7.73,7.73,0,0,0-9.667-.183,7.543,7.543,0,0,0-2.468,8.793M35.4,60.89a7.479,7.479,0,0,0-2.6-8.94,7.875,7.875,0,0,0-9.871.6c-2.088,1.908-3.281,6.046-1.754,8.32,3.2-4.194,9.746-5.291,14.228.016m47.034-.034c1.321-2.2.577-6.341-2.163-8.609a7.834,7.834,0,0,0-9.894-.013c-2.586,2.114-3.594,6.024-2.218,8.6,3.8-4.523,10.027-4.9,14.275.022M58.707,15.531a7.62,7.62,0,0,0-2.659-9.072A7.733,7.733,0,0,0,46.375,7C43.98,9.11,43.1,12.841,44.4,15.354c4.231-4.915,10.542-4.462,14.312.176m-.041,21.407c1.406-2.579.437-6.447-2.154-8.6a7.736,7.736,0,0,0-9.868-.055c-2.595,2.1-3.608,5.967-2.245,8.57a8.971,8.971,0,0,1,14.267.088m9.471.025c5.013-4.861,8.7-4.877,14.488.071,0-1.335-.087-2.553.02-3.754a5.414,5.414,0,0,0-1.878-4.486,7.61,7.61,0,0,0-6.529-2.19c-4.861.562-8.1,6.054-6.1,10.359M21.4,36.645a8.935,8.935,0,0,1,7.2-3.264,8.807,8.807,0,0,1,6.8,3.671,7.648,7.648,0,0,0-3.684-9.713A7.727,7.727,0,0,0,21.678,30.2a2.063,2.063,0,0,0-.269.921c-.026,1.723-.012,3.446-.012,5.523M45.413,62.869a7.733,7.733,0,0,0,11.62.857,1.057,1.057,0,0,0,.15-1.579,6.855,6.855,0,0,0-11.77.722m-17.15-3.753a6.665,6.665,0,0,0-5.744,3.167,1.243,1.243,0,0,0,.03,1.142c2.617,3.326,8.646,3.36,11.322.061a1.335,1.335,0,0,0,.082-1.233,6.7,6.7,0,0,0-5.69-3.138m46.985,0a6.966,6.966,0,0,0-5.637,3.011.994.994,0,0,0,.111,1.482,7.772,7.772,0,0,0,11.2-.1,1.318,1.318,0,0,0,.093-1.225,6.643,6.643,0,0,0-5.765-3.172M28.223,20.493a7.832,7.832,0,0,0,5.623-2.355A.971.971,0,0,0,34,16.751a6.93,6.93,0,0,0-11.456-.039A1,1,0,0,0,22.7,18.2a7.749,7.749,0,0,0,5.523,2.3m23.364.006a7.77,7.77,0,0,0,5.433-2.237,1.01,1.01,0,0,0,.175-1.556A6.9,6.9,0,0,0,45.8,16.679a.963.963,0,0,0,.154,1.462,7.757,7.757,0,0,0,5.63,2.359m23.763-.005a7.8,7.8,0,0,0,5.431-2.224,1.093,1.093,0,0,0,.147-1.675,6.925,6.925,0,0,0-11.317.068,1.041,1.041,0,0,0,.2,1.574,7.715,7.715,0,0,0,5.54,2.257M57.63,39a6.864,6.864,0,0,0-12.237-.083A7.657,7.657,0,0,0,57.63,39M28.221,35.18a6.881,6.881,0,0,0-5.662,3.027.971.971,0,0,0,.12,1.472,7.816,7.816,0,0,0,11.14-.015.974.974,0,0,0,.118-1.476,6.939,6.939,0,0,0-5.717-3.009m47.126,0a6.921,6.921,0,0,0-5.723,2.994.975.975,0,0,0,.093,1.478,7.827,7.827,0,0,0,11.144.041,1.022,1.022,0,0,0,.072-1.574,6.876,6.876,0,0,0-5.586-2.939M63.239,8.115a3.036,3.036,0,0,0,3-2.953,3,3,0,1,0-6-.007,3.058,3.058,0,0,0,3,2.96m.192,19.313A2.963,2.963,0,0,0,66.5,24.44a3,3,0,0,0-5.993-.015,2.971,2.971,0,0,0,2.924,3M40.037,71.952A2.976,2.976,0,0,0,40.047,66a2.977,2.977,0,1,0-.01,5.953m2.934-47.233A2.968,2.968,0,0,0,40.058,21.7a3.064,3.064,0,0,0-3.04,3.049,2.946,2.946,0,0,0,3,2.913,2.883,2.883,0,0,0,2.949-2.944M63.449,44.908a3,3,0,0,0,.036,6,3,3,0,1,0-.036-6M39.78,2.384A3,3,0,0,0,36.758,5.3a3.057,3.057,0,0,0,2.9,3.053,2.963,2.963,0,0,0,3.054-2.993A2.93,2.93,0,0,0,39.78,2.384M63.5,66.242a2.976,2.976,0,0,0-2.991,2.94,3,3,0,1,0,6,0A3,3,0,0,0,63.5,66.242M42.986,48.153a3.02,3.02,0,0,0-3.063-3.01A3.062,3.062,0,0,0,37.017,48.2a3.023,3.023,0,0,0,3.015,2.936,2.991,2.991,0,0,0,2.954-2.978" transform="translate(0 0)" fill="#009ee3"/>
    <path id="Path_5649" data-name="Path 5649" d="M82.924,75.026c-.307,1.44-.569,2.725-.856,4a2.645,2.645,0,0,1-2.939,2.382q-3.821.021-7.643,0c-1.788-.012-2.58-.676-2.989-2.46-.238-1.041-.4-2.105-.718-3.118a1.328,1.328,0,0,0-.944-.772q-3.325-.1-6.654,0a1.333,1.333,0,0,0-.933.8c-.338,1.138-.5,2.326-.785,3.482A2.457,2.457,0,0,1,55.915,81.4q-4.129.051-8.259,0a2.467,2.467,0,0,1-2.564-2.044c-.272-1.074-.522-2.158-.7-3.251-.122-.773-.4-1.129-1.256-1.1-2.094.06-4.191.039-6.286.007-.684-.01-1.047.161-1.157.911-.161,1.094-.432,2.174-.689,3.252a2.541,2.541,0,0,1-2.68,2.228q-4.067.046-8.136,0a2.561,2.561,0,0,1-2.678-2.242c-.308-1.317-.568-2.645-.886-4.14-.692,0-1.374,0-2.056,0-3.521.008-5.6-2.034-5.612-5.569-.018-5.424-.024-10.848.013-16.271.006-.907-.166-1.318-1.168-1.566A15.258,15.258,0,0,1,.014,36.535a41.915,41.915,0,0,1,.171-5.658A15.113,15.113,0,0,1,11.823,18.008c.9-.215,1.17-.548,1.156-1.46-.055-3.656-.039-7.314-.019-10.971C12.978,2.072,15.078,0,18.577,0Q51.8,0,85.02,0c3.427,0,5.546,2.075,5.571,5.5.026,3.616.006,7.232.006,10.848v1a48.15,48.15,0,0,1,5.68,2.332,14.546,14.546,0,0,1,7.688,12.549,29.626,29.626,0,0,1-.415,7.836c-1.4,6.33-5.539,10.174-11.817,11.664-.922.219-1.159.557-1.153,1.447.037,5.3.021,10.6.017,15.9,0,4.043-1.934,5.967-5.969,5.955-.53,0-1.061,0-1.7,0M90.7,23.1V46.524a9.888,9.888,0,0,0,8.016-9.29c.091-1.555.072-3.121.019-4.678a9.774,9.774,0,0,0-3.449-7.231A8.865,8.865,0,0,0,90.7,23.1M12.84,46.365V23.231A9.645,9.645,0,0,0,5.468,31.2a36.111,36.111,0,0,0-.025,7.11,9.592,9.592,0,0,0,7.4,8.054M58.681,61.02a7.575,7.575,0,0,0-2.562-9.061,7.8,7.8,0,0,0-9.572.338c-2.547,2.186-3.5,5.954-2.151,8.489,4.368-5.038,10.759-4.271,14.285.234m-37.6-45.445a8.77,8.77,0,0,1,14.31-.036,7.616,7.616,0,0,0-2.349-8.865,7.743,7.743,0,0,0-9.379-.151,7.652,7.652,0,0,0-2.582,9.052m47.03-.16c5.881-4.86,8.758-4.861,14.358-.006a7.4,7.4,0,0,0-2.223-8.6,7.73,7.73,0,0,0-9.667-.183,7.543,7.543,0,0,0-2.468,8.793M35.4,60.89a7.479,7.479,0,0,0-2.6-8.94,7.875,7.875,0,0,0-9.871.6c-2.088,1.908-3.281,6.046-1.754,8.32,3.2-4.194,9.746-5.291,14.228.016m47.034-.034c1.321-2.2.577-6.341-2.163-8.609a7.834,7.834,0,0,0-9.894-.013c-2.586,2.114-3.594,6.024-2.218,8.6,3.8-4.523,10.027-4.9,14.275.022M58.707,15.531a7.62,7.62,0,0,0-2.659-9.072A7.733,7.733,0,0,0,46.375,7C43.98,9.11,43.1,12.841,44.4,15.354c4.231-4.915,10.542-4.462,14.312.176m-.041,21.407c1.406-2.579.437-6.447-2.154-8.6a7.736,7.736,0,0,0-9.868-.055c-2.595,2.1-3.608,5.967-2.245,8.57a8.971,8.971,0,0,1,14.267.088m9.471.025c5.013-4.861,8.7-4.877,14.488.071,0-1.335-.087-2.553.02-3.754a5.414,5.414,0,0,0-1.878-4.486,7.61,7.61,0,0,0-6.529-2.19c-4.861.562-8.1,6.054-6.1,10.359M21.4,36.645a8.935,8.935,0,0,1,7.2-3.264,8.807,8.807,0,0,1,6.8,3.671,7.648,7.648,0,0,0-3.684-9.713A7.727,7.727,0,0,0,21.678,30.2a2.063,2.063,0,0,0-.269.921c-.026,1.723-.012,3.446-.012,5.523M45.413,62.869a7.733,7.733,0,0,0,11.62.857,1.057,1.057,0,0,0,.15-1.579,6.855,6.855,0,0,0-11.77.722m-17.15-3.753a6.665,6.665,0,0,0-5.744,3.167,1.243,1.243,0,0,0,.03,1.142c2.617,3.326,8.646,3.36,11.322.061a1.335,1.335,0,0,0,.082-1.233,6.7,6.7,0,0,0-5.69-3.138m46.985,0a6.966,6.966,0,0,0-5.637,3.011.994.994,0,0,0,.111,1.482,7.772,7.772,0,0,0,11.2-.1,1.318,1.318,0,0,0,.093-1.225,6.643,6.643,0,0,0-5.765-3.172M28.223,20.493a7.832,7.832,0,0,0,5.623-2.355A.971.971,0,0,0,34,16.751a6.93,6.93,0,0,0-11.456-.039A1,1,0,0,0,22.7,18.2a7.749,7.749,0,0,0,5.523,2.3m23.364.006a7.77,7.77,0,0,0,5.433-2.237,1.01,1.01,0,0,0,.175-1.556A6.9,6.9,0,0,0,45.8,16.679a.963.963,0,0,0,.154,1.462,7.757,7.757,0,0,0,5.63,2.359m23.763-.005a7.8,7.8,0,0,0,5.431-2.224,1.093,1.093,0,0,0,.147-1.675,6.925,6.925,0,0,0-11.317.068,1.041,1.041,0,0,0,.2,1.574,7.715,7.715,0,0,0,5.54,2.257M57.63,39a6.864,6.864,0,0,0-12.237-.083A7.657,7.657,0,0,0,57.63,39M28.221,35.18a6.881,6.881,0,0,0-5.662,3.027.971.971,0,0,0,.12,1.472,7.816,7.816,0,0,0,11.14-.015.974.974,0,0,0,.118-1.476,6.939,6.939,0,0,0-5.717-3.009m47.126,0a6.921,6.921,0,0,0-5.723,2.994.975.975,0,0,0,.093,1.478,7.827,7.827,0,0,0,11.144.041,1.022,1.022,0,0,0,.072-1.574,6.876,6.876,0,0,0-5.586-2.939M63.239,8.115a3.036,3.036,0,0,0,3-2.953,3,3,0,1,0-6-.007,3.058,3.058,0,0,0,3,2.96m.192,19.313A2.963,2.963,0,0,0,66.5,24.44a3,3,0,0,0-5.993-.015,2.971,2.971,0,0,0,2.924,3M40.037,71.952A2.976,2.976,0,0,0,40.047,66a2.977,2.977,0,1,0-.01,5.953m2.934-47.233A2.968,2.968,0,0,0,40.058,21.7a3.064,3.064,0,0,0-3.04,3.049,2.946,2.946,0,0,0,3,2.913,2.883,2.883,0,0,0,2.949-2.944M63.449,44.908a3,3,0,0,0,.036,6,3,3,0,1,0-.036-6M39.78,2.384A3,3,0,0,0,36.758,5.3a3.057,3.057,0,0,0,2.9,3.053,2.963,2.963,0,0,0,3.054-2.993A2.93,2.93,0,0,0,39.78,2.384M63.5,66.242a2.976,2.976,0,0,0-2.991,2.94,3,3,0,1,0,6,0A3,3,0,0,0,63.5,66.242M42.986,48.153a3.02,3.02,0,0,0-3.063-3.01A3.062,3.062,0,0,0,37.017,48.2a3.023,3.023,0,0,0,3.015,2.936,2.991,2.991,0,0,0,2.954-2.978" transform="translate(0 0)" fill="#aaa"/>
  </g>
</svg>
