<svg xmlns="http://www.w3.org/2000/svg" xmlns:xlink="http://www.w3.org/1999/xlink" width="93.568" height="78.055" viewBox="0 0 93.568 78.055">
  <defs>
    <clipPath id="clip-path">
      <rect id="Rectangle_1019" data-name="Rectangle 1019" width="93.568" height="78.055" fill="#aaa"/>
    </clipPath>
  </defs>
  <g id="Group_5299" data-name="Group 5299" clip-path="url(#clip-path)">
    <path id="Path_5546" data-name="Path 5546" d="M0,639.825c.314-.774.642-1.543.94-2.324q2.976-7.806,5.942-15.616c.055-.145.122-.285.158-.37,1.142.764,2.226,1.572,3.387,2.25a12.138,12.138,0,0,0,6.729,1.764,12.536,12.536,0,0,0,8.353-3.784,3.3,3.3,0,0,0,.295-.421c.272.957.5,1.753.724,2.552q2.175,7.795,4.344,15.591a3.362,3.362,0,0,1,.061.549q-15.277,0-30.553-.01c-.12,0-.411.2-.381-.181" transform="translate(0 -562.001)" fill="#aaa"/>
    <path id="Path_5547" data-name="Path 5547" d="M788.525,245.023c-.619-.011-1.239,0-1.855-.043a1.7,1.7,0,0,1-.784-.249,10.99,10.99,0,0,0-4.156-1.825,6.749,6.749,0,0,0-5.648,1.541,10.718,10.718,0,0,0-2.341,2.744l-.308.5a6.067,6.067,0,0,0-1.563-3.738,6.277,6.277,0,0,0-3.556-1.751c.006-.063,0-.1.012-.119a20.123,20.123,0,0,1,7.193-4.467,9.042,9.042,0,0,1,10.044,2.71,15.875,15.875,0,0,1,2.75,4.157,3.836,3.836,0,0,0,.212.352Z" transform="translate(-694.957 -214.442)" fill="#aaa"/>
    <path id="Path_5548" data-name="Path 5548" d="M788.073,429.956q-.284.542-.568,1.085a14.545,14.545,0,0,1-3.311,4.33c-2.984,2.6-6.33,2.943-9.927,1.53a21.586,21.586,0,0,1-6.322-4.109,1.231,1.231,0,0,1-.13-.175c3.041-.57,4.834-2.3,5.155-5.435.489.673.906,1.332,1.407,1.92,2.648,3.108,6.012,3.74,9.621,1.834a2.563,2.563,0,0,0,.578-.329c1.019-.959,2.262-.826,3.5-.746Z" transform="translate(-694.505 -386.395)" fill="#aaa"/>
    <path id="Path_5549" data-name="Path 5549" d="M136.01,165.809a31.636,31.636,0,0,0,1.832,3.267c2.286,3.176,5.51,4.357,9.324,4.079,1.054-.077,2.1-.294,3.187-.452l-7.088,20.225c-.562-.7-1.057-1.379-1.61-2a15.57,15.57,0,0,0-8.009-5.153,12.005,12.005,0,0,0-5.9.076c-.074.019-.149.035-.335.077l8.6-20.115" transform="translate(-115.247 -149.978)" fill="#aaa"/>
    <path id="Path_5550" data-name="Path 5550" d="M406.073,109.511c3.088-.536,4.811-2.575,6.19-5.011a23.053,23.053,0,0,0,2.207-5.716c.031-.122.067-.244.12-.437l19.3,18.537c-.6.12-1.167.189-1.7.346a6.61,6.61,0,0,0-4.425,4.51c-.352.992-.54,2.042-.811,3.1l-20.873-15.329" transform="translate(-367.302 -88.957)" fill="#aaa"/>
    <path id="Path_5551" data-name="Path 5551" d="M260.554,18.75a9.375,9.375,0,1,1,9.389-9.364,9.388,9.388,0,0,1-9.389,9.364m-.036-5.242A4.139,4.139,0,1,0,256.4,9.373a4.141,4.141,0,0,0,4.118,4.135" transform="translate(-227.182 0)" fill="#aaa"/>
    <path id="Path_5552" data-name="Path 5552" d="M83.486,444.28a9.385,9.385,0,1,1,9.387-9.376,9.4,9.4,0,0,1-9.387,9.376m-4.147-9.417a4.146,4.146,0,1,0,4.15-4.114,4.152,4.152,0,0,0-4.15,4.114" transform="translate(-67.02 -384.884)" fill="#aaa"/>
    <path id="Path_5553" data-name="Path 5553" d="M667.289,302.879a7.043,7.043,0,1,1-7.04,7.043,7.035,7.035,0,0,1,7.04-7.043m.027,3.936a3.112,3.112,0,1,0,3.119,3.125,3.1,3.1,0,0,0-3.119-3.125" transform="translate(-597.21 -273.96)" fill="#aaa"/>
  </g>
</svg>
