<svg xmlns="http://www.w3.org/2000/svg" xmlns:xlink="http://www.w3.org/1999/xlink" width="98" height="64.169" viewBox="0 0 98 64.169">
  <defs>
    <clipPath id="clip-path">
      <rect id="Rectangle_1020" data-name="Rectangle 1020" width="98" height="64.169" fill="none"/>
    </clipPath>
  </defs>
  <g id="Group_5301" data-name="Group 5301" clip-path="url(#clip-path)">
    <path id="Path_5554" data-name="Path 5554" d="M9.471,16.884a10.424,10.424,0,0,1-3.419-1.748,6.119,6.119,0,0,1-1.891-2.322,2.859,2.859,0,0,1,1.111-3.8,10.167,10.167,0,0,1,7.414-1.176A2.917,2.917,0,0,1,15,10.457c.062.354.1.712.153,1.066.286.078.369-.169.5-.3,2.692-2.582,5.367-5.183,8.07-7.754A12.094,12.094,0,0,1,32.286.015Q49-.016,65.712.014A12.152,12.152,0,0,1,74.342,3.5c2.811,2.68,5.6,5.385,8.438,8.118a2.092,2.092,0,0,0,.236-1.045,3.082,3.082,0,0,1,2.748-2.839A10.854,10.854,0,0,1,92.4,8.789a3.06,3.06,0,0,1,1.135,4.677,8.623,8.623,0,0,1-4.51,3.259c-.19.067-.417.048-.575.247.561.583,1.113,1.179,1.689,1.75a28.331,28.331,0,0,1,5.015,5.69A19.233,19.233,0,0,1,98,34.2c-.01,3.964,0,7.928,0,11.892a11.335,11.335,0,0,1-2.827,7.612,1.266,1.266,0,0,0-.314.914c.011,1.321.015,2.643,0,3.964A5.138,5.138,0,0,1,89.8,64.061a58.586,58.586,0,0,1-6.99,0A5.128,5.128,0,0,1,77.8,58.7c-.023-1-.023-1-1.047-1q-27.791,0-55.582-.016c-.708,0-.958.109-.953.9a5.111,5.111,0,0,1-5.11,5.486,61.625,61.625,0,0,1-6.759.005,5.174,5.174,0,0,1-5.167-5.535q-.015-1.943,0-3.886a1.364,1.364,0,0,0-.341-.982,11.17,11.17,0,0,1-2.8-7.387c-.023-4.2-.1-8.4.019-12.591A18.513,18.513,0,0,1,5.432,21.151c1.351-1.419,2.695-2.846,4.039-4.266" transform="translate(0 0)" fill="#aaa"/>
    <path id="Path_5555" data-name="Path 5555" d="M168.424,46.218H101.989c-.069-.279.172-.363.3-.492,3.567-3.466,7.122-6.946,10.72-10.38a7.659,7.659,0,0,1,5.408-2.187q16.714-.021,33.427,0a7.53,7.53,0,0,1,5.292,2.084c3.707,3.508,7.346,7.087,11.011,10.639.07.068.124.152.271.338" transform="translate(-86.118 -27.994)" fill="#f4f4f4"/>
    <path id="Path_5556" data-name="Path 5556" d="M193.47,214.226c7.2,0,14.4.009,21.6-.016.662,0,.811.176.771.817a11,11,0,0,1-2.382,6.587,4.971,4.971,0,0,1-3.953,1.969q-16.085,0-32.169,0a5.386,5.386,0,0,1-4.683-2.972A11.574,11.574,0,0,1,171,214.94c-.029-.6.133-.728.709-.727q10.878.029,21.757.013" transform="translate(-144.407 -180.897)" fill="#f4f4f4"/>
    <path id="Path_5557" data-name="Path 5557" d="M203.287,299.286h19.658c.966,0,.966,0,.805.978a5.6,5.6,0,0,1-5.053,4.609c-.336.022-.672.043-1.008.043q-14.491,0-28.982.011a5.72,5.72,0,0,1-6.1-4.983c-.083-.511.013-.682.56-.67,1.5.033,3,.012,4.506.012h15.618" transform="translate(-154.183 -252.732)" fill="#f4f4f4"/>
    <path id="Path_5558" data-name="Path 5558" d="M34.742,179.5c-1.523-.115-3.329.167-5.073-.371a5.6,5.6,0,0,1-3.639-6.225,5.512,5.512,0,0,1,5.413-4.647,7.327,7.327,0,0,1,2.674.759,25.293,25.293,0,0,1,8.849,5.886c1.861,2.016,1.4,3.392-1.251,4.052a28.753,28.753,0,0,1-6.972.547" transform="translate(-21.924 -142.09)" fill="#f4f4f4"/>
    <path id="Path_5559" data-name="Path 5559" d="M497.025,179.711a25.283,25.283,0,0,1-6.794-.509c-2.5-.627-2.968-2.008-1.261-3.934a23.7,23.7,0,0,1,6.577-4.876,24.657,24.657,0,0,1,3.323-1.486,5.292,5.292,0,0,1,6.853,3.231,5.581,5.581,0,0,1-5.2,7.571c-1.165.02-2.332,0-3.5,0" transform="translate(-412.07 -142.355)" fill="#f4f4f4"/>
    <path id="Path_5560" data-name="Path 5560" d="M470.154,292.238c2.126-2.438,4.141-4.691,6.082-7.006a2.455,2.455,0,0,1,2.174-.972c2.8.07,5.6.038,8.394.014a1.045,1.045,0,0,1,1.1.624,4.051,4.051,0,0,1-1.265,5.613,8.3,8.3,0,0,1-5.175,1.762c-3.444-.08-6.892-.03-10.338-.035h-.969" transform="translate(-397.037 -240.051)" fill="#f4f4f4"/>
    <path id="Path_5561" data-name="Path 5561" d="M60.536,292.277c-.331.02-.5.039-.679.039-3.881.006-7.765.109-11.641-.025-2.185-.075-5.364-1.836-5.9-4.2a4.658,4.658,0,0,1,.72-3.469c.159-.278.413-.261.675-.261q4.735,0,9.469,0a.811.811,0,0,1,.692.256c2.182,2.516,4.37,5.027,6.665,7.662" transform="translate(-35.652 -240.137)" fill="#f4f4f4"/>
  </g>
</svg>
