<svg xmlns="http://www.w3.org/2000/svg" xmlns:xlink="http://www.w3.org/1999/xlink" width="111.942" height="74.644" viewBox="0 0 111.942 74.644">
  <defs>
    <clipPath id="clip-path">
      <rect id="Rectangle_1021" data-name="Rectangle 1021" width="111.942" height="74.644" fill="none"/>
    </clipPath>
  </defs>
  <g id="Group_5303" data-name="Group 5303" clip-path="url(#clip-path)">
    <path id="Path_5562" data-name="Path 5562" d="M48.506,54.326c.4-1.9.964-3.756,1.447-5.633.065-.255.128-.511.228-.906-.563.337-1.019.606-1.471.881Q42.1,52.676,35.5,56.689c-.313.19-.593.434-.893.646a.381.381,0,0,0-.146.472c.113.472.179.956.264,1.438a1.611,1.611,0,0,1-1.694-1.407c-.089-.324-.351-.24-.531-.273-2.512-.468-5.029-.911-7.542-1.371-2.23-.408-4.459-.829-6.806-1.266a12.4,12.4,0,0,1,2.09-2.345,9.079,9.079,0,0,1,2.679-.8,3.925,3.925,0,0,0,.714-.165,2.339,2.339,0,0,1,2.561.452c2.213,1.508,4.472,2.95,6.7,4.439.392.262.606.223.845-.176a4.526,4.526,0,0,1,1.521-1.21q7.753-5.395,15.534-10.75,7.59-5.254,15.17-10.522,6.852-4.753,13.7-9.506,4.583-3.185,9.156-6.385c.133-.093.279-.168.418-.251.416.145.459.607.75.875.772.711,1.494,1.478,2.263,2.194a10.392,10.392,0,0,0,.755.8c.653.613.994.645,1.73.178a4.142,4.142,0,0,0,1-.894c.656-.813,1.433-1.507,2.156-2.253a2.265,2.265,0,0,0,1.372-1.312,15.838,15.838,0,0,0,1.521-1.58,1,1,0,0,1,.869-.487,1.422,1.422,0,0,0,1.613-.392,1.085,1.085,0,0,0,.1-1.356,1.206,1.206,0,0,0-1.355-.587,5.158,5.158,0,0,1-.573.208.718.718,0,0,1-.516-.281q-.758-.741-1.5-1.5c-.135-.139-.318-.268-.244-.513,1.721-1.208,3.439-2.42,5.165-3.622,1.694-1.18,3.412-2.327,5.09-3.529a10.267,10.267,0,0,1,7.972-2.032,1.441,1.441,0,0,0,.884-.137,15.108,15.108,0,0,1,7.01-1.47,4.215,4.215,0,0,1,1.482.341A1.628,1.628,0,0,1,127.795,2.4a7.327,7.327,0,0,1-1.95,3.2,63.652,63.652,0,0,1-7.176,6.317c-3.281,2.611-6.675,5.071-10.057,7.545-1.683,1.232-3.394,2.426-5.1,3.628a.8.8,0,0,1-.529.251l1.5-8.079c-.738.6-1.4,1.133-2.043,1.673q-3.155,2.635-6.3,5.277Q92.067,25.621,88,29.029q-4.59,3.838-9.184,7.67c-.769.642-1.528,1.3-2.3,1.927-.238.193-.231.308-.007.511.424.385.79.837,1.23,1.2.386.317.252.451-.075.679q-3.014,2.1-6.006,4.235a72.124,72.124,0,0,1-6.774,4.525,83.782,83.782,0,0,1-11.3,5.443.532.532,0,0,1-.53-.025,2.026,2.026,0,0,0-1.773-.153,1.26,1.26,0,0,1-1.106-.185,1.484,1.484,0,0,0-1.286-.235c-.231.064-.475.091-.379-.293" transform="translate(-15.92 0)" fill="#aaa"/>
    <path id="Path_5563" data-name="Path 5563" d="M520.636,186.8c.062.648-.491.659-.876.843-.2-.194-.179-.49-.331-.713a.858.858,0,0,0-1.36-.238,2.7,2.7,0,0,0-.864.973c.348.048.456-.22.644-.34.312-.2.616-.617,1.01-.255.352.324.16.711-.089,1.042a6.134,6.134,0,0,1-1.332.644.484.484,0,0,1-.6-.164c-.23-.239-.48-.281-.663.006-.209.327.179.324.316.458a.166.166,0,0,1,.059.159l-1.205.573c-.253-1.99-.492-3.915-.743-5.839-.366-2.8-.743-5.6-1.1-8.4a.731.731,0,0,0-.253-.463c-2.283-2.2-4.58-4.389-6.837-6.616-1.062-1.047-2.048-2.172-3.088-3.281L528.5,144.134c-.432,2.34-.842,4.537-1.244,6.735q-1.1,6-2.2,12.006-1.7,9.227-3.414,18.451c-.17.916-.355,1.83-.533,2.744a3.78,3.78,0,0,0-1.621,1.161c-.088.1-.258.218-.134.361.152.175.3.006.415-.094.2-.172.372-.382.577-.552.186-.154.373-.353.642-.137a2.017,2.017,0,0,1-.145.856c-.355.325-.208.742-.209,1.132" transform="translate(-441.408 -126.405)" fill="#aaa"/>
    <path id="Path_5564" data-name="Path 5564" d="M272.539,131.649c-.822.579-1.629,1.153-2.442,1.718q-5.667,3.932-11.338,7.86-4.182,2.9-8.361,5.8a.908.908,0,0,1-1,.144c-3.15-1.4-6.338-2.718-9.463-4.171a50.48,50.48,0,0,0-7.625-2.447c-1.9-.541-3.808-1.055-5.822-1.611.734-.692,1.406-1.328,2.081-1.959.523-.489,1.056-.966,1.573-1.462a1,1,0,0,1,.653-.27q7.342-.657,14.682-1.328c2.875-.259,5.752-.5,8.628-.759,3.3-.3,6.6-.618,9.907-.918,2.712-.246,5.426-.477,8.14-.711a.393.393,0,0,1,.387.11" transform="translate(-198.629 -115.35)" fill="#aaa"/>
    <path id="Path_5565" data-name="Path 5565" d="M31.27,331.008c-1.421.986-2.794,1.943-4.172,2.893-3.061,2.11-6.128,4.211-9.179,6.335a.449.449,0,0,1-.62,0q-6.018-3.953-12.048-7.888C3.8,331.4,2.335,330.461.891,329.5c-1.194-.8-1.193-1.022.035-1.718,1.317-.746,2.608-1.533,3.865-2.373a2.644,2.644,0,0,1,2.275-.338c2.6.671,5.211,1.337,7.825,1.969,2.792.676,5.6,1.3,8.391,1.969,2.539.6,5.074,1.231,7.61,1.85a3.287,3.287,0,0,1,.38.15" transform="translate(0 -284.985)" fill="#aaa"/>
    <path id="Path_5566" data-name="Path 5566" d="M168.726,419.9q-.655,2.582-1.311,5.163c-.263,1.027-.541,2.051-.8,3.079a.983.983,0,0,1-.529.693c-.995.522-1.985,1.054-2.95,1.627-.365.216-.417.121-.486-.232-.492-2.527-1-5.05-1.507-7.574-.57-2.845-1.134-5.692-1.725-8.533-.1-.473.279-.5.5-.64,1.8-1.126,3.621-2.229,5.437-3.336q3.272-1.995,6.549-3.984c.138-.084.286-.15.589-.306l-1.7,6.266a13.215,13.215,0,0,1-1.992,2.151c-.937.974-1.036,1.387-.49,2.61a1.04,1.04,0,0,1,.073.885,1.431,1.431,0,0,0,.258,1.8.316.316,0,0,1,.089.337" transform="translate(-139.792 -355.933)" fill="#aaa"/>
    <path id="Path_5567" data-name="Path 5567" d="M600.268,96.983a25.8,25.8,0,0,1,2.455-1.717c.331-.155.388.133.472.317a1.949,1.949,0,0,0,1.888,1.233,2.192,2.192,0,0,0,2-1.3,2.147,2.147,0,0,0-.421-2.279c-.134-.154-.409-.259-.242-.551a31.166,31.166,0,0,1,2.71-1.839,9.39,9.39,0,0,1,2.351,2.54,5.528,5.528,0,0,1,.052,1.169,1.368,1.368,0,0,1-1.4.767,5.547,5.547,0,0,0-1.974.289,1.44,1.44,0,0,0-1.011.893,1.917,1.917,0,0,1-.791,1.437,1.726,1.726,0,0,0-.613,1.641,1.364,1.364,0,0,1,.031.6c-.084.235-.218.434-.442.092-.049-.135-.065-.278-.1-.416a1.322,1.322,0,0,0-1.059-1.07,1.176,1.176,0,0,0-1.267.669.682.682,0,0,1-.248.267,6.972,6.972,0,0,1-2.432-2.341.383.383,0,0,1,.048-.405" transform="translate(-526.354 -79.672)" fill="#aaa"/>
    <path id="Path_5568" data-name="Path 5568" d="M670.244,354.461c.339-1.874.652-3.574.951-5.278.062-.352.344-.31.558-.344a2.139,2.139,0,0,1,2.218,1.188,2.08,2.08,0,0,1-.626,2.58c-.949.652-1.977,1.189-3.1,1.854" transform="translate(-587.8 -305.91)" fill="#aaa"/>
    <path id="Path_5569" data-name="Path 5569" d="M624.555,105.8c.183.407.57.645.777,1.063a2.266,2.266,0,0,1-1.129,3.01,2.209,2.209,0,0,1-3.02-1.111c-.075-.157-.08-.374-.328-.383l3.7-2.58" transform="translate(-544.487 -92.786)" fill="#aaa"/>
    <path id="Path_5570" data-name="Path 5570" d="M688.115,258.853l.768-4.129c.022-.12.047-.24.064-.361.122-.856.343-1,1.133-.668a2.007,2.007,0,0,1,1.34,1.611,1.984,1.984,0,0,1-.842,2.089c-.743.492-1.532.912-2.463,1.459" transform="translate(-603.473 -222.344)" fill="#aaa"/>
    <path id="Path_5571" data-name="Path 5571" d="M366.148,128.534c.569-.527,1.133-1.058,1.707-1.579a1.723,1.723,0,0,1,1.827-.351,1.6,1.6,0,0,1,1.055,1.249c.05.216.065.4-.249.428-1.437.121-2.874.254-4.311.382l-.029-.128" transform="translate(-321.11 -110.926)" fill="#aaa"/>
    <path id="Path_5572" data-name="Path 5572" d="M433.3,123.721c.708-.655,1.252-1.234,1.872-1.715a1.706,1.706,0,0,1,2.606.945c.03.131.162.342-.128.369-1.393.131-2.787.257-4.351.4" transform="translate(-380.005 -106.729)" fill="#aaa"/>
    <path id="Path_5573" data-name="Path 5573" d="M228.511,464.576a1.67,1.67,0,0,1-.456-2.281c.146-.268-.027-.512-.143-.75a1.815,1.815,0,0,1,.428-2.564q1.113-1.1,2.232-2.184a5.178,5.178,0,0,1-.361,1.358q-.686.744-1.41,1.451c-.55.538-.6.818-.245,1.472a1.869,1.869,0,0,1,.166,1.645,1.618,1.618,0,0,0,0,1.084l-.215.769" transform="translate(-199.578 -400.609)" fill="#aaa"/>
    <path id="Path_5574" data-name="Path 5574" d="M263.926,447.19c-1.591.654-3.23,1.164-4.91,1.684a3.916,3.916,0,0,1,.255-1.3c.7-1.116,1.029-1.243,2.2-.728a2.194,2.194,0,0,0,1.377.034c.392-.073.864-.279,1.079.315" transform="translate(-227.149 -391.622)" fill="#aaa"/>
    <path id="Path_5575" data-name="Path 5575" d="M232.886,473.484c-.469-.26-.289-.711-.181-1.013a1.783,1.783,0,0,0-.182-1.725,1,1,0,0,1,.183-1.415c.572-.482.948-1.181,1.665-1.5-.426,1.9-.947,3.779-1.485,5.651" transform="translate(-203.737 -410.287)" fill="#aaa"/>
    <path id="Path_5576" data-name="Path 5576" d="M265.793,442.894a.93.93,0,0,0-1.075-.146,1.9,1.9,0,0,1-1.633-.131c-.741-.4-1.06-.284-1.641.363-.094.105-.2.2-.307.294a7.953,7.953,0,0,1,.464-1.621c.041.108.058.285.228.194a1.4,1.4,0,0,1,1.629.272c.344.269.656.131.981.045a1.807,1.807,0,0,1,1.885.308c.073.07.231.051.35.074a2.967,2.967,0,0,1-.882.35" transform="translate(-229.016 -387.326)" fill="#aaa"/>
    <path id="Path_5577" data-name="Path 5577" d="M616.112,488.5c-.027-.343.4-.778-.032-1.006-.414-.22-.652.28-.948.5a2.034,2.034,0,0,0-.264.256.252.252,0,0,1-.418,0c-.131-.133-.2-.261-.039-.416a8.435,8.435,0,0,1,1.071-1c.745-.5,1.588.149,1.622,1.2l-.992.469" transform="translate(-538.753 -426.793)" fill="#aaa"/>
    <path id="Path_5578" data-name="Path 5578" d="M596.7,140.73a1.426,1.426,0,0,0,.523.977c.617.562,1.2,1.157,1.8,1.738a.629.629,0,0,1,.041.855,29.653,29.653,0,0,1-2.58-2.492,2.845,2.845,0,0,1-.377-.682,1.675,1.675,0,0,1,.589-.4" transform="translate(-522.783 -123.419)" fill="#aaa"/>
    <path id="Path_5579" data-name="Path 5579" d="M675.2,90.685c-.5-.862-1.4-1.357-1.976-2.154-.082-.114-.172-.223-.258-.334l.49-.372a23.251,23.251,0,0,0,2.208,2.214c.036.352-.171.53-.464.646" transform="translate(-590.185 -77.022)" fill="#aaa"/>
    <path id="Path_5580" data-name="Path 5580" d="M633.19,469.541c-.415-.038-.6.3-.845.528-.179.167-.348.345-.532.505a.261.261,0,0,1-.383-.031c-.1-.1-.219-.178-.155-.359a3.457,3.457,0,0,1,2.036-1.381,1.157,1.157,0,0,1-.122.738" transform="translate(-553.61 -411.138)" fill="#aaa"/>
    <path id="Path_5581" data-name="Path 5581" d="M606.1,503.158a1.694,1.694,0,0,0-.276-.1c-.2-.037-.381-.152-.394-.335-.02-.278.237-.4.44-.536a.315.315,0,0,1,.478.09.821.821,0,0,0,.638.422l-.886.459" transform="translate(-530.956 -440.351)" fill="#aaa"/>
    <path id="Path_5582" data-name="Path 5582" d="M642.635,482.894c-.289-.443-.318-.839.209-1.132l-.209,1.132" transform="translate(-563.407 -422.503)" fill="#aaa"/>
    <path id="Path_5583" data-name="Path 5583" d="M628.012,139.62c.062.055.042.312.21.1.1-.125-.012-.269-.031-.4a1.973,1.973,0,0,1,.815-2.177c.519-.316.383-.886.625-1.3a.57.57,0,0,1,.163.5,1.114,1.114,0,0,0,.832,1.185c.154.05.307.109.363.287a28.453,28.453,0,0,1-3.149,3.206,1.2,1.2,0,0,1-1.9-.243c.015-.014.031-.04.044-.038a1.7,1.7,0,0,0,1.916-1.07c.012-.03.068-.035.109-.039" transform="translate(-548.948 -119.127)" fill="#aaa"/>
    <path id="Path_5584" data-name="Path 5584" d="M782.56,16.333c-1.308,1.812-2.253,3.8-4.14,5.034-.518.337-1.132.724-1.7.291-.582-.446-.305-1.134-.1-1.709a37.279,37.279,0,0,1,1.83-3.531.406.406,0,0,1,.343-.215,12.368,12.368,0,0,1,3.765.13" transform="translate(-680.876 -14.128)" fill="#f4f4f4"/>
    <path id="Path_5585" data-name="Path 5585" d="M479.367,258.795a1.352,1.352,0,0,1-1.363-1.4,1.379,1.379,0,0,1,1.444-1.409,1.451,1.451,0,0,1,1.361,1.451,1.4,1.4,0,0,1-1.441,1.359" transform="translate(-419.207 -224.497)" fill="#f4f4f4"/>
    <path id="Path_5586" data-name="Path 5586" d="M515.938,232.135a1.375,1.375,0,0,1-1.45,1.4,1.446,1.446,0,0,1-1.363-1.434,1.431,1.431,0,0,1,1.441-1.371,1.337,1.337,0,0,1,1.372,1.4" transform="translate(-450.008 -202.352)" fill="#f4f4f4"/>
    <path id="Path_5587" data-name="Path 5587" d="M443.677,281.725a1.4,1.4,0,0,1,1.436,1.433,1.527,1.527,0,0,1-1.3,1.389,1.484,1.484,0,0,1-1.53-1.433,1.373,1.373,0,0,1,1.4-1.389" transform="translate(-387.876 -247.072)" fill="#f4f4f4"/>
    <path id="Path_5588" data-name="Path 5588" d="M622.636,155.54c-.422,1.142-.937,1.428-2.07,1.148a2.443,2.443,0,0,1-.713-.761q-.021-.427-.041-.855a1.422,1.422,0,0,1,2.535-.492,1.951,1.951,0,0,1,.289.96" transform="translate(-543.572 -135.047)" fill="#f4f4f4"/>
    <path id="Path_5589" data-name="Path 5589" d="M550.218,207.928a1.4,1.4,0,1,1,.007-2.8,1.449,1.449,0,0,1,1.412,1.407,1.419,1.419,0,0,1-1.418,1.391" transform="translate(-481.299 -179.898)" fill="#f4f4f4"/>
    <path id="Path_5590" data-name="Path 5590" d="M690.886,103.977l.464-.646a1.406,1.406,0,0,1,2.125,1.777,1.464,1.464,0,0,1-1.864.56c-.238-.114-.564-.124-.583-.5a1.943,1.943,0,0,1-.142-1.2" transform="translate(-605.875 -90.315)" fill="#f4f4f4"/>
    <path id="Path_5591" data-name="Path 5591" d="M587.043,181.074a1.347,1.347,0,0,1-1.376,1.4,1.405,1.405,0,0,1-1.43-1.38,1.424,1.424,0,0,1,1.409-1.4,1.342,1.342,0,0,1,1.4,1.378" transform="translate(-512.372 -157.592)" fill="#f4f4f4"/>
    <path id="Path_5592" data-name="Path 5592" d="M657.038,131.048c-1.257-.373-1.495-.718-1.358-1.969a1.547,1.547,0,0,1,.986-.873,1.362,1.362,0,0,1,1.679.588.8.8,0,0,1,.072.91c-.1.821-.685,1.136-1.379,1.344" transform="translate(-574.997 -112.37)" fill="#f4f4f4"/>
    <path id="Path_5593" data-name="Path 5593" d="M665.692,123.269c-.089-1.121-.5-1.476-1.751-1.5a4.19,4.19,0,0,1,1.691-.364,1.9,1.9,0,0,0,1.794-.614l.583.5c-.5,0-.7.419-.973.724a6.743,6.743,0,0,1-1.344,1.256" transform="translate(-582.273 -105.935)" fill="#aaa"/>
  </g>
</svg>
