<svg xmlns="http://www.w3.org/2000/svg" width="80.95" height="80.594" viewBox="0 0 80.95 80.594">
  <path id="Path_5605" data-name="Path 5605" d="M0,41.79V39.271a4.338,4.338,0,0,0,.046-.976,30.909,30.909,0,0,1,.975-7.366A43.425,43.425,0,0,1,2.863,25.2c.512-1.176,1.054-2.338,1.642-3.478a41.456,41.456,0,0,1,2.264-3.793,39.6,39.6,0,0,1,4.564-5.653,41.785,41.785,0,0,1,8.856-6.921c.506-.244.976-.555,1.483-.8C22.834,3.971,24,3.4,25.21,2.9A39.186,39.186,0,0,1,35.761.2,50.46,50.46,0,0,1,42.849.056,37.874,37.874,0,0,1,58.51,4.162a43.156,43.156,0,0,1,4.4,2.526c1,.715,2.015,1.407,2.961,2.2.279.212.525.466.817.663a41.16,41.16,0,0,1,9.752,12.179c.586,1.139,1.124,2.3,1.641,3.473a39.958,39.958,0,0,1,2.7,10.543,21.456,21.456,0,0,1,.117,2.463,5.049,5.049,0,0,0,.046,1.066V41.34a5.9,5.9,0,0,0-.046,1.142,31.232,31.232,0,0,1-1.578,9.387,33.373,33.373,0,0,1-1.511,4.078,31.917,31.917,0,0,1-1.546,3.2,9.154,9.154,0,0,1-.827,1.739,49.685,49.685,0,0,1-4.468,6.246,38.094,38.094,0,0,1-4.41,4.35A54.415,54.415,0,0,1,61.1,75.342,37.052,37.052,0,0,1,54.96,78.3a46.822,46.822,0,0,1-7.207,2.054,15.111,15.111,0,0,1-2.411.216,24.383,24.383,0,0,1-6.992-.691,20.518,20.518,0,0,1-7.757-3.725,18.608,18.608,0,0,1-3.889-4.162,16.109,16.109,0,0,1-2.606-6.9A4.119,4.119,0,0,0,24,64.2a11.237,11.237,0,0,1,.127-2.851c.089-.543.165-1.089.275-1.628a2.067,2.067,0,0,0,.25-.57,14.323,14.323,0,0,1,1.521-3.424c.492-.8.545-.624-.036-1.425a21.854,21.854,0,0,1-1.25-2.167q-.353-1-.7-2A15.225,15.225,0,0,1,23.8,48.4a14.681,14.681,0,0,1,.176-5.217c.113-.57.316-1.115.455-1.678.393-.738.631-1.549,1.086-2.261.33-.517.649-1.04,1.014-1.533.671-.868,1.438-1.651,2.189-2.447.41-.355.693-.826,1.1-1.187,1.586-1.687,3.16-3.384,4.745-5.071,1.084-1.154,2.137-2.337,3.254-3.461.368-.37.469-.372.84.019.422.444.808.921,1.254,1.342a11.068,11.068,0,0,0,1,1.091c.178.2.315.161.483-.009.484-.491.973-.976,1.461-1.463q1.844-1.843,3.688-3.686a2.98,2.98,0,1,1,4.469,3.944c-.836.806-1.646,1.639-2.468,2.459-.4.388-.793.786-1.184,1.184-.64.631-1.269,1.274-1.91,1.9-.2.193-.289.359-.055.6,1.5,1.551,2.917,3.172,4.393,4.741.619.658.527.648,1.157.012q2.392-2.372,4.765-4.763.349-.334.679-.686a2.955,2.955,0,0,1,4.933,1.5,3.2,3.2,0,0,1-.985,2.975c-1.872,1.835-3.713,3.7-5.566,5.555-.42.42-.414.416,0,.844.821.851,1.582,1.757,2.412,2.6.324.329.309.467,0,.8-1.375,1.48-2.736,2.973-4.143,4.422-.3.311-.555.668-.878.96-.076.074-.151.147-.225.223-1.116,1.25-2.307,2.43-3.414,3.689a15.526,15.526,0,0,1-5.6,3.831,13.973,13.973,0,0,1-8.3.525A16.332,16.332,0,0,1,31.7,59.078c-.392-.192-.427-.163-.7.388a9.15,9.15,0,0,0-.977,3.13,8.519,8.519,0,0,0,.592,4.1A9.766,9.766,0,0,0,32.4,69.669c.105.125.212.249.309.381a9.736,9.736,0,0,0,1.624,1.464A14.2,14.2,0,0,0,37.6,73.39a15.89,15.89,0,0,0,5.014,1.155,15.833,15.833,0,0,0,4.868-.267c1.626-.413,3.248-.828,4.835-1.377,1.206-.417,2.363-.942,3.518-1.473a31.239,31.239,0,0,0,3.3-1.9c.6-.414,1.215-.8,1.795-1.237.068-.048.138-.092.2-.143a30.8,30.8,0,0,0,4.417-3.875A29.524,29.524,0,0,0,68.215,61a39.374,39.374,0,0,0,3.226-5.217,29.873,29.873,0,0,0,1.607-3.755c.193-.541.369-1.089.541-1.637a23.5,23.5,0,0,0,.888-3.662c.119-.519.189-1.046.273-1.572a28.407,28.407,0,0,0,.305-5.041,11.509,11.509,0,0,0-.039-1.7,36.879,36.879,0,0,0-.951-6.276c-.084-.365-.227-.709-.335-1.064a3.6,3.6,0,0,0-.147-.692c-.16-.544-.352-1.077-.533-1.614a20.079,20.079,0,0,0-.825-2.009,1.133,1.133,0,0,1-.2-.414A6.155,6.155,0,0,0,71.439,25c-.259-.558-.58-1.082-.887-1.614a8.185,8.185,0,0,0-.465-.82c-.6-.939-1.189-1.884-1.879-2.761a33.687,33.687,0,0,0-7.1-7.088,34.765,34.765,0,0,0-5.292-3.239,31.213,31.213,0,0,0-3.77-1.6c-.554-.232-1.143-.356-1.711-.543a25.133,25.133,0,0,0-3.678-.862c-.571-.095-1.138-.21-1.714-.27a14.109,14.109,0,0,0-1.8-.179,3.5,3.5,0,0,0-.754-.082c-1.268-.039-2.535-.037-3.8.019-.851.038-1.7.134-2.541.242-.584.054-1.158.177-1.738.257a28.037,28.037,0,0,0-3.681.873,32.122,32.122,0,0,0-4.139,1.513,11.31,11.31,0,0,0-1.361.638c-.585.262-1.142.578-1.7.894-.268.16-.547.3-.812.466-.985.616-1.949,1.264-2.882,1.958a34,34,0,0,0-6.995,7,34.5,34.5,0,0,0-3.227,5.22A29.13,29.13,0,0,0,7.89,28.831,34.58,34.58,0,0,0,7.8,51.868a29.6,29.6,0,0,0,1.617,3.907,34.594,34.594,0,0,0,3.23,5.294,33.467,33.467,0,0,0,7.193,7.2c.383.313.8.588,1.2.876a3.48,3.48,0,0,1,.914.916,2.857,2.857,0,0,1,.443,1.831,2.989,2.989,0,0,1-1.825,2.427,2.419,2.419,0,0,1-1.83.093,11.954,11.954,0,0,1-3.3-1.968c-.177-.137-.357-.272-.523-.423a6.678,6.678,0,0,0-.586-.5,44.8,44.8,0,0,1-6.4-6.754c-.227-.417-.536-.776-.8-1.166-.144-.228-.3-.449-.456-.669a38.378,38.378,0,0,1-2.166-3.687A33.453,33.453,0,0,1,2.845,55.7a39.832,39.832,0,0,1-2.609-9.85,25.923,25.923,0,0,1-.189-3.08A4.329,4.329,0,0,0,0,41.79" transform="translate(0 0)" fill="#aaa"/>
</svg>
