<svg id="Group_5379" data-name="Group 5379" xmlns="http://www.w3.org/2000/svg" width="75.333" height="90.437" viewBox="0 0 75.333 90.437">
  <path id="Path_9535" data-name="Path 9535" d="M160.732,0a4.855,4.855,0,0,1,.374,1.283q.071,14.458.091,28.916a1.683,1.683,0,0,1-.042.312l-4.056.356c-.926-1.451-2.048-3-2.9-4.649a3.321,3.321,0,0,1,.077-2.134q2.675-11.532,5.419-23.054A7.508,7.508,0,0,1,160.1,0Z" transform="translate(-121.81)" fill="#aaa"/>
  <path id="Path_9536" data-name="Path 9536" d="M233.156,224.677c-.483.7-1.075.356-1.64.1q-8.979-4.043-17.95-8.1c-4.367-1.983-8.712-4-13.065-6-.326-.15-.642-.313-.911-.445l1.6-2.875c2.835.087,5.787-.012,8.336,1.7,3.989,2.678,8.126,5.212,12.181,7.827,3.829,2.47,7.632,4.967,11.447,7.451Z" transform="translate(-157.824 -172.38)" fill="#aaa"/>
  <path id="Path_9537" data-name="Path 9537" d="M0,230.5c2.211-1.16,4.373-2.387,6.642-3.467,8.356-3.979,16.747-7.911,25.127-11.857.322-.152.667-.274.983-.4L35,217.079c-1.27,1.432-2.57,2.911-3.895,4.375a1.5,1.5,0,0,1-.623.287q-13.845,4.337-27.706,8.644A14.34,14.34,0,0,1,0,230.67V230.5" transform="translate(0 -178.541)" fill="#aaa"/>
  <path id="Path_9538" data-name="Path 9538" d="M159.307,229.439c.091,1.125.2,2.3.278,3.466.3,4.431.577,8.863.9,13.293.45,6.224.938,12.446,1.4,18.67.31,4.206.594,8.413.9,12.619.056.785.181,1.569.178,2.353a.85.85,0,0,1-.547.623,25.416,25.416,0,0,1-11.733.04c-.713-.161-.693-.5-.661-.944.3-4.122.577-8.245.877-12.366.319-4.374.657-8.747.985-13.12q.713-9.5,1.423-19.008a30.674,30.674,0,0,1,.272-3.277,6.264,6.264,0,0,1,.873-1.818.874.874,0,0,1,.592-.273c1.366-.1,2.735-.17,4.273-.259" transform="translate(-118.611 -190.732)" fill="#aaa"/>
  <path id="Path_9539" data-name="Path 9539" d="M165.878,193.013c0-1.578,1.163-2.6,2.962-2.609,2.05-.01,3.547,1.118,3.524,2.655a3.055,3.055,0,0,1-3.311,2.674c-1.977-.009-3.178-1.039-3.175-2.72" transform="translate(-131.167 -158.282)" fill="#aaa"/>
</svg>
