<svg xmlns="http://www.w3.org/2000/svg" xmlns:xlink="http://www.w3.org/1999/xlink" width="102.708" height="87.381" viewBox="0 0 102.708 87.381">
  <defs>
    <clipPath id="clip-path">
      <rect id="Rectangle_1024" data-name="Rectangle 1024" width="102.708" height="87.381" fill="#aaa"/>
    </clipPath>
  </defs>
  <g id="Group_5309" data-name="Group 5309" clip-path="url(#clip-path)">
    <path id="Path_5618" data-name="Path 5618" d="M0,22.517c.107-.749.2-1.5.325-2.245a24.32,24.32,0,0,1,10.3-16.5A25,25,0,0,1,18.3.153c.213-.06.431-.105.649-.152.029-.006.065.017.1.027.013.035.045.077.034.1-.757,1.7-.533,3.5-.563,5.275-.076,4.423-.123,8.847-.207,13.271-.009.469.15.637.579.75q11.141,2.95,22.274,5.925,12.323,3.281,24.648,6.559,10.278,2.732,20.558,5.457,7.237,1.925,14.469,3.865c.016,0,.029.023.092.077a8.519,8.519,0,0,0-.084.945,6.965,6.965,0,0,0,.1,1.661,2.726,2.726,0,0,1-2.167,3.466,1.3,1.3,0,0,0-.2.069L97.635,57.6l2.459-1.963,2.613,3.163v.112c-1.309,1.04-2.613,2.086-3.931,3.115a.64.64,0,0,0-.26.8c.645,2.17,1.219,4.363,1.906,6.519.544,1.71.711,3.561,1.865,5.158A15.586,15.586,0,0,1,88.45,70.311c-1.382,1.113-2.717,2.209-4.078,3.273-.556.434-1.082.839-.982,1.656a.88.88,0,0,1-.133.534A2.967,2.967,0,0,0,82.95,77.5c.008,1.09,0,2.18,0,3.33h4.04V86.3H91.32v1.078H7.145V86.266h4.988L9.183,59.528c-.516.251-.949.2-1.158-.215a1.276,1.276,0,0,1-.038-.967A6.513,6.513,0,0,0,8.662,54.8c-.062-.46-.121-.92-.172-1.382q-.62-5.648-1.232-11.3a1.962,1.962,0,0,0-.542-1.175A24.526,24.526,0,0,1,.38,28.218C.233,27.326.126,26.427,0,25.531V22.517M84.8,54.066a16,16,0,0,0,1.394.943c2.761,1.454,5.533,2.887,8.3,4.325a1.1,1.1,0,0,0,1.605-.919c.323-3.367.614-6.738,1-10.1a1.745,1.745,0,0,0-.921-1.939,40.289,40.289,0,0,0-7.377-3.529,178.485,178.485,0,0,0-20.625-6.018C61.434,35.2,54.661,33.661,47.9,32.078c-1-.235-2-.5-3-.749v2.916h2.266v2.869h2.8v6.438H48.1l8.162,42.694H77.434v-7.1L72.878,82.8l-2.6-3.246c.183-.159.318-.284.461-.4,1.741-1.394,3.489-2.78,5.219-4.189a1.088,1.088,0,0,0,.362-.639,3.532,3.532,0,0,1,4-3.284,1.258,1.258,0,0,0,.8-.237c1.467-1.14,2.9-2.323,4.368-3.464.34-.265.422-.467.209-.864a14.562,14.562,0,0,1-1.614-9.008c.152-1.142.474-2.261.723-3.41m-67.934-30.2c-2.832,4.85-5.682,9.64-8.419,14.494A9.025,9.025,0,0,0,7.482,41.7a13.939,13.939,0,0,0,.261,3.044c.358,3.251.7,6.5,1.1,9.751.169,1.375.468,2.735.7,4.1a1.807,1.807,0,0,1,.014.381A9.4,9.4,0,0,0,9.5,60.328q.712,6.79,1.463,13.576c.429,3.915.886,7.826,1.292,11.743.057.547.238.657.745.655,5.56-.017,11.12-.011,16.681-.011h.666l7.526-42.754H35.959V37.071h2.873v-2.89h2.1V30.248L16.868,23.866m35.59,50.112L34.016,86.248H54.832L52.459,73.978M34.288,72.23H50.757L36.434,59.881,34.288,72.23M50.207,73.8c-.18-.042-.2-.05-.216-.05q-7.8-.007-15.6-.019c-.344,0-.423.141-.475.449-.495,2.89-1.01,5.777-1.515,8.666-.174,1-.335,2-.524,3.132L50.207,73.8M47.159,46.071,47,46.04,38.4,58.08H49.427l-2.268-12.01M38.194,59.53l13.7,11.8a2.526,2.526,0,0,0,0-.37c-.7-3.684-1.413-7.367-2.1-11.053-.069-.365-.272-.376-.551-.376-1.637,0-3.273,0-4.91,0H38.194m8.566-15.99c-2.362,0-4.554.023-6.745-.016-.578-.01-.761.192-.852.723-.57,3.312-1.171,6.619-1.755,9.928-.206,1.166-.393,2.334-.589,3.5a.376.376,0,0,0,.248-.165q4.716-6.6,9.425-13.206a3.394,3.394,0,0,0,.268-.766M94.393,64.032a1.113,1.113,0,0,0,1.031-1.162,1.076,1.076,0,0,0-1.15-.966,1.052,1.052,0,0,0-1.034,1.081,1.135,1.135,0,0,0,1.153,1.047M79.667,75.78a1.041,1.041,0,0,0,1.152-1,1.077,1.077,0,1,0-1.152,1" transform="translate(0 0)" fill="#aaa"/>
  </g>
</svg>
