<svg xmlns="http://www.w3.org/2000/svg" xmlns:xlink="http://www.w3.org/1999/xlink" width="79.464" height="68.153" viewBox="0 0 79.464 68.153">
  <defs>
    <clipPath id="clip-path">
      <rect id="Rectangle_1025" data-name="Rectangle 1025" width="79.464" height="68.153" fill="#aaa"/>
    </clipPath>
  </defs>
  <g id="Group_5311" data-name="Group 5311" clip-path="url(#clip-path)">
    <path id="Path_5619" data-name="Path 5619" d="M0,139.8A15.684,15.684,0,0,1,.385,138a9.977,9.977,0,0,1,7.95-7.062,20.962,20.962,0,0,1,3-.171v56.783A10.055,10.055,0,0,1,.77,181.464,16.072,16.072,0,0,1,.082,178.9c-.021-.079-.055-.155-.082-.233V139.8" transform="translate(0 -119.475)" fill="#aaa"/>
    <path id="Path_5620" data-name="Path 5620" d="M800.1,178.928a16.278,16.278,0,0,1-.626,2.528,9.83,9.83,0,0,1-7.851,6.36,26.869,26.869,0,0,1-2.858.16V131.183a11.25,11.25,0,0,1,4.46.458,10.1,10.1,0,0,1,6.674,7.419c.088.357.135.725.2,1.087Z" transform="translate(-720.641 -119.824)" fill="#aaa"/>
    <path id="Path_5621" data-name="Path 5621" d="M228.856,68.09H180.583V11.338h7.124c0-.481,0-.922,0-1.364,0-1.929-.021-3.858.014-5.786A4.177,4.177,0,0,1,189.809.541,3.946,3.946,0,0,1,191.951,0q12.76,0,25.521.006a4.133,4.133,0,0,1,4.118,3.1,4.334,4.334,0,0,1,.132,1.064c.012,2.216.006,4.432.007,6.648v.505h7.128ZM199.063,34.056H189.41c-1.218,0-1.7.479-1.7,1.695q0,3.972,0,7.945c0,1.235.442,1.7,1.685,1.7,2.573.009,5.147,0,7.72,0h1.948v.575q0,3.778,0,7.556c0,.647-.01,1.3.029,1.941a1.3,1.3,0,0,0,1.379,1.3q4.253.007,8.505,0a1.312,1.312,0,0,0,1.366-1.265c.019-.2.027-.4.028-.6q0-4.469,0-8.938V45.4h.416c3.146,0,6.291,0,9.437-.017a1.344,1.344,0,0,0,1.5-1.531q0-4.1,0-8.2a1.4,1.4,0,0,0-1.586-1.593h-9.766c0-.193,0-.335,0-.477q0-3.238,0-6.477c0-.95.011-1.9,0-2.85a1.358,1.358,0,0,0-1.541-1.534q-4.139-.018-8.279-.014a1.33,1.33,0,0,0-1.4.926,2.976,2.976,0,0,0-.083.81q-.008,4.555,0,9.111v.5M216.049,5.747H193.384v5.57h22.665Z" transform="translate(-164.985 0)" fill="#aaa"/>
  </g>
</svg>
