<svg xmlns="http://www.w3.org/2000/svg" width="111.205" height="77.452" viewBox="0 0 111.205 77.452">
  <g id="Group_5380" data-name="Group 5380" transform="translate(-1204.953 -3020.399)">
    <path id="Path_9540" data-name="Path 9540" d="M0,87.769H111.205c-2.835,8.339-5.6,16.465-8.447,24.845a11.931,11.931,0,0,1-1.176-1.131c-1.633-2.133-3.058-2.109-5.1-.248a17.607,17.607,0,0,1-4.926,3.528c-4.172,1.681-8.252-.048-11.486-4.411-1.9-2.559-3.106-2.652-5.286-.334-2.909,3.094-6.246,5.5-10.616,3.749-2.029-.815-3.683-2.754-5.273-4.409-.933-.971-1.347-2.421-2.1-3.589-1.281-1.989-3.468-1.979-4.762.019-.756,1.166-1.363,2.428-2.094,3.611-3.62,5.855-9.6,6.662-14.718,1.995-.549-.5-1.065-1.041-1.592-1.568-1.484-1.485-2.869-1.281-4.227.2-1.106,1.2-2.26,2.364-3.383,3.553-.946,1-1.749.921-2.68-.116q-8.7-9.681-17.46-19.3C4.077,92.176,2.249,90.213,0,87.769m15.9,8h5.569c-.076-.964-.136-1.736-.193-2.456H15.9Zm14.291.057a6.9,6.9,0,0,0,.149-1.254,8.844,8.844,0,0,0-.276-1.3c-5.592-.483-5.749-.4-5.016,2.549Z" transform="translate(1204.953 2976.272)" fill="#aaa"/>
    <path id="Path_9541" data-name="Path 9541" d="M43.644,38.258c3.1-3.715,5.966-7.207,8.916-10.626a2.654,2.654,0,0,1,1.938-.984c3.794.716,6.006-1.477,8.019-4.1,1.577-2.059,3.1-3.651,6.214-3.653,1.462,0,3.334-2.237,4.3-3.883,2-3.41,4.623-4.442,8.493-4.174,5.261.364,10.566.091,16.012.091V4.6c-2.419,0-4.8.087-7.166-.052-.728-.043-1.419-.705-2.127-1.083.67-.415,1.3-1.091,2.019-1.19a34.706,34.706,0,0,1,4.216-.061c1.5-.022,2.96.282,4.06-1.466.732-1.162,2.09-.929,3.043.391a2.7,2.7,0,0,0,1.769,1.03c2.146.126,4.31-.04,6.453.111.585.041,1.12.807,1.677,1.24-.554.359-1.1,1-1.664,1.027-2.629.111-5.265.049-8.041.049v6.24h21.638V26.36l.711-.449a19.439,19.439,0,0,1,2.986,2.9c2,2.985,3.807,6.1,5.859,9.445Zm71.268-23.443h-9.117c.974,1.466,1.467,3.022,2.178,3.129a47.507,47.507,0,0,0,6.939.123ZM55.386,34.05H63.51V31.13H55.386Zm13.5.023h8.175V31.157H68.89ZM82.3,34.1h8.216V31.136H82.3ZM88.12,14.738H79.912v2.973H88.12Zm5.189,3.02h8.314c-.05-1.143-.091-2.075-.13-2.96H93.31Zm2.4,16.348h8.235V31.122H95.714Zm21.723-3.017H109.2v3.046h8.236ZM68.285,23.114c.06,1.146.1,2.009.145,2.782h8.4c-.058-1.064-.1-1.922-.151-2.782Zm26.983,2.78h8.263v-2.75H95.268Zm21.842-2.782h-8.162v2.811h8.162Zm-34.9,2.744h7.848V23.233H82.213Z" transform="translate(1183.011 3020.399)" fill="#aaa"/>
    <path id="Path_9542" data-name="Path 9542" d="M11.38,137.983l5.6-4.332c6.4,4.8,13.353,5.751,20.414-2.812,3.553,3.294,7.18,6.128,12.626,5,5.357-1.105,7.689-5.151,10.069-9.726,2.5,4.582,4.86,8.715,10.277,9.67,5.484.967,9.242-1.761,12.668-5.422,5.933,8.241,14.712,9.233,21.538,1.5a40.759,40.759,0,0,0,3.883,4c1.383,1.1,3.06,1.83,4.475,3.075l-8.335-3.769c-7.022,6.425-13.743,6.976-21.679,1.554-7.225,5.7-15.957,5.539-22.412-.713-2.848,1.433-5.451,3.167-8.315,4.086a14.016,14.016,0,0,1-13.077-2.355c-1.063-.789-1.808-1.064-2.988-.251a14.736,14.736,0,0,1-19.15-1.758l-5.392,2.615-.2-.369" transform="translate(1199.232 2956.992)" fill="#aaa"/>
    <path id="Path_9543" data-name="Path 9543" d="M31.98,101.383V98.927h5.377c.056.72.117,1.492.192,2.456Z" transform="translate(1188.875 2970.663)" fill="#f4f4f4"/>
    <path id="Path_9544" data-name="Path 9544" d="M55.205,101.178H50.062c-.733-2.952-.576-3.033,5.016-2.549a8.845,8.845,0,0,1,.276,1.3,6.9,6.9,0,0,1-.149,1.254" transform="translate(1179.941 2970.925)" fill="#f4f4f4"/>
    <path id="Path_9545" data-name="Path 9545" d="M177.752,29.794v3.252a47.506,47.506,0,0,1-6.939-.123c-.712-.107-1.205-1.663-2.179-3.129Z" transform="translate(1120.172 3005.42)" fill="#f4f4f4"/>
    <rect id="Rectangle_1314" data-name="Rectangle 1314" width="8.124" height="2.921" transform="translate(1238.397 3051.529)" fill="#f4f4f4"/>
    <rect id="Rectangle_1315" data-name="Rectangle 1315" width="8.175" height="2.916" transform="translate(1251.901 3051.556)" fill="#f4f4f4"/>
    <rect id="Rectangle_1316" data-name="Rectangle 1316" width="8.216" height="2.961" transform="translate(1265.308 3051.535)" fill="#f4f4f4"/>
    <rect id="Rectangle_1317" data-name="Rectangle 1317" width="8.208" height="2.973" transform="translate(1262.923 3035.136)" fill="#f4f4f4"/>
    <path id="Path_9546" data-name="Path 9546" d="M143.526,32.72V29.76h8.184c.039.884.08,1.817.131,2.96Z" transform="translate(1132.795 3005.437)" fill="#f4f4f4"/>
    <rect id="Rectangle_1318" data-name="Rectangle 1318" width="8.235" height="2.983" transform="translate(1278.725 3051.521)" fill="#f4f4f4"/>
    <rect id="Rectangle_1319" data-name="Rectangle 1319" width="8.236" height="3.046" transform="translate(1292.212 3051.487)" fill="#f4f4f4"/>
    <path id="Path_9547" data-name="Path 9547" d="M93.2,46.483h8.4c.047.859.093,1.718.151,2.782h-8.4c-.04-.773-.085-1.636-.145-2.782" transform="translate(1158.097 2997.029)" fill="#f4f4f4"/>
    <rect id="Rectangle_1320" data-name="Rectangle 1320" width="8.263" height="2.75" transform="translate(1278.279 3043.541)" fill="#f4f4f4"/>
    <rect id="Rectangle_1321" data-name="Rectangle 1321" width="8.162" height="2.811" transform="translate(1291.959 3043.51)" fill="#f4f4f4"/>
    <rect id="Rectangle_1322" data-name="Rectangle 1322" width="7.848" height="2.621" transform="translate(1265.224 3043.632)" fill="#f4f4f4"/>
  </g>
</svg>
