<svg xmlns="http://www.w3.org/2000/svg" width="72.888" height="84.509" viewBox="0 0 72.888 84.509">
  <g id="Group_5315" data-name="Group 5315" transform="translate(-0.002)">
    <path id="Path_5623" data-name="Path 5623" d="M403.044,831.976l-2.555-.345c-.056-.007-.111-.016-.179-.026,2.558-5.974,5.428-11.825,6.509-18.325a27.79,27.79,0,0,0,5.834,2.819,6.167,6.167,0,0,1-.3.713c-1.614,2.814-3.214,5.636-4.862,8.429-1.335,2.262-2.73,4.486-4.1,6.729Z" transform="translate(-375.273 -747.468)" fill="#aaa"/>
    <path id="Path_5624" data-name="Path 5624" d="M614.945,85.29c.351,1.408.652,2.734,1.016,4.042a31.219,31.219,0,0,0,2.761,7.124,9.5,9.5,0,0,0,2.218,2.665,4.853,4.853,0,0,1,1.523,5.343c-.063.25-.156.493-.231.739-.652,2.147-2.295,2.889-4.339,3a5.289,5.289,0,0,1-5.71-3.937,16.876,16.876,0,0,1-.851-5.294,27.958,27.958,0,0,1,1.52-10.121,9.461,9.461,0,0,1,1.731-3.151C614.687,85.584,614.791,85.466,614.945,85.29Z" transform="translate(-568.082 -82.281)" fill="#aaa"/>
    <path id="Path_5625" data-name="Path 5625" d="M423.448,551.29c.345.474.671.921.992,1.374,2.447,3.459,4.936,6.892,7.059,10.565,1.348,2.334,1.266,2.055.712,4.8a7.672,7.672,0,0,1-1.122,2.777,3.11,3.11,0,0,1-2.227,1.467c-1.009.139-2,.383-3.019.48-2.277.217-3.5-.856-3.716-3.163a31.644,31.644,0,0,1,.229-6.235c.287-2.771.666-5.532.949-8.3C423.425,553.825,423.4,552.586,423.448,551.29Z" transform="translate(-395.136 -508.079)" fill="#aaa"/>
    <path id="Path_5626" data-name="Path 5626" d="M615.43,545.829a19.1,19.1,0,0,0,5.149-.308,9.4,9.4,0,0,0,3.446-1.618,7.1,7.1,0,0,1,.826-.544,1.544,1.544,0,0,1,.487-.079,1.263,1.263,0,0,1,.009.485,10.276,10.276,0,0,1-.631,1.316,28.221,28.221,0,0,1-3.358,4.473c-1.061,1.188-2.07,2.416-3.106,3.633-.3.35-.576.718-.88,1.062a4.894,4.894,0,0,1-3.293,1.669c-1.668.173-3.325.458-4.99.675a10.974,10.974,0,0,1-1.627.107c-.81-.015-1.138-.335-1.226-1.134a14.409,14.409,0,0,1,.117-4.845,4.57,4.57,0,0,1,.593-1.115,6.4,6.4,0,0,0,.355-.572,4.731,4.731,0,0,1,3.8-2.9C612.523,545.907,613.985,545.921,615.43,545.829Z" transform="translate(-563.299 -500.76)" fill="#aaa"/>
    <path id="Path_5627" data-name="Path 5627" d="M694.032,403.479c-.806,1.005-1.583,2.035-2.423,3.01q-2.853,3.308-5.765,6.571a12.153,12.153,0,0,1-7.139,3.577,4.2,4.2,0,0,1-1.116.03,1.487,1.487,0,0,1-1.192-.6,8.038,8.038,0,0,1-1.443-5.866,1.448,1.448,0,0,1,.106-.416,9.423,9.423,0,0,1,2.009-3.207,5.8,5.8,0,0,1,3.543-1.281c1.634-.078,3.274-.021,4.908-.1a24.065,24.065,0,0,0,7.75-1.446c.24-.094.47-.211.7-.318Z" transform="translate(-626.132 -372.975)" fill="#aaa"/>
    <path id="Path_5628" data-name="Path 5628" d="M482.831,407.26c.556.975,1.084,1.86,1.574,2.761,1.835,3.38,3.71,6.742,5.459,10.163a26.9,26.9,0,0,1,1.367,3.841,1.052,1.052,0,0,1-.51,1.339,12.865,12.865,0,0,1-6.575,1.89,2.411,2.411,0,0,1-2.221-1.445,17.532,17.532,0,0,1-1.571-5.565,20.97,20.97,0,0,1,1.974-12.021C482.474,407.928,482.632,407.642,482.831,407.26Z" transform="translate(-448.254 -376.475)" fill="#aaa"/>
    <path id="Path_5629" data-name="Path 5629" d="M746.78,50.41a57.233,57.233,0,0,1,.389,9.805A34.541,34.541,0,0,1,746.6,65a5.81,5.81,0,0,1-3.2,4.3,6.474,6.474,0,0,1-2.457.579,1.019,1.019,0,0,1-.921-.366,10.474,10.474,0,0,1-1.228-1.7c-.69-1.4-1.283-2.847-1.921-4.272a2.261,2.261,0,0,1,.091-1.954,16.648,16.648,0,0,1,2.51-3.7,80.845,80.845,0,0,1,7.052-7.271C746.579,50.556,746.649,50.51,746.78,50.41Z" transform="translate(-682.63 -50.41)" fill="#aaa"/>
    <path id="Path_5630" data-name="Path 5630" d="M547.649,254.47c.086.746.155,1.484.259,2.217a30.578,30.578,0,0,0,2.243,8.678,8.982,8.982,0,0,0,2.319,3.278,4.713,4.713,0,0,0,2.031.985,7.4,7.4,0,0,1,1.5.506c.509.239.556.613.135.983a8.524,8.524,0,0,1-1.193.84c-.721.443-1.474.837-2.189,1.29a2.1,2.1,0,0,0-1.184,1.543c-.045.4-.438.581-.8.7a4.63,4.63,0,0,1-2.88-.121,5.254,5.254,0,0,1-3.792-4.786,35.516,35.516,0,0,1,.272-9.15,14.038,14.038,0,0,1,2.886-6.591c.091-.111.188-.217.286-.323A.48.48,0,0,1,547.649,254.47Z" transform="translate(-506.502 -236.866)" fill="#aaa"/>
    <path id="Path_5631" data-name="Path 5631" d="M562.844,709.58c-2.674,3.481-5.3,7.015-8.835,9.729a9.879,9.879,0,0,1-4.223,2.14,4.468,4.468,0,0,1-5.236-5.325,5.157,5.157,0,0,1,4.076-4.185,13.814,13.814,0,0,1,3.882-.431,26.556,26.556,0,0,0,8.42-1.122C561.577,710.18,562.192,709.859,562.844,709.58Z" transform="translate(-506.987 -652.714)" fill="#aaa"/>
    <path id="Path_5632" data-name="Path 5632" d="M762.483,268.07c-.69.858-1.409,1.752-2.132,2.64a83.47,83.47,0,0,1-5.805,6.538,7.3,7.3,0,0,1-7.313,1.859c-2.729-.643-3.507-2.636-2.511-5.2a5.584,5.584,0,0,1,3.527-3.084,14.763,14.763,0,0,1,4.3-.781,38.09,38.09,0,0,0,7.074-.956C760.593,268.829,761.525,268.416,762.483,268.07Z" transform="translate(-689.593 -249.293)" fill="#aaa"/>
    <path id="Path_5633" data-name="Path 5633" d="M110.14,375.23c1.072.916,2.026,1.812,3.066,2.595s2.169,1.5,3.295,2.187a5.68,5.68,0,0,0,2.66.791,2.942,2.942,0,0,1,2.19,1.136,4.6,4.6,0,0,1,1.005,3.379,1.23,1.23,0,0,1-.114.411,4.02,4.02,0,0,1-6.243,1.6,13.3,13.3,0,0,1-3.246-3.763,17.037,17.037,0,0,1-2.6-6.507A13.071,13.071,0,0,1,110.14,375.23Z" transform="translate(-110.11 -347.208)" fill="#aaa"/>
    <path id="Path_5634" data-name="Path 5634" d="M170.34,733.76c.509.179,1.01.34,1.5.531,2.629,1.029,5.247,2.089,7.886,3.092a3.652,3.652,0,0,1,2.281,2.491,5.1,5.1,0,0,1,.377,2.607,2.237,2.237,0,0,1-.448,1,18.508,18.508,0,0,1-1.737,1.734c-1.208,1.055-2.286,1.016-3.321-.214a16.973,16.973,0,0,1-1.8-2.67c-1.053-1.892-2.013-3.836-3.045-5.74C171.518,735.638,170.921,734.73,170.34,733.76Z" transform="translate(-165.142 -674.808)" fill="#aaa"/>
    <path id="Path_5635" data-name="Path 5635" d="M306.149,568.779a6.42,6.42,0,0,1,.2.8,19.622,19.622,0,0,1-.267,5.358,25.9,25.9,0,0,0-.244,2.786,4.108,4.108,0,0,1-1.633,3.263c-.814.628-1.505,1.415-2.27,2.111a8.63,8.63,0,0,1-1.116.869.635.635,0,0,1-.926-.135c-.625-.89-1.26-1.778-1.812-2.715a3.3,3.3,0,0,1-.194-1.191c-.016-.127.016-.259-.011-.385a3.2,3.2,0,0,1,.87-3.058,21.989,21.989,0,0,1,2.527-2.061,13.246,13.246,0,0,0,3.127-2.674,17.9,17.9,0,0,0,1.175-2.184c.134-.259.246-.529.368-.794Z" transform="translate(-281.594 -524.051)" fill="#aaa"/>
    <path id="Path_5636" data-name="Path 5636" d="M285.671,460c-.04.619-.052,1.128-.109,1.632-.277,2.438-.545,4.878-.858,7.311a8.592,8.592,0,0,1-2.785,5.026,1.514,1.514,0,0,1-2.2.268,5.365,5.365,0,0,1-2.371-2.3,3.657,3.657,0,0,1-.3-.977,11.177,11.177,0,0,1-.1-1.241,3.572,3.572,0,0,1,1.348-2.863,15.267,15.267,0,0,1,1.743-1.329,21.462,21.462,0,0,0,5.025-4.615C285.253,460.648,285.421,460.369,285.671,460Z" transform="translate(-262.546 -424.665)" fill="#aaa"/>
    <path id="Path_5637" data-name="Path 5637" d="M155.27,620.26c1.052.506,2.025.96,2.985,1.438,1.7.843,3.412,1.653,5.071,2.567a37.9,37.9,0,0,1,3.207,2.086c.619.431.742.852.353,1.436-.666,1-1.386,1.968-2.139,2.9a3.419,3.419,0,0,1-1.035.757,1.533,1.533,0,0,1-1.565-.01,13.208,13.208,0,0,1-4.56-4.435A14.421,14.421,0,0,1,155.27,620.26Z" transform="translate(-151.372 -571.099)" fill="#aaa"/>
    <path id="Path_5638" data-name="Path 5638" d="M199.346,272.71a37.14,37.14,0,0,1,5.441,8,4.731,4.731,0,0,1,.317,3.8,3.981,3.981,0,0,1-1.526,1.928.824.824,0,0,1-.638.122,18.386,18.386,0,0,1-2.254-.933c-.647-.335-1.225-.8-1.848-1.184a1.609,1.609,0,0,1-.8-1.438,28.262,28.262,0,0,1,.129-3.778c.274-2.031.7-4.041,1.067-6.06C199.255,273.037,199.295,272.915,199.346,272.71Z" transform="translate(-190.446 -253.532)" fill="#aaa"/>
    <path id="Path_5639" data-name="Path 5639" d="M137.8,500.41c.663.731,1.253,1.414,1.878,2.064a17.78,17.78,0,0,0,4.278,3.451,4.311,4.311,0,0,0,4.232.335,2.157,2.157,0,0,1,.578-.167c.462-.086.675.122.55.572a8.519,8.519,0,0,1-.4,1.043c-.272.632-.575,1.252-.821,1.893a1.086,1.086,0,0,0-.05.751c.273.573,0,.939-.371,1.288a3.746,3.746,0,0,1-5.479-.363,42.361,42.361,0,0,1-3.019-4.5,10.035,10.035,0,0,1-1.428-5.858C137.75,500.768,137.773,500.621,137.8,500.41Z" transform="translate(-135.332 -461.589)" fill="#aaa"/>
    <path id="Path_5640" data-name="Path 5640" d="M329.16,695a41.108,41.108,0,0,1-1.012,8.305,9.483,9.483,0,0,1-1.587,3.6,3.168,3.168,0,0,1-3.526,1.162,3.5,3.5,0,0,1-2.231-3.1,4.226,4.226,0,0,1,1.486-3.265,10.736,10.736,0,0,1,1.522-1.26,20.144,20.144,0,0,0,4.63-4.286C328.7,695.813,328.9,695.431,329.16,695Z" transform="translate(-302.619 -639.392)" fill="#aaa"/>
    <path id="Path_5641" data-name="Path 5641" d="M272.466,356.88c-.063.8-.093,1.553-.186,2.306-.275,2.19-.512,4.392-.883,6.569a5.018,5.018,0,0,1-3.779,3.964c-1.717.557-2.819-.407-3.173-2.2a4.111,4.111,0,0,1,.88-3.192,18.166,18.166,0,0,1,2.911-2.8c1.16-1.066,2.278-2.183,3.371-3.319A8.264,8.264,0,0,0,272.466,356.88Z" transform="translate(-251.071 -330.441)" fill="#aaa"/>
    <path id="Path_5642" data-name="Path 5642" d="M295.2,862.462a19.832,19.832,0,0,0,4.5-.752,5.985,5.985,0,0,1,.133.733q.374,6,.726,12a.483.483,0,0,1-.186.374c-.543.319-1.1.6-1.71.932C297.771,871.247,297.151,866.7,295.2,862.462Z" transform="translate(-279.231 -791.72)" fill="#aaa"/>
  </g>
</svg>
