<svg xmlns="http://www.w3.org/2000/svg" xmlns:xlink="http://www.w3.org/1999/xlink" width="300" height="49.949" viewBox="0 0 300 49.949">
  <defs>
    <linearGradient id="linear-gradient" y1="0.5" x2="1" y2="0.5" gradientUnits="objectBoundingBox">
      <stop offset="0" stop-color="#e1dede"/>
      <stop offset="0.24" stop-color="#fff"/>
      <stop offset="0.69" stop-color="#e1dede"/>
      <stop offset="1" stop-color="#fff"/>
    </linearGradient>
    <linearGradient id="linear-gradient-5" y1="0.5" x2="1" y2="0.5" gradientUnits="objectBoundingBox">
      <stop offset="0" stop-color="#cbcbcb"/>
      <stop offset="0.24" stop-color="#fff"/>
      <stop offset="0.69" stop-color="#cbcbcb"/>
      <stop offset="1" stop-color="#fff"/>
    </linearGradient>
    <linearGradient id="linear-gradient-6" x1="0" y1="0.5" x2="1" y2="0.5" xlink:href="#linear-gradient-5"/>
    <linearGradient id="linear-gradient-7" x1="0" y1="0.5" x2="1" y2="0.5" xlink:href="#linear-gradient-5"/>
    <linearGradient id="linear-gradient-8" y1="0.5" x2="1" y2="0.5" gradientUnits="objectBoundingBox">
      <stop offset="0" stop-color="#fff" stop-opacity="0.502"/>
      <stop offset="0.24" stop-color="#fff"/>
      <stop offset="0.69" stop-color="#fff" stop-opacity="0.502"/>
      <stop offset="1" stop-color="#fff"/>
    </linearGradient>
    <linearGradient id="linear-gradient-9" x1="0.001" y1="0.5" x2="1.001" y2="0.5" xlink:href="#linear-gradient-5"/>
    <clipPath id="clip-path">
      <path id="Path_9530" data-name="Path 9530" d="M2177.627,137.4a2.257,2.257,0,0,1-.726,1.707,2.34,2.34,0,0,1-1.707.726h-.061a2.339,2.339,0,0,1-1.707-.726,2.256,2.256,0,0,1-.726-1.707V118.08a9.681,9.681,0,0,1,9.68-9.68q4.793,0,7.221,3.177,2.416-3.177,7.2-3.177a9.682,9.682,0,0,1,9.68,9.68V137.4a2.3,2.3,0,0,1-.709,1.707,2.367,2.367,0,0,1-1.733.726H2204a2.482,2.482,0,0,1-2.433-2.433V118.08a4.761,4.761,0,1,0-9.522,0V137.4a2.482,2.482,0,0,1-2.433,2.433h-.043a2.381,2.381,0,0,1-1.733-.726,2.255,2.255,0,0,1-.727-1.707V118.08a4.752,4.752,0,1,0-9.5,0V137.4Z" transform="translate(-2172.7 -108.4)" fill="url(#linear-gradient-5)"/>
    </clipPath>
    <clipPath id="clip-path-2">
      <path id="Path_9531" data-name="Path 9531" d="M2611.962,207.671h0a6.633,6.633,0,0,0-6.66,6.678v.14l11.247-5.05a5.647,5.647,0,0,0-4.586-1.768m10.529,1.794a2.38,2.38,0,0,1,.245,1.024,2.458,2.458,0,0,1-.158.849,2.3,2.3,0,0,1-1.287,1.365q-2.823,1.273-7.4,3.343-5.7,2.573-6.678,3.037a5.722,5.722,0,0,0,4.77,1.934,6.467,6.467,0,0,0,3.9-1.269,6.647,6.647,0,0,0,2.4-3.221,2.27,2.27,0,0,1,2.337-1.654,2.333,2.333,0,0,1,2,1.05,2.283,2.283,0,0,1,.464,1.348,2.6,2.6,0,0,1-.157.866,11.6,11.6,0,1,1-4.6-13.548A11.5,11.5,0,0,1,2622.49,209.466Z" transform="translate(-2600.4 -202.7)" fill="url(#linear-gradient-6)"/>
    </clipPath>
    <clipPath id="clip-path-3">
      <path id="Path_9532" data-name="Path 9532" d="M2903.094,108.4a2.451,2.451,0,0,1,2.434,2.442v5.811h3.02a2.335,2.335,0,0,1,1.706.726,2.368,2.368,0,0,1,.727,1.733v.044a2.255,2.255,0,0,1-.727,1.707,2.335,2.335,0,0,1-1.706.726h-3.02v11.929a1.332,1.332,0,0,0,.4.989,1.359,1.359,0,0,0,1.007.4h1.611a2.336,2.336,0,0,1,1.706.726,2.368,2.368,0,0,1,.727,1.733v.044a2.255,2.255,0,0,1-.727,1.707,2.336,2.336,0,0,1-1.706.726h-1.611a6.321,6.321,0,0,1-6.337-6.319V110.842a2.451,2.451,0,0,1,2.433-2.442Z" transform="translate(-2900.6 -108.4)" fill="url(#linear-gradient-7)"/>
    </clipPath>
    <clipPath id="clip-path-4">
      <path id="Path_9533" data-name="Path 9533" d="M3058.353,209.488h0a6.676,6.676,0,1,0,4.725-1.952,6.462,6.462,0,0,0-4.725,1.952m12.918-3.475a11.17,11.17,0,0,1,3.4,8.192v9.155a2.255,2.255,0,0,1-.727,1.707,2.338,2.338,0,0,1-1.707.726h-.062a2.338,2.338,0,0,1-1.707-.726,2.255,2.255,0,0,1-.726-1.707c-1.531,1.619-3.746,2.433-6.661,2.433a11.6,11.6,0,1,1,8.183-19.78Z" transform="translate(-3051.5 -202.6)" fill="url(#linear-gradient-8)"/>
    </clipPath>
    <linearGradient id="linear-gradient-15" x1="0" y1="0.5" x2="1" y2="0.5" xlink:href="#linear-gradient-5"/>
    <clipPath id="clip-path-5">
      <path id="Path_9534" data-name="Path 9534" d="M3373.895,108.4a2.451,2.451,0,0,1,2.433,2.442V137.4a2.254,2.254,0,0,1-.727,1.707,2.335,2.335,0,0,1-1.706.726h-.062a2.337,2.337,0,0,1-1.707-.726,2.255,2.255,0,0,1-.727-1.707V110.842a2.451,2.451,0,0,1,2.433-2.442Z" transform="translate(-3371.4 -108.4)" fill="url(#linear-gradient-9)"/>
    </clipPath>
  </defs>
  <g id="salda" transform="translate(0 -2)">
    <path id="Union_22" data-name="Union 22" d="M-2448.055-22.217c2.057-3.6,6.564-11.439,9.716-16.927l-2.976-5.154c-1.286,2.336-10.257,18.59-12.174,22.073h-5.714c-.079-.14-13.094-21.189-13.094-21.189-.009.017-2.748,5.269-2.758,5.277.019.027,10.426,15.912,10.426,15.912h-5.068c-.114-.157-10.223-15.29-10.3-15.413.716-1.365,6.834-13.093,7.571-14.5,4.054,6.419,11.712,18.54,15.941,25.23,4.084-7.136,11.471-20.05,14.937-26.114.8,1.374,7.413,12.83,8.175,14.17-2.784,4.831-9.54,16.525-9.6,16.638Z" transform="translate(2480 74.167)" fill="url(#linear-gradient)"/>
    <path id="Union_21" data-name="Union 21" d="M-443.055-10.218c2.057-3.6,6.565-11.439,9.716-16.927l-2.976-5.154c-1.286,2.336-10.257,18.59-12.174,22.073H-454.2c-.079-.14-13.093-21.189-13.093-21.189-.009.017-2.749,5.269-2.758,5.277l10.425,15.912H-464.7c-.113-.158-10.222-15.29-10.3-15.413.717-1.365,6.836-13.093,7.571-14.5,4.054,6.419,11.712,18.54,15.941,25.231,4.084-7.136,11.472-20.05,14.937-26.115.8,1.374,7.413,12.83,8.175,14.17-2.784,4.831-9.54,16.525-9.6,16.638Z" transform="translate(475 62.167)" fill="url(#linear-gradient)"/>
    <path id="Path_9524" data-name="Path 9524" d="M125,15.1c-3.615,6.547-7.352,13.75-9.514,17.951-.849-1.339-7.956-12.507-8.787-13.8,2.573-4.936,8.822-16.918,8.875-17.032,1.689-.07,3.387-.149,5.068-.219-1.9,3.676-6.065,11.71-8.98,17.329.035.061,3.16,4.963,3.195,5.024.621-1.252,8.35-15.334,10.678-19.4.8,1.374,7.413,12.831,8.183,14.17-2.783,4.822-9.54,16.524-9.6,16.638h-5.076c2.057-3.588,6.564-11.43,9.715-16.927l-2.976-5.155c-.674,1.225-3.317,6.267-6.083,11.273Z" transform="translate(-97.361)" fill="#009ee3"/>
    <path id="Path_9525" data-name="Path 9525" d="M733.96,112a4.124,4.124,0,0,0-4.149,4.149,3.386,3.386,0,0,0,1.873,3.116,34.3,34.3,0,0,0,4.849,1.628,13.1,13.1,0,0,1,5.032,2.477,7.757,7.757,0,0,1,2.372,6.057,9.174,9.174,0,0,1-9.137,9.137h-7.667a2.482,2.482,0,0,1-2.433-2.433V136a2.482,2.482,0,0,1,2.433-2.433H735a4.059,4.059,0,0,0,2.941-1.208,4,4,0,0,0,1.208-2.941,3.5,3.5,0,0,0-1.873-3.142,32.1,32.1,0,0,0-4.866-1.768,13.956,13.956,0,0,1-5.006-2.556,7.428,7.428,0,0,1-2.372-5.82A9.144,9.144,0,0,1,734.17,107h5.409a2.367,2.367,0,0,1,1.733.726,2.324,2.324,0,0,1,.7,1.715v.123A2.435,2.435,0,0,1,739.579,112Z" transform="translate(-661.273 -95.81)" fill="#009ee3"/>
    <path id="Path_9526" data-name="Path 9526" d="M990.462,209.488h0a6.677,6.677,0,1,0,4.726-1.952,6.462,6.462,0,0,0-4.726,1.952m12.918-3.475a11.17,11.17,0,0,1,3.4,8.192v9.155a2.255,2.255,0,0,1-.726,1.707,2.338,2.338,0,0,1-1.707.726h-.061a2.338,2.338,0,0,1-1.707-.726,2.255,2.255,0,0,1-.726-1.707c-1.532,1.619-3.746,2.433-6.661,2.433a11.6,11.6,0,1,1,8.183-19.78Z" transform="translate(-897.513 -183.043)" fill="#009ee3"/>
    <path id="Path_9527" data-name="Path 9527" d="M1306.094,108.4a2.451,2.451,0,0,1,2.433,2.442V137.4a2.254,2.254,0,0,1-.727,1.707,2.337,2.337,0,0,1-1.707.726h-.061a2.338,2.338,0,0,1-1.707-.726,2.255,2.255,0,0,1-.726-1.707V110.842a2.45,2.45,0,0,1,2.433-2.442Z" transform="translate(-1189.506 -97.088)" fill="#009ee3"/>
    <path id="Path_9528" data-name="Path 9528" d="M1415.062,123.485h0a6.669,6.669,0,0,0,4.726,11.387,6.669,6.669,0,1,0-4.726-11.387m13.89-15.176a2.451,2.451,0,0,1,2.433,2.442V128.22a11.579,11.579,0,1,1-11.588-11.667c2.914,0,5.129.674,6.661,2.013v-7.824a2.45,2.45,0,0,1,2.433-2.442h.061Z" transform="translate(-1284.951 -96.996)" fill="#009ee3"/>
    <path id="Path_9529" data-name="Path 9529" d="M1725.962,209.488h0a6.677,6.677,0,1,0,4.726-1.952,6.461,6.461,0,0,0-4.726,1.952m12.918-3.475a11.17,11.17,0,0,1,3.4,8.192v9.155a2.255,2.255,0,0,1-.727,1.707,2.337,2.337,0,0,1-1.706.726h-.061a2.338,2.338,0,0,1-1.707-.726,2.256,2.256,0,0,1-.727-1.707c-1.532,1.619-3.746,2.433-6.66,2.433a11.6,11.6,0,1,1,8.183-19.78Z" transform="translate(-1568.64 -183.043)" fill="#009ee3"/>
    <g id="Group_5369" data-name="Group 5369" transform="translate(190.16 11.312)">
      <g id="Group_5368" data-name="Group 5368" clip-path="url(#clip-path)">
        <rect id="Rectangle_1308" data-name="Rectangle 1308" width="33.784" height="31.429" transform="translate(0 0)" fill="url(#linear-gradient-5)"/>
      </g>
    </g>
    <g id="Group_5371" data-name="Group 5371" transform="translate(227.593 19.566)">
      <g id="Group_5370" data-name="Group 5370" clip-path="url(#clip-path-2)">
        <rect id="Rectangle_1309" data-name="Rectangle 1309" width="22.677" height="23.185" transform="translate(-0.026 0)" fill="url(#linear-gradient-6)"/>
      </g>
    </g>
    <g id="Group_5373" data-name="Group 5373" transform="translate(253.867 11.312)">
      <g id="Group_5372" data-name="Group 5372" transform="translate(0 0)" clip-path="url(#clip-path-3)">
        <rect id="Rectangle_1310" data-name="Rectangle 1310" width="10.38" height="31.429" transform="translate(0)" fill="url(#linear-gradient-7)"/>
      </g>
    </g>
    <g id="Group_5375" data-name="Group 5375" transform="translate(267.074 19.557)">
      <g id="Group_5374" data-name="Group 5374" clip-path="url(#clip-path-4)">
        <rect id="Rectangle_1311" data-name="Rectangle 1311" width="23.185" height="23.185" transform="translate(-0.009 0.009)" fill="url(#linear-gradient-15)"/>
      </g>
    </g>
    <g id="Group_5377" data-name="Group 5377" transform="translate(295.073 11.312)">
      <g id="Group_5376" data-name="Group 5376" transform="translate(0 0)" clip-path="url(#clip-path-5)">
        <rect id="Rectangle_1312" data-name="Rectangle 1312" width="4.928" height="31.429" fill="url(#linear-gradient-9)"/>
      </g>
    </g>
  </g>
</svg>
