<svg xmlns="http://www.w3.org/2000/svg" width="88.306" height="63.583" viewBox="0 0 88.306 63.583">
  <g id="Layer_2" data-name="Layer 2" transform="translate(0.002)">
    <g id="Layer_1" data-name="Layer 1" transform="translate(-0.002)">
      <path id="Path_118" data-name="Path 118" d="M15.348,0H17.56V26.564H15.348V23.207h-.074a6.034,6.034,0,0,1-1.237,1.685,7.432,7.432,0,0,1-1.661,1.195,8.949,8.949,0,0,1-1.864.739,7.253,7.253,0,0,1-1.882.257,9.109,9.109,0,0,1-3.947-.775A7.328,7.328,0,0,1,2.01,24.185,8.636,8.636,0,0,1,.478,21,15.59,15.59,0,0,1,0,17.046a14.164,14.164,0,0,1,.516-3.837A9.507,9.507,0,0,1,2.083,9.981,7.78,7.78,0,0,1,4.74,7.766a8.121,8.121,0,0,1,3.784-.83,8.835,8.835,0,0,1,3.893.9,6.884,6.884,0,0,1,2.932,2.675Zm0,16.926a10.554,10.554,0,0,0-.444-3.081A7.949,7.949,0,0,0,13.631,11.3,6.271,6.271,0,0,0,11.6,9.566,5.634,5.634,0,0,0,8.89,8.921,6.173,6.173,0,0,0,5.9,9.6a5.89,5.89,0,0,0-2.065,1.864,8.053,8.053,0,0,0-1.181,2.748A12.436,12.436,0,0,0,2.362,17.6a9.381,9.381,0,0,0,.5,3.186,6.771,6.771,0,0,0,1.394,2.344,5.916,5.916,0,0,0,2.065,1.458,6.571,6.571,0,0,0,2.589.5,5.958,5.958,0,0,0,2.768-.627A5.831,5.831,0,0,0,13.7,22.741a7.874,7.874,0,0,0,1.235-2.589,11.771,11.771,0,0,0,.408-3.226Z" transform="translate(0.002)"/>
      <path id="Path_119" data-name="Path 119" d="M108,3.284V0h2.433V3.284Zm.11,23.281V7.448h2.214V26.564Z" transform="translate(-86.493)"/>
      <path id="Path_120" data-name="Path 120" d="M128.58,37.43h2.39l6.2,16.381,6.2-16.381h2.39l-7.416,19.117h-2.457Z" transform="translate(-102.975 -29.976)"/>
      <path id="Path_121" data-name="Path 121" d="M227.126,43.34q.627-.074,1.493-.223a5.664,5.664,0,0,0,1.422-.4,1.183,1.183,0,0,0,.683-.868,5.471,5.471,0,0,0,.127-1.125,3.784,3.784,0,0,0-1.087-2.788,5.088,5.088,0,0,0-3.672-1.087,10.155,10.155,0,0,0-2.1.2,4.58,4.58,0,0,0-1.679.7,3.863,3.863,0,0,0-1.181,1.328,5.641,5.641,0,0,0-.6,2.083h-2.262a6.848,6.848,0,0,1,.775-2.889,5.9,5.9,0,0,1,1.717-1.955A7.155,7.155,0,0,1,223.2,35.21a11.934,11.934,0,0,1,2.933-.35,11.314,11.314,0,0,1,2.712.315,6.3,6.3,0,0,1,2.212,1A4.628,4.628,0,0,1,232.531,38a6.593,6.593,0,0,1,.536,2.8V51.2c0,.862.153,1.408.462,1.643s.928.177,1.862-.167V54.4l-.757.221a3.447,3.447,0,0,1-.978.147,4.423,4.423,0,0,1-1-.11,1.717,1.717,0,0,1-.884-.35,2.145,2.145,0,0,1-.536-.665,2.758,2.758,0,0,1-.277-.848,6.112,6.112,0,0,1-.074-.978,9.632,9.632,0,0,1-3.214,2.368,9.459,9.459,0,0,1-3.907.812,8.779,8.779,0,0,1-2.417-.331,5.874,5.874,0,0,1-2.039-1.035,5.146,5.146,0,0,1-1.394-1.717A5.259,5.259,0,0,1,217.4,49.5q0-4.873,6.677-5.757Zm3.736,1.105a10.847,10.847,0,0,1-2.84.777q-1.44.181-2.879.295a8.122,8.122,0,0,0-3.965,1.143,3.276,3.276,0,0,0-1.42,2.915,3.174,3.174,0,0,0,.348,1.531,3.242,3.242,0,0,0,.924,1.069,3.883,3.883,0,0,0,1.328.627,5.87,5.87,0,0,0,1.531.2,10.084,10.084,0,0,0,2.589-.333,7,7,0,0,0,2.23-1.014,5.177,5.177,0,0,0,1.569-1.734,5.022,5.022,0,0,0,.583-2.489Z" transform="translate(-174.108 -27.918)"/>
      <path id="Path_122" data-name="Path 122" d="M318.1,54.457H315.89V35.34H318.1V38a14.033,14.033,0,0,1,2.748-2.288,6.386,6.386,0,0,1,3.425-.886,8.7,8.7,0,0,1,3.284.609,5.607,5.607,0,0,1,2.547,2.121,4.793,4.793,0,0,1,.82,2.123,19.353,19.353,0,0,1,.12,2.268V54.457h-2.2V41.987a5.68,5.68,0,0,0-1.145-3.875,4.879,4.879,0,0,0-3.8-1.29,5.392,5.392,0,0,0-1.882.313,5.938,5.938,0,0,0-1.523.83,5.523,5.523,0,0,0-1.161,1.181,5.416,5.416,0,0,0-.739,1.394,7.079,7.079,0,0,0-.4,1.77c-.05.568-.074,1.181-.074,1.846Z" transform="translate(-252.985 -27.893)"/>
      <path id="Path_123" data-name="Path 123" d="M6.474,210.094H4.26V183.456H6.474v3.357h.074a6.45,6.45,0,0,1,1.245-1.659,7.207,7.207,0,0,1,1.659-1.219,8.941,8.941,0,0,1,1.864-.737,7.169,7.169,0,0,1,1.882-.259,9.109,9.109,0,0,1,3.947.775,7.356,7.356,0,0,1,2.676,2.121,8.664,8.664,0,0,1,1.529,3.186,15.6,15.6,0,0,1,.48,3.947,14.153,14.153,0,0,1-.516,3.837,9.53,9.53,0,0,1-1.573,3.236,7.766,7.766,0,0,1-2.656,2.212,8.136,8.136,0,0,1-3.784.83,8.792,8.792,0,0,1-3.891-.9,6.836,6.836,0,0,1-2.933-2.674Zm0-17.008a10.554,10.554,0,0,0,.442,3.081,7.981,7.981,0,0,0,1.274,2.547,6.265,6.265,0,0,0,2.029,1.732,5.618,5.618,0,0,0,2.71.647,6.185,6.185,0,0,0,2.971-.683,5.848,5.848,0,0,0,2.085-1.864,8.055,8.055,0,0,0,1.179-2.748,12.492,12.492,0,0,0,.3-3.375,9.391,9.391,0,0,0-.5-3.186,6.812,6.812,0,0,0-1.382-2.344,5.911,5.911,0,0,0-2.067-1.456,6.571,6.571,0,0,0-2.589-.5,5.974,5.974,0,0,0-2.766.627,5.836,5.836,0,0,0-2.029,1.717,7.856,7.856,0,0,0-1.237,2.589,11.781,11.781,0,0,0-.418,3.216Z" transform="translate(-3.411 -146.51)"/>
      <path id="Path_124" data-name="Path 124" d="M108.57,174.674V148.11h2.214v26.564Z" transform="translate(-86.95 -118.616)"/>
      <path id="Path_125" data-name="Path 125" d="M151.717,185.53h2.214v19.117h-2.214v-2.66q-.442.516-1,1.069a7.618,7.618,0,0,1-1.272,1.016,7.352,7.352,0,0,1-1.679.775,7.137,7.137,0,0,1-2.214.313,8.442,8.442,0,0,1-3.21-.534,5.269,5.269,0,0,1-2.085-1.5,5.929,5.929,0,0,1-1.143-2.232,10.411,10.411,0,0,1-.35-2.788V185.53h2.214v12.545a5.589,5.589,0,0,0,1.143,3.784,4.762,4.762,0,0,0,3.764,1.31,5.494,5.494,0,0,0,2.453-.536,5.131,5.131,0,0,0,1.826-1.493,7.127,7.127,0,0,0,1.143-2.288,9.939,9.939,0,0,0,.4-2.915Z" transform="translate(-111.134 -148.585)"/>
      <path id="Path_126" data-name="Path 126" d="M229.926,196.591a5.6,5.6,0,0,0,1.862,3.487,6.33,6.33,0,0,0,3.855,1.016,6.653,6.653,0,0,0,2.1-.3,4.182,4.182,0,0,0,1.458-.8,3.419,3.419,0,0,0,.878-1.117,3.1,3.1,0,0,0,.295-1.328,2.459,2.459,0,0,0-.9-2.085,6.866,6.866,0,0,0-2.27-1.069,29.251,29.251,0,0,0-2.951-.665,14.267,14.267,0,0,1-2.959-.826,5.908,5.908,0,0,1-2.27-1.593,4.293,4.293,0,0,1-.9-2.915,4.978,4.978,0,0,1,1.752-3.929,7.3,7.3,0,0,1,4.962-1.531,8.47,8.47,0,0,1,5.036,1.384,6.322,6.322,0,0,1,2.342,4.63h-2.25a4.136,4.136,0,0,0-1.673-3.118,6.279,6.279,0,0,0-3.487-.9,4.967,4.967,0,0,0-3.21.9,2.929,2.929,0,0,0-1.107,2.39,2.325,2.325,0,0,0,.9,1.975,7.4,7.4,0,0,0,2.27,1.107q1.366.424,2.951.755a14.617,14.617,0,0,1,2.951.942,6.5,6.5,0,0,1,2.27,1.641,4.24,4.24,0,0,1,.9,2.877,4.843,4.843,0,0,1-.6,2.418,5.13,5.13,0,0,1-1.623,1.752,7.536,7.536,0,0,1-2.453,1.051,13.055,13.055,0,0,1-3.118.35,8.418,8.418,0,0,1-3.007-.5,6.533,6.533,0,0,1-2.232-1.394,6.372,6.372,0,0,1-1.438-2.065,7.292,7.292,0,0,1-.6-2.547Z" transform="translate(-182.333 -146.51)"/>
      <path id="Path_127" data-name="Path 127" d="M346,178.58h2.551v9.359h9.359v2.553H348.55v9.359H346v-9.359H336.64v-2.559H346Z" transform="translate(-269.603 -143.019)" fill="#fab209"/>
    </g>
  </g>
</svg>
