<?xml version="1.0" standalone="no"?>
<!DOCTYPE svg PUBLIC "-//W3C//DTD SVG 20010904//EN"
 "http://www.w3.org/TR/2001/REC-SVG-20010904/DTD/svg10.dtd">
<svg version="1.0" xmlns="http://www.w3.org/2000/svg"
 width="180.000000pt" height="180.000000pt" viewBox="0 0 180.000000 180.000000"
 preserveAspectRatio="xMidYMid meet">
<metadata>
Created by potrace 1.14, written by Peter Selinger 2001-2017
</metadata>
<g transform="translate(0.000000,180.000000) scale(0.100000,-0.100000)"
fill="#000000" stroke="none">
<path d="M0 900 l0 -900 900 0 900 0 0 900 0 900 -900 0 -900 0 0 -900z m890
617 c0 -2 -50 -99 -110 -215 l-110 -212 41 -65 c22 -36 42 -65 44 -65 2 0 61
106 132 235 70 129 130 235 133 235 7 0 194 -326 193 -336 -1 -5 -52 -98 -115
-206 l-113 -198 -58 0 -59 0 20 33 c80 133 212 368 212 377 0 19 -64 130 -74
127 -4 -2 -63 -105 -130 -230 -66 -125 -124 -226 -128 -224 -4 1 -53 73 -108
160 l-101 159 108 208 108 209 45 4 c25 2 51 4 58 5 6 1 12 0 12 -1z m476
-629 c48 -84 93 -162 101 -173 11 -19 1 -41 -106 -225 l-119 -205 -61 -3 c-34
-2 -61 -1 -61 1 0 3 52 95 115 206 63 110 115 204 115 209 0 14 -61 122 -68
122 -4 0 -74 -122 -156 -270 l-148 -270 -72 0 -71 0 -160 259 c-88 143 -163
257 -167 253 -4 -4 -20 -31 -36 -61 l-30 -53 102 -157 c57 -86 115 -175 129
-198 l27 -43 -62 0 -63 0 -127 192 -127 192 89 170 c49 94 94 171 100 171 5 0
91 -128 189 -285 99 -157 185 -293 193 -304 12 -16 31 12 197 303 101 177 185
321 186 321 2 0 43 -69 91 -152z"/>
</g>
</svg>
